<?xml version="1.0" encoding="utf-8"?>
<!-- Generator: Adobe Illustrator 23.0.1, SVG Export Plug-In . SVG Version: 6.00 Build 0)  -->
<svg version="1.1" id="dizajn" xmlns="http://www.w3.org/2000/svg" xmlns:xlink="http://www.w3.org/1999/xlink" x="0px" y="0px"
	 viewBox="0 0 608.11 790.58" style="enable-background:new 0 0 608.11 790.58;" xml:space="preserve">
<style type="text/css">
	.st0{fill:#D4EDFF;}
	.st1{fill:#0063CB;}
	.st2{fill:#8DCFFF;}
	.st3{fill:#FFFFFF;}
	.st4{fill:#387BFF;}
	.st5{fill:#E9D6B8;}
	.st6{fill:#B0BFDE;}
	.st7{fill:#D1DBEA;}
	.st8{fill:#163F59;}
	.st9{fill:#194866;}
	.st10{fill:#161711;}
	.st11{fill:#F7D200;}
	.st12{fill:#D8E5ED;}
</style>
<g>
	<path class="st0" d="M513.64,211.19v13.49h14.18c0.87,4.32,2.59,8.3,4.93,11.85l-10.04,10.04l9.54,9.54l10.05-10.04
		c3.54,2.34,7.53,4.06,11.83,4.93v14.18h13.5V251c4.3-0.87,8.29-2.58,11.83-4.93l10.04,10.04l9.55-9.54l-10.04-10.04
		c2.34-3.54,4.05-7.54,4.93-11.84h14.17v-13.49h-14.17c-0.88-4.31-2.59-8.3-4.93-11.84l10.04-10.05l-9.54-9.54l-10.05,10.05
		c-3.54-2.35-7.54-4.06-11.84-4.94v-14.17h-13.5v14.17c-4.3,0.88-8.3,2.59-11.83,4.93l-10.05-10.04l-9.54,9.55l10.04,10.04
		c-2.34,3.54-4.06,7.53-4.93,11.84H513.64z M560.88,197.7c11.17,0,20.24,9.07,20.24,20.24c0,11.18-9.07,20.25-20.24,20.25
		c-11.18,0-20.24-9.07-20.24-20.25C540.64,206.77,549.7,197.7,560.88,197.7z"/>
</g>
<path class="st1" d="M408.76,328.4c-4.19,0-7.57-3.39-7.57-7.58v-48.44H383.5l17.68-17.68v-11.45c0-4.18,3.39-7.57,7.57-7.57h91.42
	c4.18,0,7.58,3.39,7.58,7.57v77.57c0,4.18-3.39,7.58-7.58,7.58H408.76z"/>
<path class="st2" d="M330.34,235.5c0,10.31-8.36,18.67-18.67,18.67h-12.45v43.57l-43.57-43.57H112.49
	c-10.32,0-18.67-8.35-18.67-18.67V79.89c0-10.31,8.36-18.68,18.67-18.68h199.19c10.3,0,18.67,8.36,18.67,18.68V235.5z"/>
<rect x="131.17" y="117.23" class="st3" width="161.83" height="12.45"/>
<rect x="131.17" y="148.35" class="st3" width="161.83" height="12.45"/>
<rect x="131.17" y="179.48" class="st3" width="161.83" height="12.45"/>
<g>
	<path class="st4" d="M168.31,378.88c7.53,0,13.64-6.11,13.64-13.64v-9.09h31.83l-31.83-31.83v-81.85c0-7.53-6.11-13.64-13.64-13.64
		H36.45c-7.53,0-13.64,6.11-13.64,13.64v122.77c0,7.54,6.11,13.64,13.64,13.64H168.31z"/>
</g>
<path class="st2" d="M22.81,144.51C10.21,144.51,0,154.72,0,167.31c0,12.6,22.81,47.14,22.81,47.14s22.81-34.53,22.81-47.14
	C45.61,154.72,35.4,144.51,22.81,144.51z M22.8,175.32c-3.72,0-6.74-3.02-6.74-6.75c0-3.72,3.02-6.75,6.74-6.75
	c3.72,0,6.75,3.03,6.75,6.75C29.55,172.3,26.53,175.32,22.8,175.32z"/>
<g>
	<path class="st5" d="M294.76,510.93l-4.43,57.2c0,0-15.43-30.65-17.08-52.12C271.59,494.55,295.16,510.12,294.76,510.93z"/>
	<path class="st5" d="M397.01,478.38l-28.08,45.65c0,0,41.77-20.06,39.6-38.74C406.37,466.62,397.01,478.38,397.01,478.38z"/>
	<path class="st5" d="M325.93,370.02c0.54,6.53,4.05,12.18,7.74,12.45c3.49,0,7,0,10.5,0c3.69-0.27,7.19-5.92,7.74-12.45
		c0.85-10.77,1.71-21.52,2.59-32.28c0.57-6.46-1.95-19.41-7.54-23.23c-5.11-3.4-10.96-3.4-16.07,0c-5.59,3.83-8.11,16.78-7.54,23.23
		C324.21,348.5,325.07,359.26,325.93,370.02z"/>
	<path class="st6" d="M295.47,386.39c0,0-13.68,8.99-21.6,63.63c-7.92,54.65-2.88,52.56-2.88,52.56l1.44,12.45l20.17,2.08
		l11.52-47.03L295.47,386.39z"/>
	<path class="st7" d="M290.43,387.08l31.76-14.34l16.39,4.91l20.26-2.32l22.33,9.68c0,0,10.08,9.68,0.72,40.81
		c-9.37,31.12-7.97,82.52-7.97,82.52l-81.06,5.14C292.86,513.47,298.36,404.37,290.43,387.08z"/>
	<path class="st7" d="M366.77,386.39c0,0,12.24-6.92,24.48,8.3c20.86,25.93,30.96,58.1,33.13,64.33c2.16,6.23,5.03,24.9-3.6,30.43
		c-8.64,5.54-8.64,5.54-8.64,5.54l-18-11.07l2.88-5.53l1.45-3.46c0,0-10.08-22.14-20.89-42.2
		C366.77,412.67,366.77,386.39,366.77,386.39z"/>
	<polygon class="st6" points="342.59,376.94 350.6,385.69 358.62,374.14 353.8,367.02 	"/>
	<polygon class="st6" points="325,367.72 340.4,377.65 333.12,386.39 321.1,372.74 	"/>
	<g>
		<path class="st8" d="M337.37,306.9v-7.46h-3.08h-8.13h-4.91c-5.42,0-9.82,4.4-9.82,9.82v7.46h3.09h8.13h4.91
			C332.99,316.72,337.37,312.32,337.37,306.9z"/>
		<path class="st5" d="M352.83,352.21c0,4.82-3.91,8.73-8.74,8.73h-19.81c-4.82,0-8.73-3.91-8.73-8.73v-39.62
			c0-4.83,3.91-8.74,8.73-8.74h19.81c4.82,0,8.74,3.91,8.74,8.74V352.21z"/>
		<path class="st8" d="M338,299.43c3.44,0,6.45,1.78,8.21,4.44h3.37c4.21,0,7.61,3.41,7.61,7.61v18.8h-5.35v-7.64
			c0-2.96-2.4-5.35-5.36-5.35h-3.12h-8.13h-4.91c-5.43,0-9.82-4.4-9.82-9.82v-8.04H338z"/>
		<path class="st5" d="M350.15,335.16c0-2.57,2.08-4.65,4.66-4.65h0.39c2.57,0,4.66,2.08,4.66,4.65v5.66c0,2.57-2.09,4.66-4.66,4.66
			h-0.39c-1.9,0-3.54-1.14-4.26-2.78L350.15,335.16z"/>
	</g>
	<g>
		<path class="st8" d="M344.82,542.77c0,0-24.42,86.5-43.99,117.46c-19.56,30.97-26.39-9.31-26.39-9.31l24.29-143.85l56.84-0.35
			C355.58,506.72,354.13,509.66,344.82,542.77z"/>
		<path class="st9" d="M317.84,507.06c0,0,16.36,141.9,18.71,149.03c7.92,24.12,26.02,8.55,28.81,0.51
			c2.8-8.04,7.46-67.53,6.52-110.95c-0.93-43.42-0.93-40.57-0.93-40.57L317.84,507.06z"/>
		<path class="st10" d="M367.69,785.67c0.84,1.02,0.23,3.71,0.23,3.71s-14.72,1.64-19.45,0.53c-1.23-0.29-3.31-1.35-5.26-2.47
			c-0.33-0.19-0.92-1.32-1.23-1.51c-0.6-0.35-0.9,0.24-1.41-0.08c-1.31-0.82-2.23-1.46-2.25-1.55c-1.29-6.75,0.43-9.46,0.43-9.46
			s12.53-4.17,14.88-1.26C359.14,780.4,365.85,783.43,367.69,785.67z"/>
		<path class="st10" d="M276.18,779.61l-2.09,10.97H262.9c0,0-0.62-1.55-1.57-1.55c-0.79,0-1.83,1.55-2.91,1.55
			c-2.35,0-4.96,0-6.01,0c-2.09,0-22.43,0-22.43,0s-0.51-2.31,0.11-3.1c0.31-0.41,2.19-1.11,3.44-1.47
			c5.77-1.62,22.31-6.69,25.18-12.2C262.2,767.08,276.18,779.61,276.18,779.61z"/>
		<path class="st9" d="M332.4,595.54c0,0,3.63,53.82,3.1,82.28c-0.38,21.46-0.43,62.61,2.83,97.66c0.2,2.14,17.71,0.52,17.71,0.52
			s11.75-134.15,13.61-156.13C371.52,597.89,346.37,579.84,332.4,595.54z"/>
		<path class="st8" d="M280.48,655.12c0,0,4.95,1.08,20.51,2.43c7.09,0.61-20.74,124.16-20.74,124.16l-22.03-9.5l16.6-124.47
			L280.48,655.12z"/>
	</g>
</g>
<g>
	<g>
		<path class="st11" d="M484.64,149.92c17.46-13.81,27.43-32.9,28.83-55.16c0.08-1.37,0.14-2.75,0.18-4.16v0c0,0,0-0.01,0-0.01
			c0.12-8.54-0.92-15.79-3.45-23.95c-0.07-0.22-0.15-0.43-0.21-0.64c0.06,0.21,0.14,0.41,0.2,0.62l-22.79,7.06
			c1.62,5.23,2.47,10.8,2.38,16.57v0c-0.25,17.8-9.17,33.44-22.68,42.98l13.76,19.51C482.15,151.84,483.41,150.89,484.64,149.92z"/>
		<path class="st4" d="M392.5,120.34c-6.31-8.92-9.95-19.84-9.79-31.6c0.41-29.56,24.72-53.19,54.28-52.77
			c23.78,0.33,43.71,16.14,50.38,37.7l22.79-7.06c-0.06-0.21-0.14-0.41-0.2-0.62c-0.31-0.96-0.63-1.91-0.97-2.85
			c-0.09-0.26-0.2-0.53-0.3-0.8c-10.84-29.26-36.93-48.5-68.21-50.13c-0.74-0.04-1.47-0.06-2.2-0.07c-0.33-0.01-0.65-0.03-0.97-0.04
			c-0.06,0-0.12,0.01-0.19,0.01c-1.03-0.01-2.06,0-3.1,0.03c-0.3,0.02-0.61,0.01-0.93,0.03c-0.8,0.03-1.61,0.09-2.41,0.15
			c-0.56,0.04-1.12,0.07-1.68,0.12c-0.45,0.04-0.89,0.1-1.33,0.15c-0.93,0.1-1.85,0.2-2.77,0.34c-0.06,0.01-0.1,0.02-0.16,0.03
			c-6.6,0.98-12.92,2.8-18.88,5.34c-0.72,0.31-1.47,0.62-2.2,0.96c-0.01,0.01-0.04,0.02-0.06,0.03
			c-23.77,11.05-41.04,33.84-44.26,61.03c-0.02,0.15-0.04,0.31-0.05,0.46c-0.1,0.91-0.18,1.83-0.25,2.75
			c-0.04,0.47-0.07,0.94-0.1,1.41c-0.04,0.62-0.06,1.25-0.08,1.87c-0.01,0.54-0.06,1.07-0.06,1.61c-0.24,17,5.03,32.79,14.15,45.69
			L392.5,120.34z"/>
		<path class="st12" d="M480.85,152.75l-13.76-19.51c-8.93,6.3-19.84,9.95-31.6,9.78h-0.01c-17.81-0.25-33.44-9.17-42.98-22.68
			l-19.51,13.75c0,0.01,0.01,0.01,0.01,0.02c0.87,1.23,1.77,2.43,2.69,3.6c13.03,16.57,30.78,26.42,51.49,28.67
			c0.14,0.01,0.28,0.02,0.42,0.04c1.06,0.11,2.12,0.22,3.2,0.28c0.06,0.01,0.12,0.01,0.17,0.01c0.31,0.02,0.63,0.02,0.95,0.03
			c1.07,0.07,2.14,0.13,3.22,0.15c16.66,0.23,32.16-4.8,44.91-13.58C481.63,152.24,482.15,151.84,480.85,152.75z"/>
	</g>
	<g>
		<g>
			<g>
				<path class="st2" d="M437.79,88.47l84.16,27.35c15.1-46.48-10.33-96.4-56.81-111.5C455.85,1.31,447.57,0,437.79,0V88.47z"/>
			</g>
		</g>
	</g>
</g>
<g>
	<path class="st3" d="M435.58,295.88h-19.89v-4.18l7.14-7.22c2.12-2.17,3.5-3.67,4.15-4.51c0.65-0.84,1.12-1.61,1.4-2.33
		c0.28-0.71,0.43-1.45,0.43-2.22c0-1.14-0.31-1.99-0.94-2.55c-0.63-0.56-1.47-0.84-2.52-0.84c-1.1,0-2.17,0.25-3.21,0.76
		c-1.04,0.51-2.12,1.23-3.25,2.16l-3.27-3.87c1.4-1.19,2.56-2.04,3.48-2.53c0.92-0.49,1.93-0.87,3.02-1.14
		c1.09-0.27,2.31-0.4,3.66-0.4c1.78,0,3.35,0.32,4.71,0.97c1.36,0.65,2.42,1.56,3.17,2.73c0.75,1.17,1.13,2.5,1.13,4.01
		c0,1.31-0.23,2.54-0.69,3.69c-0.46,1.15-1.17,2.33-2.14,3.53c-0.97,1.21-2.67,2.93-5.11,5.16l-3.66,3.45v0.27h12.4V295.88z"/>
	<path class="st3" d="M458.98,289.98h-3.43v5.9h-5.88v-5.9h-12.15v-4.18L450,267.42h5.55v17.89h3.43V289.98z M449.67,285.31v-4.83
		c0-0.8,0.03-1.97,0.1-3.5c0.07-1.53,0.12-2.42,0.16-2.67h-0.16c-0.48,1.06-1.06,2.1-1.73,3.11l-5.22,7.88H449.67z"/>
	<path class="st3" d="M475.87,267.42l-10.61,28.46h-5.39l10.61-28.46H475.87z"/>
	<path class="st3" d="M480.49,295.88l10.69-23.36h-14.03v-5.06h20.42v3.78l-10.76,24.64H480.49z"/>
</g>
<g>
	<path class="st3" d="M135.22,329.93c-7.6,10.5-19.9,16.8-32.8,16.8c-7.2,0-14.2-1.9-20.3-5.5l5-5.3l-19.4-4.5l5.8,19.1l5.2-5.5
		c7.2,4.4,15.3,6.8,23.8,6.8c14.5,0,28.3-7,36.8-18.8L135.22,329.93z"/>
	<path class="st3" d="M147.92,307.33c0-0.4,0-0.8,0-1.3c0-23.4-17.5-42.9-40.7-45.4l-0.5,5c20.7,2.2,36.2,19.6,36.2,40.5v0.1
		l-7.1-1.6l5.9,19l13.5-14.6L147.92,307.33z"/>
	<path class="st3" d="M98.02,263.23l-19.5-4.5l2.2,7.2c-14.5,8-23.8,23.4-23.8,40.2c0,6.5,1.3,12.7,3.9,18.6l4.6-2
		c-2.3-5.3-3.5-10.9-3.5-16.6c0-14.5,7.9-28,20.3-35.2l2.1,6.9L98.02,263.23z"/>
</g>
</svg>
