<?xml version="1.0" encoding="utf-8"?>
<!-- Generator: Adobe Illustrator 23.0.1, SVG Export Plug-In . SVG Version: 6.00 Build 0)  -->
<svg version="1.1" id="Layer_1" xmlns="http://www.w3.org/2000/svg" xmlns:xlink="http://www.w3.org/1999/xlink" x="0px" y="0px"
	 viewBox="0 0 98.3 93.1" style="enable-background:new 0 0 98.3 93.1;" xml:space="preserve">
<g>
	<path d="M78.3,71.2C70.7,81.7,58.4,88,45.5,88c-7.2,0-14.2-1.9-20.3-5.5l5-5.3l-19.4-4.5l5.8,19.1l5.2-5.5
		c7.2,4.4,15.3,6.8,23.8,6.8c14.5,0,28.3-7,36.8-18.8L78.3,71.2z"/>
	<path d="M91,48.6c0-0.4,0-0.8,0-1.3C91,23.9,73.5,4.4,50.3,1.9l-0.5,5C70.5,9.1,86,26.5,86,47.4v0.1l-7.1-1.6l5.9,19l13.5-14.6
		L91,48.6z"/>
	<path d="M41.1,4.5L21.6,0l2.2,7.2C9.3,15.2,0,30.6,0,47.4C0,53.9,1.3,60.1,3.9,66l4.6-2C6.2,58.7,5,53.1,5,47.4
		c0-14.5,7.9-28,20.3-35.2l2.1,6.9L41.1,4.5z"/>
</g>
</svg>
