<?xml version="1.0" encoding="utf-8"?>
<!-- Generator: Adobe Illustrator 23.0.1, SVG Export Plug-In . SVG Version: 6.00 Build 0)  -->
<svg version="1.1" id="Layer_1" xmlns="http://www.w3.org/2000/svg" xmlns:xlink="http://www.w3.org/1999/xlink" x="0px" y="0px"
	 viewBox="0 0 26.26 25.15" style="enable-background:new 0 0 26.26 25.15;" xml:space="preserve">
<style type="text/css">
	.st0{fill:#5ABFED;}
</style>
<rect x="11.73" y="0" class="st0" width="2.66" height="2.64"/>
<rect x="19.28" y="0" class="st0" width="2.66" height="2.64"/>
<rect x="4.17" y="0" class="st0" width="2.66" height="2.64"/>
<g>
	<path class="st0" d="M23.38,4.48H2.76C1.24,4.48,0,5.72,0,7.24v15.03c0,1.58,1.29,2.88,2.88,2.88h20.5c1.58,0,2.88-1.29,2.88-2.88
		V7.36C26.26,5.78,24.96,4.48,23.38,4.48z M8.17,19.94c0,0.21-0.17,0.39-0.39,0.39H5.45c-0.21,0-0.39-0.17-0.39-0.39v-2.33
		c0-0.21,0.17-0.39,0.39-0.39h2.33c0.21,0,0.39,0.17,0.39,0.39V19.94z M8.2,13.45c0,0.21-0.17,0.39-0.39,0.39H5.48
		c-0.21,0-0.39-0.17-0.39-0.39v-2.33c0-0.21,0.17-0.39,0.39-0.39h2.33c0.21,0,0.39,0.17,0.39,0.39V13.45z M14.61,19.94
		c0,0.21-0.17,0.39-0.39,0.39h-2.33c-0.21,0-0.39-0.17-0.39-0.39v-2.33c0-0.21,0.17-0.39,0.39-0.39h2.33c0.21,0,0.39,0.17,0.39,0.39
		V19.94z M14.61,13.51c0,0.21-0.17,0.39-0.39,0.39h-2.33c-0.21,0-0.39-0.17-0.39-0.39v-2.33c0-0.21,0.17-0.39,0.39-0.39h2.33
		c0.21,0,0.39,0.17,0.39,0.39V13.51z M17.92,11.18c0-0.21,0.17-0.39,0.39-0.39h2.33c0.21,0,0.39,0.17,0.39,0.39v2.33
		c0,0.21-0.17,0.39-0.39,0.39H18.3c-0.21,0-0.39-0.17-0.39-0.39V11.18z M21.05,19.94c0,0.21-0.17,0.39-0.39,0.39h-2.33
		c-0.21,0-0.39-0.17-0.39-0.39v-2.33c0-0.21,0.17-0.39,0.39-0.39h2.33c0.21,0,0.39,0.17,0.39,0.39V19.94z"/>
</g>
</svg>
