<?xml version="1.0" encoding="utf-8"?>
<!-- Generator: Adobe Illustrator 23.0.2, SVG Export Plug-In . SVG Version: 6.00 Build 0)  -->
<svg version="1.1" id="Layer_1" xmlns="http://www.w3.org/2000/svg" xmlns:xlink="http://www.w3.org/1999/xlink" x="0px" y="0px"
	 viewBox="0 0 100 100" style="enable-background:new 0 0 100 100;" xml:space="preserve">
<g>
	<path d="M79.7,75.1c-7.7,10.7-20.2,17.1-33.4,17.1c-7.3,0-14.4-1.9-20.7-5.6l5.1-5.4L11,76.6L16.9,96l5.3-5.6
		c7.3,4.5,15.6,6.9,24.2,6.9c14.8,0,28.8-7.1,37.4-19.1L79.7,75.1z"/>
	<path d="M92.6,52.1c0-0.4,0-0.8,0-1.3C92.6,27,74.8,7.1,51.2,4.6l-0.5,5.1c21.1,2.2,36.8,19.9,36.8,41.2V51l-7.2-1.6l6,19.3
		L100,53.8L92.6,52.1z"/>
	<path d="M41.8,7.2L22,2.6l2.2,7.3C9.5,18.1,0,33.8,0,50.9c0,6.6,1.3,12.9,4,18.9l4.7-2c-2.3-5.4-3.6-11.1-3.6-16.9
		c0-14.8,8-28.5,20.7-35.8l2.1,7L41.8,7.2z"/>
</g>
</svg>
