<?xml version="1.0" encoding="utf-8"?>
<!-- Generator: Adobe Illustrator 23.0.1, SVG Export Plug-In . SVG Version: 6.00 Build 0)  -->
<svg version="1.1" id="Ñëîé_1" xmlns="http://www.w3.org/2000/svg" xmlns:xlink="http://www.w3.org/1999/xlink" x="0px" y="0px"
	 viewBox="0 0 33.08 22.06" style="enable-background:new 0 0 33.08 22.06;" xml:space="preserve">
<style type="text/css">
	.st0{fill:#5ABFED;}
</style>
<g>
	<path class="st0" d="M30.33,0H2.76C1.24,0,0,1.24,0,2.76V19.3c0,1.52,1.24,2.76,2.76,2.76h27.57c1.52,0,2.76-1.24,2.76-2.76V2.76
		C33.08,1.24,31.85,0,30.33,0z M10.72,12.98l-6.2,4.14c-0.12,0.08-0.25,0.12-0.38,0.12c-0.22,0-0.44-0.11-0.57-0.31
		c-0.21-0.32-0.13-0.74,0.19-0.96l6.2-4.14c0.32-0.21,0.75-0.13,0.96,0.19C11.12,12.34,11.04,12.77,10.72,12.98z M4.45,6.09
		c-0.32-0.21-0.41-0.63-0.2-0.95s0.63-0.41,0.95-0.2l11.34,7.34l11.34-7.34c0.32-0.21,0.75-0.12,0.95,0.2s0.12,0.75-0.2,0.95
		l-12.09,7.82L4.45,6.09z M29.52,16.92c-0.13,0.2-0.35,0.31-0.57,0.31c-0.13,0-0.26-0.04-0.38-0.12l-6.2-4.14
		c-0.32-0.21-0.4-0.64-0.19-0.96c0.21-0.32,0.64-0.4,0.96-0.19l6.2,4.14C29.65,16.18,29.73,16.61,29.52,16.92z"/>
</g>
</svg>
