<?xml version="1.0" encoding="utf-8"?>
<!-- Generator: Adobe Illustrator 23.0.1, SVG Export Plug-In . SVG Version: 6.00 Build 0)  -->
<svg version="1.1" id="Layer_1" xmlns="http://www.w3.org/2000/svg" xmlns:xlink="http://www.w3.org/1999/xlink" x="0px" y="0px"
	 viewBox="0 0 840.76 934.77" style="enable-background:new 0 0 840.76 934.77;" xml:space="preserve">
<style type="text/css">
	.st0{fill:#5ABFED;}
</style>
<g>
	<g>
		<path class="st0" d="M383.7,723.26c22.2-22.2,44.4-44.4,66.5-66.5c41.5-41.5,83.1-83.1,124.6-124.6c23.4-23.4,46.9-46.7,70.2-70.2
			c8.7-8.8,16.3-18.7,23.4-28.8c8.9-12.7,15-27.1,20.5-41.5c5.6-14.6,7.7-29.8,9.5-45.2c1.3-10.5,1.4-20.9,0.2-31.4
			c-1.7-14.9-3.6-29.8-8.7-44c-5.2-14.4-11.3-29-19.9-41.7c-17.1-25.5-39.5-47.9-66.8-62.5s-57.5-22.7-88.5-23
			c-30.8-0.3-60.1,7.6-87.5,21.1c-20.4,10-37.6,25.3-53.6,41.3c-30.3,30.3-60.7,60.7-91,91c-41.7,41.7-83.5,83.5-125.2,125.2
			c-24.2,24.2-48.4,48.3-72.5,72.5c-30.2,30.3-52.5,67.3-65.2,108.1c-7.5,24.2-11.1,50.3-11.1,75.6c0,15.4,2.2,30.8,4.5,46
			c1.6,10.4,4.1,20.8,7.4,30.8c8.1,24.8,19.3,49.3,34.9,70.2c9,12.1,18.2,24,28.8,34.6c11,10.9,23.3,20.5,35.9,29.5
			c21.1,15.2,45.8,26.3,70.6,34c24.6,7.6,51.2,11.3,77,11c25.3-0.3,51.4-4.1,75.5-11.9c24.8-8.1,49.3-19.3,70.2-34.9
			c16-11.8,30.3-24.5,44.3-38.5c31.6-31.6,63.2-63.2,94.8-94.8c41.4-41.4,82.8-82.8,124.2-124.2c22.5-22.5,45-45,67.5-67.5
			c14.6-14.7,27.7-31,39.6-48c15-21.3,25.8-44.5,35.5-68.7c7.9-19.7,13.4-40.3,16.5-61.3c3.8-25.9,6.3-51.5,4.2-77.6
			c-4.2-51.8-18.6-102.1-45.4-146.9c-27-45.2-64.9-83.4-109.4-111.3c-22.1-13.8-46.5-24.6-71.1-32.9c-24.7-8.3-50.6-12.6-76.5-15
			c-20.5-2-41.2-1.6-61.7,1.1c-26.1,3.4-51.4,7.9-76.1,17.2c-24.6,9.3-48.6,20.3-70.3,35.1c-18.2,12.4-35.7,26.3-51.3,41.8
			c-7.6,7.5-15.1,15.1-22.6,22.6c-37.3,37.3-74.5,74.5-111.8,111.8c-36.2,36.2-72.3,72.3-108.5,108.5c-5.9,5.9-11.8,11.8-17.7,17.7
			c-10.9,10.9-17.6,27-17.6,42.4c0,14.7,6.5,32.3,17.6,42.4c11.4,10.5,26.4,18.3,42.4,17.6c15.9-0.7,30.9-6.1,42.4-17.6
			c9.4-9.4,18.8-18.8,28.1-28.1c22.1-22.1,44.2-44.2,66.3-66.3c26.2-26.2,52.4-52.4,78.7-78.7c21.3-21.3,42.7-42.7,64-64
			c11.3-11.3,22.4-23.1,34.3-33.8c5-4.5,10.2-8.8,15.6-12.9c-4,3.1-8.1,6.3-12.1,9.4c18-13.8,37.6-25.2,58.4-34.1
			c-4.8,2-9.6,4-14.3,6c22.1-9.3,45.3-15.7,69.1-19c-5.3,0.7-10.6,1.4-16,2.1c24.6-3.3,49.4-3.3,74,0c-5.3-0.7-10.6-1.4-16-2.1
			c23.8,3.3,47,9.7,69.1,19c-4.8-2-9.6-4-14.3-6c20.8,8.9,40.4,20.4,58.4,34.1c-4-3.1-8.1-6.3-12.1-9.4c18.4,14.3,35,30.8,49.2,49.2
			c-3.1-4-6.3-8.1-9.4-12.1c13.8,18,25.2,37.6,34.1,58.4c-2-4.8-4-9.6-6-14.3c9.3,22.1,15.7,45.3,19,69.1c-0.7-5.3-1.4-10.6-2.1-16
			c3.3,24.6,3.3,49.4,0,74c0.7-5.3,1.4-10.6,2.1-16c-3.3,23.8-9.7,47-19,69.1c2-4.8,4-9.6,6-14.3c-8.9,20.8-20.4,40.4-34.1,58.4
			c3.1-4,6.3-8.1,9.4-12.1c-13.7,17.7-30,33.1-45.8,48.9c-24.2,24.2-48.3,48.3-72.5,72.5c-30.4,30.4-60.7,60.7-91.1,91.1
			c-26,26-52,52-77.9,77.9c-11.3,11.3-22.5,22.7-33.9,33.9c-5.5,5.4-11.4,10.5-17.5,15.3c4-3.1,8.1-6.3,12.1-9.4
			c-13.5,10.4-28.1,18.9-43.7,25.6c4.8-2,9.6-4,14.3-6c-16.2,6.8-33.1,11.4-50.5,13.8c5.3-0.7,10.6-1.4,16-2.1
			c-17.7,2.3-35.7,2.3-53.4,0c5.3,0.7,10.6,1.4,16,2.1c-17.4-2.4-34.3-7-50.5-13.8c4.8,2,9.6,4,14.3,6
			c-15.6-6.7-30.3-15.2-43.7-25.6c4,3.1,8.1,6.3,12.1,9.4c-13-10.2-24.7-21.9-34.9-34.9c3.1,4,6.3,8.1,9.4,12.1
			c-10.4-13.5-18.9-28.1-25.6-43.7c2,4.8,4,9.6,6,14.3c-6.8-16.2-11.4-33.1-13.8-50.5c0.7,5.3,1.4,10.6,2.1,16
			c-2.3-17.7-2.3-35.7,0-53.4c-0.7,5.3-1.4,10.6-2.1,16c2.4-17.4,7-34.3,13.8-50.5c-2,4.8-4,9.6-6,14.3
			c6.7-15.6,15.2-30.3,25.6-43.7c-3.1,4-6.3,8.1-9.4,12.1c12.2-15.6,27.1-29.3,41.1-43.3c24-24,48.1-48.1,72.1-72.1
			c29.8-29.8,59.6-59.6,89.5-89.5c25.7-25.7,51.3-51.3,77-77c11.5-11.5,22.9-23,34.4-34.4c3.8-3.8,7.8-7.3,12-10.6
			c-4,3.1-8.1,6.3-12.1,9.4c8.6-6.6,17.9-12,27.9-16.3c-4.8,2-9.6,4-14.3,6c10.6-4.4,21.7-7.4,33.2-9c-5.3,0.7-10.6,1.4-16,2.1
			c10.9-1.3,21.9-1.3,32.8,0c-5.3-0.7-10.6-1.4-16-2.1c11.4,1.5,22.5,4.5,33.2,9c-4.8-2-9.6-4-14.3-6c10,4.3,19.3,9.7,27.9,16.3
			c-4-3.1-8.1-6.3-12.1-9.4c8.4,6.6,15.9,14.1,22.5,22.5c-3.1-4-6.3-8.1-9.4-12.1c6.6,8.6,12,17.9,16.3,27.9c-2-4.8-4-9.6-6-14.3
			c4.4,10.6,7.4,21.7,9,33.2c-0.7-5.3-1.4-10.6-2.1-16c1.3,10.9,1.3,21.9,0,32.8c0.7-5.3,1.4-10.6,2.1-16c-1.5,11.4-4.5,22.5-9,33.2
			c2-4.8,4-9.6,6-14.3c-4.3,10-9.7,19.3-16.3,27.9c3.1-4,6.3-8.1,9.4-12.1c-9.7,12.3-21.7,23.1-32.7,34.2
			c-20.6,20.6-41.2,41.2-61.8,61.8c-25.6,25.6-51.3,51.3-76.9,76.9c-22.4,22.4-44.8,44.8-67.3,67.3c-10.9,10.9-22,21.8-32.8,32.8
			c-0.2,0.2-0.3,0.3-0.5,0.5c-10.9,10.9-17.6,27-17.6,42.4c0,14.7,6.5,32.3,17.6,42.4c11.4,10.5,26.4,18.3,42.4,17.6
			C357.2,740.16,372.2,734.76,383.7,723.26L383.7,723.26z"/>
	</g>
</g>
</svg>
