<?xml version="1.0" encoding="utf-8"?>
<!-- Generator: Adobe Illustrator 23.0.1, SVG Export Plug-In . SVG Version: 6.00 Build 0)  -->
<svg version="1.1" id="Layer_1" xmlns="http://www.w3.org/2000/svg" xmlns:xlink="http://www.w3.org/1999/xlink" x="0px" y="0px"
	 viewBox="0 0 56 56" style="enable-background:new 0 0 56 56;" xml:space="preserve">
<style type="text/css">
	.st0{fill:#BCDDEC;}
</style>
<g>
	<path class="st0" d="M54.39,22.04l-5.56-1.12c-0.31-0.91-0.68-1.8-1.1-2.65l3.15-4.72c0.53-0.79,0.42-1.85-0.25-2.52l-5.65-5.65
		C44.3,4.7,43.25,4.6,42.45,5.13l-4.72,3.14c-0.86-0.43-1.74-0.8-2.65-1.1l-1.12-5.56C33.77,0.67,32.95,0,32,0h-8
		c-0.95,0-1.77,0.67-1.96,1.61l-1.12,5.56c-0.91,0.31-1.8,0.68-2.65,1.1l-4.72-3.15C12.76,4.6,11.7,4.7,11.03,5.38l-5.65,5.65
		C4.7,11.7,4.6,12.75,5.13,13.55l3.15,4.72c-0.43,0.86-0.8,1.74-1.1,2.65l-5.56,1.12C0.67,22.23,0,23.05,0,24v8
		c0,0.95,0.67,1.77,1.61,1.96l5.56,1.12c0.31,0.91,0.68,1.8,1.1,2.65l-3.15,4.72C4.6,43.24,4.7,44.3,5.38,44.97l5.65,5.65
		c0.67,0.67,1.73,0.78,2.52,0.25l4.72-3.15c0.86,0.43,1.74,0.8,2.65,1.1l1.12,5.56C22.23,55.33,23.05,56,24,56h8
		c0.95,0,1.77-0.67,1.96-1.61l1.12-5.56c0.91-0.31,1.8-0.68,2.65-1.1l4.72,3.15c0.79,0.53,1.85,0.42,2.52-0.25l5.65-5.65
		c0.67-0.67,0.78-1.73,0.25-2.52l-3.15-4.72c0.43-0.86,0.8-1.74,1.1-2.65l5.56-1.12C55.33,33.77,56,32.95,56,32v-8
		C56,23.05,55.33,22.23,54.39,22.04z M28,38c-5.52,0-10-4.48-10-10s4.48-10,10-10s10,4.48,10,10C37.99,33.52,33.52,37.99,28,38z"/>
</g>
</svg>
