<?xml version="1.0" encoding="utf-8"?>
<!-- Generator: Adobe Illustrator 21.0.0, SVG Export Plug-In . SVG Version: 6.00 Build 0)  -->
<svg version="1.1" id="Слой_1" xmlns="http://www.w3.org/2000/svg" xmlns:xlink="http://www.w3.org/1999/xlink" x="0px" y="0px"
	 viewBox="0 0 206.8 179.5" style="enable-background:new 0 0 206.8 179.5;" xml:space="preserve">
<style type="text/css">
	.st0{clip-path:url(#SVGID_2_);fill:url(#SVGID_3_);}
	.st1{clip-path:url(#SVGID_5_);fill:url(#SVGID_6_);}
	.st2{clip-path:url(#SVGID_8_);fill:url(#SVGID_9_);}
</style>
<g>
	<defs>
		<polygon id="SVGID_1_" points="70.8,0 0,121.8 31.6,179.5 65.2,121.6 103,56.6 		"/>
	</defs>
	<clipPath id="SVGID_2_">
		<use xlink:href="#SVGID_1_"  style="overflow:visible;"/>
	</clipPath>
	
		<linearGradient id="SVGID_3_" gradientUnits="userSpaceOnUse" x1="0" y1="179.5525" x2="1" y2="179.5525" gradientTransform="matrix(-34.6413 28.8575 28.8575 34.6413 -5083.1294 -6169.167)">
		<stop  offset="0" style="stop-color:#74B879"/>
		<stop  offset="0.4908" style="stop-color:#74B879"/>
		<stop  offset="1" style="stop-color:#74B879"/>
	</linearGradient>
	<polygon class="st0" points="191.3,106 42.2,230.2 -88.3,73.6 60.8,-50.6 	"/>
</g>
<g>
	<defs>
		<polygon id="SVGID_4_" points="139.8,121.4 65.2,121.6 31.6,179.5 172.8,179.5 206.8,121.2 		"/>
	</defs>
	<clipPath id="SVGID_5_">
		<use xlink:href="#SVGID_4_"  style="overflow:visible;"/>
	</clipPath>
	
		<linearGradient id="SVGID_6_" gradientUnits="userSpaceOnUse" x1="0" y1="179.548" x2="1" y2="179.548" gradientTransform="matrix(57.0155 24.9291 24.9291 -57.0155 -4413.2983 10362.7061)">
		<stop  offset="0" style="stop-color:#697EBC"/>
		<stop  offset="0.5571" style="stop-color:#697EBC"/>
		<stop  offset="1" style="stop-color:#697EBC"/>
	</linearGradient>
	<polygon class="st1" points="59.7,56.9 228.2,130.6 178.7,243.9 10.2,170.2 	"/>
</g>
<g>
	<defs>
		<polygon id="SVGID_7_" points="70.8,0 103,56.6 139.8,121.4 206.8,121.2 135.8,0.2 		"/>
	</defs>
	<clipPath id="SVGID_8_">
		<use xlink:href="#SVGID_7_"  style="overflow:visible;"/>
	</clipPath>
	
		<linearGradient id="SVGID_9_" gradientUnits="userSpaceOnUse" x1="0" y1="179.5489" x2="1" y2="179.5489" gradientTransform="matrix(-11.1338 -33.7454 -33.7454 11.1338 6220.2441 -1870.1353)">
		<stop  offset="0" style="stop-color:#F3CC5E"/>
		<stop  offset="1" style="stop-color:#F3CC5E"/>
	</linearGradient>
	<polygon class="st2" points="84.1,161.9 34.6,11.9 193.4,-40.5 242.9,109.5 	"/>
</g>
</svg>
