<?xml version="1.0" encoding="utf-8"?>
<!-- Generator: Adobe Illustrator 21.0.0, SVG Export Plug-In . SVG Version: 6.00 Build 0)  -->
<svg version="1.1" id="Слой_1" xmlns="http://www.w3.org/2000/svg" xmlns:xlink="http://www.w3.org/1999/xlink" x="0px" y="0px"
	 viewBox="0 0 370.6 371.6" style="enable-background:new 0 0 370.6 371.6;" xml:space="preserve">
<style type="text/css">
	.st0{fill:#4675B9;}
	.st1{clip-path:url(#SVGID_2_);fill:#4675B9;}
	.st2{clip-path:url(#SVGID_2_);fill:#FFFFFF;}
</style>
<polygon class="st0" points="217.5,0 0,37.5 0,329 217.5,371.6 "/>
<g>
	<defs>
		<rect id="SVGID_1_" width="370.6" height="371.6"/>
	</defs>
	<clipPath id="SVGID_2_">
		<use xlink:href="#SVGID_1_"  style="overflow:visible;"/>
	</clipPath>
	<path class="st1" d="M231,176.9v97.7h123c0,0,18-2.5,16.5-26.1l0.1-127.7l-90.1,61C280.5,181.8,255,202.4,231,176.9"/>
	<path class="st1" d="M231,75.4h124c0,0,14.6-1,14.6,14.9L257.5,165L231,148.1V75.4z"/>
	<path class="st2" d="M109.3,116.7c-27.3,0-49.5,29.5-49.5,65.9s22.2,65.9,49.5,65.9c27.3,0,49.5-29.5,49.5-65.9
		S136.6,116.7,109.3,116.7 M108.7,221.5c-13.1,0-23.8-17.5-23.8-39.1s10.7-39.1,23.8-39.1c13.1,0,23.8,17.5,23.8,39.1
		S121.8,221.5,108.7,221.5"/>
</g>
</svg>
