<?xml version="1.0" encoding="utf-8"?>
<!-- Generator: Adobe Illustrator 21.0.0, SVG Export Plug-In . SVG Version: 6.00 Build 0)  -->
<svg version="1.1" id="Слой_1" xmlns="http://www.w3.org/2000/svg" xmlns:xlink="http://www.w3.org/1999/xlink" x="0px" y="0px"
	 viewBox="0 0 346.7 251.6" style="enable-background:new 0 0 346.7 251.6;" xml:space="preserve">
<style type="text/css">
	.st0{clip-path:url(#SVGID_2_);fill:#F2F1ED;}
	.st1{clip-path:url(#SVGID_2_);fill:#E63734;}
	.st2{clip-path:url(#SVGID_2_);fill:#E5E5E5;}
	.st3{clip-path:url(#SVGID_2_);fill:#A62323;}
</style>
<g>
	<defs>
		<rect id="SVGID_1_" width="346.7" height="251.6"/>
	</defs>
	<clipPath id="SVGID_2_">
		<use xlink:href="#SVGID_1_"  style="overflow:visible;"/>
	</clipPath>
	<path class="st0" d="M28,0h290.9c15.3,0,27.8,12.5,27.8,27.8v195.9c0,15.3-12.5,27.8-27.8,27.8H28c-15.5,0-28-12.5-28-27.8V27.8
		C0,12.5,12.5,0,28,0"/>
	<path class="st1" d="M173.4,159.6l136.5-96.3v188.3h9.1c15.3,0,27.8-12.5,27.8-27.8V37.3v-9.5c0-12.9-8.9-23.8-21-27L173.4,108.4
		L21.2,0.8C9.1,3.8,0,14.9,0,27.8v9.3v186.7c0,15.3,12.5,27.8,28,27.8h8.9V63.3L173.4,159.6z"/>
	<polygon class="st2" points="309.8,63.3 173.4,159.6 309.6,251.6 309.8,251.6 	"/>
	<path class="st3" d="M309.8,63.3v188.3h9.1c15.3,0,27.8-12.5,27.8-27.8V37.3L309.8,63.3z"/>
</g>
</svg>
