<?xml version="1.0" encoding="utf-8"?>
<!-- Generator: Adobe Illustrator 21.0.0, SVG Export Plug-In . SVG Version: 6.00 Build 0)  -->
<svg version="1.1" id="Layer_1" xmlns="http://www.w3.org/2000/svg" xmlns:xlink="http://www.w3.org/1999/xlink" x="0px" y="0px"
	 viewBox="0 0 20.1 25.9" style="enable-background:new 0 0 20.1 25.9;" xml:space="preserve">
<style type="text/css">
	.st0{fill:none;stroke:#37A148;stroke-width:0.9;stroke-linecap:round;stroke-linejoin:round;stroke-miterlimit:10;}
	.st1{fill:#37A148;stroke:#37A148;stroke-width:0.1;stroke-miterlimit:10;}
</style>
<g>
	<polygon class="st0" points="18.9,23.1 3.4,24.9 1.2,5.6 16.6,3.8 16.8,5.3 17.8,13.5 	"/>
	<polyline class="st0" points="3.2,22.9 0.4,22.3 2.1,14 	"/>
	<polyline class="st0" points="16.1,23.4 15.7,25.4 9.7,24.2 	"/>
	<polyline class="st0" points="17.1,5.9 19.6,6.4 17.9,14.7 	"/>
	<polyline class="st0" points="3.8,5.3 4.4,3.3 10.2,4.5 	"/>
</g>
<g>
	<path class="st1" d="M7.9,3.5v11.6c0,1.9,1.5,3.5,3.3,3.5c1.8,0,3.3-1.6,3.3-3.5v0V8.8c0-1.1-0.8-1.9-1.8-1.9h0
		c-1,0-1.8,0.9-1.8,1.9v6.3c0,0.2,0.1,0.3,0.3,0.3c0.2,0,0.3-0.2,0.3-0.3V8.8c0-0.7,0.5-1.2,1.1-1.2h0c0.6,0,1.2,0.6,1.2,1.2v6.3
		c0,1.5-1.2,2.8-2.6,2.8c-1.4,0-2.6-1.3-2.6-2.8V3.5c0-1.5,1.2-2.8,2.6-2.8c1.4,0,2.6,1.3,2.6,2.8v0.6c0,0.2,0.1,0.3,0.3,0.3
		c0.2,0,0.3-0.2,0.3-0.3V3.5c0-1.9-1.5-3.5-3.3-3.5C9.4,0.1,7.9,1.6,7.9,3.5"/>
	<path class="st1" d="M7.9,3.5v11.6c0,1.9,1.5,3.5,3.3,3.5c1.8,0,3.3-1.6,3.3-3.5v0V8.8c0-1.1-0.8-1.9-1.8-1.9h0
		c-1,0-1.8,0.9-1.8,1.9v6.3c0,0.2,0.1,0.3,0.3,0.3c0.2,0,0.3-0.2,0.3-0.3V8.8c0-0.7,0.5-1.2,1.1-1.2h0c0.6,0,1.2,0.6,1.2,1.2v6.3
		c0,1.5-1.2,2.8-2.6,2.8c-1.4,0-2.6-1.3-2.6-2.8V3.5c0-1.5,1.2-2.8,2.6-2.8c1.4,0,2.6,1.3,2.6,2.8v0.6c0,0.2,0.1,0.3,0.3,0.3
		c0.2,0,0.3-0.2,0.3-0.3V3.5c0-1.9-1.5-3.5-3.3-3.5C9.4,0.1,7.9,1.6,7.9,3.5z"/>
</g>
</svg>
