<?xml version="1.0" encoding="utf-8"?>
<!-- Generator: Adobe Illustrator 21.0.0, SVG Export Plug-In . SVG Version: 6.00 Build 0)  -->
<svg version="1.1" id="Layer_1" xmlns="http://www.w3.org/2000/svg" xmlns:xlink="http://www.w3.org/1999/xlink" x="0px" y="0px"
	 viewBox="0 0 21 25.5" style="enable-background:new 0 0 21 25.5;" xml:space="preserve">
<style type="text/css">
	.st0{fill:#37A148;}
	.st1{fill:#FFFFFF;stroke:#FFFFFF;stroke-width:8.255019e-02;stroke-miterlimit:10;}
</style>
<g>
	<defs>
		<rect id="SVGID_1_" x="0.2" width="20.8" height="25.5"/>
	</defs>
	<clipPath id="SVGID_2_">
		<use xlink:href="#SVGID_1_"  style="overflow:visible;"/>
	</clipPath>
</g>
<g>
	<path class="st0" d="M0,12.7c0,1.2,0.5,2.4,1.4,3.3s2,1.4,3.3,1.4c0.7,0,1.4-0.2,2-0.4C7,16.8,7.1,16.4,7,16.1
		c-0.1-0.3-0.5-0.4-0.8-0.3c-0.5,0.2-1,0.3-1.5,0.3c-0.9,0-1.8-0.4-2.5-1c-0.7-0.7-1-1.6-1-2.5l0-4.1c0-0.9,0.4-1.8,1-2.5
		s1.6-1,2.5-1c1.9,0,3.5,1.6,3.5,3.5v3.8c0,0.3,0.3,0.6,0.6,0.6c0.3,0,0.6-0.3,0.6-0.6l0-3.8c0-2.6-2.1-4.7-4.7-4.7
		c-1.2,0-2.4,0.5-3.3,1.4S0,7.3,0,8.6L0,12.7z"/>
	<path class="st0" d="M1.2,20.6v-3.8c0-0.3-0.3-0.6-0.6-0.6c-0.3,0-0.6,0.3-0.6,0.6l0,3.8c0,1.3,0.5,2.5,1.4,3.3s2,1.4,3.3,1.4
		c1.2,0,2.4-0.5,3.3-1.4s1.4-2,1.4-3.3l0-4.1c0-1.2-0.5-2.4-1.4-3.3c-0.9-0.9-2-1.4-3.3-1.4c-0.7,0-1.4,0.2-2,0.4
		c-0.3,0.1-0.4,0.5-0.3,0.8c0.1,0.3,0.5,0.4,0.8,0.3c0.5-0.2,1-0.3,1.5-0.3c0.9,0,1.8,0.4,2.5,1c0.7,0.7,1,1.6,1,2.5v4.1
		c0,0.9-0.4,1.8-1,2.5c-0.7,0.7-1.6,1-2.5,1C2.7,24.1,1.2,22.5,1.2,20.6z"/>
</g>
<circle class="st0" cx="12.9" cy="8" r="8"/>
<g>
	<rect x="12.1" y="4.1" class="st1" width="1.7" height="7.9"/>
	
		<rect x="12.1" y="4.1" transform="matrix(-1.836970e-16 1 -1 -1.836970e-16 20.9349 -4.9347)" class="st1" width="1.7" height="7.9"/>
</g>
</svg>
