<?xml version="1.0" encoding="utf-8"?>
<!-- Generator: Adobe Illustrator 21.0.0, SVG Export Plug-In . SVG Version: 6.00 Build 0)  -->
<svg version="1.1" id="Layer_1" xmlns="http://www.w3.org/2000/svg" xmlns:xlink="http://www.w3.org/1999/xlink" x="0px" y="0px"
	 viewBox="0 0 38.4 28.5" style="enable-background:new 0 0 38.4 28.5;" xml:space="preserve">
<style type="text/css">
	.st0{fill:none;stroke:#37A148;stroke-width:1.2;stroke-linecap:round;stroke-linejoin:round;stroke-miterlimit:10;}
	.st1{fill:#37A148;}
	.st2{font-family:'Arial-BoldMT';}
	.st3{font-size:6.9092px;}
	.st4{fill:#37A148;stroke:#FFFFFF;stroke-width:1.5;stroke-miterlimit:10;}
</style>
<path class="st0" d="M29.2,22.4h-28c-0.3,0-0.6-0.3-0.6-0.6V1.2c0-0.3,0.3-0.6,0.6-0.6h28c0.3,0,0.6,0.3,0.6,0.6v20.7
	C29.8,22.2,29.5,22.4,29.2,22.4z"/>
<line class="st0" x1="0.6" y1="5.5" x2="29.8" y2="5.5"/>
<line class="st0" x1="2.7" y1="3" x2="8.4" y2="3"/>
<line class="st0" x1="24.7" y1="3" x2="27.4" y2="3"/>
<text transform="matrix(1 0 0 1 6.809 16.0453)" class="st1 st2 st3">CRM</text>
<g>
	<path class="st4" d="M3.8,27.8c-0.5,0-0.9-0.2-1.2-0.7C2.1,26.4,2.3,25.5,3,25L35.3,3.5C36,3,36.9,3.2,37.4,3.9
		C37.9,4.6,37.7,5.5,37,6L4.7,27.5C4.4,27.7,4.1,27.8,3.8,27.8z"/>
</g>
</svg>
