<?xml version="1.0" encoding="utf-8"?>
<!-- Generator: Adobe Illustrator 21.0.0, SVG Export Plug-In . SVG Version: 6.00 Build 0)  -->
<svg version="1.1" id="Layer_1" xmlns="http://www.w3.org/2000/svg" xmlns:xlink="http://www.w3.org/1999/xlink" x="0px" y="0px"
	 viewBox="0 0 24.2 26" style="enable-background:new 0 0 24.2 26;" xml:space="preserve">
<style type="text/css">
	.st0{fill:#37A148;}
	.st1{fill:none;stroke:#37A148;stroke-miterlimit:10;}
	.st2{fill:none;stroke:#37A148;stroke-linecap:round;stroke-linejoin:round;stroke-miterlimit:10;}
</style>
<path class="st0" d="M8,5.4l1.8-1.8L11,4.7V0.5C11,0.2,11.3,0,11.6,0l1.5,0c0.3,0,0.5,0.2,0.5,0.5l0,4.1l1.1-1.1l1.8,1.8l-4.3,4.3
	L8,5.4z"/>
<path class="st1" d="M22.8,25.5H1.4c-0.5,0-0.9-0.4-0.9-0.9v-9.6c0-0.5,0.4-0.9,0.9-0.9h21.5c0.5,0,0.9,0.4,0.9,0.9v9.6
	C23.7,25.1,23.3,25.5,22.8,25.5z"/>
<path class="st1" d="M3.3,14.1v-2.6c0-0.5,0.4-0.9,0.9-0.9H20c0.5,0,0.9,0.4,0.9,0.9v2.6"/>
<path class="st2" d="M17,7.2h1.4c0.5,0,0.9,0.4,0.9,0.9v2.5"/>
<path class="st2" d="M5,10.6V8c0-0.5,0.4-0.9,0.9-0.9h1.6"/>
<path class="st2" d="M8.1,17.4v0.8c0,0.5,0.4,0.9,0.9,0.9h6.4c0.5,0,0.9-0.4,0.9-0.9v-0.8"/>
</svg>
