<?xml version="1.0" encoding="utf-8"?>
<!-- Generator: Adobe Illustrator 21.0.0, SVG Export Plug-In . SVG Version: 6.00 Build 0)  -->
<svg version="1.1" id="Layer_1" xmlns="http://www.w3.org/2000/svg" xmlns:xlink="http://www.w3.org/1999/xlink" x="0px" y="0px"
	 viewBox="0 0 26.8 25.6" style="enable-background:new 0 0 26.8 25.6;" xml:space="preserve">
<style type="text/css">
	.st0{fill:none;stroke:#37A148;stroke-linecap:round;stroke-linejoin:round;stroke-miterlimit:10;}
	.st1{fill:#37A148;}
	.st2{fill:#FFFFFF;stroke:#FFFFFF;stroke-width:8.255019e-02;stroke-miterlimit:10;}
</style>
<g>
	<defs>
		<rect id="SVGID_1_" width="25.2" height="25.6"/>
	</defs>
	<clipPath id="SVGID_2_">
		<use xlink:href="#SVGID_1_"  style="overflow:visible;"/>
	</clipPath>
</g>
<path class="st0" d="M8.9,22.4c0.3,1.5,1.6,2.6,3.1,2.6c1.6,0,2.9-1.1,3.1-2.6L8.9,22.4z"/>
<path class="st0" d="M23.6,21.2l0-0.1c0.1-0.7-0.3-1.6-0.8-1.9c0,0-1.4-0.9-1.9-2.4c-1.3-4.1-0.5-10.3-5.2-12.5
	c-0.7-0.3-2-0.6-2-0.6c-0.2,0-0.3-0.2-0.2-0.4c0,0,0.3-0.4,0.3-0.9c0-1-0.8-1.9-1.8-1.9c-1,0-1.9,0.8-1.9,1.8c0,0.5,0.3,0.9,0.3,0.9
	c0.1,0.2,0,0.4-0.2,0.4c0,0-1.1,0.2-1.7,0.5c-4.9,2-3.9,8.4-5.2,12.6l0,0c-0.5,1.5-1.9,2.4-1.9,2.4c-0.6,0.4-1,1.3-0.9,1.9l0,0.1
	c0.1,0.7,0.8,1.2,1.5,1.2l20.2,0C22.9,22.4,23.5,21.9,23.6,21.2z"/>
<circle class="st1" cx="18.8" cy="12.8" r="8"/>
<g>
	<rect x="18.3" y="8.9" class="st2" width="1.7" height="7.9"/>
	
		<rect x="18.3" y="8.9" transform="matrix(-1.836970e-16 1 -1 -1.836970e-16 31.9542 -6.3752)" class="st2" width="1.7" height="7.9"/>
</g>
</svg>
