<?xml version="1.0" encoding="utf-8"?>
<!-- Generator: Adobe Illustrator 23.0.1, SVG Export Plug-In . SVG Version: 6.00 Build 0)  -->
<svg version="1.1" id="Layer_1" xmlns="http://www.w3.org/2000/svg" xmlns:xlink="http://www.w3.org/1999/xlink" x="0px" y="0px"
	 viewBox="0 0 64 60.96" style="enable-background:new 0 0 64 60.96;" xml:space="preserve">
<style type="text/css">
	.st0{fill:#37A148;}
</style>
<g>
	<g>
		<path class="st0" d="M55.7,21.26c2-5.2-0.3-10-3.7-12.6c-3.4-2.7-8.7-3.7-13.3-0.4c-4-7.6-14.1-10.7-22.1-6.1
			c-5.8,3.4-8.8,9.7-7.9,16.2c-5.1,1.4-8.7,6.1-8.7,11.4c0,6.5,5.3,11.8,11.8,11.8h9.7c0.6,0,1-0.4,1-1s-0.4-1-1-1h-9.7
			c-5.4,0-9.8-4.4-9.8-9.8c0-4.4,2.9-8.2,7.1-9.4c0.4,1.4,0.9,2.6,1.6,3.8c0.3,0.5,0.9,0.6,1.4,0.4c0.5-0.3,0.6-0.9,0.4-1.4
			c-3.9-6.8-1.5-15.4,5.2-19.2c7.1-4.1,16.3-1.1,19.5,5.8c-2,2.1-3.2,4.9-3.2,7.8c0,0.6,0.4,1,1,1s1-0.4,1-1
			c0-7.3,8.5-12.1,14.8-7.2c3,2.3,5,6.8,2.6,11.4c-0.3,0.6,0.1,1.4,0.8,1.5c4.4,0.2,7.8,3.8,7.8,8.2c0,4.5-3.7,8.2-8.2,8.2H42.5
			c-0.6,0-1,0.4-1,1s0.4,1,1,1h11.3c5.6-0.1,10.2-4.6,10.2-10.3C64,26.36,60.4,22.16,55.7,21.26z"/>
	</g>
	<g>
		<path class="st0" d="M27.5,48.46v-12.9c0-0.6-0.4-1-1-1h-5.3c-0.6,0-1,0.4-1,1s0.4,1,1,1h4.3v10.9H12.2l2-2c0.4-0.4,0.4-1,0-1.4
			s-1-0.4-1.4,0l-3.7,3.7c-0.4,0.4-0.4,1,0,1.4l3.7,3.7c0.4,0.4,1,0.4,1.4,0s0.4-1,0-1.4l-2-2h14.2C27,49.46,27.5,48.96,27.5,48.46z
			"/>
	</g>
	<g>
		<path class="st0" d="M53.9,47.76l-3.7-3.7c-0.4-0.4-1-0.4-1.4,0s-0.4,1,0,1.4l2,2H37.5v-10.9h4.3c0.6,0,1-0.4,1-1s-0.4-1-1-1h-5.3
			c-0.6,0-1,0.4-1,1v12.9c0,0.6,0.4,1,1,1h14.2l-2,2c-0.4,0.4-0.4,1,0,1.4s1,0.4,1.4,0l3.7-3.7C54.2,48.76,54.2,48.16,53.9,47.76z"
			/>
	</g>
	<g>
		<path class="st0" d="M34.5,55.56l-2,2v-26.4c0-0.6-0.4-1-1-1c-0.6,0-1,0.4-1,1v26.5l-2-2c-0.4-0.4-1-0.4-1.4,0s-0.4,1,0,1.4
			l3.7,3.7c0.1,0.1,0.2,0.2,0.3,0.2c0.1,0,0.1,0,0.2,0c0.1,0,0.1,0,0.2,0c0.1,0,0.1,0,0.2,0c0.1,0,0.1,0,0.2,0
			c0.1-0.1,0.2-0.1,0.3-0.2l3.7-3.7c0.4-0.4,0.4-1,0-1.4C35.5,55.16,34.9,55.16,34.5,55.56z"/>
	</g>
	<g>
		<path class="st0" d="M15.6,34.56c-0.6,0-1,0.4-1,1s0.4,1,1,1H18c0.6,0,1-0.4,1-1s-0.4-1-1-1H15.6z"/>
	</g>
	<g>
		<path class="st0" d="M47.3,36.56c0.6,0,1-0.4,1-1s-0.4-1-1-1h-2.4c-0.6,0-1,0.4-1,1s0.4,1,1,1H47.3z"/>
	</g>
</g>
</svg>
