<?xml version="1.0" encoding="utf-8"?>
<!-- Generator: Adobe Illustrator 21.0.0, SVG Export Plug-In . SVG Version: 6.00 Build 0)  -->
<svg version="1.1" id="Слой_1" xmlns="http://www.w3.org/2000/svg" xmlns:xlink="http://www.w3.org/1999/xlink" x="0px" y="0px"
	 viewBox="0 0 21 20.2" style="enable-background:new 0 0 21 20.2;" xml:space="preserve">
<style type="text/css">
	.st0{clip-path:url(#SVGID_2_);fill:#37A148;}
</style>
<g>
	<defs>
		<rect id="SVGID_1_" width="21" height="20.2"/>
	</defs>
	<clipPath id="SVGID_2_">
		<use xlink:href="#SVGID_1_"  style="overflow:visible;"/>
	</clipPath>
	<path class="st0" d="M10.5,18.2c-2.6,0-5-1.3-6.5-3.4l1.8-0.5l-4.3-4.2L0,16l2-0.6c1.8,3,5,4.8,8.5,4.8c4.2,0,8-2.6,9.4-6.5
		L18,12.9C16.9,16,13.9,18.2,10.5,18.2"/>
	<path class="st0" d="M10.5,0C6.3,0,2.5,2.6,1,6.5l1.9,0.7C4.1,4.1,7.1,2,10.5,2c2.6,0,5,1.3,6.5,3.4l-1.8,0.5l4.3,4.2L21,4.2
		l-2,0.6C17.2,1.8,14,0,10.5,0"/>
</g>
</svg>
