<?xml version="1.0" encoding="utf-8"?>
<!-- Generator: Adobe Illustrator 21.0.0, SVG Export Plug-In . SVG Version: 6.00 Build 0)  -->
<svg version="1.1" id="Слой_1" xmlns="http://www.w3.org/2000/svg" xmlns:xlink="http://www.w3.org/1999/xlink" x="0px" y="0px"
	 viewBox="0 0 27.2 25.5" style="enable-background:new 0 0 27.2 25.5;" xml:space="preserve">
<style type="text/css">
	.st0{clip-path:url(#SVGID_2_);fill:#37A148;}
	.st1{clip-path:url(#SVGID_2_);fill:none;stroke:#37A148;stroke-linecap:round;stroke-linejoin:round;stroke-miterlimit:10;}
</style>
<g>
	<defs>
		<rect id="SVGID_1_" y="0" width="27.2" height="25.5"/>
	</defs>
	<clipPath id="SVGID_2_">
		<use xlink:href="#SVGID_1_"  style="overflow:visible;"/>
	</clipPath>
	<path class="st0" d="M2.9,0C1.3,0,0,1.3,0,2.9v19.4c0,1.6,1.3,2.9,2.9,2.9h21.4c1.6,0,2.9-1.3,2.9-2.9V2.9c0-1.6-1.3-2.9-2.9-2.9
		H2.9z M23.3,1.1h1.1c1,0,1.8,0.8,1.8,1.9v19.4c0,1-0.8,1.8-1.8,1.8H2.9c-1,0-1.8-0.8-1.8-1.8V2.9c0-1,0.8-1.9,1.8-1.9H8 M18.5,1.1
		h3.7 M13.8,1.1h3.7 M9,1.1h3.7"/>
	<line class="st1" x1="16.8" y1="0.5" x2="16.8" y2="25"/>
	<rect x="19.1" y="3.4" class="st0" width="5.3" height="5.3"/>
	<rect x="19.1" y="10.1" class="st0" width="5.3" height="5.3"/>
	<rect x="19.1" y="16.8" class="st0" width="5.3" height="5.3"/>
</g>
</svg>
