<?xml version="1.0" encoding="utf-8"?>
<!-- Generator: Adobe Illustrator 21.0.0, SVG Export Plug-In . SVG Version: 6.00 Build 0)  -->
<svg version="1.1" id="Слой_1" xmlns="http://www.w3.org/2000/svg" xmlns:xlink="http://www.w3.org/1999/xlink" x="0px" y="0px"
	 viewBox="0 0 20.8 25.5" style="enable-background:new 0 0 20.8 25.5;" xml:space="preserve">
<style type="text/css">
	.st0{clip-path:url(#SVGID_2_);fill:#37A148;}
	.st1{clip-path:url(#SVGID_2_);fill:none;stroke:#37A148;stroke-width:0.3;stroke-miterlimit:10;}
	.st2{clip-path:url(#SVGID_2_);fill:#FFFFFF;}
</style>
<g>
	<defs>
		<rect id="SVGID_1_" y="0" width="20.8" height="25.5"/>
	</defs>
	<clipPath id="SVGID_2_">
		<use xlink:href="#SVGID_1_"  style="overflow:visible;"/>
	</clipPath>
	<path class="st0" d="M8.1,8.3v13.1c0,2.2-1.8,4-4,4c-2.2,0-4-1.8-4-3.9v0v-7.1c0-1.2,1-2.2,2.2-2.2h0c1.2,0,2.2,1,2.2,2.2v7.1
		c0,0.2-0.2,0.4-0.4,0.4c-0.2,0-0.4-0.2-0.4-0.4v-7.1c0-0.8-0.6-1.4-1.4-1.4h0c-0.8,0-1.4,0.6-1.4,1.4v7.1c0,1.7,1.4,3.2,3.2,3.2
		c1.7,0,3.2-1.4,3.2-3.2V8.3c0-1.7-1.4-3.2-3.2-3.2c-1.7,0-3.2,1.4-3.2,3.2v3.2c0,0.2-0.2,0.4-0.4,0.4c-0.2,0-0.4-0.2-0.4-0.4V8.3
		c0-2.2,1.8-4,4-4C6.3,4.3,8.1,6.1,8.1,8.3"/>
	<path class="st1" d="M8.1,8.3v13.1c0,2.2-1.8,4-4,4c-2.2,0-4-1.8-4-3.9v0v-7.1c0-1.2,1-2.2,2.2-2.2h0c1.2,0,2.2,1,2.2,2.2v7.1
		c0,0.2-0.2,0.4-0.4,0.4c-0.2,0-0.4-0.2-0.4-0.4v-7.1c0-0.8-0.6-1.4-1.4-1.4h0c-0.8,0-1.4,0.6-1.4,1.4v7.1c0,1.7,1.4,3.2,3.2,3.2
		c1.7,0,3.2-1.4,3.2-3.2V8.3c0-1.7-1.4-3.2-3.2-3.2c-1.7,0-3.2,1.4-3.2,3.2v3.2c0,0.2-0.2,0.4-0.4,0.4c-0.2,0-0.4-0.2-0.4-0.4V8.3
		c0-2.2,1.8-4,4-4C6.3,4.3,8.1,6.1,8.1,8.3z"/>
	<path class="st0" d="M12.8,0c-4.4,0-8,3.6-8,8s3.6,8,8,8s8-3.6,8-8S17.2,0,12.8,0"/>
	<polygon class="st2" points="11.8,11.3 8.8,8.3 10.3,6.8 11.8,8.3 15.3,4.8 16.8,6.3 	"/>
</g>
</svg>
