<?xml version="1.0" encoding="utf-8"?>
<!-- Generator: Adobe Illustrator 21.0.0, SVG Export Plug-In . SVG Version: 6.00 Build 0)  -->
<svg version="1.1" id="Слой_1" xmlns="http://www.w3.org/2000/svg" xmlns:xlink="http://www.w3.org/1999/xlink" x="0px" y="0px"
	 viewBox="0 0 28.7 25.9" style="enable-background:new 0 0 28.7 25.9;" xml:space="preserve">
<style type="text/css">
	.st0{clip-path:url(#SVGID_2_);fill:none;stroke:#37A148;stroke-linecap:round;stroke-linejoin:round;stroke-miterlimit:10;}
	.st1{clip-path:url(#SVGID_2_);fill:#37A148;}
	.st2{clip-path:url(#SVGID_2_);fill:#FFFFFF;}
</style>
<g>
	<defs>
		<rect id="SVGID_1_" y="0" width="28.7" height="25.9"/>
	</defs>
	<clipPath id="SVGID_2_">
		<use xlink:href="#SVGID_1_"  style="overflow:visible;"/>
	</clipPath>
	<path class="st0" d="M19,8h1.1c1,0,1.8,0.8,1.8,1.8v13.8c0,1-0.8,1.8-1.8,1.8H2.3c-1,0-1.8-0.8-1.8-1.8V9.8c0-1,0.8-1.8,1.8-1.8
		h1.2 M6.5,8H20"/>
	<line class="st0" x1="4.6" y1="13.5" x2="10.2" y2="13.5"/>
	<line class="st0" x1="4.6" y1="17.4" x2="17.8" y2="17.4"/>
	<line class="st0" x1="4.6" y1="21.4" x2="17.8" y2="21.4"/>
	<line class="st0" x1="4.9" y1="5.4" x2="4.9" y2="10.4"/>
	<path class="st1" d="M20.7,0c-4.4,0-8,3.6-8,8s3.6,8,8,8s8-3.6,8-8S25.2,0,20.7,0"/>
	<polygon class="st2" points="19.7,11.3 16.7,8.3 18.2,6.8 19.7,8.3 23.2,4.8 24.7,6.3 	"/>
</g>
</svg>
