<?xml version="1.0" encoding="utf-8"?>
<!-- Generator: Adobe Illustrator 21.0.0, SVG Export Plug-In . SVG Version: 6.00 Build 0)  -->
<svg version="1.1" id="Layer_1" xmlns="http://www.w3.org/2000/svg" xmlns:xlink="http://www.w3.org/1999/xlink" x="0px" y="0px"
	 viewBox="0 0 34.2 25.6" style="enable-background:new 0 0 34.2 25.6;" xml:space="preserve">
<style type="text/css">
	.st0{fill:#37A148;}
	.st1{fill:#37A148;stroke:#37A148;stroke-width:0.1;stroke-miterlimit:10;}
	.st2{fill:#FFFFFF;}
</style>
<g transform="translate(0,-952.36218)">
	<g>
		<path class="st0" d="M2.9,956.7c-1.6,0-2.9,1.3-2.9,2.9V975c0,1.6,1.3,2.9,2.9,2.9h21.4c1.6,0,2.9-1.3,2.9-2.9v-15.4
			c0-1.6-1.3-2.9-2.9-2.9H2.9z M23.3,957.7h1.1c1,0,1.8,0.8,1.8,1.9V975c0,1-0.8,1.8-1.8,1.8H2.9c-1,0-1.8-0.8-1.8-1.8v-15.4
			c0-1,0.8-1.9,1.8-1.9H8 M18.5,957.7h3.7 M13.8,957.7h3.7 M9,957.7h3.7"/>
	</g>
</g>
<g transform="translate(0,-952.36218)">
	<g>
		<path class="st1" d="M13.4,961.5c-1.5,0-2.7,1.3-2.7,3s1.2,3,2.7,3s2.7-1.3,2.7-3S14.9,961.5,13.4,961.5z M13.4,962.4
			c1,0,1.8,0.9,1.8,2s-0.8,2-1.8,2s-1.8-0.9-1.8-2S12.4,962.4,13.4,962.4z M13.4,967.8c-3.1,0-5.7,2.4-5.7,5.4
			c0,0.2,0.2,0.4,0.5,0.4c3.4,0,7.3,0,10.4,0c0.2,0,0.5-0.2,0.5-0.5C19,970.3,16.5,967.8,13.4,967.8L13.4,967.8z M13.4,968.7
			c2.5,0,4.4,1.8,4.7,4.1c-3.1,0-6.2,0-9.4,0C8.9,970.5,10.9,968.7,13.4,968.7z"/>
	</g>
</g>
<g>
	<path class="st0" d="M26.2,0c-4.4,0-8,3.6-8,8s3.6,8,8,8s8-3.6,8-8S30.6,0,26.2,0z"/>
	<path class="st2" d="M25.2,11.3l-3-3l1.5-1.5l1.5,1.5l3.5-3.5l1.5,1.5L25.2,11.3z"/>
</g>
</svg>
