<?xml version="1.0" encoding="utf-8"?>
<!-- Generator: Adobe Illustrator 21.0.0, SVG Export Plug-In . SVG Version: 6.00 Build 0)  -->
<svg version="1.1" id="Layer_1" xmlns="http://www.w3.org/2000/svg" xmlns:xlink="http://www.w3.org/1999/xlink" x="0px" y="0px"
	 viewBox="0 0 26.2 26.4" style="enable-background:new 0 0 26.2 26.4;" xml:space="preserve">
<style type="text/css">
	.st0{fill-rule:evenodd;clip-rule:evenodd;fill:#37A148;stroke:#FFFFFF;stroke-width:0.25;stroke-miterlimit:10;}
	.st1{fill:#37A148;}
	.st2{fill:#FFFFFF;}
</style>
<g>
	<g>
		<g>
			<path class="st0" d="M12.4,13.6c-0.2,0.2-0.4,0.6-0.4,0.9v9.4l-2.7-2.8l0-6.6c0-0.3-0.1-0.7-0.4-0.9L2,6.5l17.2,0L12.4,13.6z
				 M1.3,5.1C0.2,5.1-0.3,6.1,0.5,7l7.4,7.7c0,0,0,0,0-0.1v6.6c0,0.3,0.1,0.7,0.4,0.9l3.9,4.1c0.4,0.4,1.2,0.1,1.2-0.5V14.5
				c0,0.1,0,0.1,0,0.1L20.7,7c0.8-0.8,0.4-1.9-0.7-1.9H1.3z"/>
		</g>
	</g>
</g>
<g>
	<path class="st1" d="M18.2,0c-4.4,0-8,3.6-8,8s3.6,8,8,8s8-3.6,8-8S22.6,0,18.2,0z"/>
	<path class="st2" d="M17.2,11.3l-3-3l1.5-1.5l1.5,1.5l3.5-3.5l1.5,1.5L17.2,11.3z"/>
</g>
</svg>
