<?xml version="1.0" encoding="utf-8"?>
<!-- Generator: Adobe Illustrator 21.0.0, SVG Export Plug-In . SVG Version: 6.00 Build 0)  -->
<svg version="1.1" id="Слой_1" xmlns="http://www.w3.org/2000/svg" xmlns:xlink="http://www.w3.org/1999/xlink" x="0px" y="0px"
	 viewBox="0 0 33 25.2" style="enable-background:new 0 0 33 25.2;" xml:space="preserve">
<style type="text/css">
	.st0{clip-path:url(#SVGID_2_);fill:#37A148;}
	.st1{clip-path:url(#SVGID_2_);fill:none;stroke:#37A148;stroke-linecap:round;stroke-linejoin:round;stroke-miterlimit:10;}
	.st2{clip-path:url(#SVGID_2_);fill:#FFFFFF;}
</style>
<g>
	<defs>
		<rect id="SVGID_1_" y="0" width="33" height="25.2"/>
	</defs>
	<clipPath id="SVGID_2_">
		<use xlink:href="#SVGID_1_"  style="overflow:visible;"/>
	</clipPath>
	<path class="st0" d="M4.7,14.6c0-0.3,0.2-0.5,0.5-0.5c0.3,0,0.5,0.2,0.5,0.5v8.2c0,0.8,0.6,1.4,1.4,1.4h14.7c0.7,0,1.3-0.6,1.3-1.3
		V5.2H8.9c-0.3,0-0.5-0.2-0.5-0.5c0-0.3,0.2-0.5,0.5-0.5h15.2v19.3c0,1-0.8,1.9-1.9,1.9H6.5c-1,0-1.9-0.8-1.9-1.9V14.6z"/>
	<path class="st0" d="M12.1,15.1l-3-1.5c-0.1,0-0.1-0.1-0.1-0.1L0.5,5.1C0,4.6-0.1,4,0.1,3.4c0.3-0.6,0.9-1,1.5-1
		c0.4,0,0.8,0.2,1.1,0.5l8.5,8.5c0,0,0.1,0.1,0.1,0.1l1.5,3c0.1,0.2,0.1,0.4-0.1,0.6c-0.1,0.1-0.2,0.2-0.4,0.2
		C12.3,15.2,12.2,15.2,12.1,15.1 M2,3.6C1.9,3.5,1.7,3.4,1.6,3.4c-0.2,0-0.4,0.2-0.5,0.4C1,4,1.1,4.2,1.2,4.3l8.5,8.4l1.5,0.7
		L10.4,12L2,3.6z"/>
	<path class="st0" d="M2,6.6C1.8,6.4,1.8,6,2,5.8l1.5-1.5c0.2-0.2,0.5-0.2,0.7,0s0.2,0.5,0,0.7L2.7,6.6C2.6,6.7,2.5,6.7,2.3,6.7
		S2.1,6.7,2,6.6"/>
	<path class="st1" d="M12.3,14.7h7.3 M9.1,19.7h10.6"/>
	<path class="st0" d="M25,0c-4.4,0-8,3.6-8,8s3.6,8,8,8s8-3.6,8-8S29.4,0,25,0"/>
	<polygon class="st2" points="24,11.3 21,8.3 22.5,6.8 24,8.3 27.5,4.8 29,6.3 	"/>
</g>
</svg>
