<?xml version="1.0" encoding="utf-8"?>
<!-- Generator: Adobe Illustrator 21.0.0, SVG Export Plug-In . SVG Version: 6.00 Build 0)  -->
<svg version="1.1" id="Layer_1" xmlns="http://www.w3.org/2000/svg" xmlns:xlink="http://www.w3.org/1999/xlink" x="0px" y="0px"
	 viewBox="0 0 25.8 22.7" style="enable-background:new 0 0 25.8 22.7;" xml:space="preserve">
<style type="text/css">
	.st0{fill-rule:evenodd;clip-rule:evenodd;fill:#37A148;}
	.st1{fill:#37A148;}
</style>
<g>
	<circle class="st0" cx="12.9" cy="11.3" r="1.8"/>
</g>
<path class="st1" d="M25.8,8.5h-1.9c0,0,0-0.1,0-0.1C22.6,3.7,18.2,0,12.9,0C8.4,0,4.5,2.6,2.6,6.5h1.1C5.5,3.2,9,1,12.9,1
	c4.7,0,8.7,3.1,10,7.6h-2l2.4,5.1l0-0.1c0,0,0,0,0-0.1L25.8,8.5z"/>
<path class="st1" d="M0,14.1h1.9c0,0,0,0.1,0,0.1c1.2,4.8,5.7,8.4,10.9,8.4c4.5,0,8.4-2.6,10.2-6.5H22c-1.8,3.3-5.3,5.5-9.2,5.5
	c-4.7,0-8.7-3.1-10-7.6h2L2.5,9l0,0.1c0,0,0,0,0,0.1L0,14.1z"/>
</svg>
