<?xml version="1.0" encoding="utf-8"?>
<!-- Generator: Adobe Illustrator 23.0.1, SVG Export Plug-In . SVG Version: 6.00 Build 0)  -->
<svg version="1.1" id="Слой_1" xmlns="http://www.w3.org/2000/svg" xmlns:xlink="http://www.w3.org/1999/xlink" x="0px" y="0px"
	 viewBox="0 0 116.5 102.6" style="enable-background:new 0 0 116.5 102.6;" xml:space="preserve">
<style type="text/css">
	.st0{fill:#BFD8E5;}
</style>
<g>
	<g>
		<path class="st0" d="M80.4,0.1c-1.6-0.8-4.2,3.8-2.1,4.8c23.8,10.3,35.3,37.2,26.6,60.9c0,0,0,0-0.1,0L98.4,63c0,0-0.1,0-0.1,0.1
			l2.2,19.6c0,0,0.1,0.1,0.1,0L116.5,71c0,0,0-0.1,0-0.1l-6.7-2.9c0,0,0,0,0-0.1C119.6,41.5,106.8,11.6,80.4,0.1z"/>
	</g>
</g>
<g>
	<g>
		<path class="st0" d="M33.2,102.5c1.5,0.8,4.4-3.7,2.3-4.7C12.2,86.5,1.7,59.2,11.3,35.8c0,0,0,0,0.1,0l6.4,3.1c0,0,0.1,0,0.1-0.1
			l-1.4-19.6c0,0-0.1-0.1-0.1,0L0,30.2c0,0,0,0.1,0,0.1l6.5,3.2c0,0,0,0,0,0.1C-4.2,59.5,7.3,89.9,33.2,102.5z"/>
	</g>
</g>
</svg>
