<?xml version="1.0" encoding="utf-8"?>
<!-- Generator: Adobe Illustrator 21.0.0, SVG Export Plug-In . SVG Version: 6.00 Build 0)  -->
<svg version="1.1" id="Слой_1" xmlns="http://www.w3.org/2000/svg" xmlns:xlink="http://www.w3.org/1999/xlink" x="0px" y="0px"
	 viewBox="0 0 188.6 85.4" style="enable-background:new 0 0 188.6 85.4;" xml:space="preserve" fill="#bfd8e5">
<style type="text/css">
	.st0{clip-path:url(#SVGID_2_);}
	.st1{clip-path:url(#SVGID_4_);}
</style>
<g>
	<defs>
		<rect id="SVGID_1_" x="0" y="0.4" width="30.7" height="85"/>
	</defs>
	<clipPath id="SVGID_2_">
		<use xlink:href="#SVGID_1_"  style="overflow:visible;"/>
	</clipPath>
	<path class="st0" d="M19.9,0.6L1.8,7.2c-1.5,0.5-2.2,2.2-1.7,3.6c0.5,1.5,2.2,2.2,3.6,1.7v0l12-4.4C7.4,22.3,4.3,35,4.3,45.6
		c0,12.6,4.2,22.3,8.5,28.9c4.2,6.6,8.4,10,8.6,10.2c1.2,1,3,0.8,4-0.4c0.4-0.5,0.6-1.2,0.6-1.8c0-0.8-0.4-1.6-1-2.2h0l0,0
		c-0.3-0.3-4.1-3.5-7.8-9.4c-3.7-5.9-7.2-14.4-7.2-25.3c0-9.6,2.7-21.2,10.8-34.8l4.5,11.8c0.6,1.5,2.2,2.2,3.6,1.6
		c1.1-0.4,1.8-1.5,1.8-2.6c0-0.3-0.1-0.7-0.2-1l-7-18.4C23,0.8,21.4,0,19.9,0.6"/>
</g>
<g>
	<defs>
		<rect id="SVGID_3_" x="157.9" y="0" width="30.7" height="85"/>
	</defs>
	<clipPath id="SVGID_4_">
		<use xlink:href="#SVGID_3_"  style="overflow:visible;"/>
	</clipPath>
	<path class="st1" d="M168.7,84.8l18.1-6.6c1.5-0.5,2.2-2.2,1.7-3.6c-0.5-1.5-2.2-2.2-3.6-1.7v0l-12,4.4
		c8.5-14.3,11.6-26.9,11.6-37.6c0-12.6-4.2-22.3-8.5-28.9c-4.2-6.6-8.4-10-8.6-10.2c-1.2-1-3-0.8-4,0.4c-0.4,0.5-0.6,1.2-0.6,1.8
		c0,0.8,0.4,1.6,1,2.2h0l0,0c0.3,0.3,4.1,3.5,7.8,9.4c3.7,5.9,7.2,14.4,7.2,25.3c0,9.6-2.7,21.2-10.8,34.8l-4.5-11.8
		c-0.6-1.5-2.2-2.2-3.6-1.6c-1.1,0.4-1.8,1.5-1.8,2.6c0,0.3,0.1,0.7,0.2,1l7,18.4C165.6,84.6,167.2,85.4,168.7,84.8"/>
</g>
</svg>
