<?xml version="1.0" encoding="utf-8"?>
<!-- Generator: Adobe Illustrator 21.0.0, SVG Export Plug-In . SVG Version: 6.00 Build 0)  -->
<svg version="1.1" id="Слой_1" xmlns="http://www.w3.org/2000/svg" xmlns:xlink="http://www.w3.org/1999/xlink" x="0px" y="0px"
	 viewBox="0 0 48.1 47.9" style="enable-background:new 0 0 48.1 47.9;" xml:space="preserve">
<style type="text/css">
	.st0{clip-path:url(#SVGID_2_);fill:#FFFFFF;}
</style>
<g>
	<defs>
		<rect id="SVGID_1_" y="0" width="48" height="48"/>
	</defs>
	<clipPath id="SVGID_2_">
		<use xlink:href="#SVGID_1_"  style="overflow:visible;"/>
	</clipPath>
	<path class="st0" d="M15.6,34.6c0.6,0.6,1.5,0.5,2.1,0l10-10c0.7-0.7,1.9-0.8,2.8,0c0.9,0.8,0.8,2.2,0,3L18.2,39.7
		c-2.7,2.7-7.2,2.7-9.9,0l-0.1-0.1c-2.7-2.7-2.7-7.2,0-9.9L29.9,8c2.7-2.7,7.2-2.7,9.9,0l0.1,0.1c2.7,2.7,2.7,7.2,0,9.9l-0.1,0.1
		c-0.5,0.5-0.6,1.2-0.2,1.8c0.6,1.1,1.1,2.3,1.4,3.5c0.2,0.8,1.1,1,1.7,0.5c0.8-0.8,1.5-1.6,1.5-1.6c5.1-5.1,5.1-13.4,0-18.5H44
		c-5.1-5.1-13.4-5.1-18.5,0L3.8,25.4c-5.1,5.1-5.1,13.4,0,18.5L4,44.1c5.1,5.1,13.3,5.1,18.4,0l12.4-12.3c3.2-3.2,3.1-8.4-0.2-11.6
		c-3.2-3.1-8.4-2.9-11.5,0.3l-9.8,9.8c-0.6,0.6-0.6,1.6,0,2.2L15.6,34.6z"/>
</g>
</svg>
