<?xml version="1.0" encoding="utf-8"?>
<!-- Generator: Adobe Illustrator 21.0.0, SVG Export Plug-In . SVG Version: 6.00 Build 0)  -->
<svg version="1.1" id="Слой_1" xmlns="http://www.w3.org/2000/svg" xmlns:xlink="http://www.w3.org/1999/xlink" x="0px" y="0px"
	 viewBox="0 0 48.1 42.1" style="enable-background:new 0 0 48.1 42.1;" xml:space="preserve">
<style type="text/css">
	.st0{clip-path:url(#SVGID_2_);fill:#FFFFFF;}
</style>
<g>
	<defs>
		<rect id="SVGID_1_" y="0" width="48.1" height="42.1"/>
	</defs>
	<clipPath id="SVGID_2_">
		<use xlink:href="#SVGID_1_"  style="overflow:visible;"/>
	</clipPath>
	<path class="st0" d="M22.1,2.1l-1.7-1.7c-0.5-0.5-1.2-0.5-1.7,0L8.1,10.9L3.8,6.7c-0.5-0.5-1.2-0.5-1.7,0L0.4,8.4
		c-0.5,0.5-0.5,1.2,0,1.7L6.3,16c0.5,0.5,1.1,0.7,1.7,0.7c0.6,0,1.2-0.2,1.7-0.7L22.1,3.8C22.5,3.4,22.5,2.6,22.1,2.1 M46.5,13.5
		H25.6c-0.9,0-1.6-0.7-1.6-1.6V8.7c0-0.9,0.7-1.6,1.6-1.6h20.9c0.9,0,1.6,0.7,1.6,1.6v3.2C48.1,12.8,47.4,13.5,46.5,13.5 M46.5,27.8
		H20.8c-0.9,0-1.6-0.7-1.6-1.6V23c0-0.9,0.7-1.6,1.6-1.6h25.7c0.9,0,1.6,0.7,1.6,1.6v3.2C48.1,27.1,47.4,27.8,46.5,27.8 M11.1,27.8
		H7.9c-0.9,0-1.6-0.7-1.6-1.6V23c0-0.9,0.7-1.6,1.6-1.6h3.2c0.9,0,1.6,0.7,1.6,1.6v3.2C12.8,27.1,12,27.8,11.1,27.8 M11.1,42.1H7.9
		c-0.9,0-1.6-0.7-1.6-1.6v-3.2c0-0.9,0.7-1.6,1.6-1.6h3.2c0.9,0,1.6,0.7,1.6,1.6v3.2C12.8,41.4,12,42.1,11.1,42.1 M46.5,42.1H20.8
		c-0.9,0-1.6-0.7-1.6-1.6v-3.2c0-0.9,0.7-1.6,1.6-1.6h25.7c0.9,0,1.6,0.7,1.6,1.6v3.2C48.1,41.4,47.4,42.1,46.5,42.1"/>
</g>
</svg>
