<?xml version="1.0" encoding="utf-8"?>
<!-- Generator: Adobe Illustrator 21.0.0, SVG Export Plug-In . SVG Version: 6.00 Build 0)  -->
<svg version="1.1" id="Слой_1" xmlns="http://www.w3.org/2000/svg" xmlns:xlink="http://www.w3.org/1999/xlink" x="0px" y="0px"
	 viewBox="0 0 60 41" style="enable-background:new 0 0 60 41;" xml:space="preserve">
<style type="text/css">
	.st0{clip-path:url(#SVGID_2_);fill:#FFFFFF;}
</style>
<g>
	<defs>
		<rect id="SVGID_1_" width="60" height="41"/>
	</defs>
	<clipPath id="SVGID_2_">
		<use xlink:href="#SVGID_1_"  style="overflow:visible;"/>
	</clipPath>
	<path class="st0" d="M54,0H6C2.7,0,0,2.7,0,6v29c0,3.3,2.7,6,6,6h48c3.3,0,6-2.7,6-6V6C60,2.7,57.3,0,54,0 M28.6,34H11.4
		C9.5,34,8,31.9,8,29.9c0.1-3,3.2-4.8,6.5-6.3c2.3-1,2.6-1.9,2.6-2.9s-0.6-1.9-1.4-2.6c-1.3-1.2-2.1-3-2.1-5c0-3.8,2.3-7,6.3-7
		s6.3,3.2,6.3,7c0,2-0.7,3.8-2.1,5c-0.8,0.7-1.4,1.6-1.4,2.6s0.3,1.9,2.6,2.8c3.3,1.4,6.4,3.4,6.5,6.4C32,31.9,30.5,34,28.6,34
		 M52,27c0,1.1-0.9,2-2,2h-9c-1.1,0-2-0.9-2-2v-3c0-1.1,0.9-2,2-2h9c1.1,0,2,0.9,2,2V27z M52,16c0,1.1-0.9,2-2,2H35
		c-1.1,0-2-0.9-2-2v-3c0-1.1,0.9-2,2-2h15c1.1,0,2,0.9,2,2V16z"/>
</g>
</svg>
