<?xml version="1.0" encoding="utf-8"?>
<!-- Generator: Adobe Illustrator 21.0.0, SVG Export Plug-In . SVG Version: 6.00 Build 0)  -->
<svg version="1.1" id="Layer_1" xmlns="http://www.w3.org/2000/svg" xmlns:xlink="http://www.w3.org/1999/xlink" x="0px" y="0px"
	 viewBox="0 0 26.2 17.4" style="enable-background:new 0 0 26.2 17.4;" xml:space="preserve">
<style type="text/css">
	.st0{fill:#ffffff;}
</style>
<g id="Expanded">
	<g>
		<g>
			<path class="st0" d="M23.9,17.4H2.2c-1.2,0-2.2-1-2.2-2.2v-13C0,1,1,0,2.2,0H24c1.2,0,2.2,1,2.2,2.2v13.1
				C26.1,16.4,25.1,17.4,23.9,17.4z M2.2,1.1c-0.6,0-1.1,0.5-1.1,1.1v13.1c0,0.6,0.5,1.1,1.1,1.1H24c0.6,0,1.1-0.5,1.1-1.1V2.2
				c0-0.6-0.5-1.1-1.1-1.1C24,1.1,2.2,1.1,2.2,1.1z"/>
		</g>
		<g>
			<g>
				<path class="st0" d="M13.1,11.5L3.6,5.3C3.3,5.1,3.3,4.8,3.4,4.5c0.2-0.3,0.5-0.3,0.8-0.2l9,5.8l9-5.8c0.3-0.2,0.6-0.1,0.8,0.2
					c0.2,0.3,0.1,0.6-0.2,0.8L13.1,11.5z"/>
			</g>
		</g>
		<g>
			<g>
				<path class="st0" d="M3.3,14.1c-0.2,0-0.3-0.1-0.5-0.2c-0.2-0.3-0.1-0.6,0.2-0.8l4.9-3.3C8.2,9.6,8.5,9.7,8.7,10
					c0.2,0.3,0.1,0.6-0.2,0.8L3.6,14C3.5,14.1,3.4,14.1,3.3,14.1z"/>
			</g>
		</g>
		<g>
			<path class="st0" d="M22.8,14.1c-0.1,0-0.2,0-0.3-0.1l-4.9-3.3c-0.3-0.2-0.3-0.5-0.2-0.8c0.2-0.3,0.5-0.3,0.8-0.2l4.9,3.3
				c0.3,0.2,0.3,0.5,0.2,0.8C23.2,14.1,23,14.1,22.8,14.1z"/>
		</g>
	</g>
</g>
</svg>
