<?xml version="1.0" encoding="utf-8"?>
<!-- Generator: Adobe Illustrator 21.0.0, SVG Export Plug-In . SVG Version: 6.00 Build 0)  -->
<svg version="1.1" id="Слой_1" xmlns="http://www.w3.org/2000/svg" xmlns:xlink="http://www.w3.org/1999/xlink" x="0px" y="0px"
	 viewBox="0 0 22.4 22" style="enable-background:new 0 0 22.4 22;" xml:space="preserve">
<style type="text/css">
	.st0{fill:#FFFFFF;}
	.st1{clip-path:url(#SVGID_2_);fill:#FFFFFF;}
</style>
<polygon class="st0" points="16.9,11.6 15.5,10.1 10.4,15.2 7.5,12.2 6,13.7 10.4,18.1 "/>
<g>
	<defs>
		<rect id="SVGID_1_" y="0" width="22.4" height="22"/>
	</defs>
	<clipPath id="SVGID_2_">
		<use xlink:href="#SVGID_1_"  style="overflow:visible;"/>
	</clipPath>
	<path class="st1" d="M18.7,2.1h-0.9v1.2c0,1.1-0.8,1.9-1.9,1.9c-1.1,0-1.9-0.9-1.9-1.9V2.1H8.4v1.2c0,1.1-0.9,1.9-1.9,1.9
		S4.5,4.3,4.5,3.3V2.1H3.7C1.7,2.1,0,3.8,0,5.8v12.5c0,2,1.7,3.7,3.7,3.7h15.1c2,0,3.7-1.7,3.7-3.7V5.8C22.4,3.8,20.8,2.1,18.7,2.1
		 M20.5,18.3c0,1-0.8,1.8-1.8,1.8H3.7c-1,0-1.7-0.8-1.7-1.8V8.9h18.6V18.3z"/>
	<path class="st1" d="M6.4,4.2c0.5,0,1-0.4,1-1V1c0-0.5-0.4-1-1-1s-1,0.4-1,1v2.3C5.5,3.8,5.9,4.2,6.4,4.2"/>
	<path class="st1" d="M16,4.2c0.5,0,1-0.4,1-1V1c0-0.5-0.4-1-1-1c-0.5,0-1,0.4-1,1v2.3C15,3.8,15.4,4.2,16,4.2"/>
</g>
</svg>
