<?xml version="1.0" encoding="utf-8"?>
<!-- Generator: Adobe Illustrator 23.0.1, SVG Export Plug-In . SVG Version: 6.00 Build 0)  -->
<svg version="1.1" xmlns="http://www.w3.org/2000/svg" xmlns:xlink="http://www.w3.org/1999/xlink" x="0px" y="0px"
	 viewBox="0 0 143 30.84" style="enable-background:new 0 0 143 30.84;" xml:space="preserve">
<style type="text/css">
	.st0{fill:#00874E;}
	.st1{display:none;}
	.st2{display:inline;fill:none;}
</style>
<g id="LogoDesjardins">
	<g>
		<path class="st0" d="M41.66,6.86l-5.91,0v17.13h5.98c5.36,0,8.82-3.35,8.82-8.54C50.55,10.31,46.98,6.86,41.66,6.86z M41.49,21.08
			h-2.25V9.78h2.41c3.15,0,5.44,2.38,5.44,5.67C47.09,18.76,44.79,21.08,41.49,21.08z"/>
		<path class="st0" d="M0,7.71v15.42l13.35,7.71l13.35-7.71V7.71L13.35,0L0,7.71z M23.09,9.8v11.24l-9.74,5.62l-9.74-5.62V9.8
			l9.74-5.62L23.09,9.8z"/>
		<path class="st0" d="M118.9,8.39c0,0.99-0.8,1.79-1.79,1.79c-0.99,0-1.79-0.8-1.79-1.79c0-0.99,0.8-1.79,1.79-1.79
			C118.1,6.6,118.9,7.4,118.9,8.39z M118.64,12.25h-3.06v11.74h3.06V12.25z"/>
		<path class="st0" d="M70.25,16.72c-1.31-0.5-1.72-0.75-1.72-1.3c0-0.53,0.42-0.84,1.13-0.84c1.17,0,2.04,0.63,2.81,1.32l1.78-1.9
			c-1.14-1.23-2.84-1.96-4.55-1.96c-2.48,0-4.21,1.44-4.21,3.5c0,2.35,1.81,3.26,3.59,3.85c0.21,0.07,0.41,0.13,0.59,0.19
			c1.01,0.32,1.57,0.49,1.57,1.1c0,0.34-0.19,0.91-1.43,0.91c-1.15,0-2.29-0.56-2.92-1.43l-1.8,1.92c1.25,1.42,2.78,2.1,4.68,2.1
			c2.8,0,4.54-1.36,4.54-3.55C74.3,18.44,72.77,17.69,70.25,16.72z"/>
		<path class="st0" d="M138.95,16.72c-1.31-0.5-1.72-0.75-1.72-1.3c0-0.53,0.42-0.84,1.13-0.84c1.17,0,2.04,0.63,2.81,1.32l1.78-1.9
			c-1.14-1.23-2.84-1.96-4.55-1.96c-2.48,0-4.21,1.44-4.21,3.5c0,2.35,1.81,3.26,3.59,3.85c0.21,0.07,0.41,0.13,0.59,0.19
			c1.01,0.32,1.57,0.49,1.57,1.1c0,0.34-0.19,0.91-1.43,0.91c-1.15,0-2.29-0.56-2.92-1.43l-1.8,1.92c1.25,1.42,2.78,2.1,4.68,2.1
			c2.8,0,4.54-1.36,4.54-3.55C143,18.44,141.47,17.69,138.95,16.72z"/>
		<path class="st0" d="M79.77,8.39c0,0.99-0.8,1.79-1.79,1.79c-0.99,0-1.79-0.8-1.79-1.79s0.8-1.79,1.79-1.79
			C78.96,6.6,79.77,7.4,79.77,8.39z M76.13,28.54c2.02,0,3.38-1.39,3.38-4.15V12.25h-3.07v12.02c0,1.07-0.44,1.59-1.17,1.59
			c-0.36,0-0.7-0.1-1.02-0.29l-0.52,2.56C74.49,28.43,75.11,28.54,76.13,28.54L76.13,28.54z"/>
		<path class="st0" d="M89.46,12.9c-0.82-0.54-1.96-0.85-3.14-0.85c-1.93,0-3.52,0.7-4.47,1.96c0.21,0.23,1.53,1.63,1.79,1.89
			c0.48-0.67,0.94-1.02,1.62-1.23c0.25-0.08,0.53-0.12,0.82-0.12c0.37,0,0.75,0.07,1.03,0.19c0.73,0.31,1.14,0.91,1.14,1.65l0,0.77
			c-0.08-0.04-1.04-0.45-2.6-0.45c-2.47,0-4.34,1.63-4.34,3.8c0,2.14,1.6,3.69,3.81,3.69c1.38,0,2.23-0.61,2.99-1.23h0.13v1.03h2.91
			v-7.68C91.16,14.79,90.59,13.64,89.46,12.9z M88.25,20.15c0,0.6-1.25,1.55-2.73,1.55c-0.91,0-1.51-0.6-1.51-1.35
			c0-0.49,0.27-1.4,1.86-1.4c1.17,0,2.38,0.37,2.38,0.37V20.15z"/>
		<path class="st0" d="M96.86,13.62h-0.08v-1.38h-3.12v11.74h3.12l0-5.29c0-2.12,1.05-3.56,3.7-3.56v-3.1
			C98.89,12.07,97.62,12.55,96.86,13.62z"/>
		<path class="st0" d="M110.02,22.95h0.14v1.03h2.91l0-17.13h-3.07v6.36h-0.12c-0.61-0.73-2.05-1.17-3.03-1.17
			c-3.72,0-5.73,3.13-5.73,6.07c0,2.24,0.97,3.66,1.78,4.45c1.05,1.03,2.49,1.62,3.95,1.62C107.56,24.19,108.67,23.98,110.02,22.95z
			 M107.04,21.42c-1.68,0-3-1.45-3-3.3c0-1.86,1.31-3.31,2.99-3.31c1.86,0,3.01,1.72,3.01,3.31
			C110.04,19.93,108.69,21.42,107.04,21.42z"/>
		<path class="st0" d="M124.33,13.21h-0.12v-0.96h-3.07v11.74h3.07v-6.11c0-2.7,1.68-3.1,2.67-3.1c1.77,0,2.4,1.47,2.4,2.84v6.37
			h3.07v-6.33c0-3.51-1.88-5.61-5.03-5.61C125.15,12.04,124.35,13.17,124.33,13.21z"/>
		<path class="st0" d="M63.81,17.99c-0.02-3.51-2.38-5.94-5.76-5.94c-3.37,0-5.82,2.55-5.82,6.06c0,3.58,2.49,6.08,6.05,6.08
			c2.08,0,3.89-0.77,4.97-2.1c-0.22-0.24-1.58-1.68-1.83-1.92c-0.56,0.64-1.61,1.32-2.9,1.32c-1.55,0-2.73-0.88-3.11-2.38h8.33
			C63.79,18.87,63.81,18.36,63.81,17.99z M55.42,16.91c0.35-1.41,1.37-2.18,2.74-2.18c1.34,0,2.28,0.75,2.63,2.18H55.42z"/>
	</g>
</g>
<g id="Safety" class="st1">
	<rect x="-10.85" y="-10.85" class="st2" width="164.69" height="50.23"/>
</g>
</svg>
