<?xml version="1.0" encoding="utf-8"?>
<!-- Generator: Adobe Illustrator 21.0.0, SVG Export Plug-In . SVG Version: 6.00 Build 0)  -->
<svg version="1.1" id="Слой_1" xmlns="http://www.w3.org/2000/svg" xmlns:xlink="http://www.w3.org/1999/xlink" x="0px" y="0px"
	 viewBox="0 0 834 175.9" style="enable-background:new 0 0 834 175.9;" xml:space="preserve">
<style type="text/css">
	.st0{clip-path:url(#SVGID_2_);fill:#B6F8FF;}
	.st1{clip-path:url(#SVGID_2_);fill:#B9F8FF;}
	.st2{clip-path:url(#SVGID_2_);fill:#BDF9FF;}
	.st3{clip-path:url(#SVGID_2_);fill:#C0F9FF;}
	.st4{clip-path:url(#SVGID_2_);fill:#C4F9FF;}
	.st5{clip-path:url(#SVGID_2_);fill:#C7FAFF;}
	.st6{clip-path:url(#SVGID_2_);fill:#CBFAFF;}
	.st7{clip-path:url(#SVGID_2_);fill:#CEFAFF;}
	.st8{clip-path:url(#SVGID_2_);fill:#D2FBFF;}
	.st9{clip-path:url(#SVGID_2_);fill:#D5FBFF;}
	.st10{clip-path:url(#SVGID_2_);fill:#D9FBFF;}
	.st11{clip-path:url(#SVGID_2_);fill:#DCFCFF;}
	.st12{clip-path:url(#SVGID_2_);fill:#E0FCFF;}
	.st13{clip-path:url(#SVGID_2_);fill:#E3FCFF;}
	.st14{clip-path:url(#SVGID_2_);fill:#E7FDFF;}
	.st15{clip-path:url(#SVGID_2_);fill:#EAFDFF;}
	.st16{clip-path:url(#SVGID_2_);fill:#EEFDFF;}
	.st17{clip-path:url(#SVGID_2_);fill:#F1FEFF;}
	.st18{clip-path:url(#SVGID_2_);fill:#F5FEFF;}
	.st19{clip-path:url(#SVGID_2_);fill:#F8FEFF;}
	.st20{clip-path:url(#SVGID_2_);fill:#FCFFFF;}
	.st21{clip-path:url(#SVGID_2_);fill:#FFFFFF;}
</style>
<g>
	<defs>
		<rect id="SVGID_1_" width="834" height="175.9"/>
	</defs>
	<clipPath id="SVGID_2_">
		<use xlink:href="#SVGID_1_"  style="overflow:visible;"/>
	</clipPath>
	<path class="st0" d="M0.5,142.1L0,142c1.4-19.6,8.2-37.7,18.9-50.8C31,76.6,47.5,68.8,66.7,68.6c16.7-0.2,32.7,5.2,48.1,10.4
		c19.7,6.6,40.1,13.5,62.1,8.5c20.1-4.6,35.3-18,49.9-31c4.3-3.8,8.7-7.7,13.2-11.4c23.4-19,56.5-28.8,93.3-27.6
		c34.6,1.1,68.9,11.9,94.2,29.6c5.2,3.6,10.3,7.7,15.2,11.6c11.7,9.3,23.8,18.9,38.4,23.9c13.2,4.5,25.7,4.2,38.9,3.8
		c4.9-0.1,9.9-0.3,15.1-0.1c20.9,0.5,38.8,7.5,53.1,20.7c2.5,2.3,4.6,4.5,6.4,6.4c5.2,5.5,9,9.5,18.6,12.4
		c20.8,6.3,38.5-2.1,55.7-10.3c17.1-8.2,34.9-16.6,55.5-10.1c11.5,3.6,20.9,9.1,30,14.4c20,11.7,37.3,21.8,66.3,2.9l0.3,0.4
		c-29.3,19-46.7,8.8-66.8-2.9c-9.1-5.3-18.5-10.8-29.9-14.4c-20.4-6.4-38.1,2-55.1,10.1c-17.2,8.2-35.1,16.7-56,10.3
		c-9.7-3-13.7-7.2-18.8-12.6c-1.8-1.9-3.9-4.1-6.4-6.4c-14.2-13.2-32-20.1-52.8-20.6c-5.1-0.1-10.2,0-15,0.1
		c-13.3,0.4-25.8,0.7-39.1-3.8c-14.6-5-26.8-14.7-38.5-24c-4.9-3.9-10-8-15.2-11.6C402,29.9,367.7,19.1,333.3,18
		c-36.7-1.2-69.7,8.6-93,27.5c-4.5,3.6-8.9,7.6-13.2,11.4c-14.7,13-29.8,26.5-50.1,31.1c-22.1,5-42.6-1.9-62.4-8.5
		c-15.4-5.2-31.3-10.5-47.9-10.4C36.4,69.4,4.1,92.1,0.5,142.1"/>
	<path class="st1" d="M0.5,143.7l-0.5,0c2.6-35.2,23.5-71.3,64.4-72.3c16.3-0.5,32,4.5,47.1,9.3c19.1,6,38.8,12.3,60.2,7.6
		c21.2-4.6,36.2-16.8,52.1-29.7c3.8-3.1,7.7-6.2,11.6-9.3c2.8-2.1,5.6-4.1,8.3-5.9c25.3-16.2,56.2-24.4,89.4-23.7
		c31.6,0.7,62.9,9.7,88.3,25.4c6.3,3.9,12.4,8.3,18.2,12.5c11.6,8.4,23.6,17,37.4,21.8c13.4,4.7,25.9,5,39.2,5.3
		c4.9,0.1,10,0.2,15.2,0.6c20.9,1.5,39,9,53.8,22.3c1.9,1.7,3.5,3.3,5,4.8l1.3,1.3c5.7,5.7,9.7,9.8,19.6,12.8
		c21.6,6.4,40.1-2.5,57.9-11c18.2-8.7,35.4-17,55.7-10.6c11.9,3.7,21.6,9.8,30.9,15.6c19.8,12.3,36.9,22.9,65.5,4.3l0.3,0.4
		c-28.9,18.7-46.1,8-66.1-4.3c-9.4-5.8-19-11.8-30.8-15.5c-20.1-6.3-37.3,1.9-55.4,10.5c-17.9,8.6-36.5,17.5-58.3,11.1
		c-10-3-14.1-7.1-19.8-12.9l-1.3-1.3c-1.5-1.5-3.1-3.1-5-4.8c-14.8-13.3-32.8-20.7-53.5-22.2c-5.2-0.4-10.3-0.5-15.2-0.6
		c-13.3-0.3-25.9-0.6-39.3-5.3c-13.9-4.8-25.9-13.5-37.5-21.8c-5.9-4.2-11.9-8.6-18.2-12.5c-25.3-15.6-56.6-24.6-88-25.3
		c-33.1-0.7-63.9,7.4-89.1,23.6c-2.7,1.8-5.5,3.7-8.3,5.8c-4,3.1-7.9,6.2-11.6,9.3c-15.9,12.9-30.9,25.2-52.3,29.8
		c-21.5,4.7-41.3-1.6-60.4-7.6c-15.1-4.8-30.6-9.7-46.9-9.2C23.8,72.9,3.1,108.7,0.5,143.7"/>
	<path class="st2" d="M0.5,145.3l-0.5,0c1.4-18.6,7.6-35.9,17.7-48.5c11.2-14.1,26.6-22,44.4-22.7c16-0.8,31.3,3.8,46.1,8.1
		c18.4,5.4,37.5,11.1,58.2,6.7c22.8-4.8,38.5-16.5,55.2-29c3-2.2,6-4.5,9.1-6.8c3-2.2,5.8-4.1,8.4-5.7c53.3-33,120.8-34.8,176.1-4.7
		c7.5,4.1,14.7,8.8,21.6,13.3c11.8,7.8,23,15.2,36,19.7c13.6,4.8,26.2,5.8,39.4,6.8c5,0.4,10.2,0.8,15.4,1.4
		c20.8,2.4,39.2,10.4,54.6,23.9c1.9,1.6,3.5,3.2,5.2,4.8l1,0.9c6.1,5.9,10.5,10.1,20.6,13c22.5,6.5,41.7-2.8,60.2-11.8
		c18.5-8.9,35.9-17.4,55.9-11.1c12.2,3.9,22.2,10.4,31.8,16.7c19.7,12.9,36.6,24,64.8,5.7l0.3,0.4c-28.5,18.5-45.6,7.3-65.4-5.7
		c-9.6-6.3-19.5-12.8-31.7-16.6c-19.9-6.3-37.2,2.1-55.6,11c-18.6,9-37.9,18.3-60.6,11.8c-10.2-2.9-14.7-7.2-20.8-13.2l-1-0.9
		c-1.7-1.6-3.3-3.2-5.2-4.8c-15.3-13.4-33.6-21.3-54.3-23.7c-5.3-0.6-10.4-1-15.4-1.4c-13.3-1-25.9-1.9-39.6-6.8
		c-13.1-4.6-24.3-12-36.1-19.8c-6.9-4.5-14-9.2-21.5-13.3c-55.2-30-122.4-28.2-175.6,4.7c-2.6,1.6-5.4,3.5-8.4,5.7
		c-3.1,2.3-6.2,4.5-9.1,6.7c-16.7,12.5-32.5,24.3-55.4,29c-20.8,4.3-40-1.3-58.5-6.7c-14.8-4.4-30-8.9-45.9-8.1
		c-17.7,0.8-33,8.6-44.1,22.5C8.1,109.6,1.9,126.8,0.5,145.3"/>
	<path class="st3" d="M0.5,146.9l-0.5,0c1.3-18.1,7.4-34.9,17-47.3c10.8-13.8,25.6-21.7,42.8-22.8c15.5-1,30.5,3.1,45,7
		c17.8,4.8,36.2,9.8,56.3,5.8c25.1-5,41.3-16.1,60.1-29c1.6-1.1,3.2-2.2,4.9-3.3c2.3-1.6,5.3-3.6,8.6-5.5
		c28.3-16.9,57.6-26.5,87.2-28.4c29.8-2,59.2,3.9,87.3,17.3c8.9,4.3,17.2,9.3,25.3,14.1c11.4,6.9,22.2,13.4,34.3,17.7
		c13.8,5,26.3,6.5,39.6,8.2c5.1,0.6,10.4,1.3,15.8,2.2c21,3.4,39.1,11.7,55.3,25.4c1.9,1.6,3.6,3.2,5.2,4.7l0.7,0.6
		c6.6,6.1,11.4,10.5,21.8,13.4c23.4,6.5,43.3-3.2,62.5-12.6c18.7-9.1,36.4-17.7,56.1-11.5c12.5,4,22.7,11,32.6,17.8
		c19.5,13.5,36.4,25.2,64.2,7.1l0.3,0.4c-28.1,18.3-45.1,6.5-64.8-7.1c-9.8-6.8-20-13.8-32.4-17.8c-19.6-6.2-37.2,2.4-55.8,11.5
		c-19.3,9.4-39.3,19.2-62.9,12.6c-10.5-2.9-15.3-7.4-22-13.5l-0.7-0.6c-1.6-1.5-3.3-3-5.2-4.7c-16.1-13.7-34.1-21.9-55-25.3
		c-5.4-0.9-10.7-1.5-15.7-2.2c-13.3-1.7-25.8-3.2-39.7-8.2c-12.2-4.3-23-10.8-34.4-17.7c-8-4.8-16.3-9.8-25.2-14.1
		c-28-13.4-57.3-19.2-87-17.2c-29.5,1.9-58.7,11.5-86.9,28.3c-3.2,1.9-6.3,4-8.5,5.5c-1.6,1.1-3.3,2.2-4.9,3.3
		c-18.8,12.9-35.1,24.1-60.3,29.1c-20.2,4-38.7-1-56.5-5.9c-14.5-3.9-29.4-8-44.9-7c-17.1,1.1-31.7,8.9-42.4,22.6
		C7.8,112.2,1.8,128.9,0.5,146.9"/>
	<path class="st4" d="M0.5,148.5l-0.5,0c1.3-17.6,7.1-34,16.4-46.2C26.7,88.8,41,80.9,57.5,79.5c15.2-1.3,29.2,2.2,44.1,5.9
		c17.1,4.2,34.9,8.6,54.3,5c26.9-5.1,42.7-14.4,65.6-29.1c2.9-1.8,5.7-3.6,8.7-5.4c30.4-17.5,58.5-27.6,86.1-30.8
		c29.1-3.3,57.5,1,86.8,13.3c10.5,4.4,20.1,9.7,29.4,14.9c10.8,6,21.1,11.7,32.3,15.7c13.9,5.1,26.3,7.3,39.5,9.6
		c5.2,0.9,10.7,1.9,16.3,3c21,4.3,39.3,13.2,56,27c1.8,1.5,3.4,2.9,5,4.3l0.6,0.5c7.1,6.3,12.3,10.9,23,13.8
		c24.3,6.6,44.9-3.5,64.8-13.3c18.9-9.3,36.8-18.1,56.3-12c12.8,4,23.2,11.6,33.3,19c19.4,14.2,36.2,26.4,63.7,8.5l0.3,0.4
		c-12.7,8.2-24,10.7-35.4,7.7c-10.2-2.6-19.3-9.3-28.9-16.3c-10-7.3-20.4-14.9-33.1-18.9c-19.3-6.1-37.1,2.7-55.9,11.9
		c-20,9.9-40.7,20-65.2,13.4c-10.8-3-16-7.6-23.2-13.9l-0.6-0.5c-1.6-1.4-3.2-2.8-5-4.3c-16.7-13.8-34.9-22.6-55.8-26.9
		c-5.6-1.2-11-2.1-16.2-3c-13.2-2.3-25.6-4.5-39.6-9.6c-11.2-4-21.5-9.7-32.3-15.8c-9.2-5.1-18.8-10.4-29.3-14.8
		c-29.2-12.2-57.5-16.6-86.5-13.2c-27.5,3.2-55.6,13.2-85.9,30.7c-3,1.7-5.8,3.5-8.7,5.3c-22.9,14.7-38.8,24-65.8,29.1
		c-19.5,3.7-37.3-0.7-54.5-5c-14.9-3.7-28.9-7.2-44-5.9c-16.4,1.4-30.5,9.2-40.7,22.6C7.6,114.7,1.8,131,0.5,148.5"/>
	<path class="st5" d="M0.5,150.1l-0.5,0c1.3-17.1,6.9-33.1,15.8-45C25.7,91.9,39.3,84,55.2,82.2C70,80.6,83.9,83.7,98.5,87
		c16.5,3.7,33.5,7.5,52.1,4.1c28.3-5.1,44.5-12.7,66.2-25.7l1.3-0.8c2.4-1.5,4.9-3,7.5-4.4c33.5-18.7,59.7-28.9,85-33.1
		c28.5-4.8,55.9-1.8,86.2,9.3c12.4,4.5,23.4,10.2,34,15.6c10,5.2,19.5,10,29.6,13.7c13.9,5.1,26.2,7.9,39.2,10.8
		c5.5,1.2,11.1,2.5,17,4c20.8,5.3,39.4,14.6,56.7,28.6c1.7,1.4,3.2,2.7,4.7,3.9l1,0.9c7.8,6.7,13.2,11,23.7,13.8
		c25.2,6.7,46.5-3.9,67.2-14.1c19.2-9.5,37.2-18.5,56.5-12.4c13.1,4.1,23.7,12.2,33.9,20.1c19.3,14.8,36,27.6,63.2,9.9l0.3,0.4
		c-12.6,8.2-23.7,10.4-35.1,7.2c-10.1-2.9-19.1-9.8-28.7-17.1c-10.2-7.8-20.8-15.9-33.7-20c-19-6-37.1,2.9-56.1,12.4
		c-20.7,10.3-42.2,20.9-67.5,14.2c-10.7-2.8-16-7.1-23.9-13.9l-1-0.9c-1.5-1.3-3-2.6-4.7-3.9c-17.3-13.9-35.7-23.2-56.5-28.5
		c-5.9-1.5-11.5-2.8-17-4c-13-2.9-25.3-5.7-39.3-10.8c-10.2-3.7-19.6-8.6-29.7-13.8c-10.6-5.4-21.6-11.1-33.9-15.6
		c-30.2-11.1-57.5-14-86-9.2c-25.2,4.2-51.4,14.4-84.8,33.1c-2.6,1.5-5.1,3-7.5,4.4l-1.3,0.8c-21.8,13.1-38,20.7-66.4,25.8
		c-18.8,3.4-35.8-0.4-52.3-4.1c-14.6-3.3-28.4-6.3-43.2-4.7c-15.7,1.7-29.3,9.6-39.1,22.7C7.3,117.2,1.7,133.1,0.5,150.1"/>
	<path class="st6" d="M0.5,151.7l-0.5,0c1.2-16.6,6.6-32.2,15.1-43.9C24.6,94.9,37.7,87,52.9,85C67.4,83,81,85.7,95.5,88.5
		c15.7,3.1,32,6.3,49.9,3.2c29.8-5.1,45.4-10.3,66.9-22.4c0.9-0.5,1.8-1,2.8-1.6c2-1.1,4-2.3,6.1-3.4c32.7-17.6,58.1-29.7,83.9-35.5
		c27.7-6.2,54.9-4.5,85.7,5.2c14.5,4.6,26.9,10.6,39,16.4c9.1,4.3,17.6,8.4,26.6,11.8c13.7,5.1,25.6,8.4,38.3,11.8
		c5.9,1.6,12,3.3,18.4,5.2c20.7,6.2,39.5,16,57.4,30.1c1.6,1.3,3.1,2.5,4.6,3.7l1.4,1.1c7.8,6.5,13.8,11,24.4,13.7
		c26.1,6.7,48.2-4.3,69.5-15c19.4-9.7,37.7-18.8,56.6-12.8c13.3,4.2,24.1,12.9,34.5,21.2c9.4,7.6,18.4,14.8,28.3,17.9
		c11.2,3.5,22.1,1.4,34.5-6.6l0.3,0.4c-9.1,5.9-17,8.2-24.3,8.2c-14.7,0-26.6-9.6-39-19.6c-10.4-8.3-21.1-17-34.3-21.1
		c-18.8-5.9-37,3.2-56.3,12.8c-21.4,10.7-43.6,21.8-69.9,15c-10.8-2.8-16.7-7.3-24.6-13.8l-1.4-1.1c-1.4-1.2-2.9-2.4-4.6-3.7
		c-17.9-14.1-36.6-23.9-57.3-30c-6.4-1.9-12.5-3.6-18.4-5.2c-12.6-3.5-24.6-6.8-38.3-11.9c-9-3.3-17.6-7.4-26.7-11.8
		c-12-5.8-24.5-11.7-38.9-16.3c-30.6-9.8-57.8-11.4-85.4-5.2c-25.7,5.8-51.2,17.8-83.8,35.5c-2.1,1.1-4.1,2.3-6.1,3.4
		c-0.9,0.5-1.9,1.1-2.8,1.6c-21.5,12.1-37.1,17.3-67,22.5c-18,3.1-34.3-0.1-50.1-3.2c-14.4-2.8-28-5.5-42.5-3.6
		c-15.1,2-28,9.9-37.4,22.7C7,119.7,1.7,135.2,0.5,151.7"/>
	<path class="st7" d="M0.5,153.4l-0.5,0c1.2-16.1,6.3-31.3,14.5-42.7C23.6,98,36,90,50.6,87.7c14.2-2.3,27.7,0,42,2.4
		c15,2.5,30.5,5.1,47.6,2.4l2.2-0.3c27.7-4.5,42.9-6.9,65.3-18.7c1.3-0.7,2.7-1.4,4.1-2.2c1.6-0.9,3.2-1.8,4.9-2.6
		c2.9-1.5,5.8-3,8.6-4.5c59.2-31.1,95-49.8,159.3-32.1c16.8,4.6,30.9,11,44.5,17.1c7.9,3.6,15.4,6.9,23.1,9.8
		c12.9,4.8,24,8.4,35.7,12.2c6.9,2.2,14,4.5,21.4,7.1c20.6,7.1,39.6,17.4,58.2,31.7c1.5,1.2,3,2.3,4.4,3.4c0.6,0.5,1.2,1,1.8,1.4
		c7.8,6.2,14.2,10.9,25.1,13.6c27,6.8,49.8-4.7,71.9-15.8c19.6-9.8,38.1-19.1,56.8-13.2c13.5,4.3,24.4,13.5,35,22.4
		c9.4,7.9,18.3,15.4,28.2,18.8c11.1,3.8,22,1.9,34.2-6.1l0.3,0.4c-8.7,5.7-16.5,8-23.6,8c-14.9,0-26.9-10.1-39.5-20.7
		c-10.5-8.9-21.4-18-34.8-22.3c-18.5-5.8-36.9,3.4-56.4,13.2c-17.5,8.8-35.5,17.9-55.7,17.9c-5.3,0-10.8-0.6-16.5-2.1
		c-11.1-2.8-17.5-7.4-25.3-13.7c-0.6-0.5-1.2-0.9-1.8-1.4c-1.4-1.1-2.8-2.3-4.4-3.4c-18.5-14.2-37.5-24.6-58-31.6
		c-7.5-2.6-14.6-4.9-21.4-7.1c-11.7-3.8-22.8-7.4-35.7-12.2c-7.7-2.9-15.2-6.3-23.1-9.8c-13.6-6.1-27.6-12.4-44.4-17
		c-64.2-17.6-99.9,1.1-159,32.1c-2.8,1.5-5.7,3-8.6,4.5c-1.7,0.9-3.3,1.8-4.9,2.6c-1.4,0.8-2.8,1.5-4.1,2.2
		c-22.5,11.8-37.8,14.3-65.5,18.8l-2.2,0.3c-17.2,2.8-32.7,0.2-47.7-2.4c-14.3-2.4-27.7-4.7-41.9-2.4c-14.4,2.3-26.8,10.2-35.7,22.7
		C6.8,122.3,1.7,137.3,0.5,153.4"/>
	<path class="st8" d="M0.5,155l-0.5,0c1.1-15.6,6.1-30.4,13.9-41.6c8.6-12.3,20.5-20.3,34.4-22.9c14-2.7,27.4-0.8,41.6,1.2
		c14.2,2,28.9,4,45.1,1.6c6.1-0.9,11.6-1.6,16.8-2.3c19.1-2.5,32.8-4.3,51.4-13.4c1.7-0.9,3.5-1.8,5.3-2.7c1.2-0.6,2.5-1.3,3.8-1.9
		c10.4-5.2,19.7-10.2,28.7-15c24.4-13,43.6-23.3,64.6-28.8c22.7-6,45.2-5.7,73,0.8c19.5,4.6,35.3,11.3,50.5,17.8
		c6.6,2.8,12.7,5.4,19.1,7.9c9.3,3.6,17.8,6.7,26.1,9.7c10.5,3.9,20.4,7.5,31.5,11.8c20.4,7.9,39.6,18.8,58.9,33.2
		c1.4,1.1,2.8,2.2,4.2,3.2c0.7,0.6,1.4,1.1,2.2,1.7c7.7,6,14.6,10.8,25.9,13.6c27.9,6.8,51.5-5.1,74.2-16.6
		c19.8-10,38.5-19.5,56.9-13.6c13.7,4.3,24.8,14.1,35.5,23.5c18.3,16.1,35.6,31.3,62.1,14.1l0.3,0.4c-26.9,17.4-44.3,2.1-62.7-14.1
		c-10.7-9.4-21.7-19.1-35.3-23.4c-18.3-5.8-36.9,3.6-56.6,13.6c-21.8,11-46.5,23.5-74.6,16.6c-11.4-2.8-18.3-7.6-26-13.7
		c-0.7-0.5-1.4-1.1-2.2-1.7c-1.3-1-2.7-2.1-4.2-3.2c-19.2-14.4-38.4-25.3-58.8-33.2c-11.1-4.3-21-8-31.5-11.8
		c-8.2-3-16.7-6.2-26.1-9.7c-6.4-2.4-12.5-5.1-19.1-7.9c-15.2-6.5-31-13.2-50.5-17.8c-27.7-6.5-50.2-6.8-72.7-0.8
		c-21,5.5-40.2,15.8-64.5,28.8c-9,4.8-18.4,9.8-28.7,15c-1.3,0.7-2.6,1.3-3.8,1.9c-1.9,1-3.6,1.9-5.4,2.7
		c-18.6,9.1-32.4,10.9-51.5,13.5c-5.2,0.7-10.7,1.4-16.8,2.3c-16.3,2.5-31,0.4-45.2-1.6c-14.2-2-27.5-3.8-41.4-1.2
		c-13.8,2.6-25.5,10.5-34.1,22.7C6.5,124.8,1.6,139.5,0.5,155"/>
	<path class="st9" d="M0.5,156.6l-0.5,0c1.1-15.3,5.7-29.3,13.3-40.4c8.2-12.1,19.5-20,32.7-23c13.8-3.1,27.2-1.6,41.3-0.1
		c13.3,1.5,27.1,3,42.4,0.8c9.1-1.3,17-2,23.9-2.5c15.8-1.3,28.3-2.3,44.8-9.9c2.1-1,4.3-2,6.6-3.2c0.9-0.4,1.7-0.9,2.6-1.3
		c16-7.9,29.8-15.6,41.9-22.5c40.4-22.9,67.1-38,122.9-27c22.6,4.5,40.1,11.7,57.1,18.6c5,2,9.7,4,14.5,5.8c20.7,8,37,14.6,58,23.7
		c20.1,8.7,39.6,20.1,59.6,34.8c1.4,1,2.7,2,4,3c0.9,0.6,1.7,1.3,2.6,1.9c9.1,6.8,16,11,26.6,13.5c28.9,6.9,54.2-6,76.6-17.4
		c20-10.2,38.8-19.8,57.1-14c13.9,4.4,25.1,14.7,36,24.7c18.2,16.7,35.5,32.5,61.8,15.5l0.3,0.4c-8.1,5.3-15.4,7.5-22.1,7.5
		c-15.2,0-27.5-11.3-40.3-23c-10.8-9.9-22-20.2-35.8-24.5c-18-5.7-36.8,3.9-56.7,14c-22.5,11.4-47.9,24.4-77,17.5
		c-10.7-2.5-17.6-6.7-26.8-13.6c-0.8-0.6-1.7-1.3-2.6-1.9c-1.3-1-2.6-2-4-3c-20-14.7-39.5-26.1-59.5-34.8c-21-9.1-37.3-15.8-58-23.7
		c-4.8-1.8-9.5-3.8-14.5-5.8c-16.9-6.9-34.5-14.1-57-18.6c-55.5-11-82.2,4.1-122.5,26.9c-12.1,6.9-25.9,14.6-41.9,22.5
		c-0.9,0.4-1.8,0.9-2.6,1.3c-2.3,1.1-4.5,2.2-6.6,3.2c-16.6,7.6-29.2,8.6-45,9.9c-6.9,0.6-14.8,1.2-23.9,2.5
		c-15.3,2.2-29.1,0.7-42.5-0.8c-14.1-1.5-27.5-3-41.2,0.1c-13.1,2.9-24.3,10.8-32.4,22.8C6.2,127.5,1.6,141.4,0.5,156.6"/>
	<path class="st10" d="M0.5,158.2l-0.5,0c1.1-14.8,5.4-28.4,12.6-39.3c7.8-11.8,18.5-19.7,31-23c13.7-3.6,27.1-2.5,41.4-1.4
		c12.4,1,25.2,2,39.4,0.1c11-1.5,20.1-1.7,28.1-1.9c13.9-0.4,25.8-0.7,41.3-7.2c2.6-1.1,5.2-2.3,8-3.7l1.4-0.6
		c20.5-9.7,36.6-19.6,50.8-28.3c34.2-21,58.9-36.2,112.4-27.5c26.1,4.3,45.5,12,64.2,19.5c3.2,1.3,6.3,2.5,9.4,3.7
		c22.4,8.7,39.9,17.1,58.5,26c19.7,9.4,39.4,21.3,60.3,36.4c1.3,0.9,2.5,1.8,3.7,2.7c1,0.7,2,1.5,3,2.2c9,6.6,16.4,10.9,27.3,13.4
		c29.8,6.9,55.9-6.5,79-18.3c20.1-10.3,39.2-20.1,57.2-14.4c14.1,4.4,25.4,15.3,36.4,25.8c18.2,17.4,35.4,33.8,61.5,16.8l0.3,0.4
		c-26.5,17.2-43.8,0.6-62.1-16.9c-11-10.5-22.3-21.3-36.2-25.7c-17.8-5.6-36.7,4.1-56.8,14.4c-23.1,11.9-49.4,25.3-79.3,18.3
		c-11-2.5-18.4-6.9-27.5-13.5c-1-0.7-2-1.4-3-2.2c-1.2-0.9-2.5-1.8-3.7-2.7c-20.9-15.1-40.6-26.9-60.2-36.3
		c-18.5-8.9-36-17.2-58.4-26c-3.1-1.2-6.3-2.5-9.4-3.7c-18.7-7.5-38.1-15.2-64.1-19.4c-24.6-4-44.6-3.2-63,2.4
		c-17,5.3-31.9,14.4-49,25C240,62,224,71.9,203.4,81.6l-1.4,0.6c-2.8,1.3-5.5,2.6-8,3.7c-15.6,6.6-27.6,6.9-41.5,7.2
		c-8,0.2-17.1,0.4-28,1.9C110.3,97,97.4,96,85,95c-14.2-1.1-27.6-2.2-41.2,1.4c-12.4,3.2-23.1,11.1-30.8,22.8
		C5.9,130,1.6,143.5,0.5,158.2"/>
	<path class="st11" d="M0.5,159.8l-0.5,0c1-14.3,5.2-27.5,12-38.1c7.3-11.5,17.5-19.4,29.4-23c13.6-4.1,27.3-3.5,41.7-2.8
		c11.4,0.5,23.1,1.1,36.1-0.5c12.3-1.5,22.1-1.2,30.9-0.9c13.1,0.5,24.4,0.9,39.2-4.9c3-1.2,6.2-2.6,9.5-4.1
		c24.2-11.1,41.5-22.9,56.8-33.3c30.6-20.8,52.7-35.8,104.7-28.9c30,4,51.3,12.4,71.9,20.5l3.7,1.5c20.6,8.1,36.5,16.4,54.9,26.1
		l4.1,2.1c19,9.9,38.9,22.3,61,37.9c1.2,0.8,2.3,1.6,3.4,2.4c1.2,0.8,2.3,1.7,3.5,2.5c9,6.4,16.8,10.8,28,13.4
		c30.7,7,57.7-6.9,81.4-19.2c20.3-10.5,39.5-20.4,57.3-14.8c14.2,4.5,25.7,15.9,36.8,26.9c18.1,18,35.3,35.1,61.3,18.2l0.3,0.4
		c-7.6,5-14.5,7-20.9,7c-15.6,0-28-12.4-41-25.3c-11.1-11-22.5-22.4-36.6-26.8c-17.5-5.5-35.8,3.9-56.9,14.7
		c-23.8,12.3-50.8,26.2-81.7,19.2c-11.2-2.5-19.1-7-28.2-13.5c-1.2-0.8-2.3-1.6-3.5-2.5c-1.1-0.8-2.2-1.6-3.4-2.4
		c-22.1-15.6-42-28-61-37.9l-4.1-2.1c-18.4-9.6-34.3-18-54.8-26.1l-3.7-1.5c-20.6-8.1-41.8-16.5-71.8-20.5
		c-51.8-6.8-73.8,8.1-104.3,28.8c-15.3,10.4-32.6,22.2-56.9,33.3c-3.3,1.5-6.5,3-9.5,4.2c-14.9,5.8-26.3,5.4-39.4,4.9
		c-8.7-0.3-18.6-0.7-30.8,0.8c-13,1.6-24.8,1.1-36.2,0.5c-14.4-0.7-28-1.3-41.6,2.8c-11.8,3.5-21.8,11.4-29.1,22.8
		C5.7,132.5,1.5,145.6,0.5,159.8"/>
	<path class="st12" d="M0.5,161.4l-0.5,0c2.2-29.5,17.1-52.5,39.1-60c13.7-4.7,27.8-4.5,42.6-4.3c10.2,0.1,20.7,0.3,32.3-1
		c13.2-1.5,23.6-0.5,32.8,0.4c12.6,1.2,23.4,2.3,37.9-2.9c3.2-1.1,6.5-2.6,9.6-4c27.3-12.2,45.2-25.7,61-37.7
		c13.7-10.4,25.5-19.3,40.5-25.2c16.3-6.4,34.9-8.2,58.4-5.8c34.4,3.5,58.3,13.1,77.6,20.7c20.1,8,35.4,16.7,53.1,26.8
		c2.1,1.2,4.2,2.4,6.3,3.6c17.9,10.2,37.6,22.8,61.8,39.5c1,0.7,2,1.4,3,2.1c1.4,1,2.7,1.9,4.1,2.8c8.9,6.2,17.2,10.8,28.7,13.3
		c31.7,7,59.4-7.4,83.8-20c21.4-11.1,39.9-20.7,57.4-15.1c14.3,4.5,26,16.5,37.2,28.1c18.1,18.7,35.2,36.3,61,19.6l0.3,0.4
		c-26.2,17-43.4-0.8-61.7-19.7c-11.2-11.5-22.8-23.5-37-28c-17.3-5.5-35.7,4.1-57,15.1c-24.5,12.7-52.3,27.1-84.1,20.1
		c-11.6-2.5-19.9-7.2-28.9-13.4c-1.4-0.9-2.7-1.9-4.1-2.8c-1-0.7-2-1.4-3-2.1c-24.2-16.7-43.8-29.3-61.7-39.5
		c-2.1-1.2-4.2-2.4-6.3-3.6c-17.7-10.1-33-18.8-53-26.8c-19.2-7.6-43.2-17.2-77.5-20.7c-23.5-2.4-41.9-0.6-58.2,5.7
		C281,33.1,269.2,42,255.5,52.3c-15.8,12-33.7,25.5-61.1,37.7c-3.1,1.4-6.5,2.9-9.6,4c-14.6,5.2-25.5,4.1-38.1,2.9
		c-9.2-0.9-19.5-1.9-32.7-0.4c-11.6,1.3-22.1,1.2-32.3,1c-14.8-0.2-28.8-0.4-42.5,4.3C17.5,109.3,2.6,132.2,0.5,161.4"/>
	<path class="st13" d="M0.5,163L0,163c2.1-28.2,16.1-50.8,36.7-58.9c14-5.6,28-5.8,44.3-6c8.8-0.1,17.8-0.3,27.7-1.3
		c14-1.4,24.8,0.3,34.3,1.9c12.2,2,22.7,3.7,37-1c3.3-1.1,6.8-2.5,9.7-3.8c30-13,47.9-28.2,63.8-41.6C277.9,31.4,297.3,15,348,18.9
		c35.3,2.7,59.6,11.5,79.6,19.5c20,8,35,17.3,52.4,28.1c2.4,1.5,4.9,3,7.4,4.6c17.4,10.7,36.8,23.6,62.5,41.1
		c0.9,0.6,1.8,1.2,2.6,1.8c1.5,1.1,3.1,2.1,4.6,3.1c10.8,7.2,19.3,11.1,29.4,13.2c32.6,7,61.1-7.8,86.2-20.9
		c21.6-11.2,40.2-20.9,57.5-15.5c14.5,4.6,26.2,17.1,37.6,29.2c18.1,19.3,35.2,37.6,60.8,21l0.3,0.4c-26,16.9-43.2-1.5-61.5-21
		c-11.3-12.1-23-24.6-37.3-29.1c-17.1-5.4-35.6,4.3-57.1,15.5c-25.2,13.1-53.7,28-86.6,20.9c-10.2-2.2-18.8-6-29.6-13.3
		c-1.5-1-3.1-2.1-4.6-3.1c-0.9-0.6-1.8-1.2-2.6-1.8c-25.7-17.4-45.1-30.3-62.5-41c-2.5-1.6-5-3.1-7.4-4.6
		c-17.4-10.8-32.4-20.1-52.4-28.1c-20-8-44.2-16.8-79.5-19.5c-50.5-3.8-69.8,12.5-94.2,33.2C237.9,66,220,81.3,189.9,94.3
		c-3,1.3-6.4,2.7-9.8,3.8c-14.4,4.7-25,3-37.2,1c-9.5-1.5-20.3-3.3-34.2-1.9c-9.9,1-18.9,1.2-27.7,1.3c-16.2,0.3-30.2,0.5-44.1,6
		C16.5,112.6,2.5,135,0.5,163"/>
	<path class="st14" d="M0.5,164.6l-0.5,0c2-26.9,15.2-49.1,34.4-57.8c14.6-6.6,29.6-7.3,47.1-8c7-0.3,14.2-0.6,21.9-1.3
		c14.6-1.4,25.2,1,35.5,3.4c11.5,2.6,22.3,5,36.5,0.9c2.8-0.8,5.8-1.9,9.8-3.6c32.3-13.6,50-30.4,65.6-45.3
		c22.6-21.6,40.4-38.6,91.1-36c36.7,1.9,60.9,9.9,81.6,18.3c20.1,8.1,35,18.1,52.3,29.6c2.6,1.7,5.2,3.5,8,5.3
		c8.9,5.9,18.6,12.5,28.9,19.5c10.2,6.9,21.7,14.7,34.3,23.2l2.1,1.4c1.8,1.2,3.6,2.4,5.4,3.6c10.8,7.1,19.8,11,30.1,13.2
		c33.6,7,62.9-8.3,88.7-21.8c21.7-11.4,40.5-21.2,57.5-15.8c14.6,4.6,26.4,17.7,37.9,30.4c18.1,20,35.1,38.9,60.7,22.3l0.3,0.4
		c-7,4.5-13.3,6.4-19.2,6.4c-16,0-28.8-14.1-42.1-28.9C756.9,111,745.1,98,730.6,93.4c-16.8-5.3-35.5,4.5-57.1,15.8
		c-25.9,13.5-55.2,28.9-89,21.8c-10.4-2.2-19.4-6.1-30.3-13.3c-1.8-1.2-3.6-2.4-5.4-3.6l-2.1-1.4c-12.7-8.4-24.2-16.3-34.3-23.2
		c-10.3-7-20-13.6-28.9-19.5c-2.7-1.8-5.4-3.6-8-5.3c-17.3-11.5-32.2-21.4-52.2-29.6C402.7,27,378.5,19,341.9,17.2
		c-50.4-2.5-68.2,14.4-90.7,35.9c-15.6,14.9-33.3,31.8-65.7,45.4c-4.1,1.7-7.1,2.8-9.9,3.6c-14.3,4.2-25.2,1.8-36.7-0.8
		c-10.2-2.3-20.8-4.7-35.3-3.4c-7.7,0.7-15,1-21.9,1.3c-17.4,0.8-32.4,1.4-46.9,8C15.5,115.9,2.4,137.9,0.5,164.6"/>
	<path class="st15" d="M0.5,166.2l-0.5,0c1.9-26,13.9-47.2,32.1-56.7c15.5-8,32.3-9.1,51.8-10.4c4.6-0.3,9.3-0.6,14.3-1
		c15.1-1.2,26,1.9,36.5,4.9c11.3,3.3,22,6.4,36.1,2.6c2.9-0.8,6-1.9,9.9-3.5c34.4-14,51.6-32.5,66.7-48.8
		c10.1-10.8,19.6-21.1,32.8-28.2c14.6-7.9,32.3-11.3,55.6-10.7c39.6,1.1,64.5,9.2,83.6,17c20.3,8.3,35.2,18.9,52.5,31.2
		c2.7,1.9,5.4,3.9,8.3,5.9c3.3,2.3,6.7,4.8,10.3,7.3c15.2,10.8,32.4,23,53.7,36.9l1.4,0.9c2.1,1.3,4.2,2.7,6.3,4.1
		c11,7,20.3,11,30.9,13.1c34.6,7.1,64.6-8.7,91.1-22.7c21.9-11.5,40.8-21.5,57.6-16.2c14.7,4.6,26.7,18.3,38.2,31.6
		c18,20.7,35.1,40.2,60.5,23.7l0.3,0.4c-6.8,4.4-13,6.3-18.7,6.3c-16.1,0-29-14.7-42.4-30.1c-11.5-13.2-23.4-26.8-38-31.4
		c-16.6-5.2-35.4,4.7-57.2,16.1c-26.6,14-56.7,29.8-91.4,22.7c-10.7-2.2-19.9-6.1-31-13.2c-2.1-1.3-4.2-2.7-6.3-4.1l-1.4-0.9
		c-21.3-13.9-38.5-26.2-53.7-36.9c-3.5-2.5-6.9-4.9-10.3-7.3c-2.8-2-5.6-4-8.3-5.9c-17.2-12.3-32.1-22.9-52.4-31.2
		c-19.1-7.8-43.9-15.9-83.4-17c-23.2-0.6-40.8,2.8-55.3,10.6c-13.1,7.1-22.6,17.3-32.6,28.1c-15.2,16.3-32.4,34.9-66.9,48.9
		c-3.9,1.6-7.1,2.7-10,3.5c-14.3,3.8-25,0.7-36.4-2.6c-10.4-3-21.2-6.2-36.3-4.9c-4.9,0.4-9.7,0.7-14.3,1
		c-19.4,1.3-36.2,2.3-51.6,10.3C14.3,119.3,2.4,140.4,0.5,166.2"/>
	<path class="st16" d="M0.5,167.9l-0.5,0c1.8-24.8,13-45.5,29.8-55.5c17.1-10.2,36.1-11.5,60.1-13.2l3-0.2
		c15.6-1.1,26.6,2.8,37.3,6.6c11.2,4,21.8,7.7,35.9,4.3c3-0.7,6.2-1.8,10.1-3.3c36.3-14.4,52.8-34.2,67.4-51.8
		c18.7-22.5,34.8-41.9,86-42.3c0.9,0,1.7,0,2.6,0c39.3,0,64,8,83,15.8c20.6,8.6,35.6,19.9,52.9,33.1c2.7,2,5.4,4.1,8.2,6.2l1.8,1.3
		c17.2,13,36.8,27.6,62.9,44.4l0.2,0.2c2.5,1.6,5,3.2,7.6,4.8c11.1,6.9,20.8,10.9,31.6,13c35.6,7.1,66.4-9.2,93.5-23.6
		c22-11.7,41.1-21.7,57.6-16.5c14.8,4.7,26.9,18.9,38.5,32.7c18,21.3,35.1,41.5,60.4,25.1l0.3,0.4c-25.6,16.6-42.8-3.7-61-25.2
		c-11.6-13.7-23.6-27.9-38.3-32.6c-16.4-5.2-35.3,4.9-57.3,16.5c-22.7,12-47.9,25.4-76.4,25.4c-5.7,0-11.5-0.5-17.5-1.7
		c-10.8-2.1-20.6-6.2-31.7-13.1c-2.6-1.6-5.1-3.2-7.6-4.8l-0.2-0.2c-26.1-16.8-45.7-31.5-62.9-44.4l-1.8-1.3
		c-2.8-2.1-5.6-4.2-8.2-6.2c-17.3-13.2-32.3-24.5-52.8-33.1c-19.4-8-44.7-16.1-85.4-15.7c-51,0.4-67.1,19.8-85.7,42.2
		c-14.6,17.6-31.2,37.5-67.6,51.9c-3.8,1.5-7.1,2.6-10.1,3.3c-14.3,3.4-24.9-0.4-36.2-4.3c-10.6-3.8-21.6-7.6-37.1-6.5l-3,0.2
		c-24,1.7-42.9,3-59.9,13.1C13.3,122.6,2.3,143.3,0.5,167.9"/>
	<path class="st17" d="M0.5,169.5l-0.5,0c1.7-23.5,12-43.9,27.5-54.4c15.9-10.8,34.1-13.9,60.2-15.4c16-1,27.2,3.7,38,8.2
		c11.1,4.6,21.6,9,35.8,6c3.1-0.6,6.4-1.7,10.2-3.1c38-14.6,53.7-36.2,67.5-55.2c17.4-23.9,32.4-44.5,84.3-45.3
		c35-0.6,62,3.9,87.6,14.5c20.9,8.7,35.9,20.9,53.3,34.9c2.7,2.2,5.5,4.4,8.3,6.7c19.1,15.2,38.5,30.3,65.4,47.3
		c2.5,1.6,5.2,3.3,8,5c11.1,6.7,21.4,10.9,32.3,13c36.5,7.1,68.1-9.7,96-24.5c22.2-11.8,41.3-22,57.7-16.8
		c14.9,4.7,27.1,19.5,38.8,33.9c18,22,35.1,42.8,60.2,26.4l0.3,0.4c-25.5,16.6-42.7-4.4-60.9-26.5c-11.7-14.3-23.8-29.1-38.6-33.7
		c-16.2-5.1-35.2,5-57.3,16.8c-27.9,14.8-59.6,31.7-96.3,24.6c-11-2.1-21.3-6.3-32.4-13c-2.8-1.7-5.5-3.4-8-5
		c-26.9-17-46.3-32.1-65.4-47.3c-2.9-2.3-5.6-4.5-8.3-6.7c-17.4-14-32.4-26.1-53.2-34.8c-25.5-10.6-52.5-15.1-87.4-14.5
		C271.9,11.5,257,32,239.7,55.8c-13.9,19.1-29.7,40.7-67.8,55.4c-3.8,1.5-7.2,2.5-10.2,3.1c-14.4,3-25-1.4-36.1-6
		c-10.8-4.5-21.9-9.1-37.8-8.2c-26,1.6-44.2,4.6-60,15.4C12.4,125.9,2.2,146.1,0.5,169.5"/>
	<path class="st18" d="M0.5,171.1L0,171c1.6-22.6,10.8-42,25.2-53.3c14-11,31.1-16.2,57.3-17.5c16.4-0.8,27.7,4.6,38.6,9.9
		c11.1,5.3,21.5,10.3,35.9,7.7c3.2-0.6,6.5-1.5,10.3-2.9c39.5-14.7,54.4-37.8,67.5-58.2C250.8,31.6,264.8,9.9,317.4,8
		c36.9-1.3,64.5,2.8,89.6,13.3c21.2,8.9,36.3,21.8,53.7,36.7c2.7,2.3,5.5,4.7,8.4,7.1c17,14.3,37.6,31.1,66.1,48.9
		c2.2,1.4,5.2,3.2,8.2,5c11.3,6.7,21.8,10.8,33,12.9c37.5,7.1,69.9-10.2,98.5-25.4c22.3-11.9,41.6-22.2,57.7-17.1
		c15,4.7,27.3,20.1,39.1,35c18,22.7,35,44.1,60.1,27.8l0.3,0.4c-25.4,16.5-42.6-5.1-60.8-27.9c-11.8-14.8-24-30.2-38.9-34.9
		c-15.9-5-35.1,5.2-57.4,17.1C651,119.7,624.3,134,593.9,134c-5.7,0-11.6-0.5-17.6-1.6c-11.3-2.1-21.8-6.3-33.2-13
		c-3.1-1.8-6-3.6-8.2-5c-28.6-17.8-49.2-34.6-66.2-48.9c-2.9-2.4-5.6-4.8-8.4-7.1c-17.4-14.9-32.5-27.7-53.6-36.6
		c-25-10.5-52.6-14.6-89.4-13.3c-52.4,1.9-66.3,23.5-82.3,48.4c-13.1,20.4-28,43.6-67.7,58.4c-3.8,1.4-7.2,2.4-10.4,3
		c-14.5,2.7-25-2.4-36.2-7.7c-10.9-5.2-22.2-10.6-38.4-9.8c-26.1,1.3-43.1,6.5-57,17.4C11.2,129.3,2.1,148.6,0.5,171.1"/>
	<path class="st19" d="M0.5,172.7l-0.5,0c1.6-21.3,9.9-40.3,22.9-52.2C36.5,108,53.8,101.8,77.2,101c16.7-0.6,28.1,5.6,39.2,11.5
		c11,6,21.5,11.6,35.9,9.3c3.3-0.5,6.7-1.4,10.4-2.8c41-14.8,54.9-39.4,67.2-61.1c7.4-13,14.3-25.3,26.1-34.7
		c13.3-10.6,30.8-16.1,55.3-17.4c38.2-2.1,67.3,1.8,91.6,12.1c21.5,9.1,36.7,22.8,54.2,38.6c2.7,2.4,5.5,4.9,8.3,7.5
		c16.8,14.9,37.2,32.4,66.9,50.4c2.8,1.7,5.7,3.4,8.4,5c11.3,6.6,22.3,10.8,33.7,12.8c38.5,7.1,71.7-10.7,100.9-26.4
		c22.5-12,41.8-22.4,57.8-17.4c15.1,4.8,27.4,20.7,39.4,36.2c18,23.3,35,45.4,60,29.2l0.3,0.4c-11.4,7.4-22.2,7.4-33.2,0.2
		c-9.7-6.5-18.4-17.6-27.5-29.5c-11.9-15.4-24.2-31.3-39.1-36c-15.7-5-35,5.4-57.4,17.4c-24.8,13.3-52.3,28-83.6,28
		c-5.8,0-11.7-0.5-17.7-1.6c-11.4-2.1-22.5-6.3-33.9-12.9c-2.7-1.6-5.6-3.3-8.4-5c-29.6-18.1-50.1-35.5-66.9-50.5
		c-2.9-2.5-5.6-5-8.3-7.5c-17.5-15.8-32.6-29.4-54.1-38.5c-24.3-10.3-53.3-14.1-91.4-12c-24.3,1.3-41.8,6.8-55,17.3
		c-11.8,9.4-18.7,21.6-26,34.6c-12.3,21.8-26.3,46.4-67.4,61.3c-3.8,1.4-7.2,2.3-10.5,2.8c-14.6,2.3-25.1-3.4-36.2-9.4
		c-11-5.9-22.4-12.1-38.9-11.5c-23.3,0.9-40.4,7-54,19.4C10.3,132.6,2,151.5,0.5,172.7"/>
	<path class="st20" d="M0.5,174.3l-0.5,0c1.5-20.4,8.8-38.5,20.6-51c13-13.8,30.3-21,51.4-21.5c17-0.4,28.6,6.5,39.7,13.2
		c11,6.6,21.4,12.9,36,11c3.3-0.4,6.9-1.3,10.5-2.6c42.4-14.8,54.8-39.8,66.8-63.9c6.8-13.6,13.2-26.5,24.7-36.6
		c13-11.3,30.6-17.4,55.5-19.1c39.8-2.9,69.5,0.5,93.6,10.8c21.9,9.4,37.1,23.8,54.7,40.5c2.7,2.5,5.4,5.1,8.2,7.8
		c17.7,16.6,38.2,34.3,67.6,52c2.8,1.7,5.7,3.4,8.6,5c11.4,6.5,22.7,10.7,34.4,12.8c39.5,7,74.9-12,103.4-27.3
		c22.6-12.2,42.1-22.6,57.8-17.7c15.2,4.8,27.6,21.3,39.6,37.3c18,24,35,46.7,59.9,30.5l0.3,0.4c-11.3,7.4-22.2,7.3-33.1-0.3
		c-9.7-6.7-18.3-18.2-27.5-30.4c-12-15.9-24.3-32.4-39.4-37.2c-15.5-4.9-34.9,5.6-57.4,17.7c-24.3,13.1-53.7,28.9-86.4,28.9
		c-5.7,0-11.4-0.5-17.3-1.5c-11.8-2.1-23.1-6.3-34.6-12.8c-2.9-1.6-5.8-3.3-8.6-5c-29.4-17.7-49.9-35.5-67.7-52.1
		c-2.8-2.6-5.6-5.2-8.2-7.8c-17.6-16.7-32.8-31.1-54.6-40.4c-24-10.3-53.7-13.7-93.4-10.8c-24.8,1.7-42.3,7.8-55.2,19
		c-11.5,10-17.9,22.8-24.6,36.4c-12,24.2-24.4,49.3-67,64.2c-3.7,1.3-7.2,2.2-10.6,2.6c-14.8,2-25.3-4.4-36.4-11
		c-11.1-6.7-22.5-13.6-39.4-13.2c-21,0.5-38.2,7.7-51.1,21.4C9.2,136,2,154,0.5,174.3"/>
	<path class="st21" d="M0.5,175.9l-0.5,0c2.6-36.2,24.3-73,66.7-73.5c0.2,0,0.4,0,0.6,0c17,0,28.5,7.6,39.5,14.9
		c13.4,8.9,26.1,17.3,46.8,10.2c43.7-14.9,55.1-41.2,66.2-66.6c12.2-28,23.7-54.5,79.2-59.4c41.8-3.7,72.3-0.6,96,9.8
		c22,9.6,37.2,24.7,54.8,42.3c20.6,20.5,43.9,43.7,85.2,66.6c55.3,30.8,102.8,5.1,141-15.6c22.7-12.3,42.3-22.9,57.8-18
		c15.3,4.8,27.8,21.9,39.9,38.5c18,24.7,35,48,59.8,31.9l0.3,0.4c-11.3,7.3-22.1,7.1-33-0.8c-9.7-7-18.3-18.8-27.5-31.3
		c-12-16.5-24.5-33.6-39.6-38.3c-15.3-4.8-34.8,5.7-57.4,17.9c-38.3,20.7-85.9,46.5-141.5,15.6c-41.3-23-64.7-46.2-85.3-66.7
		c-17.6-17.5-32.8-32.6-54.7-42.2C371.3,1.4,340.9-1.7,299.1,2c-55.2,4.9-66.7,31.2-78.8,59.1c-11.1,25.5-22.6,51.9-66.4,66.9
		c-21,7.2-33.8-1.3-47.3-10.2c-11.2-7.4-22.7-15-39.9-14.8C24.6,103.4,3.1,139.9,0.5,175.9"/>
</g>
</svg>
