<?xml version="1.0" encoding="utf-8"?>
<!-- Generator: Adobe Illustrator 21.0.0, SVG Export Plug-In . SVG Version: 6.00 Build 0)  -->
<svg version="1.1" id="Слой_1" xmlns="http://www.w3.org/2000/svg" xmlns:xlink="http://www.w3.org/1999/xlink" x="0px" y="0px"
	 viewBox="0 0 1288.4 469.5" style="enable-background:new 0 0 1288.4 469.5;" xml:space="preserve">
<style type="text/css">
	.st0{fill:#CF402C;}
	.st1{clip-path:url(#SVGID_2_);fill:#CF402C;}
	.st2{clip-path:url(#SVGID_2_);fill-rule:evenodd;clip-rule:evenodd;fill:#1A4782;}
	.st3{clip-path:url(#SVGID_2_);fill:#D0D1D4;}
</style>
<polygon class="st0" points="914.1,1.9 888.9,1.9 888.9,156.1 1007.2,156.1 1023.2,130.9 914.1,130.9 "/>
<g>
	<defs>
		<rect id="SVGID_1_" width="1288.4" height="469.5"/>
	</defs>
	<clipPath id="SVGID_2_">
		<use xlink:href="#SVGID_1_"  style="overflow:visible;"/>
	</clipPath>
	<path class="st1" d="M568.7,9.5l-92.4,146.6h30.5l27.9-44.3h59.5l15.6-25.2h-59.5l32.4-50.8l76,120.2h30.5L596.2,9.1
		C590.5-0.4,575.2-0.4,568.7,9.5"/>
	<path class="st1" d="M747.7,27h105.9l15.6-25.2L746.9,1.9c-42.6,0-70.6,34.5-70.6,77.1s28,77,70.6,77l103.5-0.1l16.2-25H747.7
		c-28.7,0-45.5-23.3-45.5-52C702.3,50.3,719,27,747.7,27"/>
	<path class="st1" d="M207.2,1.9H98.1C55.5,1.9,27.5,36.4,27.5,79s28,77,70.6,77h109.2c42.6,0,70.6-34.5,70.6-77
		S249.8,1.9,207.2,1.9 M207.2,130.9H98.1c-28.7,0-45.5-23.3-45.5-52s16.8-52,45.5-52h109.2c28.7,0,45.5,23.3,45.5,52
		S235.9,130.9,207.2,130.9"/>
	<path class="st1" d="M1095.2,27h105.9l15.6-25.2l-122.3,0.1c-42.6,0-70.6,34.5-70.6,77.1s28,77,70.6,77l103.5-0.1l16.2-25h-118.9
		c-24.5,0-40.2-16.9-44.3-39.7h133.4l16-25.2H1051C1055.3,43.7,1071.1,27,1095.2,27"/>
	<path class="st1" d="M421.3,93.4c25.3,0,45.7-20.5,45.7-45.7S446.6,1.9,421.3,1.9L292.9,1.9v154.2h28.2V27h100.2
		c11.4,0,20.6,9.2,20.6,20.6s-9.2,20.6-20.6,20.6H341l90.6,87.6h36.5l-64.9-62.4L421.3,93.4z"/>
	<path class="st1" d="M1243.8,0c-7.6,0-14,5.8-14,13.7c0,8,6.4,13.8,14,13.8c7.5,0,13.9-5.8,13.9-13.8C1257.7,5.8,1251.3,0,1243.8,0
		 M1243.8,25.2c-6.3,0-11.2-4.9-11.2-11.5c0-6.5,4.9-11.4,11.2-11.4c6.2,0,11.1,4.9,11.1,11.4C1254.9,20.3,1250,25.2,1243.8,25.2"/>
	<path class="st1" d="M1246,14.7c2.3-0.3,4.1-1.5,4.1-4.4c0-3.1-1.9-4.5-5.6-4.5h-6v15.9h2.4v-6.9h2.8l4.2,6.9h2.7L1246,14.7z
		 M1240.9,12.8V7.9h3.3c1.7,0,3.5,0.4,3.5,2.3c0,2.4-1.8,2.6-3.9,2.6H1240.9z"/>
	<path class="st2" d="M305.1,295.8h70.5v130.5h-70.5V295.8z M30.3,460.4c33.5,5.6,70.5,9.1,106,9.1c76,0,143.7-16,143.7-57.9
		c0-24.4-23.7-41.8-110.9-51.6c-39.8-4.2-49.6-10.5-49.6-16.8c0-11.2,16-18.8,58.6-18.8c18.2,0,49.5,2.8,71.9,7l25.1-31.4
		c-34.9-7-70.5-11.2-108.8-11.2c-64.9,0-138.8,16.8-138.8,53.7c0,33.5,40.5,44,80.9,49.6c39.8,6.3,80.2,7.7,80.2,23
		c0,16-29.3,18.8-57.2,18.8c-24.4,0-58.6-4.2-78.8-7L30.3,460.4z M402.1,426.3h179.3v-27.2h-111v-25.1h52.3l16.7-25.8h-69.1V323
		h112.3l0.7-27.2H402.1V426.3z M830.4,426.3h177.2v-27.2H897.4v-25.1h52.3l16.8-25.8h-68.4v-25.8h108.8v-26.5H830.4V426.3z
		 M608.6,426.3h115.8c51.6,0,85.1-11.2,85.1-35.6c0-15.4-15.3-25.8-44.6-30V360c26.5-4.2,41.8-16.1,41.8-29.3
		c0-26.5-41.1-34.9-91.4-34.9H608.6V426.3z M672.8,372.5h35.6c19.6,0,33.5,5.6,33.5,14.6c0,10.5-11.8,14-32.1,14h-37V372.5z
		 M673.5,320.9h32.1c18.8,0,35.6,2.1,35.6,14c0,7.7-11.2,13.2-32.8,13.2h-34.9V320.9z M1032,426.3h182.1v-28.6h-114.4V295.8H1032
		V426.3z"/>
	<path class="st2" d="M1225.9,409.5c0-8.4,5.6-14,14-14c7.7,0,14,5.6,14,14c0,8.4-6.3,14.6-14,14.6
		C1231.5,424.2,1225.9,417.9,1225.9,409.5 M1239.9,426.9c9.1,0,17.4-7.7,17.4-17.4c0-9.8-8.4-17.4-17.4-17.4
		c-9.8,0-17.4,7.7-17.4,17.4C1222.5,419.3,1230.1,426.9,1239.9,426.9 M1236.4,410.9h2.8l5.6,8.4h3.5l-5.6-8.4
		c2.8-0.7,4.9-2.1,4.9-5.6c0-4.2-2.1-5.6-7-5.6h-7.7v19.6h3.5V410.9z M1236.4,408.1v-5.6h3.5c2.1,0,4.9,0,4.9,2.8s-2.8,2.8-4.9,2.8
		H1236.4z"/>
	<rect x="0" y="214.8" class="st3" width="1288.4" height="9"/>
</g>
</svg>
