<?xml version="1.0" encoding="utf-8"?>
<!-- Generator: Adobe Illustrator 21.0.0, SVG Export Plug-In . SVG Version: 6.00 Build 0)  -->
<svg version="1.1" id="Слой_1" xmlns="http://www.w3.org/2000/svg" xmlns:xlink="http://www.w3.org/1999/xlink" x="0px" y="0px"
	 viewBox="0 0 66.6 67.3" style="enable-background:new 0 0 66.6 67.3;" xml:space="preserve">
<style type="text/css">
	.st0{clip-path:url(#SVGID_2_);fill:#0072C6;}
</style>
<g>
	<defs>
		<rect id="SVGID_1_" y="0" width="66.6" height="67.3"/>
	</defs>
	<clipPath id="SVGID_2_">
		<use xlink:href="#SVGID_1_"  style="overflow:visible;"/>
	</clipPath>
	<path class="st0" d="M41.7,14.3v13.2l4.6,2.9c0.1,0,0.4,0,0.5,0L66.6,17c0-1.6-1.5-2.7-2.3-2.7H41.7z"/>
	<path class="st0" d="M41.7,32.4l4.2,2.9c0.6,0.4,1.3,0,1.3,0c-0.7,0.4,19.4-12.9,19.4-12.9v24.2c0,2.6-1.7,3.7-3.6,3.7H41.7
		L41.7,32.4L41.7,32.4z"/>
	<path class="st0" d="M19.9,26.3c-1.4,0-2.6,0.7-3.4,2c-0.8,1.3-1.3,3.1-1.3,5.3c0,2.2,0.4,4,1.3,5.3c0.8,1.3,1.9,2,3.3,2
		c1.4,0,2.5-0.6,3.4-1.9c0.8-1.3,1.2-3,1.2-5.3c0-2.3-0.4-4.2-1.2-5.5C22.4,26.9,21.3,26.3,19.9,26.3"/>
	<path class="st0" d="M0,7.6v51.5l39.2,8.2V0L0,7.6z M26.2,42c-1.7,2.2-3.8,3.3-6.5,3.3c-2.6,0-4.7-1.1-6.3-3.2
		c-1.6-2.1-2.5-4.9-2.5-8.3c0-3.6,0.8-6.5,2.5-8.7c1.7-2.2,3.9-3.3,6.6-3.3c2.6,0,4.7,1.1,6.3,3.2c1.6,2.1,2.4,4.9,2.4,8.4
		C28.7,37,27.9,39.9,26.2,42"/>
</g>
</svg>
