<?xml version="1.0" encoding="utf-8"?>
<!-- Generator: Adobe Illustrator 21.0.0, SVG Export Plug-In . SVG Version: 6.00 Build 0)  -->
<svg version="1.1" id="Layer_1" xmlns="http://www.w3.org/2000/svg" xmlns:xlink="http://www.w3.org/1999/xlink" x="0px" y="0px"
	 viewBox="0 0 24.8 20.1" style="enable-background:new 0 0 24.8 20.1;" xml:space="preserve">
<style type="text/css">
	.st0{fill:#37A148;}
	.st1{fill:none;stroke:#37A148;stroke-linecap:round;stroke-linejoin:round;stroke-miterlimit:10;}
</style>
<path class="st0" d="M13.9,13.3c-1.4,0-2.5-1.1-2.5-2.5c0-0.4,0.1-0.8,0.3-1.2l-0.6-0.6c-0.3,0.5-0.5,1.1-0.5,1.8
	c0,1.8,1.5,3.3,3.3,3.3v1.2l1.6-1.6L13.9,12 M13.9,7.5V6.3l-1.6,1.6l1.6,1.6V8.3c1.4,0,2.5,1.1,2.5,2.5c0,0.4-0.1,0.8-0.3,1.2
	l0.6,0.6c0.3-0.5,0.5-1.1,0.5-1.8C17.2,9,15.7,7.5,13.9,7.5z"/>
<path class="st0" d="M13.9,5.8L13.9,5.8c-0.6,0-1.1-0.5-1.1-1.1V1.1c0-0.6,0.5-1.1,1.1-1.1h0C14.5,0,15,0.5,15,1.1v3.7
	C15,5.3,14.5,5.8,13.9,5.8z"/>
<path class="st0" d="M18.9,5.8L18.9,5.8c-0.6,0-1.1-0.5-1.1-1.1V1.1c0-0.6,0.5-1.1,1.1-1.1h0C19.5,0,20,0.5,20,1.1v3.7
	C20,5.3,19.5,5.8,18.9,5.8z"/>
<path class="st0" d="M8.9,5.8L8.9,5.8c-0.6,0-1.1-0.5-1.1-1.1V1.1C7.9,0.5,8.3,0,8.9,0h0C9.5,0,10,0.5,10,1.1v3.7
	C10,5.3,9.5,5.8,8.9,5.8z"/>
<path class="st1" d="M22,16.6H6c-1.3,0-2.3-1-2.3-2.3V5.5c0-1.3,1-2.3,2.3-2.3h16c1.3,0,2.3,1,2.3,2.3v8.8
	C24.3,15.6,23.3,16.6,22,16.6z"/>
<path class="st1" d="M12.6,19.6H2.8c-1.3,0-2.3-1-2.3-2.3V9.7"/>
</svg>
