<?xml version="1.0" encoding="utf-8"?>
<!-- Generator: Adobe Illustrator 21.0.0, SVG Export Plug-In . SVG Version: 6.00 Build 0)  -->
<svg version="1.1" id="Layer_1" xmlns="http://www.w3.org/2000/svg" xmlns:xlink="http://www.w3.org/1999/xlink" x="0px" y="0px"
	 viewBox="0 0 23.6 20.1" style="enable-background:new 0 0 23.6 20.1;" xml:space="preserve">
<style type="text/css">
	.st0{fill:#37A148;}
	.st1{fill:none;stroke:#37A148;stroke-linecap:round;stroke-linejoin:round;stroke-miterlimit:10;}
</style>
<g>
	<g>
		<g>
			<circle class="st0" cx="5.8" cy="9.7" r="1.2"/>
			<circle class="st0" cx="11.9" cy="9.7" r="1.2"/>
			<circle class="st0" cx="17.7" cy="9.7" r="1.2"/>
		</g>
	</g>
</g>
<g>
	<g>
		<g>
			<circle class="st0" cx="5.7" cy="14.6" r="1.2"/>
			<circle class="st0" cx="17.7" cy="14.6" r="1.2"/>
			<circle class="st0" cx="12" cy="14.6" r="1.2"/>
		</g>
	</g>
</g>
<path class="st1" d="M20.8,19.6h-18c-1.3,0-2.3-1-2.3-2.3V5.5c0-1.3,1-2.3,2.3-2.3h18c1.3,0,2.3,1,2.3,2.3v11.8
	C23.1,18.6,22.1,19.6,20.8,19.6z"/>
<path class="st0" d="M11.8,5.8L11.8,5.8c-0.6,0-1.1-0.5-1.1-1.1V1.1c0-0.6,0.5-1.1,1.1-1.1h0c0.6,0,1.1,0.5,1.1,1.1v3.7
	C12.8,5.3,12.3,5.8,11.8,5.8z"/>
<path class="st0" d="M17.7,5.8L17.7,5.8c-0.6,0-1.1-0.5-1.1-1.1V1.1c0-0.6,0.5-1.1,1.1-1.1h0c0.6,0,1.1,0.5,1.1,1.1v3.7
	C18.8,5.3,18.3,5.8,17.7,5.8z"/>
<path class="st0" d="M5.8,5.8L5.8,5.8c-0.6,0-1.1-0.5-1.1-1.1V1.1C4.7,0.5,5.2,0,5.8,0h0c0.6,0,1.1,0.5,1.1,1.1v3.7
	C6.8,5.3,6.3,5.8,5.8,5.8z"/>
</svg>
