<?xml version="1.0" encoding="utf-8"?>
<!-- Generator: Adobe Illustrator 21.0.0, SVG Export Plug-In . SVG Version: 6.00 Build 0)  -->
<svg version="1.1" id="Слой_1" xmlns="http://www.w3.org/2000/svg" xmlns:xlink="http://www.w3.org/1999/xlink" x="0px" y="0px"
	 viewBox="0 0 27.5 20.1" style="enable-background:new 0 0 27.5 20.1;" xml:space="preserve">
<style type="text/css">
	.st0{clip-path:url(#SVGID_2_);fill:#37A148;}
	.st1{clip-path:url(#SVGID_2_);fill:none;stroke:#37A148;stroke-linecap:round;stroke-linejoin:round;stroke-miterlimit:10;}
</style>
<g>
	<defs>
		<rect id="SVGID_1_" y="0" width="27.5" height="20.1"/>
	</defs>
	<clipPath id="SVGID_2_">
		<use xlink:href="#SVGID_1_"  style="overflow:visible;"/>
	</clipPath>
	<path class="st0" d="M5.8,8.5c0.7,0,1.2,0.5,1.2,1.2s-0.5,1.2-1.2,1.2c-0.7,0-1.2-0.5-1.2-1.2S5.1,8.5,5.8,8.5"/>
	<path class="st0" d="M11.9,8.5c0.7,0,1.2,0.5,1.2,1.2s-0.5,1.2-1.2,1.2c-0.7,0-1.2-0.5-1.2-1.2S11.3,8.5,11.9,8.5"/>
	<path class="st0" d="M5.7,13.4c0.7,0,1.2,0.5,1.2,1.2s-0.5,1.2-1.2,1.2c-0.7,0-1.2-0.5-1.2-1.2S5,13.4,5.7,13.4"/>
	<path class="st0" d="M12,13.4c0.7,0,1.2,0.5,1.2,1.2s-0.5,1.2-1.2,1.2c-0.7,0-1.2-0.5-1.2-1.2S11.3,13.4,12,13.4"/>
	<path class="st1" d="M12.3,19.6H2.8c-1.3,0-2.3-1-2.3-2.3V5.5c0-1.3,1-2.3,2.3-2.3h18c1.3,0,2.3,1,2.3,2.3"/>
	<path class="st0" d="M11.8,5.8L11.8,5.8c-0.6,0-1.1-0.5-1.1-1.1V1.1c0-0.6,0.5-1.1,1.1-1.1c0.6,0,1.1,0.5,1.1,1.1v3.7
		C12.8,5.3,12.3,5.8,11.8,5.8"/>
	<path class="st0" d="M17.7,5.8L17.7,5.8c-0.6,0-1.1-0.5-1.1-1.1V1.1c0-0.6,0.5-1.1,1.1-1.1c0.6,0,1.1,0.5,1.1,1.1v3.7
		C18.8,5.3,18.3,5.8,17.7,5.8"/>
	<path class="st0" d="M5.8,5.8L5.8,5.8c-0.6,0-1.1-0.5-1.1-1.1V1.1C4.7,0.5,5.2,0,5.8,0s1.1,0.5,1.1,1.1v3.7
		C6.8,5.3,6.3,5.8,5.8,5.8"/>
	<path class="st0" d="M25.4,12.8c-0.7-0.3-0.9-0.6-0.9-0.9c0-0.3,0.2-0.6,0.5-0.8c0.5-0.4,0.7-0.9,0.7-1.5c0-1.2-0.8-2.2-2.1-2.2
		c-1.2,0-2,0.9-2.1,1.9c0,0.1,0.1,0.2,0.1,0.2c1,0.6,1.6,1.8,1.6,3.1c0,1-0.4,1.9-1.1,2.5c-0.1,0.1-0.1,0.2,0,0.2
		c0.2,0.1,0.6,0.3,0.9,0.5c0.1,0,0.1,0.1,0.2,0.1h3.2c0.6,0,1.1-0.5,1.1-1.1v-0.2C27.5,13.7,26.5,13.2,25.4,12.8 M21.8,16.4
		c-0.9-0.4-1-0.7-1-1c0-0.3,0.3-0.7,0.6-1c0.5-0.5,0.8-1.1,0.8-1.8c0-1.4-0.9-2.6-2.5-2.6c-1.6,0-2.6,1.2-2.6,2.6
		c0,0.7,0.3,1.4,0.8,1.8c0.3,0.3,0.6,0.6,0.6,1c0,0.3-0.1,0.7-1.1,1c-1.3,0.5-2.6,1.1-2.6,2.3v0.3c0,0.6,0.5,1.1,1.1,1.1h7.4
		c0.6,0,1.1-0.5,1.1-1.1v-0.4C24.3,17.6,23.1,17,21.8,16.4"/>
</g>
</svg>
