<?xml version="1.0" encoding="utf-8"?>
<!-- Generator: Adobe Illustrator 21.0.0, SVG Export Plug-In . SVG Version: 6.00 Build 0)  -->
<svg version="1.1" id="Слой_1" xmlns="http://www.w3.org/2000/svg" xmlns:xlink="http://www.w3.org/1999/xlink" x="0px" y="0px"
	 viewBox="0 0 44.6 20.1" style="enable-background:new 0 0 44.6 20.1;" xml:space="preserve">
<style type="text/css">
	.st0{clip-path:url(#SVGID_2_);fill:#37A148;}
	.st1{clip-path:url(#SVGID_2_);fill:none;stroke:#37A148;stroke-linecap:round;stroke-linejoin:round;stroke-miterlimit:10;}
</style>
<g>
	<defs>
		<rect id="SVGID_1_" y="0" width="44.6" height="20.1"/>
	</defs>
	<clipPath id="SVGID_2_">
		<use xlink:href="#SVGID_1_"  style="overflow:visible;"/>
	</clipPath>
	<path class="st0" d="M5.8,8.5c0.7,0,1.2,0.5,1.2,1.2c0,0.7-0.5,1.2-1.2,1.2s-1.2-0.5-1.2-1.2C4.6,9,5.1,8.5,5.8,8.5"/>
	<path class="st0" d="M11.9,8.5c0.7,0,1.2,0.5,1.2,1.2c0,0.7-0.5,1.2-1.2,1.2c-0.7,0-1.2-0.5-1.2-1.2C10.7,9,11.3,8.5,11.9,8.5"/>
	<path class="st0" d="M5.7,13.4c0.7,0,1.2,0.5,1.2,1.2c0,0.7-0.5,1.2-1.2,1.2c-0.7,0-1.2-0.5-1.2-1.2C4.5,13.9,5,13.4,5.7,13.4"/>
	<path class="st1" d="M14.8,19.6h-12c-1.3,0-2.3-1-2.3-2.3V5.5c0-1.3,1-2.3,2.3-2.3h12c1.3,0,2.3,1,2.3,2.3v11.8
		C17.1,18.6,16.1,19.6,14.8,19.6z"/>
	<path class="st0" d="M11.7,5.8L11.7,5.8c-0.6,0-1.1-0.5-1.1-1.1V1.1c0-0.6,0.5-1.1,1.1-1.1c0.6,0,1.1,0.5,1.1,1.1v3.7
		C12.8,5.3,12.3,5.8,11.7,5.8"/>
	<path class="st0" d="M5.8,5.8L5.8,5.8c-0.6,0-1.1-0.5-1.1-1.1V1.1C4.7,0.5,5.2,0,5.8,0s1.1,0.5,1.1,1.1v3.7
		C6.8,5.3,6.3,5.8,5.8,5.8"/>
	<path class="st0" d="M38.9,8.5c0.7,0,1.2,0.5,1.2,1.2c0,0.7-0.5,1.2-1.2,1.2c-0.7,0-1.2-0.5-1.2-1.2C37.8,9,38.3,8.5,38.9,8.5"/>
	<path class="st0" d="M32.7,13.4c0.7,0,1.2,0.5,1.2,1.2c0,0.7-0.5,1.2-1.2,1.2c-0.7,0-1.2-0.5-1.2-1.2
		C31.5,13.9,32.1,13.4,32.7,13.4"/>
	<path class="st0" d="M39,13.4c0.7,0,1.2,0.5,1.2,1.2c0,0.7-0.5,1.2-1.2,1.2c-0.7,0-1.2-0.5-1.2-1.2C37.8,13.9,38.3,13.4,39,13.4"/>
	<path class="st1" d="M41.9,19.6h-12c-1.3,0-2.3-1-2.3-2.3V5.5c0-1.3,1-2.3,2.3-2.3h12c1.3,0,2.3,1,2.3,2.3v11.8
		C44.1,18.6,43.1,19.6,41.9,19.6z"/>
	<path class="st0" d="M38.8,5.8L38.8,5.8c-0.6,0-1.1-0.5-1.1-1.1V1.1c0-0.6,0.5-1.1,1.1-1.1c0.6,0,1.1,0.5,1.1,1.1v3.7
		C39.8,5.3,39.4,5.8,38.8,5.8"/>
	<path class="st0" d="M32.8,5.8L32.8,5.8c-0.6,0-1.1-0.5-1.1-1.1V1.1c0-0.6,0.5-1.1,1.1-1.1c0.6,0,1.1,0.5,1.1,1.1v3.7
		C33.8,5.3,33.4,5.8,32.8,5.8"/>
	<line class="st1" x1="22.3" y1="7.9" x2="22.3" y2="12.4"/>
	<line class="st1" x1="24.6" y1="10.2" x2="20.1" y2="10.2"/>
</g>
</svg>
