<?xml version="1.0" encoding="utf-8"?>
<!-- Generator: Adobe Illustrator 21.0.0, SVG Export Plug-In . SVG Version: 6.00 Build 0)  -->
<svg version="1.1" id="Слой_1" xmlns="http://www.w3.org/2000/svg" xmlns:xlink="http://www.w3.org/1999/xlink" x="0px" y="0px"
	 viewBox="0 0 25 24.9" style="enable-background:new 0 0 25 24.9;" xml:space="preserve">
<style type="text/css">
	.st0{clip-path:url(#SVGID_2_);fill:#37A148;}
	.st1{clip-path:url(#SVGID_2_);fill:none;stroke:#37A148;stroke-linecap:round;stroke-linejoin:round;stroke-miterlimit:10;}
	.st2{clip-path:url(#SVGID_2_);}
</style>
<g>
	<defs>
		<rect id="SVGID_1_" y="0" width="25" height="24.9"/>
	</defs>
	<clipPath id="SVGID_2_">
		<use xlink:href="#SVGID_1_"  style="overflow:visible;"/>
	</clipPath>
	<path class="st0" d="M5.8,8.5c0.7,0,1.2,0.5,1.2,1.2c0,0.7-0.5,1.2-1.2,1.2s-1.2-0.5-1.2-1.2C4.6,9,5.1,8.5,5.8,8.5"/>
	<path class="st0" d="M11.9,8.5c0.7,0,1.2,0.5,1.2,1.2c0,0.7-0.5,1.2-1.2,1.2c-0.7,0-1.2-0.5-1.2-1.2C10.7,9,11.3,8.5,11.9,8.5"/>
	<path class="st0" d="M5.7,13.4c0.7,0,1.2,0.5,1.2,1.2c0,0.7-0.5,1.2-1.2,1.2c-0.7,0-1.2-0.5-1.2-1.2C4.5,13.9,5,13.4,5.7,13.4"/>
	<path class="st1" d="M6.3,19.6H2.8c-1.3,0-2.3-1-2.3-2.3V5.5c0-1.3,1-2.3,2.3-2.3h12c1.3,0,2.3,1,2.3,2.3v4.1"/>
	<path class="st0" d="M11.7,5.8L11.7,5.8c-0.6,0-1.1-0.5-1.1-1.1V1.1c0-0.6,0.5-1.1,1.1-1.1c0.6,0,1.1,0.5,1.1,1.1v3.7
		C12.8,5.3,12.3,5.8,11.7,5.8"/>
	<path class="st0" d="M5.8,5.8L5.8,5.8c-0.6,0-1.1-0.5-1.1-1.1V1.1C4.7,0.5,5.2,0,5.8,0s1.1,0.5,1.1,1.1v3.7
		C6.8,5.3,6.3,5.8,5.8,5.8"/>
	<path class="st0" d="M12.3,23.7c0,0,0.1,0.1,0.1,0.1c0.2,0.1,0.4,0.3,0.7,0.3l6.8,0.8c0.2,0,0.3,0,0.4-0.2l4.5-4.5
		c0.2-0.2,0.2-0.6,0-0.8c-0.3-0.3-0.4-0.6-0.3-1c0-0.2,0-0.5,0-0.7c0-0.3-0.1-0.6-0.4-0.8l-2.4-2.4l-0.8-0.8
		c-0.5-0.3-1.1-0.4-1.7-0.1l0,0l-3.8,1.7l-3.9-3.2c-0.6-0.5-1.6-0.6-2.2,0c-0.6,0.6-0.6,1.6,0,2.2l5.2,5.9h-1.1
		c-0.5,0-1,0.1-1.5,0.5c-0.6,0.6-0.7,1.5-0.3,2.2C11.6,23,12,23.5,12.3,23.7 M12.6,22.6c-0.3-0.3-0.3-0.8,0-1.1
		c0.2-0.2,0.3-0.2,0.8-0.2h2.3c0.2,0,0.4-0.1,0.5-0.3c0.1-0.2,0.1-0.4-0.1-0.6l-6-6.8c-0.2-0.3-0.2-0.6,0-0.8c0.2-0.2,0.5-0.2,0.8,0
		l4.1,3.4c0.2,0.1,0.4,0.2,0.6,0.1l4-1.8c0.3-0.1,0.6-0.2,0.8,0.1l3,3c0.1,0.1,0.1,0.1,0.1,0.2c0,0.1,0,0.3,0,0.6
		c0,0.4,0,0.9,0.3,1.4l-4,4L13.3,23c0,0-0.2-0.1-0.4-0.2C12.7,22.7,12.6,22.6,12.6,22.6"/>
	<path class="st2" d="M12.1,23.8c0,0-0.1-0.1-0.1-0.1C12,23.8,12,23.8,12.1,23.8"/>
</g>
</svg>
