<?xml version="1.0" encoding="utf-8"?>
<!-- Generator: Adobe Illustrator 21.0.0, SVG Export Plug-In . SVG Version: 6.00 Build 0)  -->
<svg version="1.1" id="Слой_1" xmlns="http://www.w3.org/2000/svg" xmlns:xlink="http://www.w3.org/1999/xlink" x="0px" y="0px"
	 viewBox="0 0 73 72.9" style="enable-background:new 0 0 73 72.9;" xml:space="preserve">
<style type="text/css">
	.st0{clip-path:url(#SVGID_2_);}
</style>
<g fill="#a0d8f1">
	<defs>
		<rect id="SVGID_1_" y="0" width="73" height="72.9"/>
	</defs>
	<clipPath id="SVGID_2_">
		<use xlink:href="#SVGID_1_"  style="overflow:visible;"/>
	</clipPath>
	<path class="st0" d="M71.8,66L53.9,48.1c9-11.7,8.1-28.6-2.7-39.3C45.3,2.9,37.7,0,30,0C22.3,0,14.7,2.9,8.8,8.8
		c-11.7,11.7-11.7,30.7,0,42.4C14.7,57.1,22.3,60,30,60c6.4,0,12.8-2,18.1-6.1l18,17.8c0.8,0.8,1.8,1.2,2.9,1.2c1,0,2.1-0.4,2.9-1.2
		C73.4,70.2,73.4,67.6,71.8,66 M30.1,51.9c-5.9,0-11.3-2.3-15.5-6.4c-8.5-8.5-8.5-22.4,0-31c4.1-4.1,9.6-6.4,15.5-6.4
		s11.3,2.3,15.5,6.4S52,24.1,52,30s-2.3,11.3-6.4,15.5C41.5,49.7,35.9,51.9,30.1,51.9"/>
</g>
</svg>
