<?xml version="1.0" encoding="utf-8"?>
<!-- Generator: Adobe Illustrator 21.0.0, SVG Export Plug-In . SVG Version: 6.00 Build 0)  -->
<svg version="1.1" id="OBJECTS" xmlns="http://www.w3.org/2000/svg" xmlns:xlink="http://www.w3.org/1999/xlink" x="0px" y="0px"
	 viewBox="0 0 367.2 396.3" style="enable-background:new 0 0 367.2 396.3;" xml:space="preserve">
<style type="text/css">
	.st0{fill:#ECF4FF;}
	.st1{fill:#83BCF0;}
	.st2{fill:#6AA9E3;}
	.st3{fill:#4090C7;}
	.st4{fill:#29278A;}
	.st5{fill:#2F36F8;}
	.st6{fill:#FFFFFF;}
	.st7{fill:url(#SVGID_1_);}
	.st8{opacity:0.5;fill:none;stroke:#83BCF0;stroke-width:1.3297;stroke-linecap:round;stroke-linejoin:round;stroke-miterlimit:10;}
	.st9{opacity:0.5;fill:#83BCF0;}
	.st10{fill:#BBD9F9;}
	
		.st11{opacity:0.5;fill:none;stroke:#83BCF0;stroke-width:1.2504;stroke-linecap:round;stroke-linejoin:round;stroke-miterlimit:10;stroke-dasharray:3.2057,3.1527;}
	
		.st12{opacity:0.5;fill:none;stroke:#83BCF0;stroke-width:1.3297;stroke-linecap:round;stroke-linejoin:round;stroke-miterlimit:10;stroke-dasharray:3.4093,3.3529;}
	.st13{fill:#3EA353;}
	.st14{fill:none;stroke:#3EA353;stroke-miterlimit:10;}
</style>
<g>
	<path class="st0" d="M112.3,265.3c9.5-8.4,34.5-14.3,64.7-14.3c30.1,0,55.3,5.9,65,14.3c3.9-2.8,6.4-5.8,6.8-9
		c2-12.8-30.3-23.3-72.1-23.3s-73.8,10.4-71.5,23.3C105.8,259.4,108.3,262.5,112.3,265.3z"/>
	<path class="st0" d="M92.4,229.7c12.2-10,44.8-17.1,84.1-17.1c39.3,0,72.1,7.1,84.5,17.1c5.2-3.3,8.4-7,9.1-10.8
		c2.9-15.4-39.2-27.9-93.9-27.9c-54.7,0-96.5,12.5-93.2,27.9C83.8,222.7,87.1,226.4,92.4,229.7z"/>
	<path class="st0" d="M65.7,187.3c15.8-12.1,58.5-20.5,110.2-20.5s94.6,8.5,110.7,20.5c6.9-4,11.2-8.4,12.2-13
		c4.2-18.5-51-33.5-123.3-33.5s-127.1,15-122.5,33.5C54.3,178.9,58.7,183.3,65.7,187.3z"/>
	<path class="st0" d="M30.4,139.1c20.5-14.5,76.7-24.6,144.9-24.6c68.3,0,124.7,10.2,145.5,24.6c9.2-4.8,15-10,16.5-15.6
		c6.1-22.2-66.6-40.2-162.4-40.2s-168,18-161.4,40.2C15.1,129.1,21.1,134.3,30.4,139.1z"/>
</g>
<g>
	<g>
		<polygon class="st1" points="213.1,28.3 260.5,8.1 245.9,48.4 		"/>
		<polygon class="st2" points="260.5,8.1 226.9,36.8 228.7,52.3 231.8,39.8 		"/>
		<polygon class="st3" points="228.7,52.3 237.9,43.5 231.8,39.8 		"/>
	</g>
	<g>
		<g>
			<g>
				<path class="st4" d="M146.5,108.3l-32.2,11.4c-1.3,0.5-2.7-0.2-3.1-1.5L88.9,55c-0.5-1.3,0.2-2.7,1.5-3.1l32.2-11.4
					c1.3-0.5,2.7,0.2,3.1,1.5l22.3,63.2C148.5,106.4,147.8,107.8,146.5,108.3z"/>
				
					<rect x="98.6" y="50.8" transform="matrix(0.9429 -0.333 0.333 0.9429 -19.6355 43.8699)" class="st1" width="39.1" height="56.9"/>
				
					<ellipse transform="matrix(0.9429 -0.333 0.333 0.9429 -29.1555 49.1843)" class="st5" cx="128.9" cy="109.6" rx="1.9" ry="1.9"/>
				<path class="st5" d="M110.6,48.3l-6.1,2.1c-0.2,0.1-0.5,0-0.6-0.3l0,0c-0.1-0.2,0-0.5,0.3-0.6l6.1-2.1c0.2-0.1,0.5,0,0.6,0.3
					l0,0C111,48,110.9,48.2,110.6,48.3z"/>
			</g>
		</g>
		<polygon class="st6" points="122,87.9 111.9,85.5 112.4,83.4 120.1,85.1 122,66.1 124.2,66.3 		"/>
	</g>
	<g>
		<path class="st1" d="M314.2,78.7l-30.5-10.4c-2-0.7-3-2.8-2.4-4.8l7.9-23.2c0.7-2,2.8-3,4.8-2.4l30.5,10.4c2,0.7,3,2.8,2.4,4.8
			L319,76.4C318.4,78.3,316.2,79.4,314.2,78.7z"/>
		<g>
			<g>
				<path class="st6" d="M320.8,55.5c0.3,0.1,0.5-0.1,0.6-0.3c0.1-0.3-0.1-0.5-0.3-0.6l-4.4-1.5c-0.2-0.1-0.5,0-0.6,0.2l-7.4,14.3
					c-0.1,0.2-0.4,0.3-0.6,0.2l-1.1-0.4c0.2-1.2-0.5-2.3-1.7-2.7c-1.1-0.4-2.4,0.1-3,1.1l-4.5-1.5c0.2-1.3-0.7-2.5-1.9-2.8
					c-1.3-0.3-2.5,0.4-2.9,1.6c-0.4,1.2,0.2,2.6,1.3,3.1c1.2,0.5,2.6,0.1,3.2-1l4.5,1.5c-0.2,1.2,0.5,2.3,1.7,2.7
					c1.1,0.4,2.4-0.1,3-1.1l1.1,0.4c0.7,0.2,1.5-0.1,1.8-0.7l7.2-14L320.8,55.5z M294.8,65.5c-0.8-0.3-1.2-1.1-0.9-1.9
					c0.3-0.8,1.1-1.2,1.9-0.9c0.8,0.3,1.2,1.1,0.9,1.9C296.4,65.3,295.6,65.7,294.8,65.5L294.8,65.5z M304,68.6
					c-0.8-0.3-1.2-1.1-0.9-1.9c0.3-0.8,1.1-1.2,1.9-0.9c0.8,0.3,1.2,1.1,0.9,1.9C305.6,68.4,304.8,68.9,304,68.6L304,68.6z
					 M304,68.6"/>
				<path class="st6" d="M317.4,50.7"/>
			</g>
			<path class="st6" d="M307.6,64.5c0.7,0.2,1.5-0.1,1.8-0.7l4.3-8.2c0.1-0.1,0.1-0.3,0-0.4c-0.1-0.1-0.2-0.2-0.3-0.3l-17.7-6.1
				c-0.1,0-0.3,0-0.4,0c-0.1,0.1-0.2,0.2-0.2,0.3l-1.7,9.1c-0.1,0.7,0.3,1.5,1,1.7L307.6,64.5z M295.4,52.9l3.2,1.1l-0.6,2.5l-3.1-1
				L295.4,52.9z M299.5,54.3l3.5,1.2l-0.8,2.4l-3.3-1.1L299.5,54.3z M310,60.6l-2.8-1l1-2.3l3,1L310,60.6z M306.2,59.3l-3-1l0.8-2.4
				l3.3,1.1L306.2,59.3z M305.8,60.2l-1,2.3l-2.7-0.9l0.8-2.4L305.8,60.2z M304.3,54.9l0.6-1.9l3.6,1.2l-0.8,1.8L304.3,54.9z
				 M303.3,54.6l-3.6-1.2l0.5-2l3.8,1.3L303.3,54.6z M301.9,58.9l-0.8,2.4l-2.9-1l0.6-2.5L301.9,58.9z M307.9,63.6l-2.3-0.8l1-2.3
				l2.8,1l-1,1.9C308.4,63.6,308.2,63.7,307.9,63.6L307.9,63.6z M311.6,57.4l-3-1l0.8-1.8l3.1,1.1L311.6,57.4z M299.2,51.1l-0.5,2
				l-3.2-1.1l0.4-2L299.2,51.1z M294.4,58.5l0.4-2.1l3,1l-0.6,2.5l-2.5-0.8C294.5,59,294.3,58.7,294.4,58.5L294.4,58.5z M294.4,58.5
				"/>
		</g>
	</g>
	<path class="st4" d="M79.3,108.4l-2.8-3.3l-1.9,1.5c-0.4-0.3-0.8-0.5-1.2-0.7l0.2-2.4l-4.3-0.4l-0.2,2.4c-0.5,0.1-0.9,0.2-1.3,0.4
		l-1.5-1.9l-3.3,2.8l1.5,1.9c-0.3,0.4-0.5,0.8-0.7,1.2l-2.4-0.2L61,114l2.4,0.2c0.1,0.5,0.2,0.9,0.4,1.3l-1.9,1.5l2.8,3.3l1.9-1.5
		c0.4,0.3,0.8,0.5,1.2,0.7l-0.2,2.4l4.3,0.4l0.2-2.4c0.5-0.1,0.9-0.2,1.3-0.4l1.5,1.9l3.3-2.8l-1.5-1.9c0.3-0.4,0.5-0.8,0.7-1.2
		l2.4,0.2l0.4-4.3l-2.4-0.2c-0.1-0.5-0.2-0.9-0.4-1.3L79.3,108.4z M73.6,116.3c-2,1.6-4.8,1.3-6.5-0.6c-1.6-2-1.3-4.8,0.6-6.5
		c2-1.6,4.8-1.3,6.5,0.6C75.8,111.8,75.5,114.7,73.6,116.3z"/>
	<path class="st4" d="M203,142l-5-6l-3.3,2.7c-0.7-0.5-1.4-0.9-2.2-1.2l0.4-4.3l-7.8-0.7l-0.4,4.3c-0.8,0.2-1.6,0.4-2.4,0.7
		l-2.7-3.3l-6,5l2.7,3.3c-0.5,0.7-0.9,1.4-1.2,2.2l-4.3-0.4l-0.7,7.8l4.3,0.4c0.2,0.8,0.4,1.6,0.7,2.4l-3.3,2.7l5,6l3.3-2.7
		c0.7,0.5,1.4,0.9,2.2,1.2l-0.4,4.3l7.8,0.7l0.4-4.3c0.8-0.2,1.6-0.4,2.4-0.7l2.7,3.3l6-5l-2.7-3.3c0.5-0.7,0.9-1.4,1.2-2.2l4.3,0.4
		l0.7-7.8l-4.3-0.4c-0.2-0.8-0.4-1.6-0.7-2.4L203,142z M192.6,156.2c-3.5,2.9-8.7,2.4-11.6-1.1c-2.9-3.5-2.4-8.7,1.1-11.6
		c3.5-2.9,8.7-2.4,11.6,1.1C196.6,148.1,196.1,153.3,192.6,156.2z"/>
	<path class="st1" d="M116.2,155.2l1.4-10l-5.6-0.8c-0.2-1.1-0.4-2.1-0.8-3.2l4.5-3.4l-6.1-8.1l-4.5,3.4c-0.9-0.6-1.8-1.2-2.8-1.7
		l0.8-5.6l-10-1.4l-0.8,5.6c-1.1,0.2-2.1,0.4-3.2,0.8l-3.4-4.5l-8.1,6.1l3.4,4.5c-0.6,0.9-1.2,1.8-1.7,2.8l-5.6-0.8l-1.4,10l5.6,0.8
		c0.2,1.1,0.4,2.1,0.8,3.2l-4.5,3.4l6.1,8.1l4.5-3.4c0.9,0.6,1.8,1.2,2.8,1.7l-0.8,5.6l10,1.4l0.8-5.6c1.1-0.2,2.1-0.4,3.2-0.8
		l3.4,4.5l8.1-6.1l-3.4-4.5c0.6-0.9,1.2-1.8,1.7-2.8L116.2,155.2z M93.5,157.7c-5.9-0.8-9.9-6.3-9.1-12.1c0.8-5.9,6.3-9.9,12.1-9.1
		c5.9,0.8,9.9,6.3,9.1,12.1C104.8,154.4,99.4,158.5,93.5,157.7z"/>
	<path class="st1" d="M220.7,114.2l0.5-3.6l-2-0.3c-0.1-0.4-0.2-0.8-0.3-1.1l1.6-1.2l-2.2-2.9l-1.6,1.2c-0.3-0.2-0.6-0.4-1-0.6
		l0.3-2l-3.6-0.5l-0.3,2c-0.4,0.1-0.8,0.2-1.1,0.3l-1.2-1.6l-2.9,2.2l1.2,1.6c-0.2,0.3-0.4,0.6-0.6,1l-2-0.3l-0.5,3.6l2,0.3
		c0.1,0.4,0.2,0.8,0.3,1.1l-1.6,1.2l2.2,2.9l1.6-1.2c0.3,0.2,0.6,0.4,1,0.6l-0.3,2l3.6,0.5l0.3-2c0.4-0.1,0.8-0.2,1.1-0.3l1.2,1.6
		l2.9-2.2l-1.2-1.6c0.2-0.3,0.4-0.6,0.6-1L220.7,114.2z M212.6,115c-2.1-0.3-3.5-2.2-3.2-4.3c0.3-2.1,2.2-3.5,4.3-3.2
		c2.1,0.3,3.5,2.2,3.2,4.3C216.6,113.9,214.7,115.3,212.6,115z"/>
	<path class="st4" d="M288.3,111.6l4.8-6.2l-3.4-2.6c0.3-0.8,0.5-1.6,0.7-2.4l4.3-0.5l-1-7.7l-4.3,0.5c-0.3-0.8-0.8-1.5-1.2-2.2
		l2.6-3.4l-6.2-4.8l-2.6,3.4c-0.8-0.3-1.6-0.5-2.4-0.7l-0.5-4.3l-7.7,1l0.5,4.3c-0.8,0.3-1.5,0.8-2.2,1.2l-3.4-2.6l-4.8,6.2l3.4,2.6
		c-0.3,0.8-0.5,1.6-0.7,2.4l-4.3,0.5l1,7.7l4.3-0.5c0.3,0.8,0.8,1.5,1.2,2.2l-2.6,3.4l6.2,4.8l2.6-3.4c0.8,0.3,1.6,0.5,2.4,0.7
		l0.5,4.3l7.7-1l-0.5-4.3c0.8-0.3,1.5-0.8,2.2-1.2L288.3,111.6z M272.2,104.6c-3.6-2.8-4.3-7.9-1.5-11.5c2.8-3.6,7.9-4.3,11.5-1.5
		c3.6,2.8,4.3,7.9,1.5,11.5C280.9,106.7,275.8,107.4,272.2,104.6z"/>
	<g>
		<path class="st4" d="M62.4,54.6l5,1.7c1.7,0.6,3.6-0.3,4.2-2l5.1-15c0.6-1.7-0.3-3.6-2-4.2L42,24c-1.7-0.6-3.6,0.3-4.2,2l-5.1,15
			c-0.6,1.7,0.3,3.6,2,4.2l19.8,6.7l3.9,9.7L62.4,54.6z"/>
		<g>
			
				<rect x="44.3" y="35.4" transform="matrix(0.947 0.3212 -0.3212 0.947 14.5945 -16.0664)" class="st6" width="23.3" height="1.6"/>
			<rect x="43" y="39.5" transform="matrix(0.947 0.3212 -0.3212 0.947 15.823 -15.4104)" class="st6" width="23.3" height="1.6"/>
			
				<rect x="41.6" y="43.5" transform="matrix(0.947 0.3212 -0.3212 0.947 17.0514 -14.7545)" class="st6" width="23.3" height="1.6"/>
		</g>
	</g>
	<g>
		<ellipse transform="matrix(0.5457 -0.838 0.838 0.5457 41.6491 149.4915)" class="st1" cx="158.7" cy="36.3" rx="9.1" ry="9.1"/>
		<ellipse transform="matrix(0.5457 -0.838 0.838 0.5457 41.649 149.4913)" class="st2" cx="158.7" cy="36.3" rx="7.3" ry="7.3"/>
		<g>
			<path class="st6" d="M161.4,33c0.7,0.6,0.7,1.5,0.2,2.4l-0.1,0.1l-1.1-0.6l0.1-0.2c0.3-0.5,0.3-0.8-0.1-1.1
				c-0.3-0.2-0.7-0.2-0.9,0.2l-0.1,0.1c-0.3,0.4-0.3,0.9,0,2c0.4,1.5,0.3,2.3-0.2,3.1l-0.1,0.2c-0.6,0.9-1.4,1.1-2.3,0.8l-0.5,0.7
				l-0.9-0.6l0.5-0.7c-0.6-0.7-0.8-1.5-0.2-2.4l0.3-0.4l1.1,0.6l-0.3,0.4c-0.3,0.5-0.3,0.9,0.2,1.1c0.3,0.2,0.7,0.2,1-0.2l0.1-0.2
				c0.3-0.4,0.3-0.9,0-2c-0.4-1.5-0.3-2.3,0.2-3.1l0.1-0.2c0.6-0.9,1.4-1.1,2.2-0.8l0.4-0.6l0.9,0.6L161.4,33z"/>
		</g>
	</g>
	<g>
		<ellipse transform="matrix(0.952 -0.306 0.306 0.952 -34.5924 78.8731)" class="st1" cx="234.3" cy="149.8" rx="9.1" ry="9.1"/>
		<ellipse transform="matrix(0.952 -0.306 0.306 0.952 -34.5927 78.8744)" class="st2" cx="234.3" cy="149.8" rx="7.3" ry="7.3"/>
		<g>
			<path class="st6" d="M233.5,145.6c0.9-0.1,1.6,0.4,1.9,1.4l0.1,0.2l-1.1,0.5l-0.1-0.2c-0.2-0.6-0.5-0.8-0.9-0.6
				c-0.4,0.1-0.6,0.4-0.4,0.9l0,0.2c0.1,0.4,0.5,0.7,1.5,1.2c1.4,0.7,2,1.2,2.3,2.1l0.1,0.2c0.3,1,0,1.8-0.8,2.2l0.3,0.8l-1,0.3
				l-0.3-0.8c-0.9,0.1-1.7-0.4-2-1.4l-0.1-0.5l1.1-0.5l0.2,0.5c0.2,0.6,0.5,0.8,1,0.6c0.4-0.1,0.6-0.4,0.4-0.9l-0.1-0.2
				c-0.1-0.4-0.5-0.7-1.5-1.2c-1.4-0.7-2-1.2-2.3-2.1l-0.1-0.2c-0.3-1,0-1.8,0.8-2.2l-0.2-0.7l1-0.3L233.5,145.6z"/>
		</g>
	</g>
	<g>
		<ellipse transform="matrix(0.952 -0.306 0.306 0.952 -14.5915 67.0433)" class="st1" cx="206.6" cy="80.1" rx="9.1" ry="9.1"/>
		<ellipse transform="matrix(0.952 -0.306 0.306 0.952 -14.5915 67.0443)" class="st2" cx="206.6" cy="80.1" rx="7.3" ry="7.3"/>
		<g>
			<path class="st6" d="M205.7,75.9c0.9-0.1,1.6,0.4,1.9,1.4l0.1,0.2l-1.1,0.5l-0.1-0.2c-0.2-0.6-0.5-0.8-0.9-0.6
				c-0.4,0.1-0.6,0.4-0.4,0.9l0,0.2c0.1,0.4,0.5,0.7,1.5,1.2c1.4,0.7,2,1.2,2.3,2.1l0.1,0.2c0.3,1,0,1.8-0.8,2.2l0.3,0.8l-1,0.3
				l-0.3-0.8c-0.9,0.1-1.7-0.4-2-1.4l-0.1-0.5l1.1-0.5l0.2,0.5c0.2,0.6,0.5,0.8,1,0.6c0.4-0.1,0.6-0.4,0.4-0.9l-0.1-0.2
				c-0.1-0.4-0.5-0.7-1.5-1.2c-1.4-0.7-2-1.2-2.3-2.1l-0.1-0.2c-0.3-1,0-1.8,0.8-2.2l-0.2-0.7l1-0.3L205.7,75.9z"/>
		</g>
	</g>
</g>
<linearGradient id="SVGID_1_" gradientUnits="userSpaceOnUse" x1="175.3761" y1="329.5383" x2="175.3761" y2="230.1512">
	<stop  offset="0" style="stop-color:#1771FF"/>
	<stop  offset="3.037510e-02" style="stop-color:#2B7FFC"/>
	<stop  offset="8.816794e-02" style="stop-color:#4B95F8"/>
	<stop  offset="0.1483" style="stop-color:#63A6F4"/>
	<stop  offset="0.2109" style="stop-color:#75B2F2"/>
	<stop  offset="0.2778" style="stop-color:#80BAF0"/>
	<stop  offset="0.3559" style="stop-color:#83BCF0"/>
	<stop  offset="0.3673" style="stop-color:#85BDF0;stop-opacity:0.9823"/>
	<stop  offset="0.5024" style="stop-color:#9DC9F4;stop-opacity:0.7726"/>
	<stop  offset="0.6462" style="stop-color:#AED2F7;stop-opacity:0.5493"/>
	<stop  offset="0.8035" style="stop-color:#B8D7F8;stop-opacity:0.305"/>
	<stop  offset="1" style="stop-color:#BBD9F9;stop-opacity:0"/>
</linearGradient>
<polygon class="st7" points="188.1,311.8 188.1,230.2 162.7,230.2 162.7,311.8 153.3,311.8 175.4,329.5 197.4,311.8 "/>
<g>
	<circle class="st8" cx="38.3" cy="94.9" r="2.8"/>
	<circle class="st8" cx="361.9" cy="45.4" r="2.8"/>
	<circle class="st8" cx="63.3" cy="265.3" r="2.8"/>
	<circle class="st8" cx="313.8" cy="191" r="2.8"/>
	<path class="st9" d="M28.5,77.8v-0.2c-4.4,0-8-3.6-8-8h-0.2c0,4.4-3.6,8-8,8v0.2c4.4,0,8,3.6,8,8h0.2
		C20.5,81.4,24.1,77.8,28.5,77.8z"/>
	<path class="st9" d="M180.8,92.2V92c-4.4,0-8-3.6-8-8h-0.2c0,4.4-3.6,8-8,8v0.2c4.4,0,8,3.6,8,8h0.2
		C172.8,95.8,176.4,92.2,180.8,92.2z"/>
	<path class="st9" d="M366.1,23.8v-0.2c-4.4,0-8-3.6-8-8H358c0,4.4-3.6,8-8,8v0.2c4.4,0,8,3.6,8,8h0.2
		C358.1,27.4,361.7,23.8,366.1,23.8z"/>
	<path class="st9" d="M50.2,245.7v-0.2c-4.4,0-8-3.6-8-8H42c0,4.4-3.6,8-8,8v0.2c4.4,0,8,3.6,8,8h0.2
		C42.2,249.3,45.8,245.7,50.2,245.7z"/>
	<path class="st9" d="M367.2,178.7v-0.2c-4.4,0-8-3.6-8-8H359c0,4.4-3.6,8-8,8v0.2c4.4,0,8,3.6,8,8h0.2
		C359.2,182.3,362.8,178.7,367.2,178.7z"/>
	<path class="st9" d="M139.5,8.2V8c-4.4,0-8-3.6-8-8h-0.2c0,4.4-3.6,8-8,8v0.2c4.4,0,8,3.6,8,8h0.2C131.5,11.7,135.1,8.2,139.5,8.2z
		"/>
</g>
<g>
	<g>
		<polygon class="st10" points="106.4,259.2 106.4,259.2 106.4,259.2 		"/>
		<path class="st10" d="M177.4,279.5c-34.6,0-64.6-8.8-71-20.3l10.6,20.3c5.1,10.3,30.8,18.3,60.5,18.3c30.3,0,56.2-8.3,60.4-18.9
			l9.6-19.2C241,270.9,211.5,279.5,177.4,279.5z"/>
	</g>
	<g>
		<polygon class="st10" points="84.6,222.4 84.6,222.4 84.6,222.4 		"/>
		<path class="st10" d="M177,246.8c-44.8,0-83.9-10.6-92.4-24.4l14.3,24.4c6.8,12.4,40.1,22,78.4,22c39,0,72.7-10,78.2-22.7l13-23.1
			C259.6,236.5,221.2,246.8,177,246.8z"/>
	</g>
	<g>
		<polygon class="st10" points="55.4,178.6 55.4,178.6 55.4,178.6 		"/>
		<path class="st10" d="M176.6,207.8c-58.5,0-109.7-12.7-121.2-29.2l19.2,29.2c9.2,14.9,52.6,26.4,102.3,26.4
			c50.7,0,94.6-12,102.2-27.2l17.6-27.7C284.6,195.4,234.3,207.8,176.6,207.8z"/>
	</g>
	<g>
		<polygon class="st10" points="16.5,128.7 16.5,128.7 16.5,128.7 		"/>
		<path class="st10" d="M176.1,163.7c-76.6,0-144.1-15.3-159.6-35.1l26,35.1c12.3,17.8,69.2,31.7,133.9,31.7
			c66,0,123.5-14.4,133.8-32.7l23.9-33.2C317.9,148.9,251.7,163.7,176.1,163.7z"/>
	</g>
</g>
<g>
	<path class="st11" d="M141.1,66c-6.3-5.6-6.7-15.8-3.2-23.5c7.1-15.8,26.9-22.7,43.9-19.5s31.4,14.2,43.8,26.3
		c3.2,3.1,6.4,6.4,10.6,8c11.8,4.6,23.6-5.6,32.7-14.4c14.8-14.3,34.7-27.9,54.6-22.6c15.4,4.2,26.3,19.9,26.4,35.8
		c0.1,15.9-9.5,31.1-23.1,39.4c-13.6,8.3-30.6,10-46.2,6.4"/>
	<path class="st12" d="M5.9,229.9c-11.1,16.6-3.6,41.1,12.8,52.6c16.4,11.5,38.6,11.6,57.6,5.3c38.7-12.9,70.3-44.6,99.8-71.4
		c33.1-30,70.7-59.3,113.2-59.9c10.3-0.2,21,1.6,29.8,7.7c11.8,8.2,21.8,30.8,6.4,41.4"/>
	<path class="st12" d="M124.7,196c-34.2,3.7-69.3-3.3-98.2-22.2c-7-4.6-13.7-9.9-18.1-16.9c-4.5-7-6.5-16-3.7-23.9
		c3.9-10.7,15.8-16.7,27.2-17.2c11.4-0.4,22.4,3.6,33,7.6c17.3,6.5,34.6,12.9,51.8,19.4c8.5,3.2,17.1,6.4,26.2,6.9
		c9,0.5,18.7-2,24.8-8.7c6.1-6.7,7.1-18.1,0.9-24.7"/>
</g>
<g>
	<g>
		
			<ellipse transform="matrix(0.9997 -2.465545e-02 2.465545e-02 0.9997 -9.1461 4.3082)" class="st13" cx="170.1" cy="373.1" rx="23.2" ry="23.2"/>
		<g>
			<path class="st6" d="M171.1,362.2c2.3,0.4,3.7,2.1,3.8,4.8l0,0.4l-3.1,0.4l0-0.5c0-1.5-0.6-2.2-1.8-2.2c-1,0-1.7,0.6-1.6,1.9
				l0,0.4c0,1.2,0.7,2.2,2.9,4.1c3,2.6,4,4.3,4.1,6.7l0,0.5c0.1,2.7-1.4,4.4-3.7,4.9l0.1,2.3l-2.6,0.1l-0.1-2.3
				c-2.3-0.4-3.8-2.1-3.9-4.8l0-1.2l3.1-0.4l0,1.3c0,1.5,0.7,2.2,2,2.2c1,0,1.8-0.6,1.7-1.9l0-0.5c0-1.2-0.7-2.2-2.9-4.1
				c-3-2.6-4-4.3-4.1-6.7l0-0.5c-0.1-2.7,1.2-4.4,3.5-4.9l0-1.9l2.6-0.1L171.1,362.2z"/>
		</g>
	</g>
</g>
<ellipse transform="matrix(0.9997 -2.465532e-02 2.465532e-02 0.9997 -8.7488 5.1705)" class="st13" cx="205.3" cy="357.4" rx="11.1" ry="11.1"/>
<g>
	<path class="st6" d="M205.8,352.2c1.1,0.2,1.8,1,1.8,2.3l0,0.2l-1.5,0.2l0-0.2c0-0.7-0.3-1.1-0.9-1c-0.5,0-0.8,0.3-0.8,0.9l0,0.2
		c0,0.6,0.3,1,1.4,1.9c1.4,1.3,1.9,2.1,2,3.2l0,0.3c0,1.3-0.7,2.1-1.8,2.3l0,1.1l-1.2,0l0-1.1c-1.1-0.2-1.8-1-1.8-2.3l0-0.6l1.5-0.2
		l0,0.6c0,0.7,0.3,1.1,0.9,1c0.5,0,0.8-0.3,0.8-0.9l0-0.2c0-0.6-0.3-1-1.4-1.9c-1.4-1.3-1.9-2.1-2-3.2l0-0.2c0-1.3,0.6-2.1,1.7-2.3
		l0-0.9l1.2,0L205.8,352.2z"/>
</g>
<circle class="st14" cx="136.3" cy="359.5" r="2"/>
<path class="st13" d="M149.9,350.4h0.1c0-3.1,2.5-5.6,5.6-5.6v-0.1c-3.1,0-5.6-2.5-5.6-5.6h-0.1c0,3.1-2.5,5.6-5.6,5.6v0.1
	C147.4,344.9,149.9,347.4,149.9,350.4z"/>
</svg>
