<?xml version="1.0" encoding="utf-8"?>
<!-- Generator: Adobe Illustrator 21.0.0, SVG Export Plug-In . SVG Version: 6.00 Build 0)  -->
<svg version="1.1" id="Capa_1" xmlns="http://www.w3.org/2000/svg" xmlns:xlink="http://www.w3.org/1999/xlink" x="0px" y="0px"
	 viewBox="793 257 900 1000" style="enable-background:new 793 257 900 1000;" xml:space="preserve">
<style type="text/css">
	.st0{fill:#37A148;}
</style>
<g>
	<g>
		<g>
			<path class="st0" d="M1593,357h-50V257h-100v100h-400V257H943v100h-50c-55.2,0-99.5,44.7-99.5,100l-0.5,700
				c0,55.2,44.7,100,100,100h700c55.2,0,100-44.7,100-100V457C1693,401.8,1648.3,357,1593,357z M1593,1157H893V607h700V1157z"/>
		</g>
	</g>
</g>
<g>
	<path class="st0" d="M1039.8,996.2v-36.8l33.6-30.4c56.8-50.8,84.4-80,85.2-110.4c0-21.2-12.8-38-42.8-38
		c-22.4,0-42,11.2-55.6,21.6l-17.2-43.6c19.6-14.8,50-26.8,85.2-26.8c58.8,0,91.2,34.4,91.2,81.6c0,43.6-31.6,78.4-69.2,112l-24,20
		v0.8h98v50H1039.8z"/>
	<path class="st0" d="M1435.4,786.2h-100.8l-5.6,40c5.6-0.8,10.4-0.8,16.8-0.8c24.8,0,50,5.6,68.4,18.8
		c19.6,13.2,31.6,34.8,31.6,65.2c0,48.4-41.6,91.2-111.6,91.2c-31.6,0-58-7.2-72.4-14.8l10.8-45.6c11.6,5.6,35.2,12.8,58.8,12.8
		c25.2,0,52-12,52-39.6c0-26.8-21.2-43.2-73.2-43.2c-14.4,0-24.4,0.8-35.2,2.4l17.2-136.4h143.2V786.2z"/>
</g>
</svg>
