<?xml version="1.0" encoding="utf-8"?>
<!-- Generator: Adobe Illustrator 23.0.1, SVG Export Plug-In . SVG Version: 6.00 Build 0)  -->
<svg version="1.1" id="Layer_1" xmlns="http://www.w3.org/2000/svg" xmlns:xlink="http://www.w3.org/1999/xlink" x="0px" y="0px"
	 viewBox="0 0 162.19 162.19" style="enable-background:new 0 0 162.19 162.19;" xml:space="preserve">
<style type="text/css">
	.st0{fill:#FFFFFF;}
</style>
<path class="st0" d="M81.09,162.19L81.09,162.19c-7.5,0-13.64-6.14-13.64-13.64V13.64C67.45,6.14,73.59,0,81.09,0h0
	c7.5,0,13.64,6.14,13.64,13.64v134.91C94.74,156.05,88.6,162.19,81.09,162.19z"/>
<path class="st0" d="M0,81.09L0,81.09c0-7.5,6.14-13.64,13.64-13.64h134.91c7.5,0,13.64,6.14,13.64,13.64v0
	c0,7.5-6.14,13.64-13.64,13.64H13.64C6.14,94.74,0,88.6,0,81.09z"/>
</svg>
