<?xml version="1.0" encoding="utf-8"?>
<!-- Generator: Adobe Illustrator 23.0.1, SVG Export Plug-In . SVG Version: 6.00 Build 0)  -->
<svg version="1.1" id="Layer_1" xmlns="http://www.w3.org/2000/svg" xmlns:xlink="http://www.w3.org/1999/xlink" x="0px" y="0px"
	 viewBox="0 0 17.66 14.23" style="enable-background:new 0 0 17.66 14.23;" xml:space="preserve">
<style type="text/css">
	.st0{fill:#37A148;}
</style>
<circle class="st0" cx="7.06" cy="2.12" r="2.12"/>
<path class="st0" d="M13.65,5.64H0.48c-0.47,0-0.66,0.59-0.26,0.85L3.65,8.7c0.16,0.12,0.26,0.33,0.19,0.52l-1.29,4.3
	c-0.14,0.47,0.47,0.8,0.82,0.45l3.34-3.53c0.19-0.21,0.52-0.21,0.71,0l3.34,3.53c0.33,0.35,0.94,0.02,0.82-0.45l-1.29-4.3
	c-0.05-0.19,0.02-0.4,0.19-0.52l3.43-2.21C14.3,6.23,14.12,5.64,13.65,5.64z"/>
<g transform="translate(0,-952.36218)">
	<path class="st0" d="M14.83,966.59L12,963.65h2.02v-2.96c0-0.23,0.18-0.41,0.41-0.41h0.97c0.23,0,0.41,0.18,0.41,0.41v2.96h1.84
		L14.83,966.59z"/>
</g>
</svg>
