<?xml version="1.0" encoding="utf-8"?>
<!-- Generator: Adobe Illustrator 23.0.1, SVG Export Plug-In . SVG Version: 6.00 Build 0)  -->
<svg version="1.1" id="Layer_1" xmlns="http://www.w3.org/2000/svg" xmlns:xlink="http://www.w3.org/1999/xlink" x="0px" y="0px"
	 viewBox="0 0 19.09 21.83" style="enable-background:new 0 0 19.09 21.83;" xml:space="preserve">
<style type="text/css">
	.st0{fill:#37A148;stroke:#FFFFFF;stroke-width:0.25;stroke-miterlimit:10;}
</style>
<g>
	<path class="st0" d="M3.99,5.36c1.9-1.9,4.57-2.68,7.15-2.14c0.01,0,0.01,0.01,0.01,0.02l-0.9,1.57c0,0.01,0,0.02,0.01,0.02
		l5.39-0.02c0.01,0,0.01-0.01,0.01-0.02l-2.71-4.66c0-0.01-0.02-0.01-0.02,0L11.97,1.8c0,0-0.01,0.01-0.01,0.01
		C8.71,0.95,5.29,1.86,2.9,4.26c-2.93,2.93-3.61,7.37-1.68,11.03c0.14,0.27,0.41,0.42,0.69,0.42c0.15,0,0.3-0.04,0.44-0.14
		c0.33-0.22,0.42-0.68,0.23-1.03C0.99,11.48,1.55,7.8,3.99,5.36z"/>
	<path class="st0" d="M17.8,6.35c-0.21-0.38-0.68-0.51-1.06-0.3c-0.38,0.21-0.51,0.68-0.3,1.06c1.69,3.05,1.15,6.9-1.32,9.37
		c-1.9,1.9-4.57,2.68-7.15,2.14c-0.01,0-0.01-0.01-0.01-0.02l0.9-1.57c0-0.01,0-0.02-0.01-0.02l-5.39,0.02
		c-0.01,0-0.01,0.01-0.01,0.02l2.71,4.66c0,0.01,0.02,0.01,0.02,0l0.96-1.67c0,0,0.01-0.01,0.01-0.01c0.8,0.21,1.62,0.32,2.42,0.32
		c2.45,0,4.83-0.96,6.64-2.77C19.17,14.62,19.82,10,17.8,6.35z"/>
</g>
</svg>
