<?xml version="1.0" encoding="utf-8"?>
<!-- Generator: Adobe Illustrator 23.0.1, SVG Export Plug-In . SVG Version: 6.00 Build 0)  -->
<svg version="1.1" id="Layer_1" xmlns="http://www.w3.org/2000/svg" xmlns:xlink="http://www.w3.org/1999/xlink" x="0px" y="0px"
	 viewBox="0 0 23.24 18.97" style="enable-background:new 0 0 23.24 18.97;" xml:space="preserve">
<style type="text/css">
	.st0{fill-rule:evenodd;clip-rule:evenodd;fill:#37A148;}
	
		.st1{fill-rule:evenodd;clip-rule:evenodd;fill:none;stroke:#37A148;stroke-linecap:round;stroke-linejoin:round;stroke-miterlimit:10;}
</style>
<g>
	<path class="st0" d="M2.99,12.69c0.11,0.37,0.27,0.74,0.47,1.08c0.6,1.04,1.48,1.7,2.68,1.7c0.87,0,1.52-0.5,2.02-1.38
		c0.34-0.6,0.54-1.17,0.95-2.52c0.71-2.35,1.13-3.11,1.87-3.11c0.75,0,1.2,0.36,2.12,1.56c1.05,1.36,1.62,1.87,2.68,1.98
		c0.92,0.1,1.59-0.45,2.07-1.45c0.33-0.7,0.56-1.56,0.83-2.9c0.05-0.26,0.22-1.13,0.22-1.13c0.22-1.16,0.38-1.76,0.57-2.14
		c0.23-0.46,0.55-0.79,0.94-1.04c0.29-0.18,0.61-0.3,0.92-0.37c0.11-0.02,0.21-0.04,0.3-0.05c0.05,0,0.08-0.01,0.09-0.01h0.56V1.8
		H21.7c-0.14,0-0.35,0.02-0.62,0.07c-0.44,0.09-0.88,0.26-1.29,0.51c-0.56,0.35-1.02,0.84-1.35,1.48c-0.26,0.5-0.42,1.16-0.67,2.43
		c0,0-0.17,0.87-0.22,1.12c-0.49,2.47-0.99,3.53-1.67,3.45c-0.64-0.07-1.05-0.43-1.89-1.52c-0.55-0.72-0.82-1.02-1.2-1.34
		c-0.54-0.45-1.14-0.68-1.83-0.68c-0.86,0-1.51,0.5-2.01,1.38c-0.33,0.6-0.54,1.16-0.94,2.52c-0.71,2.36-1.14,3.12-1.89,3.12
		c-0.74,0-1.29-0.41-1.7-1.13c-0.15-0.27-0.28-0.56-0.37-0.86c-0.03-0.1-0.06-0.2-0.08-0.28c-0.01-0.05-0.02-0.08-0.02-0.09
		l-0.1-0.55l-1.11,0.2l0.1,0.55C2.88,12.29,2.93,12.46,2.99,12.69z"/>
</g>
<polyline class="st1" points="0.5,0.5 0.5,18.47 22.74,18.47 "/>
</svg>
