<?xml version="1.0" encoding="utf-8"?>
<!-- Generator: Adobe Illustrator 23.0.1, SVG Export Plug-In . SVG Version: 6.00 Build 0)  -->
<svg version="1.1" id="Layer_1" xmlns="http://www.w3.org/2000/svg" xmlns:xlink="http://www.w3.org/1999/xlink" x="0px" y="0px"
	 viewBox="0 0 27.52 20.65" style="enable-background:new 0 0 27.52 20.65;" xml:space="preserve">
<style type="text/css">
	.st0{fill:#37A148;}
	.st1{fill:none;stroke:#37A148;stroke-linecap:round;stroke-linejoin:round;stroke-miterlimit:10;}
</style>
<g>
	<g>
		<g>
			<circle class="st0" cx="5.75" cy="9.69" r="1.19"/>
			<circle class="st0" cx="11.91" cy="9.69" r="1.19"/>
		</g>
	</g>
</g>
<g>
	<g>
		<g>
			<circle class="st0" cx="5.7" cy="14.56" r="1.19"/>
			<circle class="st0" cx="11.96" cy="14.56" r="1.19"/>
		</g>
	</g>
</g>
<path class="st1" d="M12.28,19.61h-9.5c-1.26,0-2.28-1.03-2.28-2.28V5.5c0-1.26,1.03-2.28,2.28-2.28h18.05
	c1.26,0,2.28,1.03,2.28,2.28"/>
<path class="st0" d="M11.75,5.77L11.75,5.77c-0.58,0-1.06-0.48-1.06-1.06V1.06c0-0.58,0.48-1.06,1.06-1.06h0
	c0.58,0,1.06,0.48,1.06,1.06v3.66C12.81,5.3,12.33,5.77,11.75,5.77z"/>
<path class="st0" d="M17.75,5.77L17.75,5.77c-0.58,0-1.06-0.48-1.06-1.06V1.06c0-0.58,0.48-1.06,1.06-1.06h0
	c0.58,0,1.06,0.48,1.06,1.06v3.66C18.8,5.3,18.33,5.77,17.75,5.77z"/>
<path class="st0" d="M5.75,5.77L5.75,5.77C5.17,5.77,4.7,5.3,4.7,4.72V1.06C4.7,0.48,5.17,0,5.75,0h0c0.58,0,1.06,0.48,1.06,1.06
	v3.66C6.81,5.3,6.33,5.77,5.75,5.77z"/>
<path class="st0" d="M19.06,9.01c-4.8,2.28-4.8,8.82,0,11.1c1.53,0.73,3.33,0.73,4.86,0c4.8-2.28,4.8-8.82,0-11.1
	C22.39,8.28,20.59,8.28,19.06,9.01z M22.23,11.19c0.09,0.05,0.16,0.12,0.22,0.2c0.51,0.73-0.03,1.53-0.71,1.53
	c-0.51,0-0.93-0.42-0.93-0.94C20.8,11.3,21.53,10.81,22.23,11.19z M23.04,17.28c-0.03,0.08-0.08,0.17-0.13,0.22
	c-0.33,0.34-0.74,0.55-1.22,0.55c-0.23,0-0.45,0-0.67-0.04c-0.37-0.05-0.84-0.51-0.78-0.99c0.05-0.33,0.1-0.66,0.15-0.99
	c0.1-0.57,0.2-1.16,0.31-1.73c0-0.04,0.01-0.08,0.01-0.11c0-0.24-0.08-0.33-0.32-0.36c-0.1-0.01-0.2-0.03-0.31-0.05
	c-0.11-0.04-0.18-0.14-0.17-0.23c0.01-0.1,0.08-0.17,0.2-0.19c0.06-0.01,0.14-0.01,0.22-0.01c0.28,0,0.56,0,0.85,0h1.22
	c0.06,0.28,0.03,0.57-0.03,0.85c-0.11,0.66-0.24,1.31-0.36,1.97c-0.04,0.22-0.09,0.43-0.11,0.65c-0.01,0.1,0,0.22,0.03,0.32
	c0.04,0.14,0.14,0.22,0.28,0.2c0.11-0.01,0.23-0.05,0.34-0.1c0.09-0.04,0.17-0.1,0.25-0.13C22.97,17.05,23.08,17.14,23.04,17.28z"/>
</svg>
