<?xml version="1.0" encoding="utf-8"?>
<!-- Generator: Adobe Illustrator 23.0.1, SVG Export Plug-In . SVG Version: 6.00 Build 0)  -->
<svg version="1.1" id="Layer_1" xmlns="http://www.w3.org/2000/svg" xmlns:xlink="http://www.w3.org/1999/xlink" x="0px" y="0px"
	 viewBox="0 0 16.56 14.52" style="enable-background:new 0 0 16.56 14.52;" xml:space="preserve">
<style type="text/css">
	.st0{fill:#37A148;}
	.st1{fill:none;stroke:#37A148;stroke-linecap:round;stroke-linejoin:round;stroke-miterlimit:10;}
</style>
<path class="st0" d="M8.7,10.92c0.1,0,0.19-0.04,0.27-0.11l3.07-3.07c0.08-0.08,0.11-0.17,0.11-0.27c0-0.2-0.18-0.38-0.38-0.38
	h-1.53V5.56c0-1.97-0.34-4.41-2.41-5.24C7.18,0.06,6.49,0,5.82,0C4.98,0,3.89,0.42,3.13,0.77C2.99,0.83,2.8,0.89,2.67,0.98
	c-0.06,0.04-0.1,0.09-0.1,0.17c0,0.11,0.1,0.19,0.2,0.19c0.1,0,0.2-0.03,0.29-0.03C3.31,1.3,3.55,1.29,3.8,1.29
	c2.86,0,3.35,1.7,3.35,4.28V7.1H5.62c-0.2,0-0.38,0.18-0.38,0.38c0,0.1,0.04,0.19,0.11,0.27l3.07,3.07
	C8.5,10.87,8.59,10.92,8.7,10.92z"/>
<polyline class="st1" points="2.78,8.42 0.5,8.42 0.5,14.02 16.06,14.02 16.06,8.42 14.32,8.42 "/>
</svg>
