<?xml version="1.0" encoding="utf-8"?>
<!-- Generator: Adobe Illustrator 23.0.1, SVG Export Plug-In . SVG Version: 6.00 Build 0)  -->
<svg version="1.1" id="Layer_1" xmlns="http://www.w3.org/2000/svg" xmlns:xlink="http://www.w3.org/1999/xlink" x="0px" y="0px"
	 viewBox="0 0 26.89 22.56" style="enable-background:new 0 0 26.89 22.56;" xml:space="preserve">
<style type="text/css">
	.st0{fill:#37A148;}
	.st1{fill:none;stroke:#37A148;stroke-linecap:round;stroke-linejoin:round;stroke-miterlimit:10;}
</style>
<g id="Expanded_1_">
	<g>
		<g>
			<g>
				<path class="st0" d="M18.29,18.8c-0.11,0-0.22-0.05-0.28-0.15c-0.1-0.16-0.06-0.37,0.09-0.47l3.07-2.04
					c0.16-0.1,0.37-0.06,0.47,0.09c0.1,0.16,0.06,0.37-0.09,0.47l-3.07,2.04C18.42,18.78,18.35,18.8,18.29,18.8z"/>
			</g>
		</g>
	</g>
</g>
<path class="st1" d="M11.19,20.73c-2.24,0-4.14-1.42-4.88-3.4c-0.32,0.07-0.65,0.1-0.99,0.1c-2.66,0-4.82-2.18-4.82-4.87
	c0-1.8,0.97-3.38,2.41-4.22C2.61,7.65,2.45,6.9,2.45,6.11c0-3.1,2.51-5.61,5.61-5.61c1.82,0,3.44,0.87,4.46,2.21"/>
<path class="st1" d="M12.53,2.71c0.93-0.97,2.23-1.57,3.66-1.57c1.91,0,3.57,1.06,4.46,2.64c0.77-0.34,1.62-0.54,2.52-0.54
	c1.15,0,2.23,0.31,3.15,0.86"/>
<g>
	<path class="st0" d="M26.06,7.04l-14.87,7.8c-0.61,0.32-0.59,0.79,0.05,1.04l1.9,0.75c0.64,0.25,1.61,0.12,2.16-0.31l8.24-6.5
		c0.54-0.43,0.6-0.36,0.13,0.14l-6.52,6.98c-0.47,0.5-0.33,1.12,0.31,1.37l0.22,0.09c0.64,0.25,1.69,0.67,2.33,0.93l2.11,0.86
		c0.64,0.26,1.32-0.05,1.5-0.71l3.21-11.79C27.02,7,26.67,6.72,26.06,7.04z"/>
	<path class="st0" d="M17.23,19.1l-1.46-0.6c-0.64-0.26-0.94,0.05-0.68,0.68c0,0,1.35,3.26,1.31,3.37c-0.04,0.11,1.3-1.93,1.3-1.93
		C18.08,20.05,17.87,19.36,17.23,19.1z"/>
</g>
</svg>
