<?xml version="1.0" encoding="utf-8"?>
<!-- Generator: Adobe Illustrator 23.0.1, SVG Export Plug-In . SVG Version: 6.00 Build 0)  -->
<svg version="1.1" id="Layer_1" xmlns="http://www.w3.org/2000/svg" xmlns:xlink="http://www.w3.org/1999/xlink" x="0px" y="0px"
	 viewBox="0 0 22.73 17.16" style="enable-background:new 0 0 22.73 17.16;" xml:space="preserve">
<style type="text/css">
	.st0{fill:#37A148;}
</style>
<g>
	<path class="st0" d="M1.87,16.08c-0.44,0-0.8-0.36-0.8-0.8V1.87c0-0.44,0.36-0.8,0.8-0.8h18.99c0.44,0,0.8,0.36,0.8,0.8v3.87
		c0.38,0,0.74,0,1.07,0V1.87c0-1.03-0.84-1.87-1.87-1.87H1.87C0.84,0,0,0.84,0,1.87v13.41c0,1.03,0.84,1.87,1.87,1.87h7.91
		c0-0.34,0-0.7,0-1.07H1.87z"/>
</g>
<path class="st0" d="M18.5,12.34l2.96,2.96l-1.35,1.35l-2.96-2.96l-2.96,2.96l-1.35-1.35l2.96-2.96l-2.96-2.96l1.35-1.35l2.96,2.96
	l2.96-2.96l1.35,1.35L18.5,12.34z"/>
</svg>
