<?xml version="1.0" encoding="utf-8"?>
<!-- Generator: Adobe Illustrator 23.0.1, SVG Export Plug-In . SVG Version: 6.00 Build 0)  -->
<svg version="1.1" id="Layer_1" xmlns="http://www.w3.org/2000/svg" xmlns:xlink="http://www.w3.org/1999/xlink" x="0px" y="0px"
	 viewBox="0 0 34.77 21.36" style="enable-background:new 0 0 34.77 21.36;" xml:space="preserve">
<style type="text/css">
	.st0{fill:#37A148;}
</style>
<path class="st0" d="M29.37,17.99c-2.24,0-4.05-1.81-4.05-4.05c0-0.67,0.17-1.33,0.47-1.89l-0.99-0.99
	c-0.53,0.83-0.84,1.81-0.84,2.87c0,2.98,2.42,5.4,5.4,5.4v2.02l2.7-2.7l-2.7-2.7 M29.37,8.54V6.52l-2.7,2.7l2.7,2.7V9.89
	c2.24,0,4.05,1.81,4.05,4.05c0,0.67-0.17,1.33-0.47,1.89l0.99,0.99c0.53-0.83,0.84-1.81,0.84-2.87
	C34.77,10.96,32.35,8.54,29.37,8.54z"/>
<g>
	<path d="M25.43,20.29c-0.05-0.03-0.1-0.07-0.14-0.1C25.33,20.22,25.37,20.26,25.43,20.29z"/>
</g>
<g id="Expanded_1_">
	<g>
		<g>
			<g>
				<path class="st0" d="M10.73,13.94c-0.17,0-0.34-0.08-0.45-0.24c-0.16-0.25-0.1-0.58,0.15-0.74l4.82-3.22
					c0.25-0.16,0.58-0.1,0.74,0.15c0.16,0.25,0.1,0.58-0.15,0.74l-4.82,3.22C10.94,13.91,10.84,13.94,10.73,13.94z"/>
			</g>
		</g>
	</g>
</g>
<g id="Expanded_3_">
	<g>
		<g>
			<g>
				<path class="st0" d="M19.92,11.48c0.17,0,0.34-0.08,0.45-0.24c0.16-0.25,0.1-0.58-0.15-0.74l-7.64-6.12
					c-0.25-0.16-0.58-0.1-0.74,0.15c-0.16,0.25-0.1,0.58,0.15,0.74l7.64,6.12C19.71,11.45,19.81,11.48,19.92,11.48z"/>
			</g>
		</g>
	</g>
</g>
<g id="Expanded_2_">
	<g>
		<g>
			<g>
				<path class="st0" d="M19.46,10.84c-0.04,0.17,0.01,0.35,0.14,0.49c0.21,0.21,0.55,0.22,0.76,0.01l7.57-6.21
					c0.21-0.21,0.22-0.55,0.01-0.76c-0.21-0.21-0.55-0.22-0.76-0.01l-7.57,6.21C19.53,10.64,19.48,10.74,19.46,10.84z"/>
			</g>
		</g>
	</g>
</g>
<g>
	<path class="st0" d="M9.66,16.08c-0.59,0-1.07-0.48-1.07-1.07V2.14c0-0.59,0.48-1.07,1.07-1.07h21.44c0.59,0,1.07,0.48,1.07,1.07
		v3.59c0.38,0,0.74,0,1.07,0V2.14c0-1.18-0.96-2.14-2.14-2.14H9.66C8.48,0,7.52,0.96,7.52,2.14v12.87c0,1.18,0.96,2.14,2.14,2.14
		H20.3c0-0.34,0-0.7,0-1.07H9.66z"/>
</g>
<path class="st0" d="M5.21,8.38H0.56C0.25,8.38,0,8.13,0,7.83l0-0.17C0,7.35,0.25,7.1,0.56,7.1h4.65c0.31,0,0.56,0.25,0.56,0.56
	v0.17C5.77,8.13,5.52,8.38,5.21,8.38z"/>
<path class="st0" d="M5.28,11.06H1.85c-0.27,0-0.49-0.22-0.49-0.49v-0.31c0-0.27,0.22-0.49,0.49-0.49h3.43
	c0.27,0,0.49,0.22,0.49,0.49v0.31C5.77,10.85,5.55,11.06,5.28,11.06z"/>
</svg>
