<?xml version="1.0" encoding="utf-8"?>
<!-- Generator: Adobe Illustrator 23.0.1, SVG Export Plug-In . SVG Version: 6.00 Build 0)  -->
<svg version="1.1" id="Layer_1" xmlns="http://www.w3.org/2000/svg" xmlns:xlink="http://www.w3.org/1999/xlink" x="0px" y="0px"
	 viewBox="0 0 30.73 20.11" style="enable-background:new 0 0 30.73 20.11;" xml:space="preserve">
<style type="text/css">
	.st0{fill:#37A148;}
	.st1{fill:none;stroke:#37A148;stroke-linecap:round;stroke-linejoin:round;stroke-miterlimit:10;}
</style>
<path class="st0" d="M12.69,14.45c-1.36,0-2.47-1.1-2.47-2.47c0-0.41,0.1-0.81,0.29-1.15l-0.6-0.6c-0.32,0.51-0.51,1.11-0.51,1.75
	c0,1.82,1.47,3.29,3.29,3.29v1.23l1.64-1.64l-1.64-1.64 M12.69,8.7V7.47l-1.64,1.64l1.64,1.64V9.52c1.36,0,2.47,1.1,2.47,2.47
	c0,0.41-0.1,0.81-0.29,1.15l0.6,0.6c0.32-0.51,0.51-1.11,0.51-1.75C15.98,10.17,14.51,8.7,12.69,8.7z"/>
<path class="st1" d="M12.28,19.61h-9.5c-1.26,0-2.28-1.03-2.28-2.28V5.5c0-1.26,1.03-2.28,2.28-2.28h18.05
	c1.26,0,2.28,1.03,2.28,2.28"/>
<path class="st0" d="M11.75,5.77L11.75,5.77c-0.58,0-1.06-0.48-1.06-1.06V1.06c0-0.58,0.48-1.06,1.06-1.06h0
	c0.58,0,1.06,0.48,1.06,1.06v3.66C12.81,5.3,12.33,5.77,11.75,5.77z"/>
<path class="st0" d="M17.75,5.77L17.75,5.77c-0.58,0-1.06-0.48-1.06-1.06V1.06c0-0.58,0.48-1.06,1.06-1.06h0
	c0.58,0,1.06,0.48,1.06,1.06v3.66C18.8,5.3,18.33,5.77,17.75,5.77z"/>
<path class="st0" d="M5.75,5.77L5.75,5.77C5.17,5.77,4.7,5.3,4.7,4.72V1.06C4.7,0.48,5.17,0,5.75,0h0c0.58,0,1.06,0.48,1.06,1.06
	v3.66C6.81,5.3,6.33,5.77,5.75,5.77z"/>
<g>
	<path class="st0" d="M25.37,12.75c-0.74-0.29-0.85-0.58-0.85-0.88s0.21-0.58,0.48-0.8c0.45-0.37,0.69-0.93,0.69-1.54
		c0-1.17-0.77-2.18-2.13-2.18c-1.25,0-1.99,0.85-2.1,1.89c0,0.11,0.05,0.19,0.13,0.24c1.01,0.64,1.62,1.75,1.62,3.11
		c0,1.01-0.4,1.91-1.12,2.55c-0.05,0.05-0.05,0.16,0,0.21c0.19,0.13,0.61,0.32,0.88,0.45c0.08,0.03,0.13,0.05,0.21,0.05h3.21
		c0.61,0,1.09-0.5,1.09-1.06v-0.16C27.5,13.71,26.49,13.21,25.37,12.75z M21.81,16.45c-0.9-0.37-1.04-0.69-1.04-1.04
		s0.27-0.69,0.56-0.96c0.53-0.45,0.82-1.09,0.82-1.83c0-1.38-0.9-2.58-2.55-2.58c-1.62,0-2.55,1.2-2.55,2.58
		c0,0.74,0.29,1.38,0.82,1.83c0.29,0.27,0.56,0.61,0.56,0.96c0,0.35-0.13,0.69-1.06,1.04c-1.33,0.53-2.63,1.14-2.63,2.26v0.35
		c0,0.58,0.48,1.06,1.09,1.06h7.36c0.61,0,1.12-0.48,1.12-1.06v-0.37C24.31,17.59,23.14,16.98,21.81,16.45z"/>
</g>
<g>
	<path class="st0" d="M28.91,9.75C28.27,9.5,28.18,9.25,28.18,9s0.18-0.5,0.41-0.68C28.98,8,29.18,7.53,29.18,7
		c0-1-0.66-1.86-1.82-1.86c-1.07,0-1.7,0.73-1.8,1.61c0,0.09,0.05,0.16,0.11,0.2c0.86,0.55,1.39,1.5,1.39,2.66
		c0,0.86-0.34,1.64-0.95,2.18c-0.05,0.05-0.05,0.14,0,0.18c0.16,0.11,0.52,0.27,0.75,0.39c0.07,0.02,0.11,0.05,0.18,0.05h2.75
		c0.52,0,0.93-0.43,0.93-0.91v-0.14C30.73,10.57,29.86,10.14,28.91,9.75z"/>
</g>
</svg>
