<?xml version="1.0" encoding="utf-8"?>
<!-- Generator: Adobe Illustrator 23.0.1, SVG Export Plug-In . SVG Version: 6.00 Build 0)  -->
<svg version="1.1" id="Layer_1" xmlns="http://www.w3.org/2000/svg" xmlns:xlink="http://www.w3.org/1999/xlink" x="0px" y="0px"
	 viewBox="0 0 30.46 22.94" style="enable-background:new 0 0 30.46 22.94;" xml:space="preserve">
<style type="text/css">
	.st0{fill:#37A148;stroke:#37A148;stroke-width:0.6;stroke-miterlimit:10;}
</style>
<g>
	<g>
		<path class="st0" d="M16.65,16.94l-3.2-5.41l3.09-5.55c0.01-0.02,0.02-0.05,0.02-0.07c0-0.01,0-0.01,0-0.02c0-0.02,0-0.04,0-0.06
			l0,0l-3.14-5.45c-0.03-0.06-0.09-0.09-0.16-0.08h-6.4c-0.06,0-0.11,0.03-0.14,0.08l-6.4,10.97c-0.03,0.05-0.03,0.11,0,0.16
			l6.39,11.07l0,0c0.01,0.02,0.02,0.03,0.04,0.04h0.02c0.02,0.01,0.05,0.02,0.08,0.02h6.4c0.06,0,0.11-0.03,0.14-0.08L16.65,16.94z
			 M16.18,16.81h-6.01l-3-5.11h6.01L16.18,16.81z M13.17,11.37H7.13l3.01-5.3h5.98L13.17,11.37z M16.12,5.74h-5.98l-3-5.11h6.03
			L16.12,5.74z M6.86,0.79L9.87,5.9l-3.16,5.55c-0.03,0.05-0.03,0.11,0,0.16l3.15,5.35l-3,5.2L0.65,11.44L6.86,0.79z M13.15,22.34
			H7.14l3.01-5.2h6.03L13.15,22.34z"/>
		<path class="st0" d="M30.16,11.46c0-0.01,0-0.01,0-0.02c0-0.02,0-0.04,0-0.06l0,0l-3.22-5.47c-0.03-0.05-0.08-0.08-0.14-0.08
			l-6.39-0.1l0,0c-0.03,0-0.05,0.01-0.07,0.02h-0.02c-0.02,0.01-0.03,0.03-0.04,0.04l0,0l-3.21,5.55c-0.03,0.05-0.03,0.11,0,0.16
			l3.2,5.53l0,0c0.01,0.02,0.03,0.03,0.04,0.04h0.02c0.02,0.01,0.05,0.02,0.07,0.02h6.4c0.06,0,0.11-0.03,0.14-0.08l3.2-5.53l0,0
			C30.14,11.49,30.15,11.47,30.16,11.46z M29.71,11.29h-5.99l-3.03-5.21l6.01,0.09L29.71,11.29z M26.7,16.81h-6.01l3.03-5.21h5.99
			L26.7,16.81z"/>
	</g>
</g>
</svg>
