<?xml version="1.0" encoding="utf-8"?>
<!-- Generator: Adobe Illustrator 23.0.1, SVG Export Plug-In . SVG Version: 6.00 Build 0)  -->
<svg version="1.1" id="Layer_1" xmlns="http://www.w3.org/2000/svg" xmlns:xlink="http://www.w3.org/1999/xlink" x="0px" y="0px"
	 viewBox="0 0 17.39 17.38" style="enable-background:new 0 0 17.39 17.38;" xml:space="preserve">
<style type="text/css">
	.st0{fill:#37A148;}
	.st1{fill:#37A148;stroke:#FFFFFF;stroke-width:0.25;stroke-miterlimit:10;}
</style>
<circle class="st0" cx="8.7" cy="8.69" r="1.99"/>
<g transform="translate(0,-952.36218)">
	<path class="st1" d="M8.7,952.49c-0.3,0-0.57,0.28-0.56,0.58v1.35c-3.21,0.27-5.78,2.85-6.06,6.06H0.73c-0.02,0-0.04,0-0.06,0
		c-0.3,0.02-0.56,0.3-0.54,0.6c0.02,0.3,0.3,0.56,0.6,0.54h1.35c0.27,3.21,2.85,5.78,6.06,6.06v1.35c0,0.3,0.27,0.58,0.57,0.58
		s0.57-0.28,0.57-0.58v-1.35c3.21-0.27,5.78-2.85,6.06-6.06h1.35c0.3,0,0.58-0.27,0.58-0.57c0-0.3-0.27-0.57-0.58-0.57h-1.35
		c-0.27-3.21-2.85-5.78-6.06-6.06v-1.35C9.28,952.76,9.01,952.48,8.7,952.49z M8.71,955.54c3.05,0,5.51,2.46,5.51,5.51
		s-2.46,5.51-5.51,5.51s-5.51-2.46-5.51-5.51S5.66,955.54,8.71,955.54z"/>
</g>
</svg>
