<?xml version="1.0" encoding="utf-8"?>
<!-- Generator: Adobe Illustrator 23.0.1, SVG Export Plug-In . SVG Version: 6.00 Build 0)  -->
<svg version="1.1" id="Layer_1" xmlns="http://www.w3.org/2000/svg" xmlns:xlink="http://www.w3.org/1999/xlink" x="0px" y="0px"
	 viewBox="0 0 24.12 22.89" style="enable-background:new 0 0 24.12 22.89;" xml:space="preserve">
<style type="text/css">
	.st0{fill:none;stroke:#37A148;stroke-linecap:round;stroke-linejoin:round;stroke-miterlimit:10;}
	.st1{fill:#37A148;}
</style>
<path class="st0" d="M10.07,18.61c-2,0-3.71-1.27-4.37-3.05c-0.29,0.06-0.58,0.09-0.89,0.09c-2.39,0-4.32-1.95-4.32-4.36
	c0-1.62,0.87-3.03,2.16-3.78c-0.59-1.37-0.6-3.04,0.31-4.72C3.32,2.14,3.86,1.6,4.51,1.24c2.66-1.46,5.34-0.62,6.75,1.23"/>
<path class="st0" d="M11.27,2.48c0.83-0.87,2-1.41,3.28-1.41c1.71,0,3.2,0.95,3.99,2.37c0.69-0.31,1.45-0.48,2.26-0.48
	c1.03,0,1.99,0.28,2.82,0.77"/>
<path class="st1" d="M18.7,17.71c-2.24,0-4.05-1.81-4.05-4.05c0-0.67,0.17-1.33,0.47-1.89l-0.99-0.99
	c-0.53,0.83-0.84,1.81-0.84,2.87c0,2.98,2.42,5.4,5.4,5.4v2.02l2.7-2.7l-2.7-2.7 M18.7,8.27V6.24L16,8.94l2.7,2.7V9.62
	c2.24,0,4.05,1.81,4.05,4.05c0,0.67-0.17,1.33-0.47,1.89l0.99,0.99c0.53-0.83,0.84-1.81,0.84-2.87C24.1,10.68,21.68,8.27,18.7,8.27z
	"/>
<g>
	<path d="M12.06,22.89c-0.05-0.03-0.1-0.07-0.14-0.1C11.96,22.82,12.01,22.86,12.06,22.89z"/>
</g>
</svg>
