<?xml version="1.0" encoding="utf-8"?>
<!-- Generator: Adobe Illustrator 21.0.0, SVG Export Plug-In . SVG Version: 6.00 Build 0)  -->
<svg version="1.1" id="Capa_1" xmlns="http://www.w3.org/2000/svg" xmlns:xlink="http://www.w3.org/1999/xlink" x="0px" y="0px"
	 viewBox="0 0 178.8 152.3" style="enable-background:new 0 0 178.8 152.3;" xml:space="preserve">
<style type="text/css">
	.st0{fill:none;stroke:#D1D3D6;stroke-linecap:round;stroke-linejoin:round;stroke-miterlimit:10;}
	.st1{fill:#CBECFE;}
	.st2{fill:#FFFFFF;stroke:#D1D3D6;stroke-linecap:round;stroke-linejoin:round;stroke-miterlimit:10;}
	.st3{fill:#FFFFFF;stroke:#D1D3D6;stroke-width:1.545;stroke-linecap:round;stroke-linejoin:round;stroke-miterlimit:10;}
	.st4{fill:#FFFFFF;stroke:#FFFFFF;stroke-linecap:round;stroke-linejoin:round;stroke-miterlimit:10;}
	.st5{fill:#D1D3D6;}
	.st6{fill:#F1F1F1;}
	.st7{display:none;fill:#1A75BB;}
	.st8{fill:none;stroke:#1A75BB;stroke-linecap:round;stroke-linejoin:round;stroke-miterlimit:10;}
	.st9{fill:none;stroke:#004685;stroke-linecap:round;stroke-linejoin:round;stroke-miterlimit:10;}
	.st10{fill:none;stroke:#E74125;stroke-linecap:round;stroke-linejoin:round;stroke-miterlimit:10;}
</style>
<g>
	<path class="st0" d="M112,138.3c23.8-10.4,40.4-34.1,40.4-61.7c0-31.9-22.2-58.7-52.1-65.6c-4.9-1.1-10-1.7-15.2-1.7"/>
	<path class="st0" d="M59.7,14.2C35.9,24.6,19.3,48.3,19.3,75.9c0,31.9,22.2,58.7,52.1,65.6c4.9,1.1,10,1.7,15.2,1.7"/>
	<path class="st1" d="M89.7,2.2c0,0.4,0,18.1,0,18.1L75.1,10.1L89.7,0L89.7,2.2z"/>
	<path class="st1" d="M75.1,150.1c0-0.4,0-18.1,0-18.1l14.6,10.2l-14.7,10.1L75.1,150.1z"/>
</g>
<g>
	<g>
		<g>
			<g transform="translate(0,-952.36218)">
				<path class="st2" d="M0.5,1001.8l11,31.3l50.4-17.6l-11-31.3l-33.4-14.5c-0.3,0.5,0.5,0.1,0,0L0.5,1001.8z"/>
			</g>
		</g>
		<path class="st3" d="M50.9,31.3"/>
		<path class="st3" d="M0.6,48.9"/>
	</g>
	<polyline class="st1" points="6.4,42.6 9.4,50.9 28.9,54.8 44.5,38.8 41.5,30.3 6.8,42.4 	"/>
	<polyline class="st0" points="1.1,49.2 29.7,54.3 50.9,31.8 	"/>
	<path class="st4" d="M16.6,46.6c0.7-0.3,20.3-7.1,20.3-7.1"/>
	<path class="st4" d="M19.7,51c0.7-0.3,16.1-5.6,16.1-5.6"/>
</g>
<g id="sync_1_">
	<g>
		<path class="st2" d="M67.7,111.6L51,145.9c-1.2,2.4-4,3.3-6.4,2.2l-25.7-12.5c-2.4-1.2-3.3-4-2.2-6.4L33.4,95
			c1.2-2.4,4-3.3,6.4-2.2l2.1,1l-1.8,3.6l21.4,10.4l1.8-3.6l2.1,1C67.8,106.4,68.8,109.3,67.7,111.6z M33.9,132 M29.3,118.7
			 M53.6,125.2"/>
	</g>
	<g>
		<g>
			<g>
				<g>
					<path class="st1" d="M56.3,122.2l-1.6-4.5L39.4,123l-3.1-8.9l-4.5,1.6l4.6,13.4L56.3,122.2z"/>
				</g>
			</g>
		</g>
	</g>
	<path class="st5" d="M59.4,103.2l-14.3-7c0,0,0,0,0-0.1l1.9-3.8c0,0,0,0,0.1,0l14.3,7c0,0,0,0,0,0.1L59.4,103.2
		C59.5,103.2,59.5,103.2,59.4,103.2z"/>
</g>
<g>
	<rect x="124.5" y="50.2" class="st2" width="53.8" height="48"/>
	<g>
		<line class="st2" x1="164.9" y1="45.3" x2="164.9" y2="55.1"/>
	</g>
	<line class="st2" x1="139.9" y1="45.3" x2="139.9" y2="55.1"/>
	<path class="st2" d="M124.5,61.8c0.8,0.2,53.8,0,53.8,0"/>
	<rect x="130.5" y="67.3" class="st6" width="11.2" height="8.5"/>
	<rect x="146.8" y="67.3" class="st6" width="11.2" height="8.5"/>
	<rect x="162.5" y="67.3" class="st6" width="11.2" height="8.5"/>
	<rect x="130.5" y="80.7" class="st6" width="11.2" height="8.5"/>
	<rect x="146.8" y="80.7" class="st1" width="11.2" height="8.5"/>
</g>
<circle class="st7" cx="86.6" cy="77.3" r="11.5"/>
<g>
	<path class="st8" d="M94.3,83c-1.7,0.6-3.5,0.9-5.4,0.9c-8.4,0-15.5-6-17.1-13.9"/>
	<path class="st8" d="M71.8,63.3c1.5-8.1,8.6-14.3,17.1-14.3c9.6,0,17.4,7.8,17.4,17.4c0,5.4-2.5,10.2-6.3,13.4"/>
	<path class="st9" d="M86.3,97.7c-2,0.8-4.1,1.2-6.4,1.2c-9.6,0-17.4-7.8-17.4-17.4s7.8-17.4,17.4-17.4s17.4,7.8,17.4,17.4
		c0,5.1-2.2,9.8-5.8,12.9"/>
	<path class="st10" d="M80.3,78.2c1.7-7.8,8.7-13.7,17-13.7c9.6,0,17.4,7.8,17.4,17.4s-7.8,17.4-17.4,17.4
		c-8.7,0-15.8-6.3-17.2-14.6"/>
</g>
</svg>
