<?xml version="1.0" encoding="utf-8"?>
<!-- Generator: Adobe Illustrator 21.0.0, SVG Export Plug-In . SVG Version: 6.00 Build 0)  -->
<svg version="1.1" id="Слой_1" xmlns="http://www.w3.org/2000/svg" xmlns:xlink="http://www.w3.org/1999/xlink" x="0px" y="0px"
	 viewBox="0 0 718.8 154.9" style="enable-background:new 0 0 718.8 154.9;" xml:space="preserve">
<style type="text/css">
	.st0{clip-path:url(#SVGID_2_);fill:#5E76B9;}
	.st1{clip-path:url(#SVGID_2_);fill:#1B8DCD;}
	.st2{clip-path:url(#SVGID_2_);fill:#009966;}
	.st3{clip-path:url(#SVGID_2_);fill:#787878;}
</style>
<g>
	<defs>
		<rect id="SVGID_1_" width="718.8" height="154.9"/>
	</defs>
	<clipPath id="SVGID_2_">
		<use xlink:href="#SVGID_1_"  style="overflow:visible;"/>
	</clipPath>
	<path class="st0" d="M99.5,2.2c-2.4-0.8-5-1.4-7.5-1.8l-0.8-0.2l-9.5,70.5l9.9-6v-0.4l8.3-62.2H99.5z"/>
	<path class="st0" d="M107,4.8l-0.8-0.4l-7.5,56l9.9-6V54l6.2-45.7l-0.4-0.2C112,7,109.6,6,107,4.8"/>
	<path class="st0" d="M128.9,18.5c-2.2-2-4.8-4-7.1-5.8l-1-0.6l-5.2,38.1l10.1-6v-0.4l3.4-25.2L128.9,18.5z"/>
	<path class="st1" d="M33.8,12.7l-0.4,0.4c-2.2,1.6-4.2,3.2-6.2,4.8l-0.6,0.4l48.7,51.6l1.6-11.5l-0.2-0.2L33.8,12.7z"/>
	<path class="st1" d="M47.7,5l-0.4,0.2c-2.6,1-5,2.2-7.3,3.6l-0.8,0.4L77.8,50l1.6-11.5l-0.2-0.2L47.7,5z"/>
	<path class="st1" d="M82,18.5L64.5,0h-0.4c-3,0.6-6,1.2-8.9,2.2l-1,0.4l26.4,27.8l1.6-11.7L82,18.5z"/>
	<path class="st2" d="M153.7,63.1c-0.4-2.8-1.2-5.4-1.8-7.9l-0.2-0.8l-48.3,29l10.7,4.2l0.2-0.2l39.3-23.6V63.1z"/>
	<path class="st2" d="M149.3,47.7c-1-2.4-2-4.8-3.4-7.1l-0.4-0.6L84.8,76.3l10.9,4.2l0.2-0.2l53.4-32.2V47.7z"/>
	<polygon class="st2" points="154.9,71.7 154.9,70.5 122.1,90.2 133,94.3 133.2,94.1 154.9,81 154.9,80.6 154.9,76.6 	"/>
	<path class="st2" d="M48.3,127.3l0.2,0.4l7.7,24.2h0.4c3,0.8,6,1.6,8.9,2l1.2,0.2l-12.1-36.5L48.3,127.3z"/>
	<path class="st2" d="M76.5,84.4l-6.4,9.7l0.2,0.4l19.1,59.6H90c2.6-0.4,5.2-1,7.5-1.6l0.8-0.2L76.5,84.4z"/>
	<path class="st2" d="M59.2,110.6v0.4l14.1,43.9h0.4h3.6c1.6,0,3,0,4.4-0.2h0.8l-17.3-53.8L59.2,110.6z"/>
	<path class="st0" d="M20.3,85.2l-0.2,0.2L6.2,106.6l0.2,0.4c1.2,2.8,2.6,5.6,4,8.1l0.6,1L32,84L20.3,85.2z"/>
	<path class="st0" d="M59.6,81.8L59.4,82L25,134.2l0.4,0.4c2,1.8,4,3.4,6,5L32,140l39.1-59.4L59.6,81.8z"/>
	<path class="st0" d="M39.9,83.4l-0.2,0.2l-25.2,38.5l0.2,0.4c1.6,2.2,3.2,4.4,5.2,6.4l0.6,0.6l31-47.1L39.9,83.4z"/>
	<path class="st2" d="M62.6,65.7h-0.4l-62,5.6v0.6c0,1.6-0.2,3.2-0.2,5v3v0.8l70.5-6.2L62.6,65.7z"/>
	<path class="st2" d="M35.3,36.9h-0.4L9.7,39.1l-0.2,0.4c-1.4,2.6-2.8,5.4-4,8.3l-0.4,1l38.1-3.4L35.3,36.9z"/>
	<path class="st2" d="M49,51.4h-0.4L3,55.6L2.8,56C2,58.6,1.4,61.2,1,63.9l-0.2,0.8l56-5L49,51.4z"/>
	<path class="st1" d="M82.6,82.4l3.6,11.1l0.4,0.2l58.2,22l0.2-0.6c1.2-2.2,2.4-4.6,3.4-6.9l0.2-0.6L82.6,82.4z"/>
	<path class="st1" d="M92.3,112.4l0.4,0.2l42.9,16.3l0.4-0.4c1.8-2,3.4-4.2,5-6.4l0.6-0.8l-52.4-19.9L92.3,112.4z"/>
	<path class="st1" d="M98.3,131.5l0.4,0.2l23.6,8.9l0.2-0.2c2.4-1.8,4.8-3.8,7.1-5.8l0.8-0.8l-35.7-13.5L98.3,131.5z"/>
	<path class="st3" d="M241.5,109.2c-4.6,1-9.7,2-14.5,2c-20.7,0-34.9-10.3-34.9-31.8c0-21.8,13.3-34,34.9-34c4.2,0,9.7,0.8,14.3,2.6
		l-1,10.7c-4.8-2.8-9.1-3.4-13.7-3.4c-13.1,0-21.2,9.9-21.2,23c0,12.9,7.9,22.6,21.6,22.6c5,0,10.9-1,13.9-2.6L241.5,109.2z"/>
	<polygon class="st3" points="250.4,46.5 285.7,46.5 285.7,56.6 263.1,56.6 263.1,72.1 284.8,72.1 284.8,82.2 263.1,82.2 263.1,110 
		250.4,110 	"/>
	<path class="st3" d="M313.3,59.2L313.3,59.2L304,85.4h18.7L313.3,59.2z M306.4,46.5h14.3l25,63.5h-14.1l-5.4-14.5h-25.8l-5.6,14.5
		h-13.1L306.4,46.5z"/>
	<polygon class="st3" points="371.7,46.5 384.6,46.5 384.4,110 371.7,110 	"/>
	<path class="st3" d="M397.9,63.1h11.5v6.4h0.2c3.8-5.4,8.9-7.5,15.5-7.5c11.1,0,15.9,7.7,15.9,18.5V110h-12.1V85
		c0-5.8,0-13.5-7.9-13.5c-8.7,0-10.7,9.5-10.7,15.5v23h-12.1L397.9,63.1z"/>
	<path class="st3" d="M481.9,73.1c-3.8-1.2-6.6-2-10.9-2c-3.2,0-7.1,1.2-7.1,5.2c0,7.5,21.2,2.8,21.2,19.7
		c0,10.9-9.7,15.3-19.7,15.3c-4.6,0-9.3-0.8-13.9-2l0.8-9.9c3.8,2,7.7,3.2,12.1,3.2c3.2,0,7.9-1.2,7.9-5.8c0-9.1-21.2-3-21.2-19.9
		c0-10.1,8.9-14.5,18.5-14.5c5.8,0,9.5,1,13.3,1.8L481.9,73.1z"/>
	<path class="st3" d="M497.2,72.1h-8.9v-8.9h8.9v-9.3l12.1-4v13.3h10.9v8.9h-10.9v21.8c0,4,1.2,7.7,5.8,7.7c2.2,0,4.4-0.4,5.6-1.2
		l0.4,9.7c-2.6,0.8-5.4,1-8.9,1c-9.5,0-14.9-6-14.9-15.3V72.1z"/>
	<path class="st3" d="M530.2,43.1h12.1v11.7h-12.1V43.1z M530.2,63.3h12.1v46.9h-12.1V63.3z"/>
	<path class="st3" d="M558,72.3h-8.9v-8.9h8.9V54l12.1-4v13.3H581v8.9h-10.9v21.8c0,4,1,7.7,5.8,7.7c2.2,0,4.4-0.4,5.6-1.2l0.4,9.7
		c-2.6,0.8-5.4,1-8.9,1c-9.5,0-14.9-6-14.9-15.3V72.3z"/>
	<path class="st3" d="M632.5,110.2h-11.5v-6.4h-0.4c-3.8,4.6-8.9,7.5-15.3,7.5c-11.1,0-15.9-7.7-15.9-18.5V63.3h12.1v25
		c0,5.8,0,13.5,7.9,13.5c8.7,0,10.7-9.5,10.7-15.5v-23h12.1L632.5,110.2z"/>
	<path class="st3" d="M647.2,72.3h-8.9v-8.9h8.9V54l12.1-4v13.3h10.9v8.9h-10.9v21.8c0,4,1,7.7,5.8,7.7c2.2,0,4.4-0.4,5.6-1.2
		l0.4,9.7c-2.6,0.8-5.4,1-8.9,1c-9.5,0-14.9-6-14.9-15.3V72.3z"/>
	<path class="st3" d="M707.1,82.2c-0.4-6-3.2-10.9-9.9-11.1c-6.8,0-10.3,4.8-10.9,10.9L707.1,82.2z M715.3,107.6
		c-4.4,2.4-9.5,3.8-16.1,3.8c-15.5,0-24.4-8.9-24.4-24.2c0-13.5,7.1-24.8,21.8-24.8c17.5,0,22.2,11.9,22.2,28.4h-32.4
		c0.6,7.5,5.8,11.9,13.3,11.9c6,0,10.9-2.2,15.5-4.8V107.6z"/>
</g>
</svg>
