<?xml version="1.0" encoding="utf-8"?>
<!-- Generator: Adobe Illustrator 21.0.0, SVG Export Plug-In . SVG Version: 6.00 Build 0)  -->
<svg version="1.1" id="Слой_1" xmlns="http://www.w3.org/2000/svg" xmlns:xlink="http://www.w3.org/1999/xlink" x="0px" y="0px"
	 viewBox="0 0 204.5 157.8" style="enable-background:new 0 0 204.5 157.8;" xml:space="preserve">
<style type="text/css">
	.st0{fill:#FFFFFF;}
	.st1{clip-path:url(#SVGID_2_);fill:none;stroke:#D1D3D6;stroke-linecap:round;stroke-linejoin:round;stroke-miterlimit:10;}
	.st2{fill:#F1F1F1;}
	.st3{fill:#CBECFE;}
	.st4{fill:none;stroke:#D1D3D6;stroke-linecap:round;stroke-linejoin:round;stroke-miterlimit:10;}
	.st5{clip-path:url(#SVGID_4_);fill:#CBECFE;}
	.st6{clip-path:url(#SVGID_4_);fill:#FFFFFF;}
	.st7{clip-path:url(#SVGID_4_);fill:none;stroke:#F1F1F1;stroke-linecap:round;stroke-linejoin:round;stroke-miterlimit:10;}
	.st8{clip-path:url(#SVGID_4_);fill:none;stroke:#D1D3D6;stroke-linecap:round;stroke-linejoin:round;stroke-miterlimit:10;}
	.st9{clip-path:url(#SVGID_4_);fill:#1A75BB;}
	.st10{clip-path:url(#SVGID_4_);fill:#D1D3D6;}
</style>
<polygon class="st0" points="123.8,107.4 186.5,112.3 204,62.2 146.5,42.2 "/>
<g>
	<defs>
		<rect id="SVGID_1_" x="0" width="204.5" height="157.8"/>
	</defs>
	<clipPath id="SVGID_2_">
		<use xlink:href="#SVGID_1_"  style="overflow:visible;"/>
	</clipPath>
	<polygon class="st1" points="123.8,107.4 186.5,112.3 204,62.2 146.5,42.2 	"/>
</g>
<rect x="179.5" y="77.1" transform="matrix(0.3291 -0.9443 0.9443 0.3291 45.5832 229.0734)" class="st2" width="8.9" height="10.8"/>
<rect x="163.3" y="71.8" transform="matrix(0.329 -0.9443 0.9443 0.329 39.6573 210.2564)" class="st2" width="8.9" height="10.8"/>
<rect x="147.3" y="66.1" transform="matrix(0.329 -0.9443 0.9443 0.329 34.3116 191.2534)" class="st2" width="8.9" height="10.8"/>
<rect x="142.1" y="80.2" transform="matrix(0.3291 -0.9443 0.9443 0.3291 17.4534 195.7995)" class="st2" width="8.9" height="10.8"/>
<rect x="157.8" y="85.2" transform="matrix(0.3291 -0.9443 0.9443 0.3291 23.2695 214.0594)" class="st3" width="8.9" height="10.8"/>
<line class="st0" x1="163" y1="41.5" x2="159.6" y2="51.9"/>
<line class="st4" x1="163" y1="41.5" x2="159.6" y2="51.9"/>
<line class="st0" x1="191.9" y1="51.3" x2="188.4" y2="62.1"/>
<line class="st4" x1="191.9" y1="51.3" x2="188.4" y2="62.1"/>
<line class="st0" x1="142.3" y1="54.1" x2="199.7" y2="74.5"/>
<line class="st4" x1="142.3" y1="54.1" x2="199.7" y2="74.5"/>
<rect x="12.8" y="48.4" transform="matrix(0.9408 -0.339 0.339 0.9408 -24.1463 19.3261)" class="st0" width="60.8" height="60.8"/>
<rect x="12.8" y="48.4" transform="matrix(0.9408 -0.339 0.339 0.9408 -24.1463 19.3261)" class="st4" width="60.8" height="60.8"/>
<rect x="36.6" y="59.8" transform="matrix(0.9408 -0.339 0.339 0.9408 -18.4711 19.8588)" class="st3" width="22.1" height="6"/>
<g>
	<defs>
		<rect id="SVGID_3_" x="0" width="204.5" height="157.8"/>
	</defs>
	<clipPath id="SVGID_4_">
		<use xlink:href="#SVGID_3_"  style="overflow:visible;"/>
	</clipPath>
	<path class="st5" d="M32.5,70.4c0,4.2-3.4,7.5-7.5,7.5s-7.5-3.4-7.5-7.5c0-4.2,3.4-7.5,7.5-7.5S32.5,66.2,32.5,70.4"/>
	<path class="st6" d="M23.1,65.3c1.1-0.4,2.3,0.2,2.7,1.3c0.4,1.1-0.2,2.3-1.3,2.7c-1.1,0.4-2.3-0.2-2.7-1.3
		C21.4,66.9,22,65.7,23.1,65.3"/>
	<path class="st6" d="M26.5,74.9c-2.2,0.8-4.2,1.1-4.4,0.1c-0.5-2.6,0.3-4.6,2.5-5.3c2.2-0.8,4,0.2,5.3,2.5
		C30.5,73.1,28.7,74.1,26.5,74.9"/>
	<line class="st7" x1="24.9" y1="88.1" x2="63.8" y2="73.8"/>
	<line class="st7" x1="28.5" y1="99.1" x2="67.4" y2="84.7"/>
	<line class="st6" x1="143.3" y1="23.8" x2="120" y2="0.5"/>
	<line class="st8" x1="143.3" y1="23.8" x2="120" y2="0.5"/>
	<polygon class="st6" points="120,23.8 120,0.5 61.7,0.5 61.7,24.6 61.7,105.4 119.4,105.4 143.3,105.4 143.3,87.9 143.3,58.8 
		143.3,23.8 	"/>
	<polygon class="st8" points="120,23.8 120,0.5 61.7,0.5 61.7,24.6 61.7,105.4 119.4,105.4 143.3,105.4 143.3,87.9 143.3,58.8 
		143.3,23.8 	"/>
	<rect x="74.1" y="26.7" class="st5" width="17.2" height="6"/>
	<line class="st7" x1="74.1" y1="44" x2="131.6" y2="44"/>
	<line class="st7" x1="74.1" y1="59.2" x2="131.6" y2="59.2"/>
	<line class="st7" x1="74.1" y1="74.5" x2="131.6" y2="74.5"/>
	<polyline class="st6" points="119.3,0.5 119.3,23.8 142.6,23.8 	"/>
	<polyline class="st8" points="119.3,0.5 119.3,23.8 142.6,23.8 	"/>
	<path class="st9" d="M197.3,133.9H3.8c-2.1,0-3.8-1.7-3.8-3.8v-22.9c0-2.1,1.7-3.8,3.8-3.8h193.4c2.1,0,3.8,1.7,3.8,3.8V130
		C201.1,132.2,199.4,133.9,197.3,133.9"/>
	<path class="st6" d="M68.2,113.5v3.5l1.2,0.8c0,0,0.1,0,0.1,0l5.2-3.5c0-0.4-0.4-0.7-0.6-0.7H68.2z"/>
	<path class="st6" d="M68.2,118.2l1.1,0.8c0.2,0.1,0.3,0,0.3,0c-0.2,0.1,5.1-3.4,5.1-3.4v6.4c0,0.7-0.4,1-0.9,1h-5.6L68.2,118.2
		L68.2,118.2z"/>
	<path class="st6" d="M86.7,125.3c-1.8,0-3.3-0.6-4.4-1.8c-1.1-1.2-1.7-2.8-1.7-4.8c0-2.1,0.6-3.8,1.7-5c1.1-1.2,2.7-1.9,4.6-1.9
		c1.8,0,3.2,0.6,4.3,1.8c1.1,1.2,1.6,2.8,1.6,4.8c0,2.1-0.6,3.8-1.7,5C90.1,124.7,88.6,125.3,86.7,125.3 M86.8,113.2
		c-1.4,0-2.5,0.5-3.3,1.5c-0.9,1-1.3,2.3-1.3,3.9c0,1.6,0.4,2.9,1.3,3.9c0.8,1,1.9,1.5,3.3,1.5c1.4,0,2.6-0.5,3.4-1.4
		c0.8-0.9,1.2-2.2,1.2-3.9c0-1.7-0.4-3-1.2-4C89.3,113.7,88.2,113.2,86.8,113.2"/>
	<path class="st6" d="M102.3,125.1h-1.5v-1.5h0c-0.6,1.1-1.6,1.7-2.9,1.7c-2.2,0-3.3-1.3-3.3-4v-5.6h1.5v5.3c0,2,0.8,2.9,2.3,2.9
		c0.7,0,1.3-0.3,1.8-0.8c0.5-0.5,0.7-1.2,0.7-2.1v-5.4h1.5L102.3,125.1L102.3,125.1z"/>
	<path class="st6" d="M109.2,125c-0.4,0.2-0.8,0.3-1.4,0.3c-1.6,0-2.4-0.9-2.4-2.7v-5.5h-1.6v-1.3h1.6v-2.3l1.5-0.5v2.8h2.3v1.3
		h-2.3v5.2c0,0.6,0.1,1.1,0.3,1.3c0.2,0.3,0.6,0.4,1.1,0.4c0.4,0,0.7-0.1,1-0.3V125z"/>
	<path class="st6" d="M62.5,116.6c-0.4,0-0.7,0.2-0.9,0.5c-0.2,0.4-0.3,0.8-0.3,1.4c0,0.6,0.1,1.1,0.3,1.4c0.2,0.3,0.5,0.5,0.9,0.5
		c0.4,0,0.7-0.2,0.9-0.5c0.2-0.3,0.3-0.8,0.3-1.4c0-0.6-0.1-1.1-0.3-1.4S62.9,116.6,62.5,116.6"/>
	<path class="st6" d="M57.3,111.7v13.5l10.3,2.2v-17.7L57.3,111.7z M64.2,120.8c-0.4,0.6-1,0.9-1.7,0.9c-0.7,0-1.2-0.3-1.7-0.8
		c-0.4-0.6-0.6-1.3-0.6-2.2c0-0.9,0.2-1.7,0.7-2.3c0.4-0.6,1-0.9,1.7-0.9c0.7,0,1.2,0.3,1.6,0.8c0.4,0.6,0.6,1.3,0.6,2.2
		C64.8,119.5,64.6,120.2,64.2,120.8"/>
	<rect x="111.2" y="111.3" class="st6" width="1.5" height="13.8"/>
	<path class="st6" d="M119.1,125.3c-1.4,0-2.5-0.4-3.3-1.3c-0.8-0.9-1.2-2-1.2-3.5c0-1.6,0.4-2.8,1.3-3.7c0.9-0.9,2-1.3,3.5-1.3
		c1.4,0,2.5,0.4,3.2,1.3c0.8,0.9,1.2,2,1.2,3.6c0,1.5-0.4,2.7-1.3,3.6C121.6,124.9,120.5,125.3,119.1,125.3 M119.2,116.8
		c-1,0-1.7,0.3-2.3,1c-0.6,0.7-0.8,1.5-0.8,2.7c0,1.1,0.3,2,0.8,2.6c0.6,0.6,1.3,1,2.3,1c1,0,1.7-0.3,2.2-0.9
		c0.5-0.6,0.8-1.5,0.8-2.7c0-1.2-0.3-2.1-0.8-2.7C120.9,117.2,120.2,116.8,119.2,116.8"/>
	<path class="st6" d="M129.5,125.3c-1.4,0-2.5-0.4-3.3-1.3c-0.8-0.9-1.2-2-1.2-3.5c0-1.6,0.4-2.8,1.3-3.7c0.9-0.9,2-1.3,3.5-1.3
		c1.4,0,2.5,0.4,3.2,1.3c0.8,0.9,1.2,2,1.2,3.6c0,1.5-0.4,2.7-1.3,3.6C132.1,124.9,130.9,125.3,129.5,125.3 M129.6,116.8
		c-1,0-1.7,0.3-2.3,1c-0.6,0.7-0.8,1.5-0.8,2.7c0,1.1,0.3,2,0.8,2.6c0.6,0.6,1.3,1,2.3,1c1,0,1.7-0.3,2.2-0.9
		c0.5-0.6,0.8-1.5,0.8-2.7c0-1.2-0.3-2.1-0.8-2.7C131.3,117.2,130.6,116.8,129.6,116.8"/>
	<polygon class="st6" points="143.8,125.1 141.7,125.1 137.6,120.6 137.6,120.6 137.6,125.1 136.1,125.1 136.1,111.3 137.6,111.3 
		137.6,120.1 137.6,120.1 141.5,115.8 143.5,115.8 139.2,120.3 	"/>
	<path class="st10" d="M128,142.3c2,1.9,4.2,2.9,6.7,3.6c0,0,9.7,3,16.9,10c2.5,2.3,6,2.6,8.7,0.8l16.4-10.8c1.4-1,1.9-2.9,1.2-4.4
		l-1.4-3.3c-0.4-1.4-1.1-3.3-1.4-5.6c-0.3-8.9-4-18.3-5.3-21.9c-0.3-1-1-1.5-1.8-1.8c-15.4-5.5-30.1-1.5-30.1-1.5l-2.1-3.3
		c-1.6-2.7-3.4-5.3-4.9-7.9c-1.8-3-3.6-5.9-5.3-8.6c-1.4-2.1-3.7-2.7-5.7-1.6c-2.1,1.2-2.7,3.4-1.8,5.6c4.5,10.4,8.9,20.5,13.1,30.9
		c0.4,1.2,0.8,2.3,0.7,3.6c0,2.5-0.7,4.6-2.9,3.4c-2.6-1.2-8.3-4.9-9.7-5.2c-2.2-0.5-4.5-1-7-0.1c-1.1,0.4-2.3,1.5-2.7,2.5
		c-1,1.9-0.5,3.3,1.4,4.1c4.4,1.9,8.3,4.6,12,7.8C124.6,139.7,126.6,141.1,128,142.3"/>
</g>
</svg>
