<?xml version="1.0" encoding="utf-8"?>
<!-- Generator: Adobe Illustrator 21.0.0, SVG Export Plug-In . SVG Version: 6.00 Build 0)  -->
<svg version="1.1" id="Слой_1" xmlns="http://www.w3.org/2000/svg" xmlns:xlink="http://www.w3.org/1999/xlink" x="0px" y="0px"
	 viewBox="0 0 409.5 409.6" style="enable-background:new 0 0 409.5 409.6;" xml:space="preserve">
<style type="text/css">
	.st0{clip-path:url(#SVGID_2_);fill:#c70901}
</style>
<g>
	<defs>
		<rect id="SVGID_1_" width="409.5" height="409.6"/>
	</defs>
	<clipPath id="SVGID_2_">
		<use xlink:href="#SVGID_1_"  style="overflow:visible;"/>
	</clipPath>
	<path class="st0" d="M401.6,182l-49.7-49.7c10.6-2.6,20.6-7.9,28.8-16.2c12-12,18.1-27.9,18.1-43.6c0-15.8-6-31.6-18.1-43.6
		c-12-12-27.9-18.1-43.7-18.1c-15.8,0-31.6,6-43.6,18.1c-8.2,8.2-13.6,18.3-16.2,28.8L227.5,8c-5.3-5.3-12.3-8-19.3-8
		c-6.9,0-14,2.7-19.3,8l-73.1,73.1c-3,3-3,7.7,0,10.7l8.8,8.8c1.8,1.8,4.3,2.6,6.8,2.1c2.4-0.5,4.8-0.7,7.2-0.7
		c9.4,0,18.8,3.6,26,10.8c7.2,7.2,10.7,16.5,10.7,26c0,9.4-3.6,18.8-10.8,26c-7.2,7.2-16.5,10.7-26,10.8c-9.4,0-18.8-3.6-26-10.8
		c-7.2-7.2-10.8-16.5-10.8-26c0-2.4,0.2-4.8,0.7-7.2c0.5-2.5-0.3-5.1-2.1-6.8l-8.8-8.8c-3-3-7.8-3-10.7,0L8,189
		c-5.3,5.3-8,12.3-8,19.3c0,6.9,2.6,14,8,19.3l49.7,49.7c-10.6,2.6-20.6,7.9-28.8,16.2c-12,12-18.1,27.9-18.1,43.6
		c0,15.8,6,31.6,18.1,43.7c12,12,27.9,18.1,43.7,18.1c15.8,0,31.6-6,43.6-18.1c8.2-8.2,13.6-18.3,16.2-28.8l49.7,49.7
		c5.3,5.3,12.3,8,19.3,8c6.9,0,14-2.7,19.3-8l73.1-73.1c3-3,3-7.8,0-10.7l-8.8-8.8c-1.8-1.8-4.3-2.6-6.8-2.1
		c-2.4,0.5-4.8,0.7-7.2,0.7c-9.4,0-18.8-3.6-26-10.7c-7.2-7.2-10.7-16.5-10.8-26c0-9.4,3.6-18.8,10.8-26c7.2-7.2,16.5-10.7,26-10.8
		c9.4,0,18.8,3.6,26,10.8c7.2,7.2,10.7,16.5,10.7,26c0,2.4-0.2,4.8-0.7,7.2c-0.5,2.5,0.3,5,2.1,6.8l8.8,8.8c1.4,1.4,3.4,2.2,5.4,2.2
		c2,0,3.9-0.8,5.4-2.2l73.1-73.1c5.3-5.3,8-12.3,8-19.3C409.5,194.4,406.9,187.3,401.6,182 M390.9,209.9l-67.7,67.7l-0.7-0.7
		c0.2-2,0.4-4,0.4-6c0-13.2-5.1-26.6-15.2-36.7c-10.1-10.1-23.4-15.2-36.7-15.2c-13.3,0-26.6,5.1-36.7,15.2
		c-10.1,10.1-15.2,23.4-15.2,36.7c0,13.2,5.1,26.6,15.2,36.7c10.1,10.1,23.4,15.2,36.7,15.2c2,0,4-0.1,6-0.4l0.7,0.7l-67.7,67.7
		c-2.4,2.4-5.4,3.5-8.6,3.5c-3.2,0-6.2-1.2-8.6-3.5l-60.8-60.8c-2.2-2.2-5.5-2.8-8.3-1.6c-2.8,1.2-4.7,4-4.6,7.1c0,0.6,0,1.1,0,1.5
		c0,12-4.5,23.8-13.6,32.9c-9.1,9.1-21,13.6-32.9,13.6c-12,0-23.8-4.5-32.9-13.6c-9.1-9.1-13.6-21-13.6-32.9
		c0-11.9,4.5-23.8,13.6-32.9c9.1-9.1,21-13.6,32.9-13.6c0.5,0,0.9,0,1.4,0c3.1,0.1,5.9-1.7,7.2-4.6c1.2-2.9,0.6-6.2-1.6-8.4
		l-60.8-60.8c-2.4-2.4-3.5-5.4-3.5-8.6c0-3.1,1.2-6.2,3.5-8.6L86.4,132l0.7,0.7c-0.2,2-0.4,4-0.4,6c0,13.2,5.1,26.6,15.2,36.7
		c10.1,10.1,23.4,15.2,36.7,15.2c13.3,0,26.6-5.1,36.7-15.2c10.1-10.1,15.2-23.5,15.2-36.7c0-13.2-5.1-26.6-15.2-36.7
		c-10.1-10.1-23.4-15.2-36.7-15.2c-2,0-4,0.2-6,0.4l-0.7-0.7l67.8-67.8c2.4-2.3,5.4-3.5,8.6-3.5c3.1,0,6.2,1.2,8.6,3.5l60.8,60.8
		c2.2,2.2,5.6,2.8,8.4,1.6c2.8-1.2,4.7-4.1,4.5-7.2c0-0.4,0-0.9,0-1.3c0-12,4.5-23.8,13.6-32.9c9.1-9.1,21-13.6,32.9-13.6
		c11.9,0,23.8,4.5,32.9,13.6c9.1,9.1,13.6,21,13.6,32.9c0,11.9-4.5,23.8-13.6,32.9c-9.1,9.1-21,13.6-32.9,13.6c-0.5,0-0.9,0-1.4,0
		c-3.1-0.1-5.9,1.7-7.2,4.6c-1.2,2.9-0.6,6.2,1.6,8.4l60.8,60.8c2.4,2.4,3.5,5.4,3.5,8.6C394.4,204.5,393.2,207.5,390.9,209.9"/>
</g>
</svg>
