<?xml version="1.0" encoding="utf-8"?>
<!-- Generator: Adobe Illustrator 21.0.0, SVG Export Plug-In . SVG Version: 6.00 Build 0)  -->
<svg version="1.1" id="Layer_1" xmlns="http://www.w3.org/2000/svg" xmlns:xlink="http://www.w3.org/1999/xlink" x="0px" y="0px"
	 viewBox="0 0 379.3 433" style="enable-background:new 0 0 379.3 433;" xml:space="preserve">
<style type="text/css">
	.st0{fill:#224A8D;}
	.st1{fill:#FFFFFF;}
	.st2{fill-rule:evenodd;clip-rule:evenodd;fill:#FFFFFF;}
	.st3{fill:#C21D38;}
</style>
<path class="st0" d="M288.1,1.4c-30,16.7-64,25.5-98.4,25.5c-34.4,0-68.5-8.8-98.4-25.5L88.7,0L10.4,83.5l2.6,2.6
	c15.4,15.2,23.9,35.5,23.9,57.1c0,21.1-8,40.5-16.5,61C10.4,228.5,0,253.6,0,285.9c0,34.6,15.2,67.5,41.8,90
	c31.7,26.9,64.7,29.1,91.2,30.9c24,1.6,43,2.8,53.5,20.8l3.3,5.6l3.2-5.6c10.5-17.9,29.5-19.2,53.5-20.8
	c26.5-1.8,59.5-3.9,91.2-30.9c26.6-22.6,41.8-55.4,41.8-90c0-32.3-10.4-57.4-20.4-81.6c-8.5-20.5-16.5-39.9-16.5-61
	c0-21.6,8.5-41.9,23.9-57.1l2.6-2.6L290.6,0L288.1,1.4z"/>
<path class="st1" d="M33.5,196.5v158.8l-0.1,0c4.2,5.1,8.8,9.8,13.8,14.1c4.8,4.1,9.8,7.6,14.7,10.5V196.5H33.5z"/>
<path class="st1" d="M90.3,196.5v195.8c9.7,2.6,19.1,4,28.3,4.9V196.5H90.3z"/>
<path class="st1" d="M147.1,196.5v202.8l2,0.2c6.1,0.6,11.9,1.6,17.3,3.1c3.2,0.9,6.3,2.1,9.2,3.5V196.5H147.1z"/>
<path class="st1" d="M203.7,196.5v209.6c2.9-1.5,6-2.6,9.2-3.5c5.3-1.5,11.1-2.5,17.3-3.1l2-0.2V196.5H203.7z"/>
<path class="st1" d="M260.6,196.5v200.6c9.2-0.9,18.7-2.2,28.3-4.9V196.5H260.6z"/>
<path class="st2" d="M345.8,196.5h-28.4V380c4.8-3,9.8-6.4,14.6-10.5c5-4.3,9.7-9,13.9-14.1l-0.1,0V196.5z"/>
<path class="st3" d="M32.7,196.5c-2,4.9-4,9.9-6.1,15c-9.2,22.4-18.1,45.6-18.1,74.4c0,26.4,9.4,50.6,25,69.6v0V196.5H32.7z"/>
<path class="st3" d="M61.9,196.5V380c9.6,5.9,19,9.8,28.5,12.4V196.5H61.9z"/>
<path class="st3" d="M118.7,196.5v200.8c3.9,0.4,7.9,0.5,11.7,0.7c5.8,0.4,11.4,0.7,16.7,1.2V196.5H118.7z"/>
<path class="st3" d="M175.6,196.5v209.6c5.3,2.6,10,6.2,14.1,11.2c4-5,8.8-8.6,14-11.2V196.5H175.6z"/>
<path class="st3" d="M232.2,196.5v202.8c5.4-0.5,10.9-0.8,16.7-1.2c3.8-0.2,7.8-0.4,11.7-0.7V196.5H232.2z"/>
<path class="st3" d="M289,196.5v195.8c9.4-2.6,18.9-6.5,28.5-12.4V196.5H289z"/>
<path class="st3" d="M346.7,196.5h-0.8v158.8v0c15.6-18.9,25-43.2,25-69.6c0-28.7-8.9-52-18.1-74.4
	C350.7,206.4,348.6,201.5,346.7,196.5"/>
<path class="st2" d="M160.7,142.3c-0.2-6.8,4.8-11.4,11-11.6c3.1-0.1,7.2,1.6,11.4,2.7v-12.5c-2-1.3-7.5-2.8-10.9-2.8
	c-12.7,0-24,9.7-24,24.1c0,14.4,11.3,24.1,24,24.1c3.5,0,8.9-1.5,10.9-2.8v-12.5c-4.2,1.1-8.2,2.7-11.4,2.6
	c-6.2-0.2-11.2-4.8-11-11.6V142.3z"/>
<rect x="179.3" y="58.9" class="st1" width="13.3" height="45.2"/>
<polygon class="st1" points="126.5,104.1 139.3,104.1 139.3,81.3 139.5,81.3 154.8,104.1 169.3,104.1 169.3,58.9 155.6,58.9 
	155.6,82.8 155.4,82.8 140,58.9 126.5,58.9 "/>
<path class="st1" d="M103.4,58.9h13.1v25.2c0,5.8-0.2,11.5-4.8,15.8c-3.8,3.7-9.8,5-15.1,5c-5.3,0-11.3-1.3-15.1-5
	c-4.5-4.3-4.8-10-4.8-15.8V58.9h13.1v22c0,5.8-0.8,12.2,6.8,12.2c7.6,0,6.8-6.4,6.8-12.2V58.9z"/>
<path class="st2" d="M212.6,81.6c0-6.2,5.1-11.2,11.3-11.2c6.3,0,11.3,5,11.3,11.2c0,6.2-5.1,11.2-11.3,11.2
	C217.7,92.8,212.6,87.8,212.6,81.6 M199.9,81.6c0-13.1,10.7-23.8,24-23.8c13.3,0,24,10.6,24,23.8c0,13.1-10.8,23.8-24,23.8
	C210.6,105.4,199.9,94.7,199.9,81.6"/>
<polygon class="st1" points="255.7,104.1 268.5,104.1 268.5,81.3 268.6,81.3 284,104.1 298.5,104.1 298.5,58.9 284.7,58.9 
	284.7,82.8 284.6,82.8 269.2,58.9 255.7,58.9 "/>
<rect x="256.4" y="119.1" class="st1" width="13.3" height="45.2"/>
<polygon class="st1" points="247.3,129.2 247.3,119.1 216.5,119.1 216.5,164.3 229.9,164.3 229.9,148.6 247.3,148.6 247.3,138 
	229.9,138 229.9,129.2 "/>
<rect x="193.1" y="119.1" class="st1" width="13.3" height="45.2"/>
<path class="st2" d="M291,142.3c-0.2-6.8,4.8-11.4,11-11.6c3.1-0.1,7.2,1.6,11.4,2.7v-12.5c-2-1.3-7.5-2.8-10.9-2.8
	c-12.7,0-24,9.7-24,24.1c0,14.4,11.3,24.1,24,24.1c3.4,0,8.9-1.5,10.9-2.8v-12.5c-4.2,1.1-8.2,2.7-11.4,2.6
	c-6.2-0.2-11.2-4.8-11-11.6V142.3z"/>
<path class="st2" d="M127.4,146.3l-4.7-14.5l-4.8,14.5H127.4z M114.2,156.5l-2.7,7.8H98.9l16.3-45.3h15l16.3,45.3h-12.6l-2.7-7.8
	H114.2z"/>
<path class="st2" d="M76.8,129.2h7.9c2.6,0,4.7,2.1,4.7,4.8c0,2.6-2.1,5.4-4.8,5.4h-7.9V129.2z M85.6,119.1
	c8.5,0,15.2,6.8,15.2,15.3c0,8.4-6.8,15.3-15.3,15.3h-8.7v14.7H64.3v-45.3H85.6z"/>
<path class="st0" d="M352.8,211.5L352.8,211.5c-2.1-5.1-4.1-10-6.1-15h-314c-2,4.9-4,9.9-6.1,15c-9.2,22.4-18.1,45.6-18.1,74.4
	c0,26.4,9.4,50.6,25,69.5l0,0c4.2,5.1,8.8,9.8,13.8,14.1c4.8,4.1,9.8,7.5,14.6,10.5c9.6,5.9,19,9.8,28.5,12.4
	c9.7,2.7,19.1,4,28.3,4.9c3.9,0.4,7.9,0.7,11.7,0.9c5.8,0.4,11.4,0.7,16.7,1.2l2,0.2c6.1,0.6,11.9,1.6,17.2,3.1
	c3.2,0.9,6.3,2.1,9.2,3.5c5.3,2.6,10,6.2,14.1,11.2c4-5,8.8-8.5,14-11.2c2.9-1.4,6-2.6,9.2-3.5c5.3-1.5,11.1-2.5,17.3-3.1l2-0.2
	c5.4-0.5,10.9-0.8,16.7-1.2c3.8-0.2,7.8-0.5,11.7-0.9c9.2-0.9,18.7-2.2,28.3-4.9c9.4-2.6,18.9-6.5,28.5-12.3
	c4.8-3,9.8-6.4,14.6-10.5c5-4.3,9.7-9,13.9-14.1l0,0c15.6-18.9,25-43.1,25-69.5C370.9,257.1,361.9,233.9,352.8,211.5
	c9.2,22.4,18.1,45.6,18.1,74.4c0,26.4-9.4,50.6-25,69.5l0,0c-4.2,5.1-8.8,9.8-13.9,14.1c-4.8,4.1-9.8,7.6-14.6,10.5
	c-9.6,5.9-19,9.8-28.5,12.3c-9.7,2.7-19.1,4-28.3,4.9c-3.9,0.4-7.9,0.7-11.7,0.9c-5.8,0.4-11.4,0.7-16.7,1.2l-2,0.2
	c-6.2,0.6-11.9,1.6-17.3,3.1c-3.2,0.9-6.3,2.1-9.2,3.5c-5.3,2.6-10,6.2-14,11.2c-4.1-5-8.8-8.6-14.1-11.2c-2.9-1.5-6-2.6-9.2-3.5
	c-5.3-1.5-11.1-2.5-17.2-3.1l-2-0.2c-5.3-0.5-10.9-0.8-16.7-1.2c-3.8-0.2-7.8-0.5-11.7-0.9c-9.2-0.9-18.7-2.2-28.3-4.9
	c-9.5-2.6-18.9-6.5-28.5-12.4c-4.8-3-9.8-6.4-14.6-10.5c-5-4.3-9.6-9-13.8-14.1l0,0c-15.6-18.9-25-43.1-25-69.5
	c0-28.7,8.9-52,18.1-74.4c2.1-5.1,4.1-10,6.1-15h314C348.6,201.5,350.7,206.4,352.8,211.5"/>
</svg>
