<?xml version="1.0" encoding="utf-8"?>
<!-- Generator: Adobe Illustrator 21.0.0, SVG Export Plug-In . SVG Version: 6.00 Build 0)  -->
<svg version="1.1" id="Слой_1" xmlns="http://www.w3.org/2000/svg" xmlns:xlink="http://www.w3.org/1999/xlink" x="0px" y="0px"
	 viewBox="0 0 405.5 414.2" style="enable-background:new 0 0 405.5 414.2;" xml:space="preserve">
<style type="text/css">
	.st0{clip-path:url(#SVGID_2_);fill:#c70901}
</style>
<g>
	<defs>
		<rect id="SVGID_1_" width="405.5" height="414.2"/>
	</defs>
	<clipPath id="SVGID_2_">
		<use xlink:href="#SVGID_1_"  style="overflow:visible;"/>
	</clipPath>
	<path class="st0" d="M297.5,23.6C268.3,8.2,235.9,0.1,203,0C90.9,0,0,90.8,0,202.9c0,52.9,20.6,103.7,57.6,141.6l-8.5,60.3
		c-0.7,4.4,2.2,8.5,6.5,9.2c2,0.3,4.1-0.1,5.8-1.2l46.1-30.6c99.1,52.5,221.9,14.7,274.3-84.4C434.3,198.9,396.5,76.1,297.5,23.6
		 M336,334.3c-35.1,35.6-83,55.7-133,55.7c-32.2,0-63.9-8.2-91.9-24c-2.5-1.4-5.5-1.4-8,0L67,389.4l7-46.5c0.3-2.5-0.5-5-2.3-6.8
		C-1.9,263.7-2.7,145.3,69.8,71.8s190.9-74.3,264.4-1.8C407.7,142.4,408.5,260.8,336,334.3"/>
	<path class="st0" d="M248.8,274.8h-6.6V156.6c0-4.4-3.6-8-8-8h-69c-4.4,0-8,3.6-8,8v28.8c0,4.4,3.6,8,8,8h6.7v81.4h-6.7
		c-4.4,0-8,3.6-8,8v28.8c0,4.4,3.6,8,8,8h83.7c4.4,0,8-3.6,8-8v-28.8C256.8,278.4,253.3,274.8,248.8,274.8 M173.2,303.6v-12.8h6.7
		c4.4,0,8-3.6,8-8v-97.4c0-4.4-3.6-8-8-8h-6.7v-12.8h53v118.2c0,4.4,3.6,8,8,8h6.6l0.1,12.8H173.2z"/>
	<path class="st0" d="M203,70.4c-18.5,0-33.5,15-33.5,33.5s15,33.5,33.5,33.5s33.5-15,33.5-33.5S221.5,70.4,203,70.4 M203,121.5
		c-9.7,0-17.5-7.8-17.5-17.5c0-9.7,7.8-17.6,17.4-17.6h0.1v0.1c9.7,0,17.5,7.8,17.5,17.5S212.7,121.5,203,121.5"/>
</g>
</svg>
