<?xml version="1.0" encoding="utf-8"?>
<!-- Generator: Adobe Illustrator 21.0.0, SVG Export Plug-In . SVG Version: 6.00 Build 0)  -->
<svg version="1.1" id="Слой_1" xmlns="http://www.w3.org/2000/svg" xmlns:xlink="http://www.w3.org/1999/xlink" x="0px" y="0px"
	 viewBox="0 0 969.5 185.7" style="enable-background:new 0 0 969.5 185.7;" xml:space="preserve">
<style type="text/css">
	.st0{clip-path:url(#SVGID_2_);}
	.st1{clip-path:url(#SVGID_2_);fill:#FFDF1C;}
	.st2{clip-path:url(#SVGID_2_);fill:#FFFFFF;}
</style>
<g>
	<defs>
		<rect id="SVGID_1_" width="969.5" height="185.7"/>
	</defs>
	<clipPath id="SVGID_2_">
		<use xlink:href="#SVGID_1_"  style="overflow:visible;"/>
	</clipPath>
	<path class="st0" d="M969.4,171.5c0,7.8-6.3,14.2-14.2,14.2h-941c-7.8,0-14.2-6.3-14.2-14.2V14.2C0,6.3,6.3,0,14.2,0h941.1
		c7.8,0,14.2,6.3,14.2,14.2L969.4,171.5L969.4,171.5z"/>
	<polygon class="st1" points="72.6,83.1 45.5,83.1 32.3,21.5 54.1,21.5 59.7,59.5 65.4,21.5 90.9,21.5 96.6,60.5 102.4,21.5 
		123.3,21.5 110.3,83.1 83.6,83.1 78,43.2 	"/>
	<polygon class="st1" points="701.2,159.5 640.6,159.5 611.2,21.5 659.9,21.5 672.5,106.5 685.3,21.5 741.1,21.5 753.9,108.8 
		766.8,21.5 814.6,21.5 785.6,159.5 725.9,159.5 713.5,70.2 	"/>
	<polygon class="st1" points="137.9,83.1 137.9,21.5 184.7,21.5 184.7,37.3 161.5,37.3 161.5,44 183,44 183,59.8 161.5,59.8 
		161.5,67.1 185.5,67.1 185.5,83.1 	"/>
	<polygon class="st1" points="342.7,83.1 342.7,21.5 389.5,21.5 389.5,37.3 366.3,37.3 366.3,44 387.8,44 387.8,59.8 366.3,59.8 
		366.3,67.1 390.3,67.1 390.3,83.1 	"/>
	<path class="st1" d="M200.4,65.1h23.1v0.5c0,2.1,0.5,3.7,1.5,4.8c1,1,2.5,1.6,4.6,1.6c1.8,0,3.3-0.4,4.3-1.2c1-0.8,1.5-1.9,1.5-3.3
		c0-1.1-0.2-1.9-0.6-2.7c-0.4-0.7-1-1.3-1.7-1.7c-1.2-0.6-3.8-1.4-7.6-2.3c-3.8-1-6.9-1.8-9.1-2.5c-5.4-1.7-9.3-3.9-11.8-6.6
		s-3.7-6.2-3.7-10.4c0-6.3,2.6-11.1,7.7-14.6c5.1-3.5,12.3-5.2,21.6-5.2c8.4,0,14.9,1.5,19.4,4.5s6.7,7.2,6.7,12.8v1.3H235
		c-0.2-1.9-0.7-3.3-1.6-4.2c-0.9-0.9-2.3-1.4-4-1.4c-1.5,0-2.8,0.4-3.7,1.2c-0.9,0.8-1.4,1.8-1.4,3c0,2.3,2.6,4.1,7.8,5.3
		c1.9,0.4,3.4,0.8,4.5,1.1c8.7,2.3,14.5,4.8,17.6,7.7c3.1,2.8,4.6,6.7,4.6,11.7c0,6.7-2.6,12.1-7.9,16c-5.3,3.9-12.5,5.9-21.7,5.9
		c-9.3,0-16.4-1.6-21.3-4.9c-5-3.3-7.4-8-7.4-14v-1.4C200.3,65.7,200.4,65.4,200.4,65.1"/>
	<polygon class="st1" points="326.7,21.5 326.7,38 311.5,38 311.5,83.2 287.2,83.2 287.2,37.9 272,37.9 272,21.5 	"/>
	<path class="st1" d="M407.8,82.8V21.5h32c9.4,0,16,1.2,19.7,3.6c3.7,2.4,5.6,6.4,5.6,12c0,3.7-1,6.7-3.1,9.1
		c-2.1,2.4-5.2,4.1-9.3,5.2c3.8,0.6,6.5,1.9,8.2,3.7c1.6,1.9,2.8,5.3,3.4,10.2l0.8,6.7c0.1,1.1,0.3,2.5,0.6,4.1s0.8,3.9,1.4,6.7
		h-23.9c-0.5-2.1-0.9-3.7-1.2-5c-0.3-1.3-0.5-2.5-0.6-3.5l-0.6-4.5c-0.6-4-1.4-6.6-2.4-7.7s-2.7-1.6-5-1.6h-1.3
		c-0.3,0-0.6,0-0.9,0.1v22.2H407.8z M431.4,46.8c0.2,0,0.4,0,0.7,0.1h1c2.8,0,4.9-0.5,6.4-1.6c1.5-1.1,2.2-2.7,2.2-4.7
		c0-1.9-0.6-3.3-1.8-4.1c-1.2-0.9-3.2-1.3-5.8-1.3h-1.6c-0.4,0-0.7,0-1.1,0.1V46.8z"/>
	<polygon class="st1" points="503.6,45.1 503.6,82.7 483.9,82.7 483.9,21.5 513,21.5 526.4,58.2 526.4,21.5 546.1,21.5 546.1,82.7 
		517,82.7 	"/>
	<polygon class="st1" points="503.6,120.7 503.6,158.6 483.9,158.6 483.9,96.9 513,96.9 526.4,133.8 526.4,96.9 546.1,96.9 
		546.1,158.6 517,158.6 	"/>
	<polygon class="st1" points="297.4,120.7 297.4,158.6 277.7,158.6 277.7,96.9 306.8,96.9 320.2,133.8 320.2,96.9 340,96.9 
		340,158.6 310.9,158.6 	"/>
	<path class="st1" d="M199.5,97h23.6v38.5c0,2.6,0.5,4.7,1.4,6c1,1.4,2.3,2.1,4.2,2.1c1.8,0,3.1-0.7,4.1-2.2c1-1.4,1.5-3.4,1.5-6V97
		H258v37.6c0,8.8-2.4,15.3-7.1,19.5c-4.8,4.2-12.1,6.3-22.2,6.3c-5.8,0-10.6-0.6-14.3-1.8c-3.8-1.2-6.9-3.1-9.4-5.7
		c-2-2.1-3.4-4.4-4.2-7c-0.9-2.5-1.3-6.3-1.3-11.2V97z"/>
	<rect x="360.1" y="97" class="st1" width="24.3" height="61.6"/>
	<path class="st1" d="M433.5,160.3c-10,0-17.7-2.8-23.1-8.5c-5.4-5.6-8.2-13.6-8.2-23.9c0-10.4,2.8-18.4,8.3-24.1
		c5.6-5.7,13.5-8.5,23.7-8.5c10.2,0,18,2.8,23.6,8.5c5.5,5.6,8.3,13.7,8.3,24c0,10.5-2.8,18.6-8.3,24.1
		C452.2,157.5,444.1,160.3,433.5,160.3 M434.2,111.7c-2.5,0-4.3,1.2-5.4,3.5c-1,2.3-1.6,6.6-1.6,12.9c0,5.9,0.5,10,1.6,12.4
		c1,2.3,2.8,3.5,5.3,3.5s4.3-1.2,5.4-3.7c1-2.5,1.6-6.9,1.6-13.4c0-5.8-0.5-9.8-1.5-12C438.4,112.8,436.7,111.7,434.2,111.7"/>
	<polygon class="st1" points="604.3,158.6 596.1,158.6 567.4,21.5 575.5,21.5 	"/>
	<polygon class="st1" points="626.5,158.6 618.3,158.6 589.5,21.5 597.7,21.5 	"/>
	<path class="st1" d="M854.1,21.5v86.2c0,5.7-1.1,10.1-3.3,13.3c-2.2,3.2-5.3,4.8-9.2,4.8c-4.1,0-7.2-1.5-9.3-4.6
		c-2.1-3.1-3.2-7.6-3.2-13.5V21.5h-10.3L792,149c4.9,4.3,10.8,7.6,17.7,9.8c8.4,2.7,19.1,4,31.9,4c22.3,0,38.8-4.7,49.4-14
		c10.6-9.3,15.9-23.8,15.9-43.4v-84L854.1,21.5L854.1,21.5z"/>
	<path class="st2" d="M776.5,21.5v84c0,11,1,19.3,2.9,25c1.8,5.5,4.9,10.5,9.1,15.1l26.1-124.1H776.5z"/>
	<path class="st1" d="M917.7,32.3l2.6-0.2c0.1,0.4,0.2,0.8,0.3,1c0.3,0.4,0.7,0.6,1.2,0.6c0.4,0,0.7-0.1,0.9-0.3
		c0.2-0.2,0.3-0.4,0.3-0.7c0-0.2-0.1-0.5-0.3-0.6c-0.2-0.2-0.7-0.4-1.4-0.5c-1.2-0.3-2-0.7-2.6-1.1c-0.5-0.5-0.8-1.1-0.8-1.8
		c0-0.5,0.1-0.9,0.4-1.4c0.3-0.4,0.7-0.8,1.2-1c0.5-0.2,1.2-0.4,2.2-0.4c1.1,0,2,0.2,2.6,0.7c0.6,0.4,0.9,1.1,1.1,2.1l-2.6,0.2
		c-0.1-0.4-0.2-0.7-0.4-0.9c-0.2-0.2-0.5-0.3-0.9-0.3c-0.3,0-0.6,0.1-0.7,0.2c-0.2,0.1-0.2,0.3-0.2,0.5c0,0.1,0.1,0.3,0.2,0.4
		c0.1,0.1,0.4,0.2,0.9,0.3c1.2,0.3,2,0.5,2.6,0.8c0.5,0.3,0.9,0.6,1.1,1c0.2,0.4,0.4,0.9,0.4,1.4c0,0.6-0.2,1.2-0.5,1.7
		c-0.3,0.5-0.7,0.9-1.3,1.1c-0.6,0.3-1.3,0.4-2.1,0.4c-1.5,0-2.5-0.3-3.1-0.9C918.1,34,917.7,33.3,917.7,32.3"/>
	<polygon class="st1" points="927,26.1 930.6,26.1 932,31.8 933.4,26.1 937,26.1 937,35.4 934.8,35.4 934.8,28.3 933.1,35.4 
		931.1,35.4 929.4,28.3 929.4,35.4 927,35.4 	"/>
</g>
</svg>
