<?xml version="1.0" encoding="utf-8"?>
<!-- Generator: Adobe Illustrator 21.0.0, SVG Export Plug-In . SVG Version: 6.00 Build 0)  -->
<svg version="1.1" id="Слой_1" xmlns="http://www.w3.org/2000/svg" xmlns:xlink="http://www.w3.org/1999/xlink" x="0px" y="0px"
	 viewBox="0 0 87.5 66.4" style="enable-background:new 0 0 87.5 66.4;" xml:space="preserve" fill="#37a148">
<style type="text/css">
	.st0{clip-path:url(#SVGID_2_);}
</style>
<g>
	<defs>
		<rect id="SVGID_1_" y="0" width="87.5" height="66.4"/>
	</defs>
	<clipPath id="SVGID_2_">
		<use xlink:href="#SVGID_1_"  style="overflow:visible;"/>
	</clipPath>
	<path class="st0" d="M85.8,0H68c-1,0-1.8,0.8-1.8,1.8v8.4H51.7V4.3c0-1-0.8-1.8-1.8-1.8H36.5c-1,0-1.8,0.8-1.8,1.8v5.9H21.9
		C20.7,3.1,13-1.3,5.9,2.2c-2.8,1.4-4.9,4-5.6,7C-1.2,15.8,3,21.7,9,22.8v20.7H3c-1,0-1.8,0.8-1.8,1.8v19.3c0,1,0.8,1.8,1.8,1.8
		h17.4c1,0,1.8-0.8,1.8-1.8V57h10.1c1.1,6,6.8,9.9,12.7,8.9c5.8-1,9.9-6.4,9.1-12.3c-0.8-6.3-6.8-10.6-13-9.5
		c-4.5,0.8-8,4.4-8.9,8.9H22.3v-7.7c0-1-0.8-1.8-1.8-1.8H13V22.8c4.4-0.8,7.9-4.2,8.8-8.6h12.9v5.4c0,1,0.8,1.8,1.8,1.8h13.4
		c1,0,1.8-0.8,1.8-1.8v-5.4h14.5v7.9c0,1,0.8,1.8,1.8,1.8h17.8c1,0,1.8-0.8,1.8-1.8V1.8C87.5,0.8,86.7,0,85.8,0"/>
</g>
</svg>
