<?xml version="1.0" encoding="utf-8"?>
<!-- Generator: Adobe Illustrator 21.0.0, SVG Export Plug-In . SVG Version: 6.00 Build 0)  -->
<svg version="1.1" id="Layer_1" xmlns="http://www.w3.org/2000/svg" xmlns:xlink="http://www.w3.org/1999/xlink" x="0px" y="0px"
	 viewBox="0 0 29.2 24.2" style="enable-background:new 0 0 29.2 24.2;" xml:space="preserve">
<style type="text/css">
	.st0{fill:#37A148;}
	.st1{fill:none;stroke:#37A148;stroke-linecap:round;stroke-linejoin:round;stroke-miterlimit:10;}
	.st2{fill:#FFFFFF;}
</style>
<g>
	<g>
		<g>
			<circle class="st0" cx="5.8" cy="13.8" r="1.2"/>
			<circle class="st0" cx="11.9" cy="13.8" r="1.2"/>
		</g>
	</g>
</g>
<g>
	<g>
		<g>
			<circle class="st0" cx="5.7" cy="18.7" r="1.2"/>
			<circle class="st0" cx="17.7" cy="18.7" r="1.2"/>
			<circle class="st0" cx="12" cy="18.7" r="1.2"/>
		</g>
	</g>
</g>
<path class="st1" d="M23.1,17.3v4.2c0,1.3-1,2.3-2.3,2.3h-18c-1.3,0-2.3-1-2.3-2.3V9.6c0-1.3,1-2.3,2.3-2.3h8.5"/>
<path class="st0" d="M5.8,9.9L5.8,9.9c-0.6,0-1.1-0.5-1.1-1.1V5.2c0-0.6,0.5-1.1,1.1-1.1h0c0.6,0,1.1,0.5,1.1,1.1v3.7
	C6.8,9.4,6.3,9.9,5.8,9.9z"/>
<g>
	<path class="st0" d="M21.2,0c-4.4,0-8,3.6-8,8s3.6,8,8,8s8-3.6,8-8S25.6,0,21.2,0z"/>
	<path class="st2" d="M20.2,11.3l-3-3l1.5-1.5l1.5,1.5l3.5-3.5l1.5,1.5L20.2,11.3z"/>
</g>
</svg>
