<?xml version="1.0" encoding="utf-8"?>
<!-- Generator: Adobe Illustrator 21.0.0, SVG Export Plug-In . SVG Version: 6.00 Build 0)  -->
<svg version="1.1" id="Layer_1" xmlns="http://www.w3.org/2000/svg" xmlns:xlink="http://www.w3.org/1999/xlink" x="0px" y="0px"
	 viewBox="0 0 23.4 22.4" style="enable-background:new 0 0 23.4 22.4;" xml:space="preserve">
<style type="text/css">
	.st0{fill:#37A148;}
	.st1{fill:none;stroke:#37A148;stroke-width:1.2;stroke-linecap:round;stroke-linejoin:round;stroke-miterlimit:10;}
</style>
<path class="st0" d="M9.3,14.1L5.5,9.8l2-2l2.4,2.6L16.4,4l1.5,1.7L9.3,14.1z"/>
<path class="st1" d="M19.1,17.5H4.3c-2,0-3.7-1.7-3.7-3.7V4.3c0-2,1.7-3.7,3.7-3.7h14.8c2,0,3.7,1.7,3.7,3.7v9.5
	C22.8,15.8,21.1,17.5,19.1,17.5z"/>
<path class="st0" d="M21.4,22.2H6.2c-0.5,0-0.9-0.4-0.9-0.9v0c0-0.5,0.4-0.9,0.9-0.9h15.2c0.5,0,0.9,0.4,0.9,0.9v0
	C22.2,21.8,21.8,22.2,21.4,22.2z"/>
<circle class="st0" cx="2.3" cy="21.2" r="1.2"/>
</svg>
