<?xml version="1.0" encoding="utf-8"?>
<!-- Generator: Adobe Illustrator 21.0.0, SVG Export Plug-In . SVG Version: 6.00 Build 0)  -->
<svg version="1.1" id="Layer_1" xmlns="http://www.w3.org/2000/svg" xmlns:xlink="http://www.w3.org/1999/xlink" x="0px" y="0px"
	 viewBox="0 0 21.3 18.2" style="enable-background:new 0 0 21.3 18.2;" xml:space="preserve">
<style type="text/css">
	.st0{fill:none;stroke:#37A148;stroke-width:1.2;stroke-linecap:round;stroke-linejoin:round;stroke-miterlimit:10;}
	.st1{fill-rule:evenodd;clip-rule:evenodd;fill:#37A148;}
</style>
<path class="st0" d="M7,1.7c0.2,0,0.3-0.1,0.3-0.3V0.6h4.1v0.9c0,0.2,0.1,0.3,0.3,0.3 M18,6V5.2c0-0.9-0.8-1.7-1.7-1.7H2.3
	c-0.9,0-1.7,0.8-1.7,1.7v9.1 M0.6,14.5c0,0.9,0.8,1.7,1.7,1.7h7.2"/>
<path class="st1" d="M16.1,18.2c2.9,0,5.2-2.3,5.2-5.2S19,7.9,16.1,7.9s-5.2,2.3-5.2,5.2S13.2,18.2,16.1,18.2z M16.9,15.3
	c0,0.4-0.4,0.8-0.8,0.8c-0.5,0-0.8-0.3-0.8-0.8V13c0-0.4,0.4-0.8,0.8-0.8c0.5,0,0.8,0.3,0.8,0.8V15.3z M16.1,10.1
	c0.5,0,0.8,0.4,0.8,0.8s-0.4,0.8-0.8,0.8c-0.5,0-0.8-0.4-0.8-0.8C15.3,10.4,15.6,10.1,16.1,10.1z"/>
</svg>
