<?xml version="1.0" encoding="utf-8"?>
<!-- Generator: Adobe Illustrator 21.0.0, SVG Export Plug-In . SVG Version: 6.00 Build 0)  -->
<svg version="1.1" id="Слой_1" xmlns="http://www.w3.org/2000/svg" xmlns:xlink="http://www.w3.org/1999/xlink" x="0px" y="0px"
	 viewBox="0 0 24.4 21.3" style="enable-background:new 0 0 24.4 21.3;" xml:space="preserve">
<style type="text/css">
	.st0{clip-path:url(#SVGID_2_);fill:#37A148;}
</style>
<g>
	<defs>
		<rect id="SVGID_1_" y="0" width="24.4" height="21.3"/>
	</defs>
	<clipPath id="SVGID_2_">
		<use xlink:href="#SVGID_1_"  style="overflow:visible;"/>
	</clipPath>
	<path class="st0" d="M24.4,6.1L23.5,0l-6.1,1.7c-0.4,0.1-0.7,0.6-0.6,1c0.1,0.4,0.6,0.7,1,0.6l3-0.9l-5.5,8.6L12,6.5l-4.3,9.1
		l-3-2.8l-3.3,5.9V0.1H0v21.2h22.9V20H2.6l2.6-4.5l3.1,2.9l4.1-8.7l3.2,4.3l6.8-10.7l0.5,3.1c0.1,0.4,0.4,0.7,0.8,0.7
		c0,0,0.1,0,0.1,0C24.2,7,24.5,6.6,24.4,6.1"/>
</g>
</svg>
