<?xml version="1.0" encoding="utf-8"?>
<!-- Generator: Adobe Illustrator 21.0.0, SVG Export Plug-In . SVG Version: 6.00 Build 0)  -->
<svg version="1.1" id="Слой_1" xmlns="http://www.w3.org/2000/svg" xmlns:xlink="http://www.w3.org/1999/xlink" x="0px" y="0px"
	 viewBox="0 0 30.2 22.2" style="enable-background:new 0 0 30.2 22.2;" xml:space="preserve">
<style type="text/css">
	.st0{clip-path:url(#SVGID_2_);fill:none;stroke:#37A148;stroke-linecap:round;stroke-linejoin:round;stroke-miterlimit:10;}
	.st1{fill:#37A148;}
	.st2{font-family:'Arial-BoldMT';}
	.st3{font-size:6.0875px;}
	.st4{clip-path:url(#SVGID_4_);fill:#37A148;}
</style>
<g>
	<defs>
		<rect id="SVGID_1_" y="0" width="30.2" height="22.2"/>
	</defs>
	<clipPath id="SVGID_2_">
		<use xlink:href="#SVGID_1_"  style="overflow:visible;"/>
	</clipPath>
	<path class="st0" d="M12.2,19.7H1c-0.3,0-0.5-0.2-0.5-0.5V1c0-0.3,0.2-0.5,0.5-0.5h24.7c0.3,0,0.5,0.2,0.5,0.5v8.5"/>
	<line class="st0" x1="0.5" y1="4.8" x2="26.2" y2="4.8"/>
	<line class="st0" x1="2.3" y1="2.6" x2="7.4" y2="2.6"/>
	<line class="st0" x1="21.7" y1="2.6" x2="24.1" y2="2.6"/>
</g>
<text transform="matrix(1 0 0 1 5.9707 14.1078)" class="st1 st2 st3">CRM</text>
<g>
	<defs>
		<rect id="SVGID_3_" y="0" width="30.2" height="22.2"/>
	</defs>
	<clipPath id="SVGID_4_">
		<use xlink:href="#SVGID_3_"  style="overflow:visible;"/>
	</clipPath>
	<path class="st4" d="M21.7,16c-0.4-0.4-0.9-0.4-1.3,0l-4.6,4.6c-0.4,0.4-0.4,0.9,0,1.3c0.4,0.4,0.9,0.4,1.3,0l4-3.9l1.9,1.9
		c0.4,0.4,0.9,0.4,1.3,0l3.7-3.7l0.5,0.6c0.1,0.1,0.3,0.2,0.5,0.2c0,0,0.1,0,0.1,0c0.3-0.1,0.5-0.3,0.6-0.6l0.5-2.9
		c0.1-0.4-0.2-0.7-0.6-0.8c0,0-0.1,0-0.1,0c0,0-0.1,0-0.1,0l-2.9,0.5c-0.3,0.1-0.6,0.3-0.6,0.6c0,0.2,0.1,0.4,0.2,0.6l0.6,0.6l-3,3
		L21.7,16z"/>
</g>
</svg>
