<?xml version="1.0" encoding="utf-8"?>
<!-- Generator: Adobe Illustrator 21.0.0, SVG Export Plug-In . SVG Version: 6.00 Build 0)  -->
<svg version="1.1" id="Layer_1" xmlns="http://www.w3.org/2000/svg" xmlns:xlink="http://www.w3.org/1999/xlink" x="0px" y="0px"
	 viewBox="0 0 20.6 16.8" style="enable-background:new 0 0 20.6 16.8;" xml:space="preserve">
<style type="text/css">
	.st0{fill:#37A148;}
	.st1{fill:none;stroke:#37A148;stroke-width:1.2;stroke-linecap:round;stroke-linejoin:round;stroke-miterlimit:10;}
</style>
<path class="st0" d="M0,10.3v-1C0,9,0.2,8.9,0.4,8.9l6.2,0L5.8,8.1l1-1c0.1-0.1,0.4-0.1,0.5,0l2.4,2.4c0.1,0.1,0.1,0.4,0,0.5
	l-2.4,2.4c-0.1,0.1-0.4,0.1-0.5,0l-1-1l0.8-0.8l-6.2,0C0.2,10.6,0,10.5,0,10.3z"/>
<path class="st1" d="M9,1.7c0.2,0,0.3-0.1,0.3-0.3V0.6h4.1v0.9c0,0.2,0.1,0.3,0.3,0.3 M2.6,14.5c0,0.9,0.8,1.7,1.7,1.7h13.9
	c0.9,0,1.7-0.8,1.7-1.7V5.2c0-0.9-0.8-1.7-1.7-1.7H4.4c-0.9,0-1.7,0.8-1.7,1.7v1.1"/>
</svg>
