<?xml version="1.0" encoding="utf-8"?>
<!-- Generator: Adobe Illustrator 21.0.0, SVG Export Plug-In . SVG Version: 6.00 Build 0)  -->
<svg version="1.1" id="Слой_1" xmlns="http://www.w3.org/2000/svg" xmlns:xlink="http://www.w3.org/1999/xlink" x="0px" y="0px"
	 viewBox="0 0 25.5 27" style="enable-background:new 0 0 25.5 27;" xml:space="preserve">
<style type="text/css">
	.st0{clip-path:url(#SVGID_2_);fill:none;stroke:#37A148;stroke-width:0.456;stroke-miterlimit:10;}
	.st1{clip-path:url(#SVGID_2_);fill:#37A148;}
</style>
<g>
	<defs>
		<rect id="SVGID_1_" y="0" width="25.5" height="27"/>
	</defs>
	<clipPath id="SVGID_2_">
		<use xlink:href="#SVGID_1_"  style="overflow:visible;"/>
	</clipPath>
	<path class="st0" d="M9.9,14.2l3.6-2.4c0.2-0.1,0.4-0.1,0.6,0.1c0.1,0.2,0.1,0.4-0.1,0.6l-3.6,2.4c-0.1,0-0.1,0.1-0.2,0.1
		c-0.1,0-0.3-0.1-0.3-0.2C9.7,14.5,9.8,14.3,9.9,14.2z"/>
	<path class="st1" d="M9.4,16.5c-0.4,0-0.8-0.4-0.8-0.8V6.1c0-0.4,0.4-0.8,0.8-0.8h9.5c-0.2-0.3-0.5-0.5-0.7-0.8H9.4
		c-0.9,0-1.6,0.7-1.6,1.6v9.6c0,0.9,0.7,1.6,1.6,1.6h9.4c0.2-0.3,0.4-0.5,0.6-0.8H9.4z"/>
	<path class="st0" d="M9.4,16.5c-0.4,0-0.8-0.4-0.8-0.8V6.1c0-0.4,0.4-0.8,0.8-0.8h9.5c-0.2-0.3-0.5-0.5-0.7-0.8H9.4
		c-0.9,0-1.6,0.7-1.6,1.6v9.6c0,0.9,0.7,1.6,1.6,1.6h9.4c0.2-0.3,0.4-0.5,0.6-0.8H9.4z"/>
	<path class="st1" d="M17.4,12l-6.6-4.3c-0.2-0.1-0.4-0.1-0.6,0.1c-0.1,0.2-0.1,0.4,0.1,0.6l7,4.6l3.5-2.3c0-0.3,0-0.6-0.1-0.9
		L17.4,12z"/>
	<path class="st0" d="M17.4,12l-6.6-4.3c-0.2-0.1-0.4-0.1-0.6,0.1c-0.1,0.2-0.1,0.4,0.1,0.6l7,4.6l3.5-2.3c0-0.3,0-0.6-0.1-0.9
		L17.4,12z"/>
	<path class="st1" d="M10.2,14.9c0.1,0,0.2,0,0.2-0.1l3.6-2.4c0.2-0.1,0.2-0.4,0.1-0.6c-0.1-0.2-0.4-0.2-0.6-0.1l-3.6,2.4
		c-0.2,0.1-0.2,0.4-0.1,0.6C9.9,14.8,10,14.9,10.2,14.9"/>
	<path class="st0" d="M10.2,14.9c0.1,0,0.2,0,0.2-0.1l3.6-2.4c0.2-0.1,0.2-0.4,0.1-0.6c-0.1-0.2-0.4-0.2-0.6-0.1l-3.6,2.4
		c-0.2,0.1-0.2,0.4-0.1,0.6C9.9,14.8,10,14.9,10.2,14.9z"/>
	<path class="st1" d="M19.4,16.5c-0.2,0.3-0.4,0.5-0.6,0.8h1.9c0.2-0.3,0.3-0.5,0.5-0.8H19.4z"/>
	<path class="st1" d="M25.3,25.7l-6.1-6.6c0.6-0.6,1-1.2,1.5-1.8h-1.9c-0.3,0.4-0.7,0.8-1.1,1.2c0,0,0,0,0,0
		c-1.7,1.5-3.9,2.4-6.4,2.4c-5.3,0-9.7-4.4-9.7-9.7s4.4-9.7,9.7-9.7c2.7,0,5.2,1.1,6.9,2.9c0.2,0.3,0.5,0.5,0.7,0.8
		c1,1.3,1.7,2.8,1.9,4.5c0,0.3,0.1,0.6,0.1,0.9c0,0.2,0,0.4,0,0.6c0,0.2,0,0.3,0,0.5c0,0.3,0,0.5-0.1,0.8c-0.2,1.5-0.7,2.8-1.5,4
		h1.8c0.5-1,0.9-2,1.1-3.1c0.1-0.3,0.1-0.6,0.1-0.9c0-0.4,0.1-0.9,0.1-1.3c0-2.2-0.6-4.2-1.7-6c-0.2-0.3-0.4-0.5-0.6-0.8
		c-2.1-2.7-5.3-4.5-9-4.5C5,0,0,5,0,11.2s5,11.2,11.2,11.2c2.6,0,4.9-0.9,6.8-2.3l6.1,6.6c0.2,0.2,0.4,0.3,0.6,0.3
		c0.2,0,0.4-0.1,0.5-0.2C25.5,26.6,25.6,26.1,25.3,25.7"/>
</g>
</svg>
