<?xml version="1.0" encoding="utf-8"?>
<!-- Generator: Adobe Illustrator 21.0.0, SVG Export Plug-In . SVG Version: 6.00 Build 0)  -->
<svg version="1.1" id="Слой_1" xmlns="http://www.w3.org/2000/svg" xmlns:xlink="http://www.w3.org/1999/xlink" x="0px" y="0px"
	 viewBox="0 0 64 48.9" style="enable-background:new 0 0 64 48.9;" xml:space="preserve" fill='#37A148'>
<style type="text/css">
	.st0{clip-path:url(#37A148);}
</style>
<g>
	<defs>
		<rect id="SVGID_1_" y="0" width="64" height="48.9"/>
	</defs>
	<clipPath id="SVGID_2_">
		<use xlink:href="#SVGID_1_"  style="overflow:visible;"/>
	</clipPath>
	<path class="st0" d="M33.1,36.3c-1,0-1.9-0.5-2.4-1.2c-1.8,1.1-3.9,1.7-6.2,1.7c-6.9,0-12.4-5.6-12.4-12.4
		c0-6.9,5.6-12.4,12.4-12.4c2.3,0,4.4,0.6,6.2,1.7c0.5-0.7,1.4-1.2,2.4-1.2h8.7l2.6-2.6c0-0.1-0.1-0.2-0.2-0.4l-4.8-4.8
		c-0.3-0.3-0.9-0.4-1.3-0.1l-3.5,2.3c-1.5-0.9-3.1-1.5-4.8-2l-0.9-4.1c-0.1-0.5-0.5-0.8-1-0.8H21c-0.5,0-0.9,0.3-1,0.8l-0.9,4.1
		c-1.7,0.5-3.3,1.1-4.8,2l-3.5-2.3c-0.4-0.3-0.9-0.2-1.3,0.1L4.7,9.5c-0.3,0.3-0.4,0.9-0.1,1.3l2.3,3.5c-0.9,1.5-1.5,3.1-2,4.8
		L0.8,20C0.3,20.1,0,20.5,0,21v6.8c0,0.5,0.3,0.9,0.8,1l4.1,0.9c0.4,1.7,1.1,3.3,2,4.8l-2.3,3.6c-0.3,0.4-0.2,0.9,0.1,1.3l4.8,4.8
		c0.3,0.3,0.9,0.4,1.3,0.1l3.6-2.3c1.5,0.9,3.1,1.5,4.8,2l0.9,4.1c0.1,0.5,0.5,0.8,1,0.8h6.8c0.5,0,0.9-0.3,1-0.8l0.9-4.1
		c1.7-0.5,3.3-1.1,4.8-2l3.5,2.2c0.4,0.3,1,0.2,1.3-0.1c0.2-0.2,4.7-4.7,4.8-4.8c0.1-0.1,0.2-0.2,0.2-0.3l-2.6-2.7H33.1z"/>
	<path class="st0" d="M56.4,20c-2,0-3.7,1.4-4.2,3.3H36.9c-0.5,0-1,0.5-1,1c0,0.6,0.5,1,1,1h15.3c0.4,1.9,2.1,3.3,4.2,3.3
		c2.4,0,4.3-1.9,4.3-4.3S58.8,20,56.4,20"/>
	<path class="st0" d="M59.6,35.5c-2,0-3.7,1.4-4.2,3.3H50l-6.3-6.3c-0.2-0.1-0.4-0.2-0.7-0.2H33c-0.6,0-1,0.5-1,1s0.4,1,1,1h9.6
		l6.3,6.3c0.2,0.2,0.5,0.3,0.7,0.3h5.8c0.5,1.9,2.2,3.3,4.2,3.3c2.4,0,4.3-1.9,4.3-4.3C63.9,37.4,62,35.5,59.6,35.5"/>
	<path class="st0" d="M33.1,14.4c-0.5,0-1,0.5-1,1s0.5,1,1,1H43c0.3,0,0.5-0.1,0.7-0.3L50,9.8h5.5c0.5,1.9,2.2,3.3,4.2,3.3
		c2.4,0,4.3-1.9,4.3-4.3s-1.9-4.3-4.3-4.3c-2,0-3.8,1.4-4.2,3.3h-5.9c-0.3,0-0.5,0.1-0.7,0.3l-6.3,6.3H33.1z"/>
</g>
</svg>
