<?xml version="1.0" encoding="utf-8"?>
<!-- Generator: Adobe Illustrator 21.0.0, SVG Export Plug-In . SVG Version: 6.00 Build 0)  -->
<svg version="1.1" id="Слой_1" xmlns="http://www.w3.org/2000/svg" xmlns:xlink="http://www.w3.org/1999/xlink" x="0px" y="0px"
	 viewBox="0 0 458.1 128" style="enable-background:new 0 0 458.1 128;" xml:space="preserve">
<style type="text/css">
	.st0{clip-path:url(#SVGID_2_);fill:#506472;}
</style>
<g>
	<defs>
		<rect id="SVGID_1_" x="0" width="458.1" height="128"/>
	</defs>
	<clipPath id="SVGID_2_">
		<use xlink:href="#SVGID_1_"  style="overflow:visible;"/>
	</clipPath>
	<path class="st0" d="M94.7,21.2c2-2.4,3.4-4.9,3.4-7.6c0-4.5-3.7-7.3-8.2-7.3c-4.2,0-7.7,2.7-8.3,7.3l-6.1-1.5
		C76.5,4.7,82.6,0,89.8,0c8,0,14.4,5.5,14.4,13.6c0,4.5-2,8.5-5,11.9c-5.9,6.9-6.1,7.2-12.5,14.7h17.7v6.3H75.9v-2.7L94.7,21.2z"/>
	<path class="st0" d="M76,77.7l0.1-23.1h50.2c0.5,3.2,0.8,6.6,0.8,9.9c0,35-28.5,63.5-63.5,63.5C28.5,128,0,99.5,0,64.5
		S28.5,1,63.5,1v22.4c-22.7,0-41.1,18.4-41.1,41.1s18.4,41.1,41.1,41.1c18,0,33.4-11.7,39-27.9"/>
	<path class="st0" d="M174.1,61.7c0-16.7,1-23.5,3.8-27.6c3.5-5.1,10.2-7.9,18.9-7.9c7.7,0,14.2,2.3,17.6,6.3
		c2.6,2.9,3.7,6.9,3.7,13.2v3.8h-14.2c-0.2-7.2-0.4-8.4-1.4-10c-1.1-1.7-3.3-2.8-5.9-2.8c-2.8,0-5.1,1.2-6.1,3.1
		c-1.4,2.9-1.8,8.1-1.8,22c0,11.4,0.5,18.1,1.4,20.9c0.8,2.4,3.2,3.7,6.3,3.7c5.5,0,7.1-2.8,7.5-13.4H218c-0.1,8.9-0.6,12.5-2.5,16
		c-2.6,5-9.5,7.8-19.4,7.8c-11.5,0-18.5-4.2-20.8-12.4C174.5,80.9,174.1,72.9,174.1,61.7"/>
	<path class="st0" d="M226.2,27.2h22c10.5,0,12.4,0.4,16.1,3.4c3.3,2.7,4.9,7.2,4.9,13.8c0,5.5-1.1,9.8-3.3,12.6
		c-1.8,2.5-4.1,3.6-8.9,4.7c9.2,1.1,12.3,5.4,12.4,16.9c0,1.8,0.2,5.6,0.4,10.3c0.2,3.3,0.3,3.9,1.1,6.8h-15.1
		c-0.6-4.5-0.6-4.6-0.6-13c0-8.2-0.6-12.3-2.3-14.2c-1.1-1.2-2.4-1.5-6-1.5h-6.9v28.7h-14V27.2z M245.9,56.9c6.4,0,8.7-2.7,8.7-9.9
		c0-3.8-1-6.9-2.7-8.3c-1.2-1-2.1-1.2-5.6-1.2h-6.2v19.5H245.9z"/>
	<path class="st0" d="M278.1,61.4c0-16,0.7-21.5,3.5-26.3c3.3-5.9,10.1-8.9,19.8-8.9c10.7,0,18,4,20.8,11.5c1.4,3.7,2,10.9,2,24.1
		c0,14.4-0.7,21.2-2.7,25.1c-3.3,6.5-10.3,10-20,10c-9.7,0-16.4-3-19.8-8.9C278.9,83.1,278.1,77.5,278.1,61.4 M301.2,86.3
		c4.2,0,6.8-2,7.6-6.1c0.5-2.6,0.9-11.5,0.9-21.1c0-10.3-0.5-16.3-1.5-18.8c-0.9-2.3-3.6-3.7-7-3.7c-3.9,0-6.6,1.7-7.4,4.7
		c-0.7,2.9-1.1,10-1.1,20.9c0,9.1,0.3,15,0.8,17.9C294.3,84.2,296.8,86.3,301.2,86.3"/>
	<path class="st0" d="M328.8,27.2h14.3l4.7,25c1.6,9.1,2,17.3,2.8,33.1c2.9-21,3.8-26.8,5.1-33.1l5.4-25h16l5.1,25
		c2.4,11.4,2.9,19.1,3.6,33.1c0.9-11.6,1.8-20.1,4.1-33.1l4.5-25h12.5l-13.8,68.5h-15.5l-6.5-31.8c-1.1-5.5-2.5-18.5-2.8-25.5
		c-2,15.4-2.1,17.6-3.8,25.5l-6.7,31.8H342L328.8,27.2z"/>
	<path class="st0" d="M413,27.2h19.1c11.1,0,14.5,0.6,18,3.1c4.4,3.2,6.5,8.7,7.4,19.6c0.3,4.2,0.5,9.7,0.5,14.5
		c0,12.3-0.9,18.4-2.9,22.4c-2.9,5.8-9.5,9.1-18,9.1h-24.2L413,27.2z M433.4,85c4.9,0,7.6-1.1,8.6-3.7c1-2.7,1.3-6.7,1.3-17.9
		c0-12.2-0.4-17.6-1.5-21c-1-2.9-3.8-4.5-8-4.5h-6.4v47H433.4z"/>
	<rect x="148.7" y="0.3" class="st0" width="4.6" height="126.5"/>
</g>
</svg>
