<?xml version="1.0" encoding="utf-8"?>
<!-- Generator: Adobe Illustrator 21.0.0, SVG Export Plug-In . SVG Version: 6.00 Build 0)  -->
<svg version="1.1" id="Слой_1" xmlns="http://www.w3.org/2000/svg" xmlns:xlink="http://www.w3.org/1999/xlink" x="0px" y="0px"
	 viewBox="0 0 123.5 55.6" style="enable-background:new 0 0 123.5 55.6;" xml:space="preserve" fill="#37a148">
<style type="text/css">
	.st0{clip-path:url(#SVGID_2_);}
</style>
<g>
	<defs>
		<rect id="SVGID_1_" y="0" width="123.5" height="55.6"/>
	</defs>
	<clipPath id="SVGID_2_">
		<use xlink:href="#SVGID_1_"  style="overflow:visible;"/>
	</clipPath>
	<path class="st0" d="M27.2,31.7c-0.9-0.7-2-1.1-2.9-1.5c-0.9-0.4-1.6-0.7-2.2-1.1c-0.9-0.6-1-1.5-0.9-2.1c0.1-0.8,0.7-1.4,1.5-1.7
		c0.9-0.3,1.8-0.2,2.7-0.1c0.8,0.1,1.5,0.4,2.2,0.8l0.3,0.2l0.3-0.7c0.2-0.5,0.4-0.9,0.5-1.3c0.1-0.2-0.1-0.5-0.3-0.6l-0.3-0.2
		c-0.4-0.2-0.8-0.4-1.3-0.5c-0.5-0.1-0.9-0.2-1.4-0.3c-0.1,0-0.3,0-0.4-0.1v-2.8h-2.4v2.9h-0.2c-0.9,0.2-1.8,0.6-2.5,1.1
		c-1.1,0.9-1.8,2.3-1.8,3.7s0.6,2.6,1.6,3.5c0.8,0.7,1.8,1.2,3.1,1.7c0.9,0.4,1.7,0.7,2.4,1.3c0.8,0.6,1.2,1.6,1.1,2.5
		c-0.1,0.9-0.7,1.6-1.6,2c-0.4,0.2-1,0.3-1.5,0.3c-1.3,0.1-2.5-0.3-3.9-1l-0.7-0.3l-0.3,0.8c-0.1,0.4-0.3,0.8-0.4,1.1
		c-0.1,0.3,0,0.5,0.2,0.7c0.7,0.4,1.6,0.7,2.4,0.9c0.4,0.1,0.9,0.1,1.3,0.2c0.1,0,0.3,0,0.4,0.1v2.9h2.4v-3c0.1,0,0.2-0.1,0.3-0.1
		c0.4-0.1,0.7-0.2,1.1-0.4c1.9-0.8,3-2.2,3.2-4C29.7,34.6,28.9,32.9,27.2,31.7"/>
	<path class="st0" d="M103.1,31.7c-0.9-0.7-2-1.1-2.9-1.5c-0.9-0.4-1.6-0.7-2.2-1.1c-0.9-0.6-1-1.5-0.9-2.1c0.1-0.8,0.7-1.4,1.5-1.7
		c0.9-0.3,1.8-0.2,2.7-0.1c0.8,0.1,1.5,0.4,2.2,0.8l0.3,0.2l0.3-0.7c0.2-0.5,0.4-0.9,0.5-1.3c0.1-0.2-0.1-0.5-0.3-0.6l-0.3-0.2
		c-0.4-0.2-0.8-0.4-1.3-0.5c-0.5-0.1-0.9-0.2-1.4-0.3c-0.1,0-0.3,0-0.4-0.1v-2.8h-2.3v2.9h-0.2c-0.9,0.2-1.8,0.6-2.5,1.1
		c-1.1,0.9-1.8,2.3-1.8,3.7s0.6,2.6,1.6,3.5c0.8,0.7,1.8,1.2,3.1,1.7c0.9,0.4,1.7,0.7,2.4,1.3c0.8,0.6,1.2,1.6,1.1,2.5
		s-0.7,1.6-1.6,2c-0.4,0.2-1,0.3-1.5,0.3c-1.3,0.1-2.5-0.3-3.9-1l-0.7-0.4l-0.3,0.8c-0.1,0.4-0.3,0.8-0.4,1.1
		c-0.1,0.3,0,0.5,0.2,0.7c0.7,0.4,1.6,0.7,2.4,0.9c0.4,0.1,0.9,0.1,1.3,0.2c0.1,0,0.3,0,0.4,0.1V44h2.4v-3c0.1,0,0.2-0.1,0.3-0.1
		c0.4-0.1,0.7-0.2,1.1-0.4c1.9-0.8,3-2.2,3.2-4C105.5,34.6,104.8,32.9,103.1,31.7"/>
	<path class="st0" d="M107.1,9.4c-1-0.3-1.9-0.9-2.6-1.6c-3.6-3.6-7.4-6.5-12.4-7.6c-3.4-0.7-6.4,0.3-8.7,3
		c-0.9,1.1-1.8,2.3-2.4,3.5c-0.7,1.5-2.4,2.3-4,2c-3-0.7-5.8-1.9-8.5-3.5c-1.9-1.2-4.2-1.9-6.6-2h-0.5c-2.4,0.1-4.7,0.8-6.6,2
		c-2.6,1.6-5.5,2.8-8.5,3.5c-1.6,0.4-3.3-0.5-4-2c-0.6-1.3-1.5-2.4-2.4-3.5c-2.3-2.7-5.3-3.7-8.7-3c-5,1-8.8,4-12.4,7.6
		c-0.7,0.7-1.6,1.3-2.6,1.6C6.9,12.5,0.2,21.3,0,31.6c-0.3,13.2,10.5,24,23.7,24c8.4,0,15.1-4.4,19.6-11.2c0.7-1.1,1.7-2,2.9-2.5
		c0.9-0.5,1.9-0.9,2.1-1h0.1c1.2-0.8,2.4-1.8,3.2-3.1c0.5-0.9,0.9-1.8,1.1-2.7c0.6-2.9,3-5,5.9-5.3c1-0.1,1.9-0.2,2.9-0.2H62
		c1,0,1.9,0.1,2.9,0.2c2.9,0.4,5.3,2.5,5.9,5.3c0.2,0.9,0.5,1.8,1.1,2.7c0.8,1.3,2,2.3,3.2,3.1h0.1c0.2,0.1,1.1,0.6,2.1,1
		c1.2,0.6,2.2,1.4,2.9,2.5c4.5,6.7,11.2,11.2,19.6,11.2c13.2,0,23.9-10.8,23.7-24.1C123.1,21.3,116.4,12.5,107.1,9.4 M40.4,38.2
		c-2.5,6.8-9.1,11.6-16.7,11.6c-9.9,0-17.9-8-17.9-17.9c0-8.8,6.4-16.2,14.9-17.6c1-0.2,2-0.3,3-0.3c9.9,0,17.9,8,17.9,17.9
		C41.6,34.1,41.2,36.2,40.4,38.2 M61.8,24.3h-0.5c-4.1-0.2-7.3-3.6-7.3-7.8s3.2-7.6,7.3-7.8h0.5c4.3,0,7.8,3.5,7.8,7.8
		S66.1,24.3,61.8,24.3 M99.5,49.8c-7.6,0-14.2-4.8-16.7-11.6c-0.7-2-1.2-4.1-1.2-6.3c0-9.9,8-17.9,17.9-17.9c1,0,2,0.1,3,0.3
		c8.4,1.4,14.9,8.8,14.9,17.6C117.4,41.8,109.4,49.8,99.5,49.8"/>
</g>
</svg>
