<?xml version="1.0" encoding="utf-8"?>
<!-- Generator: Adobe Illustrator 21.0.0, SVG Export Plug-In . SVG Version: 6.00 Build 0)  -->
<svg version="1.1" id="Слой_1" xmlns="http://www.w3.org/2000/svg" xmlns:xlink="http://www.w3.org/1999/xlink" x="0px" y="0px"
	 viewBox="0 0 18 22.8" style="enable-background:new 0 0 18 22.8;" xml:space="preserve">
<style type="text/css">
	.st0{clip-path:url(#SVGID_2_);fill:none;stroke:#37A148;stroke-linecap:round;stroke-linejoin:round;stroke-miterlimit:10;}
	.st1{clip-path:url(#SVGID_2_);fill:#37A148;}
</style>
<g>
	<defs>
		<rect id="SVGID_1_" y="0" width="18" height="22.8"/>
	</defs>
	<clipPath id="SVGID_2_">
		<use xlink:href="#SVGID_1_"  style="overflow:visible;"/>
	</clipPath>
	<path class="st0" d="M11.2,10c0-0.6,0.5-1.2,1-1.7c0.9-0.8,1.5-1.9,1.5-3.3c0-2.5-1.6-4.6-4.5-4.6c-2.9,0-4.5,2.1-4.5,4.6
		c0,1.3,0.5,2.5,1.5,3.3c0.5,0.5,1,1.1,1,1.7c0,0.6-0.2,1.2-1.9,1.8c-2.4,0.9-4.7,2-4.7,4v0.6c0,1,0.8,1.9,1.9,1.9h2.5"/>
	<path class="st1" d="M16.9,20.8l0.1-0.1l0,0l0,0c0.2-0.2,0.4-0.4,0.6-0.7c0.2-0.4,0.4-0.8,0.4-1.1c0-0.3-0.1-0.4-0.2-0.6l0,0
		l-0.8-0.6l0-0.1c0-0.2,0-0.4,0-0.5c0-0.2,0-0.4,0-0.5l0-0.1l0.8-0.6l0,0c0.2-0.1,0.2-0.3,0.2-0.6c0-0.3-0.1-0.7-0.4-1.1
		c-0.2-0.3-0.4-0.6-0.6-0.7c-0.2-0.2-0.4-0.3-0.5-0.3c-0.1,0-0.1,0-0.2,0.1l0,0l-0.9,0.4l-0.1-0.1c-0.3-0.2-0.6-0.4-0.9-0.5l-0.1,0
		l-0.1-1l0,0c0-0.2-0.1-0.4-0.4-0.5c-0.3-0.1-0.7-0.2-1.1-0.2c-0.5,0-0.9,0.1-1.1,0.2c-0.2,0.1-0.4,0.3-0.4,0.5v0l-0.1,1l-0.1,0
		c-0.3,0.1-0.6,0.3-0.9,0.5l-0.1,0.1l-0.9-0.4l0,0c-0.1,0-0.1-0.1-0.2-0.1c-0.2,0-0.3,0.1-0.5,0.2c-0.2,0.2-0.4,0.4-0.6,0.8
		c-0.2,0.4-0.4,0.8-0.4,1.1c0,0.3,0.1,0.4,0.2,0.6l0,0l0.8,0.6l0,0.1c0,0.2,0,0.4,0,0.5c0,0.2,0,0.4,0,0.5l0,0.1l-0.8,0.6l0,0
		c-0.2,0.1-0.3,0.4-0.2,0.8c0.1,0.3,0.2,0.6,0.3,0.9c0.2,0.3,0.4,0.6,0.6,0.8c0.2,0.2,0.4,0.2,0.5,0.2c0.1,0,0.1,0,0.2-0.1l0,0
		l0.9-0.4l0.1,0.1c0.3,0.2,0.6,0.4,0.9,0.5l0.1,0l0.1,1v0c0,0.2,0.1,0.4,0.4,0.5c0.3,0.1,0.7,0.2,1.1,0.2c0.5,0,0.8-0.1,1.1-0.2
		c0.2-0.1,0.4-0.3,0.4-0.5l0,0l0.1-1l0.1,0c0.3-0.1,0.6-0.3,0.9-0.5l0.1-0.1l0.9,0.4l0.3,0.1 M12.6,19.2c-1.1,0-2-0.9-2-2
		c0-1.1,0.9-2,2-2c1.1,0,2,0.9,2,2C14.6,18.3,13.7,19.2,12.6,19.2"/>
</g>
</svg>
