<?xml version="1.0" encoding="utf-8"?>
<!-- Generator: Adobe Illustrator 21.0.0, SVG Export Plug-In . SVG Version: 6.00 Build 0)  -->
<svg version="1.1" id="Слой_1" xmlns="http://www.w3.org/2000/svg" xmlns:xlink="http://www.w3.org/1999/xlink" x="0px" y="0px"
	 viewBox="0 0 19 27.1" style="enable-background:new 0 0 19 27.1;" xml:space="preserve">
<style type="text/css">
	.st0{clip-path:url(#SVGID_2_);fill:#37A148;}
	.st1{clip-path:url(#SVGID_2_);fill:none;stroke:#37A148;stroke-width:0.3;stroke-miterlimit:10;}
</style>
<g>
	<defs>
		<rect id="SVGID_1_" y="0" width="19" height="27.1"/>
	</defs>
	<clipPath id="SVGID_2_">
		<use xlink:href="#SVGID_1_"  style="overflow:visible;"/>
	</clipPath>
	<path class="st0" d="M12.5,25.3H6.9c-0.4,0-0.8-0.4-0.8-0.8v-3.7c-0.1-1.1-0.4-2.1-1-3c-0.1-0.1-0.2-0.2-0.3-0.3
		C0.4,15-1.2,9.2,1.4,4.7c2.5-4.2,8-5.8,12.3-3.6c4.7,2.4,6.4,8.2,3.9,12.8c-0.7,1.3-1.7,2.4-2.9,3.2c-0.1,0.1-0.2,0.2-0.3,0.3
		c-0.5,1-0.7,2-0.7,3.1v3.4C13.8,24.8,13.2,25.3,12.5,25.3 M7.8,24.4h4.3c0.4,0,0.8-0.4,0.8-0.8v-3c0-1.3,0.3-2.5,0.8-3.7
		c0.1-0.1,0.3-0.3,0.4-0.4c5.1-3.4,5.4-11.4-1.2-14.9c-0.9-0.5-2-0.7-3-0.7C1.1,1.2-1.9,11.3,4.4,16.3c0.3,0.3,0.7,0.5,1,0.6
		c0.1,0,0.1,0.1,0.2,0.1c0.8,1.1,1.3,2.4,1.3,3.8v2.8C7,24.1,7.3,24.4,7.8,24.4"/>
	<path class="st1" d="M12.5,25.3H6.9c-0.4,0-0.8-0.4-0.8-0.8v-3.7c-0.1-1.1-0.4-2.1-1-3c-0.1-0.1-0.2-0.2-0.3-0.3
		C0.4,15-1.2,9.2,1.4,4.7c2.5-4.2,8-5.8,12.3-3.6c4.7,2.4,6.4,8.2,3.9,12.8c-0.7,1.3-1.7,2.4-2.9,3.2c-0.1,0.1-0.2,0.2-0.3,0.3
		c-0.5,1-0.7,2-0.7,3.1v3.4C13.8,24.8,13.2,25.3,12.5,25.3z M7.8,24.4h4.3c0.4,0,0.8-0.4,0.8-0.8v-3c0-1.3,0.3-2.5,0.8-3.7
		c0.1-0.1,0.3-0.3,0.4-0.4c5.1-3.4,5.4-11.4-1.2-14.9c-0.9-0.5-2-0.7-3-0.7C1.1,1.2-1.9,11.3,4.4,16.3c0.3,0.3,0.7,0.5,1,0.6
		c0.1,0,0.1,0.1,0.2,0.1c0.8,1.1,1.3,2.4,1.3,3.8v2.8C7,24.1,7.3,24.4,7.8,24.4z"/>
	<path class="st0" d="M13,21.3H6.7c-0.2,0-0.4-0.2-0.4-0.4c0-0.2,0.2-0.4,0.4-0.4H13c0.2,0,0.4,0.2,0.4,0.4
		C13.5,21.1,13.3,21.3,13,21.3"/>
	<path class="st1" d="M13,21.3H6.7c-0.2,0-0.4-0.2-0.4-0.4c0-0.2,0.2-0.4,0.4-0.4H13c0.2,0,0.4,0.2,0.4,0.4
		C13.5,21.1,13.3,21.3,13,21.3z"/>
	<path class="st0" d="M9.9,21.3c-0.2,0-0.4-0.2-0.4-0.4v-10l-1.5,0c-0.4,0-0.8-0.2-0.9-0.5C6.7,9.8,7.3,9.1,7.8,8.6
		C8.1,8.2,8.6,8,9.1,8c0.5,0.1,0.9,0.3,1.2,0.8V10c1.3,0,1.8,0,1.8,0h0c0.2,0,0.4,0.2,0.4,0.4c0,0.2-0.2,0.4-0.4,0.4
		c0,0-0.5,0-1.8,0v10C10.3,21.1,10.1,21.3,9.9,21.3L9.9,21.3z M7.8,10C7.8,10.1,7.9,10.1,7.8,10c0.7,0,1.2,0,1.6,0V9.1
		C9.3,9,9.2,8.9,9.1,8.9C8.8,8.9,8.6,9,8.4,9.2C8.2,9.5,8,9.7,7.8,10"/>
	<path class="st1" d="M9.9,21.3c-0.2,0-0.4-0.2-0.4-0.4v-10l-1.5,0c-0.4,0-0.8-0.2-0.9-0.5C6.7,9.8,7.3,9.1,7.8,8.6
		C8.1,8.2,8.6,8,9.1,8c0.5,0.1,0.9,0.3,1.2,0.8V10c1.3,0,1.8,0,1.8,0h0c0.2,0,0.4,0.2,0.4,0.4c0,0.2-0.2,0.4-0.4,0.4
		c0,0-0.5,0-1.8,0v10C10.3,21.1,10.1,21.3,9.9,21.3L9.9,21.3z M7.8,10C7.8,10.1,7.9,10.1,7.8,10c0.7,0,1.2,0,1.6,0V9.1
		C9.3,9,9.2,8.9,9.1,8.9C8.8,8.9,8.6,9,8.4,9.2C8.2,9.5,8,9.7,7.8,10z"/>
	<path class="st0" d="M11.4,27h-3v-2.1c0-0.2,0.2-0.4,0.4-0.4c0.2,0,0.4,0.2,0.4,0.4v1.2h1.3v-1.2c0-0.2,0.2-0.4,0.4-0.4
		c0.2,0,0.4,0.2,0.4,0.4V27z"/>
	<path class="st1" d="M11.4,27h-3v-2.1c0-0.2,0.2-0.4,0.4-0.4c0.2,0,0.4,0.2,0.4,0.4v1.2h1.3v-1.2c0-0.2,0.2-0.4,0.4-0.4
		c0.2,0,0.4,0.2,0.4,0.4V27z"/>
</g>
</svg>
