<?xml version="1.0" encoding="utf-8"?>
<!-- Generator: Adobe Illustrator 21.0.0, SVG Export Plug-In . SVG Version: 6.00 Build 0)  -->
<svg version="1.1" id="Слой_1" xmlns="http://www.w3.org/2000/svg" xmlns:xlink="http://www.w3.org/1999/xlink" x="0px" y="0px"
	 viewBox="0 0 90.1 89.1" style="enable-background:new 0 0 90.1 89.1;" xml:space="preserve" fill="#37a148">
<style type="text/css">
	.st0{clip-path:url(#SVGID_2_);}
</style>
<g>
	<defs>
		<rect id="SVGID_1_" y="0" width="90.1" height="89.1"/>
	</defs>
	<clipPath id="SVGID_2_">
		<use xlink:href="#SVGID_1_"  style="overflow:visible;"/>
	</clipPath>
	<path class="st0" d="M76.1,41c3.2,3.2,8.3,3.2,11.6,0.1c3.2-3.2,3.2-8.3,0.1-11.6c-3.2-3.2-8.3-3.2-11.5-0.1
		c-1.6,1.6-2.4,3.6-2.4,5.7L60,38.6c0.5,1.3,0.8,2.6,1,4l13.9-3.5C75.2,39.9,75.6,40.5,76.1,41"/>
	<path class="st0" d="M45.2,73.1l-0.1-10.3h-0.2c-1.3,0.1-2.6,0.1-3.9,0l0.1,10.3c-3.8,1-6.4,4.7-6,8.8c0.5,4.5,4.5,7.7,9,7.2
		s7.7-4.5,7.2-9C51,76.6,48.5,73.9,45.2,73.1"/>
	<path class="st0" d="M24.6,48.5L15,51.9c-1.6-2.4-4.5-3.9-7.7-3.6c-4.5,0.5-7.7,4.5-7.2,9s4.5,7.7,9,7.2c4.4-0.5,7.6-4.4,7.2-8.8
		l9.6-3.4C25.4,51.2,24.9,49.9,24.6,48.5"/>
	<path class="st0" d="M36.9,26.6l-5.6-12.1c2.1-1.7,3.2-4.4,2.9-7.2c-0.5-4.5-4.5-7.7-9-7.2s-7.7,4.5-7.2,9s4.5,7.7,9,7.2
		c0.2,0,0.4-0.1,0.5-0.1l5.6,12.1C34.3,27.7,35.6,27.1,36.9,26.6"/>
	<path class="st0" d="M42.8,30.3c7.7,0,14,6.3,14,14s-6.3,14-14,14c-7.7,0-14-6.3-14-14S35,30.3,42.8,30.3"/>
</g>
</svg>
