<?xml version="1.0" encoding="utf-8"?>
<!-- Generator: Adobe Illustrator 21.0.0, SVG Export Plug-In . SVG Version: 6.00 Build 0)  -->
<svg version="1.1" id="Слой_1" xmlns="http://www.w3.org/2000/svg" xmlns:xlink="http://www.w3.org/1999/xlink" x="0px" y="0px"
	 viewBox="0 0 26.9 27.8" style="enable-background:new 0 0 26.9 27.8;" xml:space="preserve">
<style type="text/css">
	.st0{clip-path:url(#SVGID_2_);fill:#37A148;}
</style>
<g>
	<defs>
		<rect id="SVGID_1_" y="0" width="26.9" height="27.8"/>
	</defs>
	<clipPath id="SVGID_2_">
		<use xlink:href="#SVGID_1_"  style="overflow:visible;"/>
	</clipPath>
	<path class="st0" d="M26.9,8.3V5.8h-1.4c-0.1-0.6-0.4-1.2-0.8-1.8l1-1l-1.8-1.8l-1,1c-0.5-0.3-1.2-0.6-1.8-0.8V0h-2.6v1.4
		c-0.6,0.1-1.2,0.4-1.8,0.8l-1-1L13.9,3l1,1c-0.3,0.5-0.6,1.2-0.8,1.8h-1.4v2.6h1.4c0.1,0.6,0.4,1.2,0.8,1.8l-1,1l1.8,1.8l1-1
		c0.5,0.3,1.2,0.6,1.8,0.8v1.4h2.6v-1.4c0.6-0.1,1.2-0.4,1.8-0.8l1,1l1.8-1.8l-1-1C25,9.6,25.3,9,25.4,8.3H26.9z M20,10.3
		c-2,0.1-3.5-1.4-3.4-3.4c0.1-1.6,1.4-2.9,3-3c2-0.1,3.5,1.4,3.4,3.4C22.9,8.8,21.6,10.2,20,10.3"/>
	<path class="st0" d="M11.5,8.9C5,8.9,0.9,7.5,0.9,6.6c0-1,4.1-2.3,10.6-2.4c0.1-0.3,0.1-0.6,0.2-0.9C5.9,3.3,0,4.4,0,6.6
		c0,0.5,0.3,0.9,0.8,1.3L9,19v8.3l0,0.5h0.5l0.2,0l4.9-4.9V19l1.8-2.5C13.9,14.8,12.1,12.1,11.5,8.9"/>
</g>
</svg>
