<?xml version="1.0" encoding="utf-8"?>
<!-- Generator: Adobe Illustrator 21.0.0, SVG Export Plug-In . SVG Version: 6.00 Build 0)  -->
<svg version="1.1" id="Слой_1" xmlns="http://www.w3.org/2000/svg" xmlns:xlink="http://www.w3.org/1999/xlink" x="0px" y="0px"
	 viewBox="0 0 21.3 20.4" style="enable-background:new 0 0 21.3 20.4;" xml:space="preserve">
<style type="text/css">
	.st0{clip-path:url(#SVGID_2_);fill:none;stroke:#37A148;stroke-linecap:round;stroke-linejoin:round;stroke-miterlimit:10;}
	.st1{clip-path:url(#SVGID_2_);fill:#37A148;}
	.st2{clip-path:url(#SVGID_2_);fill:#FFFFFF;}
	.st3{clip-path:url(#SVGID_2_);fill:none;stroke:#FFFFFF;stroke-width:6.500000e-02;stroke-miterlimit:10;}
</style>
<g>
	<defs>
		<rect id="SVGID_1_" y="0" width="21.3" height="20.4"/>
	</defs>
	<clipPath id="SVGID_2_">
		<use xlink:href="#SVGID_1_"  style="overflow:visible;"/>
	</clipPath>
	<path class="st0" d="M7.2,17.8c0.2,1.2,1.2,2.1,2.5,2.1c1.2,0,2.3-0.9,2.5-2.1L7.2,17.8z"/>
	<path class="st0" d="M18.8,16.9L18.8,16.9c0.1-0.6-0.2-1.3-0.7-1.6c0,0-1.1-0.7-1.5-1.9c-1-3.2-0.4-8.1-4.1-9.9C12,3.2,11,3,11,3
		c-0.2,0-0.2-0.2-0.1-0.3c0,0,0.2-0.3,0.2-0.7c0-0.8-0.7-1.5-1.5-1.5C8.8,0.5,8.1,1.2,8.1,2c0,0.4,0.2,0.7,0.2,0.7
		C8.4,2.8,8.4,3,8.2,3c0,0-0.9,0.2-1.4,0.4C2.9,5,3.7,10,2.7,13.3l0,0c-0.4,1.2-1.5,1.9-1.5,1.9c-0.5,0.3-0.8,1-0.7,1.5l0,0.1
		c0.1,0.5,0.6,1,1.2,1l15.9,0C18.2,17.8,18.7,17.4,18.8,16.9z"/>
	<path class="st1" d="M21.3,10.2c0,3.5-2.8,6.3-6.3,6.3c-3.5,0-6.3-2.8-6.3-6.3s2.8-6.3,6.3-6.3C18.4,3.9,21.3,6.7,21.3,10.2"/>
	<rect x="14.6" y="7.1" class="st2" width="1.4" height="6.2"/>
	<rect x="14.6" y="7.1" class="st3" width="1.4" height="6.2"/>
	<rect x="12.1" y="9.5" class="st2" width="6.2" height="1.4"/>
	<rect x="12.1" y="9.5" class="st3" width="6.2" height="1.4"/>
</g>
</svg>
