<?xml version="1.0" encoding="utf-8"?>
<!-- Generator: Adobe Illustrator 21.0.0, SVG Export Plug-In . SVG Version: 6.00 Build 0)  -->
<svg version="1.1" id="Layer_1" xmlns="http://www.w3.org/2000/svg" xmlns:xlink="http://www.w3.org/1999/xlink" x="0px" y="0px"
	 viewBox="0 0 28.7 22.9" style="enable-background:new 0 0 28.7 22.9;" xml:space="preserve">
<style type="text/css">
	.st0{fill:none;stroke:#37A148;stroke-linecap:round;stroke-linejoin:round;stroke-miterlimit:10;}
	.st1{fill:#37A148;}
	.st2{fill:#FFFFFF;}
</style>
<g>
	<g>
		<path class="st0" d="M21.9,17.5v3.1c0,1-0.8,1.8-1.8,1.8H2.3c-1,0-1.8-0.8-1.8-1.8V9.8c0-1,0.8-1.8,1.8-1.8h4.2 M3.3,7.8V5.4
			c0-1,0.8-1.8,1.8-1.8h7.3 M6.5,8h5"/>
	</g>
	<path class="st0" d="M17.8,17.4"/>
	<path class="st0" d="M4.6,17.4"/>
	<path class="st0" d="M17.8,21.4"/>
	<path class="st0" d="M4.6,21.4"/>
</g>
<g>
	<path class="st1" d="M20.7,0c-4.4,0-8,3.6-8,8s3.6,8,8,8s8-3.6,8-8S25.2,0,20.7,0z"/>
	<path class="st2" d="M19.7,11.3l-3-3l1.5-1.5l1.5,1.5l3.5-3.5l1.5,1.5L19.7,11.3z"/>
</g>
<g id="Expanded">
	<g>
		<g>
			<g>
				<path class="st1" d="M11.2,17.1L3,11.9c-0.2-0.1-0.3-0.4-0.1-0.6C3,11,3.3,10.9,3.5,11.1l7.7,5l7.7-5c0.2-0.1,0.5-0.1,0.6,0.1
					c0.1,0.2,0.1,0.5-0.1,0.6L11.2,17.1z"/>
			</g>
		</g>
		<g>
			<g>
				<path class="st1" d="M2.8,19.4c-0.2,0-0.3-0.1-0.4-0.2c-0.1-0.2-0.1-0.5,0.1-0.6l4.2-2.8c0.2-0.1,0.5-0.1,0.6,0.1
					c0.1,0.2,0.1,0.5-0.1,0.6l-4.2,2.8C3,19.3,2.9,19.4,2.8,19.4z"/>
			</g>
		</g>
		<g>
			<path class="st1" d="M19.6,19.4c-0.1,0-0.2,0-0.3-0.1l-4.2-2.8c-0.2-0.1-0.3-0.4-0.1-0.6c0.1-0.2,0.4-0.3,0.6-0.1l4.2,2.8
				c0.2,0.1,0.3,0.4,0.1,0.6C19.9,19.3,19.7,19.4,19.6,19.4z"/>
		</g>
	</g>
</g>
</svg>
