<?xml version="1.0" encoding="utf-8"?>
<!-- Generator: Adobe Illustrator 21.0.0, SVG Export Plug-In . SVG Version: 6.00 Build 0)  -->
<svg version="1.1" id="Слой_1" xmlns="http://www.w3.org/2000/svg" xmlns:xlink="http://www.w3.org/1999/xlink" x="0px" y="0px"
	 viewBox="0 0 29 26.3" style="enable-background:new 0 0 29 26.3;" xml:space="preserve">
<style type="text/css">
	.st0{clip-path:url(#SVGID_2_);fill:#37A148;}
	.st1{clip-path:url(#SVGID_2_);fill:#FFFFFF;}
</style>
<g>
	<defs>
		<rect id="SVGID_1_" y="0" width="29" height="26.3"/>
	</defs>
	<clipPath id="SVGID_2_">
		<use xlink:href="#SVGID_1_"  style="overflow:visible;"/>
	</clipPath>
	<path class="st0" d="M21,0c-2.7,0-5.1,1.4-6.6,3.4C13.5,4.7,13,6.3,13,8c0,0.6,0.1,1.3,0.2,1.9c0.6,2.3,2.1,4.3,4.3,5.3
		c1.1,0.5,2.3,0.8,3.5,0.8c1,0,2-0.2,2.9-0.5c3-1.2,5.1-4.1,5.1-7.5C29,3.6,25.4,0,21,0"/>
	<polygon class="st1" points="20,11.3 17,8.3 18.5,6.8 20,8.3 23.5,4.8 25,6.3 	"/>
	<path class="st0" d="M16.4,15.8c-0.3,2-2.6,3.8-4.2,4c-3.4,0.5-6.3-2.4-5.8-5.8c0.3-2.1,2.1-3.9,4.2-4.2c0.4-0.1,0.8-0.1,1.2,0V3.7
		L9.3,3.4v2.2c-1.1,0.3-2.1,0.7-3,1.3L4.8,5.3L1.9,8.2l1.7,1.7c-0.5,0.8-0.9,1.9-1.2,2.9H0v4.2h2.3c0.2,1,0.6,2,1.2,2.9l-1.7,1.7
		l2.9,2.9l1.7-1.7c0.8,0.5,1.9,0.9,2.9,1.2v2.3h4.2V24c1-0.2,2-0.6,2.9-1.2l1.7,1.7l2.9-2.9l-1.7-1.7c0.5-0.8,0.9-1.7,1.2-2.7
		L16.4,15.8C16.5,15.9,16.5,15.9,16.4,15.8"/>
</g>
</svg>
