<?xml version="1.0" encoding="utf-8"?>
<!-- Generator: Adobe Illustrator 21.0.0, SVG Export Plug-In . SVG Version: 6.00 Build 0)  -->
<svg version="1.1" id="Слой_1" xmlns="http://www.w3.org/2000/svg" xmlns:xlink="http://www.w3.org/1999/xlink" x="0px" y="0px"
	 viewBox="0 0 21.6 21.8" style="enable-background:new 0 0 21.6 21.8;" xml:space="preserve">
<style type="text/css">
	.st0{clip-path:url(#SVGID_2_);fill:none;stroke:#37A148;stroke-linecap:round;stroke-linejoin:round;stroke-miterlimit:10;}
	.st1{clip-path:url(#SVGID_2_);fill:#37A148;}
	.st2{clip-path:url(#SVGID_2_);fill:#FFFFFF;}
</style>
<g>
	<defs>
		<rect id="SVGID_1_" y="0" width="21.6" height="21.8"/>
	</defs>
	<clipPath id="SVGID_2_">
		<use xlink:href="#SVGID_1_"  style="overflow:visible;"/>
	</clipPath>
	<path class="st0" d="M0.5,3.7v6.6c0,3.6,1.6,7,4.3,9.1c1.1,0.8,2.2,1.4,3.4,1.8c1.2-0.4,2.3-1,3.4-1.8c2.7-2.1,4.3-5.5,4.3-9.1V3.7
		c-4.5-0.1-6.9-2-7.7-2.8C7.5,1.7,5,3.6,0.5,3.7z"/>
	<line class="st0" x1="8.2" y1="1.1" x2="8.2" y2="21.3"/>
	<path class="st1" d="M16.4,0c-2.9,0-5.2,2.4-5.2,5.2c0,2.9,2.4,5.2,5.2,5.2s5.2-2.4,5.2-5.2C21.6,2.4,19.3,0,16.4,0"/>
	<polygon class="st2" points="15.7,7.4 13.8,5.4 14.7,4.5 15.7,5.4 18,3.1 19,4.1 	"/>
</g>
</svg>
