<?xml version="1.0" encoding="utf-8"?>
<!-- Generator: Adobe Illustrator 21.0.0, SVG Export Plug-In . SVG Version: 6.00 Build 0)  -->
<svg version="1.1" id="Layer_2" xmlns="http://www.w3.org/2000/svg" xmlns:xlink="http://www.w3.org/1999/xlink" x="0px" y="0px"
	 viewBox="0 0 8.1 7.9" style="enable-background:new 0 0 8.1 7.9;" xml:space="preserve">
<style type="text/css">
	.st0{fill:#EDBE31;}
</style>
<g>
	<g>
		<g>
			<g>
				<g>
					<path class="st0" d="M0.1,3.3C-0.1,3.1,0,3,0.2,2.8l2-0.3c0.3,0,0.6-0.3,0.7-0.5l0.9-1.9c0.1-0.2,0.3-0.2,0.4,0l1,1.9
						c0.1,0.2,0.4,0.4,0.7,0.5l2,0.3C8.2,2.8,8.2,3,8,3.3L6.6,4.8C6.4,5,6.3,5.3,6.4,5.6l0.4,2c0,0.3-0.1,0.4-0.3,0.2l-1.9-1
						C4.4,6.7,4,6.7,3.8,6.8L2,7.8c-0.2,0.1-0.4,0-0.3-0.2L2,5.5c0-0.3-0.1-0.6-0.3-0.8L0.1,3.3z"/>
				</g>
			</g>
		</g>
	</g>
</g>
</svg>
