<?xml version="1.0" encoding="utf-8"?>
<!-- Generator: Adobe Illustrator 21.0.0, SVG Export Plug-In . SVG Version: 6.00 Build 0)  -->
<svg version="1.1" id="Layer_2" xmlns="http://www.w3.org/2000/svg" xmlns:xlink="http://www.w3.org/1999/xlink" x="0px" y="0px"
	 viewBox="0 0 8.1 7.9" style="enable-background:new 0 0 8.1 7.9;" xml:space="preserve">
<style type="text/css">
	.st0{fill:#6A97C6;}
	.st1{fill:#EDBE31;}
</style>
<path class="st0" d="M8,3.2C8.2,3,8.1,2.8,7.9,2.8l-2-0.3C5.6,2.5,5.3,2.2,5.2,2L4.9,1.3V7l1.4,0.7c0.2,0.1,0.4,0,0.3-0.2l-0.3-2
	c0-0.3,0.1-0.6,0.3-0.8L8,3.2z"/>
<path class="st1" d="M2.2,2.6l-2,0.3c-0.3,0-0.3,0.2-0.1,0.4l1.5,1.4c0.2,0.2,0.3,0.5,0.3,0.8L1.6,7.6c0,0.3,0.1,0.4,0.3,0.2l1.8-1
	c0.2-0.1,0.6-0.1,0.8,0L4.9,7V1.4L4.2,0.2C4.1,0,3.9,0,3.8,0.2"/>
</svg>
