<?xml version="1.0" encoding="utf-8"?>
<!-- Generator: Adobe Illustrator 21.0.0, SVG Export Plug-In . SVG Version: 6.00 Build 0)  -->
<svg version="1.1" id="Layer_2" xmlns="http://www.w3.org/2000/svg" xmlns:xlink="http://www.w3.org/1999/xlink" x="0px" y="0px"
	 viewBox="0 0 44.5 7.8" style="enable-background:new 0 0 44.5 7.8;" xml:space="preserve">
<style type="text/css">
	.st0{fill:#EDBE31;}
	.st1{opacity:0.8;fill:#71838E;}
</style>
<g>
	<g>
		<g>
			<g>
				<g>
					<path class="st0" d="M0.1,3.2C-0.1,3.1,0,2.9,0.2,2.8l2-0.3c0.3,0,0.6-0.3,0.7-0.5l0.9-1.9c0.1-0.2,0.3-0.2,0.4,0l1,1.9
						c0.1,0.2,0.4,0.4,0.7,0.5l2,0.3c0.3,0,0.3,0.2,0.1,0.4L6.6,4.7C6.4,4.9,6.3,5.2,6.4,5.5l0.4,2c0,0.3-0.1,0.4-0.3,0.2l-1.9-1
						c-0.2-0.1-0.6-0.1-0.8,0l-1.8,1c-0.2,0.1-0.4,0-0.3-0.2l0.3-2.1c0-0.3-0.1-0.6-0.3-0.8L0.1,3.2z"/>
				</g>
			</g>
		</g>
	</g>
	<g>
		<g>
			<g>
				<g>
					<path class="st0" d="M9.2,3.2C9,3.1,9.1,2.9,9.3,2.8l2-0.3c0.3,0,0.6-0.3,0.7-0.5L13,0.2c0.1-0.2,0.3-0.2,0.4,0l1,1.9
						c0.1,0.2,0.4,0.4,0.7,0.5l2,0.3c0.3,0,0.3,0.2,0.1,0.4l-1.5,1.5c-0.2,0.2-0.3,0.5-0.3,0.8l0.4,2c0,0.3-0.1,0.4-0.3,0.2l-1.9-1
						c-0.2-0.1-0.6-0.1-0.8,0l-1.8,1c-0.2,0.1-0.4,0-0.3-0.2l0.3-2.1c0-0.3-0.1-0.6-0.3-0.8L9.2,3.2z"/>
				</g>
			</g>
		</g>
	</g>
	<g>
		<g>
			<g>
				<path class="st0" d="M27.4,3.2c-0.2-0.2-0.1-0.4,0.1-0.4l2-0.3c0.3,0,0.6-0.3,0.7-0.5l0.9-1.9c0.1-0.2,0.3-0.2,0.4,0l1,1.9
					c0.1,0.2,0.4,0.4,0.7,0.5l2,0.3c0.3,0,0.3,0.2,0.1,0.4l-1.5,1.5c-0.2,0.2-0.3,0.5-0.3,0.8l0.4,2c0,0.3-0.1,0.4-0.3,0.2l-1.9-1
					c-0.2-0.1-0.6-0.1-0.8,0l-1.8,1c-0.2,0.1-0.4,0-0.3-0.2l0.3-2.1c0-0.3-0.1-0.6-0.3-0.8L27.4,3.2z"/>
			</g>
		</g>
	</g>
	<path class="st0" d="M26.3,3.2c0.2-0.2,0.1-0.4-0.1-0.4l-2-0.3c-0.3,0-0.6-0.3-0.7-0.5l-0.3-0.7l-0.6-1.2c-0.1-0.2-0.3-0.2-0.4,0
		l-0.7,1.5l-0.2,0.4c-0.1,0.2-0.4,0.4-0.7,0.5l-2,0.3c-0.3,0-0.3,0.2-0.1,0.4l1.5,1.4c0.2,0.2,0.3,0.5,0.3,0.8l-0.3,2.1
		c0,0.3,0.1,0.4,0.3,0.2l1.3-0.7l0.5-0.3c0.2-0.1,0.6-0.1,0.8,0L23.1,7l1.4,0.7c0.2,0.1,0.4,0,0.3-0.2l-0.4-2c0-0.3,0.1-0.6,0.3-0.8
		L26.3,3.2z"/>
	<path class="st1" d="M44.4,3.2c0.2-0.2,0.1-0.4-0.1-0.4l-2-0.3c-0.3,0-0.6-0.3-0.7-0.5l-0.3-0.7l-0.6-1.2c-0.1-0.2-0.3-0.2-0.4,0
		l-0.9,1.9c-0.1,0.2-0.4,0.4-0.7,0.5l-2,0.3c-0.3,0-0.3,0.2-0.1,0.4l1.5,1.4c0.2,0.2,0.3,0.5,0.3,0.8l-0.3,2.1
		c0,0.3,0.1,0.4,0.3,0.2l1.8-1c0.2-0.1,0.6-0.1,0.8,0L41.3,7l1.4,0.7c0.2,0.1,0.4,0,0.3-0.2l-0.4-2c0-0.3,0.1-0.6,0.3-0.8L44.4,3.2z
		"/>
</g>
</svg>
