<?xml version="1.0" encoding="utf-8"?>
<!-- Generator: Adobe Illustrator 21.0.0, SVG Export Plug-In . SVG Version: 6.00 Build 0)  -->
<svg version="1.1" id="Layer_1" xmlns="http://www.w3.org/2000/svg" xmlns:xlink="http://www.w3.org/1999/xlink" x="0px" y="0px"
	 viewBox="0 0 22 21.2" style="enable-background:new 0 0 22 21.2;" xml:space="preserve">
<style type="text/css">
	.st0{fill:none;}
	.st1{fill:#37A148;stroke:#37A148;stroke-width:0.25;stroke-miterlimit:10;}
	.st2{fill:#37A148;}
	.st3{fill:#FFFFFF;}
</style>
<g>
	<path class="st0" d="M12.7,19.4L12.7,19.4C12.7,19.4,12.7,19.4,12.7,19.4c-0.1-0.4-0.4-0.7-0.8-0.7h-1.7c-0.5,0-0.9,0.4-0.9,0.8
		c0,0.5,0.4,0.8,0.9,0.8h1.7c0.5,0,0.9-0.4,0.9-0.9C12.7,19.5,12.7,19.5,12.7,19.4L12.7,19.4z"/>
	<path class="st1" d="M8,3.1c0,0-0.1,0-0.1,0C7.1,3.5,6.3,3.9,5.7,4.4C5,5,4.4,5.6,3.9,6.3c-1,1.4-1.5,3.2-1.5,5v1.8H1.6
		c-0.4,0-0.8-0.4-0.8-0.8V9.9c0-0.3,0.2-0.6,0.5-0.7c0.1,0,0.1-0.1,0.2-0.1c0.1-0.1,0.1-0.2,0-0.3c0-0.1-0.2-0.2-0.3-0.2
		c0,0-0.1,0-0.1,0c-0.6,0.2-1,0.7-1,1.4v2.4c0,0.2,0,0.4,0.1,0.6c0.1,0.2,0.2,0.3,0.3,0.5c0.1,0.1,0.3,0.2,0.5,0.3
		c0.2,0.1,0.4,0.1,0.6,0.1h1.1c0.1,0,0.2,0,0.2-0.1C3,13.5,3,13.5,3,13.4v-2.1C3,8,5.1,5,8.1,3.8c0.1,0,0.1-0.1,0.2-0.2
		c0-0.1,0-0.2,0-0.3c0-0.1-0.1-0.1-0.1-0.2C8.1,3.2,8.1,3.1,8,3.1z"/>
	<path class="st1" d="M18.4,8L18.4,8c0.5,1.1,0.7,2.1,0.7,3.2c0,3.5-2.3,6.6-5.6,7.7l-0.2,0l-0.1-0.1c-0.1-0.2-0.3-0.4-0.5-0.5
		c-0.2-0.1-0.5-0.2-0.8-0.2h-1.7c-0.8,0-1.5,0.7-1.5,1.5c0,0.8,0.7,1.5,1.5,1.5h1.7c0.4,0,0.7-0.1,1-0.4c0.3-0.3,0.4-0.6,0.5-1
		l0-0.1l0.1,0c0.8-0.3,1.6-0.6,2.4-1.1c0.7-0.5,1.4-1.1,1.9-1.8c0.3-0.4,0.6-0.9,0.9-1.3c0.2-0.5,0.4-0.9,0.6-1.4H19h1.1
		c0.7-0.1,1.1-0.3,1.3-0.6c0.1-0.1,0.2-0.3,0.3-0.5c0.1-0.2,0.1-0.4,0.1-0.6V9.9c0-0.3-0.1-0.6-0.3-0.8c-0.2-0.2-0.4-0.4-0.7-0.5
		c0,0-0.1,0-0.1,0c-0.1,0-0.3,0.1-0.3,0.2c0,0.1,0,0.2,0,0.3c0,0.1,0.1,0.1,0.2,0.1c0.3,0.1,0.5,0.4,0.5,0.7v2.4
		c0,0.4-0.3,0.8-0.8,0.8h-1l0-0.2c0.1-0.5,0.1-1,0.1-1.6c0-1.1-0.2-2.2-0.6-3.2L19,7.9l0.1-0.1l0,0l0,0 M11.9,20.5h-1.7
		c-0.5,0-0.9-0.4-0.9-0.8c0-0.5,0.4-0.8,0.9-0.8h1.7c0.4,0,0.7,0.3,0.8,0.6c0,0,0,0,0,0l0,0l0,0c0,0.1,0,0.1,0,0.2
		C12.7,20.1,12.3,20.5,11.9,20.5z"/>
</g>
<g>
	<path class="st2" d="M14.8,0.1C11-0.7,7.7,2.6,8.5,6.4c0.4,1.9,2,3.4,3.9,3.9c3.8,0.8,7.1-2.5,6.2-6.2C18.2,2.1,16.7,0.6,14.8,0.1z
		"/>
	<path class="st3" d="M12.9,7.3L11,5.4l1-1l1,1l2.3-2.3l1,1L12.9,7.3z"/>
</g>
</svg>
