<?xml version="1.0" encoding="utf-8"?>
<!-- Generator: Adobe Illustrator 21.0.0, SVG Export Plug-In . SVG Version: 6.00 Build 0)  -->
<svg version="1.1" id="Capa_1" xmlns="http://www.w3.org/2000/svg" xmlns:xlink="http://www.w3.org/1999/xlink" x="0px" y="0px"
	 viewBox="473.7 309.5 5232.9 5266.1" style="enable-background:new 473.7 309.5 5232.9 5266.1;" xml:space="preserve">
<style type="text/css">
	.st0{fill:none;stroke:#37A148;stroke-width:140;stroke-linecap:round;stroke-linejoin:round;stroke-miterlimit:10;}
	.st1{fill:#37A148;}
	.st2{fill:#FFFFFF;}
</style>
<path class="st0" d="M543.7,1216.6v1617.3c0,875.7,393.2,1715.6,1054.4,2224.9c259.1,205.5,536.1,348.5,822.1,437.8
	c285.9-89.4,562.9-241.3,822.1-437.8c661.2-518.3,1054.4-1349.2,1054.4-2224.9V1216.6c-1099.1-26.8-1688.8-491.4-1876.4-679.1
	C2246,718.3,1645.2,1184,543.7,1216.6z"/>
<line class="st0" x1="2420.1" y1="573.2" x2="2420.1" y2="5505.6"/>
<path class="st1" d="M4425.3,309.5c-704.7,0-1281.2,576.5-1281.2,1281.2s576.5,1281.2,1281.2,1281.2s1281.2-576.5,1281.2-1281.2
	S5130,309.5,4425.3,309.5z"/>
<path class="st2" d="M4265.2,2119.2l-480.4-480.4l240.2-240.2l240.2,240.2l560.5-560.5l240.2,240.2L4265.2,2119.2z"/>
<path class="st0" d="M1151.3,3706.9c121.9,318.9,324,600.8,589.1,805"/>
<path class="st0" d="M930.2,1822.3v969.3"/>
</svg>
