<?xml version="1.0" encoding="utf-8"?>
<!-- Generator: Adobe Illustrator 21.0.0, SVG Export Plug-In . SVG Version: 6.00 Build 0)  -->
<svg version="1.1" id="Capa_1" xmlns="http://www.w3.org/2000/svg" xmlns:xlink="http://www.w3.org/1999/xlink" x="0px" y="0px"
	 viewBox="563.6 823.9 5806.3 4531.9" style="enable-background:new 563.6 823.9 5806.3 4531.9;" xml:space="preserve">
<style type="text/css">
	.st0{fill:#37A148;}
	.st1{fill:#FFFFFF;}
</style>
<path d="M1629,2968.5"/>
<path d="M1629,2968.5"/>
<path class="st0" d="M1055.9,3626.4l12.4-1.1c1026.9-89,1911.2-774.9,2252.7-1747.5l68.1-194.4L3129.8,1813
	c-8.7,4.3-18,6.5-27.6,6.5c-23.6,0-44.9-13.1-55.4-34.3c-7.4-14.8-8.6-31.6-3.3-47.3c5.2-15.7,16.3-28.4,31-35.8l394.1-197l0.1-0.1
	l1.9-0.9c8.5-4.2,17.9-6.4,27.4-6.4c23.6,0,44.9,13.1,55.4,34.3l197.9,395.8c7.4,14.8,8.6,31.6,3.3,47.3
	c-5.2,15.7-16.3,28.4-31,35.8c-8.7,4.3-18,6.5-27.6,6.5c-23.6,0-44.9-13.1-55.4-34.3L3508,1718.3l-70.1,200.4
	c-357.5,1018.7-1283.5,1737.1-2359,1830.3l-12.4,1.1L1055.9,3626.4z"/>
<path class="st0" d="M3402.7,5355.8c-120.4,0-218.3-107.3-218.3-239.2c0-50.1,14.2-98.1,41-138.6c26.2-39.7,62.4-69.3,104.6-85.8
	l18.2-7.1v-845.3c0-32.9,24.5-59.7,54.5-59.7h1310.4c421.5,0,764.5-375.8,764.5-837.7s-342.9-837.7-764.5-837.7
	c-134.2,0-266.8,39.4-383.6,113.9c-8.3,5.3-17.8,8.1-27.4,8.1c-9.9,0-19.6-2.9-28-8.4c-16.9-11-27-31.3-26.4-52.8l1.5-29.9v-0.8
	c0-610.3-453.2-1106.9-1010.2-1106.9c-472.8,0-887.9,367.3-987.2,873.4c-3.8,19.2-15.8,35.1-32.3,42.6l-0.1,0.1
	c-6.6,3.1-13.6,4.6-20.8,4.6c-10.4,0-20.6-3.3-29.4-9.4c-96.8-67.7-208.3-103.5-322.4-103.5c-331.2,0-600.7,295.3-600.7,658.2
	c0,25.3,1.7,51.5,5.2,82.7c1.9,17-2.9,34.1-13.3,47c-10.2,12.5-26.3,20-43.3,20c-1.5,0-3-0.1-4.5-0.2l-1-0.1h-1
	c-284.2,0.1-515.5,255.1-515.5,568.5c0,313.4,232.7,568.5,518.8,568.5h1556.1c30.1,0,54.5,26.8,54.5,59.7V4885l18.2,7.1
	c42.2,16.5,78.3,46.2,104.6,85.8c26.8,40.6,41,88.5,41,138.6c0,131.9-97.9,239.2-218.3,239.2c-120.4,0-218.3-107.3-218.3-239.2
	c0-50.1,14.2-98.1,41-138.6c26.2-39.7,62.4-69.3,104.6-85.8l18.2-7.1v-785.6h-218.6v658.2c0,32.9-24.5,59.7-54.5,59.7h-607.7
	l-6.5,19.9c-15,46.2-42.1,85.8-78.3,114.6c-37,29.4-80.8,45-126.5,45c-120.4,0-218.3-107.3-218.3-239.2
	c0-131.9,97.9-239.2,218.3-239.2c45.7,0,89.5,15.5,126.5,45c36.2,28.8,63.3,68.4,78.3,114.6l6.5,19.9h553.2v-598.5h-1174
	c-346.2,0-627.8-308.6-627.8-687.9c0-85.6,14.2-169.2,42.3-248.4c27.1-76.5,66.3-146.6,116.4-208.3
	c101.5-125,240.2-205.2,390.6-225.9l24-3.3v-32c0-428.8,318.4-777.7,709.7-777.7c99.8,0,196.7,22.7,288,67.4l28,13.7l9.3-32
	c35.8-123.7,89.4-240,159.4-345.8c68.5-103.6,151.1-194.8,245.5-271c94.8-76.5,199-135.9,309.9-176.7
	c113.9-41.9,232.4-63.2,352.3-63.2c281.5,0,550.7,115.4,758,324.8c206.1,208.3,332.9,490.5,357,794.6l3.2,40.2l34.2-14.9
	c103.3-45,211.6-67.9,321.8-67.9c481.7,0,873.5,429.4,873.5,957.2s-391.9,957.2-873.5,957.2h-928.3v598.5H4338l6.5-19.9
	c15-46.2,42.1-85.8,78.3-114.6c37-29.4,80.8-45,126.5-45c120.4,0,218.3,107.3,218.3,239.2c0,131.9-97.9,239.2-218.3,239.2
	c-45.7,0-89.5-15.5-126.5-45c-36.2-28.8-63.3-68.4-78.3-114.6l-6.5-19.9h-607.7c-30.1,0-54.5-26.8-54.5-59.7v-658.2h-218.6V4885
	l18.2,7.1c42.2,16.5,78.3,46.2,104.6,85.8c26.8,40.6,41,88.5,41,138.6C3621.1,5248.5,3523.1,5355.8,3402.7,5355.8z M3402.7,4996.9
	c-60.3,0-109.3,53.7-109.3,119.7s49,119.7,109.3,119.7s109.3-53.7,109.3-119.7S3463,4996.9,3402.7,4996.9z M2747.5,4996.9
	c-60.3,0-109.3,53.7-109.3,119.7s49,119.7,109.3,119.7c60.3,0,109.3-53.7,109.3-119.7S2807.8,4996.9,2747.5,4996.9z M4549.3,4637.9
	c-60.3,0-109.3,53.7-109.3,119.7s49,119.7,109.3,119.7c60.3,0,109.3-53.7,109.3-119.7S4609.6,4637.9,4549.3,4637.9z M1600.9,4637.9
	c-60.3,0-109.3,53.7-109.3,119.7s49,119.7,109.3,119.7c60.3,0,109.3-53.7,109.3-119.7S1661.2,4637.9,1600.9,4637.9z"/>
<path class="st0" d="M5088.7,823.9c-704.7,0-1281.2,576.5-1281.2,1281.2s576.5,1281.2,1281.2,1281.2s1281.2-576.5,1281.2-1281.2
	S5793.4,823.9,5088.7,823.9z"/>
<path class="st1" d="M4928.6,2633.6l-480.4-480.4l240.2-240.2l240.2,240.2l560.5-560.5l240.2,240.2L4928.6,2633.6z"/>
</svg>
