<?xml version="1.0" encoding="utf-8"?>
<!-- Generator: Adobe Illustrator 21.0.0, SVG Export Plug-In . SVG Version: 6.00 Build 0)  -->
<svg version="1.1" id="Capa_1" xmlns="http://www.w3.org/2000/svg" xmlns:xlink="http://www.w3.org/1999/xlink" x="0px" y="0px"
	 viewBox="-381.4 -352.1 6973.7 5855.9" style="enable-background:new -381.4 -352.1 6973.7 5855.9;" xml:space="preserve">
<style type="text/css">
	.st0{fill:#37A148;}
	.st1{fill:#FFFFFF;}
</style>
<path class="st0" d="M5311.1-352.1c-704.7,0-1281.2,576.5-1281.2,1281.2s576.5,1281.2,1281.2,1281.2s1281.2-576.5,1281.2-1281.2
	S6015.8-352.1,5311.1-352.1z"/>
<path class="st1" d="M5151,1457.5l-480.4-480.4l240.2-240.2L5151,977.1l560.5-560.5l240.2,240.2L5151,1457.5z"/>
<g>
	<path class="st0" d="M2376.9,2710.6c-37.5,0-68-30.5-68-68s30.5-68,68-68h1200.8c37.5,0,68,30.5,68,68s-30.5,68-68,68H2376.9z"/>
	<path class="st0" d="M3577.6,2594.5H2376.9c-26.5,0-48,21.5-48,48c0,26.6,21.5,48,48,48h1200.8c26.5,0,48-21.5,48-48
		C3625.7,2616,3604.1,2594.5,3577.6,2594.5z"/>
	<path class="st0" d="M2376.9,2326.3c-37.5,0-68-30.5-68-68s30.5-68,68-68h480.3c37.5,0,68,30.5,68,68s-30.5,68-68,68H2376.9z"/>
	<path class="st0" d="M2376.9,2306.3h480.3c26.5,0,48-21.5,48-48c0-26.6-21.5-48-48-48h-480.3c-26.5,0-48,21.5-48,48
		C2328.8,2284.8,2350.4,2306.3,2376.9,2306.3z"/>
	<path class="st0" d="M2376.9,3094.8c-37.5,0-68-30.5-68-68s30.5-68,68-68h1200.8c37.5,0,68,30.5,68,68s-30.5,68-68,68H2376.9z"/>
	<path class="st0" d="M3577.6,2978.7H2376.9c-26.5,0-48,21.5-48,48s21.5,48,48,48h1200.8c26.5,0,48-21.5,48-48
		S3604.1,2978.7,3577.6,2978.7z"/>
	<path class="st0" d="M2376.9,3479c-37.5,0-68-30.5-68-68s30.5-68,68-68h1200.8c37.5,0,68,30.5,68,68s-30.5,68-68,68H2376.9z"/>
	<path class="st0" d="M3577.6,3363H2376.9c-26.5,0-48,21.5-48,48s21.5,48,48,48h1200.8c26.5,0,48-21.5,48-48
		S3604.1,3363,3577.6,3363z"/>
	<path class="st0" d="M2376.9,3863.3c-37.5,0-68-30.5-68-68s30.5-68,68-68h1200.8c37.5,0,68,30.5,68,68s-30.5,68-68,68H2376.9z"/>
	<path class="st0" d="M3577.6,3747.2H2376.9c-26.5,0-48,21.5-48,48c0,26.6,21.5,48,48,48h1200.8c26.5,0,48-21.5,48-48
		C3625.7,3768.7,3604.1,3747.2,3577.6,3747.2z"/>
	<path class="st0" d="M1924.6,4295.6v-240.2h-240.2V1373.7h2105.3V2086l240.2,240.2v1969.4H1924.6z M3893.8,4159.5V2422.4h-672.4
		v-672.4H2060.7v2409.5H3893.8z M1924.6,3919.3V1613.9h1393l336.1,336.1v-440.2H1820.5v2409.5H1924.6z M3797.6,2286.3l-440.2-440.2
		v440.2H3797.6z"/>
	<path class="st0" d="M3769.8,2094.3v-700.6H1704.5v2641.7h240.2v240.2h2065.3V2334.5L3769.8,2094.3z M3337.5,1797.9l432.3,432.3
		l76.2,76.2h-508.4V1797.9z M1800.5,3939.3V1489.8h1873.2v508.4l-364.4-364.4H1944.6v2305.5H1800.5z M2040.7,4179.5v-144.1V1729.9
		h1200.8v672.4h672.4v1777.1H2040.7z"/>
</g>
<path class="st0" d="M4616,4602c-471.1,470.6-1096.7,729.9-1762.5,729.9c-1373.2,0-2490.7-1116.8-2492-2489.6l508.2,508.8
	c33.7,33.5,87.9,33.5,121.5,0c33.3-33.7,33.3-88.1,0-121.5l-673.7-674l-673.6,674c-33.7,33.5-33.7,87.9,0,121.5
	c16.6,16.8,38.6,25,60.5,25c22.3,0,44.2-8.4,60.7-25l427.9-428.1c44.7,1430.3,1218.9,2580.7,2659.7,2580.7
	c711.8,0,1380.8-277.2,1884.3-780.4c33.5-33.5,33.5-87.9,0-121.3C4704.3,4568.3,4649.7,4568.3,4616,4602z"/>
<path class="st0" d="M6070.4,2318.1c-33.3-33.5-87.7-33.5-121.3,0L5521.6,2746c-45.1-1430.3-1219.3-2580.5-2660-2580.5
	c-712.2,0-1381,277.2-1884.5,780.4c-33.7,33.5-33.7,87.9,0,121.3c33.3,33.7,87.9,33.7,121.3,0C1569.4,596.6,2195.2,337.3,2861,337.3
	c1373,0,2490.7,1116.6,2492.4,2489.6l-508.6-508.8c-33.5-33.5-87.9-33.5-121.5,0c-33.3,33.7-33.3,88.1,0,121.5l673.8,673.8
	l673.6-673.8C6104.1,2406.2,6104.1,2351.8,6070.4,2318.1z"/>
</svg>
