<?xml version="1.0" encoding="utf-8"?>
<!-- Generator: Adobe Illustrator 21.0.0, SVG Export Plug-In . SVG Version: 6.00 Build 0)  -->
<svg version="1.1" id="Layer_3" xmlns="http://www.w3.org/2000/svg" xmlns:xlink="http://www.w3.org/1999/xlink" x="0px" y="0px"
	 viewBox="0 0 155.6 32.8" style="enable-background:new 0 0 155.6 32.8;" xml:space="preserve">
<style type="text/css">
	.st0{fill:#002B5C;}
</style>
<g>
	<path class="st0" d="M150.4,12.1c0-1.4,1.2-2.4,2.6-2.4c1.4,0,2.6,1,2.6,2.4c0,1.4-1.2,2.4-2.6,2.4
		C151.6,14.5,150.4,13.5,150.4,12.1z M153,14.1c1.2,0,2.1-0.9,2.1-2c0-1.1-0.9-2-2.1-2c-1.2,0-2.1,0.9-2.1,2
		C150.9,13.2,151.9,14.1,153,14.1z M152.5,13.5H152v-2.8h1.1c0.7,0,1,0.2,1,0.8c0,0.5-0.3,0.7-0.8,0.8l0.8,1.2h-0.5l-0.8-1.2h-0.5
		V13.5z M153,11.9c0.4,0,0.7,0,0.7-0.5c0-0.3-0.3-0.4-0.6-0.4h-0.6v0.9H153z"/>
	<g>
		<path class="st0" d="M63.4,17v-0.1h0c-0.2-2.6-1.5-7.1-7-7.1c0.2,0.2-3-0.3-7.3,3.1v-2.2h-6.5v21.6h6.5l-0.2-14.2
			c1.8-2.4,7.1-3.6,8,0.4v13.8h6.5V18.5C63.4,18.5,63.5,17.9,63.4,17z"/>
		<polygon class="st0" points="28.6,32.3 13.8,14.6 27.4,0.4 19,0.4 7,12.8 7,0.5 0,0.5 0,32.5 7,32.5 7,17.9 20.5,32.3 		"/>
		<path class="st0" d="M76.5,16.1h6.1V11h-6.1V4.9h-6.6V11h-3.6v5.1h3.6v10.7h0c0.2,0.9,0.6,6,7.1,5.9c5.2,0,5.2,0,5.2,0v-6.2
			c0,0-5,1.6-5.7-1.3V16.1z"/>
		<path class="st0" d="M127.1,9.7c-5.6,0-7.2,1.9-9.1,3.9v-3.2h-5.6v21.7h5.6v-13c5.1-5.9,9.1-2.7,9.1-2.7S127,10.3,127.1,9.7z"/>
		<g>
			<rect x="31.3" y="10.7" class="st0" width="6.5" height="21.4"/>
			<circle class="st0" cx="34.2" cy="3.7" r="3.7"/>
		</g>
		<path class="st0" d="M97.2,10.1c0,0-11.6,0.5-11.6,11.9c0,0,1,11.2,12.7,10.9c4.4-0.1,4.5-1.4,8.3-4.1l-4.2-3.4
			c-1.4,0.6-2.5,1.9-5.1,2.4c0.3-0.1-4.3,0.9-5.3-4.5l15.4-0.1C107.5,23.1,108.4,10.3,97.2,10.1z M92.5,18.7c0,0,0.3-4.3,4-4.3
			c2.1,0,4.5,0.1,4.5,4.3H92.5z"/>
		<path class="st0" d="M139,9.6c-0.2,0-5.4,0-8.5,3.2l2.6,4.8c0,0,8.2-6.8,10.3,0.4v0.6c0,0-14.7-1-14.7,7.4c0,1.4,2.3,9.4,12.3,5.8
			l2.4-0.9v1.7h5.9V16.3C149.2,16.3,148.8,9.8,139,9.6z M143.4,24.9c0,0-1.1,3.2-4.3,3.3c-3.2,0.1-4.2-1.1-4.1-3
			c0.1-1.9,3.1-2.9,4-2.9c0.9,0,4.4-0.2,4.4-0.2L143.4,24.9z"/>
	</g>
</g>
</svg>
