<?xml version="1.0" encoding="utf-8"?>
<!-- Generator: Adobe Illustrator 21.0.0, SVG Export Plug-In . SVG Version: 6.00 Build 0)  -->
<svg version="1.1" id="Layer_1" xmlns="http://www.w3.org/2000/svg" xmlns:xlink="http://www.w3.org/1999/xlink" x="0px" y="0px"
	 viewBox="973.4 1355.1 3738.8 3088.8" style="enable-background:new 973.4 1355.1 3738.8 3088.8;" xml:space="preserve">
<style type="text/css">
	.st0{fill:none;stroke:#37A148;stroke-width:87.2707;stroke-linecap:round;stroke-linejoin:round;stroke-miterlimit:10;}
	.st1{fill:#37A148;}
	.st2{fill:#2C7C35;}
	.st3{fill:#FFFFFF;}
</style>
<path class="st0" d="M4268.7,2826.3c0,0-638.4,848.1-1425.9,848.1s-1425.9-848.1-1425.9-848.1s638.4-848.1,1425.9-848.1
	S4268.7,2826.3,4268.7,2826.3z"/>
<g>
	<g>
		<g>
			<path class="st1" d="M2760,3519c-37,0-67.6-27.7-71.4-64.4l-16.2-96.8c-29.1-9.3-57.6-21.2-85-35.3l-81.1,57.9
				c-11.8,9.7-27.8,15.2-44.1,15.2c-19.2,0-37.2-7.5-50.8-21.1l-117.1-117.1c-26.1-26.1-28.2-67.4-4.9-96.1l57-79.9
				c-14.1-27.3-25.9-55.8-35.2-85l-98.3-16.4c-17.1-1.7-32.9-9.9-44.6-23c-11.8-13.2-18.3-30.4-18.3-48.2v-165.6
				c0-37,27.6-67.6,64.4-71.4l96.8-16.2c9.3-29.1,21.2-57.6,35.2-84.9l-57.9-81.1c-10.9-13.3-16.3-30.3-15.3-47.8
				c1-17.7,8.5-34.4,21.1-47l117.1-117.1c13.1-13,31.6-20.5,51-20.5c16.7,0,32.6,5.5,45,15.5l80,57.1c27.2-14,55.7-25.9,84.9-35.2
				l16.4-98.2c1.7-17.1,9.9-32.9,23.1-44.6c13.2-11.8,30.4-18.3,48.2-18.3h165.6c36.9,0,67.6,27.6,71.4,64.3l16.2,96.8
				c29.2,9.4,57.7,21.2,84.9,35.2l81.1-57.9c11.8-9.6,27.8-15.2,44-15.2c19.2,0,37.2,7.5,50.8,21l117.1,117.1
				c26.1,26.1,28.3,67.3,5,96l-57,79.9c14,27.1,25.8,55.7,35.2,84.9l98.3,16.4c17.1,1.7,32.9,9.9,44.6,23.1
				c11.8,13.2,18.3,30.3,18.3,48.2v165.6c0,37-27.7,67.7-64.4,71.4l-96.7,16.2c-9.4,29.2-21.2,57.8-35.2,85l57.9,81.1
				c10.9,13.3,16.3,30.4,15.2,47.9c-1,17.7-8.6,34.4-21.2,47l-117,117c-13,13-31.6,20.5-51,20.5c-16.7,0-32.7-5.5-45-15.6l-79.9-57
				c-27.3,14.1-55.8,25.9-84.9,35.3l-16.4,98.3c-1.7,17.1-9.9,32.9-23.1,44.6c-13.2,11.8-30.3,18.3-48.2,18.3H2760z M2585.2,3256.5
				c5.2,0,10.4,1.4,14.9,3.9c33.9,19,70.1,34,107.5,44.6c11.2,3.2,19.8,12.7,21.7,24.3l19.5,117.4l0,0.2c0.7,6.6,5.4,11.3,11.2,11.3
				h165.6c5.6,0,10.4-4.3,10.9-9.8l0-0.3l19.8-118.9c1.9-11.5,10.4-21.1,21.7-24.2c37.4-10.6,73.5-25.6,107.5-44.6
				c4.5-2.5,9.6-3.9,14.8-3.9c6.4,0,12.5,2,17.7,5.7l96.8,69.2l0.2,0.1c2.9,2.4,5.8,3.5,8.5,3.5c3.4,0,5.9-1.8,7.4-3.4l117.1-117.1
				c4-4,4.4-10.4,0.8-14.7l-0.2-0.2l-70.1-98.1c-6.8-9.5-7.5-22.3-1.8-32.5c19-33.8,34-69.9,44.6-107.5
				c3.2-11.3,12.7-19.8,24.3-21.7l117.4-19.6l0.2,0c6.7-0.7,11.3-5.3,11.3-11.1v-165.6c0-5.5-4.4-10.4-9.8-10.9l-0.3,0l-118.9-19.8
				c-11.6-1.9-21.1-10.5-24.3-21.7c-10.6-37.5-25.6-73.6-44.6-107.4c-5.7-10.3-5-23.1,1.8-32.6l69.2-96.9l0.1-0.2
				c4.3-5.3,4.3-11.7,0.1-15.9L3231.1,2321c-1.9-1.9-4.8-3.1-7.8-3.1c-2.6,0-5,0.8-6.8,2.3l-0.2,0.2l-98.1,70.2
				c-5.2,3.7-11.3,5.7-17.7,5.7c-5.2,0-10.3-1.3-14.9-3.9c-33.8-19-70-34-107.5-44.6c-11.2-3.1-19.8-12.7-21.7-24.3l-19.5-117.4
				l0-0.2c-0.7-6.8-5.2-11.4-11.2-11.4H2760c-5.7,0-10.4,4.2-10.9,9.8l0,0.3l-19.7,118.9c-1.9,11.6-10.4,21.1-21.7,24.3
				c-37.6,10.7-73.8,25.7-107.4,44.6c-4.6,2.6-9.7,3.9-14.9,3.9c-6.4,0-12.5-2-17.7-5.7l-96.9-69.2l-0.2-0.1
				c-2.9-2.3-5.8-3.5-8.6-3.5c-3.4,0-5.9,1.8-7.4,3.3l-117.1,117.1c-4,4-4.3,10.3-0.7,14.6l0.2,0.2l70.1,98.2
				c6.8,9.5,7.5,22.3,1.8,32.5c-19,33.8-34,69.9-44.6,107.5c-3.1,11.2-12.7,19.8-24.3,21.7l-117.4,19.6l-0.2,0
				c-6.8,0.7-11.4,5.2-11.4,11.2v165.6c0,5.7,4.2,10.4,9.8,10.9l0.3,0l118.9,19.8c11.6,1.9,21.1,10.4,24.3,21.7
				c10.6,37.3,25.6,73.5,44.6,107.5c5.7,10.2,5,23-1.8,32.5l-69.2,96.9l-0.2,0.2c-4.3,5.3-4.4,11.7-0.2,15.9l117.1,117.1
				c2,2,4.9,3.1,7.9,3.1c2.6,0,5-0.8,6.7-2.3l0.2-0.2l98.2-70.1C2572.8,3258.4,2578.9,3256.5,2585.2,3256.5z"/>
			<path class="st1" d="M2925.6,3511.2H2760c-33.1,0-60.5-24.8-63.7-57.6l-17-101.7c-31.9-9.9-62.9-22.8-92.5-38.4l-85.2,60.8
				c-10.2,8.4-24.6,13.6-39.3,13.6c-17.1,0-33.2-6.7-45.3-18.8L2300,3252.1c-23.4-23.4-25.2-60.3-4.3-85.9l59.9-84
				c-15.6-29.7-28.5-60.7-38.4-92.5l-103.2-17.2c-31.3-3-56.1-30.4-56.1-63.5v-165.6c0-33.1,24.8-60.5,57.6-63.7l101.7-17
				c9.9-31.9,22.8-62.9,38.3-92.4l-60.8-85.2c-20.1-24.3-18.2-61.2,5.2-84.6l117.1-117.1c22.6-22.5,61.2-24.4,85.8-4.3l84.1,60
				c29.5-15.5,60.5-28.4,92.4-38.3l17.2-103.2c3.1-31.4,30.5-56.2,63.5-56.2h165.6c33,0,60.4,24.8,63.7,57.6l17,101.8
				c31.9,9.9,62.9,22.8,92.4,38.3l85.2-60.8c10.2-8.4,24.6-13.6,39.3-13.6c17.1,0,33.2,6.7,45.3,18.7l117.1,117.1
				c23.4,23.3,25.2,60.2,4.3,85.8l-60,84c15.6,29.5,28.4,60.5,38.3,92.4l103.2,17.2c31.4,3.1,56.1,30.5,56.1,63.5v165.6
				c0,33.1-24.8,60.5-57.7,63.7l-101.7,17c-9.9,32-22.8,63-38.3,92.5l60.8,85.2c20,24.4,18.2,61.3-5.3,84.7l-117,117
				c-22.5,22.5-61.2,24.5-85.9,4.3l-84-59.9c-29.6,15.6-60.6,28.5-92.4,38.4l-17.2,103.2C2986.1,3486.5,2958.7,3511.2,2925.6,3511.2
				z M2585.2,3264.2c3.8,0,7.6,0.9,11.1,2.9c34.5,19.3,71.2,34.6,109.2,45.3c8.4,2.4,14.7,9.4,16.2,18.1l19.5,117.2
				c1.1,10.9,9.3,18.3,18.9,18.3h165.6c9.5,0,17.7-7.4,18.7-16.8l19.8-118.7c1.4-8.6,7.7-15.7,16.2-18c37.9-10.7,74.6-26,109.1-45.3
				c7.6-4.3,17.1-3.8,24.2,1.3l96.7,69.1c9.8,7.9,19.7,6.2,26.3-0.4l117.1-117.1c6.9-6.9,7.4-17.7,1.3-25.1l-70-97.9
				c-5.1-7.1-5.6-16.6-1.3-24.2c19.3-34.4,34.5-71.1,45.3-109.1c2.4-8.4,9.4-14.7,18.1-16.2l117.2-19.5c10.9-1.1,18.3-9.3,18.3-18.8
				v-165.6c0-9.5-7.4-17.7-16.8-18.7l-118.7-19.7c-8.7-1.4-15.7-7.7-18.1-16.2c-10.7-38.1-26-74.8-45.3-109.1
				c-4.3-7.7-3.8-17.1,1.3-24.2l69.1-96.7c7-8.6,6.4-19.4-0.4-26.3l-117.1-117.1c-6.6-6.6-17.9-7.2-25.1-1.3l-97.9,70
				c-7.1,5.1-16.6,5.6-24.2,1.3c-34.4-19.3-71.1-34.5-109.1-45.3c-8.4-2.4-14.7-9.4-16.2-18.1l-19.5-117.2
				c-1.2-11.1-9.2-18.4-18.9-18.4H2760c-9.7,0-17.7,7.2-18.7,16.8l-19.7,118.6c-1.4,8.6-7.7,15.7-16.2,18.1
				c-38.1,10.8-74.8,26-109.1,45.3c-7.7,4.3-17.1,3.8-24.2-1.3l-96.8-69.1c-9.7-7.8-19.7-6.2-26.3,0.4L2332,2432.6
				c-6.8,6.8-7.4,17.6-1.2,25.1l70,97.9c5.1,7.2,5.6,16.6,1.3,24.2c-19.3,34.3-34.5,71-45.3,109.1c-2.4,8.4-9.4,14.7-18.1,16.2
				l-117.2,19.5c-11.1,1.2-18.3,9.2-18.3,18.9v165.6c0,9.7,7.2,17.7,16.8,18.6l118.7,19.7c8.6,1.4,15.7,7.7,18.1,16.2
				c10.7,37.9,25.9,74.6,45.3,109.2c4.3,7.7,3.8,17.1-1.3,24.2l-69.1,96.7c-7.1,8.7-6.5,19.5,0.3,26.3l117.1,117.1
				c6.7,6.6,18,7.2,25.1,1.3l97.9-70C2576,3265.7,2580.6,3264.2,2585.2,3264.2z"/>
		</g>
	</g>
</g>
<g>
	<circle class="st1" cx="2842.8" cy="2826.3" r="399.3"/>
	<circle class="st2" cx="2842.8" cy="2826.3" r="192.9"/>
</g>
<circle class="st3" cx="2701.8" cy="2700.4" r="82.6"/>
<circle class="st3" cx="2661" cy="2907" r="35.5"/>
<path class="st0" d="M1017.1,1767.9"/>
<path class="st0" d="M1017.1,4337.4"/>
<polyline class="st0" points="1368,4400.3 1017.1,4400.3 1017.1,4027.4 "/>
<polyline class="st0" points="4668.6,4048.7 4668.6,4400.3 4320,4400.3 "/>
<path class="st0" d="M4668.6,4048.7"/>
<path class="st0" d="M4668.6,1767.9"/>
<polyline class="st0" points="4320,1398.7 4668.6,1398.7 4668.6,1767.9 "/>
<polyline class="st0" points="1017.1,1767.9 1017.1,1398.7 1368,1398.7 "/>
</svg>
