<?xml version="1.0" encoding="utf-8"?>
<!-- Generator: Adobe Illustrator 21.0.0, SVG Export Plug-In . SVG Version: 6.00 Build 0)  -->
<svg version="1.1" id="Layer_1" xmlns="http://www.w3.org/2000/svg" xmlns:xlink="http://www.w3.org/1999/xlink" x="0px" y="0px"
	 viewBox="2125.2 1557.9 2087.6 1918.3" style="enable-background:new 2125.2 1557.9 2087.6 1918.3;" xml:space="preserve">
<style type="text/css">
	.st0{fill:none;stroke:#37A148;stroke-width:46.7429;stroke-linejoin:round;stroke-miterlimit:10;}
	.st1{fill:none;stroke:#37A148;stroke-width:57.836;stroke-linecap:round;stroke-linejoin:round;stroke-miterlimit:10;}
	.st2{fill:#37A148;}
	.st3{fill:none;stroke:#37A148;stroke-width:60;stroke-linejoin:round;stroke-miterlimit:10;}
</style>
<g>
	<polyline class="st0" points="2779,3419.5 2779,3287.5 3103.9,3287.5 3103.9,3419.5 	"/>
	<path class="st1" d="M2155.2,2982.9v249.5c0,21.6,15.6,45.7,37.3,45.7h1495.3c21.6,0,35.5-24,35.5-45.7v-97"/>
	<path class="st2" d="M2941.8,3135.3c21,0,38,18,38,39s-17,38-38,38c-21,0-38-17-38-38S2920.8,3135.3,2941.8,3135.3z"/>
</g>
<g id="surface1_1_">
	<path class="st2" d="M4079.9,1954.2c1.1-11.4,1.7-22.8,1.7-34.4c0.3-199.6-161.3-361.6-360.8-361.9
		c-139.1-0.2-265.9,79.4-326.2,204.8c-86.7-92.7-232.2-97.6-324.9-10.8c-46.5,43.5-72.9,104.3-72.8,168c0,0.8,0,1.5,0,2.3
		c-144,19-245.3,151.1-226.3,295.1c17.2,130.2,127.8,227.8,259.1,228.5h920.4c145.2-0.2,262.8-118,262.6-263.3
		C4212.7,2088,4161.9,2000.9,4079.9,1954.2z"/>
</g>
<path class="st3" d="M2155.2,3033v-811.5c1.8-0.3,4.6-0.6,8.7-0.6H2731"/>
<line class="st1" x1="3726" y1="2532.9" x2="3726" y2="2897.4"/>
<polygon class="st2" points="2291.4,1955.5 2326.2,1920.7 2435.4,2029.9 2443.1,2030.9 2443.1,1622.8 2893.2,1622.8 2893.2,1678.6 
	2498.8,1678.6 2498.8,2037.6 2615.7,1920.7 2650.5,1955.5 2470.9,2135 "/>
<polyline class="st2" points="3941.3,2648.5 3824.4,2765.4 3789.6,2730.6 3969.2,2551.1 4148.7,2730.6 4113.9,2765.4 4004.7,2656.2 
	3997,2655.2 "/>
<line class="st1" x1="2711.5" y1="3447.3" x2="3171.5" y2="3447.3"/>
<polyline class="st1" points="2155.2,3007.3 3969,3007.3 3969,2606.1 "/>
</svg>
