<?xml version="1.0" encoding="utf-8"?>
<!-- Generator: Adobe Illustrator 21.0.0, SVG Export Plug-In . SVG Version: 6.00 Build 0)  -->
<svg version="1.1" id="Layer_1" xmlns="http://www.w3.org/2000/svg" xmlns:xlink="http://www.w3.org/1999/xlink" x="0px" y="0px"
	 viewBox="153.1 -361.3 6694.3 6045.5" style="enable-background:new 153.1 -361.3 6694.3 6045.5;" xml:space="preserve">
<style type="text/css">
	.st0{fill:#37A148;}
	.st1{fill:#FFFFFF;}
</style>
<path class="st0" d="M2625.6,5684.3c-204.5,0-370.9-166.1-370.9-370.2c0-204.2,166.4-370.3,370.9-370.3h425.3
	c65.4,0,129.5,16.7,185.3,48.3c54.5,30.9,100.3,75.4,132.5,128.7l20.2,33.5l37.4-11.6c832.2-257.5,1391.3-1018.3,1391.3-1893.1
	c0-269.1-53.1-530-157.7-775.3l-7.7-18l-216.5-96.8l-23.6,17.9c-70.3,53.4-147.1,97.8-228.2,132.1l-27.2,11.5l-24.5,236.7l-0.1,1.3
	c-2.5,48.8-32.8,88.9-89.9,119.1c-65.6,34.7-160.8,53.1-275.4,53.1c-114.9,0-210.3-18.4-275.9-53.2c-57-30.3-87.1-70.5-89.5-119.4
	l-0.1-1.4l-24.5-236.1l-27.2-11.5c-81-34.3-157.8-78.7-228.2-132.1l-23.6-17.9L2880,2457l-1.1,0.6c-17,8.6-35,13-53.6,13
	c-39.8,0-85-20-130.5-57.7c-50.7-42.1-101.7-106.3-147.5-185.6c-42.4-73.5-72.6-149.5-85.1-213.9c-17.4-90,0.6-155.2,51.9-188.7
	l1-0.7l193.4-140.1l-3.5-29.2c-5.2-43.1-7.9-86.9-7.9-130.2c0-44,2.7-88.5,8.1-132.3l3.6-29.3l-193.5-140.2l-1.2-0.8
	c-41.2-26.5-61-72.6-58.7-137.2c2.6-74.2,34.4-166,91.8-265.5c45.8-79.3,96.8-143.5,147.5-185.6c45.5-37.8,90.6-57.8,130.5-57.8
	c18.9,0,36.5,4.3,53.7,13l1.1,0.6l219.7,98.2l23.6-17.8c69.8-52.7,145.8-96.6,226.1-130.6l27.2-11.5l24.8-238.6l0.1-1.4
	c2.3-48.9,32.4-89.1,89.4-119.4c65.6-34.8,161-53.2,275.9-53.2c114.6,0,209.9,18.4,275.5,53.1c57.1,30.3,87.3,70.4,89.8,119.2
	l0.1,1.3l24.8,239l27.2,11.5c80.2,33.9,156.2,77.9,226.1,130.6l23.6,17.8l219.3-98l1.1-0.6c16.9-8.6,35.1-12.9,54.1-12.9
	c42.1,0,87.6,21,135.2,62.3c49.6,43,100.3,107.2,142.7,180.7c57.3,99.2,89,190.9,91.8,265.1c2.4,64.6-17.2,110.8-58.2,137.4
	l-1.1,0.7l-194,140.5l3.6,29.3c5.4,43.7,8.1,88.2,8.1,132.3c0,43.5-2.6,87.3-7.9,130.2l-3.6,29.2l193.8,140.4l1.1,0.7
	c40.9,26.6,60.5,72.9,58.1,137.4c-2.7,74.2-34.5,165.8-91.8,265c-42.5,73.6-93.2,137.8-142.7,180.8l-1.5,1.3l-0.6,0.6l-25.4,20.5
	l13.5,34.2c98.8,249.7,148.8,514.1,148.8,785.9c0,130-11.6,260.6-34.5,388.1l-10.6,58.8h236.5c104,0,185.5-84.9,185.5-193.3v-594.7
	c0-83.8-52.7-157.1-131.1-182.3c-20-6.4-36.2-20.4-45.5-39.2c-9.4-19.1-10.9-41.1-4.2-62c10.7-33.4,41-55.8,75.2-55.8
	c8.2,0,16.5,1.3,24.5,3.9c71.5,23,132.3,67.2,175.7,127.6c43.3,60.2,66.2,132.1,66.2,207.9v594.7c0,47.8-9.1,94.1-27,137.7
	c-17.3,42.2-42.2,80.1-73.8,112.6c-65.1,66.9-152.3,103.8-245.5,103.8h-277.3l-11.1,34.7c-39.2,122.1-89.6,241.8-149.7,355.8
	c-62.2,117.9-134.7,229.3-215.5,331.2c-134.9,170.2-295.2,318.8-476.2,441.9c-180.7,122.8-377.2,216.7-584.1,279.1l-32.4,9.8
	l-3,33.7c-8.2,92-50.4,177.5-118.7,240.9c-68.8,63.7-157.8,98.9-250.8,98.9H2625.6z M2625.6,5104.6c-115.8,0-210.1,93.9-210.1,209.4
	c0,115.5,94.2,209.4,210.1,209.4h425.3c115.9,0,210.1-94.8,210.1-211.4c0-14.2-1.4-29.1-4-42.1l-0.2-0.8l-0.2-0.8
	c-0.5-2-1-3.7-1.4-5.1c-22.3-93.5-106.1-158.6-204.4-158.6H2625.6z M3111.5,2185c19.7,0,38.6,7.2,53.3,20.2
	c91.8,81.3,196.9,142.1,312.4,180.9c29.8,10,51.2,36.7,54.4,67.9l29.2,281.6l30.2,10.4c21.5,7.4,81.6,24.5,175.7,24.5
	c94.1,0,154.3-17.2,175.8-24.5l30.2-10.4l29.2-281.5c3.2-31.3,24.6-57.9,54.4-68c115.4-38.8,220.5-99.6,312.4-180.9
	c14.7-13,33.7-20.2,53.3-20.2c11.4,0,22.4,2.4,32.8,7l259,115.7l24.1-21c17.1-14.9,62-58.4,109.1-139.9
	c47.1-81.6,62.3-142.2,66.7-164.5l6.1-31.3l-230.1-166.7c-25.4-18.4-37.8-50.2-31.7-80.9c11.7-58.5,17.6-118.7,17.6-179.1
	c0-60.8-6.1-121.7-18-181c-6.2-30.8,6.2-62.6,31.6-81l230.5-167l-6.1-31.3c-4.4-22.3-19.6-83-66.6-164.5
	c-47-81.5-92-125-109.1-139.9l-24.1-21L4453,855.1c-10.4,4.6-21.4,7-32.8,7c-19.6,0-38.5-7.1-53.2-20.1
	c-91.5-80.5-195.9-140.9-310.5-179.4c-29.8-10-51.1-36.7-54.4-68l-29.4-284l-30.2-10.4c-21.5-7.4-81.6-24.5-175.8-24.5
	c-94,0-154.2,17.1-175.7,24.5l-30.2,10.4l-29.5,284c-3.2,31.3-24.6,57.9-54.4,67.9c-114.7,38.5-219.2,98.9-310.5,179.4
	c-14.7,12.9-33.6,20.1-53.2,20.1c-11.4,0-22.4-2.4-32.8-7l-260.8-116.5l-24.1,21c-17.1,14.9-62.1,58.4-109.1,139.9
	c-47.1,81.6-62.3,142.2-66.6,164.5l-6.1,31.3l230.5,167c25.4,18.4,37.9,50.3,31.7,81c-12,59.2-18,120.1-18,181
	c0,60.2,5.9,120.5,17.6,179.1c6.1,30.7-6.3,62.5-31.7,80.9L2613.8,1951l6.1,31.3c4.4,22.3,19.6,83,66.6,164.4
	c47,81.5,92,125,109.1,139.9l24.1,21l259-115.7C3089.1,2187.4,3100.1,2185,3111.5,2185z M506.7,3858.4c-47.4,0-93.5-9.4-137-27.9
	c-42.1-17.9-79.9-43.6-112.6-76.3c-32.6-32.7-58.2-70.6-76.1-112.7c-18.5-43.6-27.9-89.7-27.9-137.2v-594.7
	c0-153.4,98.6-288.2,245.3-335.4c8.1-2.6,16.4-3.9,24.7-3.9c35.3,0,66.2,22.4,77,55.8c6.6,20.4,4.7,42.1-5.1,61.3
	c-9.9,19.2-26.6,33.3-47.1,39.9c-78.9,25.4-134,100.4-134,182.3v594.7c0,106.6,86.5,193.3,192.8,193.3h197.1v-447.9
	c0-442.8,131.7-865.6,380.7-1222.8c122.3-175.4,268-330.4,433-460.7c165.6-130.8,349.8-236,547.5-312.6c9.4-3.6,19.1-5.5,29-5.5
	c16,0,31.6,4.8,45,13.8c13.6,9.2,24,22.2,30,37.6c8,20.6,7.8,42.7-0.4,62.4c-8.1,19.3-23.2,34.1-42.7,41.6
	C1371.5,1696.1,864.6,2437.9,864.6,3249.7v526.5c0,20.9-9.1,41.2-25.7,57.1c-16.6,16-38.6,25.1-60.4,25.1H506.7z M3766.7,1970.7
	c-246,0-446.2-200.2-446.2-446.2c0-246,200.2-446.2,446.2-446.2c246.1,0,446.2,200.2,446.2,446.2
	C4213,1770.5,4012.8,1970.7,3766.7,1970.7z M3766.7,1239.1c-157.4,0-285.4,128-285.4,285.4c0,157.4,128,285.4,285.4,285.4
	c76.1,0,147.8-29.7,201.7-83.7c54-54,83.7-125.6,83.7-201.7C4052.1,1367.1,3924.1,1239.1,3766.7,1239.1z"/>
<path class="st0" d="M5566.2-361.3C4861.5-361.3,4285,215.3,4285,919.9s576.5,1281.2,1281.2,1281.2s1281.2-576.5,1281.2-1281.2
	S6270.9-361.3,5566.2-361.3z"/>
<path class="st1" d="M5406.1,1448.4L4925.6,968l240.2-240.2L5406.1,968l560.5-560.5l240.2,240.2L5406.1,1448.4z"/>
</svg>
