<?xml version="1.0" encoding="utf-8"?>
<!-- Generator: Adobe Illustrator 21.0.0, SVG Export Plug-In . SVG Version: 6.00 Build 0)  -->
<svg version="1.1" id="Layer_1" xmlns="http://www.w3.org/2000/svg" xmlns:xlink="http://www.w3.org/1999/xlink" x="0px" y="0px"
	 viewBox="0 0 2108 492" style="enable-background:new 0 0 2108 492;" xml:space="preserve">
<style type="text/css">
	.st0{fill:none;}
	.st1{fill:#F6B618;}
	.st2{fill:#E88724;}
	.st3{fill:#F8C853;}
	.st4{fill:#FADB8D;}
</style>
<g>
	<path class="st0" d="M599.9,128.1c-0.2-0.3-0.3-0.6-0.4-0.9C599.6,127.5,599.8,127.8,599.9,128.1z"/>
	<path class="st0" d="M1111,199.1c-0.1-0.2-0.2-0.5-0.3-0.7C1110.7,198.7,1110.8,198.9,1111,199.1z"/>
	<path class="st0" d="M930,134.1c-0.2-0.6-0.4-1.2-0.5-1.8C929.6,132.9,929.7,133.5,930,134.1z"/>
	<path class="st0" d="M1151,324.9c0.2,0.3,0.3,0.5,0.4,0.8C1151.3,325.5,1151.2,325.2,1151,324.9z"/>
	<path class="st0" d="M1283.4,108.5c-0.8-0.1-1.6-0.3-2.4-0.5C1281.8,108.3,1282.6,108.5,1283.4,108.5z"/>
	<path class="st0" d="M1832,102.1c-0.2,0.1-0.4,0.2-0.5,0.3C1831.6,102.3,1831.8,102.2,1832,102.1z"/>
	<path class="st0" d="M1572.1,101c-0.3,0.2-0.6,0.3-0.9,0.4C1571.5,101.3,1571.8,101.2,1572.1,101z"/>
	<path class="st0" d="M1601.9,385c0.2-0.1,0.4-0.2,0.7-0.3C1602.4,384.7,1602.2,384.8,1601.9,385z"/>
	<path class="st1" d="M2107,194.5c-1.3-7.8-2.2-15.7-4.1-23.3c-5.5-22.8-16.6-42.1-36.6-55.2c-13.7-9-29.3-12.4-45.3-14.2h0
		c-6.6,0-13.3,0-19.9,0c-35.1,3.8-60.1,22-75.9,54.3c-1.4-2.6-2.3-4.1-3.1-5.7c-7.8-15.4-18.8-27.9-34-36.6
		c-10.3-5.9-21.6-8.9-33.1-11l0,0l0,0c-1.5,0-3,0.1-4.5-0.4c-0.2-0.1-0.4-0.2-0.6-0.3c-5.9,0-11.8,0-17.7,0h0h0c0,0,0,0-0.1,0
		c-0.2,0.1-0.4,0.2-0.5,0.3c-1.4,0.6-2.9,0.5-4.4,0.4h0c-12.2,2.1-23.8,5.3-34.5,12c-7.2,4.5-13.1,10.3-19.1,16.2
		c-0.7,0.7-1.7,1.7-2.3,1.6c-1.3-0.3-1.1-1.7-1.2-2.9c-1.5-15.6-7.2-21.6-23-23.8c-3,0-5.9,0-8.9,0c0,0,0,0,0,0c0,0,0,0,0,0
		c-9,0.9-17.3,2.8-21.1,12.5c-1.5,3.9-1.9,7.8-1.9,12c0.1,76.7,0.1,153.4,0.1,230.2c0,9.3,5.1,16.3,13.6,19.3c3,1.1,6.1,1,9.2,1.5
		c0,0,0,0,0,0s0,0,0,0c2.6,0,5.2,0.1,7.9,0.1c0,0,0,0,0,0c0,0,0,0,0,0c4.8-0.4,9.5-1.1,13.7-3.5c8-4.6,10.1-12.4,10.2-20.7
		c0.3-18.6,0.1-37.2,0.1-55.9c0-20.4,0.1-40.9,0.2-61.3l0,0l0,0c0-3.2-0.3-6.4,0.4-9.6c0.1-0.5,0.2-1,0.4-1.4
		c0.1-15.7,3.1-30.8,9.1-45.2c5-12.2,12.3-22.7,24.6-28.6c11.1-5.3,22.6-7.1,35.1-5.5c12.3,1.6,22.5,6.3,29.9,15.6
		c10.3,12.9,12.7,28.7,13.4,44.7c0,0,0,0,0,0c1.1,1.9,0.6,3.9,0.6,5.9c0,41.2,0,82.5,0,123.7c0,7.5,0.1,15,0.2,22.4l0,0l0,0
		c0.8,6.8,3.6,12.3,9.7,16.2c4.3,2.7,8.9,2.6,13.6,3.2h0h0c2.6,0,5.2,0,7.8,0c0,0,0,0,0,0c0,0,0,0,0,0c9.7-0.9,18.4-3.4,22.1-13.7
		c1.5-4.1,2-8.3,2-12.7c0-23.2,0-46.3,0-69.5c0-15.8,0.1-31.6,0.2-47.5l0,0l0,0c0-3.1-0.4-6.2,0.5-9.2c0.1-0.3,0.2-0.6,0.3-0.8
		c0.1-2,0.2-4,0.2-6l0,0l0,0c-0.1-1.7-0.2-3.4,0.7-5c0,0,0,0,0,0c0.5-13.5,4-26.3,9.7-38.5c6.4-13.8,16.8-23.2,31.6-27.1
		c9.1-2.4,18.3-2.9,27.9-1.6c14.1,1.8,24.6,8.5,31.9,20.1c8,12.7,9.5,27.3,10,41.9l0,0c1,1.9,0.5,3.9,0.5,5.9c0,41.6,0,83.2,0,124.8
		c0,6.5,0.1,13,0.1,19.5l0,0c0.7,2.9,0.7,6,2.4,8.8c4.9,7.9,12.2,10.6,21,10.6h0h0c2.6,0,5.2-0.1,7.9-0.1
		c10.8-0.7,19.4-4.5,22.9-15.8c0.2-0.5,0.8-0.9,1.2-1.4c0-1,0-2,0-3c-1.3-1-1-2.4-1-3.7c0-50.8,0.1-101.6,0.1-152.4c0,0,0,0,0,0
		c0.2-2-1-4.2,0.9-5.9c0-0.7,0-1.3,0-2C2106.7,196.5,2107.1,195.4,2107,194.5z"/>
	<path class="st2" d="M506.2,229.1C506.2,229.1,506.2,229.1,506.2,229.1C506.2,229.1,506.2,229.1,506.2,229.1
		c-0.1-2.6-0.2-5.2-0.3-7.8c0,0,0,0,0,0v0c-0.8-1.7-0.9-3.4-0.7-5.2l0,0c-2.3-14.8-4.8-29.6-10.3-43.6c-7.7-19.7-19-36.7-35.8-49.7
		c-15.7-12.2-33.9-18.1-53.2-21h0c-1.7,0.2-3.4,0.1-5.1-0.6c0,0-0.1,0-0.1-0.1c-6.9,0-13.8,0-20.7-0.1c-0.2,0.2-0.5,0.3-0.7,0.4
		c-1.4,0.5-2.8,0.5-4.3,0.4l0,0c-24,3.4-44.6,14-62.6,31.2c-2.5-19.7-7.2-24.9-23.5-27.2c0,0,0,0,0,0c0,0,0,0,0,0
		c-3,0-5.9,0-8.9-0.1c0,0,0,0,0,0l0,0c-8.5,1-16.5,2.5-21.1,11.4c-2,3.9-1.5,8-2.2,11.9c0,0,0,0,0,0c0,0,0,0,0,0
		c0,17.5,0.1,35,0.1,52.5c0,95.8,0,191.6-0.1,287.4c0,0,0,0,0,0h0c0.8,2.5,0.3,5.1,1,7.7c2.3,8.5,8.4,12.7,16.2,15.3
		c6.7,0,13.3,0,20,0c8.9-3,15.1-8.6,17.2-18.1l0,0c0-1.3-0.1-2.7,0.3-4c0.1-0.3,0.2-0.7,0.4-1c0-32.4,0-64.9,0-97.6
		c17.5,7.1,35.2,13.1,54.1,13.9c7,0,13.9,0,20.9-0.1c0,0,0,0,0,0s0,0,0,0c12.7-1.2,25.1-3.6,37.1-8.1c29.5-11,51.5-30.3,65.9-58.2
		c8.5-16.6,12.6-34.5,15.3-52.9v0v0c-0.1-1.5-0.1-3,0.4-4.5c0.1-0.2,0.2-0.4,0.3-0.6c0.1-2.6,0.2-5.3,0.3-7.9v0v0
		C506.3,245,506.2,237,506.2,229.1z M441.1,298.1c-10.8,25.4-31.3,38.2-58.5,39.8c-23,1.4-44.9-3.7-66.3-11.7
		c-3.3-1.2-4.5-2.9-4.4-6.5c0.2-13,0.1-26,0.1-39c0-21.1-0.7-42.3,3.1-63.3c2.4-13.2,5.9-25.9,12.4-37.7
		c13-23.5,35.9-34.3,62.6-30.4c28.5,4.1,46.8,20.2,54.9,47.1C455.1,230.5,455.2,264.9,441.1,298.1z"/>
	<path class="st2" d="M217.2,291L217.2,291L217.2,291c-0.7-3.1-1.2-6.1-2-9.2c-5.3-21.7-19.9-35.5-38.8-45.6
		c-18.4-9.9-38.3-15.6-58.5-20.3c-14.9-3.5-29.9-6.7-43.5-14.2c-7-3.8-13.1-8.6-13.5-17.5l0,0c-1.1-1.6-0.7-3.5-0.7-5.2
		c-0.7-7.5,1.7-13.8,7.1-19.1c9.9-9.8,22.6-11.7,35.6-13l0,0c6.8-1.2,13.6-1.3,20.4,0c0,0,0,0,0,0c4.2,0.6,8.4,0.8,12.5,1.9
		c11.7,2.9,24.3,5.7,31.2,16.2c4.5,7,8.2,4.6,13.2,3c18.8-6.2,25-22.5,14.9-39.5c-4.5-7.6-11.4-12.3-18.9-16.3
		c-14.5-7.5-30.3-9.6-46.2-11.4c0,0,0,0,0,0c0,0,0,0,0,0c-9,0-17.9,0-26.9,0c0,0,0,0,0,0s0,0,0,0c-24.5,2.8-47.5,9.1-67.3,25
		c-17,13.6-26.9,30.5-28.6,52.2c-0.9,11.3-0.2,22.5,4.5,33c8.3,18.4,23.6,29.7,41.3,37.9c19.4,8.9,40.2,13,60.8,18
		c14,3.4,28,7.1,40.3,15.1c6.6,4.2,11.5,9.7,12.1,18c0,0,0,0,0,0c1,2.7,1.1,5.5,0,8.2c0,0,0,0,0,0c-1.8,11.4-9.4,18-18.8,23.3
		c-16.4,9.2-34.2,9.5-52.3,8.4c0,0,0,0,0,0c0,0,0,0,0,0c-2,0.1-4.1,0.3-6-0.8l0,0h0c-12.4-0.2-24-3.7-35.2-8.7
		C42,325.2,31.9,317.9,26,306c-1.3-2.5-2.7-1.9-4.8-1C10.4,309.3,4.5,318,0,328c0,6,0,12,0,18c6.6,14.7,18.5,23.5,33.1,28.8
		c11.9,4.3,24.2,7.7,36.9,8.4c1.4,0,2.9-0.1,4.3,0.4c0.3,0.1,0.5,0.2,0.7,0.4c1.7,0.1,3.3,0.2,5,0.2h0h0c2.2,0,4.5-0.1,6.7,0.4
		c0.5,0.1,0.9,0.2,1.4,0.4c8.6,0,17.1,0,25.7,0c0.3-0.2,0.7-0.3,1-0.3c2-0.6,4-0.4,6.1-0.4c0,0,0,0,0,0c0,0,0,0,0,0
		c18.7-2.1,36.7-6.3,53.3-15.4c23-12.8,38.9-30.9,43-57.8v0c0-1.6-0.1-3.3,0.3-4.9c0.1-0.4,0.2-0.7,0.4-1.1c0-2.3,0-4.5,0-6.8
		c-0.2-0.5-0.3-1-0.4-1.4C217.1,294.8,217.2,292.9,217.2,291z"/>
	<path class="st2" d="M818.3,30.1c-1.7-8.9-6.1-16.1-12.8-22.2C801.2,4,795.8,2.7,791,0c-5,0-10,0-15,0c-0.2,0.7-0.8,0.9-1.5,1.1
		c-19.5,4.4-30.2,26.3-23.5,45.7c7.1,21,32.5,29.6,51.1,17.6c8.6-5.6,13.8-13.6,16.1-23.5l0,0c0,0,0,0,0,0
		C818.2,37.3,818.2,33.7,818.3,30.1z"/>
	<path class="st3" d="M2107.5,206.1c0,49.8,0,99.7,0,149.5c0,1.8-0.5,3.7,0.5,5.4c0-52,0-104,0-156c-0.2,0-0.3,0-0.5,0
		C2107.5,205.3,2107.5,205.7,2107.5,206.1z"/>
	<path class="st3" d="M2107.5,355.6c0-49.8,0-99.7,0-149.5c0-0.4,0-0.8,0-1.1c-0.1,0-0.3,0-0.4,0c0,50.8-0.1,101.6-0.1,152.4
		c0,1.3-0.3,2.7,1,3.7C2107,359.3,2107.5,357.4,2107.5,355.6z"/>
	<path class="st4" d="M2107.5,204.7c0.2,0,0.3,0.1,0.5,0.3c0-2,0-4,0-6C2107.1,200.8,2107.5,202.8,2107.5,204.7z"/>
	<path class="st4" d="M2107.1,204.9C2107.1,204.9,2107.1,204.9,2107.1,204.9L2107.1,204.9c0.1-0.2,0.3-0.2,0.4-0.2
		c0-1.9-0.4-3.8,0.5-5.7C2106.1,200.7,2107.3,202.9,2107.1,204.9z"/>
	<path class="st4" d="M2107.5,204.7c0,0.1,0,0.2,0,0.3c0.2,0,0.3,0,0.5,0C2107.9,204.8,2107.7,204.7,2107.5,204.7z"/>
	<path class="st4" d="M2107.5,204.7c-0.1,0-0.3,0.1-0.4,0.2v0c0.1,0,0.3,0,0.4,0C2107.5,204.9,2107.5,204.8,2107.5,204.7z"/>
	<path class="st2" d="M1111.3,209.1C1111.3,209.1,1111.3,209.1,1111.3,209.1L1111.3,209.1c-0.1-3.3-0.2-6.6-0.3-9.9
		c-0.1-0.2-0.2-0.5-0.3-0.7c-0.5-1.4-0.5-2.9-0.4-4.4c-1.1-6-1.9-12-3.3-17.9c-5.9-24.4-17.5-45-39.2-58.8
		c-13.7-8.7-28.9-13.1-44.8-15.5h0c-1.5,0.1-3,0.1-4.4-0.4c-0.2-0.1-0.5-0.2-0.7-0.3c-1.7,0-3.3,0-5,0c-18.1-0.8-35.4,2.6-51.2,11.3
		c-11.9,6.5-22.6,14.7-31.1,25.5c-1.2-1.2-0.6-2.6-0.6-3.8c0,0,0,0,0,0c0,0,0,0,0,0c0,0,0,0,0,0c-0.3-0.6-0.4-1.2-0.5-1.8
		c-0.4-2-0.3-4.1-0.3-6.2v0v0c-3-15.5-10.6-18.7-23.3-20.3h0c0,0,0,0,0,0c-2.6,0-5.2,0-7.9,0h0c-15.7,1.4-20.7,6-23.3,19.3v0
		c0,79,0,157.9,0,236.9l0,0l0,0c0.7,4.1,1.3,8.1,4.3,11.6c5.2,6,11.8,7.2,18.9,7.7h0c0,0,0,0,0,0c2.6,0,5.2,0,7.9,0l0,0l0,0
		c8.3-0.8,16.2-2.5,20.6-10.7c2.7-5,3.5-10.6,3.5-16.3c0-39.5,0-79,0-118.4c0-2,0.2-4,0.3-6v0c-0.2-2.1-0.3-4.2,0.6-6.2c0,0,0,0,0,0
		c-0.3-3.8,0.4-7.6,1.1-11.3c3.1-16.3,8.8-31.5,20.1-44c14.5-16,33-21,53.9-19.2l0,0l0,0c1.7-0.1,3.5-0.2,5.1,0.7c0,0,0,0,0,0
		c1.9-0.7,3.4,0.9,5.2,1.1c8.2,1.2,15.4,4.8,21.6,10.3c11.5,10.2,15.3,23.8,17.2,38.3l0,0l0,0c0.9,1.6,0.8,3.4,0.7,5.2
		c0.1,1.2,0.3,2.3,0.3,3.5c0,49.5,0,99-0.1,148.5c0.2,0.4,0.4,0.8,0.4,1.2c0.4,1.6,0.3,3.2,0.3,4.8l0,0c0.7,3.8,1.6,7.4,4.4,10.6
		c4.9,5.7,11,7.4,17.9,7.7h0h0c3,0,5.9,0,8.9,0h0l0,0c15.4-1.5,21-6.9,23.3-22.3c0,0,0,0,0,0c0,0,0,0,0,0
		C1111.2,309,1111.3,259,1111.3,209.1z"/>
	<path class="st2" d="M1196.4,273.8c16.6,6.1,33.9,9.6,51.7,10.4h0c1.8,0.1,3.7-0.5,5.4,0.7c0,0,0,0,0,0c16.4-0.5,32.7,0.5,49.1-1.7
		c23.7-3.2,46.3-9.4,66.8-22.1c22.2-13.7,36.7-32.6,39.8-59.2c0,0,0,0,0,0s0,0,0,0c0-4.3,0-8.6,0-12.9c0,0,0,0,0,0c0,0,0,0,0,0
		c-0.7-3.5-1.8-7.1-2-10.6c-0.3-6-5.3-10.9-3.3-17.4c1.2-3.9,1.5-8,2.3-12.1l0,0c0,0,0,0,0,0c0-4.3,0-8.6,0-12.9c0,0,0,0,0,0
		s0,0,0,0c-1.8-15.4-10.7-24.7-25.1-29.3c-3.1-1-6.3-1.5-9.7-1.2c-8.6,0.6-13.6,6-18.1,12.5c-1.1,1.5-1.5,3.8-4.8,2.5
		c-14.7-5.7-30.2-8.2-45.6-10.8c0,0,0,0,0,0c0,0,0,0,0,0c-1.5,0.1-3,0.1-4.5-0.5c-0.2-0.1-0.4-0.2-0.6-0.3c-2-0.1-3.9-0.2-5.9-0.2
		c0,0,0,0,0,0s0,0,0,0c-2.9,0-5.7,0.1-8.6-0.3c-0.8-0.1-1.6-0.2-2.4-0.5c0,0,0,0,0,0h0c0,0,0,0,0,0c-3.3,0-6.5,0-9.8,0
		c-0.8,0.3-1.6,0.4-2.5,0.5c-2.9,0.4-5.7,0.3-8.6,0.3c0,0,0,0,0,0c0,0,0,0,0,0c-7.8,1.1-15.8,1.8-23.5,3.3
		c-23.6,4.5-45.9,12.5-64.3,28.4c-16.2,14.1-27.1,31.4-28.4,53.6l0,0l0,0c0,4-0.1,7.9-0.1,11.9c0,0,0,0,0,0s0,0,0,0
		c0.1,7.4,1.2,14.8,3.7,21.6C1156,251,1173.7,265.4,1196.4,273.8z M1202.5,179.4c10.3-7.2,22-11,34.2-13.1
		c27.8-4.9,55.6-5.3,83.3,0.8c11.3,2.5,22,6.7,30.3,15.3c9.9,10.3,9.9,22.9-0.1,33.2c-11,11.3-25.3,15.4-40.2,18.3
		c-11.2,2.2-22.5,2.5-35.6,2.5c-18.7-0.3-39.1-1.6-58.4-9.3c-6.4-2.6-12.2-6-17-11C1187.3,203.9,1188.7,189.1,1202.5,179.4z"/>
	<path class="st1" d="M1681.2,328.1c-2.5-14.8-12.2-22-26.3-24.3h0c-2.3,0.4-4.6-0.3-6.8,0.7c0,0,0,0,0,0
		c-12.4,23.3-32.9,32.4-58,33.6c0,0,0,0,0,0c-6,1.2-12.1,1.4-18.1,0c0,0,0,0,0,0s0,0,0,0c-17.9-0.7-32.9-8.3-45-20.8
		c-16-16.6-22.9-37.3-23.9-60.1c-1.2-3.3-0.8-6.6-0.7-10c0-2-0.1-4.1-0.1-6.1l0,0l0,0c0-3.4-0.5-6.8,0.7-10.1c0,0,0,0,0,0
		c0.4-18.4,5-35.7,15.2-50.9c12.7-19,30.7-29.6,53.8-30.9l0,0c5.7-1.3,11.4-1.3,17.1,0h0h0c4.1-0.3,8.1,0.9,12,1.9
		c17.9,4.5,35.1,10.2,44.2,28.4c0.4,0.9,1,1.1,2.2,1c14.2-0.9,26.6-7.8,29.7-23.3l0,0l0,0c0-3.3,0-6.6-0.1-9.9l0,0l0,0
		c-5.2-17.2-18.3-26.6-33.4-33.9c-13.2-6.3-27.4-9.3-41.8-11.4c-1.8,0-3.6,0.1-5.3-0.4c-0.3-0.1-0.5-0.2-0.8-0.3
		c-7.9,0-15.8,0-23.7,0l0,0l0,0l0,0c-0.3,0.2-0.6,0.3-0.9,0.4c-1.6,0.5-3.4,0.4-5.1,0.4c0,0,0,0,0,0s0,0,0,0
		c-3.9,0.6-7.9,1.1-11.7,1.8c-23.6,4.5-45,13.3-63.7,29.1c-10.5,8.9-19,19.2-25.6,30.9c-10.9,19.3-17.1,40.2-18.3,62.5l0,0l0,0
		c0,2.3,0.1,4.6-0.4,6.9c-0.1,0.4-0.2,0.8-0.4,1.2c0,6.2,0,12.5,0,18.7c0.2,0.5,0.4,1.1,0.5,1.6c0.4,2.1,0.3,4.2,0.3,6.4
		c1.1,14.8,3.9,29.3,9.3,43.2c7.2,18.4,17.4,34.6,32.4,47.9c12.7,11.2,26.8,19.3,42.6,25c13.2,4.8,26.9,7.5,40.9,8.2l0,0
		c8,0,15.9,0,23.9,0c0,0,0,0,0,0s0,0,0,0c2-0.1,4-0.2,6-0.2c0.2-0.2,0.4-0.3,0.7-0.3c1.4-0.6,2.9-0.5,4.3-0.5
		c15.4-2.2,30.4-5.7,44-13.3c14.8-8.3,27.1-18.9,30.2-36.9l0,0l0,0C1681.2,332,1681.2,330,1681.2,328.1z"/>
	<path class="st2" d="M720,139.9c-0.8-12.3-5.5-22.3-16.4-29.1c-6.7-4.2-14.1-6.1-21.6-8l0,0l0,0c-1.5,0.1-3,0.1-4.4-0.5
		c-0.2-0.1-0.5-0.2-0.7-0.3c-31.9-2-56.3,12-76.9,37.2c0-4.9,0-8,0-11.1l0,0l0,0l0,0c-0.2-0.3-0.3-0.6-0.4-0.9
		c-0.4-1.3-0.4-2.8-0.4-4.2l0,0c0,0,0,0,0,0c-2.7-11.8-11.1-16.3-22.2-17.3l0,0c0,0,0,0,0,0c-3,0-5.9,0-8.9,0c0,0,0,0,0,0
		c0,0,0,0,0,0c-14.8,1.1-20.2,6.7-22.3,18.2c0,0,0,0,0,0v0c-0.1,20.5-0.2,41-0.2,61.5c0,53.2,0,106.3,0,159.5c0,6,0.1,12,0.2,18l0,0
		c0.3,3.3,1.1,6.4,3,9.1c4.6,6.9,11.5,8.8,19.2,9.1l0,0c0,0,0,0,0,0c3.3,0,6.6,0,9.9,0c0,0,0,0,0,0l0,0c12.8-1.3,19.2-5.8,21.6-15.9
		c0.8-3.5,1.2-7.2,1.2-10.8c0.1-34.4,0-68.8,0.1-103.2c0-6.8,0.2-13.6,0.4-20.4l0,0l0,0c-0.1-2-0.3-4.1,0.7-6v0v0
		c1.2-19.7,7.4-37.7,19.9-53.1c10.4-12.9,24.1-20.3,41-20.9h0h0c3.1-0.9,6.3-0.8,9.4,0c0,0,0,0,0,0c9.7,0.8,18.2,4.4,25.3,11.1
		c3.2,3,6.1,3.7,9.9,0.8c6-4.6,9.7-10.6,11.8-17.8v0c0-1.3,0-2.7,0.3-4C719.6,140.6,719.7,140.3,720,139.9z"/>
	<path class="st2" d="M1403.1,259.5c-3.4-6.2-3.6-6.3-8.5-1.5c-3.9,3.8-7.5,7.9-11.8,11.2c-9.8,7.5-20.3,13.8-31.8,18.4
		c-1.1,0.5-2.5,1-0.9,2.8c8,9.1,3.2,21.3-7.1,26.6c-17.4,9-36.2,11.6-55.4,12h0h0c-2.4,1.4-4.9,0.5-7.4,0.6l0,0l0,0
		c-3,0.4-6.1,0.4-9.1,0l0,0l0,0c-2.8,0-5.6,0.8-8.3-0.6c0,0,0,0,0,0c-10.3,0.6-20.5-1-30.5-3.2c-20.1-4.6-39.5-10.7-48.1-32.6
		c-0.7-1.7-1.8-2.3-3.5-1.8c-14,4.3-30.2,10.7-29.6,33.5l0,0l0,0c0,0,0,0,0,0c0.2,0.3,0.3,0.5,0.4,0.8c0.5,1.4,0.4,2.8,0.4,4.2
		c3.3,15.6,13.2,26.3,26.1,34.4c24.4,15.4,51.5,21.7,80.1,22.5c33.6,1,66.5-3.1,97.4-17c28-12.6,50.9-30.2,56.8-62.9l0,0l0,0
		c0-5.6,0-11.3,0-16.9c0,0,0,0,0,0s0,0,0,0C1410.5,279.5,1408.3,269.1,1403.1,259.5z"/>
	<path class="st2" d="M1412.3,392.1L1412.3,392.1c-1.4-10.2-3.7-20.1-8.2-29.5c-1-2.1-1.8-3.4-4.1-1c-13.1,13.2-28.9,22.4-46,29.3
		c-2.7,1.1-3,1.9-1.9,4.6c4,9.3,1.8,16.3-6.6,22c-5.3,3.6-11.2,5.9-17.3,7.5c-34.2,8.7-68.6,9-102.8,0.7
		c-17.6-4.3-34-11.5-40.9-30.6c-0.5-1.3-1.3-2.5-2.9-2c-7.3,2-14.5,4.3-20.4,9.3c-14.1,12-12,30-3.7,43.4
		c10.2,16.4,26.1,25.5,43.6,32.2c15.8,6,32.2,9.5,49.1,10.3l0,0l0,0c1.8,0,3.7-0.6,5.4,0.6c0,0,0,0,0,0c8.1-0.5,16.1-0.5,24.2,0
		c0,0,0,0,0,0c1.7-1.1,3.5-0.7,5.3-0.7v0v0c3.6-0.4,7.2-0.9,10.9-1.2c25.1-2.5,49.1-8.9,71.2-21.2c22.8-12.7,40.3-29.8,45.2-56.8
		l0,0C1412.2,403.3,1412.2,397.7,1412.3,392.1C1412.3,392.1,1412.3,392.1,1412.3,392.1z"/>
	<path class="st2" d="M787.9,105.8L787.9,105.8L787.9,105.8c-2.6,0-5.2,0-7.9-0.1h0h0c-14.2,1.1-21.9,6.1-23.3,21.3c0,0,0,0,0,0
		c0,0,0,0,0,0c0,57.1,0.1,114.3,0.1,171.4c0,20.5,0,41-0.1,61.5l0,0l0,0c0.7,3.5,0.7,7,2.4,10.3c4.5,8.6,12.2,10.6,20.8,11l0,0l0,0
		c2.6,0,5.3,0,7.9,0h0h0c15.9-1.6,23-9.5,23-25.9c0-74.6,0-149.1,0-223.7C811,115.4,804,107.6,787.9,105.8z"/>
</g>
</svg>
