<?xml version="1.0" encoding="utf-8"?>
<!-- Generator: Adobe Illustrator 21.0.0, SVG Export Plug-In . SVG Version: 6.00 Build 0)  -->
<svg version="1.1" id="Слой_1" xmlns="http://www.w3.org/2000/svg" xmlns:xlink="http://www.w3.org/1999/xlink" x="0px" y="0px"
	 viewBox="0 2418.4 5669.3 832.4" style="enable-background:new 0 2418.4 5669.3 832.4;" xml:space="preserve">
<style type="text/css">
	.st0{clip-path:url(#SVGID_2_);fill:#636467;}
	.st1{clip-path:url(#SVGID_4_);fill:#DB163C;}
	.st2{clip-path:url(#SVGID_6_);fill:#DB163C;}
	.st3{clip-path:url(#SVGID_8_);fill:#DB163C;}
	.st4{clip-path:url(#SVGID_10_);fill:#DB163C;}
	.st5{clip-path:url(#SVGID_12_);fill:#DB163C;}
	.st6{clip-path:url(#SVGID_14_);fill:#636467;}
	.st7{clip-path:url(#SVGID_16_);fill:#636467;}
	.st8{clip-path:url(#SVGID_18_);fill:#636467;}
	.st9{clip-path:url(#SVGID_20_);fill:#91C9ED;}
	.st10{clip-path:url(#SVGID_22_);fill:#DB163C;}
	.st11{clip-path:url(#SVGID_24_);fill:#005BA8;}
	.st12{clip-path:url(#SVGID_26_);fill:#636467;}
	.st13{clip-path:url(#SVGID_28_);fill:#636467;}
	.st14{clip-path:url(#SVGID_30_);fill:#636467;}
	.st15{clip-path:url(#SVGID_32_);fill:#636467;}
	.st16{clip-path:url(#SVGID_34_);fill:#636467;}
	.st17{clip-path:url(#SVGID_36_);fill:#636467;}
	.st18{clip-path:url(#SVGID_38_);fill:#636467;}
	.st19{clip-path:url(#SVGID_40_);fill:#636467;}
	.st20{clip-path:url(#SVGID_42_);fill:#636467;}
	.st21{clip-path:url(#SVGID_44_);fill:#636467;}
	.st22{clip-path:url(#SVGID_46_);fill:#636467;}
	.st23{clip-path:url(#SVGID_48_);fill:#636467;}
	.st24{clip-path:url(#SVGID_50_);fill:#636467;}
	.st25{clip-path:url(#SVGID_52_);fill:#636467;}
	.st26{clip-path:url(#SVGID_54_);fill:#636467;}
	.st27{clip-path:url(#SVGID_56_);fill:#636467;}
	.st28{clip-path:url(#SVGID_58_);fill:#636467;}
	.st29{clip-path:url(#SVGID_60_);fill:#636467;}
	.st30{clip-path:url(#SVGID_62_);fill:#636467;}
	.st31{clip-path:url(#SVGID_64_);fill:#636467;}
	.st32{clip-path:url(#SVGID_66_);fill:#626566;}
</style>
<g>
	<g>
		<defs>
			<rect id="SVGID_1_" y="2418.4" width="5669.3" height="832.4"/>
		</defs>
		<clipPath id="SVGID_2_">
			<use xlink:href="#SVGID_1_"  style="overflow:visible;"/>
		</clipPath>
		<path class="st0" d="M4665.9,2499.4c63,0,108,9,130.5,27c22.5,18,36,54,36,103.5c0,36-4.5,58.5-13.5,76.5c-9,18-27,27-49.5,31.5
			c22.5,4.5,36,13.5,49.5,27c9,13.5,18,27,18,49.5v81h-121.5v-58.5c0-13.5-4.5-27-9-31.5c-9-4.5-22.5-9-45-9h-180v103.5H4360v-400.4
			H4665.9z M4661.4,2598.4h-193.5v99h193.5c18,0,27-4.5,36-13.5c4.5-9,9-22.5,9-40.5c0-13.5-4.5-27-9-36
			C4688.4,2602.9,4679.4,2598.4,4661.4,2598.4"/>
	</g>
	<g>
		<defs>
			<rect id="SVGID_3_" y="2418.4" width="5669.3" height="832.4"/>
		</defs>
		<clipPath id="SVGID_4_">
			<use xlink:href="#SVGID_3_"  style="overflow:visible;"/>
		</clipPath>
		<path class="st1" d="M1075.4,2764.9h121.5v9c0,13.5,4.5,27,9,31.5c9,4.5,22.5,9,45,9h153c13.5,0,27-4.5,31.5-9
			c4.5-4.5,9-13.5,9-27s-4.5-22.5-9-27c-9-4.5-22.5-9-49.5-9l-189-4.5c-49.5,0-81-9-99-27c-18-18-27-49.5-27-90
			c0-22.5,0-40.5,4.5-58.5c4.5-13.5,13.5-27,22.5-36c13.5-9,27-18,45-22.5c18-4.5,49.5-9,90-9h184.5c45,0,81,9,99,27
			c18,18,31.5,45,31.5,81c0,4.5,0,4.5,0,9c0,4.5,0,9,0,13.5h-117l0,0c0-13.5-4.5-22.5-9-31.5c-9-4.5-18-9-31.5-9h-139.5
			c-22.5,0-40.5,4.5-45,9c-9,4.5-13.5,13.5-13.5,22.5c0,13.5,4.5,18,9,22.5c13.5,4.5,27,4.5,45,9l198,4.5c45,0,76.5,13.5,94.5,31.5
			c22.5,18,31.5,49.5,31.5,94.5c0,27-4.5,49.5-9,63c-9,13.5-18,27-36,40.5c-9,9-27,13.5-45,13.5c-18,4.5-45,4.5-81,4.5h-162
			c-67.5,0-112.5-9-135-22.5c-22.5-13.5-36-45-36-85.5c0-4.5,0-4.5,0-13.5C1075.4,2778.4,1075.4,2773.9,1075.4,2764.9"/>
	</g>
	<g>
		<defs>
			<rect id="SVGID_5_" y="2418.4" width="5669.3" height="832.4"/>
		</defs>
		<clipPath id="SVGID_6_">
			<use xlink:href="#SVGID_5_"  style="overflow:visible;"/>
		</clipPath>
		<path class="st2" d="M1615.3,2499.4h121.5v234c0,27,4.5,45,18,54c13.5,9,40.5,13.5,81,13.5h67.5c36,0,58.5-4.5,67.5-13.5
			c13.5-9,18-27,18-54v-234h121.5v274.5c0,45-13.5,81-36,99c-27,18-67.5,31.5-130.5,31.5h-135c-72,0-121.5-9-148.5-27
			c-27-18-40.5-54-40.5-103.5v-274.5H1615.3z"/>
	</g>
	<g>
		<defs>
			<rect id="SVGID_7_" y="2418.4" width="5669.3" height="832.4"/>
		</defs>
		<clipPath id="SVGID_8_">
			<use xlink:href="#SVGID_7_"  style="overflow:visible;"/>
		</clipPath>
		<path class="st3" d="M2537.7,2643.4L2537.7,2643.4c0-18-4.5-31.5-18-36c-9-4.5-36-9-76.5-9h-72c-40.5,0-67.5,4.5-81,13.5
			c-13.5,9-18,31.5-18,63v54c0,27,4.5,49.5,18,58.5c13.5,9,40.5,18,76.5,18h72c36,0,58.5-4.5,72-9s18-18,18-31.5c0,0,0-4.5,0-9l0,0
			h-144v-90h270v130.5c0,36-13.5,63-40.5,81c-27,18-76.5,22.5-144,22.5h-135c-40.5,0-72-4.5-90-4.5c-18-4.5-36-13.5-49.5-22.5
			c-18-13.5-27-27-36-45c-9-18-9-40.5-9-72v-108c0-58.5,13.5-94.5,40.5-117c27-22.5,76.5-36,148.5-36h135c45,0,76.5,0,99,4.5
			c22.5,4.5,36,9,49.5,18c13.5,9,22.5,22.5,27,40.5c4.5,18,9,36,9,63v13.5c0,4.5,0,4.5,0,9H2537.7z"/>
	</g>
	<g>
		<defs>
			<rect id="SVGID_9_" y="2418.4" width="5669.3" height="832.4"/>
		</defs>
		<clipPath id="SVGID_10_">
			<use xlink:href="#SVGID_9_"  style="overflow:visible;"/>
		</clipPath>
		<path class="st4" d="M2794.2,2895.4h-135l220.5-396h157.5l216,400.4h-135l-40.5-67.5h-243L2794.2,2895.4z M2879.6,2733.4h153
			l-76.5-139.5L2879.6,2733.4z"/>
	</g>
	<g>
		<defs>
			<rect id="SVGID_11_" y="2418.4" width="5669.3" height="832.4"/>
		</defs>
		<clipPath id="SVGID_12_">
			<use xlink:href="#SVGID_11_"  style="overflow:visible;"/>
		</clipPath>
		<path class="st5" d="M3581.6,2499.4c63,0,108,9,130.5,27c22.5,18,36,54,36,103.5c0,36-4.5,58.5-13.5,76.5c-9,18-27,27-49.5,31.5
			c22.5,4.5,36,13.5,49.5,27c9,13.5,18,27,18,49.5v81H3631v-58.5c0-13.5-4.5-27-9-31.5c-9-4.5-22.5-9-45-9h-180v103.5h-121.5v-400.4
			H3581.6z M3577.1,2598.4h-193.5v99h193.5c18,0,27-4.5,36-13.5c4.5-9,9-22.5,9-40.5c0-13.5-4.5-27-9-36
			C3604,2602.9,3595,2598.4,3577.1,2598.4"/>
	</g>
	<g>
		<defs>
			<rect id="SVGID_13_" y="2418.4" width="5669.3" height="832.4"/>
		</defs>
		<clipPath id="SVGID_14_">
			<use xlink:href="#SVGID_13_"  style="overflow:visible;"/>
		</clipPath>
		<path class="st6" d="M4180,2643.4L4180,2643.4c0-18-4.5-31.5-13.5-36c-9-9-27-9-49.5-9h-99c-40.5,0-67.5,4.5-81,13.5
			c-13.5,9-18,31.5-18,63v54c0,27,4.5,49.5,18,58.5c13.5,9,40.5,18,76.5,18h72c40.5,0,63-4.5,76.5-13.5c13.5-9,18-22.5,18-45v-4.5
			h121.5c0,0,0,0,0,4.5c0,13.5,0,22.5,0,27c0,27-4.5,45-9,63c-4.5,18-18,31.5-31.5,40.5c-13.5,9-31.5,18-54,22.5s-54,4.5-94.5,4.5
			h-135c-40.5,0-72-4.5-90-9c-18-4.5-36-13.5-49.5-22.5c-18-13.5-27-27-36-45c-9-18-9-40.5-9-72v-108c0-58.5,13.5-99,40.5-121.5
			c27-22.5,76.5-36,148.5-36h135c45,0,76.5,0,94.5,4.5c22.5,4.5,36,9,49.5,18c13.5,9,22.5,22.5,27,40.5c4.5,18,9,36,9,63v13.5
			c0,4.5,0,4.5,0,9h-117V2643.4z"/>
	</g>
	<g>
		<defs>
			<rect id="SVGID_15_" y="2418.4" width="5669.3" height="832.4"/>
		</defs>
		<clipPath id="SVGID_16_">
			<use xlink:href="#SVGID_15_"  style="overflow:visible;"/>
		</clipPath>
		<polygon class="st7" points="4998.9,2895.4 4881.9,2895.4 4881.9,2499.4 5061.9,2499.4 5205.8,2746.9 5349.8,2499.4 
			5525.3,2499.4 5525.3,2895.4 5408.3,2895.4 5408.3,2611.9 5241.8,2895.4 5165.4,2895.4 4998.9,2611.9 		"/>
	</g>
	<g>
		<defs>
			<rect id="SVGID_17_" y="2418.4" width="5669.3" height="832.4"/>
		</defs>
		<clipPath id="SVGID_18_">
			<use xlink:href="#SVGID_17_"  style="overflow:visible;"/>
		</clipPath>
		<path class="st8" d="M760.4,2557.9l-333-135c-18-4.5-45-4.5-63,0l-333,135c-18,4.5-31.5,27-31.5,45v463.4c0,18,13.5,40.5,31.5,45
			l333,130.5c18,9,45,9,63,0l333-130.5c18-9,31.5-27,31.5-45v-463.4C791.9,2584.9,778.4,2562.4,760.4,2557.9"/>
	</g>
	<g>
		<defs>
			<rect id="SVGID_19_" y="2418.4" width="5669.3" height="832.4"/>
		</defs>
		<clipPath id="SVGID_20_">
			<use xlink:href="#SVGID_19_"  style="overflow:visible;"/>
		</clipPath>
		<path class="st9" d="M427.4,2706.4c-18,9-45,9-63,0l-324-130.5c-13.5-4.5-13.5-18,0-22.5l319.5-126c18-9,45-9,63,0l324,126
			c18,9,18,18,0,27L427.4,2706.4z"/>
	</g>
	<g>
		<defs>
			<rect id="SVGID_21_" y="2418.4" width="5669.3" height="832.4"/>
		</defs>
		<clipPath id="SVGID_22_">
			<use xlink:href="#SVGID_21_"  style="overflow:visible;"/>
		</clipPath>
		<path class="st10" d="M387,3219.3c0,18-13.5,27-31.5,22.5L36,3115.9c-22.5-9-36-31.5-36-49.5v-445.4c0-22.5,13.5-31.5,31.5-22.5
			l319.5,126c18,9,31.5,27,31.5,49.5v445.4H387z"/>
	</g>
	<g>
		<defs>
			<rect id="SVGID_23_" y="2418.4" width="5669.3" height="832.4"/>
		</defs>
		<clipPath id="SVGID_24_">
			<use xlink:href="#SVGID_23_"  style="overflow:visible;"/>
		</clipPath>
		<path class="st11" d="M404.9,3214.8c0,18,13.5,27,31.5,22.5l319.5-126c18-9,31.5-27,31.5-49.5v-440.9c0-18-13.5-27-31.5-22.5
			l-319.5,126c-18,4.5-31.5,27-31.5,45V3214.8z"/>
	</g>
	<g>
		<defs>
			<rect id="SVGID_25_" y="2418.4" width="5669.3" height="832.4"/>
		</defs>
		<clipPath id="SVGID_26_">
			<use xlink:href="#SVGID_25_"  style="overflow:visible;"/>
		</clipPath>
		<path class="st12" d="M1160.9,3088.9v-9c0-4.5,0-9-4.5-13.5c-4.5-4.5-9-4.5-22.5-4.5h-4.5c-9,0-13.5,0-18,0c-4.5,0-4.5,4.5-9,4.5
			c-4.5,4.5-4.5,13.5-4.5,22.5v36c0,13.5,4.5,22.5,9,27c4.5,0,4.5,4.5,9,4.5c4.5,0,9,0,13.5,0c9,0,13.5,0,18,0c4.5,0,9-4.5,9-4.5
			s0-4.5,4.5-4.5v-4.5v-4.5c0-4.5,0-4.5,0-9h27v9v4.5c0,13.5-4.5,22.5-9,31.5c-4.5,4.5-13.5,9-27,9c-4.5,0-9,0-18,0c-4.5,0-9,0-9,0
			c-18,0-31.5-4.5-40.5-13.5c-4.5-4.5-4.5-9-9-13.5c0-4.5-4.5-13.5-4.5-18c0-4.5,0-13.5,0-27s0-22.5,0-27s0-13.5,4.5-18
			c0-4.5,4.5-9,9-13.5c4.5-4.5,9-9,13.5-9s9-4.5,18-4.5c4.5,0,13.5,0,18,0c9,0,13.5,0,18,0c4.5,0,9,0,13.5,4.5c4.5,0,9,4.5,13.5,4.5
			c4.5,4.5,4.5,9,9,13.5c0,4.5,4.5,9,4.5,13.5s0,9,0,13.5L1160.9,3088.9L1160.9,3088.9z"/>
	</g>
	<g>
		<defs>
			<rect id="SVGID_27_" y="2418.4" width="5669.3" height="832.4"/>
		</defs>
		<clipPath id="SVGID_28_">
			<use xlink:href="#SVGID_27_"  style="overflow:visible;"/>
		</clipPath>
		<path class="st13" d="M1345.3,3039.4c9,0,13.5,0,18,0c4.5,0,13.5,0,18,4.5c4.5,0,9,4.5,13.5,9c0,0,4.5,4.5,4.5,9
			s4.5,13.5,4.5,22.5v45c0,9,0,13.5-4.5,18c0,4.5-4.5,9-4.5,13.5c-4.5,4.5-9,9-13.5,9c-4.5,0-13.5,4.5-18,4.5c-4.5,0-13.5,0-22.5,0
			s-18,0-27-4.5c-9,0-13.5-4.5-18-9c-9-9-9-18-9-40.5v-27c0-9,0-13.5,0-22.5c0-4.5,4.5-13.5,4.5-18c4.5-4.5,9-9,13.5-9
			s13.5-4.5,18-4.5C1331.8,3039.4,1336.3,3039.4,1345.3,3039.4 M1345.3,3061.9c-9,0-13.5,0-18,0c-4.5,0-9,4.5-9,9
			c0,4.5-4.5,9-4.5,18v4.5v31.5c0,13.5,0,18,4.5,22.5c0,4.5,4.5,4.5,9,4.5c4.5,0,9,0,18,0s13.5,0,18,0c4.5,0,9-4.5,9-4.5
			s4.5-4.5,4.5-9s0-9,0-13.5v-31.5v-4.5c0-9,0-13.5-4.5-18c-4.5-4.5-9-4.5-13.5-4.5C1354.3,3061.9,1349.8,3061.9,1345.3,3061.9"/>
	</g>
	<g>
		<defs>
			<rect id="SVGID_29_" y="2418.4" width="5669.3" height="832.4"/>
		</defs>
		<clipPath id="SVGID_30_">
			<use xlink:href="#SVGID_29_"  style="overflow:visible;"/>
		</clipPath>
		<polygon class="st14" points="1507.3,3178.9 1507.3,3039.4 1547.8,3039.4 1588.3,3142.9 1588.3,3142.9 1624.3,3039.4 
			1669.3,3039.4 1669.3,3178.9 1642.3,3178.9 1642.3,3061.9 1642.3,3061.9 1597.3,3178.9 1574.8,3178.9 1529.8,3061.9 
			1529.8,3061.9 1534.3,3115.9 1534.3,3178.9 		"/>
	</g>
	<g>
		<defs>
			<rect id="SVGID_31_" y="2418.4" width="5669.3" height="832.4"/>
		</defs>
		<clipPath id="SVGID_32_">
			<use xlink:href="#SVGID_31_"  style="overflow:visible;"/>
		</clipPath>
		<polygon class="st15" points="1777.3,3178.9 1777.3,3039.4 1817.8,3039.4 1853.8,3142.9 1858.3,3142.9 1894.3,3039.4 
			1939.3,3039.4 1939.3,3178.9 1912.3,3178.9 1912.3,3061.9 1912.3,3061.9 1867.3,3178.9 1844.8,3178.9 1799.8,3061.9 
			1799.8,3061.9 1799.8,3115.9 1799.8,3178.9 		"/>
	</g>
	<g>
		<defs>
			<rect id="SVGID_33_" y="2418.4" width="5669.3" height="832.4"/>
		</defs>
		<clipPath id="SVGID_34_">
			<use xlink:href="#SVGID_33_"  style="overflow:visible;"/>
		</clipPath>
		<polygon class="st16" points="2042.7,3178.9 2042.7,3039.4 2137.2,3039.4 2137.2,3061.9 2069.7,3061.9 2069.7,3097.9 
			2132.7,3097.9 2132.7,3120.4 2069.7,3120.4 2069.7,3156.4 2137.2,3156.4 2137.2,3178.9 		"/>
	</g>
	<g>
		<defs>
			<rect id="SVGID_35_" y="2418.4" width="5669.3" height="832.4"/>
		</defs>
		<clipPath id="SVGID_36_">
			<use xlink:href="#SVGID_35_"  style="overflow:visible;"/>
		</clipPath>
		<path class="st17" d="M2308.2,3039.4c18,0,31.5,4.5,36,9c4.5,4.5,9,18,9,31.5s0,27-4.5,31.5c-4.5,4.5-9,9-18,9l0,0
			c9,0,13.5,4.5,18,9c4.5,4.5,4.5,13.5,4.5,22.5v27h-27v-22.5c0-4.5,0-9,0-13.5c0-4.5,0-4.5-4.5-9l-4.5-4.5c-4.5,0-4.5,0-9,0h-4.5
			h-36v45h-27v-139.5h67.5V3039.4z M2303.7,3061.9h-36v45h40.5c4.5,0,9,0,9,0c4.5,0,4.5,0,4.5-4.5c4.5-4.5,4.5-9,4.5-18
			c0-9,0-13.5-4.5-18c0,0-4.5-4.5-9-4.5C2312.7,3066.4,2308.2,3061.9,2303.7,3061.9"/>
	</g>
	<g>
		<defs>
			<rect id="SVGID_37_" y="2418.4" width="5669.3" height="832.4"/>
		</defs>
		<clipPath id="SVGID_38_">
			<use xlink:href="#SVGID_37_"  style="overflow:visible;"/>
		</clipPath>
		<path class="st18" d="M2542.2,3088.9v-9c0-4.5,0-9-4.5-13.5c-4.5-4.5-9-4.5-22.5-4.5h-4.5c-9,0-13.5,0-18,0s-4.5,4.5-9,4.5
			c-4.5,4.5-4.5,13.5-4.5,22.5v36c0,13.5,4.5,22.5,9,27c4.5,0,4.5,4.5,9,4.5c4.5,0,9,0,13.5,0c9,0,13.5,0,18,0c4.5,0,9-4.5,9-4.5
			s0-4.5,4.5-4.5v-4.5v-4.5c0-4.5,0-4.5,0-9h27v9v4.5c0,13.5-4.5,22.5-9,31.5c-4.5,4.5-13.5,9-27,9c-4.5,0-9,0-18,0c-4.5,0-9,0-9,0
			c-18,0-31.5-4.5-40.5-13.5c-4.5-4.5-4.5-9-9-13.5c0-4.5-4.5-13.5-4.5-18c0-4.5,0-13.5,0-27s0-22.5,0-27s0-13.5,4.5-18
			c0-4.5,4.5-9,9-13.5s9-9,13.5-9c4.5,0,9-4.5,18-4.5c4.5,0,13.5,0,18,0c9,0,13.5,0,18,0s9,0,13.5,4.5c4.5,0,9,4.5,13.5,4.5
			c4.5,4.5,4.5,9,9,13.5c0,4.5,4.5,9,4.5,13.5s0,9,0,13.5L2542.2,3088.9L2542.2,3088.9z"/>
	</g>
	<g>
		<defs>
			<rect id="SVGID_39_" y="2418.4" width="5669.3" height="832.4"/>
		</defs>
		<clipPath id="SVGID_40_">
			<use xlink:href="#SVGID_39_"  style="overflow:visible;"/>
		</clipPath>
		<rect x="2668.2" y="3039.4" class="st19" width="27" height="139.5"/>
	</g>
	<g>
		<defs>
			<rect id="SVGID_41_" y="2418.4" width="5669.3" height="832.4"/>
		</defs>
		<clipPath id="SVGID_42_">
			<use xlink:href="#SVGID_41_"  style="overflow:visible;"/>
		</clipPath>
		<path class="st20" d="M2834.6,3039.4h40.5l45,139.5h-27l-9-27h-58.5l-9,27h-27l31.5-94.5L2834.6,3039.4z M2834.6,3133.9h45
			l-22.5-72l0,0L2834.6,3133.9z"/>
	</g>
	<g>
		<defs>
			<rect id="SVGID_43_" y="2418.4" width="5669.3" height="832.4"/>
		</defs>
		<clipPath id="SVGID_44_">
			<use xlink:href="#SVGID_43_"  style="overflow:visible;"/>
		</clipPath>
		<polygon class="st21" points="3019.1,3039.4 3041.6,3039.4 3041.6,3156.4 3109.1,3156.4 3109.1,3178.9 3019.1,3178.9 		"/>
	</g>
	<g>
		<defs>
			<rect id="SVGID_45_" y="2418.4" width="5669.3" height="832.4"/>
		</defs>
		<clipPath id="SVGID_46_">
			<use xlink:href="#SVGID_45_"  style="overflow:visible;"/>
		</clipPath>
		<path class="st22" d="M3406.1,3039.4c9,0,13.5,0,18,0c4.5,0,13.5,0,18,4.5c4.5,0,9,4.5,13.5,9c0,0,4.5,4.5,4.5,9
			s4.5,13.5,4.5,22.5v45c0,9,0,13.5-4.5,18c0,4.5-4.5,9-4.5,13.5c-4.5,4.5-9,9-13.5,9s-13.5,4.5-18,4.5c-4.5,0-13.5,0-22.5,0
			s-18,0-27-4.5c-9,0-13.5-4.5-18-9c-9-9-9-18-9-40.5v-27c0-9,0-13.5,0-22.5c0-4.5,4.5-13.5,4.5-18c4.5-4.5,9-9,13.5-9
			s13.5-4.5,18-4.5C3392.6,3039.4,3397.1,3039.4,3406.1,3039.4 M3406.1,3061.9c-9,0-13.5,0-18,0c-4.5,0-9,4.5-9,9
			c0,4.5-4.5,9-4.5,18v4.5v31.5c0,13.5,0,18,4.5,22.5c0,4.5,4.5,4.5,9,4.5c4.5,0,9,0,18,0c9,0,13.5,0,18,0c4.5,0,9-4.5,9-4.5
			s4.5-4.5,4.5-9s0-9,0-13.5v-31.5v-4.5c0-9,0-13.5-4.5-18c-4.5-4.5-9-4.5-13.5-4.5C3415.1,3061.9,3410.6,3061.9,3406.1,3061.9"/>
	</g>
	<g>
		<defs>
			<rect id="SVGID_47_" y="2418.4" width="5669.3" height="832.4"/>
		</defs>
		<clipPath id="SVGID_48_">
			<use xlink:href="#SVGID_47_"  style="overflow:visible;"/>
		</clipPath>
		<path class="st23" d="M3590.6,3133.9v45h-27v-139.5h58.5c9,0,18,0,27,4.5c9,0,13.5,4.5,18,13.5c4.5,9,4.5,18,4.5,31.5
			c0,18-4.5,27-9,36c-4.5,4.5-9,4.5-13.5,9c-4.5,0-13.5,4.5-22.5,4.5h-36V3133.9z M3590.6,3111.4h36c9,0,18,0,18-4.5
			c4.5,0,4.5-4.5,4.5-4.5s0-4.5,0-13.5s0-13.5-4.5-18c0-4.5-4.5-4.5-9-4.5c-4.5,0-9,0-13.5,0h-36v45H3590.6z"/>
	</g>
	<g>
		<defs>
			<rect id="SVGID_49_" y="2418.4" width="5669.3" height="832.4"/>
		</defs>
		<clipPath id="SVGID_50_">
			<use xlink:href="#SVGID_49_"  style="overflow:visible;"/>
		</clipPath>
		<polygon class="st24" points="3775,3178.9 3775,3039.4 3869.5,3039.4 3869.5,3061.9 3802,3061.9 3802,3097.9 3865,3097.9 
			3865,3120.4 3802,3120.4 3802,3156.4 3869.5,3156.4 3869.5,3178.9 		"/>
	</g>
	<g>
		<defs>
			<rect id="SVGID_51_" y="2418.4" width="5669.3" height="832.4"/>
		</defs>
		<clipPath id="SVGID_52_">
			<use xlink:href="#SVGID_51_"  style="overflow:visible;"/>
		</clipPath>
		<polygon class="st25" points="3973,3039.4 4018,3039.4 4076.5,3156.4 4076.5,3156.4 4076.5,3039.4 4103.5,3039.4 4103.5,3178.9 
			4058.5,3178.9 4000,3061.9 4000,3061.9 4000,3120.4 4000,3178.9 3973,3178.9 		"/>
	</g>
	<g>
		<defs>
			<rect id="SVGID_53_" y="2418.4" width="5669.3" height="832.4"/>
		</defs>
		<clipPath id="SVGID_54_">
			<use xlink:href="#SVGID_53_"  style="overflow:visible;"/>
		</clipPath>
		<path class="st26" d="M4404.9,3039.4c13.5,0,22.5,0,27,0c9,0,13.5,4.5,18,9s9,9,9,13.5s0,13.5,0,18h-27v-4.5c0-4.5,0-9-4.5-9
			c0-4.5-9-4.5-18-4.5h-9c-9,0-18,0-22.5,4.5l-4.5,4.5c0,0,0,4.5,0,9c0,4.5,0,9,0,9s0,4.5,4.5,4.5c0,0,4.5,0,4.5,4.5
			c4.5,0,4.5,0,9,0c4.5,0,9,0,9,0c9,0,18,0,27,4.5c9,0,13.5,4.5,18,4.5c4.5,0,4.5,4.5,4.5,9c0,4.5,0,4.5,4.5,9c0,4.5,0,4.5,0,9
			c0,0,0,4.5,0,9c0,9,0,13.5-4.5,22.5c0,4.5-4.5,9-9,13.5s-18,9-40.5,9h-9c-9,0-18,0-22.5,0c-4.5,0-13.5-4.5-18-9s-4.5-4.5-9-9
			c0-4.5-4.5-9-4.5-13.5c0-4.5,0-9,0-13.5h27v4.5c0,4.5,0,9,0,9s0,4.5,4.5,4.5c0,0,4.5,4.5,9,4.5s9,0,13.5,0c4.5,0,4.5,0,4.5,0
			c9,0,13.5,0,13.5,0c4.5,0,4.5,0,9-4.5c4.5-4.5,4.5-9,4.5-18c0-4.5,0-9-4.5-13.5c0,0,0,0-4.5,0h-4.5h-4.5c-4.5,0-4.5,0-9,0
			s-9,0-13.5,0c-4.5,0-9,0-13.5,0c-4.5,0-9,0-13.5-4.5c-4.5,0-9-4.5-9-4.5c-9-4.5-9-13.5-13.5-31.5c0-13.5,4.5-27,9-31.5
			C4369,3043.9,4382.5,3039.4,4404.9,3039.4"/>
	</g>
	<g>
		<defs>
			<rect id="SVGID_55_" y="2418.4" width="5669.3" height="832.4"/>
		</defs>
		<clipPath id="SVGID_56_">
			<use xlink:href="#SVGID_55_"  style="overflow:visible;"/>
		</clipPath>
		<path class="st27" d="M4620.9,3039.4c9,0,13.5,0,18,0s13.5,0,18,4.5c4.5,0,9,4.5,13.5,9c0,0,4.5,4.5,4.5,9s4.5,13.5,4.5,22.5v45
			c0,9,0,13.5-4.5,18c0,4.5-4.5,9-4.5,13.5c-4.5,4.5-9,9-13.5,9s-13.5,4.5-18,4.5s-13.5,0-22.5,0s-18,0-27-4.5c-9,0-13.5-4.5-18-9
			c-9-9-9-18-9-40.5v-27c0-9,0-13.5,0-22.5c0-4.5,4.5-13.5,4.5-18c4.5-4.5,9-9,13.5-9c4.5,0,13.5-4.5,18-4.5
			S4611.9,3039.4,4620.9,3039.4 M4620.9,3061.9c-9,0-13.5,0-18,0s-9,4.5-9,9c0,4.5-4.5,9-4.5,18v4.5v31.5c0,13.5,0,18,4.5,22.5
			c0,4.5,4.5,4.5,9,4.5s9,0,18,0c9,0,13.5,0,18,0s9-4.5,9-4.5s4.5-4.5,4.5-9s0-9,0-13.5v-31.5v-4.5c0-9,0-13.5-4.5-18
			c-4.5-4.5-9-4.5-13.5-4.5C4629.9,3061.9,4625.4,3061.9,4620.9,3061.9"/>
	</g>
	<g>
		<defs>
			<rect id="SVGID_57_" y="2418.4" width="5669.3" height="832.4"/>
		</defs>
		<clipPath id="SVGID_58_">
			<use xlink:href="#SVGID_57_"  style="overflow:visible;"/>
		</clipPath>
		<path class="st28" d="M4836.9,3156.4h4.5c4.5,0,13.5,0,13.5,0c4.5,0,4.5,0,9-4.5l4.5-4.5c0,0,0-4.5,0-9v-94.5h27v99
			c0,13.5-4.5,27-13.5,31.5c-4.5,4.5-13.5,4.5-18,9c-9,0-18,0-31.5,0c-9,0-18,0-22.5,0s-13.5-4.5-18-4.5c-4.5-4.5-9-9-13.5-13.5
			c-4.5-4.5-4.5-13.5-4.5-22.5v-99h27v99c0,4.5,0,4.5,0,9c0,0,0,4.5,4.5,4.5c4.5,0,4.5,4.5,9,4.5
			C4823.4,3156.4,4827.9,3156.4,4836.9,3156.4"/>
	</g>
	<g>
		<defs>
			<rect id="SVGID_59_" y="2418.4" width="5669.3" height="832.4"/>
		</defs>
		<clipPath id="SVGID_60_">
			<use xlink:href="#SVGID_59_"  style="overflow:visible;"/>
		</clipPath>
		<path class="st29" d="M5070.9,3039.4c18,0,31.5,4.5,36,9s9,18,9,31.5s0,27-4.5,31.5c-4.5,4.5-9,9-18,9l0,0c9,0,13.5,4.5,18,9
			c4.5,4.5,4.5,13.5,4.5,22.5v27h-27v-22.5c0-4.5,0-9,0-13.5c0-4.5,0-4.5-4.5-9c0,0-4.5-4.5-9-4.5c-4.5,0-4.5,0-9,0h-4.5h-36v45h-27
			v-139.5h72V3039.4z M5066.4,3061.9h-36v45h40.5c4.5,0,9,0,9,0c4.5,0,4.5,0,4.5-4.5c4.5-4.5,4.5-9,4.5-18c0-9,0-13.5-4.5-18
			c0,0-4.5-4.5-9-4.5C5075.4,3066.4,5070.9,3061.9,5066.4,3061.9"/>
	</g>
	<g>
		<defs>
			<rect id="SVGID_61_" y="2418.4" width="5669.3" height="832.4"/>
		</defs>
		<clipPath id="SVGID_62_">
			<use xlink:href="#SVGID_61_"  style="overflow:visible;"/>
		</clipPath>
		<path class="st30" d="M5300.3,3088.9v-9c0-4.5,0-9-4.5-13.5c-4.5-4.5-9-4.5-22.5-4.5h-4.5c-9,0-13.5,0-18,0s-4.5,4.5-9,4.5
			c-4.5,4.5-4.5,13.5-4.5,22.5v36c0,13.5,4.5,22.5,9,27c4.5,0,4.5,4.5,9,4.5c4.5,0,9,0,13.5,0c9,0,13.5,0,18,0s9-4.5,9-4.5
			s0-4.5,4.5-4.5v-4.5v-4.5c0-4.5,0-4.5,0-9h27v9v4.5c0,13.5-4.5,22.5-9,31.5c-4.5,4.5-13.5,9-27,9c-4.5,0-9,0-18,0c-4.5,0-9,0-9,0
			c-18,0-31.5-4.5-40.5-13.5c-4.5-4.5-4.5-9-9-13.5c-4.5-4.5-4.5-13.5-4.5-18c0-4.5,0-13.5,0-27s0-22.5,0-27s0-13.5,4.5-18
			c0-4.5,4.5-9,9-13.5s9-9,13.5-9c4.5,0,9-4.5,18-4.5c4.5,0,13.5,0,18,0c9,0,13.5,0,18,0c4.5,0,9,0,13.5,4.5c4.5,0,9,4.5,13.5,4.5
			c4.5,4.5,4.5,9,9,13.5c0,4.5,4.5,9,4.5,13.5s0,9,0,13.5L5300.3,3088.9L5300.3,3088.9z"/>
	</g>
	<g>
		<defs>
			<rect id="SVGID_63_" y="2418.4" width="5669.3" height="832.4"/>
		</defs>
		<clipPath id="SVGID_64_">
			<use xlink:href="#SVGID_63_"  style="overflow:visible;"/>
		</clipPath>
		<polygon class="st31" points="5426.3,3178.9 5426.3,3039.4 5525.3,3039.4 5525.3,3061.9 5453.3,3061.9 5453.3,3097.9 
			5520.8,3097.9 5520.8,3120.4 5453.3,3120.4 5453.3,3156.4 5525.3,3156.4 5525.3,3178.9 		"/>
	</g>
	<g>
		<defs>
			<rect id="SVGID_65_" y="2418.4" width="5669.3" height="832.4"/>
		</defs>
		<clipPath id="SVGID_66_">
			<use xlink:href="#SVGID_65_"  style="overflow:visible;"/>
		</clipPath>
		<path class="st32" d="M5624.3,2809.9c22.5,0,40.5,18,40.5,45c0,22.5-18,45-40.5,45c-22.5,0-40.5-18-40.5-45
			S5601.8,2809.9,5624.3,2809.9L5624.3,2809.9z M5624.3,2818.9c-18,0-36,18-36,36c0,22.5,13.5,36,36,36c18,0,36-18,36-36
			C5660.3,2832.4,5646.8,2818.9,5624.3,2818.9L5624.3,2818.9z M5619.8,2877.4h-9v-45c4.5,0,9,0,13.5,0c9,0,13.5,0,13.5,4.5
			c4.5,0,4.5,4.5,4.5,9s-4.5,9-9,13.5l0,0c4.5,0,9,4.5,9,13.5s4.5,9,4.5,13.5h-9c0,0-4.5-4.5-4.5-13.5c0-4.5-4.5-9-9-9h-4.5
			L5619.8,2877.4L5619.8,2877.4z M5619.8,2850.4h4.5c4.5,0,13.5-4.5,13.5-9s-4.5-9-13.5-9c-4.5,0-4.5,0-4.5,0V2850.4z"/>
	</g>
</g>
</svg>
