<?xml version="1.0" encoding="utf-8"?>
<!-- Generator: Adobe Illustrator 21.0.0, SVG Export Plug-In . SVG Version: 6.00 Build 0)  -->
<svg version="1.1" id="Слой_1" xmlns="http://www.w3.org/2000/svg" xmlns:xlink="http://www.w3.org/1999/xlink" x="0px" y="0px"
	 viewBox="0 0 111.8 159.7" style="enable-background:new 0 0 111.8 159.7;" xml:space="preserve">
<style type="text/css">
	.st0{clip-path:url(#SVGID_2_);fill:url(#SVGID_3_);}
	.st1{clip-path:url(#SVGID_5_);fill:url(#SVGID_6_);}
	.st2{clip-path:url(#SVGID_8_);fill:url(#SVGID_9_);}
	.st3{clip-path:url(#SVGID_11_);fill:url(#SVGID_12_);}
	.st4{clip-path:url(#SVGID_14_);fill:url(#SVGID_15_);}
</style>
<g>
	<defs>
		<polygon id="SVGID_1_" points="0,74.5 8.8,93 19,71.7 8.3,57.4 		"/>
	</defs>
	<clipPath id="SVGID_2_">
		<use xlink:href="#SVGID_1_"  style="overflow:visible;"/>
	</clipPath>
	
		<linearGradient id="SVGID_3_" gradientUnits="userSpaceOnUse" x1="0" y1="159.662" x2="1" y2="159.662" gradientTransform="matrix(18.9743 0 0 -18.9743 0 3104.6816)">
		<stop  offset="0" style="stop-color:#008FB1"/>
		<stop  offset="1" style="stop-color:#2DBAD4"/>
	</linearGradient>
	<rect y="57.4" class="st0" width="19" height="35.6"/>
</g>
<g>
	<defs>
		<path id="SVGID_4_" d="M40.7,0c-3.2,0-6,1.9-6.9,4.6L19.9,34.2l9.3,17.1l18.5-40.3C50,6,46.3,0,40.7,0z"/>
	</defs>
	<clipPath id="SVGID_5_">
		<use xlink:href="#SVGID_4_"  style="overflow:visible;"/>
	</clipPath>
	
		<linearGradient id="SVGID_6_" gradientUnits="userSpaceOnUse" x1="3.283008e-06" y1="159.662" x2="1" y2="159.662" gradientTransform="matrix(28.4678 0 0 -28.4678 19.8999 4570.9141)">
		<stop  offset="0" style="stop-color:#008FB1"/>
		<stop  offset="1" style="stop-color:#2DBAD4"/>
	</linearGradient>
	<rect x="19.9" y="0" class="st1" width="30.1" height="51.4"/>
</g>
<g>
	<defs>
		<polygon id="SVGID_7_" points="16.2,107.8 25,126.3 37.9,98.1 27.3,83.3 		"/>
	</defs>
	<clipPath id="SVGID_8_">
		<use xlink:href="#SVGID_7_"  style="overflow:visible;"/>
	</clipPath>
	
		<linearGradient id="SVGID_9_" gradientUnits="userSpaceOnUse" x1="-2.692082e-05" y1="159.662" x2="1" y2="159.662" gradientTransform="matrix(21.751 0 0 -21.751 16.1976 3577.637)">
		<stop  offset="0" style="stop-color:#008FB1"/>
		<stop  offset="1" style="stop-color:#2DBAD4"/>
	</linearGradient>
	<rect x="16.2" y="83.3" class="st2" width="21.8" height="43"/>
</g>
<g>
	<defs>
		<path id="SVGID_10_" d="M72.2,0c-3.2,0-6,1.9-7.4,4.6L36.1,64.8l9.3,17.1l33.3-70.8C81.5,6,77.7,0,72.2,0z"/>
	</defs>
	<clipPath id="SVGID_11_">
		<use xlink:href="#SVGID_10_"  style="overflow:visible;"/>
	</clipPath>
	
		<linearGradient id="SVGID_12_" gradientUnits="userSpaceOnUse" x1="-1.121950e-05" y1="159.662" x2="1" y2="159.662" gradientTransform="matrix(43.5208 0 0 -43.5208 36.0975 6989.5703)">
		<stop  offset="0" style="stop-color:#008FB1"/>
		<stop  offset="1" style="stop-color:#2DBAD4"/>
	</linearGradient>
	<rect x="36.1" y="0" class="st3" width="45.4" height="81.9"/>
</g>
<g>
	<defs>
		<path id="SVGID_13_" d="M104.1,0c-3.2,0-6,1.9-6.9,4.6l-32.4,69c-2.8,6-11.6,6-14.3,0L18,4.6C16.7,1.9,13.9,0,11.1,0
			C5.6,0,1.4,6,4.2,11.1l39.3,83.3c3.7,7.9,3.7,17.1,0,25l-10.2,21.8l7.4,18.5c0-0.5,0.5-0.5,0.5-0.9l69.9-147.6
			C113.4,6,109.7,0,104.1,0z"/>
	</defs>
	<clipPath id="SVGID_14_">
		<use xlink:href="#SVGID_13_"  style="overflow:visible;"/>
	</clipPath>
	
		<linearGradient id="SVGID_15_" gradientUnits="userSpaceOnUse" x1="0" y1="159.662" x2="1" y2="159.662" gradientTransform="matrix(108.4884 0 0 -108.4884 3.2813 17401.3086)">
		<stop  offset="0" style="stop-color:#008FB1"/>
		<stop  offset="1" style="stop-color:#2DBAD4"/>
	</linearGradient>
	<rect x="1.4" y="0" class="st4" width="112" height="159.7"/>
</g>
</svg>
