<?xml version="1.0" encoding="utf-8"?>
<!-- Generator: Adobe Illustrator 21.0.0, SVG Export Plug-In . SVG Version: 6.00 Build 0)  -->
<svg version="1.1" id="Слой_1" xmlns="http://www.w3.org/2000/svg" xmlns:xlink="http://www.w3.org/1999/xlink" x="0px" y="0px"
	 viewBox="0 0 445.9 312.1" style="enable-background:new 0 0 445.9 312.1;" xml:space="preserve">
<style type="text/css">
	.st0{clip-path:url(#SVGID_2_);fill:#599BD5;}
	.st1{clip-path:url(#SVGID_2_);fill:#FFFFFF;}
	.st2{clip-path:url(#SVGID_2_);fill-rule:evenodd;clip-rule:evenodd;fill:#FFFFFF;}
</style>
<g>
	<defs>
		<rect id="SVGID_1_" width="445.9" height="312.1"/>
	</defs>
	<clipPath id="SVGID_2_">
		<use xlink:href="#SVGID_1_"  style="overflow:visible;"/>
	</clipPath>
	<path class="st0" d="M185.6,34c14.4-15,34.4-24.3,56.5-24.3c29.4,0,55.1,16.4,68.8,40.8c11.9-5.3,25-8.3,38.9-8.3
		c53.1,0,96.1,43.4,96.1,97c0,53.6-43,97-96.1,97c-6.5,0-12.8-0.7-18.9-1.9c-12,21.5-35,36-61.3,36c-11,0-21.4-2.5-30.7-7.1
		c-12.2,28.7-40.7,48.9-73.8,48.9c-34.5,0-64-21.8-75.2-52.5c-4.9,1-10.1,1.6-15.3,1.6C33.3,261.2,0,227.6,0,186
		c0-27.8,15-52.1,37.2-65.1c-4.6-10.5-7.1-22.2-7.1-34.4C30.1,38.7,68.9,0,116.7,0C144.8,0,169.7,13.3,185.6,34"/>
	<path class="st1" d="M64.6,161.9c-0.3,0.7,0.1,0.9,0.2,1c0.8,0.6,1.7,1,2.5,1.5c4.5,2.4,8.8,3.1,13.3,3.1c9.1,0,14.8-4.9,14.8-12.7
		v-0.2c0-7.2-6.4-9.9-12.4-11.8l-0.8-0.2c-4.5-1.5-8.4-2.7-8.4-5.7v-0.2c0-2.6,2.3-4.4,5.8-4.4c3.9,0,8.6,1.3,11.6,3
		c0,0,0.9,0.6,1.2-0.3c0.2-0.5,1.7-4.6,1.9-5c0.2-0.5-0.1-0.8-0.4-1c-3.4-2.1-8.2-3.5-13.1-3.5l-0.9,0c-8.4,0-14.2,5.1-14.2,12.3
		v0.2c0,7.6,6.4,10.1,12.5,11.8l1,0.3c4.4,1.4,8.2,2.5,8.2,5.6v0.2c0,2.8-2.5,4.9-6.4,4.9c-1.5,0-6.5,0-11.8-3.4
		c-0.6-0.4-1-0.6-1.5-0.9c-0.3-0.2-0.9-0.4-1.2,0.4L64.6,161.9z"/>
	<path class="st1" d="M198.5,161.9c-0.3,0.7,0.1,0.9,0.2,1c0.8,0.6,1.7,1,2.5,1.5c4.5,2.4,8.8,3.1,13.3,3.1
		c9.1,0,14.8-4.9,14.8-12.7v-0.2c0-7.2-6.4-9.9-12.4-11.8l-0.8-0.2c-4.5-1.5-8.4-2.7-8.4-5.7v-0.2c0-2.6,2.3-4.4,5.8-4.4
		c3.9,0,8.6,1.3,11.6,3c0,0,0.9,0.6,1.2-0.3c0.2-0.5,1.7-4.6,1.9-5c0.2-0.5-0.1-0.8-0.4-1c-3.4-2.1-8.2-3.5-13.1-3.5l-0.9,0
		c-8.4,0-14.2,5.1-14.2,12.3v0.2c0,7.6,6.5,10.1,12.5,11.8l1,0.3c4.4,1.4,8.2,2.5,8.2,5.6v0.2c0,2.8-2.5,4.9-6.4,4.9
		c-1.5,0-6.5,0-11.8-3.4c-0.6-0.4-1-0.6-1.5-0.9c-0.2-0.1-0.9-0.4-1.2,0.4L198.5,161.9z"/>
	<path class="st1" d="M297.5,138.3c-0.7-2.5-1.9-4.8-3.5-6.6c-1.6-1.9-3.5-3.4-5.9-4.5c-2.3-1.1-5.1-1.6-8.2-1.6
		c-3.1,0-5.9,0.6-8.2,1.6s-4.3,2.6-5.9,4.5c-1.6,1.9-2.7,4.1-3.5,6.6c-0.7,2.5-1.1,5.3-1.1,8.2c0,2.9,0.4,5.7,1.1,8.2
		c0.7,2.5,1.9,4.8,3.5,6.6c1.6,1.9,3.5,3.4,5.9,4.4c2.3,1.1,5.1,1.6,8.2,1.6c3.1,0,5.8-0.5,8.2-1.6c2.3-1.1,4.3-2.6,5.9-4.4
		c1.6-1.9,2.7-4.1,3.5-6.6c0.7-2.5,1.1-5.3,1.1-8.2C298.7,143.6,298.3,140.8,297.5,138.3 M289.9,146.5c0,4.4-0.8,7.9-2.5,10.4
		c-1.6,2.4-4,3.6-7.4,3.6c-3.4,0-5.8-1.2-7.4-3.6c-1.6-2.5-2.4-6-2.4-10.4c0-4.4,0.8-7.9,2.4-10.3c1.6-2.4,4-3.6,7.4-3.6
		c3.4,0,5.8,1.2,7.4,3.6C289.1,138.6,289.9,142.1,289.9,146.5"/>
	<path class="st2" d="M360.2,159.3c-0.2-0.7-1-0.5-1-0.5c-1.1,0.4-2.3,0.8-3.6,1c-1.3,0.2-2.7,0.3-4.2,0.3c-3.7,0-6.6-1.1-8.7-3.3
		c-2.1-2.2-3.3-5.7-3.3-10.4c0-4.3,1.1-7.6,2.9-10.1c1.9-2.5,4.7-3.7,8.5-3.7c3.1,0,5.5,0.4,8.1,1.2c0,0,0.6,0.3,0.9-0.5
		c0.7-1.9,1.2-3.2,1.9-5.2c0.2-0.6-0.3-0.8-0.5-0.9c-1-0.4-3.3-1-5.1-1.3c-1.6-0.2-3.6-0.4-5.7-0.4c-3.2,0-6.1,0.6-8.5,1.6
		c-2.4,1.1-4.5,2.6-6.2,4.5c-1.6,1.9-2.9,4.1-3.7,6.6c-0.8,2.5-1.2,5.3-1.2,8.2c0,6.3,1.7,11.4,5.1,15.2c3.4,3.8,8.5,5.7,15.1,5.7
		c3.9,0,7.9-0.8,10.8-1.9c0,0,0.6-0.3,0.3-0.9L360.2,159.3z"/>
	<path class="st2" d="M399.3,136.9c-0.6-2.5-2.3-4.9-3.3-6c-1.7-1.8-3.3-3-4.9-3.7c-2.1-0.9-4.6-1.5-7.4-1.5c-3.2,0-6.2,0.5-8.5,1.7
		s-4.4,2.6-6,4.5c-1.6,1.9-2.7,4.1-3.5,6.7c-0.8,2.5-1.1,5.3-1.1,8.2c0,3,0.4,5.8,1.2,8.3c0.8,2.5,2,4.7,3.7,6.6
		c1.7,1.8,3.9,3.3,6.5,4.3c2.6,1,5.8,1.5,9.4,1.5c7.5,0,11.4-1.7,13-2.6c0.3-0.2,0.6-0.4,0.2-1.2l-1.7-4.7c-0.3-0.7-1-0.4-1-0.4
		c-1.9,0.7-4.5,1.9-10.6,1.9c-4,0-7-1.2-8.8-3c-1.9-1.9-2.9-4.7-3-8.6l25.8,0c0,0,0.7,0,0.8-0.7C400.1,147.7,401,142.7,399.3,136.9
		 M373.6,142.3c0.4-2.5,1-4.5,2.1-6.1c1.6-2.4,4-3.8,7.4-3.8c3.4,0,5.6,1.3,7.2,3.8c1.1,1.6,1.5,3.7,1.7,6.1L373.6,142.3z"/>
	<path class="st2" d="M192.3,136.9c-0.6-2.5-2.3-4.9-3.3-6c-1.7-1.8-3.3-3-4.9-3.7c-2.1-0.9-4.6-1.5-7.4-1.5c-3.2,0-6.2,0.5-8.5,1.7
		c-2.4,1.1-4.4,2.6-5.9,4.5c-1.6,1.9-2.7,4.1-3.5,6.7c-0.8,2.5-1.1,5.3-1.1,8.2c0,3,0.4,5.8,1.2,8.3c0.8,2.5,2,4.7,3.7,6.6
		c1.7,1.8,3.9,3.3,6.5,4.3c2.6,1,5.8,1.5,9.4,1.5c7.5,0,11.4-1.7,13-2.6c0.3-0.2,0.6-0.4,0.2-1.2l-1.7-4.7c-0.3-0.7-1-0.4-1-0.4
		c-1.9,0.7-4.5,1.9-10.6,1.9c-4,0-7-1.2-8.8-3c-1.9-1.9-2.9-4.7-3-8.6l25.8,0c0,0,0.7,0,0.8-0.7C193.1,147.7,194,142.7,192.3,136.9
		 M166.6,142.3c0.4-2.5,1-4.5,2.1-6.1c1.6-2.4,4-3.8,7.4-3.8s5.6,1.3,7.2,3.8c1.1,1.6,1.5,3.7,1.7,6.1L166.6,142.3z"/>
	<path class="st1" d="M121,141c-1-0.1-2.4-0.1-4-0.1c-2.2,0-4.4,0.3-6.4,0.8c-2,0.5-3.8,1.4-5.4,2.5c-1.6,1.1-2.8,2.6-3.7,4.3
		c-0.9,1.7-1.4,3.7-1.4,5.9c0,2.3,0.4,4.3,1.2,5.9c0.8,1.6,1.9,3,3.4,4c1.4,1,3.2,1.8,5.3,2.3c2,0.5,4.3,0.7,6.8,0.7
		c2.7,0,5.3-0.2,7.9-0.7c2.5-0.4,5.6-1.1,6.5-1.3c0.9-0.2,1.8-0.5,1.8-0.5c0.6-0.2,0.6-0.8,0.6-0.8l0-23.6c0-5.2-1.4-9-4.1-11.4
		c-2.7-2.4-6.7-3.6-11.9-3.6c-1.9,0-5.1,0.3-6.9,0.6c0,0-5.6,1.1-8,2.9c0,0-0.5,0.3-0.2,1l1.8,4.9c0.2,0.6,0.9,0.4,0.9,0.4
		s0.2-0.1,0.4-0.2c5-2.7,11.3-2.6,11.3-2.6c2.8,0,4.9,0.6,6.4,1.7c1.4,1.1,2.1,2.7,2.1,6.2v1.1C123.1,141.2,121,141,121,141
		 M110.7,159.2c-1-0.8-1.2-1-1.5-1.5c-0.5-0.8-0.8-1.9-0.8-3.4c0-2.3,0.8-3.9,2.3-5c0,0,2.2-1.9,7.5-1.9c3.7,0,7,0.6,7,0.6v11.8
		c0,0-3.3,0.7-7,0.9C113.1,161,110.7,159.2,110.7,159.2"/>
	<path class="st2" d="M329.5,127.7c0.2-0.6-0.2-0.9-0.4-0.9c-0.4-0.2-2.6-0.6-4.3-0.7c-3.3-0.2-5.1,0.3-6.7,1.1
		c-1.6,0.7-3.4,1.9-4.4,3.2l0-3.2c0-0.4-0.3-0.8-0.7-0.8h-6.6c-0.4,0-0.7,0.3-0.7,0.8v38.6c0,0.4,0.3,0.8,0.8,0.8h6.8
		c0.4,0,0.8-0.3,0.8-0.8v-19.3c0-2.6,0.3-5.2,0.9-6.8c0.6-1.6,1.3-2.9,2.3-3.8c0.9-0.9,2-1.6,3.2-1.9c1.2-0.4,2.5-0.5,3.5-0.5
		c1.4,0,2.8,0.4,2.8,0.4c0.5,0.1,0.8-0.3,1-0.7C328,132,329.3,128.4,329.5,127.7"/>
	<path class="st2" d="M265.7,109.8c-0.8-0.3-1.6-0.4-2.6-0.6c-1-0.2-2.2-0.3-3.5-0.3c-4.7,0-8.4,1.3-10.9,3.9
		c-2.6,2.6-4.3,6.5-5.2,11.7l-0.3,1.8h-5.9c0,0-0.7,0-0.9,0.8l-1,5.4c-0.1,0.5,0.2,0.8,0.8,0.8h5.7l-5.8,32.3
		c-0.5,2.6-1,4.7-1.5,6.4c-0.6,1.6-1.1,2.8-1.8,3.7c-0.7,0.8-1.3,1.5-2.4,1.8c-0.9,0.3-1.9,0.4-3,0.4c-0.6,0-1.5-0.1-2.1-0.2
		c-0.6-0.1-0.9-0.3-1.4-0.4c0,0-0.7-0.3-0.9,0.4c-0.2,0.6-1.7,4.7-1.9,5.3c-0.2,0.5,0.1,0.9,0.4,1c0.8,0.3,1.3,0.4,2.4,0.7
		c1.4,0.3,2.7,0.4,3.8,0.4c2.4,0,4.5-0.3,6.3-1c1.8-0.7,3.4-1.8,4.8-3.3c1.5-1.7,2.5-3.4,3.4-5.8c0.9-2.4,1.7-5.3,2.3-8.7l5.8-32.9
		h8.5c0,0,0.7,0,0.9-0.8l1-5.4c0.1-0.5-0.1-0.8-0.8-0.8h-8.3c0-0.2,0.4-3.1,1.4-5.8c0.4-1.2,1.2-2.1,1.8-2.8
		c0.6-0.6,1.4-1.1,2.2-1.4c0.8-0.3,1.8-0.4,2.8-0.4c0.8,0,1.5,0.1,2.1,0.2c0.8,0.2,1.1,0.3,1.3,0.3c0.8,0.3,0.9,0,1.1-0.4l2-5.4
		C266.4,110.2,265.9,109.9,265.7,109.8"/>
	<path class="st2" d="M150.3,165.7c0,0.4-0.3,0.8-0.7,0.8h-6.9c-0.4,0-0.7-0.4-0.7-0.8v-55.2c0-0.4,0.3-0.8,0.7-0.8h6.9
		c0.4,0,0.7,0.3,0.7,0.8V165.7z"/>
</g>
</svg>
