<?xml version="1.0" encoding="utf-8"?>
<!-- Generator: Adobe Illustrator 21.0.0, SVG Export Plug-In . SVG Version: 6.00 Build 0)  -->
<svg version="1.1" id="Слой_1" xmlns="http://www.w3.org/2000/svg" xmlns:xlink="http://www.w3.org/1999/xlink" x="0px" y="0px"
	 viewBox="0 0 63.3 59.3" style="enable-background:new 0 0 63.3 59.3;" xml:space="preserve">
<style type="text/css">
	.st0{clip-path:url(#SVGID_2_);fill:#4371B5;}
</style>
<g>
	<defs>
		<rect id="SVGID_1_" y="0" width="63.3" height="59.3"/>
	</defs>
	<clipPath id="SVGID_2_">
		<use xlink:href="#SVGID_1_"  style="overflow:visible;"/>
	</clipPath>
	<path class="st0" d="M57.3,23.5c-0.4,0-0.8,0-1.2,0.1c-1.5-3.9-4.5-7.1-8.3-8.9c0-0.2,0.1-0.5,0.1-0.8c0-3.3-2.7-6-6-6
		c-1.4,0-2.7,0.5-3.7,1.3v4.1v2.9v2.4c1,0.8,2.3,1.3,3.7,1.3c2,0,3.9-1,4.9-2.6c3.1,1.5,5.5,4.2,6.7,7.4c-1.3,1.1-2.2,2.8-2.2,4.6
		c0,1.9,0.9,3.6,2.3,4.7c-1.2,3.3-3.6,6-6.8,7.6c-1.1-1.6-2.9-2.6-4.9-2.6c-1.4,0-2.7,0.5-3.7,1.3v2.4v2.9v4.1
		c1,0.8,2.3,1.3,3.7,1.3c3.3,0,6-2.7,6-6c0-0.3,0-0.5-0.1-0.8c3.8-1.8,6.8-5,8.3-9c0.4,0.1,0.8,0.1,1.2,0.1c3.3,0,6-2.7,6-6
		C63.3,26.2,60.6,23.5,57.3,23.5"/>
	<path class="st0" d="M0.1,6.3L0,53l34.8,6.3V0L0.1,6.3z M19.7,41.3c-2.8,2.1-6.6,1.2-9.6,0c0-1.7-0.1-3.5-0.1-5.2
		c1.9,1.4,4.8,3.5,7,1.6c1.8-3-1.7-4.9-3.7-6.3c-4.3-2.6-4.5-9.7-0.3-12.5c2.5-1.5,5.4-1.1,8.1-0.7c0,1.6,0.1,3.3,0.1,4.9
		c-2.3-0.7-5.1-2.1-7,0.1c-1.3,3.4,2.8,4.6,4.8,6.4C23,32.1,23.3,38.5,19.7,41.3"/>
</g>
</svg>
