<?xml version="1.0" encoding="utf-8"?>
<!-- Generator: Adobe Illustrator 21.0.0, SVG Export Plug-In . SVG Version: 6.00 Build 0)  -->
<svg version="1.1" id="Слой_1" xmlns="http://www.w3.org/2000/svg" xmlns:xlink="http://www.w3.org/1999/xlink" x="0px" y="0px"
	 viewBox="0 0 170 44.1" style="enable-background:new 0 0 170 44.1;" xml:space="preserve">
<style type="text/css">
	.st0{clip-path:url(#SVGID_2_);fill:#303165;}
	.st1{clip-path:url(#SVGID_2_);fill:#3B6AAC;}
</style>
<g>
	<defs>
		<rect id="SVGID_1_" y="0" width="170" height="44.1"/>
	</defs>
	<clipPath id="SVGID_2_">
		<use xlink:href="#SVGID_1_"  style="overflow:visible;"/>
	</clipPath>
	<path class="st0" d="M24.4,27.7L20,43.8h-4.6l-3.2-12.2h-0.1L8.8,43.8H4.3L0,27.7h3.2l3.4,13.6h0.1L7.2,39c0.1-0.6,0.3-1.4,0.6-2.4
		l2.5-8.8H14l3.6,13.6h0.1l0.5-2.4c0.3-1.2,0.5-2,0.6-2.3l2.4-8.8h3.2V27.7z"/>
	<path class="st0" d="M30.8,32.5c2.2,0,3.7,0.3,4.3,1c0.7,0.7,1,2.2,1,4.4c0,2.5-0.3,4.1-1,4.9S33,44,30.8,44c-2.3,0-3.8-0.4-4.5-1
		c-0.7-0.8-1-2.4-1-4.8c0-2.4,0.3-3.9,1-4.6C27.1,32.8,28.5,32.5,30.8,32.5 M30.8,34.6c-1.1,0-1.9,0.2-2.2,0.6
		c-0.3,0.4-0.5,1.4-0.5,2.8c0,1.7,0.2,2.7,0.5,3.2c0.3,0.4,1,0.6,2.2,0.6c1.1,0,1.8-0.2,2.2-0.7c0.3-0.5,0.5-1.5,0.5-3.2
		c0-1.5-0.2-2.4-0.5-2.8C32.7,34.8,32,34.6,30.8,34.6"/>
	<path class="st0" d="M44.3,32.4c2,0,3,1.3,3,3.8V37h-2.6v-0.6c0-1.2-0.5-1.8-1.4-1.8c-1.4,0-2,0.9-2,2.7v6.6h-2.7V32.6h2.7
		l-0.2,1.6C41.8,33,42.9,32.4,44.3,32.4"/>
	<polygon class="st0" points="51.5,27.7 51.5,37 52.3,37 55.3,32.6 58.5,32.6 54.5,37.9 59.4,43.8 56,43.8 52.2,38.8 51.5,38.8 
		51.5,43.8 48.8,43.8 48.8,27.7 	"/>
	<polygon class="st0" points="73.9,21.6 53.2,21.6 37.9,10.6 57.1,10.6 63.5,17.3 69.8,10.6 89.1,10.6 	"/>
	<path class="st1" d="M70.3,33.6c0.6,0.8,0.9,2.2,0.9,4.4c0,2.3-0.3,3.9-0.9,4.7c-0.6,0.8-1.8,1.2-3.6,1.2s-3-0.6-3.5-1.9h-0.1
		l0.1,1.8h-2.7V27.7h2.7v6.5h0.1c0.5-1.2,1.7-1.8,3.6-1.8C68.6,32.4,69.8,32.8,70.3,33.6 M66,34.6c-1.8,0-2.7,1.1-2.7,3.3
		c0,1.7,0.2,2.8,0.5,3.3s1,0.7,2,0.7c1.1,0,1.8-0.2,2.2-0.7c0.3-0.5,0.5-1.5,0.5-3.1c0-1.5-0.2-2.4-0.5-2.9
		C67.7,34.8,67,34.6,66,34.6"/>
	<path class="st1" d="M78.6,32.5c2.2,0,3.7,0.3,4.4,1c0.7,0.8,1,2.2,1,4.4c0,2.4-0.3,4.1-1,4.9c-0.6,0.8-2,1.2-4.2,1.2
		c-2.3,0-3.8-0.4-4.5-1c-0.7-0.8-1.1-2.4-1.1-4.8c0-2.3,0.3-3.9,1-4.6C74.8,32.8,76.3,32.5,78.6,32.5 M78.6,34.6
		c-1.2,0-1.9,0.2-2.2,0.6c-0.3,0.4-0.5,1.3-0.5,2.8c0,1.7,0.1,2.7,0.5,3.2c0.3,0.4,1,0.6,2.2,0.6c1.1,0,1.9-0.2,2.2-0.7
		s0.5-1.5,0.5-3.2c0-1.5-0.2-2.4-0.5-2.8C80.4,34.8,79.7,34.6,78.6,34.6"/>
	<path class="st1" d="M91.3,32.5c2.2,0,3.7,0.3,4.3,1c0.7,0.7,1,2.2,1,4.4c0,2.5-0.3,4.1-1,4.9c-0.6,0.8-2,1.2-4.3,1.2
		c-2.3,0-3.8-0.4-4.5-1c-0.7-0.8-1.1-2.4-1.1-4.8c0-2.3,0.3-3.9,1-4.6C87.5,32.8,89,32.5,91.3,32.5 M91.3,34.6
		c-1.1,0-1.9,0.2-2.2,0.6c-0.3,0.4-0.5,1.4-0.5,2.8c0,1.7,0.1,2.7,0.5,3.2c0.3,0.4,1,0.6,2.2,0.6c1.1,0,1.8-0.2,2.2-0.7
		c0.3-0.5,0.5-1.5,0.5-3.2c0-1.5-0.2-2.4-0.5-2.8C93.1,34.8,92.4,34.6,91.3,34.6"/>
	<polygon class="st1" points="101.7,27.7 101.7,37 102.4,37 105.5,32.6 108.7,32.6 104.7,37.9 109.5,43.8 106.1,43.8 102.4,38.8 
		101.7,38.8 101.7,43.8 98.9,43.8 98.9,27.7 	"/>
	<path class="st1" d="M119.3,33.1c0.7,0.5,1,1.3,1,2.6h-2.7v-0.2c-0.1-0.5-0.2-0.9-0.5-1c-0.3-0.1-0.9-0.2-1.9-0.2
		c-1.4,0-2.1,0.5-2.1,1.4c0,0.6,0.1,1,0.4,1.1c0.2,0.1,1.1,0.2,2.6,0.3c1.9,0.1,3.2,0.3,3.8,0.8c0.6,0.4,0.9,1.3,0.9,2.5
		c0,1.4-0.4,2.4-1.1,2.9c-0.8,0.5-2.3,0.8-4.3,0.8c-1.9,0-3.3-0.2-4-0.7c-0.7-0.5-1.1-1.4-1.1-2.7v-0.3h2.9l-0.1,0.4
		c-0.1,1,0.6,1.5,2.3,1.5c1.7,0,2.6-0.5,2.6-1.5c0-0.9-0.5-1.4-1.6-1.4c-2.4,0-4-0.2-4.8-0.7c-0.8-0.5-1.2-1.4-1.2-2.9
		c0-1.3,0.4-2.1,1.1-2.6s2.1-0.7,4.1-0.7C117.3,32.4,118.6,32.6,119.3,33.1"/>
	<rect x="122.7" y="40.9" class="st1" width="2.7" height="2.9"/>
	<path class="st1" d="M130.8,35.2c-0.3,0.4-0.5,1.5-0.5,3.1c0,1.6,0.2,2.5,0.5,2.9c0.3,0.4,1,0.6,2.3,0.6c1,0,1.6-0.1,1.8-0.4
		c0.3-0.3,0.4-0.9,0.4-1.9h2.7v0.4l-0.2,1.7c-0.3,1.5-2,2.3-4.9,2.3c-2.2,0-3.6-0.4-4.3-1.1c-0.7-0.7-1.1-2.3-1.1-4.6
		s0.4-3.8,1.1-4.6c0.7-0.8,2.1-1.2,4.1-1.2s3.3,0.3,4,0.8c0.7,0.6,1.1,1.6,1.1,3.2h-2.7c0-1.3-0.8-2-2.3-2
		C131.8,34.6,131.1,34.8,130.8,35.2"/>
	<path class="st1" d="M145.1,32.5c2.2,0,3.7,0.3,4.4,1c0.7,0.8,1,2.2,1,4.4c0,2.4-0.3,4.1-1,4.9c-0.6,0.8-2,1.2-4.2,1.2
		c-2.3,0-3.8-0.4-4.5-1c-0.7-0.8-1.1-2.4-1.1-4.8c0-2.3,0.3-3.9,1-4.6C141.4,32.8,142.8,32.5,145.1,32.5 M145.1,34.6
		c-1.2,0-1.9,0.2-2.2,0.6c-0.3,0.4-0.5,1.3-0.5,2.8c0,1.7,0.2,2.7,0.5,3.2c0.3,0.4,1,0.6,2.2,0.6c1.1,0,1.9-0.2,2.2-0.7
		s0.5-1.5,0.5-3.2c0-1.5-0.2-2.4-0.5-2.8C147,34.8,146.2,34.6,145.1,34.6"/>
	<path class="st1" d="M158,34.6c-1.7,0-2.5,0.9-2.5,2.7v6.5h-2.7V32.6h2.7v1.7c0.6-1.2,1.7-1.9,3.5-1.9c2.1,0,3.2,0.7,3.5,2.1
		c0.5-1.4,1.7-2.1,3.5-2.1c2.6,0,4,1.3,4,3.9v7.5h-2.7V37c0-1.6-0.7-2.4-2-2.4c-1.7,0-2.5,0.9-2.5,2.7v6.6H160v-7
		c0-0.9-0.1-1.5-0.4-1.9C159.4,34.7,158.9,34.6,158,34.6"/>
	<polygon class="st1" points="86.8,21.6 81.2,17.6 90.8,10.6 97.2,17.3 111.3,7 107.9,3.2 127.4,0 121,18.4 117.6,14.3 107.5,21.6 	
		"/>
</g>
</svg>
