<?xml version="1.0" encoding="utf-8"?>
<!-- Generator: Adobe Illustrator 21.0.0, SVG Export Plug-In . SVG Version: 6.00 Build 0)  -->
<svg version="1.1" id="Layer_1" xmlns="http://www.w3.org/2000/svg" xmlns:xlink="http://www.w3.org/1999/xlink" x="0px" y="0px"
	 viewBox="0 0 138.2 138.2" style="enable-background:new 0 0 138.2 138.2;" xml:space="preserve">
<style type="text/css">
	.st0{fill:none;stroke:#055492;stroke-width:4;stroke-miterlimit:10;}
	.st1{fill:#00D486;}
	.st2{fill:#02D586;}
	.st3{fill:#01D486;}
	.st4{fill:#03D587;}
</style>
<path class="st0" d="M111.2,136.2H27c-13.8,0-25-11.2-25-25V27C2,13.2,13.2,2,27,2h84.2c13.8,0,25,11.2,25,25v84.2
	C136.2,125,125,136.2,111.2,136.2z"/>
<g>
	<path class="st1" d="M106.9,84.4c-4.1,2.3-4.5-2.5-6.8-3.7c-2.3-1.2-0.9-3.1-0.3-4.8C105.9,60,97,43.9,80.5,41
		c-9.5-1.7-19.6,2.7-25,11c-5.7,8.7-5.6,19.7,0.2,28.2c5.7,8.4,16.1,12.7,25.7,10.6c3.9-0.8,9.3,1.7,11,5.2c1.3,2.7-2.2,1.7-2.6,3.2
		c-8.1,2.4-16.3,3.4-24.5,0.6c-19-6.4-29-27.1-22.2-46c6.7-18.7,27.7-28.3,46-21.1c18.6,7.3,27.5,28.5,19.8,47.1
		C108.2,81.4,107.5,82.9,106.9,84.4z"/>
	<path class="st2" d="M33.6,78.9c0,5.8-0.2,11.7,0.1,17.5c0.2,4.9-3.1,3.7-5.7,3.7c-2.6,0-5.7,1.1-5.6-3.8c0.3-11.8,0.2-23.6,0-35.4
		c-0.1-3.4,1.4-3.8,4.2-3.7c8.5,0.2,6.9-0.7,7,6.7C33.6,68.9,33.6,73.9,33.6,78.9z"/>
	<path class="st3" d="M94.6,98.4c-0.1-0.6-0.4-1.6-0.2-1.8c4.2-2.7,7.8-5.9,10.7-9.9c0.1-0.2,1.1,0.2,1.8,0.3
		c2.9,2.9,5.8,5.9,8.8,8.7c1.7,1.6,2.3,2.6,0.4,4.7c-8.8,9.7-8.7,9.8-18.1,0.8C96.9,100.2,95.7,99.3,94.6,98.4z"/>
	<path class="st4" d="M34.9,42.6c0,3.4-3.2,6.6-6.7,6.7C24.5,49.3,21,46,21,42.4c0-3.5,3.6-6.8,7.3-6.7
		C31.9,35.9,34.9,39.1,34.9,42.6z"/>
</g>
</svg>
