<?xml version="1.0" encoding="utf-8"?>
<!-- Generator: Adobe Illustrator 21.0.0, SVG Export Plug-In . SVG Version: 6.00 Build 0)  -->
<svg version="1.1" id="Layer_1" xmlns="http://www.w3.org/2000/svg" xmlns:xlink="http://www.w3.org/1999/xlink" x="0px" y="0px"
	 viewBox="0 0 178.1 176.4" style="enable-background:new 0 0 178.1 176.4;" xml:space="preserve">
<style type="text/css">
	.st0{fill:none;stroke:#2D99EB;stroke-width:4;stroke-miterlimit:10;}
	.st1{fill:#0091C0;}
	.st2{fill:#3A9F47;}
</style>
<path class="st0" d="M134,174.4H44c-23.2,0-42-18.8-42-42V44C2,20.8,20.8,2,44,2h90c23.2,0,42,18.8,42,42v88.3
	C176.1,155.5,157.2,174.4,134,174.4z"/>
<g>
	<path class="st1" d="M143.9,64.7c0,0.2-1,4.3-1,4.3s-14.6,5.8-46.2,6.5c1,0,1.9,0,3,0c-1.1,0-2.2,0-3.2,0
		c-13-0.1-26.2-1.3-27.8-1.4c-4.6-0.5-13-1.8-16.9-4.9c-1.5-1.2-2.4-3-2.8-5c0-0.1,0-0.2,0-0.3c0-0.2,0-0.4-0.1-0.6
		c0-0.2,0-0.4,0-0.6c0.1-4.7,3.9-8.5,8.7-8.5c1.5,0,3,0.4,4.3,1.1c0.3-9.6,8.2-17.3,17.9-17.3c8.3,0,15.3,5.7,17.3,13.3
		c2.4-1,5-1.5,7.8-1.5c9.4,0,17.4,6.2,20.2,14.7c2.2-0.3,4.2-0.7,5.9-1c0.1,0,0.2,0,0.2,0c0.1,0,0.2,0,0.3-0.1
		c1.9-0.4,3.5-0.8,5-1.2c-1-4.1-4.1-9.3-4.9-10.4c-6.1-8.4-15.9-13.7-26.7-13.7c-0.5,0-0.9,0-1.4,0c-5.5-7.3-14.2-11.9-23.7-11.9
		c-11.7,0-22,7-26.8,17c-22.1,5.2-18.6,23.3-18.6,23.3c1.1,6.8,5.7,12.6,12.9,16.3c3.3,1.7,6.9,2.8,10.1,3.6
		c19.6,5.2,42,4.8,62.6,3.2c10-0.8,18.3-2.3,24.7-4.2c0.9,4,1.9,6.3,1.9,6.3s6.2-7.4,9.3-18.2C155.7,73.5,149.4,68,143.9,64.7"/>
	<path class="st2" d="M135.4,104.3c-5.6-10.4-20.8-7.7-29.7-7.7c-2.8,0-5.8,0-8.9,0c1.5,0,3.1,0,4.6,0c-23.2,0.3-48.7-2.8-67.6-10
		l-1.5-5.4C32,80.4,31.9,80,31.9,80c-1.5,0.7-3,1.6-4.4,2.5c-2.7,1.6-3.7,2.7-5.2,4.1c1.4,6.8,10.2,17,10.2,17
		c0.2-1.1,0.3-2.2,0.5-3.2c26,9.2,58.9,8.8,70.3,8.3c0.4,0,0.8,0,1.3,0c1.8,0,5.7-0.2,8.5-0.2c0.1,0,0.1,0,0.2,0
		c1.1,0,2.2,0.1,3.2,0.2c0.6,0.1,1.2,0.2,1.8,0.4c0.2,0.1,0.4,0.1,0.5,0.2c0,0,0,0,0,0c1.1,0.6,2.1,1.4,2.9,2.4
		c0.9,1.3,1.4,2.9,1.4,4.6c0,2.7-1.3,9.1-13.8,9.1c-2.3,0-4.4-0.3-6.5-0.9c-2,8-9.1,13.9-17.7,13.9c-8.8,0-16.1-6.2-17.9-14.5
		c-1.6,0.7-3.3,1.1-5.1,1.1c-6.6,0-12.5-5.2-12.6-12.3c-3.9-0.8-7.8-1.8-11.6-2.9c0,2,0.3,4.7,0.7,6.6c1.3,7.6,5.9,14.4,12.8,17.8
		c2.7,1.3,5.6,2.2,8.7,2.4c5.4,8.2,14.7,13.5,25,13.5c10.1,0,19.2-5,24.7-13c0,0,20.2,0.7,26.2-15c1-2.2,1.6-4.7,1.6-7.3
		C137.7,113.2,137.7,108.5,135.4,104.3"/>
</g>
</svg>
