<?xml version="1.0" encoding="utf-8"?>
<!-- Generator: Adobe Illustrator 21.0.0, SVG Export Plug-In . SVG Version: 6.00 Build 0)  -->
<svg version="1.1" id="Objects" xmlns="http://www.w3.org/2000/svg" xmlns:xlink="http://www.w3.org/1999/xlink" x="0px" y="0px"
	 viewBox="0 0 228.4 238.5" style="enable-background:new 0 0 228.4 238.5;" xml:space="preserve">
<style type="text/css">
	.st0{fill:#99B8CE;}
	.st1{fill:#E9F5FF;}
	.st2{fill:#8CA8BA;}
	.st3{fill:#FFE7EE;}
	.st4{fill:#055492;}
	.st5{fill:#FFFFFF;}
	.st6{fill:#F8B7B0;}
	.st7{fill:#393D3F;}
	.st8{fill:#1C1E38;}
	.st9{fill:#809AAA;}
	.st10{fill:#37A148;}
	.st11{fill:#59845E;}
	.st12{clip-path:url(#SVGID_2_);fill:#97C47A;}
	.st13{fill:#432AA5;}
</style>
<path class="st0" d="M169.6,40.4v19c0,2.2,1.6,4.1,3.8,4.3c1.4,0.1,2.6-0.4,3.5-1.3c2.1-2.3,5.9-2,7.8,0.5c1,1.4,1.7,3.1,1.7,5
	c0,1.9-0.6,3.6-1.7,5c-1.9,2.5-5.7,2.8-7.8,0.5c-0.8-0.9-2.1-1.5-3.5-1.3c-2.2,0.2-3.8,2.1-3.8,4.3v19h19c2.2,0,4.1,1.6,4.3,3.8
	c0.1,1.4-0.4,2.6-1.3,3.5c-2.3,2.1-2,5.9,0.5,7.8c1.4,1,3.1,1.7,5,1.7c1.9,0,3.6-0.6,5-1.7c2.5-1.9,2.8-5.7,0.5-7.8
	c-0.9-0.8-1.5-2.1-1.3-3.5c0.2-2.2,2.2-3.8,4.3-3.8h19V48.3c0-4.4-3.5-7.9-7.9-7.9H169.6z"/>
<rect x="199.7" y="42.7" class="st1" width="14.2" height="1"/>
<rect x="181.7" y="42.7" class="st1" width="5.7" height="1"/>
<rect x="221.4" y="51.1" class="st1" width="1" height="39.3"/>
<path class="st2" d="M224.6,95.4h-19c-2.2,0-4.1,1.6-4.3,3.8c-0.1,1.4,0.4,2.6,1.3,3.5c2.3,2.1,2,5.9-0.5,7.8c-1.4,1-3.1,1.7-5,1.7
	c-1.9,0-3.6-0.6-5-1.7c-2.5-1.9-2.8-5.7-0.5-7.8c0.9-0.8,1.5-2.1,1.3-3.5c-0.2-2.2-2.2-3.8-4.3-3.8h-19v19c0,2.2-1.6,4.1-3.8,4.3
	c-1.4,0.1-2.6-0.4-3.5-1.3c-2.1-2.3-5.9-2-7.8,0.5c-1,1.4-1.7,3.1-1.7,5c0,1.9,0.6,3.6,1.7,5c1.9,2.5,5.7,2.8,7.8,0.5
	c0.8-0.9,2.1-1.5,3.5-1.3c2.2,0.2,3.8,2.2,3.8,4.3v19h47.1c4.4,0,7.9-3.5,7.9-7.9V95.4z"/>
<path class="st0" d="M169.6,150.4v-19c0-2.2-1.6-4.1-3.8-4.3c-1.4-0.1-2.6,0.4-3.5,1.3c-2.1,2.3-5.9,2-7.8-0.5c-1-1.4-1.7-3.1-1.7-5
	c0-1.9,0.6-3.6,1.7-5c1.9-2.5,5.7-2.8,7.8-0.5c0.8,0.9,2.1,1.5,3.5,1.3c2.2-0.2,3.8-2.2,3.8-4.3v-19h-19c-2.2,0-4.1-1.6-4.3-3.8
	c-0.1-1.4,0.4-2.6,1.3-3.5c2.3-2.1,2-5.9-0.5-7.8c-1.4-1-3.1-1.7-5-1.7c-1.9,0-3.6,0.6-5,1.7c-2.5,1.9-2.8,5.7-0.5,7.8
	c0.9,0.8,1.5,2.1,1.3,3.5c-0.2,2.2-2.2,3.8-4.3,3.8h-19v47.1c0,4.4,3.5,7.9,7.9,7.9H169.6z"/>
<rect x="227.4" y="118.4" class="st1" width="1" height="18.3"/>
<rect x="130.2" y="146.9" class="st3" width="21" height="1"/>
<rect x="158.3" y="146.9" class="st1" width="7.3" height="1"/>
<rect x="202.6" y="146.9" class="st1" width="12.6" height="1"/>
<path class="st4" d="M129.1,90.8l8.7-16.9c1-1.9,0.5-4.4-1.4-5.6c-1.2-0.7-2.5-0.8-3.7-0.4c-2.9,1.1-6.2-1-6.7-4
	c-0.3-1.7,0-3.5,0.8-5.2c0.9-1.7,2.2-2.9,3.7-3.7c2.8-1.4,6.3,0.1,7.2,3.1c0.3,1.2,1.2,2.2,2.5,2.8c2,0.8,4.3-0.2,5.3-2.1l8.7-16.9
	l-16.9-8.7c-1.9-1-2.9-3.3-2.1-5.3c0.5-1.3,1.6-2.2,2.8-2.5c3-0.8,4.5-4.4,3.1-7.2c-0.8-1.6-2-2.9-3.7-3.7c-1.7-0.9-3.5-1.1-5.2-0.8
	c-3.1,0.5-5.1,3.8-4,6.7c0.4,1.2,0.3,2.5-0.4,3.7c-1.2,1.8-3.6,2.4-5.6,1.4l-16.9-8.7L83.7,58.6c-2,3.9-0.5,8.7,3.4,10.7L129.1,90.8
	z"/>
<rect x="143.4" y="48.8" transform="matrix(0.4574 -0.8893 0.8893 0.4574 39.0835 162.6839)" class="st1" width="19" height="1"/>
<rect x="120.9" y="74" transform="matrix(0.4567 -0.8896 0.8896 0.4567 -9.5167 154.1199)" class="st1" width="1" height="21.7"/>
<rect x="101.7" y="73" transform="matrix(0.4567 -0.8896 0.8896 0.4567 -11.1818 131.6718)" class="st1" width="1" height="4"/>
<path class="st5" d="M5.8,10.2c0-1.2-2-1.7-1.7-2.5c0.2-0.6,1.5-1,2.5-1.1c4.6-0.5,4.2,2.9,10.4,4c0.9,0.2,3.4,0.6,4.1-0.3
	c1.5-2-5.9-6.1-4.4-8.5c1.1-1.7,7.6-1.9,12.1,1C32.8,5.3,32,7.4,37,9.4c1.8,0.7,4.8,1.5,5.6,0.5c1.5-1.8-5.2-6-3.4-8.6
	C41-1.5,51.6,1.2,52.3,1.4c3.1,0.8,9.3,3,14.1,8.8c1.3,1.5,2.2,2.3,4.9,3c0.3,0.1,0.2,0.5-0.1,0.5h-71c-0.3,0-0.3-0.4,0-0.5
	C3.8,12.4,5.8,11.3,5.8,10.2z"/>
<path class="st6" d="M133.9,91c-0.7,0.2-1.3,0.8-1.3,0.8s-1.3-2.6-1.5-4c-0.3-1.3-0.3-1.7-0.1-3.2c0.2-1.5,0.5-2.9,2.6-3.1
	c1.7-0.2,2.3,2.1,2,3.2c-0.3,1.1-1.3,2.9-1.1,3.9c0.2,0.9,0.6,2.3,0.6,2.3S134.6,90.8,133.9,91z"/>
<path class="st7" d="M143.2,115.1c-3.8-2.2-8.6-5-10.1-8.3c-1.5-3.5-1.7-14.3-1.5-16.3c0-0.3,0.2-0.5,0.4-0.6
	c1.3-0.9,2.9-0.8,3.2-0.5c0.3,0.4-0.2,12.6,3.3,16.6c2.5,2.7,2.9,2.6,5.9,4c2.8,1.3,4.8,0.2,4.9,3.5
	C149.4,116.8,146.8,117.2,143.2,115.1z"/>
<g>
	<path class="st6" d="M142.6,115.7c-3.4,0.5-5.6-1.4-6.3-2.2c-0.7-0.9,1.5-1.7,2.3-2.6c0.3-0.4,0.5-1,0.5-1.7c0-1,0-4.2-0.2-5.7
		l6.6,0.7c0,0-0.2,3.4-0.2,4.6c0,0.2,0,0.4,0.1,0.6c0.3,0.8,1.1,1.1,2.4,2.1C149.3,112.8,146,115.2,142.6,115.7z"/>
	<g>
		<g>
			<path class="st6" d="M148.4,103.3c-2,3.3-3,4.9-5,5.7c-2.1,0.8-3.8,0.8-4.9,0.2c-1.4-0.7-2.4-4.2-2.1-5.8
				c0.3-1.7,1.7-5.9,3.9-9.5c1.1-1.8,4.4-3.1,6.7-2.1C149.1,92.9,153.1,95.2,148.4,103.3z"/>
		</g>
		<path class="st8" d="M140.2,97.8c-1,3.2-0.8,4.7,0.1,6.5c0.9,1.9,2.6,2.9,3.8,3c1.5,0.1,1.9-0.3,4.5-2.8c1.1-1,3-2.5,4-6
			c0.5-1.8-0.8-4.9-3.2-5.9C147,91.6,142.7,90,140.2,97.8z"/>
		<path class="st6" d="M138.5,99.8c-0.4,1.2,0,2.4,0.9,2.7c0.8,0.3,1.8-0.5,2.2-1.7c0.4-1.2,0-2.4-0.9-2.7
			C139.8,97.9,138.9,98.6,138.5,99.8z"/>
		<path class="st8" d="M142,96.5c-1.2-1.7-2.8-3.3-1.2-4.4c1.6-1.2,5.7-2.4,9.4,0.7C154.5,96.5,142,96.5,142,96.5z"/>
	</g>
</g>
<ellipse class="st9" cx="135.3" cy="212.4" rx="22.1" ry="3"/>
<path class="st7" d="M126.3,211.2c3.5-0.2,6.6-1.1,6.4,1c-0.1,1.8-0.3,1.7-6.3,1.7c-3.5,0-6.4-0.3-6.4-1
	C120,212.1,122.8,211.4,126.3,211.2z"/>
<path class="st7" d="M143.3,208.8c3.3-1.2,6.6-1.1,6.4,1c-0.1,1.8,0.1,1.7-5.9,1.7c-3.5,0-4.4-0.7-3.9-1.2
	C140.9,209.5,141.9,209.3,143.3,208.8z"/>
<path class="st7" d="M139,109.8c3.2,0,5-0.1,8.8,0.8c2.7,0.6,5.5,2.3,4.5,10.3c0,0-2,19.5-2.1,22.1c-0.3,6.3,1.5,7.5-3.5,7.1
	c-5.3-0.5-11.7-0.2-14.2-0.5c-0.8-0.1-0.6-2-0.3-4.3c0.3-1.9,1.8-16.7,1.6-23.7C133.7,116.7,132.4,109.8,139,109.8z"/>
<path class="st10" d="M149.2,206.4c0.2,1.9,0.4,2.6,0.4,2.6s-1.2,0.2-5.1-0.3c-0.4-0.1-1-5.6-1.3-8.3c-0.3-2.7-1.5-15.6-1.4-18.7
	c0.1-3.1-0.5-21.4-0.5-21.4H140c0,0-3.7,9.6-4.3,13c-0.8,5.2-1.4,8.3-1.3,10.2c0.1,3.3-1.4,22.5-1.7,24.3c-0.3,1.8,0,3.7,0,3.7
	s-2.8,0.9-5.8,0.1c0,0,0.4-27.4,0.5-31.4c0.1-2.8,2-17.1,3.2-24.9c0-0.2,0-0.4,0.1-0.5c0.4-2.8,0.7-4.6,0.7-4.6s0-0.8,0.7-0.8
	c0.3-0.1,0.8-0.1,2.1-0.2c0.2,0,0.3,0,0.5,0c1.3,0,3.3-0.1,6.4-0.1c7.4,0,8.6,0.2,8.6,0.7c0,0-0.9,26.6-1.1,30.8
	C148.4,184.6,149,204.6,149.2,206.4z"/>
<path class="st6" d="M128.4,140.3"/>
<path class="st5" d="M134.7,149c-0.2,0-0.4,0-0.5,0c0.2,0.5,0.3,0.9,0.3,1.5c0,2.2-1.6,4-3.7,4.2c0,0.2-0.1,0.3-0.1,0.5
	c2.4-0.2,4.3-2.3,4.3-4.8C134.9,150,134.8,149.5,134.7,149z"/>
<path class="st6" d="M111.3,108.7c-0.3,0.6-0.2,1.5-0.2,1.5s-2.9-0.7-4.1-1.3c-1.2-0.6-1.5-0.8-2.6-1.9c-1.1-1.1-2-2.2-0.8-4
	c0.9-1.4,3.1-0.5,3.8,0.4c0.7,0.9,1.5,2.8,2.3,3.3c0.8,0.5,2.2,0.9,2.2,0.9S111.5,108.1,111.3,108.7z"/>
<path class="st7" d="M135.9,116.6c-4.1,1.6-9.2,3.6-12.8,2.7c-3.7-1-12.2-7.6-13.7-9c-0.2-0.2-0.3-0.4-0.3-0.7
	c0.1-1.6,1.1-2.8,1.6-2.8c0.5,0,9.7,8.1,15,7.8c3.7-0.2,3.9-0.6,6.8-2.1c2.7-1.3,3.2-3.6,5.8-1.6C141.1,112.8,139.8,115,135.9,116.6
	z"/>
<ellipse class="st9" cx="169.3" cy="222" rx="8.8" ry="0.9"/>
<path class="st11" d="M173.3,206.3c0.2-1.5,0.7-4.2,2.4-6.1c5-5.4,11.3-1.6,11.9-4.1c0.3-1.2-1.7-3.3-4-3.9
	c-5.8-1.7-5.8,2.5-7.4,1.3c-1.9-1.6,6.1-9.4,2.7-16.4c-1.8-3.6-6.8-6-9.5-4.6c-2.1,1.1-2.5,4.6-2.5,5.3c-0.3,3.5,2.8,7.5,1.4,9.6
	c-2.7,4.1-2.2-6-9.5-4.3c-3.8,0.9-4.2,3.4-3.7,4.4c0.7,1.6,3.4,0.1,6.9,2.3c2.4,1.5,3.8,4.3,3.2,5c-0.7,0.9-3.7-1.8-6.7-0.5
	c-1.7,0.7-3,2.7-2.6,3.6c0.3,0.6,1.2,0.5,3,0.8c1,0.2,5.7,1.1,6.7,3.8c0.2,0.5,0.5,1.8-0.5,3.9H173.3z"/>
<g>
	<defs>
		<path id="SVGID_1_" d="M173.3,206.3c0.2-1.5,0.7-4.2,2.4-6.1c5-5.4,11.3-1.6,11.9-4.1c0.3-1.2-1.7-3.3-4-3.9
			c-5.8-1.7-5.8,2.5-7.4,1.3c-1.9-1.6,6.1-9.4,2.7-16.4c-1.8-3.6-6.8-6-9.5-4.6c-2.1,1.1-2.5,4.6-2.5,5.3c-0.3,3.5,2.8,7.5,1.4,9.6
			c-2.7,4.1-2.2-6-9.5-4.3c-3.8,0.9-4.2,3.4-3.7,4.4c0.7,1.6,3.4,0.1,6.9,2.3c2.4,1.5,3.8,4.3,3.2,5c-0.7,0.9-3.7-1.8-6.7-0.5
			c-1.7,0.7-3,2.7-2.6,3.6c0.3,0.6,1.2,0.5,3,0.8c1,0.2,5.7,1.1,6.7,3.8c0.2,0.5,0.5,1.8-0.5,3.9H173.3z"/>
	</defs>
	<clipPath id="SVGID_2_">
		<use xlink:href="#SVGID_1_"  style="overflow:visible;"/>
	</clipPath>
	<path class="st12" d="M185.2,238.5c0.4-3.6,1.5-9.8,5.6-14.2c11.6-12.6,26.1-3.6,27.7-9.5c0.8-2.8-4-7.6-9.3-9.1
		c-13.4-4-13.5,5.9-17.2,2.9c-4.5-3.6,14.2-21.8,6.2-38c-4.1-8.3-15.8-13.9-21.9-10.7c-4.9,2.6-5.8,10.7-5.9,12.4
		c-0.7,8.2,6.5,17.3,3.1,22.4c-6.3,9.4-5-14-21.9-10c-8.8,2.1-9.7,8-8.6,10.2c1.7,3.7,7.9,0.2,15.9,5.3c5.6,3.5,8.8,9.9,7.5,11.7
		c-1.6,2-8.6-4.1-15.5-1.2c-4,1.7-6.9,6.4-6,8.4c0.6,1.4,2.9,1,7,1.8c2.3,0.4,13.2,2.5,15.6,8.7c0.4,1.2,1.3,4.1-1.3,9H185.2z"/>
</g>
<path class="st4" d="M180,211.3c0,6-4.9,10.9-11,10.7c-5.9-0.1-10.5-5.2-10.5-11.1v-6.1c0-1.4,1.2-2.6,2.6-2.6h16.3
	c1.4,0,2.6,1.2,2.6,2.6V211.3z"/>
<ellipse class="st9" cx="86.1" cy="221.9" rx="37.9" ry="3"/>
<path class="st2" d="M104.2,134.4H68.2c-1.1,0-2-0.9-2-2l0,0c0-1.1,0.9-2,2-2h36.1c1.1,0,2,0.9,2,2l0,0
	C106.2,133.5,105.3,134.4,104.2,134.4z"/>
<path class="st6" d="M121.7,61c-0.1,0.5-0.6,1.1-0.6,1.1s2.1,0.9,3.2,1.1c1.1,0.2,1.4-0.5,2.6-0.7c1.2-0.2,1.6-0.3,1.7-1.9
	c0.1-1.3-1.2-1.8-2.1-1.6c-0.9,0.3-2.1,1.6-2.9,1.5c-0.7-0.1-1.8-0.4-1.8-0.4S121.8,60.5,121.7,61z"/>
<path class="st6" d="M94,46.2c2.1,0.8,3.7-0.1,4.2-0.5c0.5-0.4-0.7-1.3-1.1-1.9c-0.2-0.3-0.2-0.7-0.1-1.1c0.1-0.6,0.5-1.4,0.9-2.3
	l-4.1-1.7c0,0-0.4,2.1-0.5,2.9c0,0.1-0.1,0.3-0.1,0.4c-0.3,0.5-0.8,0.5-1.8,1C90.2,43.4,91.9,45.4,94,46.2z"/>
<g>
	<path class="st6" d="M93.4,36.7c0,2.9,0.1,4.3,1.1,5.6c1,1.3,2.1,1.9,3,2c1.1,0.1,3-1.8,3.4-3c0.4-1.2,1.1-4.5,1-7.7
		c-0.1-1.6-1.6-3.7-3.4-3.9S93.3,29.6,93.4,36.7z"/>
	<ellipse transform="matrix(0.2957 -0.9553 0.9553 0.2957 34.9726 123.2252)" class="st6" cx="101.1" cy="37.9" rx="2" ry="1"/>
	<ellipse transform="matrix(0.9533 -0.302 0.302 0.9533 -6.7907 29.8941)" class="st6" cx="93.3" cy="36.9" rx="1" ry="2"/>
</g>
<path class="st13" d="M88.6,128.7c-2.9-0.4-5.4-1.3-5.4,0.5c0,1.5,0.1,1.4,5.2,1.8c2.9,0.2,5.4,0.1,5.4-0.5
	C93.8,129.9,91.5,129.1,88.6,128.7z"/>
<path class="st10" d="M85.9,43.6c-3.6,3.4-9.6,11.2-10.5,15.4c-0.2,0.9,0.4,1.9,1.3,2.1l13.1,3.5c0.3,0.1,0.6-0.1,0.8-0.3l0.5-1
	c0.2-0.3,0-0.7-0.3-0.9L81,57.2c2.8-5.3,4.8-6.4,4.8-6.4c-0.3,6.6-6.2,21.4-6.6,23.2c-0.5,2.2-0.8,4-0.1,4.1
	c2.4,0.5,8.1,0.8,13.2,1.6c3.6,0.6,3.6-0.8,3.1-6.7c-0.8-8.9,1.6-12.6,3.5-15.7c1.6-2.7,1.3-5.2,1.3-5.2l5.7,7.5
	c0.5,0.6,1.3,1.1,2.1,1.2l14.2,1.6c0.6,0.1,1.1-0.4,1.1-1l0-0.5c0-0.4-0.3-0.8-0.7-0.9l-13.4-3.5c0,0-3.8-6.1-5.6-8.6
	c-0.8-1.1-2.2-4.1-5-4.7C89.8,41.7,88.5,41.2,85.9,43.6z"/>
<path class="st4" d="M95.7,77.4c0,0-0.1,1.4-0.3,3.7c0,0.2,0,0.4,0,0.6c-0.6,6.8-1.6,19.5-2,22.4c-0.6,3.9-4.8,17.4-7.1,24.5
	c-0.1,0.3-0.4,0.6-0.8,0.6l-1.4,0c-0.5,0-0.9-0.4-0.8-0.9c0.4-4.7,3.4-20,4.1-23.3c0.6-3.1,1.1-14.2-0.5-19.3
	c-0.3-0.8-1.5-0.8-1.7,0.1c-1.1,4.1-3.7,13.1-5.2,17c-1.8,4.5-21.8-1-25.4-2.1c-0.2-0.1-0.4-0.3-0.4-0.5l-0.1-1
	c0-0.3,0.3-0.7,0.6-0.6c3.4,0.3,19.7,1.5,20.4-1.6c0.7-2.8,2.1-11.2,2.9-16.3v0c0.1-0.3,0.1-0.5,0.1-0.7c0.3-2.1,0.6-3.5,0.6-3.5
	s0.1-0.7,0.7-0.8h0.1c0.1,0,0.3,0,0.5,0c0.8,0,2.6,0.1,7.8,0.6c3,0.3,4.9,0.5,6.1,0.7c0.2,0,0.4,0,0.5,0.1
	C95.4,77,95.7,77.2,95.7,77.4z"/>
<path class="st13" d="M56.6,103.2c-0.7-2.9-1.7-5.1-2.3-5c-0.6,0.1-1.3,0.6,0.1,5.5c0.8,2.8,1.7,5.1,2.3,5
	C57.3,108.5,57.2,106.1,56.6,103.2z"/>
<g>
	<path class="st10" d="M84.1,58.9l-2-1l-2.4,4l3.2,0.9C83.4,61.5,83.8,60.2,84.1,58.9z"/>
</g>
<path class="st8" d="M100.8,39c-1.2,3-0.5,8.4-1.5,13.2c-1,4.8-8.6,12.5-15.2,7C76.6,52.9,86.3,46,88,41.5c2-5,1.9-8.9,4.6-11.6
	c2.5-2.6,6.2-1.5,7.8-0.2C103.6,32.5,101.8,36.5,100.8,39z"/>
<g>
	<path class="st2" d="M56.2,222.6c0,0-0.1,0-0.1,0c-0.5-0.1-0.9-0.6-0.9-1.1l11-89.2c0.1-0.5,0.6-0.9,1.1-0.9
		c0.5,0.1,0.9,0.6,0.9,1.1l-11,89.2C57.1,222.2,56.7,222.6,56.2,222.6z"/>
	<path class="st2" d="M116.2,222.6c-0.5,0-0.9-0.4-1-0.9l-11-89.2c-0.1-0.5,0.3-1,0.9-1.1c0.5-0.1,1,0.3,1.1,0.9l11,89.2
		c0.1,0.5-0.3,1-0.9,1.1C116.3,222.6,116.3,222.6,116.2,222.6z"/>
</g>
<path class="st2" d="M109.2,167.1H63c-0.6,0-1-0.4-1-1s0.4-1,1-1h46.2c0.6,0,1,0.4,1,1S109.8,167.1,109.2,167.1z"/>
<path class="st2" d="M113.2,197.1H59.3c-0.6,0-1-0.4-1-1c0-0.6,0.4-1,1-1h53.9c0.6,0,1,0.4,1,1C114.2,196.7,113.7,197.1,113.2,197.1
	z"/>
<path class="st5" d="M94.1,78c0-0.4,0.1-0.8,0.2-1.2c-0.1,0-0.3-0.1-0.5-0.1c-0.1,0.4-0.2,0.8-0.2,1.3c0,1.5,0.7,2.8,1.7,3.7
	c0-0.2,0-0.4,0-0.6C94.6,80.3,94.1,79.2,94.1,78z"/>
<path class="st5" d="M79.9,75.5c-0.2,0-0.4,0-0.5,0c0.1,0.3,0.1,0.7,0.1,1.1c0,1.3-0.6,2.4-1.5,3.2c0,0.2-0.1,0.5-0.1,0.7
	c1.3-0.9,2.1-2.3,2.1-4C80,76.2,80,75.8,79.9,75.5z"/>
</svg>
