<?xml version="1.0" encoding="utf-8"?>
<!-- Generator: Adobe Illustrator 21.0.0, SVG Export Plug-In . SVG Version: 6.00 Build 0)  -->
<svg version="1.1" id="Слой_1" xmlns="http://www.w3.org/2000/svg" xmlns:xlink="http://www.w3.org/1999/xlink" x="0px" y="0px"
	 viewBox="0 0 636.4 607.9" style="enable-background:new 0 0 636.4 607.9;" xml:space="preserve">
<style type="text/css">
	.st0{clip-path:url(#SVGID_2_);}
</style>
<g>
	<defs>
		<rect id="SVGID_1_" width="636.4" height="607.9"/>
	</defs>
	<clipPath id="SVGID_2_">
		<use xlink:href="#SVGID_1_"  style="overflow:visible;"/>
	</clipPath>
	<path class="st0" d="M400.1,231.9c0,9.3-0.7,18.6-1.9,27.9c0.4-2.7,0.7-5.3,1.1-8c-2.4,17.5-7.1,34.5-13.8,50.7l3-7.2
		c-5,11.8-11,23.1-18.1,33.8c-1.9,2.9-4,5.8-6,8.6c-1.3,1.8-4.8,5.7,1.5-1.9c-1.1,1.3-2.2,2.7-3.3,4.1c-4,4.9-8.3,9.6-12.7,14
		c-4.5,4.5-9.1,8.7-14,12.8c-0.8,0.7-3.1,3.2-4.1,3.3c1.3-0.1,6.6-5,1.9-1.5c-2.6,2-5.3,3.8-8,5.7c-10.7,7.2-22.2,13.4-34.1,18.4
		c2.4-1,4.8-2,7.2-3c-16.2,6.7-33.1,11.3-50.4,13.6c2.7-0.4,5.3-0.7,8-1.1c-17.4,2.2-35,2.2-52.5,0c2.7,0.4,5.3,0.7,8,1.1
		c-17.3-2.4-34.2-6.9-50.4-13.6l7.2,3c-11.7-5-23-11-33.6-18c-2.9-1.9-5.8-4-8.6-6c-1.8-1.3-5.6-4.8,1.9,1.5
		c-1.3-1.1-2.7-2.2-4.1-3.3c-4.9-4-9.5-8.3-14-12.8s-8.7-9.2-12.7-14c-0.8-1-3-2.9-3.3-4.1c0.4,1.5,4.9,6.4,1.5,1.9
		c-2-2.6-3.8-5.3-5.7-8c-7.2-10.8-13.4-22.3-18.4-34.3c1,2.4,2,4.8,3,7.2c-6.8-16.3-11.4-33.3-13.8-50.7c0.4,2.7,0.7,5.3,1.1,8
		c-2.5-18.5-2.5-37.2,0-55.7c-0.4,2.7-0.7,5.3-1.1,8c2.4-17.5,7.1-34.5,13.8-50.7c-1,2.4-2,4.8-3,7.2c5-11.8,11-23.1,18.1-33.8
		c1.9-2.9,4-5.8,6-8.6c1.3-1.8,4.8-5.7-1.5,1.9c1.1-1.3,2.2-2.7,3.3-4.1c4-4.9,8.3-9.6,12.7-14c4.5-4.5,9.1-8.7,14-12.8
		c0.8-0.7,3.1-3.2,4.1-3.3c-1.3,0.1-6.6,5-1.9,1.5c2.6-2,5.3-3.8,8-5.7c10.7-7.2,22.2-13.4,34.1-18.4l-7.2,3
		c16.2-6.7,33.1-11.3,50.4-13.6c-2.7,0.4-5.3,0.7-8,1.1c17.4-2.2,35-2.2,52.5,0c-2.7-0.4-5.3-0.7-8-1.1c17.3,2.4,34.2,6.9,50.4,13.6
		l-7.2-3c11.7,5,23,11,33.6,18c2.9,1.9,5.8,4,8.6,6c1.8,1.3,5.6,4.8-1.9-1.5c1.3,1.1,2.7,2.2,4.1,3.3c4.9,4,9.5,8.3,14,12.8
		s8.7,9.2,12.7,14c0.8,1,3,2.9,3.3,4.1c-0.4-1.5-4.9-6.4-1.5-1.9c2,2.6,3.8,5.3,5.7,8c7.2,10.8,13.4,22.3,18.4,34.3l-3-7.2
		c6.8,16.3,11.4,33.3,13.8,50.7c-0.4-2.7-0.7-5.3-1.1-8C399.5,213.3,400.1,222.6,400.1,231.9c0.1,15.7,13.8,30.7,30,30
		c16.2-0.7,30.1-13.2,30-30c-0.2-47-14.3-94.5-41.6-132.9c-28-39.3-65.9-68.7-111.2-85.5c-88.2-32.9-193.6-3.9-253,69
		c-31.4,38.5-50,84.3-53.7,134c-3.5,46.7,8.3,95,32.4,135.2c23.3,38.8,58.5,71.6,99.8,90.4c45.7,20.8,95.5,26.8,144.8,16.8
		c90.8-18.4,165.2-96.7,179-188.3c1.9-12.8,3.3-25.6,3.4-38.6c0.1-15.7-13.8-30.7-30-30C413.8,202.6,400.2,215.1,400.1,231.9"/>
	
		<rect x="478.1" y="327.8" transform="matrix(0.6783 -0.7348 0.7348 0.6783 -187.7093 513.0308)" class="st0" width="27.8" height="286.2"/>
	<path class="st0" d="M375.1,384.8c23.7,21.9,47.5,43.8,71.2,65.7c37.8,34.9,75.6,69.7,113.3,104.6c8.6,7.9,17.2,15.9,25.8,23.8
		v-42.4c-6.3,6.8-12.6,13.6-18.8,20.4H609c-23.7-21.9-47.5-43.8-71.2-65.7c-37.8-34.9-75.6-69.7-113.3-104.6
		c-8.6-7.9-17.2-15.9-25.8-23.8v42.4c6.3-6.8,12.6-13.6,18.8-20.4c10.6-11.5,12.3-31.2,0-42.4c-11.6-10.6-31.1-12.3-42.4,0
		c-6.3,6.8-12.6,13.6-18.8,20.4c-10.7,11.5-12.3,31.1,0,42.4c23.7,21.9,47.5,43.8,71.2,65.7c37.8,34.9,75.6,69.7,113.3,104.6
		c8.6,7.9,17.2,15.9,25.8,23.8c11.5,10.7,31.1,12.3,42.4,0c6.3-6.8,12.6-13.6,18.8-20.4c10.7-11.5,12.3-31.1,0-42.4
		c-23.7-21.9-47.5-43.8-71.2-65.7c-37.8-34.9-75.6-69.7-113.3-104.6c-8.6-7.9-17.2-15.9-25.8-23.8c-11.5-10.6-31.2-12.3-42.4,0
		C364.4,354,362.8,373.5,375.1,384.8"/>
</g>
</svg>
