<?xml version="1.0" encoding="utf-8"?>
<!-- Generator: Adobe Illustrator 21.0.0, SVG Export Plug-In . SVG Version: 6.00 Build 0)  -->
<svg version="1.1" id="Слой_1" xmlns="http://www.w3.org/2000/svg" xmlns:xlink="http://www.w3.org/1999/xlink" x="0px" y="0px"
	 viewBox="0 0 486.4 452" style="enable-background:new 0 0 486.4 452;" xml:space="preserve">
<style type="text/css">
	.st0{clip-path:url(#SVGID_2_);fill:#5290BE;}
	.st1{clip-path:url(#SVGID_2_);fill:#649E4F;}
</style>
<g>
	<defs>
		<rect id="SVGID_1_" width="486.4" height="452"/>
	</defs>
	<clipPath id="SVGID_2_">
		<use xlink:href="#SVGID_1_"  style="overflow:visible;"/>
	</clipPath>
	<path class="st0" d="M443.2,140.4c-0.1,0.8-3.8,15.7-3.8,15.7s-53.1,21.1-168.6,23.7c3.5,0,7.1,0,10.8,0c-4,0-7.9,0-11.6,0
		c-47.4-0.3-95.5-4.6-101.5-5c-16.7-1.9-47.4-6.6-61.5-17.9c-5.5-4.4-8.9-11.1-10.1-18.4c-0.1-0.3-0.1-0.6-0.2-1
		c-0.1-0.8-0.2-1.6-0.2-2.3c0-0.8-0.1-1.6-0.1-2.4c0.3-17.2,14.3-31.1,31.6-31.1c5.6,0,10.9,1.5,15.5,4.1c1.3-35,29.9-63,65.2-63
		c30.3,0,55.7,20.6,63.1,48.6c8.8-3.5,18.4-5.5,28.4-5.5c34.5,0,63.5,22.6,73.6,53.7c7.9-1.2,15.2-2.5,21.6-3.7
		c0.3-0.1,0.6-0.1,0.9-0.2c0.4-0.1,0.7-0.1,1-0.2c6.8-1.4,12.8-2.8,18.2-4.2c-3.7-14.9-14.9-34-17.9-38.1
		c-22.1-30.6-58.2-50-97.4-50c-1.7,0-3.4,0-5.1,0.1C275.2,16.7,243.5,0,208.8,0c-42.8,0-80.2,25.5-97.7,62.1
		c-80.8,18.8-67.9,84.9-67.9,84.9c4.2,24.9,20.7,46.1,47,59.4c12.1,6.1,25,10.1,36.9,13c71.3,19.1,153.2,17.6,228.3,11.6
		c36.3-2.9,66.6-8.2,90.1-15.2c3.3,14.5,6.9,23,6.9,23s22.8-27.1,33.9-66.4C486.4,172.4,463.4,152.4,443.2,140.4"/>
	<path class="st1" d="M412.3,285c-20.4-38-75.7-28.3-108.5-28.1c-10.3,0-21.2,0-32.5,0c5.6,0,11.2-0.1,16.6-0.1
		c-84.5,1.1-177.6-10.1-246.7-36.6L36,200.5c-0.7-2.8-1.2-4.4-1.2-4.4c-5.6,2.6-11.1,5.8-15.9,9.1c-9.7,6-13.5,9.8-18.9,14.9
		c5.2,24.9,37.3,61.9,37.3,61.9c0.7-4,1.2-7.9,1.7-11.6c94.6,33.5,214.6,32.1,256.2,30.4c1.6,0,3.1-0.1,4.6-0.1
		c6.4-0.2,20.6-0.6,31.2-0.9c0.2,0,0.4,0,0.7,0c4.1,0.1,8.1,0.3,11.7,0.6c2.2,0.2,4.4,0.7,6.5,1.4c0.7,0.3,1.3,0.5,2,0.8
		c0,0,0,0,0,0c4.1,2,7.8,5,10.5,8.9c3.3,4.7,5.2,10.5,5.2,16.7c0,9.7-4.7,33.3-50.2,33.3c-8.2,0-16.1-1.1-23.7-3.2
		c-7.2,29-33.3,50.5-64.5,50.5c-32.1,0-58.9-22.7-65.1-53c-5.7,2.6-12,4-18.7,4c-24,0-45.6-19-46.1-45c-14.3-2.9-28.4-6.5-42.3-10.6
		c0.2,7.1,1.2,17.1,2.4,24.2c4.8,27.7,21.5,52.5,46.7,65c9.7,4.8,20.5,7.9,31.8,8.9c19.8,29.9,53.8,49.3,91.3,49.3
		c36.9,0,70.1-18.3,90-47.4c0,0,73.7,2.4,95.6-54.8c3.6-8.2,5.8-17.2,5.8-26.7C420.5,317.1,420.5,300.3,412.3,285"/>
</g>
</svg>
