<?xml version="1.0" encoding="utf-8"?>
<!-- Generator: Adobe Illustrator 21.0.0, SVG Export Plug-In . SVG Version: 6.00 Build 0)  -->
<svg version="1.1" id="Слой_1" xmlns="http://www.w3.org/2000/svg" xmlns:xlink="http://www.w3.org/1999/xlink" x="0px" y="0px"
	 viewBox="0 0 28.7 33.4" style="enable-background:new 0 0 28.7 33.4;" xml:space="preserve">
<style type="text/css">
	.st0{clip-path:url(#SVGID_2_);fill:#FF0401;}
</style>
<g>
	<defs>
		<rect id="SVGID_1_" y="0" width="28.7" height="33.4"/>
	</defs>
	<clipPath id="SVGID_2_">
		<use xlink:href="#SVGID_1_"  style="overflow:visible;"/>
	</clipPath>
	<path class="st0" d="M24.9,33.4H4.1C1.7,33.4,0,31,0,28.5c0.1-3.6,3.9-5.8,7.8-7.5c2.7-1.2,3.2-2.3,3.2-3.5c0-1.2-0.7-2.3-1.7-3.2
		c-1.6-1.4-2.5-3.6-2.5-5.9C6.8,3.8,9.6,0,14.3,0c4.8,0,7.5,3.9,7.5,8.4c0,2.5-0.9,4.6-2.5,5.9c-1,0.9-1.7,1.9-1.7,3.2
		c0,1.2,0.3,2.3,3.2,3.3c3.9,1.7,7.7,4.1,7.8,7.7C29.1,31,27.2,33.4,24.9,33.4"/>
</g>
</svg>
