<?xml version="1.0" encoding="utf-8"?>
<!-- Generator: Adobe Illustrator 21.0.0, SVG Export Plug-In . SVG Version: 6.00 Build 0)  -->
<svg version="1.1" id="Слой_1" xmlns="http://www.w3.org/2000/svg" xmlns:xlink="http://www.w3.org/1999/xlink" x="0px" y="0px"
	 viewBox="0 0 38.4 34" style="enable-background:new 0 0 38.4 34;" xml:space="preserve">
<style type="text/css">
	.st0{clip-path:url(#SVGID_2_);fill:#FF0401;}
</style>
<g>
	<defs>
		<rect id="SVGID_1_" width="38.4" height="34"/>
	</defs>
	<clipPath id="SVGID_2_">
		<use xlink:href="#SVGID_1_"  style="overflow:visible;"/>
	</clipPath>
	<path class="st0" d="M17.6,1.6l-1.4-1.4c-0.4-0.4-1-0.4-1.4,0L6.4,8.8L3,5.4C2.6,5,2,5,1.6,5.4L0.3,6.7c-0.4,0.4-0.4,1,0,1.4
		L5,12.8c0.4,0.4,0.9,0.6,1.4,0.6c0.5,0,1-0.2,1.4-0.6L17.6,3C17.9,2.7,17.9,2,17.6,1.6 M37.2,10.8H20.4c-0.7,0-1.3-0.6-1.3-1.3V7
		c0-0.7,0.6-1.3,1.3-1.3h16.7c0.7,0,1.3,0.6,1.3,1.3v2.6C38.4,10.3,37.9,10.8,37.2,10.8 M37.2,22.4H16.6c-0.7,0-1.3-0.6-1.3-1.3
		v-2.6c0-0.7,0.6-1.3,1.3-1.3h20.6c0.7,0,1.3,0.6,1.3,1.3v2.6C38.4,21.8,37.9,22.4,37.2,22.4 M8.8,22.4H6.3c-0.7,0-1.3-0.6-1.3-1.3
		v-2.6c0-0.7,0.6-1.3,1.3-1.3h2.6c0.7,0,1.3,0.6,1.3,1.3v2.6C10.1,21.8,9.6,22.4,8.8,22.4 M8.8,34H6.3C5.6,34,5,33.4,5,32.7v-2.6
		c0-0.7,0.6-1.3,1.3-1.3h2.6c0.7,0,1.3,0.6,1.3,1.3v2.6C10.1,33.4,9.6,34,8.8,34 M37.2,34H16.6c-0.7,0-1.3-0.6-1.3-1.3v-2.6
		c0-0.7,0.6-1.3,1.3-1.3h20.6c0.7,0,1.3,0.6,1.3,1.3v2.6C38.4,33.4,37.9,34,37.2,34"/>
</g>
</svg>
