<?xml version="1.0" encoding="utf-8"?>
<!-- Generator: Adobe Illustrator 21.0.0, SVG Export Plug-In . SVG Version: 6.00 Build 0)  -->
<svg version="1.1" id="Слой_1" xmlns="http://www.w3.org/2000/svg" xmlns:xlink="http://www.w3.org/1999/xlink" x="0px" y="0px"
	 viewBox="0 0 40.8 31.1" style="enable-background:new 0 0 40.8 31.1;" xml:space="preserve">
<style type="text/css">
	.st0{clip-path:url(#SVGID_2_);fill:#FF0401;}
</style>
<g>
	<defs>
		<rect id="SVGID_1_" y="0" width="40.8" height="31.1"/>
	</defs>
	<clipPath id="SVGID_2_">
		<use xlink:href="#SVGID_1_"  style="overflow:visible;"/>
	</clipPath>
	<path class="st0" d="M19.5,19.6c0.5,0.5,1.3,0.5,1.8,0L40.5,1.8C40.9,1.1,40.8,0,39.5,0L1.4,0.1c-1,0-1.8,1-1.1,1.8L19.5,19.6z
		 M40.7,9.4c0-0.9-1.1-1.4-1.7-0.7l-15,13.9c-1,1-2.3,1.4-3.7,1.4c-1.4,0-2.7-0.5-3.7-1.4L1.7,8.6C1,8,0,8.5,0,9.4v17.7
		c0,2.2,1.8,4.1,4.1,4.1h32.6c2.2,0,4.1-1.8,4.1-4.1C40.7,27.1,40.7,14.8,40.7,9.4"/>
</g>
</svg>
