<?xml version="1.0" encoding="utf-8"?>
<!-- Generator: Adobe Illustrator 21.0.0, SVG Export Plug-In . SVG Version: 6.00 Build 0)  -->
<svg version="1.1" id="Слой_1" xmlns="http://www.w3.org/2000/svg" xmlns:xlink="http://www.w3.org/1999/xlink" x="0px" y="0px"
	 viewBox="0 0 491.8 484" style="enable-background:new 0 0 491.8 484;" xml:space="preserve">
<style type="text/css">
	.st0{clip-path:url(#SVGID_2_);}
	.st1{font-family:'Cabin-Bold';}
	.st2{font-size:40px;}
	.st3{letter-spacing:-1;}
	.st4{fill:#2CA8DF;}
	.st5{font-size:15px;}
	.st6{font-family:'Cabin-Regular';}
	.st7{fill:#464556;}
	.st8{clip-path:url(#SVGID_4_);}
	.st9{clip-path:url(#SVGID_6_);}
</style>
<g>
	<defs>
		<rect id="SVGID_1_" width="491.8" height="484"/>
	</defs>
	<clipPath id="SVGID_2_">
		<use xlink:href="#SVGID_1_"  style="overflow:visible;"/>
	</clipPath>
	<g class="st0">
		<text transform="matrix(1 0 0 1 0 33.9997)"><tspan x="0" y="0" class="st1 st2">Wh</tspan><tspan x="60.6" y="0" class="st1 st2">a</tspan><tspan x="80.2" y="0" class="st1 st2">t</tspan><tspan x="94" y="0" class="st1 st2 st3">’</tspan><tspan x="100.4" y="0" class="st1 st2">s inside</tspan></text>
	</g>
</g>
<text transform="matrix(1 0 0 1 305.9082 198.8449)" class="st4 st1 st5">03</text>
<text transform="matrix(1 0 0 1 324.583 198.8449)" class="st6 st5">         </text>
<text transform="matrix(1 0 0 1 354.958 198.8449)"><tspan x="0" y="0" class="st7 st6 st5">I</tspan><tspan x="3.7" y="0" class="st7 st6 st5">n</tspan><tspan x="12" y="0" class="st7 st6 st5">t</tspan><tspan x="17" y="0" class="st7 st6 st5">r</tspan><tspan x="21.7" y="0" class="st7 st6 st5">oduction</tspan></text>
<text transform="matrix(1 0 0 1 305.9082 238.8498)" class="st4 st1 st5">04</text>
<text transform="matrix(1 0 0 1 325.8125 238.8498)" class="st6 st5">         </text>
<text transform="matrix(1 0 0 1 305.9082 278.8547)" class="st4 st1 st5">06</text>
<text transform="matrix(1 0 0 1 324.9277 278.8547)" class="st6 st5">         </text>
<text transform="matrix(1 0 0 1 355.3037 278.8547)"><tspan x="0" y="0" class="st7 st6 st5">P</tspan><tspan x="8.5" y="0" class="st7 st6 st5">r</tspan><tspan x="13.1" y="0" class="st7 st6 st5">ospecting </tspan><tspan x="77.9" y="0" class="st7 st6 st5">S</tspan><tspan x="86.4" y="0" class="st7 st6 st5">tage</tspan></text>
<text transform="matrix(1 0 0 1 305.9082 318.8596)" class="st4 st1 st5">10</text>
<text transform="matrix(1 0 0 1 322.0322 318.8596)" class="st6 st5">          </text>
<text transform="matrix(1 0 0 1 355.7832 318.8596)"><tspan x="0" y="0" class="st7 st6 st5">Q</tspan><tspan x="11.5" y="0" class="st7 st6 st5">ualific</tspan><tspan x="48.2" y="0" class="st7 st6 st5">a</tspan><tspan x="55.3" y="0" class="st7 st6 st5">tion </tspan><tspan x="83.5" y="0" class="st7 st6 st5">S</tspan><tspan x="92" y="0" class="st7 st6 st5">tage</tspan></text>
<text transform="matrix(1 0 0 1 305.9082 358.8654)" class="st4 st1 st5">15</text>
<text transform="matrix(1 0 0 1 319.498 358.8654)" class="st6 st5">           </text>
<text transform="matrix(1 0 0 1 305.9082 398.8703)" class="st4 st1 st5">19</text>
<text transform="matrix(1 0 0 1 319.873 398.8703)" class="st6 st5">           </text>
<text transform="matrix(1 0 0 1 305.9082 438.8752)" class="st4 st1 st5">23</text>
<text transform="matrix(1 0 0 1 321.9277 438.8752)" class="st6 st5">          </text>
<text transform="matrix(1 0 0 1 355.6787 438.8752)"><tspan x="0" y="0" class="st7 st6 st5">C</tspan><tspan x="9.2" y="0" class="st7 st6 st5">l</tspan><tspan x="12.7" y="0" class="st7 st6 st5">osing </tspan><tspan x="49.6" y="0" class="st7 st6 st5">S</tspan><tspan x="58.1" y="0" class="st7 st6 st5">tage</tspan></text>
<g>
	<defs>
		<rect id="SVGID_3_" width="491.8" height="484"/>
	</defs>
	<clipPath id="SVGID_4_">
		<use xlink:href="#SVGID_3_"  style="overflow:visible;"/>
	</clipPath>
	<g class="st8">
		<text transform="matrix(1 0 0 1 305.9082 478.8449)" class="st4 st1 st5">26</text>
	</g>
	<g class="st8">
		<text transform="matrix(1 0 0 1 322.2725 478.8449)" class="st6 st5">          </text>
	</g>
</g>
<text transform="matrix(1 0 0 1 355.5645 358.8683)"><tspan x="0" y="0" class="st7 st6 st5">E</tspan><tspan x="8.1" y="0" class="st7 st6 st5">v</tspan><tspan x="15.4" y="0" class="st7 st6 st5">alu</tspan><tspan x="34" y="0" class="st7 st6 st5">a</tspan><tspan x="41.1" y="0" class="st7 st6 st5">tion stage</tspan></text>
<text transform="matrix(1 0 0 1 355.5645 398.7687)"><tspan x="0" y="0" class="st7 st6 st5">P</tspan><tspan x="8.5" y="0" class="st7 st6 st5">r</tspan><tspan x="13.1" y="0" class="st7 st6 st5">oposal </tspan><tspan x="58.3" y="0" class="st7 st6 st5">S</tspan><tspan x="66.8" y="0" class="st7 st6 st5">tage</tspan></text>
<g>
	<defs>
		<rect id="SVGID_5_" width="491.8" height="484"/>
	</defs>
	<clipPath id="SVGID_6_">
		<use xlink:href="#SVGID_5_"  style="overflow:visible;"/>
	</clipPath>
	<g class="st9">
		<text transform="matrix(1 0 0 1 355.5645 479.4894)"><tspan x="0" y="0" class="st7 st6 st5">F</tspan><tspan x="7.8" y="0" class="st7 st6 st5">inal </tspan><tspan x="33.4" y="0" class="st7 st6 st5">T</tspan><tspan x="41.4" y="0" class="st7 st6 st5">houg</tspan><tspan x="73.1" y="0" class="st7 st6 st5">h</tspan><tspan x="81.1" y="0" class="st7 st6 st5">ts  </tspan></text>
	</g>
	<g class="st9">
		<text transform="matrix(1 0 0 1 356.375 238.8444)"><tspan x="0" y="0" class="st7 st6 st5">Sa</tspan><tspan x="16" y="0" class="st7 st6 st5">l</tspan><tspan x="19.4" y="0" class="st7 st6 st5">es </tspan><tspan x="36.7" y="0" class="st7 st6 st5">C</tspan><tspan x="45.8" y="0" class="st7 st6 st5">y</tspan><tspan x="53.3" y="0" class="st7 st6 st5">c</tspan><tspan x="60.1" y="0" class="st7 st6 st5">l</tspan><tspan x="63.6" y="0" class="st7 st6 st5">e </tspan><tspan x="74.6" y="0" class="st7 st6 st5">S</tspan><tspan x="83.3" y="0" class="st7 st6 st5">p</tspan><tspan x="91.6" y="0" class="st7 st6 st5">o</tspan><tspan x="99.8" y="0" class="st7 st6 st5">tlig</tspan><tspan x="119.1" y="0" class="st7 st6 st5">h</tspan><tspan x="127.1" y="0" class="st7 st6 st5">t </tspan></text>
	</g>
</g>
</svg>
