<?xml version="1.0" encoding="utf-8"?>
<!-- Generator: Adobe Illustrator 21.0.0, SVG Export Plug-In . SVG Version: 6.00 Build 0)  -->
<svg version="1.1" id="Слой_1" xmlns="http://www.w3.org/2000/svg" xmlns:xlink="http://www.w3.org/1999/xlink" x="0px" y="0px"
	 viewBox="0 0 21.7 16.6" style="enable-background:new 0 0 21.7 16.6;" xml:space="preserve">
<style type="text/css">
	.st0{clip-path:url(#SVGID_2_);fill:#37A148;}
	.st1{clip-path:url(#SVGID_2_);fill:none;stroke:#37A148;stroke-width:0.341;stroke-miterlimit:10;}
</style>
<g>
	<defs>
		<rect id="SVGID_1_" y="0" width="21.7" height="16.6"/>
	</defs>
	<clipPath id="SVGID_2_">
		<use xlink:href="#SVGID_1_"  style="overflow:visible;"/>
	</clipPath>
	<path class="st0" d="M0.4,3h0.4l0-2.3l17.4,0V3h0.4c0.2,0,0.4,0.2,0.4,0.4V0.7c0-0.4-0.3-0.7-0.7-0.7H0.7C0.3,0,0,0.3,0,0.7v2.7
		C0,3.2,0.2,3,0.4,3"/>
	<path class="st0" d="M18.5,3.8h-0.4v0.9c0.2-0.2,0.5-0.3,0.7-0.3V3.4C18.8,3.6,18.7,3.8,18.5,3.8"/>
	<path class="st0" d="M11.2,13.5l-10.4,0l0-9.8H0.4C0.2,3.8,0,3.6,0,3.4v10.1c0,0.4,0.3,0.7,0.7,0.7h10.3
		C11.1,14,11.1,13.8,11.2,13.5"/>
	<rect x="0.7" y="3" class="st0" width="17.4" height="0.7"/>
	<path class="st0" d="M0.4,3.8h0.4l0-0.7H0.4C0.2,3,0,3.2,0,3.4S0.2,3.8,0.4,3.8"/>
	<path class="st0" d="M18.5,3h-0.4v0.7h0.4c0.2,0,0.4-0.2,0.4-0.4S18.7,3,18.5,3"/>
	<path class="st0" d="M5.2,1.5H1.7c-0.2,0-0.4,0.2-0.4,0.4s0.2,0.4,0.4,0.4h3.6c0.2,0,0.4-0.2,0.4-0.4S5.4,1.5,5.2,1.5"/>
	<path class="st0" d="M17,1.5h-1.7c-0.2,0-0.4,0.2-0.4,0.4s0.2,0.4,0.4,0.4H17c0.2,0,0.4-0.2,0.4-0.4S17.2,1.5,17,1.5"/>
	<path class="st0" d="M6.2,9.3C6.1,9.4,6,9.5,5.8,9.5c-0.2,0-0.4-0.1-0.5-0.2C5.1,9.1,5.1,8.8,5.1,8.4c0-0.4,0.1-0.6,0.2-0.8
		c0.1-0.2,0.3-0.2,0.6-0.2c0.2,0,0.3,0,0.4,0.1c0.1,0.1,0.2,0.2,0.2,0.4l0.6-0.1C7,7.5,6.9,7.3,6.8,7.2C6.5,6.9,6.2,6.8,5.9,6.8
		c-0.4,0-0.8,0.1-1,0.4S4.4,7.9,4.4,8.4c0,0.5,0.1,0.9,0.4,1.1c0.3,0.3,0.6,0.4,1,0.4c0.3,0,0.6-0.1,0.8-0.2C6.9,9.6,7,9.3,7.1,9
		L6.5,8.8C6.4,9,6.4,9.2,6.2,9.3"/>
	<path class="st0" d="M9.7,8.9C9.6,8.8,9.5,8.7,9.3,8.6c0.3,0,0.5-0.1,0.6-0.3c0.1-0.2,0.2-0.3,0.2-0.6c0-0.2,0-0.3-0.1-0.5
		C9.9,7.1,9.8,7,9.6,7C9.5,6.9,9.3,6.9,8.9,6.9H7.6v3.1h0.6V8.7h0.1c0.1,0,0.2,0,0.3,0c0.1,0,0.1,0.1,0.2,0.1C8.9,8.9,9,9,9.2,9.3
		l0.4,0.7h0.7L10,9.4C9.9,9.1,9.7,8.9,9.7,8.9 M8.7,8.2H8.2V7.4h0.5c0.3,0,0.4,0,0.5,0c0.1,0,0.2,0.1,0.2,0.1
		c0.1,0.1,0.1,0.1,0.1,0.3c0,0.1,0,0.2-0.1,0.2c0,0.1-0.1,0.1-0.2,0.1C9.2,8.2,9,8.2,8.7,8.2"/>
	<polygon class="st0" points="12.2,9 11.6,6.9 10.7,6.9 10.7,9.9 11.3,9.9 11.3,7.5 11.9,9.9 12.5,9.9 13.1,7.5 13.1,9.9 13.7,9.9 
		13.7,6.9 12.7,6.9 	"/>
	<path class="st0" d="M17.4,6.4l-4.5,6.4c-0.2,0.2-0.3,0.5-0.3,0.7l0.5,0c0.1-0.2,0.1-0.3,0.2-0.5l4.5-6.4c0.1-0.1,0.2-0.2,0.3-0.3
		V5.7C17.8,5.9,17.6,6.1,17.4,6.4"/>
	<path class="st1" d="M17.4,6.4l-4.5,6.4c-0.2,0.2-0.3,0.5-0.3,0.7l0.5,0c0.1-0.2,0.1-0.3,0.2-0.5l4.5-6.4c0.1-0.1,0.2-0.2,0.3-0.3
		V5.7C17.8,5.9,17.6,6.1,17.4,6.4z"/>
	<polygon class="st0" points="17.8,13.5 18.1,13.1 18.1,12.4 17.3,13.5 	"/>
	<polygon class="st1" points="17.8,13.5 18.1,13.1 18.1,12.4 17.3,13.5 	"/>
	<path class="st0" d="M17,10.5l-2.2,3.1l0.5,0l2-2.8c0.2-0.3,0.5-0.4,0.8-0.4V9.9C17.7,9.9,17.2,10.1,17,10.5"/>
	<path class="st1" d="M17,10.5l-2.2,3.1l0.5,0l2-2.8c0.2-0.3,0.5-0.4,0.8-0.4V9.9C17.7,9.9,17.2,10.1,17,10.5z"/>
	<path class="st0" d="M19,11.9c0.4-0.6,0.3-1.3-0.1-1.7v1.9L19,11.9z"/>
	<path class="st1" d="M19,11.9c0.4-0.6,0.3-1.3-0.1-1.7v1.9L19,11.9z"/>
	<path class="st0" d="M16.1,15.1c-0.6,0.9-1.8,1.1-2.6,0.5c-0.5-0.3-0.7-0.8-0.7-1.4h-0.5c0,0.7,0.3,1.4,0.9,1.8
		c1,0.7,2.4,0.4,3.2-0.7l0,0l0.8-1.1h-0.5L16.1,15.1z"/>
	<path class="st1" d="M16.1,15.1c-0.6,0.9-1.8,1.1-2.6,0.5c-0.5-0.3-0.7-0.8-0.7-1.4h-0.5c0,0.7,0.3,1.4,0.9,1.8
		c1,0.7,2.4,0.4,3.2-0.7l0,0l0.8-1.1h-0.5L16.1,15.1z"/>
	<path class="st0" d="M20.6,5.7c-0.5-0.4-1.2-0.5-1.8-0.3v0.5c0.5-0.1,1.1-0.1,1.5,0.2c0.8,0.6,1,1.7,0.4,2.6L20.4,9
		c-0.1,0.1,0.1,0.1,0.2,0.2c0.1,0.1,0.1,0.2,0.2,0.1L21,8.9C21.8,7.9,21.6,6.4,20.6,5.7"/>
	<path class="st1" d="M20.6,5.7c-0.5-0.4-1.2-0.5-1.8-0.3v0.5c0.5-0.1,1.1-0.1,1.5,0.2c0.8,0.6,1,1.7,0.4,2.6L20.4,9
		c-0.1,0.1,0.1,0.1,0.2,0.2c0.1,0.1,0.1,0.2,0.2,0.1L21,8.9C21.8,7.9,21.6,6.4,20.6,5.7z"/>
	<path class="st0" d="M18.1,5.7v0.6c0.2-0.2,0.5-0.3,0.7-0.4l0-0.5C18.6,5.4,18.3,5.5,18.1,5.7"/>
	<path class="st1" d="M18.1,5.7v0.6c0.2-0.2,0.5-0.3,0.7-0.4l0-0.5C18.6,5.4,18.3,5.5,18.1,5.7z"/>
	<path class="st0" d="M14.6,14.3C14.6,14.3,14.6,14.3,14.6,14.3l0.2,0c0,0,0.1,0,0.1-0.1l0.5-0.7l-0.5,0l-0.3,0.4
		C14.4,14,14.5,14.2,14.6,14.3"/>
	<path class="st1" d="M14.6,14.3C14.6,14.3,14.6,14.3,14.6,14.3l0.2,0c0,0,0.1,0,0.1-0.1l0.5-0.7l-0.5,0l-0.3,0.4
		C14.4,14,14.5,14.2,14.6,14.3z"/>
	<path class="st0" d="M18.7,10.1c-0.2-0.1-0.4-0.2-0.6-0.2v0.5c0.1,0,0.2,0,0.4,0.1l0,0c0.4,0.3,0.4,0.8,0.2,1.1l-0.5,0.7v0.8
		l0.7-1.1v-1.9C18.8,10.2,18.8,10.1,18.7,10.1L18.7,10.1z"/>
	<path class="st1" d="M18.7,10.1c-0.2-0.1-0.4-0.2-0.6-0.2v0.5c0.1,0,0.2,0,0.4,0.1l0,0c0.4,0.3,0.4,0.8,0.2,1.1l-0.5,0.7v0.8
		l0.7-1.1v-1.9C18.8,10.2,18.8,10.1,18.7,10.1L18.7,10.1z"/>
	<path class="st0" d="M13,13.5l-0.5,0c-0.1,0.2-0.1,0.5-0.1,0.7h0.5C12.9,14,12.9,13.8,13,13.5"/>
	<path class="st1" d="M13,13.5l-0.5,0c-0.1,0.2-0.1,0.5-0.1,0.7h0.5C12.9,14,12.9,13.8,13,13.5z"/>
	<polygon class="st0" points="17.3,13.5 16.7,14.3 17.3,14.3 17.8,13.5 	"/>
	<polygon class="st1" points="17.3,13.5 16.7,14.3 17.3,14.3 17.8,13.5 	"/>
</g>
</svg>
