<?xml version="1.0" encoding="utf-8"?>
<!-- Generator: Adobe Illustrator 21.0.0, SVG Export Plug-In . SVG Version: 6.00 Build 0)  -->
<svg version="1.1" id="Layer_1" xmlns="http://www.w3.org/2000/svg" xmlns:xlink="http://www.w3.org/1999/xlink" x="0px" y="0px"
	 viewBox="0 0 21.1 18.1" style="enable-background:new 0 0 21.1 18.1;" xml:space="preserve">
<style type="text/css">
	.st0{fill:#37A148;}
</style>
<g>
	<g>
		<path class="st0" d="M13.2,10.9c0.1,0.1,0.3,0.2,0.4,0.2c0.2,0,0.3-0.1,0.4-0.2c0.2-0.2,0.2-0.6,0-0.9l-3.4-3.2
			c-0.2-0.2-0.6-0.2-0.8,0L6.5,10c-0.2,0.2-0.3,0.6,0,0.9c0.2,0.2,0.6,0.3,0.9,0l2.3-2.2v8.8c0,0.3,0.3,0.6,0.6,0.6
			c0.3,0,0.6-0.3,0.6-0.6V8.6L13.2,10.9z"/>
	</g>
	<g>
		<path class="st0" d="M16.5,4.4c-0.1,0-0.2,0-0.3,0C15.3,1.8,12.7,0,9.9,0C6.2,0,3.2,2.9,3,6.6c-2.1,0.3-3.7,2.5-2.8,4.8
			c0.5,1.4,1.9,2.2,3.3,2.2h0c0,0,0,0,0,0l4,0c0.3,0,0.6-0.3,0.6-0.6c0-0.3-0.3-0.6-0.6-0.6c0,0,0,0,0,0l-4,0c0,0,0,0-0.1,0
			c-1.3,0-2.3-1.1-2.3-2.3c0-1.3,1-2.3,2.3-2.3c0,0,0,0,0,0c0,0,0.1,0,0.1,0c0.2,0,0.3-0.1,0.5-0.2c0.1-0.1,0.2-0.3,0.2-0.5l0-0.1
			c0-0.1,0-0.1,0-0.2c0-4.4,5.1-7.6,9.7-4.1c0.8,0.6,1.1,1.5,1.3,2.4c0.1,0.3,0.4,0.6,0.7,0.5c0.3-0.1,0.6-0.1,0.9,0
			c1.4,0.2,2.7,1.2,3,2.6c0.5,2.2-1.2,4.2-3.3,4.2c0,0,0,0,0,0h-3.8c-0.3,0-0.6,0.3-0.6,0.6s0.3,0.6,0.6,0.6h3.8c0,0,0,0,0,0
			c2.9,0,5.2-2.8,4.4-5.9C20.4,5.8,18.6,4.4,16.5,4.4z"/>
	</g>
</g>
</svg>
