<?xml version="1.0" encoding="utf-8"?>
<!-- Generator: Adobe Illustrator 21.0.0, SVG Export Plug-In . SVG Version: 6.00 Build 0)  -->
<svg version="1.1" id="Слой_1" xmlns="http://www.w3.org/2000/svg" xmlns:xlink="http://www.w3.org/1999/xlink" x="0px" y="0px"
	 viewBox="0 0 16.2 16.9" style="enable-background:new 0 0 16.2 16.9;" xml:space="preserve">
<style type="text/css">
	.st0{clip-path:url(#SVGID_2_);fill:#37A148;}
	.st1{clip-path:url(#SVGID_2_);fill:none;stroke:#37A148;stroke-width:0.111;stroke-miterlimit:10;}
</style>
<g>
	<defs>
		<rect id="SVGID_1_" y="0" width="16.2" height="16.9"/>
	</defs>
	<clipPath id="SVGID_2_">
		<use xlink:href="#SVGID_1_"  style="overflow:visible;"/>
	</clipPath>
	<path class="st0" d="M11.3,5.3l-4.5,7.6c-0.8,1.3-0.4,2.9,0.8,3.6c1.2,0.7,2.8,0.3,3.5-1l0,0l2.5-4.1c0.4-0.7,0.2-1.6-0.4-2l0,0
		c-0.6-0.4-1.5-0.1-1.9,0.6L8.7,14c-0.1,0.1,0,0.3,0.1,0.4c0.1,0.1,0.3,0,0.4-0.1l2.5-4.1c0.3-0.4,0.8-0.6,1.2-0.4l0,0
		c0.4,0.3,0.5,0.8,0.3,1.3l-2.5,4.1c-0.6,1-1.9,1.4-2.8,0.8c-0.9-0.6-1.2-1.9-0.6-2.9l4.5-7.6c0.6-1,1.9-1.4,2.8-0.8
		c0.9,0.6,1.2,1.9,0.6,2.9L14.9,8c-0.1,0.1,0.1,0.1,0.2,0.2c0.1,0.1,0.2,0.2,0.2,0.1l0.2-0.4C16.3,6.6,16,5,14.8,4.3
		C13.6,3.6,12,4,11.3,5.3"/>
	<path class="st0" d="M8.7,16.9c-0.5,0-0.9-0.1-1.3-0.4c-1.3-0.8-1.6-2.5-0.8-3.8l4.5-7.6c0.8-1.4,2.5-1.8,3.8-1.1
		c0.6,0.4,1,1,1.2,1.7c0.2,0.7,0,1.5-0.4,2.1l-0.2,0.4c-0.1,0.1-0.1,0.1-0.2,0.1c-0.1,0-0.2-0.1-0.3-0.1c0,0,0,0-0.1-0.1
		c0,0,0,0-0.1,0c-0.1,0-0.2-0.1-0.2-0.2c0-0.1,0-0.2,0-0.2L15,7.5c0.6-0.9,0.3-2.1-0.5-2.6C14,4.6,13.5,4.6,13,4.7
		c-0.5,0.1-0.9,0.5-1.2,0.9l-4.5,7.6c-0.3,0.4-0.4,1-0.3,1.5c0.1,0.5,0.4,0.9,0.8,1.1C8.3,16,8.8,16.1,9.3,16
		c0.5-0.1,0.9-0.5,1.2-0.9l2.5-4.1c0.2-0.4,0.1-0.8-0.2-1c-0.3-0.2-0.8-0.1-1,0.3l-2.5,4.1c-0.1,0.1-0.2,0.2-0.3,0.2
		c-0.1,0-0.2,0-0.3,0c-0.2-0.1-0.3-0.4-0.1-0.6L11,9.8c0.2-0.4,0.6-0.7,1-0.8c0.4-0.1,0.8-0.1,1.2,0.1c0.4,0.2,0.6,0.6,0.7,1
		c0.1,0.4,0,0.9-0.2,1.2l-2.5,4.1c-0.4,0.6-1,1.1-1.7,1.3C9.2,16.9,9,16.9,8.7,16.9 M11.5,5.4l-4.5,7.6c-0.7,1.2-0.4,2.7,0.7,3.3
		c0.5,0.3,1.1,0.4,1.8,0.2c0.6-0.2,1.1-0.6,1.5-1.1l2.5-4.1c0.2-0.3,0.2-0.6,0.2-1c-0.1-0.3-0.3-0.6-0.5-0.7
		c-0.3-0.2-0.6-0.2-0.9-0.1c-0.3,0.1-0.6,0.3-0.8,0.6l-2.5,4.1c0,0,0,0.1,0,0.1c0,0,0.1,0,0.1,0l2.5-4.1c0.3-0.5,1-0.7,1.5-0.4
		c0.5,0.3,0.7,1,0.3,1.5l-2.5,4.1c-0.3,0.5-0.8,0.9-1.4,1.1c-0.6,0.2-1.2,0.1-1.7-0.2c-0.5-0.3-0.8-0.8-1-1.4
		c-0.1-0.6,0-1.2,0.3-1.7l4.5-7.6c0.3-0.5,0.8-0.9,1.4-1.1c0.6-0.2,1.2-0.1,1.7,0.2c1,0.6,1.3,2,0.7,3.1L15.1,8c0,0,0,0,0.1,0
		c0,0,0,0,0,0l0.2-0.3c0.3-0.6,0.5-1.2,0.3-1.9c-0.1-0.6-0.5-1.1-1-1.5C13.6,3.8,12.2,4.2,11.5,5.4"/>
	<path class="st0" d="M6.3,6.6c1.6,0,3-1.5,3-3.3c0-1.8-1.3-3.3-3-3.3s-3,1.5-3,3.3C3.3,5.1,4.7,6.6,6.3,6.6 M6.3,1.1
		c1.1,0,2,1,2,2.2c0,1.2-0.9,2.2-2,2.2s-2-1-2-2.2C4.3,2.1,5.2,1.1,6.3,1.1"/>
	<path class="st1" d="M6.3,6.6c1.6,0,3-1.5,3-3.3c0-1.8-1.3-3.3-3-3.3s-3,1.5-3,3.3C3.3,5.1,4.7,6.6,6.3,6.6z M6.3,1.1
		c1.1,0,2,1,2,2.2c0,1.2-0.9,2.2-2,2.2s-2-1-2-2.2C4.3,2.1,5.2,1.1,6.3,1.1z"/>
	<path class="st0" d="M1.1,12.6c0.3-2.5,2.5-4.5,5.2-4.5c0.8,0,1.5,0.2,2.1,0.4L9,7.7C8.2,7.3,7.3,7.1,6.3,7.1
		c-3.6,0-6.5,2.9-6.3,6.5c0,0,0,0,0,0c1.6,0,3.4,0,5.1,0l0.6-1H1.1z"/>
	<path class="st1" d="M1.1,12.6c0.3-2.5,2.5-4.5,5.2-4.5c0.8,0,1.5,0.2,2.1,0.4L9,7.7C8.2,7.3,7.3,7.1,6.3,7.1
		c-3.6,0-6.5,2.9-6.3,6.5c0,0,0,0,0,0c1.6,0,3.4,0,5.1,0l0.6-1H1.1z"/>
</g>
</svg>
