<?xml version="1.0" encoding="utf-8"?>
<!-- Generator: Adobe Illustrator 23.0.2, SVG Export Plug-In . SVG Version: 6.00 Build 0)  -->
<svg version="1.1" id="Layer_1" xmlns="http://www.w3.org/2000/svg" xmlns:xlink="http://www.w3.org/1999/xlink" x="0px" y="0px"
	 viewBox="0 0 28.3 19.7" style="enable-background:new 0 0 28.3 19.7;" xml:space="preserve">
<style type="text/css">
	.st0{fill:#37A148;}
</style>
<g>
	<path class="st0" d="M17.6,18.7c0,0,0.1,0,0.1,0.1c0.2,0.1,0.3,0.2,0.6,0.2l5.7,0.6c0.1,0,0.3,0,0.4-0.1l3.8-3.8
		c0.2-0.2,0.2-0.5,0-0.6c-0.3-0.3-0.3-0.5-0.3-0.9c0-0.2,0-0.4,0-0.6c0-0.2-0.1-0.5-0.3-0.7l-2-2l-0.7-0.6c-0.4-0.3-1-0.3-1.4-0.1
		c0,0,0,0,0,0l-3.2,1.5l-3.3-2.7c-0.5-0.4-1.3-0.5-1.9,0c-0.5,0.5-0.5,1.4,0,1.9l4.4,5h-0.9c-0.4,0-0.9,0.1-1.3,0.4
		c-0.5,0.5-0.6,1.3-0.3,1.9C17,18.1,17.3,18.6,17.6,18.7z"/>
	<path d="M18.6,18.9c0,0-0.1-0.1-0.1-0.1C18.5,18.9,18.5,18.9,18.6,18.9z"/>
</g>
<g id="Expanded_1_">
	<g>
		<g>
			<g>
				<path class="st0" d="M3.3,14.1c-0.2,0-0.3-0.1-0.5-0.2c-0.2-0.3-0.1-0.6,0.2-0.8l4.9-3.3C8.1,9.7,8.4,9.8,8.6,10
					c0.2,0.3,0.1,0.6-0.2,0.8L3.6,14C3.5,14.1,3.4,14.1,3.3,14.1z"/>
			</g>
		</g>
	</g>
</g>
<g id="Expanded_2_">
	<g>
		<g>
			<g>
				<path class="st0" d="M19.5,7.8c-0.2,0-0.3-0.1-0.5-0.2C18.9,7.3,19,7,19.2,6.8l2.9-2.4c0.3-0.2,0.6-0.1,0.8,0.2
					C23,4.8,23,5.2,22.7,5.3l-2.9,2.4C19.7,7.8,19.6,7.8,19.5,7.8z"/>
			</g>
		</g>
	</g>
</g>
<g id="Expanded_3_">
	<g>
		<g>
			<g>
				<path class="st0" d="M12.6,11.7c0.2,0,0.3-0.1,0.5-0.2c0.2-0.3,0.1-0.6-0.2-0.8L5.1,4.4C4.9,4.3,4.5,4.3,4.4,4.6
					C4.2,4.8,4.3,5.2,4.5,5.3l7.8,6.2C12.4,11.6,12.5,11.7,12.6,11.7z"/>
			</g>
		</g>
	</g>
</g>
<g>
	<path class="st0" d="M2.2,16.3c-0.6,0-1.1-0.5-1.1-1.1V2.2c0-0.6,0.5-1.1,1.1-1.1h21.8c0.6,0,1.1,0.5,1.1,1.1v3.6
		c0.4,0,0.7,0,1.1,0V2.2c0-1.2-1-2.2-2.2-2.2H2.2C1,0,0,1,0,2.2v13.1c0,1.2,1,2.2,2.2,2.2H13c0-0.3,0-0.7,0-1.1H2.2z"/>
</g>
</svg>
