<?xml version="1.0" encoding="utf-8"?>
<!-- Generator: Adobe Illustrator 21.0.0, SVG Export Plug-In . SVG Version: 6.00 Build 0)  -->
<svg version="1.1" id="Layer_1" xmlns="http://www.w3.org/2000/svg" xmlns:xlink="http://www.w3.org/1999/xlink" x="0px" y="0px"
	 viewBox="0 0 35.4 25.4" style="enable-background:new 0 0 35.4 25.4;" xml:space="preserve">
<style type="text/css">
	.st0{fill:#37A148;}
	.st1{fill:#FFFFFF;}
</style>
<g id="Expanded">
	<g>
		<g>
			<path class="st0" d="M23.9,25.4H2.2c-1.2,0-2.2-1-2.2-2.2V10.2C0,9,1,8,2.2,8h21.8c1.2,0,2.2,1,2.2,2.2v13.1
				C26.1,24.4,25.1,25.4,23.9,25.4z M2.2,9.1c-0.6,0-1.1,0.5-1.1,1.1v13.1c0,0.6,0.5,1.1,1.1,1.1h21.8c0.6,0,1.1-0.5,1.1-1.1V10.2
				c0-0.6-0.5-1.1-1.1-1.1H2.2z"/>
		</g>
		<g>
			<g>
				<path class="st0" d="M13.1,19.5l-9.5-6.2c-0.3-0.2-0.3-0.5-0.2-0.8c0.2-0.3,0.5-0.3,0.8-0.2l9,5.8l9-5.8
					c0.3-0.2,0.6-0.1,0.8,0.2c0.2,0.3,0.1,0.6-0.2,0.8L13.1,19.5z"/>
			</g>
		</g>
		<g>
			<g>
				<path class="st0" d="M3.3,22.1c-0.2,0-0.3-0.1-0.5-0.2c-0.2-0.3-0.1-0.6,0.2-0.8l4.9-3.3c0.3-0.2,0.6-0.1,0.8,0.2
					c0.2,0.3,0.1,0.6-0.2,0.8L3.6,22C3.5,22.1,3.4,22.1,3.3,22.1z"/>
			</g>
		</g>
		<g>
			<path class="st0" d="M22.8,22.1c-0.1,0-0.2,0-0.3-0.1l-4.9-3.3c-0.3-0.2-0.3-0.5-0.2-0.8c0.2-0.3,0.5-0.3,0.8-0.2l4.9,3.3
				c0.3,0.2,0.3,0.5,0.2,0.8C23.2,22.1,23,22.1,22.8,22.1z"/>
		</g>
	</g>
</g>
<path class="st0" d="M27.4,0c-4.4,0-8,3.6-8,8s3.6,8,8,8s8-3.6,8-8S31.8,0,27.4,0z"/>
<path class="st1" d="M26.4,11.3l-3-3l1.5-1.5l1.5,1.5l3.5-3.5l1.5,1.5L26.4,11.3z"/>
</svg>
