<?xml version="1.0" encoding="utf-8"?>
<!-- Generator: Adobe Illustrator 21.0.0, SVG Export Plug-In . SVG Version: 6.00 Build 0)  -->
<svg version="1.1" id="Слой_1" xmlns="http://www.w3.org/2000/svg" xmlns:xlink="http://www.w3.org/1999/xlink" x="0px" y="0px"
	 viewBox="0 0 261.1 141.1" style="enable-background:new 0 0 261.1 141.1;" xml:space="preserve">
<style type="text/css">
	.st0{clip-path:url(#SVGID_2_);}
	.st1{clip-path:url(#SVGID_4_);fill:#B6DEFF;}
	.st2{clip-path:url(#SVGID_4_);fill:#3863AF;}
	.st3{clip-path:url(#SVGID_4_);fill:#B9B8F1;}
	.st4{clip-path:url(#SVGID_4_);fill:#F7B75D;}
	.st5{clip-path:url(#SVGID_4_);fill:#566CD3;}
	.st6{clip-path:url(#SVGID_4_);fill:#52CE73;}
	.st7{clip-path:url(#SVGID_4_);fill:#FFFFFF;}
	.st8{clip-path:url(#SVGID_4_);fill:#2A238E;}
	.st9{clip-path:url(#SVGID_4_);fill:#F99AB6;}
	.st10{clip-path:url(#SVGID_4_);fill:#121F55;}
	.st11{clip-path:url(#SVGID_4_);}
	.st12{clip-path:url(#SVGID_6_);fill:#F99AB6;}
	.st13{clip-path:url(#SVGID_4_);fill:#FFFEFF;}
	.st14{clip-path:url(#SVGID_4_);fill:#F7A93E;}
	.st15{clip-path:url(#SVGID_4_);fill:#8EDEF2;}
	.st16{clip-path:url(#SVGID_4_);fill:#B8B9F1;}
	.st17{clip-path:url(#SVGID_4_);fill:#2747B3;}
	.st18{clip-path:url(#SVGID_4_);fill:#2143AF;}
	.st19{clip-path:url(#SVGID_8_);fill:#F99AB6;}
	.st20{clip-path:url(#SVGID_4_);fill:#383838;}
	.st21{clip-path:url(#SVGID_10_);fill:#F99AB6;}
	.st22{clip-path:url(#SVGID_4_);fill:#3A3A3F;}
	.st23{clip-path:url(#SVGID_4_);fill:#646477;}
</style>
<g>
	<defs>
		<rect id="SVGID_1_" width="261.1" height="141.1"/>
	</defs>
	<clipPath id="SVGID_2_">
		<use xlink:href="#SVGID_1_"  style="overflow:visible;"/>
	</clipPath>
	<g class="st0">
		<defs>
			<rect id="SVGID_3_" width="261.1" height="141.1"/>
		</defs>
		<clipPath id="SVGID_4_">
			<use xlink:href="#SVGID_3_"  style="overflow:visible;"/>
		</clipPath>
		<path class="st1" d="M128.4,0H128c-13.6,0.1-24.6,11.7-24.6,26c0,4.9,1.2,9.4,3.5,13.3c5.8,9.6,9,22.7,9,22.7H128h0.4h12.1
			c0,0,3.2-13.1,9-22.7c2.3-3.8,3.5-8.4,3.5-13.3C153,11.7,142,0.1,128.4,0"/>
		<polygon class="st2" points="115.3,60.2 115.3,69 118,73.7 128.1,73.7 138.3,73.7 141,69 141,60.2 		"/>
		<path class="st3" d="M198.6,87c0-0.2-0.2-0.4-0.4-0.4l-0.8-0.1c-0.2,0-0.4-0.2-0.5-0.4l-0.3-0.8c-0.1-0.2-0.1-0.5,0.1-0.6l0.5-0.7
			c0.1-0.2,0.1-0.4,0-0.6l-0.4-0.5c-0.1-0.2-0.4-0.2-0.6-0.1l-0.7,0.4c-0.2,0.1-0.5,0.1-0.6-0.1c0,0-0.1-0.1-0.4-0.2
			c-0.2-0.1-0.4-0.2-0.4-0.2c-0.2-0.1-0.3-0.3-0.3-0.5l0-0.8c0-0.2-0.2-0.4-0.4-0.5l-0.7-0.2c-0.2,0-0.5,0.1-0.6,0.3l-0.1,0.2
			l-0.2,0.3l-0.1,0.2c-0.1,0.2-0.3,0.3-0.6,0.3l-0.3,0l-0.1,0l-0.4,0c-0.2,0-0.5-0.1-0.6-0.3l-0.5-0.7c-0.1-0.2-0.4-0.3-0.6-0.2
			l-0.6,0.3c-0.2,0.1-0.3,0.3-0.3,0.5l0.1,0.8c0,0.2-0.1,0.5-0.3,0.6l-0.7,0.6c-0.2,0.1-0.4,0.2-0.6,0.1l-0.8-0.3
			c-0.2-0.1-0.5,0-0.6,0.2c0,0-0.1,0.1-0.2,0.3c-0.1,0.2-0.2,0.3-0.2,0.3c-0.1,0.2-0.1,0.5,0.1,0.6l0.6,0.6c0.1,0.1,0.2,0.4,0.2,0.6
			l-0.2,0.8c0,0.2-0.2,0.4-0.4,0.5l-0.8,0.3c-0.2,0.1-0.4,0.3-0.4,0.5l0,0.7c0,0.2,0.2,0.4,0.4,0.4l0.8,0.1c0.2,0,0.4,0.2,0.5,0.4
			l0.3,0.8c0.1,0.2,0.1,0.5-0.1,0.7l-0.5,0.7c-0.1,0.2-0.1,0.4,0,0.6l0.4,0.5c0.1,0.2,0.4,0.2,0.6,0.1l0.7-0.4
			c0.2-0.1,0.5-0.1,0.6,0.1c0,0,0.1,0.1,0.4,0.2c0.2,0.1,0.4,0.2,0.4,0.2c0.2,0.1,0.3,0.3,0.3,0.5l0,0.8c0,0.2,0.2,0.4,0.4,0.5
			l0.7,0.2c0.2,0,0.5-0.1,0.6-0.3l0.4-0.7c0.1-0.2,0.3-0.3,0.6-0.3l0.9-0.1c0.2,0,0.5,0.1,0.6,0.3l0.5,0.7c0.1,0.2,0.4,0.3,0.6,0.2
			l0.6-0.3c0.2-0.1,0.3-0.3,0.3-0.5l-0.1-0.8c0-0.2,0.1-0.5,0.3-0.6l0.7-0.6c0.2-0.1,0.4-0.2,0.6-0.1l0.8,0.2c0.2,0.1,0.5,0,0.6-0.2
			c0,0,0.1-0.1,0.2-0.3c0.1-0.2,0.2-0.3,0.2-0.3c0.1-0.2,0.1-0.5-0.1-0.6l-0.6-0.6c-0.1-0.2-0.2-0.4-0.1-0.6l0.2-0.8
			c0-0.2,0.2-0.4,0.4-0.5l0.8-0.3c0.2-0.1,0.4-0.3,0.3-0.5L198.6,87z M194.7,90.2c-1.3,2-3.9,2.6-5.9,1.4c-2-1.3-2.6-3.9-1.4-5.9
			c0.7-1.2,1.9-1.8,3.1-2c0.1,0,0.3,0,0.4,0c0.1,0,0.3,0,0.4,0c0.1,0,0.3,0,0.4,0c0.5,0.1,1,0.3,1.5,0.6
			C195.3,85.5,195.9,88.2,194.7,90.2"/>
		<path class="st3" d="M192.6,85.3c-0.3-0.2-0.6-0.3-0.9-0.4c-0.4-0.1-0.8-0.1-1.3,0c-0.8,0.1-1.6,0.6-2,1.4c-0.9,1.4-0.5,3.3,1,4.2
			c1.4,0.9,3.3,0.5,4.2-1C194.5,88.1,194.1,86.2,192.6,85.3 M192,88.5c-0.3,0.5-1,0.7-1.5,0.4c-0.5-0.3-0.7-1-0.4-1.5
			c0.1-0.1,0.2-0.3,0.3-0.3c0.3-0.2,0.8-0.2,1.2,0c0,0,0,0,0.1,0.1C192.1,87.4,192.3,88,192,88.5"/>
		<path class="st3" d="M216.8,32.7l-4.5,3.1c-0.1,0-0.3,0.1-0.4,0.2c-0.1,0.1-0.1,0.2-0.1,0.3c0,0.1,0,0.2,0.1,0.3
			c0.1,0.1,0.2,0.2,0.4,0.2l4.5,3.1c0.2,0.2,0.6,0.1,0.7-0.1c0.2-0.2,0.1-0.6-0.1-0.7l-4-2.8l4-2.8c0.2-0.2,0.3-0.5,0.1-0.7
			C217.3,32.6,217,32.6,216.8,32.7"/>
		<path class="st3" d="M221.6,32.7l-4.5,3.1c-0.1,0-0.3,0.1-0.4,0.2c-0.1,0.1-0.1,0.2-0.1,0.3c0,0.1,0,0.2,0.1,0.3
			c0.1,0.1,0.2,0.2,0.4,0.2l4.5,3.1c0.2,0.2,0.6,0.1,0.7-0.1c0.2-0.2,0.1-0.6-0.1-0.7l-4-2.8l4-2.8c0.2-0.2,0.3-0.5,0.1-0.7
			C222.1,32.6,221.8,32.6,221.6,32.7"/>
		<path class="st3" d="M226.4,32.5l-4.5,3.1c-0.1,0-0.3,0.1-0.4,0.2c-0.1,0.1-0.1,0.2-0.1,0.3c0,0.1,0,0.2,0.1,0.3
			c0.1,0.1,0.2,0.2,0.4,0.2l4.5,3.1c0.2,0.2,0.6,0.1,0.7-0.1c0.2-0.2,0.1-0.6-0.1-0.7l-4-2.8l4-2.8c0.2-0.2,0.3-0.5,0.1-0.7
			C226.9,32.4,226.6,32.4,226.4,32.5"/>
		<path class="st3" d="M231.2,32.5l-4.5,3.1c-0.1,0-0.3,0.1-0.4,0.2c-0.1,0.1-0.1,0.2-0.1,0.3c0,0.1,0,0.2,0.1,0.3
			c0.1,0.1,0.2,0.2,0.4,0.2l4.5,3.1c0.2,0.2,0.6,0.1,0.7-0.1c0.2-0.2,0.1-0.6-0.1-0.7l-4-2.8l4-2.8c0.2-0.2,0.3-0.5,0.1-0.7
			C231.8,32.4,231.4,32.4,231.2,32.5"/>
		<path class="st3" d="M159.6,46.9l-5.1,3.5c-0.2,0-0.3,0.1-0.4,0.3c-0.1,0.1-0.1,0.3-0.1,0.4c0,0.1,0,0.3,0.1,0.4
			c0.1,0.1,0.3,0.2,0.4,0.3l5.1,3.5c0.3,0.2,0.7,0.1,0.8-0.2c0.2-0.3,0.1-0.7-0.2-0.8l-4.6-3.2l4.6-3.2c0.3-0.2,0.3-0.6,0.2-0.8
			C160.2,46.8,159.8,46.7,159.6,46.9"/>
		<path class="st3" d="M165,46.9l-5.1,3.5c-0.2,0-0.3,0.1-0.4,0.3c-0.1,0.1-0.1,0.3-0.1,0.4c0,0.1,0,0.3,0.1,0.4
			c0.1,0.1,0.3,0.2,0.4,0.3l5.1,3.5c0.3,0.2,0.7,0.1,0.8-0.2c0.2-0.3,0.1-0.7-0.2-0.8l-4.6-3.2l4.6-3.2c0.3-0.2,0.3-0.6,0.2-0.8
			C165.6,46.8,165.3,46.7,165,46.9"/>
		<path class="st3" d="M170.4,46.7l-5.1,3.5c-0.2,0-0.3,0.1-0.4,0.3c-0.1,0.1-0.1,0.3-0.1,0.4c0,0.1,0,0.3,0.1,0.4
			c0.1,0.1,0.3,0.2,0.4,0.3l5.1,3.5c0.3,0.2,0.7,0.1,0.8-0.2c0.2-0.3,0.1-0.7-0.2-0.8l-4.6-3.2l4.6-3.2c0.3-0.2,0.3-0.6,0.2-0.8
			C171.1,46.6,170.7,46.5,170.4,46.7"/>
		<path class="st3" d="M175.9,46.7l-5.1,3.5c-0.2,0-0.3,0.1-0.4,0.3c-0.1,0.1-0.1,0.3-0.1,0.4c0,0.1,0,0.3,0.1,0.4
			c0.1,0.1,0.3,0.2,0.4,0.3l5.1,3.5c0.3,0.2,0.7,0.1,0.8-0.2c0.2-0.3,0.1-0.7-0.2-0.8l-4.6-3.2l4.6-3.2c0.3-0.2,0.3-0.6,0.2-0.8
			C176.5,46.6,176.2,46.5,175.9,46.7"/>
		<path class="st4" d="M128,51.4c0,0-8.7-14.3,0.1-14.2C136.9,37.3,128,51.4,128,51.4"/>
		<polygon class="st5" points="115.2,27.4 121.2,19.1 121.1,27.4 121.1,29.3 113.9,29.3 		"/>
		<polygon class="st5" points="141.2,27.5 142.5,29.4 135.4,29.4 135.4,27.4 135.4,19.2 		"/>
		<path class="st6" d="M121.2,15.1c0,0,1.7-1.8,3.4-3.6c2-2.1,5.4-2.1,7.4,0c1.7,1.8,3.4,3.6,3.4,3.6l0-0.1L121.2,15.1L121.2,15.1z"
			/>
		
			<rect x="126.9" y="9.3" transform="matrix(6.102303e-03 -1 1 6.102303e-03 111.0659 144.6703)" class="st5" width="2.8" height="14.3"/>
		<path class="st6" d="M135.4,17.9l-0.1,15.7c0,3-3.3,3.8-3.3,3.8l-7.8,0c0,0-3.2-0.5-3.2-3.8l0.1-15.7L135.4,17.9z"/>
		<path class="st7" d="M125.4,22.6c0,1.6,1.3,2.9,2.8,2.9c1.6,0,2.9-1.3,2.9-2.8c0-1.6-1.3-2.9-2.8-2.9
			C126.7,19.7,125.4,21,125.4,22.6"/>
		<path class="st7" d="M125.4,29.3c0,1.6,1.3,2.9,2.8,2.9c1.6,0,2.9-1.3,2.9-2.8c0-1.6-1.3-2.9-2.8-2.9
			C126.7,26.5,125.4,27.8,125.4,29.3"/>
		<path class="st1" d="M244.3,139v-30.8c0-1.7-1.4-3.1-3-3.1h-46.9c-1.7,0-3,1.4-3,3.1V139H244.3z"/>
		<path class="st1" d="M239.3,123.4h14.5c1.5,0,2.7,1.2,2.7,2.7c0,1.5-1.2,2.7-2.7,2.7h-14.5c-1.5,0-2.7-1.2-2.7-2.7
			C236.6,124.6,237.9,123.4,239.3,123.4"/>
		<path class="st1" d="M240.7,112.8h7.9c1.5,0,2.7,1.2,2.7,2.7c0,1.5-1.2,2.7-2.7,2.7h-7.9c-1.5,0-2.7-1.2-2.7-2.7
			C238,114,239.2,112.8,240.7,112.8"/>
		<path class="st1" d="M235.9,133.7h21.5c1,0,1.8,0.9,1.8,2c0,1.1-0.8,2-1.8,2h-21.5c-1,0-1.8-0.9-1.8-2
			C234.1,134.5,234.9,133.7,235.9,133.7"/>
		<path class="st1" d="M251.5,107.7h7.8c1,0,1.8,0.8,1.8,1.8c0,1-0.8,1.8-1.8,1.8h-7.8c-1,0-1.8-0.8-1.8-1.8
			C249.8,108.5,250.6,107.7,251.5,107.7"/>
		<path class="st1" d="M241.5,128.6H252c-0.8,0-1.5,0.3-2,0.8c-0.5,0.5-0.8,1.1-0.8,1.8c0,1.5,1.3,2.6,2.8,2.6h-10.4
			c0.8,0,1.5-0.2,2-0.7c0.5-0.5,0.8-1.1,0.8-1.9C244.3,129.7,243.1,128.6,241.5,128.6"/>
		<path class="st8" d="M223.2,122.8c0,2.8-2.3,5.1-5.1,5.1c-2.8,0-5.1-2.3-5.1-5.1c0-2.8,2.3-5.1,5.1-5.1
			C220.9,117.7,223.2,120,223.2,122.8"/>
		<path class="st5" d="M190.6,138v1.5c0,0.8,0.6,1.5,1.4,1.5h52.2c0.8,0,1.4-0.7,1.4-1.5V138H190.6z"/>
		<path class="st1" d="M129,138.7v-30.6c0-1.7,1.3-3.1,3-3.1h46.5c1.6,0,3,1.4,3,3.1v30.6H129z"/>
		<path class="st5" d="M182.4,138.2v1.5c0,0.8-0.6,1.5-1.4,1.5h-51.6c-0.8,0-1.4-0.6-1.4-1.5v-1.5H182.4z"/>
		<path class="st8" d="M160.3,121.9c0,2.8-2.3,5.1-5.1,5.1c-2.8,0-5.1-2.3-5.1-5.1c0-2.8,2.3-5.1,5.1-5.1
			C158,116.8,160.3,119.1,160.3,121.9"/>
		<path class="st1" d="M64,138.7v-30.6c0-1.7,1.3-3.1,3-3.1h46.5c1.6,0,3,1.4,3,3.1v30.6H64z"/>
		<path class="st5" d="M117.4,138.2v1.5c0,0.8-0.6,1.5-1.4,1.5H64.4c-0.8,0-1.4-0.6-1.4-1.5v-1.5H117.4z"/>
		<path class="st8" d="M95.3,121.9c0,2.8-2.3,5.1-5.1,5.1c-2.8,0-5.1-2.3-5.1-5.1c0-2.8,2.3-5.1,5.1-5.1
			C93,116.8,95.3,119.1,95.3,121.9"/>
		<path class="st1" d="M1,138.7v-30.6c0-1.7,1.3-3.1,3-3.1h46.5c1.6,0,3,1.4,3,3.1v30.6H1z"/>
		<path class="st5" d="M54.4,138.2v1.5c0,0.8-0.6,1.5-1.4,1.5H1.4c-0.8,0-1.4-0.6-1.4-1.5v-1.5H54.4z"/>
		<path class="st8" d="M32.3,121.9c0,2.8-2.3,5.1-5.1,5.1s-5.1-2.3-5.1-5.1c0-2.8,2.3-5.1,5.1-5.1S32.3,119.1,32.3,121.9"/>
		<path class="st9" d="M95.8,95.4c-0.2-0.5-4.4-11.8-4.4-18.7h2.5c0,6.4,4.2,17.7,4.2,17.8L95.8,95.4z"/>
		<path class="st9" d="M84.8,86.1l-4.2-7c-0.2-0.3-0.2-0.6-0.1-1c0.1-0.3,0.3-0.6,0.6-0.8l6.7-3.5L89,76l-5.6,2.9l3.5,5.9L84.8,86.1
			z"/>
		<path class="st10" d="M97,51.4c0,0-1.7-2-2.4-2.6c-1.4-1.2-2.5,0.1-2.5,0.1c-6.8-1-8.1,8.7-5,11.1c2.5,2,4.6,0.6,4.6,0.6
			s1.4,1.1,3.6,1.4c1.3,0.2,3-0.7,3-0.7s1.9,1.4,3.4-0.7c1.5-2-0.7-4.1-1.8-4.2c0,0,1.4-1.7-0.5-2.7C98.5,53.3,97,51.4,97,51.4"/>
		<path class="st9" d="M88.5,63.5c-0.5-0.2-0.8-0.9-0.3-1.6c0.5-0.6,1.4-1,2.3-1l0.2,0c0.8,0,1.5,0.3,2,0.9
			C92.4,62.9,89.8,63.9,88.5,63.5"/>
		<path class="st9" d="M89.9,59.1l0,1l0,1.9l1.5,0l0-2.4l0-0.9C91,59,90.4,59.1,89.9,59.1"/>
		<g class="st11">
			<g>
				<defs>
					<rect id="SVGID_5_" x="89.9" y="58.7" width="1.5" height="1.4"/>
				</defs>
				<clipPath id="SVGID_6_">
					<use xlink:href="#SVGID_5_"  style="overflow:visible;"/>
				</clipPath>
				<path class="st12" d="M89.9,59.1l0,1c0.5-0.1,1.1-0.3,1.5-0.7l0-0.8C91,59,90.4,59.1,89.9,59.1"/>
			</g>
		</g>
		<path class="st9" d="M89.1,59.1L89.1,59.1c1.2,0.6,2.6,0.6,3.8,0c0.8-0.4,1.5-1,1.9-1.9l0.7-1.5c0.5-1.1,0.6-2.3,0.2-3.3
			c-0.4-1-1.1-1.8-2.1-2.3c-0.7-0.3-1.4-0.5-2.1-0.4c-1.5,0.1-2.9,0.9-3.6,2.3l-0.7,1.5c-0.7,1.4-0.6,2.9,0.2,4.1
			C87.8,58.2,88.4,58.7,89.1,59.1"/>
		<path class="st10" d="M93.8,54.7c-3,0.5-3.4-2.8-3.2-4.1c0.4-2.8,4-2.3,5.3-0.9c0.8,0.9,2.2,3.2,1.6,6.1c-0.6,2.9-3.6,4.7-3.6,4.7
			c-3.3-2.4,0.1-4.7,0.1-4.7L93.8,54.7z"/>
		<path class="st4" d="M87.2,73.6c-0.5,2.2,0.9,4.3,3,4.8c2.2,0.5,4.3-0.9,4.8-3c0.5-2.2-0.9-4.3-3-4.8
			C89.9,70.1,87.7,71.4,87.2,73.6"/>
		<path class="st13" d="M89.4,56.8c-0.3,0.4-0.9,0.6-1.4,0.3c-0.5-0.2-0.7-0.8-0.6-1.3L89.4,56.8z"/>
		<path class="st4" d="M84.3,75.6c5.3,4.6,11.9,6.9,11.9,6.9s1.1-6.7-1.4-9.6c-1.2-1.5-7.7,0.7-7.7,0.7L84.3,75.6z"/>
		<path class="st4" d="M86.4,64.1c-0.3,0.8,0.5,1.5,1.3,1.6c0.8,0.1,1.5-0.5,1.6-1.3c0.1-0.8-1.1-2.6-1.6-1.9
			C87.3,63.2,86.7,63.5,86.4,64.1"/>
		<path class="st4" d="M92.8,61.8c0.3,0.4,0.6,0.9,0.6,1.5c0,0-0.4,6.6,1.4,9.6c0.8,1.3-7.7,1.3-7.7,1.3l0.2-9.7c0-1,0.3-1.9,1-2.5
			C88.3,63.4,91.3,61.6,92.8,61.8"/>
		<path class="st4" d="M91.5,64.2c-1.5,0-11.7-0.5-17.3-13l2.3-1c5.3,11.7,14.7,11.5,15.1,11.5l0.1,2.5
			C91.6,64.2,91.6,64.2,91.5,64.2"/>
		<path class="st9" d="M76.4,48.1c-0.5-0.3-1-0.4-1.5-0.3l-1.7,2.8c0.2,0.5,0.5,0.9,0.9,1.2c1,0.6,2.3,0.3,3-0.7
			C77.7,50.1,77.4,48.7,76.4,48.1"/>
		<path class="st10" d="M85.3,86.8c0.3,0.9,1.2,1.4,2,1.1c0.9-0.3,1.4-1.2,1.1-2c-0.3-0.9-1.2-1.4-2-1.1
			C85.6,85,85.1,85.9,85.3,86.8"/>
		<path class="st10" d="M81.4,89.6l5.9-1.8c0.6-0.2,1-0.8,0.8-1.5c-0.2-0.6-1.4-1.8-2-1.6l-5.2,3.4c-0.6,0.4-0.4,1.3,0.2,1.4
			C81.2,89.7,81.3,89.7,81.4,89.6"/>
		<path class="st10" d="M96,96.8c0.6,0.7,1.6,0.8,2.3,0.3c0.7-0.6,0.8-1.6,0.3-2.3C98,94,97,93.9,96.3,94.5C95.5,95,95.4,96,96,96.8
			"/>
		<path class="st10" d="M93.3,100.8l4.9-3.8c0.5-0.4,0.6-1.1,0.2-1.7c-0.4-0.5-1.9-1.1-2.5-0.7l-3.7,5.1c-0.4,0.6,0.1,1.4,0.7,1.2
			C93.2,100.9,93.3,100.9,93.3,100.8"/>
		<path class="st14" d="M89.8,73.3c-0.6,0-1.3-0.1-2.1-0.2l0.1-0.3c3.4,0.7,6.1-0.7,6.1-0.7l0.2,0.3C94,72.4,92.3,73.3,89.8,73.3"/>
		<path class="st15" d="M81.8,102l0.7-0.7l1.2,1.2c0.2,0.2,0.6,0.5,0.8,0.2l1.1-1.1l-0.8-0.8c-0.2-0.2-0.2-0.4,0.1-0.7l1.2-1.2
			c0.2-0.2,0.4-0.3,0.7-0.1l0.8,0.8l0.9-0.9c0.2-0.2,0.2-0.8-0.1-1l-1.2-1.2l0.6-0.6c0.2-0.2,0.3-0.6,0-0.8l-1.3-1.3
			c-0.2-0.2-0.6-0.2-0.8,0L85,94.4L84,93.3c-0.2-0.2-0.7-0.2-0.9,0l-0.9,0.9l0.6,0.6c0.2,0.2,0.4,0.7,0.2,0.9L81.7,97
			c-0.2,0.2-0.7,0-0.9-0.2l-0.6-0.6l-1.1,1.1c-0.2,0.2-0.1,0.5,0.1,0.7l1.1,1.1l-0.7,0.7c-0.2,0.2-0.2,0.6,0,0.8L81,102
			C81.2,102.2,81.6,102.2,81.8,102"/>
		<path class="st16" d="M81.1,93.2l-0.8-0.8l1.3-1.3c0.2-0.2,0.5-0.7,0.3-0.9l-1.1-1.1l-0.9,0.9c-0.2,0.2-0.3,0.2-0.5,0l-1.2-1.2
			c-0.2-0.2-0.4-0.4-0.2-0.6l0.9-0.9L78,86.4c-0.2-0.2-0.8,0-1,0.2l-1.3,1.3l-0.7-0.7c-0.2-0.2-0.6-0.4-0.9-0.1l-1.3,1.3
			c-0.2,0.2-0.2,0.7,0.1,0.9l0.7,0.7l-1,1c-0.2,0.2-0.2,0.6,0,0.8l0.9,0.9l0.5-0.5c0.2-0.2,0.8-0.4,1-0.2l1.2,1.2
			c0.2,0.2-0.1,0.7-0.3,0.9l-0.5,0.5l1.1,1.1c0.2,0.2,0.4,0.1,0.7-0.1l1-1l0.8,0.8c0.2,0.2,0.6,0.2,0.8,0l1.3-1.3
			C81.4,93.8,81.3,93.5,81.1,93.2"/>
		<path class="st17" d="M83.1,97.1l0,1.5c0,0.1,0,0.2-0.1,0.2C82.9,99,82.8,99,82.7,99l-1.5,0l0-0.7l1.2,0l0-1.2L83.1,97.1z"/>
		
			<rect x="80" y="92.8" transform="matrix(0.7071 -0.7071 0.7071 0.7071 -44.5235 84.9648)" class="st17" width="0.7" height="6.9"/>
		<path class="st17" d="M78.9,90.5L78.9,90.5l1.5,0l0,0.7l-1.2,0l0,1.2l-0.7,0l0-1.5c0-0.1,0-0.2,0.1-0.2
			C78.7,90.6,78.8,90.5,78.9,90.5"/>
		<rect x="81" y="89.8" transform="matrix(0.7072 -0.707 0.707 0.7072 -42.1513 84.8065)" class="st17" width="0.7" height="6.9"/>
		<path class="st15" d="M176,35l0.7-0.7l1.2,1.2c0.2,0.2,0.6,0.5,0.8,0.2l1.1-1.1l-0.8-0.8c-0.2-0.2-0.2-0.4,0.1-0.7l1.2-1.2
			c0.2-0.2,0.4-0.3,0.7-0.1l0.8,0.8l0.9-0.9c0.2-0.2,0.2-0.8-0.1-1l-1.2-1.2L182,29c0.2-0.2,0.3-0.6,0-0.8l-1.3-1.3
			c-0.2-0.2-0.6-0.2-0.8,0l-0.6,0.6l-1.1-1.1c-0.2-0.2-0.7-0.2-0.9,0l-0.9,0.9l0.6,0.6c0.2,0.2,0.4,0.7,0.2,0.9L176,30
			c-0.2,0.2-0.7,0-0.9-0.2l-0.6-0.6l-1.1,1.1c-0.2,0.2-0.1,0.5,0.1,0.7l1.1,1.1l-0.7,0.7c-0.2,0.2-0.2,0.6,0,0.8l1.3,1.3
			C175.5,35.3,175.8,35.2,176,35"/>
		<path class="st16" d="M175.3,26.3l-0.8-0.8l1.3-1.3c0.2-0.2,0.5-0.7,0.3-0.9l-1.1-1.1l-0.9,0.9c-0.2,0.2-0.3,0.2-0.5,0l-1.2-1.2
			c-0.2-0.2-0.4-0.4-0.2-0.6l0.9-0.9l-0.9-0.9c-0.2-0.2-0.8,0-1,0.2l-1.3,1.3l-0.7-0.7c-0.2-0.2-0.6-0.4-0.9-0.1l-1.3,1.3
			c-0.2,0.2-0.2,0.7,0.1,0.9l0.7,0.7l-1,1c-0.2,0.2-0.2,0.6,0,0.8l0.9,0.9l0.5-0.5c0.2-0.2,0.8-0.4,1-0.2l1.2,1.2
			c0.2,0.2-0.1,0.7-0.3,0.9l-0.5,0.5l1.1,1.1c0.2,0.2,0.4,0.1,0.7-0.1l1-1l0.8,0.8c0.2,0.2,0.6,0.2,0.8,0l1.3-1.3
			C175.6,26.8,175.6,26.5,175.3,26.3"/>
		<path class="st17" d="M177.3,30.1l0,1.5c0,0.1,0,0.2-0.1,0.2c-0.1,0.1-0.1,0.1-0.2,0.1l-1.5,0l0-0.7l1.2,0l0-1.2L177.3,30.1z"/>
		
			<rect x="174.2" y="25.8" transform="matrix(0.7071 -0.7071 0.7071 0.7071 30.4395 131.9902)" class="st17" width="0.7" height="6.9"/>
		<path class="st17" d="M173.1,23.6L173.1,23.6l1.5,0l0,0.7l-1.2,0l0,1.2l-0.7,0l0-1.5c0-0.1,0-0.2,0.1-0.2
			C173,23.6,173,23.6,173.1,23.6"/>
		
			<rect x="175.2" y="22.9" transform="matrix(0.7072 -0.707 0.707 0.7072 32.7999 131.8298)" class="st17" width="0.7" height="6.9"/>
		<path class="st7" d="M80.1,29.1c0,3.9-3.1,7-7,7c-3.9,0-7-3.1-7-7c0-3.9,3.1-7,7-7C76.9,22.1,80.1,25.2,80.1,29.1"/>
		<path class="st3" d="M78.6,29.1c0,3-2.5,5.5-5.5,5.5s-5.5-2.5-5.5-5.5c0-3,2.5-5.5,5.5-5.5S78.6,26.1,78.6,29.1"/>
		<path class="st7" d="M76.8,29.1c0,2.1-1.7,3.7-3.7,3.7c-2.1,0-3.7-1.7-3.7-3.7c0-2.1,1.7-3.7,3.7-3.7C75.1,25.4,76.8,27,76.8,29.1
			"/>
		<path class="st3" d="M74.8,29.1c0,1-0.8,1.7-1.7,1.7c-1,0-1.7-0.8-1.7-1.7c0-1,0.8-1.7,1.7-1.7C74,27.4,74.8,28.1,74.8,29.1"/>
		<path class="st5" d="M83.5,29.7H73.1c-0.3,0-0.6-0.2-0.6-0.6c0-0.3,0.2-0.6,0.6-0.6h10.4c0.3,0,0.6,0.2,0.6,0.6
			C84,29.4,83.8,29.7,83.5,29.7"/>
		<polygon class="st5" points="83.2,29 85,27.9 87.1,27.9 85.9,29.1 87.1,30.3 85,30.3 83.2,29.2 		"/>
		<path class="st18" d="M220.1,81.2c-1.3,0-2.3-1.7-2.3-3.7c0-2.1,1.1-3.7,2.4-3.7c1.3,0,2.3,1.7,2.3,3.7
			C222.4,79.6,221.4,81.2,220.1,81.2"/>
		<path class="st18" d="M231.5,83c-1.5-0.9-3.2-3-2.5-4.9c1.5-4.5-2-6.1-3.7-6.4c-1.7-0.3-3.2,0.1-4.2,0.9c-1.6,1.2-1.1,3.4-0.2,5.1
			c-0.9,0.5-1.4,1.7-0.9,2.6c1.2,1.9,0.2,4.4-0.5,6c-1.1,2.4,0.4,5.5,3.2,6.8c2.7,1.4,6.3,1.2,9.1,0c1.4-0.6,2.6-1.5,3.2-2.7
			C236.3,87.8,234.3,84.6,231.5,83"/>
		<path class="st9" d="M212.6,100.1c-0.7,0.1-1.3,0.2-2.1,0.2c-0.5,0-1-0.4-1-0.9c0-0.5,0.4-1,0.9-1c3.4-0.1,5.9-1.1,7.5-2.9
			c2.4-2.8,2-6.8,2-6.8c-0.1-0.5,0.3-1,0.8-1.1c0.5-0.1,1,0.3,1.1,0.8c0,0.2,0.6,4.8-2.4,8.3C217.8,98.5,215.5,99.7,212.6,100.1"/>
		<path class="st4" d="M220.6,86.8c-0.9,0.1-1.5,1-1.4,1.8c0,0,0.4,3.7-1.8,6.3c-1.1,1.3-2.7,2.1-4.7,2.5c0.6,1,0.7,2.3,0.2,3.3
			c3-0.5,5.3-1.7,7-3.6c3.2-3.7,2.6-8.6,2.6-8.9C222.3,87.3,221.5,86.7,220.6,86.8"/>
		<path class="st9" d="M220.9,88.4c-0.5-0.2-0.9-1-0.3-1.7c0.6-0.7,1.5-1,2.4-1.1l0.2,0c0.8,0,1.6,0.3,2.1,0.9
			C224.9,87.9,222.2,88.9,220.9,88.4"/>
		<path class="st9" d="M222.5,83.8l0,1.1l0,2l1.6,0l0-2.6l0-1C223.6,83.6,223,83.8,222.5,83.8"/>
		<g class="st11">
			<g>
				<defs>
					<rect id="SVGID_7_" x="222.5" y="83.6" width="1.6" height="1.5"/>
				</defs>
				<clipPath id="SVGID_8_">
					<use xlink:href="#SVGID_7_"  style="overflow:visible;"/>
				</clipPath>
				<path class="st19" d="M222.5,84l0,1.1c0.6-0.1,1.2-0.3,1.6-0.7l0-0.8C223.6,83.9,223,84,222.5,84"/>
			</g>
		</g>
		<path class="st9" d="M222.9,84.6L222.9,84.6c1.5,0,2.8-0.7,3.6-1.8c0.6-0.8,0.9-1.7,0.9-2.7l0-1.8c0-1.3-0.6-2.5-1.4-3.3
			c-0.8-0.8-1.9-1.2-3.1-1.2c-0.8,0-1.5,0.2-2.2,0.6c-1.4,0.8-2.3,2.3-2.3,4l0,1.8c0,1.6,0.9,3.1,2.2,3.8
			C221.2,84.3,222,84.6,222.9,84.6"/>
		<path class="st10" d="M219.4,99.3c-0.5,2.3,0.9,4.6,3.2,5.1c2.3,0.5,4.6-0.9,5.1-3.2c0.5-2.3-0.9-4.6-3.2-5.1
			C222.2,95.5,219.9,97,219.4,99.3"/>
		<path class="st13" d="M222.6,82.2c-0.1,0.6-0.6,1-1.2,1c-0.6,0-1.1-0.4-1.2-1L222.6,82.2z"/>
		<path class="st4" d="M218.6,89.2c-0.3,0.8,0.5,1.6,1.4,1.7c0.9,0.1,1.6-0.5,1.7-1.4c0.1-0.9-1.2-2.7-1.7-2
			C219.6,88.2,218.8,88.5,218.6,89.2"/>
		<path class="st4" d="M225.4,86.6c0.4,0.4,0.6,1,0.6,1.6c0,0-0.4,7.1,1.5,10.3l-8.2,0.7l0.2-9.8c0-1,0.3-2,1-2.7
			C220.6,88.3,223.8,86.4,225.4,86.6"/>
		<path class="st18" d="M219.8,118.1c-0.8,0-1.1,0.7-1.2,1c-0.4,1.1-0.2,2.3-0.9,4.1c-0.5,1.3-1,1.5-1.3,2.6
			c-0.3,0.9,0.5,1.2,1.3,0.9c0.3-0.1,2.3-0.6,2.4-2.2c0-1.2-0.1-2.1,0.3-3.1c0.4-1,0.7-0.4,0.8-0.1c0.1,0.2,0.4,0.8,0.4,1
			c0,0.1,0.1,0.1,0.2,0.1l0,0c0.1,0,0.1-0.1,0.1-0.2c-0.1-0.2-0.3-1-0.4-2C221.4,118.9,220.5,118.1,219.8,118.1"/>
		<path class="st9" d="M219,123.6c0.4-0.9,0.9-3.8,0.7-4.4c-0.3-0.7-1.8-0.8-1.9-0.1c-0.2,1.2,0.3,3.2-0.6,5.3
			C217.2,124.9,218.5,124.7,219,123.6"/>
		<path class="st10" d="M224.9,104.2l-10.1,4.7l1-2.3l3.8,12.2c0.2,0.7-0.2,1.5-0.9,1.7c-0.7,0.2-1.4-0.2-1.7-0.8l-4.6-11.9
			c-0.3-0.9,0.1-1.8,0.9-2.2l0.1,0l10.1-4.8c1-0.5,2.1-0.1,2.6,0.9C226.3,102.6,225.9,103.7,224.9,104.2
			C225,104.2,225,104.2,224.9,104.2"/>
		<path class="st18" d="M213,114.3c-0.7-0.3-1.4,0.1-1.5,0.3c-0.8,0.8-1.3,1.9-2.8,3.2c-1,0.9-1.6,0.9-2.4,1.7
			c-0.7,0.7-0.1,1.3,0.8,1.4c0.3,0,2.4,0.5,3.1-0.9c0.6-1,0.9-1.9,1.7-2.6c0.8-0.7,0.8-0.1,0.8,0.3c0,0.2-0.1,0.9-0.1,1.1
			c0,0.1,0.1,0.1,0.1,0.2h0c0.1,0,0.2-0.1,0.2-0.1c0-0.3,0.2-1,0.6-2C214,115.7,213.6,114.6,213,114.3"/>
		<path class="st9" d="M209.7,118.8c0.8-0.6,2.6-2.9,2.7-3.6c0.1-0.8-1.3-1.6-1.7-1c-0.7,0.9-1.2,2.9-3,4.4
			C207.5,119.1,208.8,119.5,209.7,118.8"/>
		<path class="st10" d="M224.2,104.5l-11.1-0.6l1.9-1.6l-2.4,12.5c-0.1,0.8-0.9,1.3-1.6,1.1c-0.7-0.1-1.2-0.8-1.1-1.5l1.5-12.6
			c0.1-0.9,0.9-1.6,1.8-1.6l0.1,0l11.2,0.4c1.1,0,1.9,0.9,1.8,2C226.2,103.7,225.3,104.5,224.2,104.5
			C224.3,104.5,224.2,104.5,224.2,104.5"/>
		<path class="st9" d="M225,100.2c-0.5,0.1-1,0.1-1.6,0.2c-0.5,0-1-0.4-1-0.9c0-0.5,0.4-1,0.9-1c1.8-0.1,4-0.6,4.6-2
			c0.9-2.3-2.2-6.4-3.4-7.6c-0.4-0.4-0.3-1,0.1-1.4c0.4-0.4,1-0.3,1.4,0.1c0.5,0.6,5.3,5.9,3.7,9.6C229.1,98.8,227.5,99.8,225,100.2
			"/>
		<path class="st4" d="M226.5,87.1c-0.4-0.4-0.9-0.6-1.5-0.5c-0.4,0.1-0.7,0.3-1,0.5c-0.6,0.6-0.5,1.6,0.1,2.3
			c1.3,1.5,3.9,5.1,3.2,6.8c-0.1,0.3-0.4,0.5-0.7,0.7c-0.6,0.4-0.9,1-0.8,1.7c0,0,0,0,0,0c0.2,1.1,1.4,1.7,2.4,1.1
			c1-0.6,1.8-1.4,2.2-2.4C232,93.4,227.4,88.2,226.5,87.1"/>
		<path class="st9" d="M219.4,99.3c0,0.6,0.3,1.1,0.7,1.4l3.5-0.3c0.3-0.4,0.5-1,0.4-1.5c-0.1-1.3-1.2-2.2-2.5-2.1
			C220.2,96.9,219.3,98.1,219.4,99.3"/>
		<path class="st9" d="M207.5,99.8c0,0.6,0.3,1.1,0.6,1.5l3.5-0.1c0.3-0.4,0.5-0.9,0.5-1.5c-0.1-1.3-1.1-2.3-2.4-2.2
			C208.4,97.4,207.4,98.5,207.5,99.8"/>
		<path class="st18" d="M228.1,77.3c-0.5,1.4-2.8,2-5.1,1.2c-2.3-0.8-3.8-2.6-3.3-4.1c0.5-1.4,2.8-2,5.1-1.2
			C227.1,74,228.6,75.9,228.1,77.3"/>
		<path class="st10" d="M225.7,100.6c0-0.3-0.3-0.6-0.6-0.6h-20.9c-0.4,0-0.8,0.3-0.8,0.6c0,0.3,0.4,0.6,0.8,0.6h20.9
			C225.4,101.2,225.7,101,225.7,100.6"/>
		<path class="st7" d="M226.5,100.6c0,0.3-0.3,0.6-0.6,0.6H218c-0.3,0-0.6-0.3-0.6-0.6c0-0.3,0.3-0.6,0.6-0.6h7.9
			C226.2,100.1,226.5,100.3,226.5,100.6"/>
		<path class="st7" d="M203.5,89.3v10.5c0,0.5,0.4,0.8,0.8,0.8h13.9c0.5,0,0.8-0.4,0.8-0.8V89.3c0-0.5-0.4-0.8-0.8-0.8h-13.9
			C203.9,88.4,203.5,88.8,203.5,89.3"/>
		<path class="st18" d="M202.8,89.3v10.5c0,0.5,0.4,0.8,0.8,0.8h13.9c0.5,0,0.8-0.4,0.8-0.8V89.3c0-0.5-0.4-0.8-0.8-0.8h-13.9
			C203.2,88.4,202.8,88.8,202.8,89.3"/>
		<path class="st7" d="M212.9,94.5L212.9,94.5c0-0.5-0.4-0.9-0.9-0.9h-2.8c-0.5,0-0.9,0.4-0.9,0.9c0,0.5,0.4,0.9,0.9,0.9h2.8
			C212.5,95.4,212.9,95,212.9,94.5"/>
		<path class="st7" d="M56.8,46.2c-1.9,0-3.8-0.7-5.3-2c-2.2-2-5.8-2-8,0c-0.4,0.3-1,0.3-1.3,0c-0.4-0.4-0.3-1,0-1.3
			c2.9-2.7,7.6-2.7,10.5,0c2.2,2,5.8,2,8,0c2.9-2.7,7.6-2.7,10.5,0c2.2,2,5.8,2,8,0c2.9-2.7,7.6-2.7,10.5,0c0.4,0.3,0.4,0.9,0,1.3
			c-0.4,0.4-0.9,0.4-1.3,0c-2.2-2-5.8-2-8,0c-2.9,2.7-7.6,2.7-10.5,0c-2.2-2-5.8-2-8,0C60.6,45.5,58.7,46.2,56.8,46.2"/>
		<path class="st7" d="M201.3,56.4c-1.3,0-2.6-0.5-3.5-1.4c-1.5-1.4-3.9-1.4-5.3,0c-0.3,0.2-0.7,0.2-0.9,0c-0.2-0.3-0.2-0.6,0-0.9
			c1.9-1.8,5.1-1.8,7.1,0c1.5,1.4,3.9,1.4,5.3,0c1.9-1.8,5.1-1.8,7,0c1.5,1.4,3.9,1.4,5.3,0c1.9-1.8,5.1-1.8,7,0
			c0.3,0.2,0.3,0.6,0,0.9c-0.2,0.3-0.6,0.3-0.9,0c-1.5-1.4-3.9-1.4-5.3,0c-1.9,1.8-5.1,1.8-7.1,0c-1.5-1.4-3.9-1.4-5.3,0
			C203.8,55.9,202.5,56.4,201.3,56.4"/>
		<path class="st20" d="M159.8,85.1c-0.4-0.6,0.1-1.6-0.2-2.8c-1-3.5,0.2-5.1,0.2-5.1c0-1.3,1.1-2.4,2.7-3c0.8-0.3,1.6-0.4,2.6-0.5
			c1.4,0,2.7,0.3,3.7,0.9c1,0.6,1.8,1.5,1.7,2.5c-0.1,0.7-0.8,1.6,0,2.8c1.9,2.9,1.1,4.6,0.1,5.1c-0.9,0.5-2,0.5-2.5,0.8
			C165.2,87.5,161.3,87.2,159.8,85.1"/>
		<path class="st9" d="M151.1,98.1c-0.6-0.1-1.3-0.2-2-0.3c-0.5-0.1-0.8-0.6-0.7-1.1c0.1-0.5,0.6-0.8,1.1-0.7
			c3.2,0.7,5.8,0.4,7.7-0.9c3-2.1,3.5-5.9,3.5-5.9c0.1-0.5,0.5-0.9,1-0.8c0.5,0.1,0.9,0.5,0.8,1c0,0.2-0.7,4.7-4.3,7.2
			C156.4,97.9,154,98.4,151.1,98.1"/>
		<path class="st10" d="M160.4,90.5c-0.2,0-0.4,0-0.5,0.1c0.3-0.9,0.4-1.5,0.4-1.5c0.1-0.7,0.7-1.3,1.5-1.3c0.1,0,0.1,0,0.2,0
			c0.8,0.1,1.4,0.8,1.3,1.7c0,0.1-0.2,1.2-0.7,2.6C162.2,91.1,161.5,90.5,160.4,90.5"/>
		<path class="st9" d="M162.1,89.7c-0.5-0.2-0.9-1-0.3-1.6c0.6-0.7,1.4-1,2.4-1l0.2,0c0.8,0,1.6,0.3,2.1,0.9
			C166.1,89.1,163.4,90.2,162.1,89.7"/>
		<path class="st9" d="M163.7,85.1l0,1.1l0,2l1.5,0l0-2.5l0-1C164.8,85,164.2,85.2,163.7,85.1"/>
		<g class="st11">
			<g>
				<defs>
					<rect id="SVGID_9_" x="163.7" y="84.9" width="1.5" height="1.5"/>
				</defs>
				<clipPath id="SVGID_10_">
					<use xlink:href="#SVGID_9_"  style="overflow:visible;"/>
				</clipPath>
				<path class="st21" d="M163.7,85.4l0,1.1c0.5-0.1,1.2-0.3,1.5-0.7l0-0.8C164.8,85.3,164.2,85.4,163.7,85.4"/>
			</g>
		</g>
		<path class="st9" d="M164.1,85.9L164.1,85.9c1.4,0,2.7-0.7,3.5-1.8c0.5-0.7,0.9-1.7,0.9-2.7l0-1.7c0-1.3-0.6-2.4-1.4-3.2
			c-0.8-0.7-1.9-1.2-3-1.2c-0.8,0-1.5,0.2-2.1,0.6c-1.3,0.8-2.2,2.2-2.2,3.9l0,1.7c0,1.6,0.9,3,2.1,3.7
			C162.5,85.7,163.2,85.9,164.1,85.9"/>
		<path class="st18" d="M159.4,100.2c-0.5,2.2,2.3,4.5,4.5,5c2.2,0.5,4.5-0.9,5-3.1c0.5-2.2-0.9-4.5-3.1-5
			C163.5,96.6,159.9,98,159.4,100.2"/>
		<path class="st13" d="M163.8,83.6c-0.1,0.5-0.6,1-1.1,1c-0.6,0-1.1-0.4-1.2-0.9L163.8,83.6z"/>
		<path class="st10" d="M159.7,90.7c-0.3,0.8,0.5,1.7,1.3,1.8c0.8,0.1,1.8-1,1.9-1.8c0.1-0.8-1.1-2.7-1.6-2
			C160.9,89.4,159.9,90,159.7,90.7"/>
		<path class="st10" d="M166.5,87.9c0.4,0.4,0.6,1,0.6,1.6c0,0-1.4,6.5,1.5,10c0,0-5.2,3.1-9.3,1c0-3,1.8-5,1.5-9.8
			c-0.1-1,0.3-1.9,1-2.6C161.9,89.6,165,87.8,166.5,87.9"/>
		<path class="st18" d="M160.9,118.9c-0.7-0.1-1.2,0.5-1.3,0.7c-0.5,1-0.6,2.1-1.6,3.8c-0.7,1.1-1.2,1.3-1.7,2.2
			c-0.4,0.8,0.3,1.2,1.1,1.1c0.3-0.1,2.3-0.2,2.6-1.7c0.2-1.1,2-1.5,2.1-1.9c0-0.2-0.1-1,0-2C162.2,119.9,161.5,119,160.9,118.9"/>
		<path class="st9" d="M159.2,124.1c0.6-0.8,1.5-3.5,1.4-4.1c-0.2-0.8-1.6-1.1-1.8-0.5c-0.4,1.1-0.2,3.1-1.5,5
			C157.2,125,158.5,125,159.2,124.1"/>
		<path class="st18" d="M137.9,108.6c0.5-0.5,0.3-1.3,0.2-1.5c-0.5-1-1.3-1.8-2.1-3.6c-0.5-1.2-0.3-1.7-0.8-2.7
			c-0.4-0.8-1.2-0.5-1.5,0.3c-0.1,0.3-1.2,2-0.2,3.2c0.8,0.8,0,2.5,0.3,2.8c0.2,0.2,0.9,0.5,1.6,1.2
			C136.3,109,137.4,109,137.9,108.6"/>
		<path class="st9" d="M134.8,104.1c0.3,0.9,1.9,3.3,2.5,3.6c0.7,0.3,1.8-0.7,1.5-1.2c-0.6-0.9-2.3-2-3.1-4.2
			C135.2,102,134.4,103,134.8,104.1"/>
		<path class="st18" d="M155,106.3L155,106.3l9.9-4.6c0.9-0.4,2,0,2.5,0.9c0.4,0.9,0,2-0.9,2.5c0,0,0,0,0,0l-8.5,3.8l3,10.3
			l-2.6,0.9l-4.3-11.6C153.8,107.6,154.2,106.6,155,106.3"/>
		<path class="st9" d="M164.1,100.6c-0.5,0-1,0-1.5-0.1c-0.5-0.1-0.9-0.5-0.8-1c0.1-0.5,0.5-0.9,1-0.8c1.7,0.2,3.9,0.1,4.7-1.2
			c1.2-2-1.1-6.4-2-7.8c-0.3-0.4-0.2-1,0.3-1.3c0.4-0.3,1-0.2,1.3,0.3c0.4,0.6,4.1,6.5,2,9.8C168.2,99.9,166.5,100.6,164.1,100.6"/>
		<path class="st20" d="M168.9,80.2c0,0-3.1,1.1-5.1-0.2c-1.9-1.4-2.8-3.4-2-4.7c0.8-1.2,3.1-1.1,5.1,0.2
			C168.9,76.9,168.9,80.2,168.9,80.2"/>
		<path class="st18" d="M165,101.3c0,0-1.7,0-4.3,0.2c-1.3,0.1-2.8,0.1-4.4,0.2c-1.6,0.1-3.3,0.2-5.1,0.3l-0.6,0l-0.2,0l0,0l-0.2,0
			l-0.1,0l-0.3,0l-0.6,0.1l0,0l-0.2,0l0,0l-0.1,0l-0.2,0l-0.3,0.1c-0.8,0.2-1.6,0.4-2.4,0.6c-0.8,0.2-1.5,0.4-2.3,0.6
			c-0.7,0.2-1.4,0.4-2,0.5c-1.3,0.3-2.3,0.6-3,0.8c-0.7,0.2-1.1,0.3-1.1,0.3l0.5,2.3c0,0,0.4-0.1,1.2-0.2c0.7-0.1,1.8-0.3,3.1-0.5
			c0.6-0.1,1.3-0.2,2.1-0.4c0.7-0.1,1.5-0.3,2.3-0.4c0.8-0.2,1.6-0.3,2.4-0.5l0.3-0.1l0.2,0l0.1,0l0,0c0,0-0.3,0-0.1,0l0,0l0,0
			l0.6-0.1l0.3,0l0.1,0h0c0,0-0.3,0-0.1,0h0l0,0l0.2,0l0.6,0c1.7-0.1,3.4-0.1,5.1-0.2c1.6-0.1,3.1-0.2,4.4-0.2
			c2.6-0.1,4.3-0.3,4.3-0.3L165,101.3z"/>
		<path class="st22" d="M164.5,102.4c0-0.3-0.3-0.6-0.6-0.6h-20.3c-0.4,0-0.8,0.3-0.8,0.6c0,0.3,0.3,0.6,0.8,0.6h20.3
			C164.2,102.9,164.5,102.7,164.5,102.4"/>
		<path class="st22" d="M165.3,102.4c0,0.3-0.3,0.6-0.6,0.6H157c-0.3,0-0.6-0.3-0.6-0.6c0-0.3,0.3-0.6,0.6-0.6h7.7
			C165,101.8,165.3,102,165.3,102.4"/>
		<path class="st22" d="M142.9,91.3v10.2c0,0.5,0.4,0.8,0.8,0.8h13.5c0.5,0,0.8-0.4,0.8-0.8V91.3c0-0.5-0.4-0.8-0.8-0.8h-13.5
			C143.3,90.5,142.9,90.9,142.9,91.3"/>
		<path class="st23" d="M142.3,91.3v10.2c0,0.5,0.4,0.8,0.8,0.8h13.5c0.5,0,0.8-0.4,0.8-0.8V91.3c0-0.5-0.4-0.8-0.8-0.8h-13.5
			C142.6,90.5,142.3,90.9,142.3,91.3"/>
		<path class="st3" d="M152.1,96.4L152.1,96.4c0-0.5-0.4-0.9-0.9-0.9h-2.7c-0.5,0-0.9,0.4-0.9,0.9c0,0.5,0.4,0.9,0.9,0.9h2.7
			C151.7,97.3,152.1,96.9,152.1,96.4"/>
		<path class="st10" d="M168,90.3c-1.1,0-1.8,0.6-2.1,1.4c-0.3-0.7-0.7-1.3-1-1.7c-0.4-0.7-0.3-1.6,0.4-2c0.2-0.2,0.5-0.2,0.8-0.2
			c0.5,0,1,0.3,1.2,0.7c0.2,0.3,0.7,1.1,1.1,2C168.4,90.3,168.2,90.3,168,90.3"/>
		<path class="st9" d="M158.5,98.9c-0.2,0.5-0.2,1-0.1,1.5l3.1,1.4c0.5-0.2,0.8-0.6,1.1-1.1c0.5-1.1,0-2.5-1.1-3
			C160.3,97.2,159,97.7,158.5,98.9"/>
		<path class="st18" d="M21.7,101.2c-0.5,0-1-0.2-1.3-0.7l-5.7-7.9c-0.4-0.6-0.4-1.4,0.1-2l7.5-9.1c0.6-0.7,1.6-0.8,2.3-0.2
			c0.7,0.6,0.8,1.6,0.2,2.3L18,91.8l5,6.8c0.5,0.7,0.4,1.8-0.4,2.3C22.4,101.1,22,101.2,21.7,101.2"/>
		<path class="st18" d="M32.7,101.2c-0.3,0-0.7-0.1-1-0.3c-0.7-0.5-0.9-1.6-0.4-2.3l5-6.8l-6.7-8.1c-0.6-0.7-0.5-1.8,0.2-2.3
			c0.7-0.6,1.8-0.5,2.3,0.2l7.5,9.1c0.5,0.6,0.5,1.4,0.1,2l-5.8,7.9C33.7,101,33.2,101.2,32.7,101.2"/>
		<path class="st10" d="M22.8,71.4c0,2.6,2.1,4.8,4.8,4.8c2.6,0,4.8-2.1,4.8-4.8c0-2.6-2.1-3.8-4.8-3.8C25,67.5,22.8,68.7,22.8,71.4
			"/>
		<polygon class="st9" points="25.9,77.3 25.9,81.8 25.9,84.8 29.4,84.8 29.2,77.5 29.1,75.4 		"/>
		<path class="st18" d="M22.2,84.4c0-1.4,1.2-2.8,2.5-3.5c1.9-1,4.8-0.3,5.8,0.3c1.6,0.9,2.5,2.9,2.4,4.8L33,96.6H21.7
			C21.7,96.6,22.2,87.6,22.2,84.4"/>
		<path class="st9" d="M29.9,80.9c-1.4-0.6-3.3-0.8-4.9-0.1l1.2,1.2c0.7,0.7,1.9,0.7,2.7,0C29.2,81.6,29.5,81.3,29.9,80.9"/>
		<path class="st9" d="M26.7,68.6h1.8c1.6,0,3.1,1.3,2.9,2.9c-0.1,1.2,0,2,0,3.8c0,1.4-1.7,4.2-3.1,4.2h-1.4c-1.4,0-3.1-2.8-3.1-4.2
			c0-1.7,0.1-2.6,0-3.8C23.6,69.9,25.1,68.6,26.7,68.6"/>
		<path class="st13" d="M29.1,76.9c-0.1,0.7-0.7,1.2-1.5,1.2c-0.7,0-1.3-0.5-1.5-1.2H29.1z"/>
		<path class="st5" d="M29.2,106.8h-3.6c-2.6,0-4.6-2.4-4-4.9l0.2-5.2H33l0.2,5.2C33.7,104.4,31.8,106.8,29.2,106.8"/>
		<path class="st5" d="M10.9,101l15.4-1.5l0.4,4.6l-15.4,1.5c-1.3,0.1-2.4-0.8-2.5-2.1l0,0C8.7,102.2,9.6,101.1,10.9,101"/>
		<path class="st5" d="M41.6,101l-15.4-1.5l-0.4,4.6l15.4,1.5c1.3,0.1,2.4-0.8,2.5-2.1l0,0C43.8,102.2,42.9,101.1,41.6,101"/>
		<path class="st7" d="M34.8,104.7H19.8c-0.7,0-1.2-0.5-1.2-1.2v-8.6c0-0.7,0.5-1.2,1.2-1.2h15.1c0.7,0,1.2,0.5,1.2,1.2v8.6
			C36.1,104.2,35.5,104.7,34.8,104.7"/>
		<path class="st3" d="M34.8,105.2H19.8c-0.7,0-1.2-0.5-1.2-1.2v-8.6c0-0.7,0.5-1.2,1.2-1.2h15.1c0.7,0,1.2,0.5,1.2,1.2v8.6
			C36.1,104.7,35.5,105.2,34.8,105.2"/>
		<path class="st7" d="M29,100.9h-3.3c-0.5,0-0.8-0.4-0.8-0.8v0c0-0.5,0.4-0.8,0.8-0.8H29c0.5,0,0.8,0.4,0.8,0.8v0
			C29.8,100.6,29.4,100.9,29,100.9"/>
		<path class="st7" d="M21.3,108.8l4.5-0.3l0,0.1c0,0.3,0.2,0.5,0.4,0.5c0.2,0,0.4-0.2,0.4-0.4l0-0.3l0.5,0l0,0.1
			c0,0.3,0.2,0.5,0.4,0.5c0.2,0,0.4-0.2,0.4-0.4l0.1-0.3l2.8-0.2c0.1,0,0.1-0.1,0.2-0.1c0.1,0,0.2-0.1,0.3-0.1
			c1.3-0.5,2-1.9,1.5-3.2c-0.5-1.3-1.9-2-3.2-1.5c0,0,0,0,0,0c0,0,0,0,0,0l-8.9,3.2c-0.1,0-0.3,0.1-0.4,0.3
			C19.6,107.6,20.3,108.9,21.3,108.8"/>
		<path class="st4" d="M28.2,107.2c-0.5-1.3,0.2-2.7,1.5-3.2c1.3-0.5,2.7,0.2,3.2,1.5c0.5,1.3-0.2,2.7-1.5,3.2
			C30.1,109.1,28.6,108.5,28.2,107.2"/>
		<path class="st4" d="M20.7,107.2l8.9-3.2c0.9-0.3,2,0.1,2.3,1.1c0.3,0.9-0.1,3.4-1.1,3.8l-9.5,0.6c-1.1,0.1-1.7-1.2-1-2
			C20.4,107.3,20.6,107.3,20.7,107.2"/>
		<path class="st7" d="M27.7,107.9L27.7,107.9c0.3,0,0.5,0.2,0.4,0.5l-0.2,1c0,0.2-0.2,0.3-0.4,0.4c-0.3,0-0.5-0.2-0.4-0.5l0.2-1
			C27.3,108,27.5,107.9,27.7,107.9"/>
		<path class="st7" d="M26.4,107.9L26.4,107.9c0.3,0,0.5,0.2,0.4,0.5l-0.2,1c0,0.2-0.2,0.3-0.4,0.4c-0.3,0-0.5-0.2-0.4-0.5l0.2-1
			C26,108.1,26.2,107.9,26.4,107.9"/>
		<path class="st9" d="M40.7,101.9l-10.4,2.8c-1,0.3-1.6,1.3-1.3,2.3l0,0c0.3,1,1.3,1.6,2.3,1.3l10.4-2.8c1-0.3,1.6-1.3,1.3-2.3l0,0
			C42.7,102.3,41.7,101.7,40.7,101.9"/>
		<path class="st7" d="M31.2,108.8l-4.5-0.3l0,0.1c0,0.3-0.2,0.5-0.4,0.5c-0.2,0-0.4-0.2-0.4-0.4l0-0.3l-0.5,0l0,0.1
			c0,0.3-0.2,0.5-0.4,0.5c-0.2,0-0.4-0.2-0.4-0.4l-0.1-0.3l-2.8-0.2c-0.1,0-0.1-0.1-0.2-0.1c-0.1,0-0.2-0.1-0.3-0.1
			c-1.3-0.5-2-1.9-1.5-3.2c0.5-1.3,1.9-2,3.2-1.5c0,0,0,0,0,0c0,0,0,0,0,0l8.9,3.2c0.1,0,0.3,0.1,0.4,0.3
			C32.9,107.6,32.2,108.9,31.2,108.8"/>
		<path class="st4" d="M24.3,107.2c0.5-1.3-0.2-2.7-1.5-3.2c-1.3-0.5-2.7,0.2-3.2,1.5c-0.5,1.3,0.2,2.7,1.5,3.2
			C22.4,109.1,23.8,108.5,24.3,107.2"/>
		<path class="st4" d="M31.8,107.2l-8.9-3.2c-0.9-0.3-2,0.1-2.3,1.1c-0.3,0.9,0.1,3.4,1.1,3.8l9.5,0.6c1,0.1,1.7-1.2,1-2
			C32,107.3,31.9,107.3,31.8,107.2"/>
		<path class="st7" d="M24.8,107.9L24.8,107.9c-0.3,0-0.5,0.2-0.4,0.5l0.2,1c0,0.2,0.2,0.3,0.4,0.4c0.3,0,0.5-0.2,0.4-0.5l-0.2-1
			C25.1,108,25,107.9,24.8,107.9"/>
		<path class="st7" d="M26.1,107.9L26.1,107.9c-0.3,0-0.5,0.2-0.4,0.5l0.2,1c0,0.2,0.2,0.3,0.4,0.4c0.3,0,0.5-0.2,0.4-0.5l-0.2-1
			C26.5,108.1,26.3,107.9,26.1,107.9"/>
		<path class="st9" d="M11.8,101.9l10.4,2.8c1,0.3,1.6,1.3,1.3,2.3l0,0c-0.3,1-1.3,1.6-2.3,1.3l-10.4-2.8c-1-0.3-1.6-1.3-1.3-2.3
			l0,0C9.8,102.3,10.8,101.7,11.8,101.9"/>
		<path class="st10" d="M27.9,66.8c4.4,0,4.3,4.7,4.3,4.7c-4.6,0.9-6.3-2.4-6.3-3C25.9,68.5,26.3,66.8,27.9,66.8"/>
		<path class="st10" d="M25.6,67.8c-3.5-0.5-2.7,4.1-2.7,4.1c2.3-0.4,3.7-2.3,3.6-2.7L25.6,67.8z"/>
	</g>
</g>
</svg>
