<?xml version="1.0" encoding="utf-8"?>
<!-- Generator: Adobe Illustrator 21.0.0, SVG Export Plug-In . SVG Version: 6.00 Build 0)  -->
<svg version="1.1" id="Слой_1" xmlns="http://www.w3.org/2000/svg" xmlns:xlink="http://www.w3.org/1999/xlink" x="0px" y="0px"
	 viewBox="0 0 247.7 136.7" style="enable-background:new 0 0 247.7 136.7;" xml:space="preserve">
<style type="text/css">
	.st0{clip-path:url(#SVGID_2_);}
	.st1{clip-path:url(#SVGID_4_);fill:#2A238E;}
	.st2{clip-path:url(#SVGID_4_);fill:#2A5993;}
	.st3{clip-path:url(#SVGID_4_);fill:#1E4277;}
	.st4{clip-path:url(#SVGID_4_);fill:#FFFFFF;}
	.st5{clip-path:url(#SVGID_4_);fill:#B6DEFF;}
	.st6{clip-path:url(#SVGID_4_);fill-rule:evenodd;clip-rule:evenodd;fill:#FFFFFF;}
	.st7{clip-path:url(#SVGID_4_);fill-rule:evenodd;clip-rule:evenodd;fill:#121F55;}
	.st8{clip-path:url(#SVGID_4_);fill-rule:evenodd;clip-rule:evenodd;fill:#2143AF;}
	.st9{clip-path:url(#SVGID_4_);fill-rule:evenodd;clip-rule:evenodd;fill:#566CD3;}
	.st10{clip-path:url(#SVGID_4_);fill:#8EDEF2;}
	.st11{clip-path:url(#SVGID_4_);fill:#B8B9F1;}
	.st12{clip-path:url(#SVGID_4_);fill:#2747B3;}
	.st13{clip-path:url(#SVGID_4_);fill-rule:evenodd;clip-rule:evenodd;fill:#B6DEFF;}
	.st14{clip-path:url(#SVGID_4_);fill:#B9B8F1;}
	.st15{clip-path:url(#SVGID_4_);fill:#566CD3;}
	.st16{clip-path:url(#SVGID_4_);fill:#2143AF;}
	.st17{clip-path:url(#SVGID_4_);fill:#F99AB6;}
	.st18{clip-path:url(#SVGID_4_);}
	.st19{clip-path:url(#SVGID_6_);fill:#F99AB6;}
	.st20{clip-path:url(#SVGID_4_);fill:#121F55;}
	.st21{clip-path:url(#SVGID_4_);fill:#FFFEFF;}
	.st22{clip-path:url(#SVGID_4_);fill:#F7B75D;}
	.st23{clip-path:url(#SVGID_4_);fill:#333951;}
	.st24{clip-path:url(#SVGID_4_);fill:#E5E9FF;}
	.st25{clip-path:url(#SVGID_4_);fill:#F7B0C8;}
	.st26{clip-path:url(#SVGID_4_);fill:#725D52;}
	.st27{clip-path:url(#SVGID_8_);fill:#F99AB6;}
	.st28{clip-path:url(#SVGID_4_);fill:#E5E3E4;}
</style>
<g>
	<defs>
		<rect id="SVGID_1_" width="247.7" height="136.7"/>
	</defs>
	<clipPath id="SVGID_2_">
		<use xlink:href="#SVGID_1_"  style="overflow:visible;"/>
	</clipPath>
	<g class="st0">
		<defs>
			<rect id="SVGID_3_" width="247.7" height="136.7"/>
		</defs>
		<clipPath id="SVGID_4_">
			<use xlink:href="#SVGID_3_"  style="overflow:visible;"/>
		</clipPath>
		<path class="st1" d="M198.8,94.8c-7.1,0-13.3,4-16.5,9.8c-3.2-9.4-12.1-16.2-22.6-16.2c-8.2,0-15.4,4.1-19.7,10.4
			c-8.5,0.8-15.3,7.1-16.8,15.4c-1.5-5-5.2-9.1-10-11.1c-3.5-9.5-12.6-16.3-23.3-16.3c-10.7,0-19.8,6.7-23.3,16.2
			c-2.9-2.1-6.4-3.3-10.2-3.3c-9.6,0-17.4,7.8-17.4,17.4c0,9.6,7.8,17.4,17.4,17.4c5.8,0,10.9-2.8,14.1-7.2
			c4.6,5.7,11.5,9.3,19.4,9.3c3.2,0,6.3-0.6,9.1-1.7c2.3,1.1,4.9,1.7,7.6,1.7c8.4,0,15.4-6,17-13.9c2.2,8,9.5,13.8,18.2,13.8
			c3.1,0,6.1-0.8,8.7-2.1c2.9,1.2,6,1.9,9.3,1.9c9.9,0,18.4-6,22-14.6c3,6.5,9.5,11,17.1,11c10.4,0,18.8-8.4,18.8-18.8
			C217.6,103.3,209.2,94.8,198.8,94.8"/>
		<path class="st2" d="M84.7,42.9L84.7,42.9l14.6,0v-0.7c0-6.2-1.7-11.3-7.9-11.5h0C89.8,30.9,84.7,32.1,84.7,42.9"/>
		<path class="st3" d="M6.4,128.2h78.2V42.9c0-11.3,5.7-12.1,6.9-12.2c0,0-51.9,0-72,0C5.5,30.7,6.4,42.9,6.4,42.9V128.2z"/>
		<path class="st3" d="M91.8,30.7h-0.2C91.7,30.7,91.8,30.7,91.8,30.7"/>
		<path class="st4" d="M91.8,30.7h-0.2C91.7,30.7,91.8,30.7,91.8,30.7"/>
		<rect x="71.7" y="42.2" class="st5" width="2" height="63"/>
		<rect x="61.7" y="42.2" class="st5" width="2" height="63"/>
		<rect x="50.7" y="42.2" class="st5" width="2" height="63"/>
		<rect x="39.7" y="42.2" class="st5" width="2" height="63"/>
		<rect x="28.7" y="42.2" class="st5" width="2" height="63"/>
		<rect x="18.7" y="42.2" class="st5" width="2" height="63"/>
		<rect x="14.7" y="100.2" class="st5" width="62" height="2"/>
		<rect x="14.7" y="89.2" class="st5" width="62" height="2"/>
		<rect x="14.7" y="78.2" class="st5" width="62" height="2"/>
		<rect x="14.7" y="67.2" class="st5" width="62" height="2"/>
		<rect x="14.7" y="57.2" class="st5" width="62" height="2"/>
		<rect x="14.7" y="46.2" class="st5" width="62" height="2"/>
		<rect x="67.4" y="59.8" transform="matrix(0.7071 -0.7071 0.7071 0.7071 -24.3018 66.6993)" class="st5" width="2" height="5.7"/>
		<rect x="65.5" y="61.7" transform="matrix(0.7071 -0.7071 0.7071 0.7071 -24.3018 66.6994)" class="st5" width="5.7" height="2"/>
		<rect x="34.1" y="49.7" transform="matrix(0.7071 -0.7071 0.7071 0.7071 -26.9017 40.2487)" class="st5" width="2" height="5.7"/>
		<rect x="32.3" y="51.6" transform="matrix(0.7071 -0.7071 0.7071 0.7071 -26.9018 40.2489)" class="st5" width="5.7" height="2"/>
		<polygon class="st5" points="56.5,77.6 53.6,74.7 55,73.2 56.5,74.8 59.4,71.9 60.8,73.4 		"/>
		<polygon class="st5" points="23.8,66.2 20.8,63.2 22.2,61.8 23.8,63.3 26.6,60.5 28,61.9 		"/>
		<path class="st6" d="M98,60.5c-0.1-0.4-4.7-7.6-4.7-7.6s-4.3,7-4.6,7.6H98z"/>
		<polygon class="st7" points="91.1,56.6 95.5,56.6 93.3,53 		"/>
		<polygon class="st8" points="98,60.8 88.7,60.8 88.7,122.8 98,122.8 		"/>
		<polygon class="st9" points="94.9,60.8 91.7,60.8 91.7,122.8 94.9,122.8 		"/>
		<path class="st9" d="M88.6,122.8v2c0,1.9,1.5,3.4,3.4,3.4h2.6c1.9,0,3.4-1.5,3.4-3.4v-2H88.6z"/>
		<path class="st5" d="M245.7,85.9c0-0.4-0.4-0.7-0.7-0.8l-1.4-0.2c-0.4-0.1-0.7-0.4-0.8-0.7l-0.6-1.4c-0.2-0.3-0.1-0.8,0.1-1.1
			l0.8-1.1c0.2-0.3,0.2-0.8,0-1l-0.7-0.9c-0.2-0.3-0.7-0.3-1-0.2l-1.3,0.6c-0.3,0.2-0.8,0.1-1.1-0.1l-1.3-0.8
			c-0.3-0.2-0.6-0.6-0.6-0.9l0-1.4c0-0.4-0.3-0.7-0.6-0.8l-1.1-0.3c-0.3-0.1-0.8,0.1-0.9,0.4l-0.2,0.4l-0.3,0.5l-0.2,0.3
			c-0.2,0.3-0.6,0.6-1,0.6l-1.5,0.1c-0.4,0-0.8-0.1-1-0.4l-0.8-1.1c-0.2-0.3-0.7-0.4-1-0.3l-1.1,0.4c-0.3,0.2-0.6,0.6-0.5,0.9
			l0.2,1.4c0,0.4-0.1,0.8-0.4,1l-1.1,1c-0.3,0.2-0.7,0.4-1.1,0.2l-1.3-0.4c-0.3-0.1-0.8,0-1,0.3c0,0-0.1,0.1-0.3,0.5
			c-0.2,0.4-0.3,0.5-0.3,0.5c-0.2,0.3-0.1,0.8,0.1,1l1,1c0.2,0.3,0.4,0.7,0.3,1.1l-0.4,1.4c-0.1,0.3-0.4,0.7-0.7,0.8l-1.3,0.4
			c-0.3,0.1-0.6,0.5-0.6,0.8L220,89c0,0.4,0.4,0.7,0.7,0.8l1.4,0.2c0.4,0.1,0.7,0.4,0.8,0.7l0.6,1.4c0.2,0.3,0.1,0.8-0.1,1.1
			l-0.8,1.1c-0.2,0.3-0.2,0.8,0,1l0.7,0.9c0.2,0.3,0.7,0.3,1,0.2l1.3-0.6c0.3-0.2,0.8-0.1,1.1,0.1l1.3,0.8c0.3,0.2,0.6,0.6,0.6,0.9
			l0,1.4c0,0.4,0.3,0.7,0.6,0.8l1.1,0.3c0.3,0.1,0.8-0.1,0.9-0.4l0.7-1.2c0.2-0.3,0.6-0.6,1-0.6l1.5-0.1c0.4,0,0.8,0.1,1,0.4
			l0.8,1.1c0.2,0.3,0.7,0.4,1,0.3l1.1-0.4c0.3-0.1,0.5-0.6,0.5-0.9l-0.2-1.4c0-0.4,0.1-0.8,0.4-1l1.1-1c0.3-0.2,0.7-0.4,1.1-0.2
			l1.3,0.4c0.3,0.1,0.8,0,1-0.3c0,0,0.1-0.1,0.3-0.5c0.2-0.4,0.3-0.5,0.3-0.5c0.2-0.3,0.1-0.8-0.1-1l-1-1c-0.3-0.3-0.4-0.7-0.3-1.1
			l0.4-1.4c0.1-0.3,0.4-0.7,0.7-0.8l1.3-0.4c0.3-0.1,0.6-0.5,0.6-0.9L245.7,85.9z M239.1,91.3c-2.1,3.4-6.6,4.5-10.1,2.4
			c-3.4-2.1-4.5-6.6-2.4-10.1c1.2-2,3.2-3.1,5.3-3.4c0.2,0,0.5,0,0.7,0c0.2,0,0.5,0,0.7,0c0.2,0,0.5,0,0.7,0.1
			c0.9,0.2,1.8,0.5,2.6,1C240.2,83.4,241.2,87.9,239.1,91.3"/>
		<path class="st5" d="M235.6,83c-0.5-0.3-1-0.5-1.5-0.6c-0.7-0.2-1.4-0.2-2.1-0.1c-1.4,0.3-2.7,1.1-3.5,2.4
			c-1.5,2.4-0.8,5.7,1.7,7.2c2.4,1.5,5.7,0.8,7.2-1.7C238.8,87.7,238.1,84.5,235.6,83 M234.5,88.4c-0.5,0.9-1.7,1.2-2.6,0.6
			c-0.9-0.6-1.2-1.7-0.6-2.6c0.1-0.2,0.3-0.4,0.6-0.6c0.6-0.4,1.4-0.4,2,0c0,0,0.1,0.1,0.1,0.1C234.8,86.5,235,87.6,234.5,88.4"/>
		<path class="st5" d="M214.8,103.7c-12.5,0-23.3,7-28.9,17.2c-10.5-5.2-23.5,1.2-25.5,10.9c-0.6-2.9-5.8-2.6-5.8-2.6
			c3.9-2.8,6.4-7.4,6.4-12.5c0-8.6-7-15.5-15.5-15.5c-2.1,0-4,0.3-5.8,1l-6.3,1.6h-19.6l-6.3-1.1c-1.8-0.7-3.7-1-5.7-1
			c-8.6,0-15.5,7-15.5,15.6c0,5,2.4,9.5,6.1,12.3c0,0-4.4-0.5-5.4,2.4c0-9.8-14.7-18.7-25.1-11.1c-5.6-10.2-16.4-17.2-28.9-17.2
			c-18.2,0-32.9,15.2-32.9,33h247.7C247.7,118.9,232.9,103.7,214.8,103.7"/>
		<path class="st10" d="M141.4,83.2l0.7-0.7l1.2,1.2c0.2,0.2,0.6,0.5,0.8,0.2l1.1-1.1l-0.8-0.8c-0.2-0.2-0.2-0.4,0.1-0.6l1.2-1.2
			c0.2-0.2,0.4-0.3,0.7-0.1l0.8,0.8l0.9-0.9c0.2-0.2,0.2-0.8-0.1-1l-1.2-1.2l0.6-0.6c0.2-0.2,0.3-0.6,0-0.8l-1.3-1.3
			c-0.2-0.2-0.6-0.2-0.8,0l-0.6,0.6l-1.1-1.1c-0.2-0.2-0.7-0.2-0.9,0l-0.9,0.9l0.6,0.6c0.2,0.2,0.4,0.7,0.2,0.9l-1.2,1.2
			c-0.2,0.2-0.7,0-0.9-0.2l-0.6-0.6l-1.1,1.1c-0.2,0.2-0.1,0.5,0.1,0.7l1.1,1.1l-0.7,0.7c-0.2,0.2-0.2,0.6,0,0.8l1.3,1.3
			C140.8,83.4,141.2,83.4,141.4,83.2"/>
		<path class="st11" d="M140.7,74.4l-0.8-0.8l1.3-1.3c0.2-0.2,0.5-0.7,0.3-0.9l-1.1-1.1l-0.9,0.9c-0.2,0.2-0.3,0.2-0.5,0l-1.2-1.2
			c-0.2-0.2-0.4-0.4-0.2-0.6l0.9-0.9l-0.9-0.9c-0.2-0.2-0.8,0-1,0.2l-1.3,1.3l-0.7-0.7c-0.2-0.2-0.6-0.4-0.9-0.1l-1.3,1.3
			c-0.2,0.2-0.2,0.7,0.1,0.9l0.7,0.7l-1,1c-0.2,0.2-0.2,0.6,0,0.8L133,74l0.5-0.5c0.2-0.2,0.8-0.4,1-0.2l1.2,1.2
			c0.2,0.2-0.1,0.7-0.3,0.9l-0.5,0.5l1.1,1.1c0.2,0.2,0.4,0.2,0.7-0.1l1-1l0.8,0.8c0.2,0.2,0.6,0.2,0.8,0l1.3-1.3
			C141,75,140.9,74.7,140.7,74.4"/>
		<path class="st12" d="M142.7,78.3l0,1.5c0,0.1,0,0.2-0.1,0.2c-0.1,0.1-0.1,0.1-0.2,0.1l-1.5,0l0-0.7l1.2,0l0-1.2L142.7,78.3z"/>
		<rect x="139.6" y="74" transform="matrix(0.7072 -0.707 0.707 0.7072 -13.777 121.5953)" class="st12" width="0.7" height="6.9"/>
		<path class="st12" d="M138.5,71.7L138.5,71.7l1.5,0l0,0.7l-1.2,0l0,1.2l-0.7,0l0-1.5c0-0.1,0-0.2,0.1-0.2
			C138.3,71.8,138.4,71.7,138.5,71.7"/>
		
			<rect x="140.6" y="71" transform="matrix(0.707 -0.7072 0.7072 0.707 -11.3968 121.4817)" class="st12" width="0.7" height="6.9"/>
		<path class="st13" d="M155.9,42.7c-2.9,0-6.1,2.2-6.1,6c0,5.7,6.1,11.7,6.1,11.7s6.1-6.1,6.1-11.7C162,45,158.6,42.7,155.9,42.7
			 M157.4,51.3c-0.4,0.2-0.9,0.4-1.5,0.4c-0.8,0-1.5-0.3-1.9-0.7c-1.7-1.6-1.1-5.2,1.9-5.2C159.1,45.7,159.6,50,157.4,51.3"/>
		<path class="st4" d="M124.2,46.8c0,3.9-3.1,7-7,7c-3.9,0-7-3.1-7-7c0-3.9,3.1-7,7-7C121,39.8,124.2,42.9,124.2,46.8"/>
		<path class="st14" d="M122.6,46.8c0,3-2.5,5.5-5.5,5.5c-3,0-5.5-2.5-5.5-5.5c0-3,2.5-5.5,5.5-5.5
			C120.2,41.3,122.6,43.8,122.6,46.8"/>
		<path class="st4" d="M120.9,46.8c0,2.1-1.7,3.7-3.7,3.7s-3.7-1.7-3.7-3.7c0-2.1,1.7-3.7,3.7-3.7S120.9,44.8,120.9,46.8"/>
		<path class="st14" d="M118.9,46.8c0,1-0.8,1.7-1.7,1.7c-1,0-1.7-0.8-1.7-1.7c0-1,0.8-1.7,1.7-1.7
			C118.1,45.1,118.9,45.9,118.9,46.8"/>
		<path class="st15" d="M127.5,47.4h-10.4c-0.3,0-0.6-0.2-0.6-0.6c0-0.3,0.2-0.6,0.6-0.6h10.4c0.3,0,0.6,0.2,0.6,0.6
			C128.1,47.1,127.8,47.4,127.5,47.4"/>
		<polygon class="st15" points="127.3,46.7 129,45.6 131.2,45.6 130,46.8 131.2,48 129,48 127.3,47 		"/>
		<path class="st16" d="M215.4,81.7c-1.3,0-2.3-1.7-2.3-3.7c0-2.1,1.1-3.7,2.4-3.7c1.3,0,2.3,1.7,2.3,3.7
			C217.8,80,216.7,81.7,215.4,81.7"/>
		<path class="st16" d="M226.8,83.5c-1.5-0.9-3.2-3-2.5-4.9c1.5-4.5-2-6.1-3.7-6.4c-1.7-0.3-3.2,0.1-4.2,0.9
			c-1.6,1.2-1.1,3.4-0.2,5.1c-0.9,0.5-1.4,1.7-0.9,2.6c1.2,1.9,0.2,4.4-0.5,6c-1.1,2.4,0.4,5.5,3.2,6.9c2.7,1.4,6.3,1.2,9.1,0
			c1.4-0.6,2.6-1.5,3.2-2.7C231.6,88.2,229.7,85.1,226.8,83.5"/>
		<path class="st17" d="M207.9,100.5c-0.7,0.1-1.3,0.2-2.1,0.2c-0.5,0-1-0.4-1-0.9c0-0.5,0.4-1,0.9-1c3.4-0.1,5.9-1.1,7.5-2.9
			c2.4-2.8,2-6.8,2-6.8c-0.1-0.5,0.3-1,0.8-1.1c0.5-0.1,1,0.3,1.1,0.8c0,0.2,0.6,4.8-2.4,8.3C213.1,99,210.8,100.1,207.9,100.5"/>
		<path class="st10" d="M215.9,87.3c-0.9,0.1-1.5,1-1.4,1.8c0,0,0.4,3.7-1.8,6.3c-1.1,1.3-2.7,2.1-4.7,2.5c0.6,1,0.7,2.3,0.2,3.3
			c3-0.5,5.3-1.7,7-3.6c3.2-3.7,2.6-8.6,2.6-8.9C217.7,87.8,216.9,87.2,215.9,87.3"/>
		<path class="st17" d="M216.2,88.9c-0.5-0.2-0.9-1-0.3-1.7c0.6-0.7,1.5-1,2.4-1.1l0.2,0c0.8,0,1.6,0.3,2.1,0.9
			C220.3,88.3,217.5,89.4,216.2,88.9"/>
		<path class="st17" d="M217.8,84.2l0,1.1l0,2l1.6,0l0-2.6l0-1C218.9,84.1,218.4,84.3,217.8,84.2"/>
		<g class="st18">
			<g>
				<defs>
					<rect id="SVGID_5_" x="217.8" y="84" width="1.6" height="1.5"/>
				</defs>
				<clipPath id="SVGID_6_">
					<use xlink:href="#SVGID_5_"  style="overflow:visible;"/>
				</clipPath>
				<path class="st19" d="M217.8,84.5l0,1.1c0.6-0.1,1.2-0.3,1.6-0.7l0-0.8C218.9,84.3,218.4,84.5,217.8,84.5"/>
			</g>
		</g>
		<path class="st17" d="M218.2,85L218.2,85c1.5,0,2.8-0.7,3.6-1.8c0.6-0.8,0.9-1.7,0.9-2.7l0-1.8c0-1.3-0.6-2.5-1.4-3.3
			c-0.8-0.8-1.9-1.2-3.1-1.2c-0.8,0-1.5,0.2-2.2,0.6c-1.4,0.8-2.3,2.3-2.3,4l0,1.8c0,1.6,0.9,3.1,2.2,3.8
			C216.5,84.8,217.3,85.1,218.2,85"/>
		<path class="st20" d="M214.8,99.8c-0.5,2.3,0.9,4.6,3.2,5.1c2.3,0.5,4.6-0.9,5.1-3.2s-0.9-4.6-3.2-5.1
			C217.6,96,215.3,97.5,214.8,99.8"/>
		<path class="st21" d="M217.9,82.7c-0.1,0.6-0.6,1-1.2,1c-0.6,0-1.1-0.4-1.2-1L217.9,82.7z"/>
		<path class="st10" d="M213.9,89.6c-0.3,0.8,0.5,1.6,1.4,1.7c0.9,0.1,1.6-0.5,1.7-1.4c0.1-0.9-1.2-2.7-1.7-2
			C214.9,88.6,214.2,88.9,213.9,89.6"/>
		<path class="st10" d="M220.7,87.1c0.4,0.4,0.6,1,0.6,1.6c0,0-0.4,7.1,1.5,10.3l-8.2,0.7l0.2-9.8c0-1,0.3-2,1-2.7
			C215.9,88.8,219.2,86.9,220.7,87.1"/>
		<path class="st16" d="M215.2,118.6c-0.8,0-1.1,0.7-1.2,0.9c-0.4,1.1-0.2,2.3-0.9,4.1c-0.5,1.3-1,1.5-1.3,2.6
			c-0.3,0.9,0.5,1.2,1.3,0.9c0.3-0.1,2.3-0.6,2.4-2.2c0-1.2-0.1-2.1,0.3-3.1c0.4-1,0.7-0.4,0.8-0.1c0.1,0.2,0.4,0.8,0.4,1
			c0,0.1,0.1,0.1,0.2,0.1l0,0c0.1,0,0.1-0.1,0.1-0.2c-0.1-0.2-0.3-1-0.4-2C216.7,119.3,215.8,118.5,215.2,118.6"/>
		<path class="st17" d="M214.4,124.1c0.4-0.9,0.9-3.8,0.7-4.4c-0.3-0.7-1.8-0.8-1.9-0.1c-0.2,1.1,0.3,3.2-0.6,5.3
			C212.6,125.4,213.9,125.2,214.4,124.1"/>
		<path class="st20" d="M220.3,104.7l-10.1,4.7l1-2.3l3.7,12.2c0.2,0.7-0.2,1.5-0.9,1.7c-0.7,0.2-1.4-0.2-1.7-0.8l-4.6-11.9
			c-0.3-0.9,0.1-1.8,0.9-2.2l0.1,0l10.1-4.8c1-0.5,2.1-0.1,2.6,0.9C221.7,103.1,221.3,104.2,220.3,104.7
			C220.3,104.7,220.3,104.7,220.3,104.7"/>
		<path class="st16" d="M208.4,114.8c-0.7-0.3-1.4,0.1-1.5,0.3c-0.8,0.8-1.3,1.9-2.8,3.2c-1,0.9-1.6,0.9-2.4,1.7
			c-0.7,0.7-0.1,1.3,0.8,1.4c0.3,0,2.4,0.5,3.1-0.9c0.6-1,0.9-1.9,1.7-2.6c0.8-0.7,0.8-0.1,0.8,0.3c0,0.2-0.1,0.9-0.1,1.1
			c0,0.1,0.1,0.1,0.1,0.2l0,0c0.1,0,0.2-0.1,0.2-0.1c0-0.3,0.2-1,0.6-2C209.4,116.2,209,115.1,208.4,114.8"/>
		<path class="st17" d="M205.1,119.3c0.8-0.6,2.6-2.9,2.7-3.6c0.1-0.8-1.3-1.6-1.7-1c-0.7,0.9-1.2,2.9-3,4.4
			C202.9,119.6,204.1,120,205.1,119.3"/>
		<path class="st20" d="M219.6,105l-11.1-0.6l1.9-1.6l-2.4,12.5c-0.1,0.8-0.9,1.3-1.6,1.1c-0.7-0.1-1.2-0.8-1.1-1.5l1.5-12.6
			c0.1-0.9,0.9-1.6,1.8-1.6l0.1,0l11.2,0.4c1.1,0,1.9,0.9,1.8,2C221.5,104.2,220.7,105,219.6,105C219.6,105,219.6,105,219.6,105"/>
		<path class="st17" d="M220.4,100.7c-0.5,0.1-1,0.1-1.6,0.2c-0.5,0-1-0.4-1-0.9c0-0.5,0.4-1,0.9-1c1.8-0.1,4-0.6,4.6-2
			c0.9-2.3-2.2-6.4-3.4-7.6c-0.4-0.4-0.3-1,0.1-1.4c0.4-0.4,1-0.3,1.4,0.1c0.5,0.6,5.3,5.9,3.7,9.6
			C224.4,99.3,222.8,100.3,220.4,100.7"/>
		<path class="st10" d="M221.8,87.6c-0.4-0.4-0.9-0.6-1.5-0.5c-0.4,0.1-0.7,0.3-1,0.5c-0.6,0.6-0.5,1.6,0.1,2.3
			c1.3,1.5,3.9,5.1,3.2,6.8c-0.1,0.3-0.4,0.5-0.7,0.7c-0.6,0.4-0.9,1-0.8,1.7c0,0,0,0,0,0c0.2,1.1,1.4,1.7,2.4,1.1
			c1-0.6,1.8-1.4,2.2-2.4C227.3,93.9,222.8,88.6,221.8,87.6"/>
		<path class="st17" d="M214.7,99.8c0,0.6,0.3,1.1,0.7,1.4l3.5-0.3c0.3-0.4,0.5-1,0.4-1.5c-0.1-1.3-1.2-2.2-2.5-2.1
			C215.6,97.4,214.6,98.5,214.7,99.8"/>
		<path class="st17" d="M202.8,100.2c0,0.6,0.2,1.1,0.6,1.5l3.5-0.1c0.3-0.4,0.5-0.9,0.5-1.5c-0.1-1.3-1.1-2.3-2.4-2.2
			C203.7,97.9,202.8,99,202.8,100.2"/>
		<path class="st16" d="M223.4,77.8c-0.5,1.4-2.8,2-5.1,1.2c-2.3-0.8-3.8-2.6-3.3-4.1s2.8-2,5.1-1.2
			C222.5,74.5,223.9,76.3,223.4,77.8"/>
		<path class="st20" d="M221,101.1c0-0.3-0.3-0.6-0.6-0.6h-20.9c-0.4,0-0.8,0.3-0.8,0.6c0,0.3,0.4,0.6,0.8,0.6h20.9
			C220.8,101.7,221,101.4,221,101.1"/>
		<path class="st4" d="M221.8,101.1c0,0.3-0.3,0.6-0.6,0.6h-7.9c-0.3,0-0.6-0.3-0.6-0.6c0-0.3,0.3-0.6,0.6-0.6h7.9
			C221.6,100.5,221.8,100.8,221.8,101.1"/>
		<path class="st4" d="M198.8,89.7v10.5c0,0.5,0.4,0.8,0.8,0.8h13.9c0.5,0,0.8-0.4,0.8-0.8V89.7c0-0.5-0.4-0.8-0.8-0.8h-13.9
			C199.2,88.9,198.8,89.3,198.8,89.7"/>
		<path class="st16" d="M198.2,89.7v10.5c0,0.5,0.4,0.8,0.8,0.8h13.9c0.5,0,0.8-0.4,0.8-0.8V89.7c0-0.5-0.4-0.8-0.8-0.8H199
			C198.6,88.9,198.2,89.3,198.2,89.7"/>
		<path class="st4" d="M208.3,95L208.3,95c0-0.5-0.4-0.9-0.9-0.9h-2.8c-0.5,0-0.9,0.4-0.9,0.9c0,0.5,0.4,0.9,0.9,0.9h2.8
			C207.9,95.9,208.3,95.5,208.3,95"/>
		<path class="st22" d="M116.4,100.1c-0.5,0-1-0.2-1.3-0.6l-5.4-7.4c-0.4-0.6-0.4-1.4,0.1-1.9l7-8.5c0.5-0.7,1.5-0.8,2.2-0.2
			c0.7,0.5,0.8,1.5,0.2,2.2l-6.3,7.6l4.7,6.4c0.5,0.7,0.4,1.7-0.3,2.2C117,100,116.7,100.1,116.4,100.1"/>
		<path class="st22" d="M126.7,100.1c-0.3,0-0.6-0.1-0.9-0.3c-0.7-0.5-0.8-1.5-0.3-2.2l4.7-6.4l-6.2-7.6c-0.5-0.7-0.5-1.6,0.2-2.2
			c0.7-0.5,1.6-0.4,2.2,0.2l7,8.5c0.4,0.5,0.5,1.3,0.1,1.9l-5.4,7.4C127.7,99.8,127.2,100.1,126.7,100.1"/>
		<path class="st23" d="M126.2,72.9c0,2.5-2,4.5-4.5,4.5c-2.5,0-4.5-2-4.5-4.5s2-4.5,4.5-4.5C124.2,68.4,126.2,70.4,126.2,72.9"/>
		<polygon class="st17" points="123.4,77.6 123.3,81.9 123.3,84.7 120.1,84.7 120.2,77.9 120.3,75.9 		"/>
		<path class="st22" d="M116.9,84.3c0-1.3,1.2-2.6,2.4-3.2c1.8-0.9,4.5-0.3,5.4,0.2c1.5,0.9,2.4,2.7,2.3,4.5l0.1,9.9h-10.6
			C116.4,95.8,116.8,87.3,116.9,84.3"/>
		<path class="st24" d="M121.9,87.3c0.8-2.4,1.6-4,2.4-6.2c-2.3-0.9-4.6-0.4-5.1,0c0.8,2.1,1.6,3.8,2.4,6.2c0,0.2,0.2,0.4,0.2,0.4
			c0,0,0,0,0,0C121.7,87.7,121.8,87.5,121.9,87.3"/>
		<polygon class="st12" points="122,81.3 121.7,81.3 121.4,81.3 120.9,84.5 121.3,86.5 121.7,87.8 122.2,86.5 122.5,84.5 		"/>
		<path class="st25" d="M122.6,69.4h-1.7c-1.5,0-2.9,1.2-2.7,2.7c0.1,1.1,0,1.9,0,3.5c0,1.4,1.6,4,2.9,4h1.3c1.4,0,2.9-2.6,2.9-4
			c0-1.6-0.1-2.4,0-3.5C125.5,70.7,124.1,69.4,122.6,69.4"/>
		<path class="st21" d="M120.3,77.3c0.1,0.7,0.7,1.1,1.4,1.1c0.7,0,1.3-0.5,1.4-1.1H120.3z"/>
		<path class="st20" d="M123.4,105.3H120c-2.4,0-4.3-2.2-3.8-4.6l0.2-4.9H127l0.2,4.9C127.7,103.1,125.9,105.3,123.4,105.3"/>
		<path class="st12" d="M128.6,101.9h-13.4c-0.6,0-1.1-0.5-1.1-1v-7.5c0-0.6,0.5-1.1,1.1-1.1h13.4c0.6,0,1,0.5,1,1.1v7.5
			C129.7,101.5,129.2,101.9,128.6,101.9"/>
		<path class="st4" d="M128.6,102.4h-13.4c-0.6,0-1.1-0.5-1.1-1.1v-7.5c0-0.6,0.5-1.1,1.1-1.1h13.4c0.6,0,1,0.5,1,1.1v7.5
			C129.7,101.9,129.2,102.4,128.6,102.4"/>
		<path class="st12" d="M123.5,98.4h-3.1c-0.4,0-0.8-0.4-0.8-0.8v0c0-0.4,0.4-0.8,0.8-0.8h3.1c0.4,0,0.8,0.4,0.8,0.8v0
			C124.3,98,123.9,98.4,123.5,98.4"/>
		<path class="st11" d="M122.1,81.5c-0.2,0.1-0.7,0.1-0.9,0c-0.1-0.1-0.2-0.8-0.2-0.8l1.3,0C122.4,80.7,122.3,81.4,122.1,81.5"/>
		<polygon class="st4" points="120.3,82.3 119.2,81 120.1,79.8 121.7,80.7 		"/>
		<polygon class="st4" points="123.1,82.3 124.2,81 123.3,79.8 121.7,80.7 		"/>
		<path class="st22" d="M123.6,116.9l0.9-3.4l-0.1,0c-0.2,0-0.4-0.2-0.3-0.4c0-0.2,0.2-0.3,0.3-0.3l0.2,0l0.1-0.4l-0.1,0
			c-0.2,0-0.4-0.2-0.3-0.4c0-0.2,0.2-0.3,0.3-0.3l0.3,0l0.6-2.1c0,0,0.1-0.1,0.1-0.1c0-0.1,0.1-0.2,0.1-0.2c0.6-0.9,1.8-1.2,2.7-0.7
			c0.9,0.6,1.2,1.8,0.7,2.7c0,0,0,0,0,0c0,0,0,0,0,0l-3.9,6.4c-0.1,0.1-0.1,0.2-0.3,0.2C124.2,118.4,123.3,117.7,123.6,116.9"/>
		<path class="st15" d="M125.9,111.9c0.9,0.6,2.1,0.3,2.7-0.7c0.6-0.9,0.3-2.1-0.7-2.7c-0.9-0.6-2.1-0.3-2.7,0.7
			C124.7,110.1,125,111.3,125.9,111.9"/>
		<path class="st16" d="M124.7,117.6l3.9-6.4c0.4-0.7,0.2-1.5-0.5-2c-0.7-0.4-2.7-0.4-3.1,0.2l-1.9,7.3c-0.2,0.8,0.7,1.5,1.4,1.1
			C124.6,117.8,124.6,117.7,124.7,117.6"/>
		<path class="st4" d="M125.3,112.1L125.3,112.1c0-0.2-0.1-0.4-0.3-0.4l-0.8,0c-0.2,0-0.3,0.1-0.3,0.3c0,0.2,0.1,0.4,0.3,0.4l0.8,0
			C125.1,112.4,125.2,112.3,125.3,112.1"/>
		<path class="st4" d="M125,113.2L125,113.2c0-0.2-0.1-0.4-0.3-0.4l-0.8,0c-0.2,0-0.3,0.1-0.3,0.3c0,0.2,0.1,0.4,0.3,0.4l0.8,0
			C124.9,113.4,125,113.3,125,113.2"/>
		<path class="st20" d="M116.5,99.8l11.8,8.4l-3.7,3.2l-10.6-8.1c-1-0.7-1.2-2-0.5-3l0,0C114.2,99.3,115.5,99.1,116.5,99.8"/>
		<path class="st22" d="M122.8,122.4l0.2-3.5l0.1,0c0.2,0.1,0.4-0.1,0.4-0.3c0-0.2-0.1-0.3-0.2-0.3l-0.2-0.1l0-0.4l0.1,0
			c0.2,0.1,0.4-0.1,0.4-0.3c0-0.2-0.1-0.3-0.2-0.3l-0.2-0.1l0.1-2.2c0,0,0-0.1-0.1-0.1c0-0.1,0-0.2,0-0.3c-0.2-1.1-1.3-1.7-2.3-1.5
			c-1.1,0.2-1.7,1.3-1.5,2.3c0,0,0,0,0,0c0,0,0,0,0,0l1.6,7.3c0,0.1,0.1,0.2,0.2,0.3C121.7,123.6,122.7,123.2,122.8,122.4"/>
		<path class="st22" d="M122.2,116.9c-1.1,0.2-2.1-0.4-2.3-1.5c-0.2-1.1,0.4-2.1,1.5-2.3c1.1-0.2,2.1,0.4,2.3,1.5
			C123.9,115.6,123.2,116.7,122.2,116.9"/>
		<path class="st16" d="M121.5,122.7l-1.6-7.3c-0.2-0.8,0.3-1.5,1.1-1.7c0.8-0.2,2.7,0.4,2.8,1.2l-0.5,7.5c-0.1,0.8-1.1,1.2-1.6,0.6
			C121.5,122.9,121.5,122.8,121.5,122.7"/>
		<path class="st4" d="M122.7,117.3L122.7,117.3c0-0.2,0.2-0.3,0.4-0.3l0.7,0.2c0.2,0,0.3,0.2,0.2,0.3c0,0.2-0.2,0.3-0.4,0.3
			l-0.7-0.2C122.8,117.6,122.7,117.5,122.7,117.3"/>
		<path class="st4" d="M122.6,118.4L122.6,118.4c0-0.2,0.2-0.3,0.4-0.3l0.7,0.2c0.2,0,0.3,0.2,0.2,0.3c0,0.2-0.2,0.3-0.4,0.3
			l-0.7-0.2C122.7,118.7,122.6,118.5,122.6,118.4"/>
		<path class="st20" d="M125,101.6l-5.6,13.4l4.5,0.5l5.1-12.2c0.5-1.1-0.1-2.4-1.2-2.8l0,0C126.7,100,125.5,100.5,125,101.6"/>
		<path class="st23" d="M121.5,71.3c2.3-1.3,3.9,0,4.5,1.3c-0.4-2.1-2.2-3.7-4.4-3.7c-2.1,0-3.9,1.5-4.3,3.4
			C118.8,72.7,120.1,72.1,121.5,71.3"/>
		<path class="st4" d="M179.2,70.3c-1.9,0-3.8-0.7-5.3-2c-2.2-2-5.8-2-8,0c-0.4,0.3-1,0.3-1.3,0c-0.4-0.4-0.3-1,0-1.3
			c2.9-2.7,7.6-2.7,10.5,0c2.2,2,5.8,2,8,0c2.9-2.7,7.6-2.7,10.5,0c2.2,2,5.8,2,8,0c2.9-2.7,7.6-2.7,10.5,0c0.4,0.4,0.4,0.9,0,1.3
			c-0.4,0.4-0.9,0.4-1.3,0c-2.2-2-5.8-2-8,0c-2.9,2.7-7.6,2.7-10.5,0c-2.2-2-5.8-2-8,0C183,69.6,181.1,70.3,179.2,70.3"/>
		<path class="st4" d="M127.5,30.9c-1.3,0-2.6-0.5-3.5-1.4c-1.5-1.4-3.9-1.4-5.3,0c-0.3,0.2-0.7,0.2-0.9,0c-0.2-0.3-0.2-0.6,0-0.9
			c1.9-1.8,5.1-1.8,7,0c1.5,1.4,3.9,1.4,5.3,0c1.9-1.8,5.1-1.8,7,0c1.5,1.4,3.9,1.4,5.3,0c1.9-1.8,5.1-1.8,7,0
			c0.3,0.2,0.3,0.6,0,0.9c-0.2,0.3-0.6,0.3-0.9,0c-1.5-1.4-3.9-1.4-5.3,0c-1.9,1.8-5.1,1.8-7.1,0c-1.5-1.4-3.9-1.4-5.3,0
			C130,30.5,128.8,30.9,127.5,30.9"/>
		<path class="st26" d="M52.4,11.3c-0.4-0.6,0.1-1.6-0.2-2.8c-1-3.5,0.2-5.1,0.2-5.1c0-1.3,1.1-2.4,2.7-3C55.8,0.2,56.7,0,57.6,0
			c1.4,0,2.7,0.3,3.7,0.9c1,0.6,1.8,1.5,1.7,2.5C63,4.1,62.2,5,63,6.2c1.9,2.9,1.1,4.6,0.1,5.1c-0.9,0.5-2,0.5-2.5,0.8
			C57.7,13.7,53.8,13.4,52.4,11.3"/>
		<path class="st25" d="M43.7,24.3c-0.6-0.1-1.3-0.2-2-0.3c-0.5-0.1-0.8-0.6-0.7-1.1c0.1-0.5,0.6-0.8,1.1-0.7
			c3.2,0.7,5.8,0.4,7.7-0.9c3-2.1,3.5-5.9,3.5-5.9c0.1-0.5,0.5-0.9,1-0.8c0.5,0.1,0.9,0.5,0.8,1c0,0.2-0.7,4.7-4.3,7.2
			C48.9,24.1,46.5,24.6,43.7,24.3"/>
		<path class="st20" d="M52.9,16.7c-0.2,0-0.4,0-0.5,0.1c0.3-0.9,0.4-1.5,0.4-1.5c0.1-0.7,0.7-1.3,1.5-1.3c0.1,0,0.1,0,0.2,0
			c0.8,0.1,1.4,0.8,1.3,1.7c0,0.1-0.2,1.2-0.7,2.6C54.7,17.3,54,16.7,52.9,16.7"/>
		<path class="st25" d="M54.7,15.9c-0.5-0.2-0.9-1-0.3-1.6c0.6-0.7,1.4-1,2.4-1l0.2,0c0.8,0,1.6,0.3,2.1,0.9
			C58.6,15.3,56,16.4,54.7,15.9"/>
		<path class="st17" d="M56.2,11.4l0,1.1l0,2l1.5,0l0-2.5l0-1C57.3,11.2,56.8,11.4,56.2,11.4"/>
		<g class="st18">
			<g>
				<defs>
					<rect id="SVGID_7_" x="56.2" y="11.2" width="1.5" height="1.5"/>
				</defs>
				<clipPath id="SVGID_8_">
					<use xlink:href="#SVGID_7_"  style="overflow:visible;"/>
				</clipPath>
				<path class="st27" d="M56.2,11.6l0,1.1c0.5-0.1,1.2-0.3,1.5-0.7l0-0.8C57.3,11.5,56.8,11.6,56.2,11.6"/>
			</g>
		</g>
		<path class="st25" d="M56.6,12.1L56.6,12.1c1.4,0,2.7-0.7,3.5-1.8C60.7,9.6,61,8.7,61,7.7l0-1.7c0-1.3-0.6-2.4-1.4-3.2
			c-0.8-0.7-1.9-1.2-3-1.2c-0.8,0-1.5,0.2-2.1,0.6C53,3,52.1,4.4,52.2,6.1l0,1.7c0,1.6,0.9,3,2.1,3.7C55,11.9,55.8,12.2,56.6,12.1"
			/>
		<path class="st22" d="M51.9,26.4c-0.5,2.2,2.3,4.5,4.5,5c2.2,0.5,4.5-0.9,5-3.1c0.5-2.2-0.9-4.5-3.1-5
			C56,22.8,52.4,24.2,51.9,26.4"/>
		<path class="st21" d="M56.3,9.9c-0.1,0.5-0.6,1-1.1,1c-0.6,0-1.1-0.4-1.2-0.9L56.3,9.9z"/>
		<path class="st20" d="M52.2,16.9c-0.3,0.8,0.5,1.7,1.3,1.8c0.8,0.1,1.8-1,1.9-1.8c0.1-0.8-1.1-2.7-1.6-2
			C53.4,15.6,52.4,16.2,52.2,16.9"/>
		<path class="st20" d="M59,14.1c0.4,0.4,0.6,1,0.6,1.6c0,0-1.4,6.5,1.5,10c0,0-5.2,3.1-9.3,1c0-3,1.8-5,1.5-9.8
			c-0.1-1,0.3-1.9,1-2.6C54.4,15.8,57.6,14,59,14.1"/>
		<path class="st16" d="M53.4,45.1c-0.7-0.1-1.2,0.5-1.3,0.7c-0.5,1-0.6,2.1-1.6,3.8c-0.7,1.1-1.2,1.3-1.7,2.2
			c-0.4,0.8,0.3,1.2,1.1,1.1c0.3-0.1,2.3-0.2,2.6-1.7c0.2-1.1,2-1.5,2.1-1.9c0-0.2-0.1-1,0-2C54.7,46.1,54,45.2,53.4,45.1"/>
		<path class="st17" d="M51.7,50.3c0.6-0.8,1.5-3.5,1.4-4.1c-0.2-0.8-1.6-1.1-1.8-0.5c-0.4,1.1-0.2,3.1-1.5,5
			C49.7,51.2,51,51.2,51.7,50.3"/>
		<path class="st16" d="M30.4,34.8c0.5-0.5,0.3-1.3,0.2-1.5c-0.5-1-1.3-1.8-2.1-3.6c-0.5-1.2-0.3-1.7-0.8-2.7
			c-0.4-0.8-1.2-0.5-1.5,0.3c-0.1,0.3-1.2,2-0.2,3.2c0.8,0.8,0,2.5,0.3,2.8c0.2,0.2,0.9,0.5,1.6,1.2C28.8,35.2,30,35.2,30.4,34.8"/>
		<path class="st17" d="M27.3,30.3c0.3,0.9,1.9,3.3,2.5,3.6c0.7,0.3,1.8-0.7,1.5-1.2c-0.6-0.9-2.3-2-3.1-4.2
			C27.7,28.2,27,29.2,27.3,30.3"/>
		<path class="st22" d="M47.6,32.5L47.6,32.5l9.9-4.6c0.9-0.4,2,0,2.5,0.9c0.4,0.9,0,2-0.9,2.5c0,0,0,0,0,0l-8.5,3.8l3,10.3L51,46.2
			l-4.3-11.6C46.3,33.8,46.7,32.8,47.6,32.5"/>
		<path class="st25" d="M56.6,26.8c-0.5,0-1,0-1.5-0.1c-0.5-0.1-0.9-0.5-0.8-1c0.1-0.5,0.5-0.9,1-0.8c1.7,0.2,3.9,0.1,4.7-1.2
			c1.2-2-1.1-6.4-2-7.8c-0.3-0.4-0.2-1,0.3-1.3c0.4-0.3,1-0.2,1.3,0.3c0.4,0.7,4.1,6.5,2,9.8C60.7,26.1,59,26.8,56.6,26.8"/>
		<path class="st26" d="M61.4,6.5c0,0-3.1,1.1-5.1-0.2c-1.9-1.4-2.8-3.4-2-4.7c0.9-1.2,3.1-1.1,5.1,0.2C61.4,3.1,61.4,6.5,61.4,6.5"
			/>
		<path class="st22" d="M57.6,27.5c0,0-1.7,0-4.3,0.2c-1.3,0.1-2.8,0.1-4.4,0.2c-1.6,0.1-3.3,0.2-5.1,0.3l-0.6,0l-0.2,0l0,0l-0.2,0
			l-0.1,0l-0.3,0l-0.6,0.1l0,0l-0.2,0l0,0l-0.1,0l-0.2,0L41,28.5c-0.8,0.2-1.6,0.4-2.4,0.6c-0.8,0.2-1.5,0.4-2.3,0.6
			c-0.7,0.2-1.4,0.4-2,0.5c-1.3,0.3-2.3,0.6-3,0.8c-0.7,0.2-1.1,0.3-1.1,0.3l0.5,2.3c0,0,0.4-0.1,1.2-0.2c0.7-0.1,1.8-0.3,3.1-0.5
			c0.6-0.1,1.3-0.2,2.1-0.4c0.7-0.1,1.5-0.3,2.3-0.4c0.8-0.2,1.6-0.3,2.4-0.5l0.3-0.1l0.2,0l0.1,0l0,0c0,0-0.3,0-0.1,0l0,0l0,0
			l0.6-0.1l0.3,0l0.1,0h0c0,0-0.3,0-0.1,0l0,0l0,0l0.2,0l0.6,0c1.7-0.1,3.4-0.1,5.1-0.2c1.6-0.1,3.1-0.2,4.4-0.2
			c2.6-0.1,4.3-0.3,4.3-0.3L57.6,27.5z"/>
		<path class="st20" d="M57,28.6c0-0.3-0.3-0.6-0.6-0.6H36.2c-0.4,0-0.8,0.3-0.8,0.6c0,0.3,0.3,0.6,0.8,0.6h20.3
			C56.8,29.1,57,28.9,57,28.6"/>
		<path class="st28" d="M57.8,28.6c0,0.3-0.3,0.6-0.6,0.6h-7.7c-0.3,0-0.6-0.3-0.6-0.6c0-0.3,0.3-0.6,0.6-0.6h7.7
			C57.5,28,57.8,28.3,57.8,28.6"/>
		<path class="st28" d="M35.4,17.5v10.2c0,0.5,0.4,0.8,0.8,0.8h13.5c0.5,0,0.8-0.4,0.8-0.8V17.5c0-0.5-0.4-0.8-0.8-0.8H36.3
			C35.8,16.7,35.4,17.1,35.4,17.5"/>
		<path class="st28" d="M34.8,17.5v10.2c0,0.5,0.4,0.8,0.8,0.8h13.5c0.5,0,0.8-0.4,0.8-0.8V17.5c0-0.5-0.4-0.8-0.8-0.8H35.6
			C35.2,16.7,34.8,17.1,34.8,17.5"/>
		<path class="st14" d="M44.6,22.6L44.6,22.6c0-0.5-0.4-0.9-0.9-0.9H41c-0.5,0-0.9,0.4-0.9,0.9c0,0.5,0.4,0.9,0.9,0.9h2.7
			C44.2,23.5,44.6,23.1,44.6,22.6"/>
		<path class="st20" d="M60.6,16.5c-1.1,0-1.8,0.6-2.1,1.4c-0.3-0.7-0.7-1.3-1-1.7c-0.4-0.7-0.3-1.6,0.4-2c0.2-0.2,0.5-0.2,0.8-0.2
			c0.5,0,1,0.3,1.2,0.7c0.2,0.3,0.7,1.1,1.1,2C61,16.5,60.8,16.5,60.6,16.5"/>
		<path class="st25" d="M51,25.1c-0.2,0.5-0.2,1.1-0.1,1.5l3.1,1.4c0.5-0.2,0.8-0.6,1.1-1.1c0.5-1.1,0-2.5-1.1-3
			C52.9,23.4,51.5,23.9,51,25.1"/>
		<path class="st5" d="M182,78.2l-5.1,3.5c-0.2,0-0.3,0.1-0.4,0.3c-0.1,0.1-0.1,0.3-0.1,0.4c0,0.1,0,0.3,0.1,0.4
			c0.1,0.1,0.3,0.2,0.4,0.3l5.1,3.5c0.3,0.2,0.7,0.1,0.8-0.2c0.2-0.3,0.1-0.7-0.2-0.8l-4.6-3.2l4.6-3.2c0.3-0.2,0.3-0.6,0.2-0.8
			C182.7,78.1,182.3,78,182,78.2"/>
		<path class="st5" d="M187.5,78.2l-5.1,3.5c-0.2,0-0.3,0.1-0.4,0.3c-0.1,0.1-0.1,0.3-0.1,0.4c0,0.1,0,0.3,0.1,0.4
			c0.1,0.1,0.3,0.2,0.4,0.3l5.1,3.5c0.3,0.2,0.7,0.1,0.8-0.2c0.2-0.3,0.1-0.7-0.2-0.8l-4.6-3.2l4.6-3.2c0.3-0.2,0.3-0.6,0.2-0.8
			C188.1,78.1,187.7,78,187.5,78.2"/>
		<path class="st5" d="M192.9,78l-5.1,3.5c-0.2,0-0.3,0.1-0.4,0.3c-0.1,0.1-0.1,0.3-0.1,0.4c0,0.1,0,0.3,0.1,0.4
			c0.1,0.1,0.3,0.2,0.4,0.3l5.1,3.5c0.3,0.2,0.7,0.1,0.8-0.2c0.2-0.3,0.1-0.7-0.2-0.8l-4.6-3.2l4.6-3.2c0.3-0.2,0.3-0.6,0.2-0.8
			C193.6,77.9,193.2,77.8,192.9,78"/>
		<path class="st5" d="M198.3,78l-5.1,3.5c-0.2,0-0.3,0.1-0.4,0.3c-0.1,0.1-0.1,0.3-0.1,0.4c0,0.1,0,0.3,0.1,0.4
			c0.1,0.1,0.3,0.2,0.4,0.3l5.1,3.5c0.3,0.2,0.7,0.1,0.8-0.2c0.2-0.3,0.1-0.7-0.2-0.8l-4.6-3.2L199,79c0.3-0.2,0.3-0.6,0.2-0.8
			C199,77.9,198.6,77.8,198.3,78"/>
		<path class="st5" d="M168.4,50.3l-3.7,2.5c-0.1,0-0.2,0.1-0.3,0.2c-0.1,0.1-0.1,0.2-0.1,0.3c0,0.1,0,0.2,0.1,0.3
			c0.1,0.1,0.2,0.2,0.3,0.2l3.7,2.5c0.2,0.1,0.5,0.1,0.6-0.1c0.1-0.2,0.1-0.5-0.1-0.6l-3.3-2.3l3.3-2.3c0.2-0.1,0.2-0.4,0.1-0.6
			C168.9,50.2,168.6,50.2,168.4,50.3"/>
		<path class="st5" d="M172.4,50.3l-3.7,2.5c-0.1,0-0.2,0.1-0.3,0.2c-0.1,0.1-0.1,0.2-0.1,0.3c0,0.1,0,0.2,0.1,0.3
			c0.1,0.1,0.2,0.2,0.3,0.2l3.7,2.5c0.2,0.1,0.5,0.1,0.6-0.1c0.1-0.2,0.1-0.5-0.1-0.6l-3.3-2.3l3.3-2.3c0.2-0.1,0.2-0.4,0.1-0.6
			C172.8,50.2,172.6,50.2,172.4,50.3"/>
		<path class="st5" d="M176.3,50.1l-3.7,2.5c-0.1,0-0.2,0.1-0.3,0.2c-0.1,0.1-0.1,0.2-0.1,0.3c0,0.1,0,0.2,0.1,0.3
			c0.1,0.1,0.2,0.2,0.3,0.2l3.7,2.5c0.2,0.1,0.5,0.1,0.6-0.1c0.1-0.2,0.1-0.5-0.1-0.6l-3.3-2.3l3.3-2.3c0.2-0.1,0.2-0.4,0.1-0.6
			C176.8,50,176.5,50,176.3,50.1"/>
		<path class="st5" d="M180.2,50.1l-3.7,2.5c-0.1,0-0.2,0.1-0.3,0.2c-0.1,0.1-0.1,0.2-0.1,0.3c0,0.1,0,0.2,0.1,0.3
			c0.1,0.1,0.2,0.2,0.3,0.2l3.7,2.5c0.2,0.1,0.5,0.1,0.6-0.1c0.1-0.2,0.1-0.5-0.1-0.6l-3.3-2.3l3.3-2.3c0.2-0.1,0.2-0.4,0.1-0.6
			C180.7,50,180.4,50,180.2,50.1"/>
		<path class="st14" d="M87.5,21.7l3.7-2.5c0.1,0,0.2-0.1,0.3-0.2c0.1-0.1,0.1-0.2,0.1-0.3c0-0.1,0-0.2-0.1-0.3
			c-0.1-0.1-0.2-0.2-0.3-0.2l-3.7-2.5c-0.2-0.1-0.5-0.1-0.6,0.1c-0.1,0.2-0.1,0.5,0.1,0.6l3.3,2.3L87,21c-0.2,0.1-0.2,0.4-0.1,0.6
			C87.1,21.8,87.3,21.8,87.5,21.7"/>
		<path class="st14" d="M83.6,21.7l3.7-2.5c0.1,0,0.2-0.1,0.3-0.2c0.1-0.1,0.1-0.2,0.1-0.3c0-0.1,0-0.2-0.1-0.3
			c-0.1-0.1-0.2-0.2-0.3-0.2l-3.7-2.5c-0.2-0.1-0.5-0.1-0.6,0.1c-0.1,0.2-0.1,0.5,0.1,0.6l3.3,2.3L83.1,21c-0.2,0.1-0.2,0.4-0.1,0.6
			C83.2,21.8,83.4,21.8,83.6,21.7"/>
		<path class="st14" d="M79.7,21.8l3.7-2.5c0.1,0,0.2-0.1,0.3-0.2c0.1-0.1,0.1-0.2,0.1-0.3c0-0.1,0-0.2-0.1-0.3
			c-0.1-0.1-0.2-0.2-0.3-0.2l-3.7-2.5c-0.2-0.1-0.5-0.1-0.6,0.1c-0.1,0.2-0.1,0.5,0.1,0.6l3.3,2.3l-3.3,2.3
			c-0.2,0.1-0.2,0.4-0.1,0.6C79.2,21.9,79.5,22,79.7,21.8"/>
		<path class="st14" d="M75.8,21.8l3.7-2.5c0.1,0,0.2-0.1,0.3-0.2c0.1-0.1,0.1-0.2,0.1-0.3c0-0.1,0-0.2-0.1-0.3
			c-0.1-0.1-0.2-0.2-0.3-0.2l-3.7-2.5c-0.2-0.1-0.5-0.1-0.6,0.1c-0.1,0.2-0.1,0.5,0.1,0.6l3.3,2.3l-3.3,2.3
			c-0.2,0.1-0.2,0.4-0.1,0.6C75.3,21.9,75.6,22,75.8,21.8"/>
		<path class="st13" d="M109.2,6.8c2.5,0,4.7,1.4,5.7,3.5c0.6-0.3,1.3-0.5,2.1-0.5c2,0,3.7,1.2,4.5,2.9c0.7-0.6,1.6-1,2.6-1
			c2.1,0,3.9,1.7,3.9,3.9c0,2.1-1.7,3.9-3.9,3.9h-14.8c-3.5,0-6.4-2.8-6.4-6.4C102.9,9.7,105.7,6.8,109.2,6.8"/>
		<path class="st13" d="M176.9,24.2c-2.5,0-4.7,1.4-5.7,3.5c-0.6-0.3-1.3-0.5-2.1-0.5c-2,0-3.7,1.2-4.5,2.9c-0.7-0.6-1.6-1-2.6-1
			c-2.1,0-3.9,1.7-3.9,3.9c0,2.1,1.7,3.9,3.9,3.9h14.8c3.5,0,6.4-2.8,6.4-6.4C183.2,27.1,180.4,24.2,176.9,24.2"/>
	</g>
</g>
</svg>
