<?xml version="1.0" encoding="utf-8"?>
<!-- Generator: Adobe Illustrator 21.0.0, SVG Export Plug-In . SVG Version: 6.00 Build 0)  -->
<svg version="1.1" id="Слой_1" xmlns="http://www.w3.org/2000/svg" xmlns:xlink="http://www.w3.org/1999/xlink" x="0px" y="0px"
	 viewBox="0 0 44.5 64" style="enable-background:new 0 0 44.5 64;" xml:space="preserve" fill="#c70901">
<style type="text/css">
	.st0{clip-path:url(#SVGID_2_);}
</style>
<g>
	<defs>
		<rect id="SVGID_1_" width="44.5" height="64"/>
	</defs>
	<clipPath id="SVGID_2_">
		<use xlink:href="#SVGID_1_"  style="overflow:visible;"/>
	</clipPath>
	<path class="st0" d="M44.3,24.9c-0.3-0.7-1.1-1.2-1.9-1.2H28.4l-0.1-0.1l5.5-21c0.3-1-0.2-1.9-1.1-2.4c-0.9-0.5-1.9-0.2-2.5,0.5
		L0.5,36.9c-0.5,0.6-0.6,1.5-0.3,2.2c0.3,0.7,1.1,1.2,1.9,1.2h14.1l0.1,0.1l-5.5,21c-0.3,1,0.2,1.9,1.1,2.4c0.3,0.2,0.6,0.2,1,0.2
		c0.6,0,1.2-0.3,1.6-0.8L44,27.1C44.5,26.4,44.7,25.6,44.3,24.9 M12.8,62L12.8,62l5.4-21.1c0.2-0.6,0-1.3-0.4-1.8
		c-0.4-0.5-1-0.8-1.6-0.8H2.1L2,38.2L31.7,2l0.1,0.1l-5.5,21c-0.2,0.6,0,1.3,0.4,1.8c0.4,0.5,1,0.8,1.6,0.8h14.1l0.1,0.1L12.8,62z"
		/>
	<path class="st0" d="M30.2,28.8c0.9,0,1.5,0.7,1.5,1.5c0,0.8-0.7,1.5-1.5,1.5c-0.9,0-1.5-0.7-1.5-1.5
		C28.7,29.5,29.4,28.8,30.2,28.8"/>
	<path class="st0" d="M21.6,35.1c0.9-0.9,2.5-0.9,3.4,0c0.4,0.4,1,0.4,1.4,0c0.4-0.4,0.4-1,0-1.4c-0.9-0.9-2-1.3-3.1-1.3
		c-1.1,0-2.3,0.4-3.1,1.3c-0.4,0.4-0.4,1,0,1.4C20.6,35.5,21.2,35.5,21.6,35.1"/>
	<path class="st0" d="M16.4,28.8c0.9,0,1.5,0.7,1.5,1.5c0,0.8-0.7,1.5-1.5,1.5c-0.9,0-1.5-0.7-1.5-1.5
		C14.9,29.5,15.6,28.8,16.4,28.8"/>
</g>
</svg>
