<?xml version="1.0" encoding="utf-8"?>
<!-- Generator: Adobe Illustrator 21.0.0, SVG Export Plug-In . SVG Version: 6.00 Build 0)  -->
<svg version="1.1" id="dizajn" xmlns="http://www.w3.org/2000/svg" xmlns:xlink="http://www.w3.org/1999/xlink" x="0px" y="0px"
	 viewBox="0 0 1006.3 743.7" style="enable-background:new 0 0 1006.3 743.7;" xml:space="preserve">
<style type="text/css">
	.st0{fill:#E9F6FF;}
	.st1{fill:#D4EDFF;}
	.st2{fill:#074FDF;}
	.st3{fill:#8DCFFF;}
	.st4{fill:#ACD4F8;}
	.st5{fill:#FFFFFF;}
	.st6{fill:#C1E3FE;}
	.st7{opacity:0.34;fill:#FFFFFF;}
	.st8{fill:#FEC00F;}
	.st9{fill:#0451DB;}
	.st10{fill:#7AB6FE;}
	.st11{fill:#C2DEFF;}
	.st12{fill:#ECF6F8;}
	.st13{fill:#5BA9DD;}
	.st14{fill:#E9D6B8;}
	.st15{fill:#F99B1C;}
	.st16{fill:#163F59;}
	.st17{fill:#0063CB;}
	.st18{fill:#E2C59C;}
</style>
<g>
	<rect x="123.5" y="41.9" class="st0" width="882.8" height="655.3"/>
	<rect x="123.5" y="0" class="st1" width="882.8" height="43.3"/>
	<path class="st2" d="M155.3,19.7c0,4.8-3.9,8.7-8.7,8.7c-4.8,0-8.7-3.9-8.7-8.7c0-4.8,3.9-8.7,8.7-8.7
		C151.4,11,155.3,14.9,155.3,19.7z"/>
	<path class="st3" d="M182.7,19.7c0,4.8-3.9,8.7-8.7,8.7c-4.8,0-8.7-3.9-8.7-8.7c0-4.8,3.9-8.7,8.7-8.7
		C178.8,11,182.7,14.9,182.7,19.7z"/>
	<path class="st4" d="M210.2,19.7c0,4.8-3.9,8.7-8.7,8.7c-4.8,0-8.7-3.9-8.7-8.7c0-4.8,3.9-8.7,8.7-8.7
		C206.3,11,210.2,14.9,210.2,19.7z"/>
	<rect x="175.7" y="86.6" class="st5" width="777.9" height="568.1"/>
	<g>
		<rect x="248.5" y="147.8" class="st6" width="227.4" height="9.4"/>
	</g>
	<g>
		<rect x="248.5" y="127.8" class="st6" width="73.7" height="9.3"/>
	</g>
	<g>
		<rect x="671.5" y="147.8" class="st6" width="227.4" height="9.4"/>
	</g>
	<g>
		<rect x="671.5" y="127.8" class="st6" width="73.7" height="9.3"/>
	</g>
	<g>
		<g>
			<g>
				<g>
					<g>
						<path class="st6" d="M612.7,579.4H257.2V176.4h355.5V579.4z M257.6,579h354.6V176.9H257.6V579z"/>
					</g>
					<g>
						<rect x="257.4" y="521.5" class="st6" width="355.1" height="0.4"/>
					</g>
					<g>
						<rect x="257.4" y="464" class="st6" width="355.1" height="0.4"/>
					</g>
					<g>
						<rect x="257.4" y="406.5" class="st6" width="355.1" height="0.4"/>
					</g>
					<g>
						<rect x="257.4" y="348.9" class="st6" width="355.1" height="0.4"/>
					</g>
					<g>
						<rect x="257.4" y="291.4" class="st6" width="355.1" height="0.4"/>
					</g>
					<g>
						<rect x="257.4" y="233.9" class="st6" width="355.1" height="0.4"/>
					</g>
					<g>
						<rect x="493.9" y="176.7" class="st6" width="0.4" height="402.5"/>
					</g>
					<g>
						<rect x="375.5" y="176.7" class="st6" width="0.4" height="402.5"/>
					</g>
				</g>
				<g>
					
						<rect x="235.2" y="185.6" transform="matrix(0.707 -0.7072 0.7072 0.707 -58.7021 229.9854)" class="st6" width="26" height="0.4"/>
				</g>
				<g>
					
						<rect x="235.2" y="243.1" transform="matrix(0.7076 -0.7066 0.7066 0.7076 -99.3711 246.5461)" class="st6" width="26" height="0.4"/>
				</g>
				<g>
					
						<rect x="235.2" y="300.6" transform="matrix(0.707 -0.7072 0.7072 0.707 -140.038 263.6837)" class="st6" width="26" height="0.4"/>
				</g>
				<g>
					
						<rect x="235.2" y="358.1" transform="matrix(0.707 -0.7072 0.7072 0.707 -180.7039 280.532)" class="st6" width="26" height="0.4"/>
				</g>
				<g>
					
						<rect x="235.2" y="415.6" transform="matrix(0.7076 -0.7066 0.7066 0.7076 -221.2738 296.9925)" class="st6" width="26" height="0.4"/>
				</g>
				<g>
					
						<rect x="235.2" y="473.1" transform="matrix(0.7071 -0.7071 0.7071 0.7071 -262.0121 314.1452)" class="st6" width="26" height="0.4"/>
				</g>
				<g>
					
						<rect x="235.2" y="530.6" transform="matrix(0.707 -0.7072 0.7072 0.707 -302.7057 331.0787)" class="st6" width="26" height="0.4"/>
				</g>
				<g>
					<path class="st6" d="M222.7,541.6L222.7,541.6l-1.8,1l-0.3-1.1l2.3-1.2h1.2v10.4h-1.4V541.6z"/>
					<path class="st6" d="M234.8,545.4c0,3.5-1.3,5.5-3.6,5.5c-2,0-3.4-1.9-3.5-5.4c0-3.5,1.5-5.4,3.6-5.4
						C233.6,540.1,234.8,542.1,234.8,545.4z M229.1,545.6c0,2.7,0.8,4.3,2.1,4.3c1.4,0,2.1-1.7,2.1-4.4c0-2.6-0.7-4.3-2.1-4.3
						C230,541.2,229.1,542.7,229.1,545.6z"/>
				</g>
				<g>
					<path class="st6" d="M219.6,493.7v-0.9l1.1-1.1c2.7-2.5,3.9-3.9,3.9-5.5c0-1.1-0.5-2-2.1-2c-0.9,0-1.7,0.5-2.2,0.9l-0.4-1
						c0.7-0.6,1.8-1.1,3-1.1c2.2,0,3.2,1.5,3.2,3c0,1.9-1.4,3.5-3.6,5.6l-0.8,0.8v0h4.7v1.2H219.6z"/>
					<path class="st6" d="M234.8,488.3c0,3.5-1.3,5.5-3.6,5.5c-2,0-3.4-1.9-3.5-5.4c0-3.5,1.5-5.4,3.6-5.4
						C233.6,483.1,234.8,485,234.8,488.3z M229.1,488.5c0,2.7,0.8,4.3,2.1,4.3c1.4,0,2.1-1.7,2.1-4.3c0-2.6-0.7-4.3-2.1-4.3
						C230,484.1,229.1,485.7,229.1,488.5z"/>
				</g>
				<g>
					<path class="st6" d="M220,434.9c0.4,0.3,1.3,0.7,2.3,0.7c1.8,0,2.4-1.2,2.4-2c0-1.5-1.3-2.1-2.7-2.1h-0.8v-1.1h0.8
						c1,0,2.3-0.5,2.3-1.8c0-0.8-0.5-1.6-1.8-1.6c-0.8,0-1.6,0.4-2.1,0.7l-0.4-1c0.5-0.4,1.6-0.8,2.7-0.8c2.1,0,3,1.2,3,2.5
						c0,1.1-0.6,2-1.9,2.5v0c1.3,0.3,2.3,1.2,2.3,2.7c0,1.7-1.3,3.1-3.8,3.1c-1.2,0-2.2-0.4-2.7-0.7L220,434.9z"/>
					<path class="st6" d="M234.8,431.2c0,3.5-1.3,5.5-3.6,5.5c-2,0-3.4-1.9-3.5-5.4c0-3.5,1.5-5.4,3.6-5.4
						C233.6,426,234.8,427.9,234.8,431.2z M229.1,431.4c0,2.7,0.8,4.3,2.1,4.3c1.4,0,2.1-1.7,2.1-4.3c0-2.6-0.7-4.3-2.1-4.3
						C230,427.1,229.1,428.6,229.1,431.4z"/>
				</g>
				<g>
					<path class="st6" d="M224,379.5v-2.8h-4.8v-0.9l4.7-6.7h1.5v6.5h1.5v1.1h-1.5v2.8H224z M224,375.5V372c0-0.5,0-1.1,0-1.6h0
						c-0.3,0.6-0.6,1.1-0.9,1.5l-2.6,3.5v0H224z"/>
					<path class="st6" d="M234.8,374.1c0,3.5-1.3,5.5-3.6,5.5c-2,0-3.4-1.9-3.5-5.4c0-3.5,1.5-5.4,3.6-5.4
						C233.6,368.9,234.8,370.8,234.8,374.1z M229.1,374.3c0,2.7,0.8,4.3,2.1,4.3c1.4,0,2.1-1.7,2.1-4.3c0-2.6-0.7-4.3-2.1-4.3
						C230,370,229.1,371.5,229.1,374.3z"/>
				</g>
				<g>
					<path class="st6" d="M225.9,313.1h-4l-0.4,2.7c0.2,0,0.5-0.1,0.9-0.1c0.8,0,1.6,0.2,2.2,0.6c0.8,0.5,1.5,1.4,1.5,2.7
						c0,2-1.6,3.6-3.9,3.6c-1.1,0-2.1-0.3-2.6-0.6l0.4-1.1c0.4,0.3,1.3,0.6,2.2,0.6c1.3,0,2.5-0.9,2.5-2.3c0-1.3-0.9-2.3-3-2.3
						c-0.6,0-1.1,0.1-1.4,0.1l0.7-5h5V313.1z"/>
					<path class="st6" d="M234.8,317.1c0,3.5-1.3,5.5-3.6,5.5c-2,0-3.4-1.9-3.5-5.4c0-3.5,1.5-5.4,3.6-5.4
						C233.6,311.8,234.8,313.7,234.8,317.1z M229.1,317.2c0,2.7,0.8,4.3,2.1,4.3c1.4,0,2.1-1.7,2.1-4.4c0-2.6-0.7-4.3-2.1-4.3
						C230,312.9,229.1,314.4,229.1,317.2z"/>
				</g>
				<g>
					<path class="st6" d="M225.6,255.8c-0.3,0-0.7,0-1.1,0.1c-2.2,0.4-3.4,2-3.6,3.7h0c0.5-0.7,1.4-1.2,2.5-1.2
						c1.8,0,3.1,1.3,3.1,3.4c0,1.9-1.3,3.7-3.5,3.7c-2.2,0-3.7-1.7-3.7-4.4c0-2.1,0.7-3.7,1.8-4.7c0.9-0.9,2-1.4,3.3-1.5
						c0.4-0.1,0.8-0.1,1-0.1V255.8z M225.2,261.9c0-1.5-0.9-2.4-2.2-2.4c-0.9,0-1.6,0.5-2,1.3c-0.1,0.2-0.2,0.4-0.2,0.6
						c0,1.7,0.8,3,2.3,3C224.4,264.4,225.2,263.4,225.2,261.9z"/>
					<path class="st6" d="M234.8,260c0,3.5-1.3,5.5-3.6,5.5c-2,0-3.4-1.9-3.5-5.4c0-3.5,1.5-5.4,3.6-5.4
						C233.6,254.7,234.8,256.6,234.8,260z M229.1,260.1c0,2.7,0.8,4.3,2.1,4.3c1.4,0,2.1-1.7,2.1-4.3c0-2.6-0.7-4.3-2.1-4.3
						C230,255.8,229.1,257.3,229.1,260.1z"/>
				</g>
				<g>
					<path class="st6" d="M226.4,197.8v0.9l-4.5,9.5h-1.5l4.5-9.2v0h-5.1v-1.2H226.4z"/>
					<path class="st6" d="M234.8,202.9c0,3.5-1.3,5.5-3.6,5.5c-2,0-3.4-1.9-3.5-5.4c0-3.5,1.5-5.4,3.6-5.4
						C233.6,197.6,234.8,199.5,234.8,202.9z M229.1,203c0,2.7,0.8,4.3,2.1,4.3c1.4,0,2.1-1.7,2.1-4.4c0-2.6-0.7-4.3-2.1-4.3
						C230,198.7,229.1,200.2,229.1,203z"/>
				</g>
				<g>
					<path class="st6" d="M294.8,600.4v-0.9l1.1-1.1c2.7-2.5,3.9-3.9,3.9-5.5c0-1.1-0.5-2-2.1-2c-0.9,0-1.7,0.5-2.2,0.9l-0.4-1
						c0.7-0.6,1.8-1.1,3-1.1c2.2,0,3.2,1.5,3.2,3c0,1.9-1.4,3.5-3.6,5.6l-0.8,0.8v0h4.7v1.2H294.8z"/>
					<path class="st6" d="M309.9,595.1c0,3.5-1.3,5.5-3.6,5.5c-2,0-3.4-1.9-3.5-5.4c0-3.5,1.5-5.4,3.6-5.4
						C308.7,589.8,309.9,591.8,309.9,595.1z M304.3,595.3c0,2.7,0.8,4.3,2.1,4.3c1.4,0,2.1-1.7,2.1-4.4c0-2.6-0.7-4.3-2.1-4.3
						C305.2,590.9,304.3,592.4,304.3,595.3z"/>
					<path class="st6" d="M314.3,591.3L314.3,591.3l-1.8,1l-0.3-1.1l2.3-1.2h1.2v10.4h-1.4V591.3z"/>
					<path class="st6" d="M326.2,590v0.9l-4.5,9.5h-1.5l4.5-9.2v0h-5.1V590H326.2z"/>
				</g>
				<g>
					<path class="st6" d="M415.5,600.4v-0.9l1.1-1.1c2.7-2.5,3.9-3.9,3.9-5.5c0-1.1-0.5-2-2.1-2c-0.9,0-1.7,0.5-2.2,0.9l-0.4-1
						c0.7-0.6,1.8-1.1,3-1.1c2.2,0,3.2,1.5,3.2,3c0,1.9-1.4,3.5-3.6,5.6l-0.8,0.8v0h4.7v1.2H415.5z"/>
					<path class="st6" d="M430.7,595.1c0,3.5-1.3,5.5-3.6,5.5c-2,0-3.4-1.9-3.5-5.4c0-3.5,1.5-5.4,3.6-5.4
						C429.4,589.8,430.7,591.8,430.7,595.1z M425,595.3c0,2.7,0.8,4.3,2.1,4.3c1.4,0,2.1-1.7,2.1-4.4c0-2.6-0.7-4.3-2.1-4.3
						C425.9,590.9,425,592.4,425,595.3z"/>
					<path class="st6" d="M435,591.3L435,591.3l-1.8,1l-0.3-1.1l2.3-1.2h1.2v10.4H435V591.3z"/>
					<path class="st6" d="M440.1,597.8c0-1.3,0.8-2.2,2.1-2.8l0,0c-1.2-0.5-1.7-1.4-1.7-2.3c0-1.7,1.4-2.8,3.2-2.8c2,0,3,1.3,3,2.6
						c0,0.9-0.4,1.8-1.7,2.4v0c1.3,0.5,2.1,1.4,2.1,2.7c0,1.8-1.6,3-3.5,3C441.4,600.6,440.1,599.3,440.1,597.8z M445.7,597.7
						c0-1.3-0.9-1.9-2.3-2.3c-1.2,0.4-1.9,1.2-1.9,2.2c0,1.1,0.8,2,2.1,2C444.9,599.6,445.7,598.8,445.7,597.7z M441.8,592.5
						c0,1,0.8,1.6,2,1.9c0.9-0.3,1.6-0.9,1.6-1.9c0-0.8-0.5-1.7-1.8-1.7C442.5,590.8,441.8,591.6,441.8,592.5z"/>
				</g>
				<g>
					<path class="st6" d="M536.2,600.4v-0.9l1.1-1.1c2.7-2.5,3.9-3.9,3.9-5.5c0-1.1-0.5-2-2.1-2c-0.9,0-1.7,0.5-2.2,0.9l-0.4-1
						c0.7-0.6,1.8-1.1,3-1.1c2.2,0,3.2,1.5,3.2,3c0,1.9-1.4,3.5-3.6,5.6l-0.8,0.8v0h4.7v1.2H536.2z"/>
					<path class="st6" d="M551.4,595.1c0,3.5-1.3,5.5-3.6,5.5c-2,0-3.4-1.9-3.5-5.4c0-3.5,1.5-5.4,3.6-5.4
						C550.1,589.8,551.4,591.8,551.4,595.1z M545.7,595.3c0,2.7,0.8,4.3,2.1,4.3c1.4,0,2.1-1.7,2.1-4.4c0-2.6-0.7-4.3-2.1-4.3
						C546.6,590.9,545.7,592.4,545.7,595.3z"/>
					<path class="st6" d="M555.8,591.3L555.8,591.3l-1.8,1l-0.3-1.1l2.3-1.2h1.2v10.4h-1.4V591.3z"/>
					<path class="st6" d="M561.8,599.4c0.3,0,0.7,0,1.1,0c0.8-0.1,1.6-0.4,2.2-1c0.7-0.6,1.2-1.5,1.4-2.8h0
						c-0.6,0.7-1.4,1.1-2.5,1.1c-1.9,0-3.1-1.4-3.1-3.2c0-2,1.4-3.7,3.6-3.7c2.1,0,3.5,1.7,3.5,4.4c0,2.3-0.8,3.9-1.8,4.9
						c-0.8,0.8-1.9,1.3-3,1.4c-0.5,0.1-1,0.1-1.3,0.1V599.4z M562.3,593.4c0,1.3,0.8,2.2,2,2.2c0.9,0,1.7-0.5,2.1-1.1
						c0.1-0.1,0.1-0.3,0.1-0.5c0-1.8-0.7-3.1-2.1-3.1C563.1,590.9,562.3,591.9,562.3,593.4z"/>
				</g>
				<rect x="257.4" y="234.2" class="st7" width="355.1" height="57.5"/>
				<rect x="257.4" y="349.2" class="st7" width="355.1" height="57.5"/>
				<rect x="257.4" y="464.2" class="st7" width="355.1" height="57.5"/>
			</g>
			<g>
				<rect x="257.4" y="234.2" class="st8" width="159.6" height="9.2"/>
				<rect x="257.4" y="258.3" class="st9" width="274.1" height="9.2"/>
				<rect x="257.4" y="282.5" class="st10" width="97.7" height="9.2"/>
				<rect x="257.4" y="349.2" class="st8" width="288" height="9.2"/>
				<rect x="257.4" y="373.3" class="st9" width="118.4" height="9.2"/>
				<rect x="257.4" y="397.5" class="st10" width="236.7" height="9.2"/>
				<rect x="257.4" y="464.9" class="st8" width="118.4" height="9.2"/>
				<rect x="257.4" y="489.1" class="st9" width="236.7" height="9.2"/>
				<rect x="257.4" y="513.2" class="st10" width="195.4" height="9.2"/>
			</g>
		</g>
	</g>
	<g>
		<rect x="671.5" y="193.2" class="st6" width="12.1" height="12.1"/>
		<rect x="706" y="193.2" class="st6" width="12.1" height="12.1"/>
		<rect x="740.4" y="193.2" class="st6" width="12.1" height="12.1"/>
		<rect x="774.8" y="193.2" class="st6" width="12.1" height="12.1"/>
		<rect x="809.2" y="193.2" class="st6" width="12.1" height="12.1"/>
		<rect x="843.6" y="193.2" class="st11" width="12.1" height="12.1"/>
		<rect x="878" y="193.2" class="st11" width="12.1" height="12.1"/>
		<rect x="671.5" y="223.6" class="st6" width="12.1" height="12.1"/>
		<rect x="706" y="223.6" class="st6" width="12.1" height="12.1"/>
		<rect x="740.4" y="223.6" class="st6" width="12.1" height="12.1"/>
		<rect x="774.8" y="223.6" class="st6" width="12.1" height="12.1"/>
		<rect x="809.2" y="223.6" class="st6" width="12.1" height="12.1"/>
		<rect x="843.6" y="223.6" class="st11" width="12.1" height="12.1"/>
		<rect x="878" y="223.6" class="st11" width="12.1" height="12.1"/>
		<rect x="671.5" y="253.9" class="st6" width="12.1" height="12.1"/>
		<rect x="706" y="253.9" class="st6" width="12.1" height="12.1"/>
		<rect x="740.4" y="253.9" class="st10" width="12.1" height="12.1"/>
		<rect x="774.8" y="253.9" class="st10" width="12.1" height="12.1"/>
		<rect x="809.2" y="253.9" class="st6" width="12.1" height="12.1"/>
		<rect x="843.6" y="253.9" class="st11" width="12.1" height="12.1"/>
		<rect x="878" y="253.9" class="st11" width="12.1" height="12.1"/>
		<rect x="671.5" y="284.3" class="st9" width="12.1" height="12.1"/>
		<rect x="706" y="284.3" class="st6" width="12.1" height="12.1"/>
		<rect x="740.4" y="284.3" class="st6" width="12.1" height="12.1"/>
		<rect x="774.8" y="284.3" class="st6" width="12.1" height="12.1"/>
		<rect x="809.2" y="284.3" class="st6" width="12.1" height="12.1"/>
		<rect x="843.6" y="284.3" class="st11" width="12.1" height="12.1"/>
		<rect x="878" y="284.3" class="st11" width="12.1" height="12.1"/>
		<rect x="671.5" y="314.7" class="st6" width="12.1" height="12.1"/>
		<rect x="706" y="314.7" class="st6" width="12.1" height="12.1"/>
		<rect x="740.4" y="314.7" class="st6" width="12.1" height="12.1"/>
		<rect x="774.8" y="314.7" class="st6" width="12.1" height="12.1"/>
		<rect x="809.2" y="314.7" class="st6" width="12.1" height="12.1"/>
		<rect x="843.6" y="314.7" class="st11" width="12.1" height="12.1"/>
		<rect x="878" y="314.7" class="st11" width="12.1" height="12.1"/>
		<rect x="671.5" y="345" class="st6" width="12.1" height="12.1"/>
		<rect x="706" y="345" class="st6" width="12.1" height="12.1"/>
		<rect x="740.4" y="345" class="st6" width="12.1" height="12.1"/>
		<rect x="774.8" y="345" class="st6" width="12.1" height="12.1"/>
		<rect x="809.2" y="345" class="st6" width="12.1" height="12.1"/>
		<rect x="843.6" y="345" class="st6" width="12.1" height="12.1"/>
		<rect x="878" y="345" class="st6" width="12.1" height="12.1"/>
	</g>
	<g>
		<g>
			<g>
				<path class="st6" d="M659.9,571.6L659.9,571.6l-1,0.5l-0.1-0.6l1.2-0.6h0.6v5.5h-0.7V571.6z"/>
				<path class="st6" d="M666.3,573.6c0,1.9-0.7,2.9-1.9,2.9c-1.1,0-1.8-1-1.8-2.8c0-1.9,0.8-2.9,1.9-2.9
					C665.6,570.8,666.3,571.9,666.3,573.6z M663.3,573.7c0,1.4,0.4,2.3,1.1,2.3c0.8,0,1.1-0.9,1.1-2.3c0-1.4-0.3-2.3-1.1-2.3
					C663.8,571.4,663.3,572.2,663.3,573.7z"/>
			</g>
			<g>
				<path class="st6" d="M658.2,548v-0.5l0.6-0.6c1.4-1.3,2-2.1,2.1-2.9c0-0.6-0.3-1.1-1.1-1.1c-0.5,0-0.9,0.3-1.2,0.5l-0.2-0.5
					c0.4-0.3,0.9-0.6,1.6-0.6c1.2,0,1.7,0.8,1.7,1.6c0,1-0.7,1.8-1.9,3l-0.4,0.4v0h2.5v0.6H658.2z"/>
				<path class="st6" d="M666.3,545.1c0,1.9-0.7,2.9-1.9,2.9c-1.1,0-1.8-1-1.8-2.8c0-1.9,0.8-2.9,1.9-2.9
					C665.6,542.3,666.3,543.4,666.3,545.1z M663.3,545.2c0,1.4,0.4,2.3,1.1,2.3c0.8,0,1.1-0.9,1.1-2.3c0-1.4-0.3-2.3-1.1-2.3
					C663.8,542.9,663.3,543.7,663.3,545.2z"/>
			</g>
			<g>
				<path class="st6" d="M658.4,518.6c0.2,0.1,0.7,0.3,1.2,0.3c1,0,1.3-0.6,1.2-1.1c0-0.8-0.7-1.1-1.4-1.1h-0.4v-0.6h0.4
					c0.5,0,1.2-0.3,1.2-0.9c0-0.4-0.3-0.8-1-0.8c-0.4,0-0.9,0.2-1.1,0.4l-0.2-0.5c0.3-0.2,0.9-0.4,1.4-0.4c1.1,0,1.6,0.6,1.6,1.3
					c0,0.6-0.3,1.1-1,1.3v0c0.7,0.1,1.2,0.6,1.2,1.4c0,0.9-0.7,1.7-2,1.7c-0.6,0-1.2-0.2-1.4-0.4L658.4,518.6z"/>
				<path class="st6" d="M666.3,516.7c0,1.9-0.7,2.9-1.9,2.9c-1.1,0-1.8-1-1.8-2.8c0-1.9,0.8-2.9,1.9-2.9
					C665.6,513.9,666.3,514.9,666.3,516.7z M663.3,516.7c0,1.4,0.4,2.3,1.1,2.3c0.8,0,1.1-0.9,1.1-2.3c0-1.4-0.3-2.3-1.1-2.3
					C663.8,514.4,663.3,515.2,663.3,516.7z"/>
			</g>
			<g>
				<path class="st6" d="M660.6,491v-1.5H658V489l2.5-3.5h0.8v3.4h0.8v0.6h-0.8v1.5H660.6z M660.6,488.9v-1.8c0-0.3,0-0.6,0-0.9h0
					c-0.2,0.3-0.3,0.6-0.5,0.8l-1.4,1.9v0H660.6z"/>
				<path class="st6" d="M666.3,488.2c0,1.9-0.7,2.9-1.9,2.9c-1.1,0-1.8-1-1.8-2.8c0-1.9,0.8-2.9,1.9-2.9
					C665.6,485.4,666.3,486.4,666.3,488.2z M663.3,488.3c0,1.4,0.4,2.3,1.1,2.3c0.8,0,1.1-0.9,1.1-2.3c0-1.4-0.3-2.3-1.1-2.3
					C663.8,486,663.3,486.8,663.3,488.3z"/>
			</g>
			<g>
				<path class="st6" d="M661.5,457.6h-2.1l-0.2,1.4c0.1,0,0.2,0,0.5,0c0.4,0,0.8,0.1,1.2,0.3c0.4,0.2,0.8,0.7,0.8,1.4
					c0,1.1-0.9,1.9-2.1,1.9c-0.6,0-1.1-0.2-1.4-0.3l0.2-0.6c0.2,0.1,0.7,0.3,1.2,0.3c0.7,0,1.3-0.5,1.3-1.2c0-0.7-0.5-1.2-1.6-1.2
					c-0.3,0-0.6,0-0.8,0.1l0.4-2.7h2.6V457.6z"/>
				<path class="st6" d="M666.3,459.7c0,1.9-0.7,2.9-1.9,2.9c-1.1,0-1.8-1-1.8-2.8c0-1.9,0.8-2.9,1.9-2.9
					C665.6,456.9,666.3,457.9,666.3,459.7z M663.3,459.8c0,1.4,0.4,2.3,1.1,2.3c0.8,0,1.1-0.9,1.1-2.3c0-1.4-0.3-2.3-1.1-2.3
					C663.8,457.5,663.3,458.3,663.3,459.8z"/>
			</g>
			<g>
				<path class="st6" d="M661.4,429c-0.2,0-0.3,0-0.6,0c-1.2,0.2-1.8,1.1-1.9,2h0c0.3-0.3,0.7-0.6,1.3-0.6c1,0,1.7,0.7,1.7,1.8
					c0,1-0.7,1.9-1.8,1.9c-1.2,0-2-0.9-2-2.4c0-1.1,0.4-1.9,0.9-2.5c0.5-0.5,1.1-0.7,1.8-0.8c0.2,0,0.4,0,0.5,0V429z M661.2,432.2
					c0-0.8-0.5-1.3-1.1-1.3c-0.5,0-0.9,0.3-1.1,0.7c-0.1,0.1-0.1,0.2-0.1,0.3c0,0.9,0.4,1.6,1.2,1.6
					C660.8,433.6,661.2,433,661.2,432.2z"/>
				<path class="st6" d="M666.3,431.2c0,1.9-0.7,2.9-1.9,2.9c-1.1,0-1.8-1-1.8-2.8c0-1.9,0.8-2.9,1.9-2.9
					C665.6,428.4,666.3,429.5,666.3,431.2z M663.3,431.3c0,1.4,0.4,2.3,1.1,2.3c0.8,0,1.1-0.9,1.1-2.3c0-1.4-0.3-2.3-1.1-2.3
					C663.8,429,663.3,429.8,663.3,431.3z"/>
			</g>
			<g>
				<path class="st6" d="M692.8,596.6L692.8,596.6L692,597l-0.1-0.5l1.1-0.6h0.6v4.8h-0.6V596.6z"/>
			</g>
			<g>
				<path class="st6" d="M735.2,600.8v-0.4l0.5-0.5c1.2-1.2,1.8-1.8,1.8-2.5c0-0.5-0.2-0.9-1-0.9c-0.4,0-0.8,0.2-1,0.4l-0.2-0.5
					c0.3-0.3,0.8-0.5,1.4-0.5c1,0,1.5,0.7,1.5,1.4c0,0.9-0.6,1.6-1.7,2.6l-0.4,0.4v0h2.2v0.5H735.2z"/>
			</g>
			<g>
				<path class="st6" d="M779.2,600.1c0.2,0.1,0.6,0.3,1.1,0.3c0.8,0,1.1-0.5,1.1-0.9c0-0.7-0.6-1-1.2-1h-0.4V598h0.4
					c0.5,0,1.1-0.2,1.1-0.8c0-0.4-0.2-0.7-0.8-0.7c-0.4,0-0.8,0.2-1,0.3l-0.2-0.5c0.3-0.2,0.7-0.4,1.3-0.4c1,0,1.4,0.6,1.4,1.2
					c0,0.5-0.3,0.9-0.9,1.1v0c0.6,0.1,1.1,0.6,1.1,1.2c0,0.8-0.6,1.4-1.8,1.4c-0.5,0-1-0.2-1.3-0.3L779.2,600.1z"/>
			</g>
			<g>
				<path class="st6" d="M824.9,600.8v-1.3h-2.2v-0.4l2.2-3.1h0.7v3h0.7v0.5h-0.7v1.3H824.9z M824.9,599v-1.6c0-0.3,0-0.5,0-0.8h0
					c-0.1,0.3-0.3,0.5-0.4,0.7l-1.2,1.6v0H824.9z"/>
			</g>
			<g>
				<path class="st6" d="M869.6,596.5h-1.8l-0.2,1.2c0.1,0,0.2,0,0.4,0c0.4,0,0.7,0.1,1,0.3c0.4,0.2,0.7,0.6,0.7,1.2
					c0,0.9-0.8,1.6-1.8,1.6c-0.5,0-1-0.1-1.2-0.3l0.2-0.5c0.2,0.1,0.6,0.3,1,0.3c0.6,0,1.1-0.4,1.1-1c0-0.6-0.4-1.1-1.4-1.1
					c-0.3,0-0.5,0-0.7,0.1l0.3-2.3h2.3V596.5z"/>
			</g>
			<g>
				<g>
					<path class="st6" d="M892.6,590.3h-222V415.6h222V590.3z M671,589.9h221.1V416.1H671V589.9z"/>
				</g>
				<g>
					<rect x="670.8" y="560.8" class="st6" width="221.6" height="0.4"/>
				</g>
				<g>
					<rect x="670.8" y="531.8" class="st6" width="221.6" height="0.4"/>
				</g>
				<g>
					<rect x="670.8" y="502.7" class="st6" width="221.6" height="0.4"/>
				</g>
				<g>
					<rect x="670.8" y="473.7" class="st6" width="221.6" height="0.4"/>
				</g>
				<g>
					<rect x="670.8" y="444.7" class="st6" width="221.6" height="0.4"/>
				</g>
				<g>
					<rect x="847.9" y="415.8" class="st6" width="0.4" height="174.2"/>
				</g>
				<g>
					<rect x="803.5" y="415.8" class="st6" width="0.4" height="174.2"/>
				</g>
				<g>
					<rect x="759.2" y="415.8" class="st6" width="0.4" height="174.2"/>
				</g>
				<g>
					<rect x="714.9" y="415.8" class="st6" width="0.4" height="174.2"/>
				</g>
			</g>
		</g>
		<g>
			<rect x="687.7" y="516" class="st9" width="10.6" height="74.1"/>
			<rect x="731.9" y="516" class="st11" width="10.6" height="74.1"/>
			<rect x="776.2" y="516" class="st10" width="10.6" height="74.1"/>
			<rect x="820.5" y="516" class="st9" width="10.6" height="74.1"/>
			<rect x="864.8" y="516" class="st10" width="10.6" height="74.1"/>
			<rect x="687.7" y="503" class="st9" width="10.6" height="13"/>
			<rect x="731.9" y="458.8" class="st11" width="10.6" height="57.2"/>
			<rect x="820.5" y="465.7" class="st9" width="10.6" height="50.2"/>
			<rect x="864.8" y="422.7" class="st10" width="10.6" height="93.2"/>
			<path class="st11" d="M722.2,473.9c0,6.6-5.3,11.9-11.9,11.9c-6.6,0-11.9-5.3-11.9-11.9c0-6.6,5.4-12,11.9-12
				C716.8,462,722.2,467.3,722.2,473.9z"/>
			<g>
				<path class="st12" d="M707.9,477.4v-2.1h-3.5v-0.7l3.4-4.8h1.1v4.7h1.1v0.8h-1.1v2.1H707.9z M707.9,474.5V472c0-0.4,0-0.8,0-1.2
					h0c-0.2,0.4-0.4,0.8-0.6,1.1l-1.9,2.6v0H707.9z"/>
				<path class="st12" d="M715.3,470.7h-2.9l-0.3,1.9c0.2,0,0.3,0,0.6,0c0.6,0,1.2,0.1,1.6,0.4c0.6,0.3,1.1,1,1.1,1.9
					c0,1.5-1.2,2.6-2.8,2.6c-0.8,0-1.5-0.2-1.9-0.5l0.3-0.8c0.3,0.2,0.9,0.4,1.6,0.4c1,0,1.8-0.6,1.8-1.6c0-1-0.7-1.7-2.2-1.7
					c-0.4,0-0.8,0-1.1,0.1l0.5-3.6h3.6V470.7z"/>
			</g>
			<g>
				<rect x="722.2" y="473.4" class="st11" width="9.8" height="1.1"/>
			</g>
			<circle class="st10" cx="843.2" cy="444.9" r="11.9"/>
			<g>
				<path class="st12" d="M842.3,441.6h-2.9l-0.3,1.9c0.2,0,0.3,0,0.6,0c0.6,0,1.2,0.1,1.6,0.4c0.6,0.3,1.1,1,1.1,1.9
					c0,1.5-1.2,2.6-2.8,2.6c-0.8,0-1.5-0.2-1.9-0.5l0.3-0.8c0.3,0.2,0.9,0.4,1.6,0.4c1,0,1.8-0.6,1.8-1.6c0-1-0.7-1.7-2.2-1.7
					c-0.4,0-0.8,0-1.1,0.1l0.5-3.6h3.6V441.6z"/>
				<path class="st12" d="M843.6,446.4c0-1,0.6-1.6,1.5-2l0,0c-0.8-0.4-1.2-1.1-1.2-1.7c0-1.2,1-2,2.3-2c1.5,0,2.2,0.9,2.2,1.9
					c0,0.6-0.3,1.3-1.2,1.8v0c0.9,0.4,1.5,1,1.5,2c0,1.3-1.1,2.2-2.6,2.2C844.6,448.5,843.6,447.5,843.6,446.4z M847.7,446.4
					c0-0.9-0.6-1.4-1.7-1.7c-0.9,0.3-1.4,0.8-1.4,1.6c0,0.8,0.5,1.4,1.5,1.4C847.1,447.7,847.7,447.2,847.7,446.4z M844.9,442.6
					c0,0.8,0.6,1.2,1.4,1.4c0.7-0.2,1.2-0.7,1.2-1.4c0-0.6-0.4-1.2-1.3-1.2C845.4,441.4,844.9,441.9,844.9,442.6z"/>
			</g>
			<g>
				<path class="st10" d="M855.2,444.9h9.8H855.2z"/>
				<rect x="855.2" y="444.4" class="st13" width="9.8" height="1.1"/>
			</g>
		</g>
	</g>
</g>
<g>
	<path class="st14" d="M126.8,563.1c-2.1-1.3-9.1,6.5-12,13.4c-5.8,13.5-7.3,21-9.6,36c-3.6,23.7-9.7,61.3-11.7,77.3
		c-1.8,14.4-7.6,31.5,1.1,29.1c-0.1-19.8,9-49.7,14.3-65.4C126.9,600,133.1,566.9,126.8,563.1z"/>
	<path class="st14" d="M85.6,575.8c0.8-3.8,1.5-7.5,2.3-11.2c2.7-5.4,5-8.2,6.8-7.8c6.8,1.6,12.9,32.2-8.4,104.9
		c-1.1,3.7-15.3,67-15.2,65.5C73.6,686.5,74.2,632.1,85.6,575.8z"/>
	<path class="st15" d="M70.5,731.9c-3.7,7.4-8.2,12.7-10.2,11.7c-2-1-0.6-7.8,3.1-15.2c3.7-7.4,8.2-12.7,10.2-11.7
		C75.5,717.6,74.1,724.4,70.5,731.9z"/>
	<path class="st14" d="M71.6,727.5c-1.9,5.8-5.9,10-7.8,9.1c-2-1-1.2-6,1.7-11.3c3.7-6.8,5.2-8.7,5.5-13.6
		C71.2,707.1,78.7,705.6,71.6,727.5z"/>
	<path class="st14" d="M109.6,716.2c0,0-2-0.8-7.4-1.9c-3.2-0.6-5.6-0.6-6.7-1.8c-1.9-2-0.8-6.7-1.8-6.5c-4.5,1-6,11.5-3.4,12.8
		c2.6,1.3,17.4-0.4,18.6-0.5C110.2,718.2,110,715.9,109.6,716.2z"/>
	<path class="st15" d="M106.5,715.2c0.8,3.5-10,2.1-12.8,1.2c-2.7-0.9-4.4-1.1-4.4-1.1c-0.1,0-0.2,0-0.3,0c0,0.1,0,0.2,0,0.3
		c0,1.9-0.9,4.5,2.3,4.5h19.5C126.6,720,106.5,715.1,106.5,715.2z"/>
	<path class="st16" d="M135.9,296.3l-4.2-28.8c-5.3-5.6-12.1-8.5-19-7.5c-13.3,1.9-22,17.9-19.4,35.6c2.6,17.7,15.4,30.6,28.7,28.7
		c9.3-1.4,16.4-9.6,18.9-20.5C138.3,302.1,136.4,299.5,135.9,296.3z"/>
	<path class="st16" d="M83.1,313c-0.5,4.6,4.4,8.9,10.9,9.6l14.8,1.6c6.5,0.7,12.2-2.4,12.7-7.1l4.6-42c0.5-4.6-4.3-8.9-10.8-9.6
		l-14.8-1.6c-6.5-0.7-12.2,2.4-12.7,7L83.1,313z"/>
	<path class="st14" d="M121.7,331c8.8,3.8,13.2,2.6,6.5,5.4c-3.2,4-44.5-1.6-46.7-6.7c-0.4-0.9,16.4-3.3,16.5-4
		c1-7.4,1.4-13.7-0.6-22c0.1-0.6,0.6-1.2,1.1-1.2c3.1,0.1,6.3,0.1,9.4,0.2c0.5,0,6.7,1.4,5.3,4.3C112.4,315.3,112.4,327,121.7,331z"
		/>
	<path class="st14" d="M124.5,306.7c0.1-0.3,0.3-0.6,0.4-0.9c0-0.1,0.1-0.2,0.1-0.3c0.2-0.4,0.3-0.7,0.5-1.1c0-0.1,0.1-0.2,0.1-0.3
		c0.1-0.3,0.2-0.6,0.3-0.9c0.1-0.2,0.1-0.3,0.2-0.5c0.1-0.3,0.2-0.5,0.2-0.8c0.1-0.2,0.1-0.4,0.2-0.5c0.1-0.3,0.2-0.7,0.3-1
		c0.1-0.3,0.1-0.5,0.2-0.8c0.1-0.2,0.1-0.5,0.2-0.7c0.1-0.2,0.1-0.5,0.1-0.7c0-0.2,0.1-0.4,0.1-0.6c0-0.2,0.1-0.3,0.1-0.5
		c0,0,0,0,0,0c0.5-3-0.5-17.1-2.9-23.8c-0.3-0.8-1.2-1.4-2.4-1.3c-7.3,0.8-29.4-0.2-23.6,19.9v0c0,0,0.3,1.8,0.5,2.6
		c0,0.1,0,0.1,0.1,0.2c0.2,0.8,0.4,1.6,0.6,2.4c0,0.1,0,0.1,0,0.2c0.2,0.8,0.4,1.5,0.7,2.3c0,0,0,0.1,0,0.1
		c3.2,9.5,8.7,15.8,14.6,15.3c3.4-0.2,6.4-2.7,8.7-6.7c0,0,0,0,0,0c0,0,0-0.1,0-0.1c0.2-0.3,0.3-0.6,0.5-0.9
		C124.4,306.9,124.5,306.8,124.5,306.7z"/>
	<path class="st14" d="M3.7,323.5c0,0-1.5,0.7-2.2-0.4c-1.1-1.9-1.4-6.3-1.5-7.9c-0.1-1.8,0.9-10.1,0.9-10.1s1.7,2.6,1.3,6
		C1.7,316,3.7,323.5,3.7,323.5z"/>
	<path class="st14" d="M3.5,322.4c-1.4-2.8-0.7-6.4,1.2-10.4c1.8-3.8,0.5-6.2,0.5-6.2s-1.4,2.3-3.5,8.5c-0.6,1.7-1.1,3.7-1.1,5.5
		C0.8,325.3,7.1,329.7,3.5,322.4z"/>
	<path class="st14" d="M62.7,357.2c-8,5.9-15.1,26.8-20.6,40c-3.1,7.4-2,13.1-2,13.1s2.7,17.5,23.5-30.1
		C68.8,368.2,65.7,355,62.7,357.2z"/>
	<path class="st14" d="M3.6,318.9l-1.3,0.9l-0.9,5.4c0,0,2.4,9.5,4.6,12.8c2.2,3.3,11.1,29,12.6,30.1c2.6,2,7.8-5,7.8-5
		s-11.3-18-13.6-23.8c-2.3-5.8-2.7-15.1-3.5-17.4c-1.4-3.9-1.9-6-1.9-6s-2,1-0.2,7.3c0.5,1.7-1.6,1.3-1.6,1.3L3.6,318.9z"/>
	<polygon class="st15" points="77.7,387.3 132.8,386.8 139.5,323.8 74.2,330 	"/>
	<path class="st15" d="M135.9,574.9c-27.1,4.2-32,0.6-63.1-3.8c-2.9,0-15.6-30.2-6.7-110.2c1.8-16.5,14.3-29.7,11.4-74.4
		c18.5-0.4,37-0.7,55.5-1.1C125.7,426.1,169.8,432.5,135.9,574.9z"/>
	<path class="st15" d="M137.8,403.8l-7.8-55.2l1.9-22.3c1.3-1.3,2.9-2.2,4.8-2.4l1.2-0.2c4.8-0.6,9.2,3.5,9.7,9.1l6.1,75.6
		L137.8,403.8z"/>
	<path class="st15" d="M49.7,410.5l25-48.2l7.6-28.2c-1-1.4-2.4-2.5-4.1-3.2l-1.2-0.4c-4.5-1.7-9.6,0.6-11.3,5.1l-26.6,55.1
		L49.7,410.5z"/>
	<path class="st14" d="M3.2,325.7c0,0-1.5-4.8-0.8-7.2c0.5-1.7,4.4-9.1,4.4-9.1s0.7,3-0.8,6C3.7,319.8,3.2,325.7,3.2,325.7z"/>
	<path class="st14" d="M5.5,324.6c0,0,1.4,0.3,1.9-0.1c0,0.5-0.1,1-0.1,1.3c-0.1,0.8,0.4,6.5,0.4,6.5s-1.1-4-1.7-5.1
		c-0.4-0.7-0.8-2.4-1.1-3.8c0-0.2,0-0.5,0-0.8L5.5,324.6z"/>
	<path class="st14" d="M7.1,323.3c-1.2-4.2-0.7-6.1-0.3-6.8c0.3,1,0.8,2.6,1.6,4.8c0.3,0.8,0.5,2.4,0.8,4.5c0.1,0.4-1.4,0.8-2,4.2
		c-0.1,0.6-1.2-3.1-1.4-5.3C6.4,324.6,7.5,324.5,7.1,323.3z"/>
	<path class="st16" d="M110.9,301c-2.7-1.6-4.6-4.3-5-7.4l-4.2-28.8c-0.3-0.3-0.5-0.5-0.8-0.7l-0.5-0.1c-6.5-0.7-12.2,2.4-12.7,7
		L83.1,313c-0.4,3.6,2.4,6.9,6.7,8.6c0.7,0,1.5-0.1,2.2-0.2C101.3,320.1,108.4,311.8,110.9,301z"/>
	<polygon class="st17" points="93.1,346.2 150.7,340.5 131.1,415.5 78,421.1 	"/>
	<g>
		<path class="st14" d="M125.2,378.8c-6.5-10-4.7-17.3-5.8-22.2c-1.1-4.9-1.6-10.3-1.6-10.2c-2.5,4.7-0.5,8.1-0.7,10.5
			c-0.2,2.4,0.1,1.6-2.4-1.8c-1.5-2-0.5-7.6-0.4-11.3c0.1-3.2-0.6-4.7-0.6-4.7s-1.6,4.7-2.1,9.7c-0.6,6.1-0.1,12.7,0.2,14.2
			c0.6,2.6,4.7,9.5,8.4,13.9C124.3,381.8,129.9,386.1,125.2,378.8z"/>
		<path class="st14" d="M147.3,404.2c-14.2-17-32.9-36.3-32.9-36.3l25.8,44.1C140.2,412,154.4,412.7,147.3,404.2z"/>
		<path class="st15" d="M150.1,399.5c0,0,9.1,12.3,0.9,16.8c-4.7,2.6-8.4,1-11.1-2.8c-5-7-10.3-15.2-10.3-15.2l8.9-11.6L150.1,399.5
			z"/>
		<path class="st18" d="M111.5,358.8c0,0-2.7-9-2.5-10.9c0.1-1.3,1.7-7.6,1.7-7.6s1.2,3.2,0.7,5.8
			C111,348.6,111.5,358.8,111.5,358.8z"/>
	</g>
	<path class="st15" d="M24.9,358.2c0,0-11.3,5-9.9,9.9c1.4,5,14.9,43.9,23.3,47.4c8.5,3.5,12.7-7.8,13.4-10.6
		C52.5,402,24.9,358.2,24.9,358.2z"/>
</g>
</svg>
