<?xml version="1.0" encoding="utf-8"?>
<!-- Generator: Adobe Illustrator 21.0.0, SVG Export Plug-In . SVG Version: 6.00 Build 0)  -->
<svg version="1.1" id="dizajn" xmlns="http://www.w3.org/2000/svg" xmlns:xlink="http://www.w3.org/1999/xlink" x="0px" y="0px"
	 viewBox="0 0 1139.1 838.2" style="enable-background:new 0 0 1139.1 838.2;" xml:space="preserve">
<style type="text/css">
	.st0{fill:#D4EDFF;}
	.st1{fill:#8DCFFF;}
	.st2{fill:#194866;}
	.st3{fill:#E9D6B8;}
	.st4{fill:#B0BFDE;}
	.st5{fill:#161711;}
	.st6{fill:#D1DBEA;}
	.st7{fill:#163F59;}
	.st8{fill:#E2C59C;}
	.st9{fill:#387BFF;}
	.st10{fill:#0063CB;}
	.st11{fill:#FFFFFF;}
	.st12{fill:#0253A2;}
	.st13{fill:#E5E8EC;}
	.st14{enable-background:new    ;}
	.st15{fill:#73A9FF;}
</style>
<path class="st0" d="M834.2,707.3c0,0-9.5-1.8-23.2-10.2c-13.2-8-19.4-12.8-33-12.8c-13.6,0-32.5,12.8-58,4.8
	c-25.6-8-40.8-15.5-62.3-16.6c-21.5-1.1-64.7,14.4-83.8,18.7c-19.2,4.3-30.7-18.5-53.5-23c-32.7-6.4-43.9,14.4-59.9,24
	c-19.6,11.8-25.6,14.4-37.5,15C411,707.8,834.2,707.3,834.2,707.3z"/>
<path class="st0" d="M451.2,576.2h76.2c0-0.1,0-0.1,0-0.2c0-8.5-6.9-15.3-15.3-15.3c-1.4,0-2.8,0.2-4.1,0.6
	c-1.5-11-10.9-19.4-22.3-19.4c-12.4,0-22.5,10.1-22.5,22.5c0,0,0,0.1,0,0.1C457,565.1,452,570,451.2,576.2z"/>
<g>
	<path class="st1" d="M606,645.1c-2.6-5.1-7.4-0.6-11-0.2c-4,0.3-2.9-2.4-2.1-6.5c0.7-4.1,6.2-5.1,11.3-10.2
		c5.1-5.1-1.1-14.9-5.9-14.3c-4.8,0.7-4,5.3-7.3,5.4c-4.4,0.2-4.2-2.2-4-5.4c0.4-6.9,2.6-12.6,1.1-17.7c-0.9-3.3-4.4-6.2-7.8-7.4
		c0,0,0-0.1-0.1-0.1c-0.7-0.4-1.6-0.5-2.5-0.5c-0.9,0-1.8,0.1-2.5,0.5c0,0,0,0-0.1,0.1c-3.4,1.2-6.8,4.1-7.8,7.4
		c-1.5,5.1,0.7,10.8,1.1,17.7c0.2,3.2,0.4,5.7-4,5.4c-3.3-0.2-2.6-4.8-7.3-5.4c-4.8-0.7-11,9.2-5.9,14.3c5.1,5.1,10.6,6.1,11.3,10.2
		c0.7,4.1,1.9,6.8-2.1,6.5c-3.7-0.3-8.4-4.9-11,0.2c-2.6,5.1,0.7,19.8,14.7,22.8c7.8,1.7,11,6.2,13.6,5.8c2.6,0.4,5.8-4.1,13.6-5.8
		C605.2,664.9,608.5,650.2,606,645.1z"/>
	<g>
		<rect x="577.2" y="607.2" class="st2" width="0.8" height="104.6"/>
		
			<rect x="574.9" y="633.9" transform="matrix(0.7383 -0.6745 0.6745 0.7383 -274.5285 561.1219)" class="st2" width="21.8" height="0.8"/>
		<polygon class="st2" points="578,665.3 577.5,664.7 591,652.3 591.6,652.9 		"/>
		<polygon class="st2" points="577.3,642 577.8,641.4 561.7,626.7 561.2,627.3 		"/>
		
			<rect x="570.4" y="649.6" transform="matrix(0.6731 -0.7395 0.7395 0.6731 -300.6581 637.453)" class="st2" width="0.8" height="18.4"/>
	</g>
</g>
<g>
	<path class="st3" d="M879.7,288.8l5.4-71.2c0,0,21,50.5,14.4,72.3C892.9,311.6,879.7,288.8,879.7,288.8z"/>
	<path class="st3" d="M1044.8,310.7l44.6-53.1c0,0-14.5,54-25.7,66.6C1052.5,336.9,1044.8,310.7,1044.8,310.7z"/>
	<g>
		<path class="st3" d="M1081.1,268.8c0,0-7.8-9.3-7-12.8c0.8-3.4,4.8-15.7,4.8-15.7l1.3-3.1c0,0,4.3-0.6,1.5,7.6
			c-2.7,8.3,0.9,4.8,0.9,4.8l5.4-6.7l7.3-7.7l2.8-3.8c0,0,1.4-2.3,2.2-2.5c2.3-0.8,2,1.2,2,1.2l-9.6,15.6l12.9-12.3
			c0,0,1.9-1.3,2.9-0.7c0.9,0.6,0.4,1.1,0.4,1.1l-11.3,17l7.4-5.6c0,0,1.9-1.2,2.9-0.7c1.1,0.6,1.4,0.7,1.4,0.7l-25.4,25.3
			L1081.1,268.8z"/>
		<path class="st3" d="M1095.9,247.1l9.6-8.2c0,0,1.9-2,3.4-2.5c1.7-0.5,2.2,0.9,2.2,0.9l-13.2,13.6L1095.9,247.1z"/>
	</g>
	<g>
		<path class="st3" d="M887.6,232.9c0,0,10.3-6.7,10.5-10.2c0.2-3.5,0-16.2,0-16.2l-0.4-3.3c0,0-4-1.8-3.7,6.8
			c0.2,8.6-2.3,4.4-2.3,4.4l-3.3-7.8l-4.8-9.3l-1.6-4.4c0,0-0.7-2.5-1.4-3c-2-1.4-2.3,0.6-2.3,0.6l4.7,17.4l-8.9-15.1
			c0,0-1.4-1.8-2.6-1.5c-1.1,0.3-0.8,1-0.8,1l5.9,19.2l-5.5-7.3c0,0-1.5-1.7-2.6-1.4c-1.3,0.3-1.6,0.3-1.6,0.3l17.1,30.9
			L887.6,232.9z"/>
		<path class="st3" d="M879.7,208.3l-6.9-10.3c0,0-1.3-2.5-2.6-3.3c-1.5-0.9-2.4,0.3-2.4,0.3l8.8,16.5L879.7,208.3z"/>
	</g>
	<polygon class="st4" points="941.9,353.1 907.3,309.2 905,294.7 908.8,295.2 904.7,281 875.7,280.1 873.6,302.6 877.6,303.5 
		878.2,316.7 883.6,320.2 903.7,385 	"/>
	<path class="st5" d="M996.8,791.5l-1,14.2l0.8,12l4.5,3.8l3.6,1.6l0.8,2.1l11.6,10c3.2,1.9,8,3.4,14.2,2.9c2.1-0.2,0.1-5.8-0.5-6.7
		c-3.3-5.1-8.8-11-8.8-11l-8.2-13.2l-9-16.3L996.8,791.5z"/>
	<path class="st5" d="M897.5,778.5l2.3,6.1l0.7,6.6l-1.8,10h-5.9l-4.2-1.5l-3.1,1.5c0,0-16.7,0.7-22.8,0.1
		c-10.2-1.1-15.6-2.9-17.2-5c-0.9-1.2,4.1-2.6,5.7-2.6c9.2,0,19.5-4.1,19.5-4.1l8.6-6.9l2.3-5.4L897.5,778.5z"/>
	<path class="st6" d="M1010.8,358.7l-74-13.4c0,0-62.7,28.2-55.7,149.3c0,0.6,92,24.7,91.8,1.5
		C972.5,438.3,1010.8,358.7,1010.8,358.7z"/>
	<polygon class="st6" points="985.9,366.2 1037.8,313.4 1035.4,311.5 1049.6,301.7 1079.1,319.5 1066,337 1062,333.5 1055,328.8 
		1061.7,335.2 1050.9,356 1035.3,374.5 983,423.1 	"/>
	<g>
		<polygon class="st7" points="969.5,497.5 1018.3,807.5 994.5,805.3 964.6,700.1 958.3,668.8 922.7,544.3 918.5,492.1 		"/>
		<polygon class="st7" points="901.8,780.2 896.2,671.8 911.4,614 931.3,534.7 925.3,492.7 881.5,488.5 876.3,519.5 862.5,648.2 
			859.4,679.5 873.2,783.1 		"/>
	</g>
	<g>
		<path class="st3" d="M959.3,328.3c-3.7,15.7-4.9,23.8-4.6,24.9c2.2,7.6,24.2,5.4,24.4,1.1c0.2-4.4,7.5-22.3,9.2-24.8
			C990.1,327,961.5,319,959.3,328.3z"/>
		<path class="st8" d="M973.4,324.2c5.5,0.9,10.6,2.3,13.3,3.6c-2.5,4.4-5.2,8.8-7.2,11.6c-5.6,7.7-14.4,8.1-20.2,9
			c-1.3,0.2-2.7,0.1-4.2-0.1c0.4-2.8,1.6-8.6,4.3-20C960.3,324.1,966.8,323.5,973.4,324.2z"/>
		<path class="st3" d="M969.1,285.9l-21.9,38c0,0-5.2,9-2.3,12.2c2.9,3.2,13,7.6,18.8,6.7c5.8-0.9,14.6-1.4,20.2-9
			c5.6-7.7,15.9-27.7,15.9-27.7s0.8-8-14.1-10.7C970.8,292.7,969.1,285.9,969.1,285.9z"/>
		<path class="st2" d="M975.7,277.4c-2-0.4-5.7-0.7-8,1.8c-2.4,2.5-2,8.4,0.3,10.4c2.3,2,19.5,11,22,11.4c2.5,0.4,7,1.6,10.6-0.5
			c2.3-1.4-1.7-9.1-6.1-10C983,288.1,983.2,279.1,975.7,277.4z"/>
		<path class="st2" d="M996,298.4l-9.4,16.4l-3.6,9.4l2,1.1l3.7,1.9c0,0,19.1-19.4,14.8-25C999.2,296.7,997.1,297.3,996,298.4z"/>
		<path class="st3" d="M984.2,327c-0.8,1.4-0.3,3.2,1.2,4l1.6,0.8c1.5,0.8,3.4,0.3,4.2-1.2l3.5-6c0.8-1.4,0.3-3.2-1.2-4l-1.6-0.8
			c-1.5-0.8-3.4-0.3-4.2,1.2L984.2,327z"/>
	</g>
	<path class="st9" d="M957.3,356.9c0,0-42.6,43.9-52.9,102.9c-0.8,4.7,3,9.2,3,9.2l8.5-4.6C916,464.4,935.5,399.9,957.3,356.9z"/>
	<polygon class="st4" points="957.9,356.6 956.3,366.6 980,356.2 979.3,353.5 	"/>
	<polygon class="st4" points="954.6,350.2 948,360.5 957.7,356.4 	"/>
</g>
<g>
	<g>
		<ellipse class="st10" cx="1003.8" cy="135.3" rx="135.3" ry="135.3"/>
		<path class="st11" d="M1103.8,135.3c0,55.2-44.8,100-100,100c-55.3,0-100-44.8-100-100c0-55.2,44.8-100,100-100
			C1059.1,35.3,1103.8,80,1103.8,135.3z"/>
		<path class="st10" d="M1068.6,135.3c0,35.8-29,64.8-64.8,64.8c-35.8,0-64.8-29-64.8-64.8c0-35.8,29-64.8,64.8-64.8
			C1039.6,70.5,1068.6,99.5,1068.6,135.3z"/>
		<path class="st11" d="M1033.3,135.3c0,16.3-13.2,29.5-29.5,29.5c-16.3,0-29.5-13.2-29.5-29.5c0-16.3,13.2-29.5,29.5-29.5
			C1020.1,105.7,1033.3,119,1033.3,135.3z"/>
		<path class="st12" d="M1003.8,0v35.3c55.2,0,100,44.8,100,100c0,55.2-44.8,100-100,100v35.2c74.7,0,135.3-60.6,135.3-135.3
			C1139.1,60.6,1078.5,0,1003.8,0z"/>
		<path class="st3" d="M1003.8,105.7c16.3,0,29.5,13.2,29.5,29.5c0,16.3-13.2,29.5-29.5,29.5V105.7z"/>
		<path class="st12" d="M1003.8,70.5v35.2c16.3,0,29.5,13.2,29.5,29.5c0,16.3-13.2,29.5-29.5,29.5V200c35.8,0,64.8-29,64.8-64.8
			C1068.6,99.5,1039.6,70.5,1003.8,70.5z"/>
		<g>
			<path class="st13" d="M1033.3,135.3c0-16.3-13.2-29.5-29.5-29.5v59C1020.1,164.8,1033.3,151.6,1033.3,135.3z"/>
			<path class="st13" d="M1003.8,35.3v35.3c35.8,0,64.8,29,64.8,64.8c0,35.8-29,64.8-64.8,64.8v35.3c55.2,0,100-44.8,100-100
				C1103.8,80,1059.1,35.3,1003.8,35.3z"/>
		</g>
	</g>
</g>
<g>
	<g class="st14">
		<g>
			<polygon class="st15" points="842.3,246.1 801.9,241.7 800.9,203 841.3,207.4 			"/>
		</g>
		<g>
			<polygon class="st15" points="788.7,161.1 748.2,156.8 824.9,151.3 865.3,155.6 			"/>
		</g>
		<g>
			<polygon class="st15" points="677.6,371.9 637.2,367.5 782.5,183.6 822.9,188 			"/>
		</g>
		<g>
			<polygon class="st15" points="789.4,190.4 749,186 748.2,156.8 788.7,161.1 			"/>
		</g>
		<g>
			<polygon class="st15" points="678.7,413.2 638.3,408.9 521.5,286 561.9,290.3 			"/>
		</g>
		<g>
			<polygon class="st15" points="354.5,510.1 314.1,505.7 520.4,244.6 560.8,249 			"/>
		</g>
		<g>
			<polygon class="st15" points="355.6,551.5 315.2,547.1 237,464.8 277.4,469.1 			"/>
		</g>
		<g>
			<polygon class="st15" points="40.4,726.4 0,722.1 235.9,423.4 276.3,427.8 			"/>
		</g>
		<g>
			<polygon class="st1" points="865.3,155.6 867.6,244.2 842.3,246.1 841.3,207.4 678.7,413.2 561.9,290.3 355.6,551.5 277.4,469.1 
				76.2,723.8 40.4,726.4 276.3,427.8 354.5,510.1 560.8,249 677.6,371.9 822.9,188 789.4,190.4 788.7,161.1 			"/>
		</g>
	</g>
</g>
</svg>
