<?xml version="1.0" encoding="utf-8"?>
<!-- Generator: Adobe Illustrator 21.0.0, SVG Export Plug-In . SVG Version: 6.00 Build 0)  -->
<svg version="1.1" id="Layer_1" xmlns="http://www.w3.org/2000/svg" xmlns:xlink="http://www.w3.org/1999/xlink" x="0px" y="0px"
	 viewBox="0 0 2340 1560" style="enable-background:new 0 0 2340 1560;" xml:space="preserve">
<style type="text/css">
	.st0{opacity:0.3;fill:#DFE3F2;}
	.st1{opacity:0.8;fill:#E6E6E7;}
	.st2{opacity:0.5;fill:#8B8AC0;}
	.st3{fill:none;stroke:#DEA437;stroke-width:3;stroke-miterlimit:10;stroke-dasharray:5;}
	.st4{fill:#D8DDEB;}
	.st5{opacity:0.3;fill:#BAC2D6;}
	.st6{fill:#A3B0CA;}
	.st7{fill:none;stroke:#DEA437;stroke-width:5;stroke-miterlimit:10;stroke-dasharray:5;}
	.st8{fill:#FFFFFF;}
	.st9{fill:#E2E8F3;}
	.st10{fill:#EEBF57;}
	.st11{fill:#8B8AC0;}
	.st12{fill:#6464AA;}
	.st13{fill:#E0922E;}
	.st14{fill:#58595B;}
	.st15{opacity:0.5;fill:#AA6530;}
	.st16{fill:url(#SVGID_1_);}
	.st17{fill:#4D519C;}
	.st18{fill:#BBBCBE;}
	.st19{fill:#424243;}
	.st20{fill:url(#SVGID_2_);}
	.st21{fill:none;}
	.st22{fill:#E7B476;}
	.st23{opacity:0.5;fill:#E0922E;}
	.st24{fill:#F1CB8B;}
	.st25{fill:#1A1A1A;}
	.st26{fill:url(#SVGID_3_);}
	.st27{fill:#E6E6E7;}
	.st28{fill:#9B9B9B;}
	.st29{fill:url(#SVGID_4_);}
	.st30{fill:url(#SVGID_5_);}
	.st31{fill:url(#SVGID_6_);}
	.st32{fill:url(#SVGID_7_);}
	.st33{fill:url(#SVGID_8_);}
	.st34{fill:url(#SVGID_9_);}
	.st35{fill:url(#SVGID_10_);}
	.st36{fill:#4F7B6A;}
	.st37{fill:#151939;}
	.st38{fill:url(#SVGID_11_);}
	.st39{fill:#3C4F80;}
</style>
<path class="st0" d="M1075.6,139.2c-164.1,88.7-194.1,341.7-680,307.2c-94.6-6.7-367-56.9-160.7,343.8s127.5,432.8,57.4,501.1
	s-117,327.7,284.4,207.5s847.6-100.8,957.4-37.7s643.6,151.5,652.5-238.7c7.3-321.2-100.3-306.9-192.6-355.5
	c-69.8-36.8-81.6-115.5,17.8-314.9C2111.3,352.5,1710.3-204,1075.6,139.2z"/>
<ellipse class="st1" cx="1253.7" cy="1312.1" rx="238.7" ry="30.8"/>
<ellipse class="st1" cx="759.8" cy="1295.5" rx="380.8" ry="23.7"/>
<ellipse class="st1" cx="1770.2" cy="1295.5" rx="394.8" ry="23.7"/>
<polygon class="st2" points="1068.6,1380.3 1035.7,1366.8 1038.5,1375 1060.1,1383.2 1048.1,1402.9 1050.9,1411.1 "/>
<path class="st3" d="M1602.3,149.9c0,0-31.8,469.9-660.3,319.5S357.9,803,357.9,803"/>
<g>
	<g>
		<path class="st4" d="M1371.5,1287.8h-247c-2.2,0-3.9-1.8-3.9-3.9V933.8c0-2.2,1.8-3.9,3.9-3.9h247c2.2,0,3.9,1.8,3.9,3.9v350.1
			C1375.4,1286.1,1373.7,1287.8,1371.5,1287.8z"/>
		<path class="st5" d="M1365.1,1274.8h-232.2c-1.2,0-2.2-1-2.2-2.2v-94.4c0-1.2,1-2.2,2.2-2.2h232.2c1.2,0,2.2,1,2.2,2.2v94.4
			C1367.4,1273.8,1366.4,1274.8,1365.1,1274.8z"/>
		<path class="st5" d="M1363.2,1156.3h-228.4c-2.3,0-4.1-1.9-4.1-4.1v-90.6c0-2.3,1.9-4.1,4.1-4.1h228.4c2.3,0,4.1,1.9,4.1,4.1v90.6
			C1367.4,1154.5,1365.5,1156.3,1363.2,1156.3z"/>
		<path class="st5" d="M1362.4,1037.8h-226.7c-2.7,0-5-2.2-5-5v-89c0-2.7,2.2-5,5-5h226.7c2.7,0,5,2.2,5,5v89
			C1367.4,1035.6,1365.1,1037.8,1362.4,1037.8z"/>
		<path class="st6" d="M1286.5,1018.5h-71.2c-0.6,0-1-0.5-1-1v-6.6c0-0.6,0.5-1,1-1h71.2c0.6,0,1,0.5,1,1v6.6
			C1287.5,1018,1287.1,1018.5,1286.5,1018.5z"/>
		<path class="st6" d="M1286.5,1140.9h-71.2c-0.6,0-1-0.5-1-1v-6.6c0-0.6,0.5-1,1-1h71.2c0.6,0,1,0.5,1,1v6.6
			C1287.5,1140.4,1287.1,1140.9,1286.5,1140.9z"/>
		<path class="st6" d="M1286.5,1265.1h-71.2c-0.6,0-1-0.5-1-1v-6.6c0-0.6,0.5-1,1-1h71.2c0.6,0,1,0.5,1,1v6.6
			C1287.5,1264.7,1287.1,1265.1,1286.5,1265.1z"/>
	</g>
</g>
<path class="st7" d="M845.6,1324.7c0,0,159.5,225.5,470.2,54.6s388.4,69.2,532,64s307.4-120.2,193.2-569.6"/>
<g>
	<g>
		<path class="st4" d="M1068.8,1287.8H539.5c-19.5,0-35.4-15.8-35.4-35.4V350.9c0-19.5,15.8-35.4,35.4-35.4h529.3
			c19.5,0,35.4,15.8,35.4,35.4v901.5C1104.2,1272,1088.4,1287.8,1068.8,1287.8z"/>
		<g>
			<path class="st8" d="M1051.1,340.5H557.2c-18.3,0-33.1,14.8-33.1,33.1v92.4c0,18.3,14.8,33.1,33.1,33.1h493.9
				c18.3,0,33.1-14.8,33.1-33.1v-92.4C1084.2,355.3,1069.4,340.5,1051.1,340.5z"/>
			<path class="st8" d="M1051.1,531.7H557.2c-18.3,0-33.1,14.8-33.1,33.1v92.4c0,18.3,14.8,33.1,33.1,33.1h493.9
				c18.3,0,33.1-14.8,33.1-33.1v-92.4C1084.2,546.6,1069.4,531.7,1051.1,531.7z"/>
			<path class="st8" d="M1051.1,723H557.2c-18.3,0-33.1,14.8-33.1,33.1v92.4c0,18.3,14.8,33.1,33.1,33.1h493.9
				c18.3,0,33.1-14.8,33.1-33.1v-92.4C1084.2,737.8,1069.4,723,1051.1,723z"/>
			<path class="st8" d="M1051.1,914.2H557.2c-18.3,0-33.1,14.8-33.1,33.1v92.4c0,18.3,14.8,33.1,33.1,33.1h493.9
				c18.3,0,33.1-14.8,33.1-33.1v-92.4C1084.2,929,1069.4,914.2,1051.1,914.2z"/>
			<path class="st8" d="M1051.1,1105.4H557.2c-18.3,0-33.1,14.8-33.1,33.1v92.4c0,18.3,14.8,33.1,33.1,33.1h493.9
				c18.3,0,33.1-14.8,33.1-33.1v-92.4C1084.2,1120.3,1069.4,1105.4,1051.1,1105.4z"/>
		</g>
		<g>
			<g>
				<rect x="954.5" y="359.4" class="st4" width="87.8" height="125.5"/>
				<polygon class="st9" points="954.5,359.4 1042.2,484.9 1042.2,359.4 				"/>
			</g>
			<g>
				<path class="st10" d="M578.6,387.1h-9c-1.9,0-3.4-1.5-3.4-3.4v-20.8c0-1.9,1.5-3.4,3.4-3.4h9c1.9,0,3.4,1.5,3.4,3.4v20.8
					C582,385.6,580.5,387.1,578.6,387.1z"/>
				<path class="st4" d="M578.6,484.9h-9c-1.9,0-3.4-1.5-3.4-3.4v-82.1c0-1.9,1.5-3.4,3.4-3.4h9c1.9,0,3.4,1.5,3.4,3.4v82.1
					C582,483.4,580.5,484.9,578.6,484.9z"/>
				<path class="st4" d="M671.9,484.9h-9c-1.9,0-3.4-1.5-3.4-3.4v-82.1c0-1.9,1.5-3.4,3.4-3.4h9c1.9,0,3.4,1.5,3.4,3.4v82.1
					C675.4,483.4,673.8,484.9,671.9,484.9z"/>
				<path class="st4" d="M732.3,484.9h-9c-1.9,0-3.4-1.5-3.4-3.4v-82.1c0-1.9,1.5-3.4,3.4-3.4h9c1.9,0,3.4,1.5,3.4,3.4v82.1
					C735.7,483.4,734.2,484.9,732.3,484.9z"/>
				<path class="st4" d="M792.7,484.9h-9c-1.9,0-3.4-1.5-3.4-3.4v-82.1c0-1.9,1.5-3.4,3.4-3.4h9c1.9,0,3.4,1.5,3.4,3.4v82.1
					C796.1,483.4,794.6,484.9,792.7,484.9z"/>
				<path class="st4" d="M853,484.9h-9c-1.9,0-3.4-1.5-3.4-3.4v-82.1c0-1.9,1.5-3.4,3.4-3.4h9c1.9,0,3.4,1.5,3.4,3.4v82.1
					C856.5,483.4,854.9,484.9,853,484.9z"/>
				<path class="st4" d="M913.4,484.9h-9c-1.9,0-3.4-1.5-3.4-3.4v-82.1c0-1.9,1.5-3.4,3.4-3.4h9c1.9,0,3.4,1.5,3.4,3.4v82.1
					C916.8,483.4,915.3,484.9,913.4,484.9z"/>
				<path class="st11" d="M671.9,387.1h-9c-1.9,0-3.4-1.5-3.4-3.4v-20.8c0-1.9,1.5-3.4,3.4-3.4h9c1.9,0,3.4,1.5,3.4,3.4v20.8
					C675.4,385.6,673.8,387.1,671.9,387.1z"/>
				<path class="st11" d="M732.3,387.1h-9c-1.9,0-3.4-1.5-3.4-3.4v-20.8c0-1.9,1.5-3.4,3.4-3.4h9c1.9,0,3.4,1.5,3.4,3.4v20.8
					C735.7,385.6,734.2,387.1,732.3,387.1z"/>
				<path class="st11" d="M792.7,387.1h-9c-1.9,0-3.4-1.5-3.4-3.4v-20.8c0-1.9,1.5-3.4,3.4-3.4h9c1.9,0,3.4,1.5,3.4,3.4v20.8
					C796.1,385.6,794.6,387.1,792.7,387.1z"/>
				<path class="st11" d="M853,387.1h-9c-1.9,0-3.4-1.5-3.4-3.4v-20.8c0-1.9,1.5-3.4,3.4-3.4h9c1.9,0,3.4,1.5,3.4,3.4v20.8
					C856.5,385.6,854.9,387.1,853,387.1z"/>
				<path class="st11" d="M913.4,387.1h-9c-1.9,0-3.4-1.5-3.4-3.4v-20.8c0-1.9,1.5-3.4,3.4-3.4h9c1.9,0,3.4,1.5,3.4,3.4v20.8
					C916.8,385.6,915.3,387.1,913.4,387.1z"/>
			</g>
		</g>
		<g>
			<g>
				<rect x="954.5" y="548.3" class="st4" width="87.8" height="125.5"/>
				<polygon class="st9" points="954.5,548.3 1042.2,673.8 1042.2,548.3 				"/>
			</g>
			<g>
				<path class="st10" d="M578.6,576h-9c-1.9,0-3.4-1.5-3.4-3.4v-20.8c0-1.9,1.5-3.4,3.4-3.4h9c1.9,0,3.4,1.5,3.4,3.4v20.8
					C582,574.5,580.5,576,578.6,576z"/>
				<path class="st4" d="M578.6,673.8h-9c-1.9,0-3.4-1.5-3.4-3.4v-82.1c0-1.9,1.5-3.4,3.4-3.4h9c1.9,0,3.4,1.5,3.4,3.4v82.1
					C582,672.3,580.5,673.8,578.6,673.8z"/>
				<path class="st4" d="M671.9,673.8h-9c-1.9,0-3.4-1.5-3.4-3.4v-82.1c0-1.9,1.5-3.4,3.4-3.4h9c1.9,0,3.4,1.5,3.4,3.4v82.1
					C675.4,672.3,673.8,673.8,671.9,673.8z"/>
				<path class="st4" d="M732.3,673.8h-9c-1.9,0-3.4-1.5-3.4-3.4v-82.1c0-1.9,1.5-3.4,3.4-3.4h9c1.9,0,3.4,1.5,3.4,3.4v82.1
					C735.7,672.3,734.2,673.8,732.3,673.8z"/>
				<path class="st4" d="M792.7,673.8h-9c-1.9,0-3.4-1.5-3.4-3.4v-82.1c0-1.9,1.5-3.4,3.4-3.4h9c1.9,0,3.4,1.5,3.4,3.4v82.1
					C796.1,672.3,794.6,673.8,792.7,673.8z"/>
				<path class="st4" d="M853,673.8h-9c-1.9,0-3.4-1.5-3.4-3.4v-82.1c0-1.9,1.5-3.4,3.4-3.4h9c1.9,0,3.4,1.5,3.4,3.4v82.1
					C856.5,672.3,854.9,673.8,853,673.8z"/>
				<path class="st4" d="M913.4,673.8h-9c-1.9,0-3.4-1.5-3.4-3.4v-82.1c0-1.9,1.5-3.4,3.4-3.4h9c1.9,0,3.4,1.5,3.4,3.4v82.1
					C916.8,672.3,915.3,673.8,913.4,673.8z"/>
				<path class="st11" d="M671.9,576h-9c-1.9,0-3.4-1.5-3.4-3.4v-20.8c0-1.9,1.5-3.4,3.4-3.4h9c1.9,0,3.4,1.5,3.4,3.4v20.8
					C675.4,574.5,673.8,576,671.9,576z"/>
				<path class="st11" d="M732.3,576h-9c-1.9,0-3.4-1.5-3.4-3.4v-20.8c0-1.9,1.5-3.4,3.4-3.4h9c1.9,0,3.4,1.5,3.4,3.4v20.8
					C735.7,574.5,734.2,576,732.3,576z"/>
				<path class="st11" d="M792.7,576h-9c-1.9,0-3.4-1.5-3.4-3.4v-20.8c0-1.9,1.5-3.4,3.4-3.4h9c1.9,0,3.4,1.5,3.4,3.4v20.8
					C796.1,574.5,794.6,576,792.7,576z"/>
				<path class="st11" d="M853,576h-9c-1.9,0-3.4-1.5-3.4-3.4v-20.8c0-1.9,1.5-3.4,3.4-3.4h9c1.9,0,3.4,1.5,3.4,3.4v20.8
					C856.5,574.5,854.9,576,853,576z"/>
				<path class="st11" d="M913.4,576h-9c-1.9,0-3.4-1.5-3.4-3.4v-20.8c0-1.9,1.5-3.4,3.4-3.4h9c1.9,0,3.4,1.5,3.4,3.4v20.8
					C916.8,574.5,915.3,576,913.4,576z"/>
			</g>
		</g>
		<g>
			<g>
				<rect x="954.5" y="739.6" class="st4" width="87.8" height="125.5"/>
				<polygon class="st9" points="954.5,739.6 1042.2,865.1 1042.2,739.6 				"/>
			</g>
			<g>
				<path class="st10" d="M578.6,767.2h-9c-1.9,0-3.4-1.5-3.4-3.4V743c0-1.9,1.5-3.4,3.4-3.4h9c1.9,0,3.4,1.5,3.4,3.4v20.8
					C582,765.7,580.5,767.2,578.6,767.2z"/>
				<path class="st4" d="M578.6,865.1h-9c-1.9,0-3.4-1.5-3.4-3.4v-82.1c0-1.9,1.5-3.4,3.4-3.4h9c1.9,0,3.4,1.5,3.4,3.4v82.1
					C582,863.5,580.5,865.1,578.6,865.1z"/>
				<path class="st4" d="M671.9,865.1h-9c-1.9,0-3.4-1.5-3.4-3.4v-82.1c0-1.9,1.5-3.4,3.4-3.4h9c1.9,0,3.4,1.5,3.4,3.4v82.1
					C675.4,863.5,673.8,865.1,671.9,865.1z"/>
				<path class="st4" d="M732.3,865.1h-9c-1.9,0-3.4-1.5-3.4-3.4v-82.1c0-1.9,1.5-3.4,3.4-3.4h9c1.9,0,3.4,1.5,3.4,3.4v82.1
					C735.7,863.5,734.2,865.1,732.3,865.1z"/>
				<path class="st4" d="M792.7,865.1h-9c-1.9,0-3.4-1.5-3.4-3.4v-82.1c0-1.9,1.5-3.4,3.4-3.4h9c1.9,0,3.4,1.5,3.4,3.4v82.1
					C796.1,863.5,794.6,865.1,792.7,865.1z"/>
				<path class="st4" d="M853,865.1h-9c-1.9,0-3.4-1.5-3.4-3.4v-82.1c0-1.9,1.5-3.4,3.4-3.4h9c1.9,0,3.4,1.5,3.4,3.4v82.1
					C856.5,863.5,854.9,865.1,853,865.1z"/>
				<path class="st4" d="M913.4,865.1h-9c-1.9,0-3.4-1.5-3.4-3.4v-82.1c0-1.9,1.5-3.4,3.4-3.4h9c1.9,0,3.4,1.5,3.4,3.4v82.1
					C916.8,863.5,915.3,865.1,913.4,865.1z"/>
				<path class="st11" d="M671.9,767.2h-9c-1.9,0-3.4-1.5-3.4-3.4V743c0-1.9,1.5-3.4,3.4-3.4h9c1.9,0,3.4,1.5,3.4,3.4v20.8
					C675.4,765.7,673.8,767.2,671.9,767.2z"/>
				<path class="st11" d="M732.3,767.2h-9c-1.9,0-3.4-1.5-3.4-3.4V743c0-1.9,1.5-3.4,3.4-3.4h9c1.9,0,3.4,1.5,3.4,3.4v20.8
					C735.7,765.7,734.2,767.2,732.3,767.2z"/>
				<path class="st11" d="M792.7,767.2h-9c-1.9,0-3.4-1.5-3.4-3.4V743c0-1.9,1.5-3.4,3.4-3.4h9c1.9,0,3.4,1.5,3.4,3.4v20.8
					C796.1,765.7,794.6,767.2,792.7,767.2z"/>
				<path class="st11" d="M853,767.2h-9c-1.9,0-3.4-1.5-3.4-3.4V743c0-1.9,1.5-3.4,3.4-3.4h9c1.9,0,3.4,1.5,3.4,3.4v20.8
					C856.5,765.7,854.9,767.2,853,767.2z"/>
				<path class="st11" d="M913.4,767.2h-9c-1.9,0-3.4-1.5-3.4-3.4V743c0-1.9,1.5-3.4,3.4-3.4h9c1.9,0,3.4,1.5,3.4,3.4v20.8
					C916.8,765.7,915.3,767.2,913.4,767.2z"/>
			</g>
		</g>
		<g>
			<g>
				<rect x="954.5" y="930.8" class="st4" width="87.8" height="125.5"/>
				<polygon class="st9" points="954.5,930.8 1042.2,1056.3 1042.2,930.8 				"/>
			</g>
			<g>
				<path class="st10" d="M578.6,958.4h-9c-1.9,0-3.4-1.5-3.4-3.4v-20.8c0-1.9,1.5-3.4,3.4-3.4h9c1.9,0,3.4,1.5,3.4,3.4V955
					C582,956.9,580.5,958.4,578.6,958.4z"/>
				<path class="st4" d="M578.6,1056.3h-9c-1.9,0-3.4-1.5-3.4-3.4v-82.1c0-1.9,1.5-3.4,3.4-3.4h9c1.9,0,3.4,1.5,3.4,3.4v82.1
					C582,1054.8,580.5,1056.3,578.6,1056.3z"/>
				<path class="st4" d="M671.9,1056.3h-9c-1.9,0-3.4-1.5-3.4-3.4v-82.1c0-1.9,1.5-3.4,3.4-3.4h9c1.9,0,3.4,1.5,3.4,3.4v82.1
					C675.4,1054.8,673.8,1056.3,671.9,1056.3z"/>
				<path class="st4" d="M732.3,1056.3h-9c-1.9,0-3.4-1.5-3.4-3.4v-82.1c0-1.9,1.5-3.4,3.4-3.4h9c1.9,0,3.4,1.5,3.4,3.4v82.1
					C735.7,1054.8,734.2,1056.3,732.3,1056.3z"/>
				<path class="st4" d="M792.7,1056.3h-9c-1.9,0-3.4-1.5-3.4-3.4v-82.1c0-1.9,1.5-3.4,3.4-3.4h9c1.9,0,3.4,1.5,3.4,3.4v82.1
					C796.1,1054.8,794.6,1056.3,792.7,1056.3z"/>
				<path class="st4" d="M853,1056.3h-9c-1.9,0-3.4-1.5-3.4-3.4v-82.1c0-1.9,1.5-3.4,3.4-3.4h9c1.9,0,3.4,1.5,3.4,3.4v82.1
					C856.5,1054.8,854.9,1056.3,853,1056.3z"/>
				<path class="st4" d="M913.4,1056.3h-9c-1.9,0-3.4-1.5-3.4-3.4v-82.1c0-1.9,1.5-3.4,3.4-3.4h9c1.9,0,3.4,1.5,3.4,3.4v82.1
					C916.8,1054.8,915.3,1056.3,913.4,1056.3z"/>
				<path class="st11" d="M671.9,958.4h-9c-1.9,0-3.4-1.5-3.4-3.4v-20.8c0-1.9,1.5-3.4,3.4-3.4h9c1.9,0,3.4,1.5,3.4,3.4V955
					C675.4,956.9,673.8,958.4,671.9,958.4z"/>
				<path class="st11" d="M732.3,958.4h-9c-1.9,0-3.4-1.5-3.4-3.4v-20.8c0-1.9,1.5-3.4,3.4-3.4h9c1.9,0,3.4,1.5,3.4,3.4V955
					C735.7,956.9,734.2,958.4,732.3,958.4z"/>
				<path class="st11" d="M792.7,958.4h-9c-1.9,0-3.4-1.5-3.4-3.4v-20.8c0-1.9,1.5-3.4,3.4-3.4h9c1.9,0,3.4,1.5,3.4,3.4V955
					C796.1,956.9,794.6,958.4,792.7,958.4z"/>
				<path class="st11" d="M853,958.4h-9c-1.9,0-3.4-1.5-3.4-3.4v-20.8c0-1.9,1.5-3.4,3.4-3.4h9c1.9,0,3.4,1.5,3.4,3.4V955
					C856.5,956.9,854.9,958.4,853,958.4z"/>
				<path class="st11" d="M913.4,958.4h-9c-1.9,0-3.4-1.5-3.4-3.4v-20.8c0-1.9,1.5-3.4,3.4-3.4h9c1.9,0,3.4,1.5,3.4,3.4V955
					C916.8,956.9,915.3,958.4,913.4,958.4z"/>
			</g>
		</g>
		<g>
			<g>
				<rect x="954.5" y="1122" class="st4" width="87.8" height="125.5"/>
				<polygon class="st9" points="954.5,1122 1042.2,1247.5 1042.2,1122 				"/>
			</g>
			<g>
				<path class="st10" d="M578.6,1149.7h-9c-1.9,0-3.4-1.5-3.4-3.4v-20.8c0-1.9,1.5-3.4,3.4-3.4h9c1.9,0,3.4,1.5,3.4,3.4v20.8
					C582,1148.1,580.5,1149.7,578.6,1149.7z"/>
				<path class="st4" d="M578.6,1247.5h-9c-1.9,0-3.4-1.5-3.4-3.4V1162c0-1.9,1.5-3.4,3.4-3.4h9c1.9,0,3.4,1.5,3.4,3.4v82.1
					C582,1246,580.5,1247.5,578.6,1247.5z"/>
				<path class="st4" d="M671.9,1247.5h-9c-1.9,0-3.4-1.5-3.4-3.4V1162c0-1.9,1.5-3.4,3.4-3.4h9c1.9,0,3.4,1.5,3.4,3.4v82.1
					C675.4,1246,673.8,1247.5,671.9,1247.5z"/>
				<path class="st4" d="M732.3,1247.5h-9c-1.9,0-3.4-1.5-3.4-3.4V1162c0-1.9,1.5-3.4,3.4-3.4h9c1.9,0,3.4,1.5,3.4,3.4v82.1
					C735.7,1246,734.2,1247.5,732.3,1247.5z"/>
				<path class="st4" d="M792.7,1247.5h-9c-1.9,0-3.4-1.5-3.4-3.4V1162c0-1.9,1.5-3.4,3.4-3.4h9c1.9,0,3.4,1.5,3.4,3.4v82.1
					C796.1,1246,794.6,1247.5,792.7,1247.5z"/>
				<path class="st4" d="M853,1247.5h-9c-1.9,0-3.4-1.5-3.4-3.4V1162c0-1.9,1.5-3.4,3.4-3.4h9c1.9,0,3.4,1.5,3.4,3.4v82.1
					C856.5,1246,854.9,1247.5,853,1247.5z"/>
				<path class="st4" d="M913.4,1247.5h-9c-1.9,0-3.4-1.5-3.4-3.4V1162c0-1.9,1.5-3.4,3.4-3.4h9c1.9,0,3.4,1.5,3.4,3.4v82.1
					C916.8,1246,915.3,1247.5,913.4,1247.5z"/>
				<path class="st11" d="M671.9,1149.7h-9c-1.9,0-3.4-1.5-3.4-3.4v-20.8c0-1.9,1.5-3.4,3.4-3.4h9c1.9,0,3.4,1.5,3.4,3.4v20.8
					C675.4,1148.1,673.8,1149.7,671.9,1149.7z"/>
				<path class="st11" d="M732.3,1149.7h-9c-1.9,0-3.4-1.5-3.4-3.4v-20.8c0-1.9,1.5-3.4,3.4-3.4h9c1.9,0,3.4,1.5,3.4,3.4v20.8
					C735.7,1148.1,734.2,1149.7,732.3,1149.7z"/>
				<path class="st11" d="M792.7,1149.7h-9c-1.9,0-3.4-1.5-3.4-3.4v-20.8c0-1.9,1.5-3.4,3.4-3.4h9c1.9,0,3.4,1.5,3.4,3.4v20.8
					C796.1,1148.1,794.6,1149.7,792.7,1149.7z"/>
				<path class="st11" d="M853,1149.7h-9c-1.9,0-3.4-1.5-3.4-3.4v-20.8c0-1.9,1.5-3.4,3.4-3.4h9c1.9,0,3.4,1.5,3.4,3.4v20.8
					C856.5,1148.1,854.9,1149.7,853,1149.7z"/>
				<path class="st11" d="M913.4,1149.7h-9c-1.9,0-3.4-1.5-3.4-3.4v-20.8c0-1.9,1.5-3.4,3.4-3.4h9c1.9,0,3.4,1.5,3.4,3.4v20.8
					C916.8,1148.1,915.3,1149.7,913.4,1149.7z"/>
			</g>
		</g>
	</g>
	<g>
		<path class="st4" d="M1957.2,1287.8h-529.3c-19.5,0-35.4-15.8-35.4-35.4V350.9c0-19.5,15.8-35.4,35.4-35.4h529.3
			c19.5,0,35.4,15.8,35.4,35.4v901.5C1992.6,1272,1976.7,1287.8,1957.2,1287.8z"/>
		<g>
			<path class="st8" d="M1939.5,340.5h-493.9c-18.3,0-33.1,14.8-33.1,33.1v92.4c0,18.3,14.8,33.1,33.1,33.1h493.9
				c18.3,0,33.1-14.8,33.1-33.1v-92.4C1972.6,355.3,1957.8,340.5,1939.5,340.5z"/>
			<path class="st8" d="M1939.5,531.7h-493.9c-18.3,0-33.1,14.8-33.1,33.1v92.4c0,18.3,14.8,33.1,33.1,33.1h493.9
				c18.3,0,33.1-14.8,33.1-33.1v-92.4C1972.6,546.6,1957.8,531.7,1939.5,531.7z"/>
			<path class="st8" d="M1939.5,723h-493.9c-18.3,0-33.1,14.8-33.1,33.1v92.4c0,18.3,14.8,33.1,33.1,33.1h493.9
				c18.3,0,33.1-14.8,33.1-33.1v-92.4C1972.6,737.8,1957.8,723,1939.5,723z"/>
			<path class="st8" d="M1939.5,914.2h-493.9c-18.3,0-33.1,14.8-33.1,33.1v92.4c0,18.3,14.8,33.1,33.1,33.1h493.9
				c18.3,0,33.1-14.8,33.1-33.1v-92.4C1972.6,929,1957.8,914.2,1939.5,914.2z"/>
			<path class="st8" d="M1939.5,1105.4h-493.9c-18.3,0-33.1,14.8-33.1,33.1v92.4c0,18.3,14.8,33.1,33.1,33.1h493.9
				c18.3,0,33.1-14.8,33.1-33.1v-92.4C1972.6,1120.3,1957.8,1105.4,1939.5,1105.4z"/>
		</g>
		<g>
			<g>
				<rect x="1842.8" y="359.4" class="st4" width="87.8" height="125.5"/>
				<polygon class="st9" points="1842.8,359.4 1930.6,484.9 1930.6,359.4 				"/>
			</g>
			<g>
				<path class="st10" d="M1466.9,387.1h-9c-1.9,0-3.4-1.5-3.4-3.4v-20.8c0-1.9,1.5-3.4,3.4-3.4h9c1.9,0,3.4,1.5,3.4,3.4v20.8
					C1470.4,385.6,1468.8,387.1,1466.9,387.1z"/>
				<path class="st4" d="M1466.9,484.9h-9c-1.9,0-3.4-1.5-3.4-3.4v-82.1c0-1.9,1.5-3.4,3.4-3.4h9c1.9,0,3.4,1.5,3.4,3.4v82.1
					C1470.4,483.4,1468.8,484.9,1466.9,484.9z"/>
				<path class="st4" d="M1560.3,484.9h-9c-1.9,0-3.4-1.5-3.4-3.4v-82.1c0-1.9,1.5-3.4,3.4-3.4h9c1.9,0,3.4,1.5,3.4,3.4v82.1
					C1563.7,483.4,1562.2,484.9,1560.3,484.9z"/>
				<path class="st4" d="M1620.7,484.9h-9c-1.9,0-3.4-1.5-3.4-3.4v-82.1c0-1.9,1.5-3.4,3.4-3.4h9c1.9,0,3.4,1.5,3.4,3.4v82.1
					C1624.1,483.4,1622.5,484.9,1620.7,484.9z"/>
				<path class="st4" d="M1681,484.9h-9c-1.9,0-3.4-1.5-3.4-3.4v-82.1c0-1.9,1.5-3.4,3.4-3.4h9c1.9,0,3.4,1.5,3.4,3.4v82.1
					C1684.5,483.4,1682.9,484.9,1681,484.9z"/>
				<path class="st4" d="M1741.4,484.9h-9c-1.9,0-3.4-1.5-3.4-3.4v-82.1c0-1.9,1.5-3.4,3.4-3.4h9c1.9,0,3.4,1.5,3.4,3.4v82.1
					C1744.8,483.4,1743.3,484.9,1741.4,484.9z"/>
				<path class="st4" d="M1801.8,484.9h-9c-1.9,0-3.4-1.5-3.4-3.4v-82.1c0-1.9,1.5-3.4,3.4-3.4h9c1.9,0,3.4,1.5,3.4,3.4v82.1
					C1805.2,483.4,1803.7,484.9,1801.8,484.9z"/>
				<path class="st11" d="M1560.3,387.1h-9c-1.9,0-3.4-1.5-3.4-3.4v-20.8c0-1.9,1.5-3.4,3.4-3.4h9c1.9,0,3.4,1.5,3.4,3.4v20.8
					C1563.7,385.6,1562.2,387.1,1560.3,387.1z"/>
				<path class="st11" d="M1620.7,387.1h-9c-1.9,0-3.4-1.5-3.4-3.4v-20.8c0-1.9,1.5-3.4,3.4-3.4h9c1.9,0,3.4,1.5,3.4,3.4v20.8
					C1624.1,385.6,1622.5,387.1,1620.7,387.1z"/>
				<path class="st11" d="M1681,387.1h-9c-1.9,0-3.4-1.5-3.4-3.4v-20.8c0-1.9,1.5-3.4,3.4-3.4h9c1.9,0,3.4,1.5,3.4,3.4v20.8
					C1684.5,385.6,1682.9,387.1,1681,387.1z"/>
				<path class="st11" d="M1741.4,387.1h-9c-1.9,0-3.4-1.5-3.4-3.4v-20.8c0-1.9,1.5-3.4,3.4-3.4h9c1.9,0,3.4,1.5,3.4,3.4v20.8
					C1744.8,385.6,1743.3,387.1,1741.4,387.1z"/>
				<path class="st11" d="M1801.8,387.1h-9c-1.9,0-3.4-1.5-3.4-3.4v-20.8c0-1.9,1.5-3.4,3.4-3.4h9c1.9,0,3.4,1.5,3.4,3.4v20.8
					C1805.2,385.6,1803.7,387.1,1801.8,387.1z"/>
			</g>
		</g>
		<g>
			<g>
				<rect x="1842.8" y="548.3" class="st4" width="87.8" height="125.5"/>
				<polygon class="st9" points="1842.8,548.3 1930.6,673.8 1930.6,548.3 				"/>
			</g>
			<g>
				<path class="st10" d="M1466.9,576h-9c-1.9,0-3.4-1.5-3.4-3.4v-20.8c0-1.9,1.5-3.4,3.4-3.4h9c1.9,0,3.4,1.5,3.4,3.4v20.8
					C1470.4,574.5,1468.8,576,1466.9,576z"/>
				<path class="st4" d="M1466.9,673.8h-9c-1.9,0-3.4-1.5-3.4-3.4v-82.1c0-1.9,1.5-3.4,3.4-3.4h9c1.9,0,3.4,1.5,3.4,3.4v82.1
					C1470.4,672.3,1468.8,673.8,1466.9,673.8z"/>
				<path class="st4" d="M1560.3,673.8h-9c-1.9,0-3.4-1.5-3.4-3.4v-82.1c0-1.9,1.5-3.4,3.4-3.4h9c1.9,0,3.4,1.5,3.4,3.4v82.1
					C1563.7,672.3,1562.2,673.8,1560.3,673.8z"/>
				<path class="st4" d="M1620.7,673.8h-9c-1.9,0-3.4-1.5-3.4-3.4v-82.1c0-1.9,1.5-3.4,3.4-3.4h9c1.9,0,3.4,1.5,3.4,3.4v82.1
					C1624.1,672.3,1622.5,673.8,1620.7,673.8z"/>
				<path class="st4" d="M1681,673.8h-9c-1.9,0-3.4-1.5-3.4-3.4v-82.1c0-1.9,1.5-3.4,3.4-3.4h9c1.9,0,3.4,1.5,3.4,3.4v82.1
					C1684.5,672.3,1682.9,673.8,1681,673.8z"/>
				<path class="st4" d="M1741.4,673.8h-9c-1.9,0-3.4-1.5-3.4-3.4v-82.1c0-1.9,1.5-3.4,3.4-3.4h9c1.9,0,3.4,1.5,3.4,3.4v82.1
					C1744.8,672.3,1743.3,673.8,1741.4,673.8z"/>
				<path class="st4" d="M1801.8,673.8h-9c-1.9,0-3.4-1.5-3.4-3.4v-82.1c0-1.9,1.5-3.4,3.4-3.4h9c1.9,0,3.4,1.5,3.4,3.4v82.1
					C1805.2,672.3,1803.7,673.8,1801.8,673.8z"/>
				<path class="st11" d="M1560.3,576h-9c-1.9,0-3.4-1.5-3.4-3.4v-20.8c0-1.9,1.5-3.4,3.4-3.4h9c1.9,0,3.4,1.5,3.4,3.4v20.8
					C1563.7,574.5,1562.2,576,1560.3,576z"/>
				<path class="st11" d="M1620.7,576h-9c-1.9,0-3.4-1.5-3.4-3.4v-20.8c0-1.9,1.5-3.4,3.4-3.4h9c1.9,0,3.4,1.5,3.4,3.4v20.8
					C1624.1,574.5,1622.5,576,1620.7,576z"/>
				<path class="st11" d="M1681,576h-9c-1.9,0-3.4-1.5-3.4-3.4v-20.8c0-1.9,1.5-3.4,3.4-3.4h9c1.9,0,3.4,1.5,3.4,3.4v20.8
					C1684.5,574.5,1682.9,576,1681,576z"/>
				<path class="st11" d="M1741.4,576h-9c-1.9,0-3.4-1.5-3.4-3.4v-20.8c0-1.9,1.5-3.4,3.4-3.4h9c1.9,0,3.4,1.5,3.4,3.4v20.8
					C1744.8,574.5,1743.3,576,1741.4,576z"/>
				<path class="st11" d="M1801.8,576h-9c-1.9,0-3.4-1.5-3.4-3.4v-20.8c0-1.9,1.5-3.4,3.4-3.4h9c1.9,0,3.4,1.5,3.4,3.4v20.8
					C1805.2,574.5,1803.7,576,1801.8,576z"/>
			</g>
		</g>
		<g>
			<g>
				<rect x="1842.8" y="739.6" class="st4" width="87.8" height="125.5"/>
				<polygon class="st9" points="1842.8,739.6 1930.6,865.1 1930.6,739.6 				"/>
			</g>
			<g>
				<path class="st10" d="M1466.9,767.2h-9c-1.9,0-3.4-1.5-3.4-3.4V743c0-1.9,1.5-3.4,3.4-3.4h9c1.9,0,3.4,1.5,3.4,3.4v20.8
					C1470.4,765.7,1468.8,767.2,1466.9,767.2z"/>
				<path class="st4" d="M1466.9,865.1h-9c-1.9,0-3.4-1.5-3.4-3.4v-82.1c0-1.9,1.5-3.4,3.4-3.4h9c1.9,0,3.4,1.5,3.4,3.4v82.1
					C1470.4,863.5,1468.8,865.1,1466.9,865.1z"/>
				<path class="st4" d="M1560.3,865.1h-9c-1.9,0-3.4-1.5-3.4-3.4v-82.1c0-1.9,1.5-3.4,3.4-3.4h9c1.9,0,3.4,1.5,3.4,3.4v82.1
					C1563.7,863.5,1562.2,865.1,1560.3,865.1z"/>
				<path class="st4" d="M1620.7,865.1h-9c-1.9,0-3.4-1.5-3.4-3.4v-82.1c0-1.9,1.5-3.4,3.4-3.4h9c1.9,0,3.4,1.5,3.4,3.4v82.1
					C1624.1,863.5,1622.5,865.1,1620.7,865.1z"/>
				<path class="st4" d="M1681,865.1h-9c-1.9,0-3.4-1.5-3.4-3.4v-82.1c0-1.9,1.5-3.4,3.4-3.4h9c1.9,0,3.4,1.5,3.4,3.4v82.1
					C1684.5,863.5,1682.9,865.1,1681,865.1z"/>
				<path class="st4" d="M1741.4,865.1h-9c-1.9,0-3.4-1.5-3.4-3.4v-82.1c0-1.9,1.5-3.4,3.4-3.4h9c1.9,0,3.4,1.5,3.4,3.4v82.1
					C1744.8,863.5,1743.3,865.1,1741.4,865.1z"/>
				<path class="st4" d="M1801.8,865.1h-9c-1.9,0-3.4-1.5-3.4-3.4v-82.1c0-1.9,1.5-3.4,3.4-3.4h9c1.9,0,3.4,1.5,3.4,3.4v82.1
					C1805.2,863.5,1803.7,865.1,1801.8,865.1z"/>
				<path class="st11" d="M1560.3,767.2h-9c-1.9,0-3.4-1.5-3.4-3.4V743c0-1.9,1.5-3.4,3.4-3.4h9c1.9,0,3.4,1.5,3.4,3.4v20.8
					C1563.7,765.7,1562.2,767.2,1560.3,767.2z"/>
				<path class="st11" d="M1620.7,767.2h-9c-1.9,0-3.4-1.5-3.4-3.4V743c0-1.9,1.5-3.4,3.4-3.4h9c1.9,0,3.4,1.5,3.4,3.4v20.8
					C1624.1,765.7,1622.5,767.2,1620.7,767.2z"/>
				<path class="st11" d="M1681,767.2h-9c-1.9,0-3.4-1.5-3.4-3.4V743c0-1.9,1.5-3.4,3.4-3.4h9c1.9,0,3.4,1.5,3.4,3.4v20.8
					C1684.5,765.7,1682.9,767.2,1681,767.2z"/>
				<path class="st11" d="M1741.4,767.2h-9c-1.9,0-3.4-1.5-3.4-3.4V743c0-1.9,1.5-3.4,3.4-3.4h9c1.9,0,3.4,1.5,3.4,3.4v20.8
					C1744.8,765.7,1743.3,767.2,1741.4,767.2z"/>
				<path class="st11" d="M1801.8,767.2h-9c-1.9,0-3.4-1.5-3.4-3.4V743c0-1.9,1.5-3.4,3.4-3.4h9c1.9,0,3.4,1.5,3.4,3.4v20.8
					C1805.2,765.7,1803.7,767.2,1801.8,767.2z"/>
			</g>
		</g>
		<g>
			<g>
				<rect x="1842.8" y="930.8" class="st4" width="87.8" height="125.5"/>
				<polygon class="st9" points="1842.8,930.8 1930.6,1056.3 1930.6,930.8 				"/>
			</g>
			<g>
				<path class="st10" d="M1466.9,958.4h-9c-1.9,0-3.4-1.5-3.4-3.4v-20.8c0-1.9,1.5-3.4,3.4-3.4h9c1.9,0,3.4,1.5,3.4,3.4V955
					C1470.4,956.9,1468.8,958.4,1466.9,958.4z"/>
				<path class="st4" d="M1466.9,1056.3h-9c-1.9,0-3.4-1.5-3.4-3.4v-82.1c0-1.9,1.5-3.4,3.4-3.4h9c1.9,0,3.4,1.5,3.4,3.4v82.1
					C1470.4,1054.8,1468.8,1056.3,1466.9,1056.3z"/>
				<path class="st4" d="M1560.3,1056.3h-9c-1.9,0-3.4-1.5-3.4-3.4v-82.1c0-1.9,1.5-3.4,3.4-3.4h9c1.9,0,3.4,1.5,3.4,3.4v82.1
					C1563.7,1054.8,1562.2,1056.3,1560.3,1056.3z"/>
				<path class="st4" d="M1620.7,1056.3h-9c-1.9,0-3.4-1.5-3.4-3.4v-82.1c0-1.9,1.5-3.4,3.4-3.4h9c1.9,0,3.4,1.5,3.4,3.4v82.1
					C1624.1,1054.8,1622.5,1056.3,1620.7,1056.3z"/>
				<path class="st4" d="M1681,1056.3h-9c-1.9,0-3.4-1.5-3.4-3.4v-82.1c0-1.9,1.5-3.4,3.4-3.4h9c1.9,0,3.4,1.5,3.4,3.4v82.1
					C1684.5,1054.8,1682.9,1056.3,1681,1056.3z"/>
				<path class="st4" d="M1741.4,1056.3h-9c-1.9,0-3.4-1.5-3.4-3.4v-82.1c0-1.9,1.5-3.4,3.4-3.4h9c1.9,0,3.4,1.5,3.4,3.4v82.1
					C1744.8,1054.8,1743.3,1056.3,1741.4,1056.3z"/>
				<path class="st4" d="M1801.8,1056.3h-9c-1.9,0-3.4-1.5-3.4-3.4v-82.1c0-1.9,1.5-3.4,3.4-3.4h9c1.9,0,3.4,1.5,3.4,3.4v82.1
					C1805.2,1054.8,1803.7,1056.3,1801.8,1056.3z"/>
				<path class="st11" d="M1560.3,958.4h-9c-1.9,0-3.4-1.5-3.4-3.4v-20.8c0-1.9,1.5-3.4,3.4-3.4h9c1.9,0,3.4,1.5,3.4,3.4V955
					C1563.7,956.9,1562.2,958.4,1560.3,958.4z"/>
				<path class="st11" d="M1620.7,958.4h-9c-1.9,0-3.4-1.5-3.4-3.4v-20.8c0-1.9,1.5-3.4,3.4-3.4h9c1.9,0,3.4,1.5,3.4,3.4V955
					C1624.1,956.9,1622.5,958.4,1620.7,958.4z"/>
				<path class="st11" d="M1681,958.4h-9c-1.9,0-3.4-1.5-3.4-3.4v-20.8c0-1.9,1.5-3.4,3.4-3.4h9c1.9,0,3.4,1.5,3.4,3.4V955
					C1684.5,956.9,1682.9,958.4,1681,958.4z"/>
				<path class="st11" d="M1741.4,958.4h-9c-1.9,0-3.4-1.5-3.4-3.4v-20.8c0-1.9,1.5-3.4,3.4-3.4h9c1.9,0,3.4,1.5,3.4,3.4V955
					C1744.8,956.9,1743.3,958.4,1741.4,958.4z"/>
				<path class="st11" d="M1801.8,958.4h-9c-1.9,0-3.4-1.5-3.4-3.4v-20.8c0-1.9,1.5-3.4,3.4-3.4h9c1.9,0,3.4,1.5,3.4,3.4V955
					C1805.2,956.9,1803.7,958.4,1801.8,958.4z"/>
			</g>
		</g>
		<g>
			<g>
				<rect x="1842.8" y="1122" class="st4" width="87.8" height="125.5"/>
				<polygon class="st9" points="1842.8,1122 1930.6,1247.5 1930.6,1122 				"/>
			</g>
			<g>
				<path class="st10" d="M1466.9,1149.7h-9c-1.9,0-3.4-1.5-3.4-3.4v-20.8c0-1.9,1.5-3.4,3.4-3.4h9c1.9,0,3.4,1.5,3.4,3.4v20.8
					C1470.4,1148.1,1468.8,1149.7,1466.9,1149.7z"/>
				<path class="st4" d="M1466.9,1247.5h-9c-1.9,0-3.4-1.5-3.4-3.4V1162c0-1.9,1.5-3.4,3.4-3.4h9c1.9,0,3.4,1.5,3.4,3.4v82.1
					C1470.4,1246,1468.8,1247.5,1466.9,1247.5z"/>
				<path class="st4" d="M1560.3,1247.5h-9c-1.9,0-3.4-1.5-3.4-3.4V1162c0-1.9,1.5-3.4,3.4-3.4h9c1.9,0,3.4,1.5,3.4,3.4v82.1
					C1563.7,1246,1562.2,1247.5,1560.3,1247.5z"/>
				<path class="st4" d="M1620.7,1247.5h-9c-1.9,0-3.4-1.5-3.4-3.4V1162c0-1.9,1.5-3.4,3.4-3.4h9c1.9,0,3.4,1.5,3.4,3.4v82.1
					C1624.1,1246,1622.5,1247.5,1620.7,1247.5z"/>
				<path class="st4" d="M1681,1247.5h-9c-1.9,0-3.4-1.5-3.4-3.4V1162c0-1.9,1.5-3.4,3.4-3.4h9c1.9,0,3.4,1.5,3.4,3.4v82.1
					C1684.5,1246,1682.9,1247.5,1681,1247.5z"/>
				<path class="st4" d="M1741.4,1247.5h-9c-1.9,0-3.4-1.5-3.4-3.4V1162c0-1.9,1.5-3.4,3.4-3.4h9c1.9,0,3.4,1.5,3.4,3.4v82.1
					C1744.8,1246,1743.3,1247.5,1741.4,1247.5z"/>
				<path class="st4" d="M1801.8,1247.5h-9c-1.9,0-3.4-1.5-3.4-3.4V1162c0-1.9,1.5-3.4,3.4-3.4h9c1.9,0,3.4,1.5,3.4,3.4v82.1
					C1805.2,1246,1803.7,1247.5,1801.8,1247.5z"/>
				<path class="st11" d="M1560.3,1149.7h-9c-1.9,0-3.4-1.5-3.4-3.4v-20.8c0-1.9,1.5-3.4,3.4-3.4h9c1.9,0,3.4,1.5,3.4,3.4v20.8
					C1563.7,1148.1,1562.2,1149.7,1560.3,1149.7z"/>
				<path class="st11" d="M1620.7,1149.7h-9c-1.9,0-3.4-1.5-3.4-3.4v-20.8c0-1.9,1.5-3.4,3.4-3.4h9c1.9,0,3.4,1.5,3.4,3.4v20.8
					C1624.1,1148.1,1622.5,1149.7,1620.7,1149.7z"/>
				<path class="st11" d="M1681,1149.7h-9c-1.9,0-3.4-1.5-3.4-3.4v-20.8c0-1.9,1.5-3.4,3.4-3.4h9c1.9,0,3.4,1.5,3.4,3.4v20.8
					C1684.5,1148.1,1682.9,1149.7,1681,1149.7z"/>
				<path class="st11" d="M1741.4,1149.7h-9c-1.9,0-3.4-1.5-3.4-3.4v-20.8c0-1.9,1.5-3.4,3.4-3.4h9c1.9,0,3.4,1.5,3.4,3.4v20.8
					C1744.8,1148.1,1743.3,1149.7,1741.4,1149.7z"/>
				<path class="st11" d="M1801.8,1149.7h-9c-1.9,0-3.4-1.5-3.4-3.4v-20.8c0-1.9,1.5-3.4,3.4-3.4h9c1.9,0,3.4,1.5,3.4,3.4v20.8
					C1805.2,1148.1,1803.7,1149.7,1801.8,1149.7z"/>
			</g>
		</g>
	</g>
</g>
<circle class="st4" cx="809.1" cy="219.3" r="73.4"/>
<g>
	<g>
		<path class="st6" d="M854,187.2l-0.5-4l-4.1-0.1c-27.1-0.5-37.1-8.7-37.2-8.8l-3.1-2.7l-3.1,2.6c-0.1,0.1-10.1,8.3-37.2,8.8
			l-4.1,0.1l-0.5,4c-0.1,0.5-5.6,50.5,42.5,78.4l2.3,1.4l2.3-1.4C859.5,237.7,854,187.7,854,187.2z M809.1,256.1
			c-33.4-20.7-36-52.7-35.8-63.8c19.8-1,30.9-5.9,35.8-8.8c4.9,2.9,16,7.9,35.8,8.8C845,203.4,842.2,235.6,809.1,256.1z"/>
		<path class="st6" d="M797.2,206.2v4.3c-2.3,1.4-3.8,3.9-3.8,6.7v9.4c0,4.3,3.5,7.9,7.9,7.9H817c4.3,0,7.9-3.5,7.9-7.9v-9.4
			c0-2.8-1.5-5.3-3.8-6.7v-4.3c0-6.6-5.3-11.9-11.9-11.9C802.6,194.2,797.2,199.6,797.2,206.2z M811.1,219.7v8.1c0,0.5-0.4,1-1,1h-2
			c-0.5,0-1-0.4-1-1v-8.1c-0.6-0.5-1-1.3-1-2.2c0-1.6,1.3-3,3-3c1.6,0,3,1.3,3,3C812.1,218.4,811.7,219.1,811.1,219.7z M817.3,206.2
			v3.2c-0.1,0-0.2,0-0.3,0h-15.7c-0.1,0-0.2,0-0.3,0v-3.2c0-4.5,3.7-8.2,8.2-8.2C813.6,198,817.3,201.6,817.3,206.2z"/>
	</g>
</g>
<circle class="st4" cx="1697.5" cy="219.3" r="73.4"/>
<g>
	<path class="st6" d="M1742.4,187.2l-0.5-4l-4.1-0.1c-27.1-0.5-37.1-8.7-37.2-8.8l-3.1-2.7l-3.1,2.6c-0.1,0.1-10.1,8.3-37.2,8.8
		l-4.1,0.1l-0.5,4c-0.1,0.5-5.6,50.5,42.5,78.4l2.3,1.4l2.3-1.4C1747.9,237.7,1742.4,187.7,1742.4,187.2z M1697.5,256.1
		c-33.4-20.7-36-52.7-35.8-63.8c19.8-1,30.9-5.9,35.8-8.8c4.9,2.9,16,7.9,35.8,8.8C1733.4,203.4,1730.5,235.6,1697.5,256.1z"/>
	<path class="st6" d="M1685.6,206.2v4.3c-2.3,1.4-3.8,3.9-3.8,6.7v9.4c0,4.3,3.5,7.9,7.9,7.9h15.7c4.3,0,7.9-3.5,7.9-7.9v-9.4
		c0-2.8-1.5-5.3-3.8-6.7v-4.3c0-6.6-5.3-11.9-11.9-11.9S1685.6,199.6,1685.6,206.2z M1699.5,219.7v8.1c0,0.5-0.4,1-1,1h-2
		c-0.5,0-1-0.4-1-1v-8.1c-0.6-0.5-1-1.3-1-2.2c0-1.6,1.3-3,3-3c1.6,0,3,1.3,3,3C1700.5,218.4,1700.1,219.1,1699.5,219.7z
		 M1705.7,206.2v3.2c-0.1,0-0.2,0-0.3,0h-15.7c-0.1,0-0.2,0-0.3,0v-3.2c0-4.5,3.7-8.2,8.2-8.2C1702,198,1705.7,201.6,1705.7,206.2z"
		/>
</g>
<path class="st12" d="M1325.2,601.6"/>
<path class="st13" d="M1269.4,448.8L1269.4,448.8c-2.7-1.8-5-3.9-6.9-6.3c-2.9-3.5-5.1-7.5-6.7-11.3c-1.7-4.1-2.9-8-3.6-11
	c-0.8-3.4-1.1-5.7-1.1-5.7h-19c0,0-1.2,7.3-4.9,15.4c-0.5,1.2-1.2,2.5-1.8,3.7v0c-0.6,1.1-1.2,2.2-1.9,3.3v0
	c-2.8,4.4-6.4,8.5-11,11.2c0.1,0.2,0.2,0.3,0.3,0.5l0,0l0,0l-0.3-0.5c0,0-1.3,1.1-4.7,3l32.2,24.5l0.3,0l0.4,0l32.2-24.6
	C1271.8,450.3,1270.5,449.5,1269.4,448.8z M1269.1,449.3L1269.1,449.3c0-0.1,0.1-0.2,0.1-0.2L1269.1,449.3z"/>
<path class="st14" d="M1207.5,692.3c-1.7-0.2-3.4-0.4-5.1-0.7C1204.1,691.9,1205.8,692.1,1207.5,692.3z"/>
<path class="st15" d="M1262.5,442.5L1262.5,442.5c-27.5,1.8-35.2-12.6-35.2-12.6l12.2-7.1l12.8-2.6
	C1253.6,426,1256.5,435.2,1262.5,442.5z"/>
<linearGradient id="SVGID_1_" gradientUnits="userSpaceOnUse" x1="1253.7418" y1="1278.2894" x2="1253.7418" y2="683.2845">
	<stop  offset="0" style="stop-color:#405867"/>
	<stop  offset="0.191" style="stop-color:#435561"/>
	<stop  offset="0.7321" style="stop-color:#43484C"/>
	<stop  offset="0.9892" style="stop-color:#424243"/>
</linearGradient>
<path class="st16" d="M1321.5,685.6L1321.5,685.6l-19-0.4c0,0.1,0,0.1-0.1,0.2c-0.9,2.2-2.3,4-4.1,5.5c-2.5,2.1-5.7,3.3-9.1,3.3
	h-63.4c-2-0.1-3.9-0.3-5.8-0.5c0,0.2,0,0.3-0.1,0.5h-30.4c0,0,0,0,0,0c-2.8-0.9-5.6-1.8-8.4-2.8c-1.5-1.1-2.7-2.4-3.7-4
	c-0.3-0.5-0.6-1.1-0.9-1.7c-0.1-0.3-0.2-0.5-0.3-0.8c-0.1-0.2-0.1-0.4-0.2-0.6c-0.1-0.2-0.2-0.5-0.2-0.7c0,0,0,0,0,0l-14.6-0.2
	c0,0-28.7,215.2-36.3,288.6c-3.8,75.1,8.6,277.4,12.6,303.3l24.6,3.2c0,0,9.3-27,20.5-65.7c18-61.7,40.9-153.1,39-211.9
	c0,0,10.5-56.4,29.1-112.2c0,0,0,0,0,0c1.8,5.5,2.9,8.6,2.9,8.6c35.2,122.6,73.9,380.1,73.9,380.1h24.8
	C1436.5,865.5,1321.5,685.6,1321.5,685.6z"/>
<path class="st17" d="M1317.9,614.3"/>
<path class="st18" d="M1241,659.6c-3.2-0.3-6.6-0.6-10.3-1c-13.8-1.4-30.8-3-48-3.9l26.9-2.9l20.8-1.3l10.1-0.6l9.3-0.6
	c4.7,3.9,8.9,7.1,11.5,8.9C1266.1,661.5,1257,661.1,1241,659.6z"/>
<path class="st18" d="M1299.4,664.3L1299.4,664.3c-0.1,0-0.2,0-0.3,0C1299.2,664.4,1299.3,664.3,1299.4,664.3z"/>
<path class="st18" d="M1298.1,664.5c-1.4,0.2-2.8,0.4-4.2,0.5c-4.1,0.5-8.2,1-12.3,1.4c-4.8,0.5-9.4,1-14,1.4c-0.2,0-0.4,0-0.7,0.1
	c0.4,0,0.9-0.1,1.3-0.1c1.8-0.2,4-0.4,6.2-0.7c0.3,0,0.6-0.1,0.9-0.1c2.6-0.3,5.5-0.6,8.2-0.9c1-0.1,1.9-0.2,2.8-0.3
	c1.3-0.2,2.6-0.3,3.8-0.4c0.6-0.1,1.2-0.1,1.8-0.2c0.6-0.1,1.1-0.1,1.7-0.2c0.4,0,0.7-0.1,1.1-0.1c0.4-0.1,0.9-0.1,1.3-0.2
	c0.2,0,0.4,0,0.5-0.1C1297.2,664.6,1297.6,664.5,1298.1,664.5z"/>
<path class="st12" d="M1317.9,614.3"/>
<path class="st19" d="M1327.8,1277.1c0,0-10.3,28.9-4.6,34.2c5.7,5.3,57.7,16.3,71,13.7c13.3-2.7-36.4-33-36.4-33l-5.3-14.8H1327.8z
	"/>
<path class="st19" d="M1162.2,1278.3c0,0,7.6,32.4,0.1,34.5c-8.3,2.3-58.6,6.3-72.2,4.5c-2.2-12.5,40.3-28.1,40.3-28.1l7.1-14
	L1162.2,1278.3z"/>
<linearGradient id="SVGID_2_" gradientUnits="userSpaceOnUse" x1="1216.8278" y1="1212.6317" x2="1216.8278" y2="769.6281">
	<stop  offset="0" style="stop-color:#616264"/>
	<stop  offset="1" style="stop-color:#000000"/>
</linearGradient>
<path class="st20" d="M1250.9,888.5c-18.6,55.8-29.1,112.2-29.1,112.2c1.9,58.8-21.1,150.2-39,211.9c0,0,6-210.6,27.2-251.1
	c21.3-40.5,12-66.3,12-66.3c-10.9-56,0-125.6,0-125.6C1225.8,825.2,1250.9,888.4,1250.9,888.5L1250.9,888.5z"/>
<polygon class="st19" points="1309.1,776.2 1350.6,798.4 1346.4,807.3 1304.9,784.5 "/>
<path class="st13" d="M1296.9,372.5c0-5.5-3.8-10.2-8.8-11.4c-0.2-6.3-0.8-12.5-1.8-18.3c-6.5-37-77.2-34.9-83.7,0
	c-4.3,23-11.2,81.8,33.7,89.5c30.5,5.3,45.9-19.2,50.5-48.1C1292.4,383.5,1296.9,378.5,1296.9,372.5z"/>
<path class="st21" d="M1150.4,595.7L1150.4,595.7C1150.4,595.7,1150.4,595.7,1150.4,595.7C1150.4,595.7,1150.4,595.7,1150.4,595.7z"
	/>
<path class="st21" d="M1150.5,595.6C1150.5,595.7,1150.5,595.7,1150.5,595.6L1150.5,595.6C1150.4,595.7,1150.5,595.7,1150.5,595.6
	C1150.5,595.6,1150.5,595.6,1150.5,595.6z"/>
<path class="st21" d="M1150.5,595.6C1150.5,595.6,1150.5,595.6,1150.5,595.6c0.1,0,0.1-0.1,0.2-0.1
	C1150.6,595.6,1150.5,595.6,1150.5,595.6z"/>
<polygon class="st21" points="1150.4,595.7 1150.4,595.7 1150.4,595.7 "/>
<path class="st21" d="M1326.9,601.6v-0.3h0c0.1-3.1,0.2-5.6,0.2-7.2c0-0.3,0-0.5,0-0.7v-0.1c0-0.3,0-0.5,0-0.7c0-0.2,0-0.3,0-0.5
	c0.6,0.8,0.5,1.1,1.1,2C1330.1,600.5,1330,602.3,1326.9,601.6z"/>
<path class="st21" d="M1157.3,583.5c-0.1,2.6-0.2,5.3-0.2,7.9c-1.2,0.7-2.3,1.4-3.4,2.1c0,0,0,0,0,0c-0.1,0.1-0.2,0.1-0.3,0.2
	c-0.2,0.2-0.5,0.4-0.9,0.6c-0.3,0.2-0.5,0.3-0.7,0.5c-0.1,0.1-0.2,0.1-0.3,0.2c-0.1,0.1-0.2,0.2-0.3,0.2c-0.1,0.1-0.2,0.2-0.3,0.2
	c0,0-0.1,0.1-0.2,0.1h0c0,0-0.1,0-0.1,0c-0.6-1-0.7-2.1-0.3-3.1c0,0,0,0,0,0c0,0,0-0.1,0.1-0.1c2.9-3.7,5.9-7.5,6.4-8c0,0,0,0,0,0v0
	L1157.3,583.5z"/>
<path class="st22" d="M1287.1,458.9c0.5,0.2,0.9,0.5,1.4,0.7C1288,459.4,1287.6,459.2,1287.1,458.9z"/>
<path class="st22" d="M1306.4,467.8c1.6,0.7,3.2,1.3,4.9,2c0,0,0,0,0,0c-2.9-1.2-6.4-2.6-10.1-4.3c0.5,0.2,0.9,0.4,1.4,0.6
	C1303.9,466.7,1305.2,467.2,1306.4,467.8z"/>
<path class="st22" d="M1160.8,678.2c-0.2-2.9-0.5-6.1-0.8-9.6h0C1160.3,672,1160.6,675.2,1160.8,678.2z"/>
<path class="st22" d="M1187.1,460.9c3.9-1.6,7.3-3.1,10.1-4.5c-2.9,1.3-6.3,2.8-10.3,4.5c0,0,0,0,0,0c0,0,0,0,0,0
	C1187,461,1187,461,1187.1,460.9z"/>
<path class="st22" d="M1292.4,461.5c-0.3-0.1-0.6-0.3-0.8-0.4c0.2,0.1,0.4,0.2,0.7,0.3C1292.3,461.5,1292.4,461.5,1292.4,461.5z"/>
<path class="st22" d="M1321.5,685.6C1321.5,685.6,1321.5,685.6,1321.5,685.6c0,0,0-0.1,0-0.3
	C1321.5,685.4,1321.5,685.6,1321.5,685.6C1321.5,685.6,1321.5,685.6,1321.5,685.6z"/>
<path class="st23" d="M1234.1,702.9c1.5,0.1,3.1,0.2,4.6,0.3c2,0.1,3.9,0.2,5.8,0.3c-0.3-2.7-0.5-5.6-0.8-8.6
	c-3.6-0.1-7-0.2-10.4-0.3C1233.4,697.4,1233.7,700.2,1234.1,702.9z"/>
<path class="st24" d="M1243.6,694.9c-3.6-0.1-7-0.2-10.4-0.3c0-0.2,0-0.3,0-0.4h10.4C1243.6,694.4,1243.6,694.6,1243.6,694.9z"/>
<path class="st24" d="M1206.8,451.8L1206.8,451.8c-0.1,0-0.2,0.1-0.3,0.1l0,0.1C1206.6,451.9,1206.7,451.8,1206.8,451.8z"/>
<path class="st24" d="M1274.2,451.8c0,0,0.1,0.1,0.1,0.1l0-0.1c0,0,0,0,0,0L1274.2,451.8z"/>
<g>
	<path class="st24" d="M1206.8,451.8c0.4-0.2,0.7-0.4,1.1-0.6l-2.2-1.7l0.8,2.4C1206.6,451.8,1206.7,451.8,1206.8,451.8
		L1206.8,451.8z"/>
	<path class="st24" d="M1273,451.1c0.4,0.2,0.8,0.5,1.1,0.7l0.2,0c0,0,0,0,0,0l0.8-2.3L1273,451.1z"/>
	<path class="st24" d="M1207.9,451.2c-0.3,0.2-0.7,0.4-1.1,0.6c-0.1,0.1-0.2,0.1-0.3,0.2l10,29.4l2,6l5.4-2.8l15.6-8.2l0.7-0.5
		l-0.3-0.2L1207.9,451.2z"/>
	<path class="st24" d="M1273,451.1l-32.2,24.6l-0.2,0.2l1.1,0.8l15.9,8.3l4.6,2.4l1.8-5.3l10.3-30.2c-0.1,0-0.1-0.1-0.1-0.1
		C1273.8,451.5,1273.4,451.3,1273,451.1z"/>
</g>
<path class="st25" d="M1235.8,497.7c-0.3,3.3-0.6,7.1-1,11.4h-6.1c0.9-4.5,1.8-8.6,2.6-12.3L1235.8,497.7z"/>
<path class="st25" d="M1246.2,509.1h-2.6c0.3-3.2,0.7-6.5,1.1-9.7l1.3,0.3C1246.1,502.6,1246.1,505.7,1246.2,509.1z"/>
<path class="st25" d="M1244.7,499.4c-0.4,3.3-0.7,6.5-1.1,9.7h-8.8c0.4-4.4,0.7-8.2,1-11.4L1244.7,499.4z"/>
<polygon class="st25" points="1240.5,475.8 1240.4,475.8 1240.3,475.8 1240.4,475.9 "/>
<path class="st25" d="M1240.1,489.2c0,0,0.5-0.1,1.5-0.3c0.1,0,0.2-0.1,0.3-0.1c1-0.2,2.3-0.6,3.9-1c-0.1-5.3-0.1-8.4-0.1-8.4
	l-4.1-2.7l-1.3-0.7l-0.8,0.4l-4.4,3c0,0-0.8,3.3-2.1,8.9c1.1,0.4,2.2,0.9,3.4,1.3c0-0.3,0.1-0.6,0.1-0.8
	C1237.8,488.9,1238.9,489,1240.1,489.2z"/>
<path class="st25" d="M1236.5,489.5c-1.2-0.4-2.3-0.9-3.4-1.3c-0.6,2.5-1.2,5.4-1.9,8.6l4.5,0.9
	C1236.1,494.3,1236.3,491.5,1236.5,489.5z"/>
<path class="st25" d="M1244.7,499.4l1.3,0.3c-0.1-3.6-0.1-6.9-0.2-9.7C1245.4,493.1,1245,496.2,1244.7,499.4z"/>
<path class="st25" d="M1241.7,491.2c1.4-0.5,2.8-1.1,4.1-1.6c0-0.7,0-1.3,0-1.9c-1.6,0.5-2.9,0.8-3.9,1c-0.1,0-0.2,0-0.3,0.1
	c-1,0.2-1.5,0.3-1.5,0.3c-1.2-0.1-2.3-0.3-3.5-0.5c0,0.3-0.1,0.5-0.1,0.8c1.4,0.6,2.9,1.1,4.4,1.7
	C1241,491.2,1241.3,491.2,1241.7,491.2z"/>
<path class="st25" d="M1245.8,489.9c0-0.1,0-0.2,0-0.3c-1.3,0.5-2.7,1.1-4.1,1.6c-0.5,0-0.7-0.1-0.7-0.1c-1.5-0.6-3-1.1-4.4-1.7
	c-0.2,2-0.5,4.8-0.8,8.2l8.9,1.7C1245,496.2,1245.4,493.1,1245.8,489.9z"/>
<polygon class="st25" points="1240.3,475.8 1239.6,476.3 1240.4,475.9 "/>
<polygon class="st25" points="1241.7,476.6 1240.5,475.8 1240.4,475.9 "/>
<g>
	<g>
		<linearGradient id="SVGID_3_" gradientUnits="userSpaceOnUse" x1="1239.4612" y1="509.093" x2="1239.4612" y2="694.1134">
			<stop  offset="0" style="stop-color:#D7D8D9"/>
			<stop  offset="1" style="stop-color:#958F95"/>
		</linearGradient>
		<path class="st26" d="M1281.6,666.4c-4.8,0.5-9.4,1-14,1.4c-0.2,0-0.4,0-0.7,0.1c-0.7,0.1-1.3,0.1-1.9,0.2c-0.5,0-1.1,0.1-1.7,0.2
			c-7.5,0.7-14.7,1.2-21.7,1.6c-3.5,0.2-7,0.4-10.3,0.5c-21.1,0.9-39.6,0.7-55.9-0.4v9.9c0,0.6,0,1.3,0.1,1.9c0,0.2,0.1,0.5,0.1,0.7
			c0.1,0.3,0.2,0.7,0.2,1c0,0,0,0,0,0c0,0.2,0.1,0.5,0.2,0.7c0.1,0.2,0.1,0.4,0.2,0.6c0.1,0.3,0.2,0.5,0.3,0.8
			c0.3,0.6,0.5,1.2,0.9,1.7c1,1.6,2.2,2.9,3.7,4c2.4,1.7,5.3,2.8,8.4,2.8c0,0,0,0,0,0h99.7c3.5,0,6.7-1.2,9.1-3.3
			c1.8-1.5,3.2-3.4,4.1-5.5c0,0,0-0.1,0.1-0.2c0.7-1.6,1-3.4,1-5.3v-12c-3.4-0.9-6.7-1.8-9.7-2.8
			C1289.7,665.5,1285.6,666,1281.6,666.4z M1289.3,509.1h-99.7c-7.9,0-14.3,6.4-14.3,14.3v55.7c5.9-4.4,18.8-10.4,44.2-8.7
			c3.6,0.2,7.4,0.6,11.4,1.2c1,0.1,2,0.3,3,0.4c1.9,0.3,3.8,0.6,5.7,0.9c3.3,0.6,6.4,1.1,9.4,1.7c30,5.9,47.6,13.2,54.5,16.6v-67.9
			C1303.6,515.5,1297.2,509.1,1289.3,509.1z M1248.4,564.6c-2.2,1.3-4.7,2.1-7.4,2.1c-0.4,0-0.8,0-1.2-0.1c-3.3-0.3-6.2-1.7-8.4-3.8
			c-2.7-2.6-4.3-6.1-4.3-10.1c0-4.5,2.1-8.5,5.5-11.1c2.4-1.8,5.3-2.9,8.5-2.9c0.1,0,0.1,0,0.2,0c2.2,0,4.2,0.5,6,1.4
			c4.6,2.3,7.8,7,7.8,12.5C1255,557.8,1252.3,562.1,1248.4,564.6z"/>
	</g>
</g>
<path class="st27" d="M1255,552.8c0,5-2.6,9.4-6.6,11.9c-2.2,1.3-4.7,2.1-7.4,2.1c-0.4,0-0.8,0-1.2-0.1c-3.3-0.3-6.2-1.7-8.4-3.8
	c-2.7-2.6-4.3-6.1-4.3-10.1c0-4.5,2.1-8.5,5.5-11.1c2.4-1.8,5.3-2.9,8.5-2.9c0.1,0,0.1,0,0.2,0c2.2,0,4.2,0.5,6,1.4
	C1251.8,542.5,1255,547.3,1255,552.8z"/>
<path class="st28" d="M1303.6,591.2v0.6c-12.3-4.6-29.9-9.8-54.2-13.1c-3.2-0.4-6.5-0.8-9.9-1.2c0,0,0,0,0,0c-3-0.3-5.9-0.5-8.7-0.7
	c-4-0.3-7.8-0.4-11.6-0.4c-17.6,0-32,2.6-43.8,6.6v-4c5.9-4.4,18.8-10.4,44.2-8.7c3.6,0.2,7.4,0.6,11.4,1.2c1,0.1,2,0.3,3,0.4
	c1.9,0.3,3.8,0.6,5.7,0.9c3.3,0.6,6.4,1.1,9.4,1.7C1279.1,580.6,1296.6,587.9,1303.6,591.2z"/>
<g>
	<linearGradient id="SVGID_4_" gradientUnits="userSpaceOnUse" x1="1240.4141" y1="475.8489" x2="1240.4141" y2="475.623">
		<stop  offset="0" style="stop-color:#67AAE0"/>
		<stop  offset="1" style="stop-color:#8CBF69"/>
	</linearGradient>
	<polygon class="st29" points="1240.4,475.8 1240.5,475.8 1240.8,475.6 1240.4,475.6 1240.1,475.7 1240.3,475.8 	"/>
	<linearGradient id="SVGID_5_" gradientUnits="userSpaceOnUse" x1="1282.4963" y1="667.8837" x2="1282.4963" y2="664.4816">
		<stop  offset="0" style="stop-color:#67AAE0"/>
		<stop  offset="1" style="stop-color:#8CBF69"/>
	</linearGradient>
	<path class="st30" d="M1298.1,664.5c-1.4,0.2-2.8,0.4-4.2,0.5c-4.1,0.5-8.2,1-12.3,1.4c-4.8,0.5-9.4,1-14,1.4c-0.2,0-0.4,0-0.7,0.1
		c0.4,0,0.9-0.1,1.3-0.1c1.8-0.2,4-0.4,6.2-0.7c0.3,0,0.6-0.1,0.9-0.1c2.6-0.3,5.5-0.6,8.2-0.9c1-0.1,1.9-0.2,2.8-0.3
		c1.3-0.2,2.6-0.3,3.8-0.4c0.6-0.1,1.2-0.1,1.8-0.2c0.6-0.1,1.1-0.1,1.7-0.2c0.4,0,0.7-0.1,1.1-0.1c0.4-0.1,0.9-0.1,1.3-0.2
		c0.2,0,0.4,0,0.5-0.1C1297.2,664.6,1297.6,664.5,1298.1,664.5z"/>
	<g>
		<g>
			<linearGradient id="SVGID_6_" gradientUnits="userSpaceOnUse" x1="1240.1619" y1="703.6582" x2="1240.1619" y2="451.7279">
				<stop  offset="0" style="stop-color:#67AAE0"/>
				<stop  offset="1" style="stop-color:#8CBF69"/>
			</linearGradient>
			<path class="st31" d="M1319,670.9c-1.7-0.3-3.4-0.5-5-0.8c-3.7-0.7-7.2-1.4-10.5-2.2v12c0,1.9-0.4,3.6-1,5.3c0,0.1,0,0.1-0.1,0.2
				c-0.9,2.2-2.3,4-4.1,5.5c-2.5,2.1-5.7,3.3-9.1,3.3h-99.7c10.3,3.3,20.2,5.5,29.5,7c41.6,6.8,72.3-1.7,88.7-8.6c0,0,0,0,0,0
				c0,0,0.2-0.1,0.3-0.1c0.2-0.1,0.4-0.2,0.7-0.3c0.3-0.2,0.7-0.3,1-0.4c0.2-0.1,0.3-0.2,0.5-0.2c0.2-0.1,0.4-0.2,0.6-0.3
				c0,0,0.1,0,0.1,0c0.3-0.2,0.6-0.3,0.9-0.4c0,0,0,0,0,0c0.3-0.1,0.6-0.3,1-0.5c0.3-0.2,0.6-0.3,0.9-0.5l0.1-0.1
				c0.4-0.2,0.9-0.5,1.4-0.7c0.4-0.2,0.8-0.4,1.2-0.6c0.1,0,0.2-0.1,0.3-0.2c0.8-0.5,1.6-0.9,2.2-1.2c0.2-0.1,0.4-0.2,0.6-0.3
				c0.6-0.4,1.2-0.7,1.7-1.1c0,0,0,0,0,0h0c0,0,0-0.1,0-0.3c0-0.3,0-0.9,0-1.7c0.3-1.3,0.6-3,0.9-5.1c0.1-0.5,0.1-1,0.2-1.6
				c0.1-0.5,0.2-1.1,0.2-1.7c0.1-0.6,0.1-1.2,0.2-1.8v0c0.1-0.6,0.1-1.2,0.2-1.9v0c-0.6-0.1-1.1-0.1-1.7-0.2
				C1320.6,671.1,1319.8,671,1319,670.9z M1177.5,687.3c-0.3-0.5-0.6-1.1-0.9-1.7c-0.1-0.3-0.2-0.5-0.3-0.8
				c-0.1-0.2-0.1-0.4-0.2-0.6c-0.1-0.2-0.2-0.5-0.2-0.7c0,0,0,0,0,0c-0.1-0.3-0.2-0.7-0.2-1c0-0.2-0.1-0.5-0.1-0.7
				c-0.1-0.6-0.1-1.2-0.1-1.9V670c-5.3-0.4-10.5-0.9-15.3-1.4c0.1,1.1,0.2,2.1,0.2,3.2c0.1,1,0.2,2,0.2,3c0.1,1.2,0.2,2.3,0.3,3.4
				c0.1,0.9,0.2,1.9,0.2,2.7c0,0.1,0,0.1,0,0.2c0,0.1,0,0.1,0,0.2c0,0.3,0,0.6,0.1,0.8v0.1c0,0.2,0,0.5,0.1,0.7c0,0.1,0,0.1,0,0.2
				c0,0.2,0,0.2,0.1,0.2c0,0,0,0,0,0c0,0,0,0,0.1,0h0c6.8,3.1,13.4,5.7,19.8,8C1179.7,690.2,1178.4,688.9,1177.5,687.3z
				 M1397.7,545.1L1397.7,545.1c-21.7-56-83.5-74.5-86.3-75.3c0,0,0,0,0,0c0,0,0,0-0.1,0h0c-1.7-0.6-3.2-1.3-4.7-1.9
				c-0.1,0-0.1,0-0.2-0.1c-1.3-0.6-2.6-1.1-3.8-1.7c-0.5-0.2-1-0.4-1.4-0.6c-3.2-1.5-6.1-2.8-8.8-4c0,0-0.1,0-0.2-0.1
				c-0.2-0.1-0.4-0.2-0.7-0.3c-1-0.5-2-1-3.1-1.5c-0.5-0.2-0.9-0.5-1.4-0.7c-4.4-2.3-8.6-4.7-12.8-7.2l0,0.1L1264,482l-1.8,5.3
				l-4.6-2.4l-15.9-8.3l4.1,2.7c0,0,0,3.1,0.1,8.4c0,0.6,0,1.2,0,1.9c0,0.1,0,0.2,0,0.3c0,2.8,0.1,6.1,0.2,9.7
				c0.1,2.9,0.1,6.1,0.2,9.5h43.1c7.9,0,14.3,6.4,14.3,14.3V552c11.9,15.8,23.6,40,23.7,40.1c0,0,0,0,0,0c0.6,0.8,0.5,1.1,1.1,1.9v0
				c1.7,6.4,1.7,8.3-1.4,7.6v-0.3h0c0.1-3.1,0.2-5.6,0.2-7.2c0-0.3,0-0.5,0-0.7c0,0.4,0,0.9,0,1.3c0,0.3,0,0.6,0,0.9
				c-0.1,1.9-0.1,3.9-0.2,5.8c-3.5-1.1-9.8-4.4-19.9-8.3l-3.5-16.4c0-0.1,0-0.1,0-0.2v15.4c-12.3-4.6-29.9-9.8-54.2-13.1
				c-3.2-0.4-6.5-0.8-9.9-1.2c0,0,0,0,0,0c-3-0.3-5.9-0.5-8.7-0.7c-4-0.3-7.8-0.4-11.6-0.4c-17.6,0-32,2.6-43.8,6.6v-59.7
				c0-7.9,6.4-14.3,14.3-14.3h39c0.9-4.5,1.8-8.6,2.6-12.3c0.7-3.3,1.4-6.2,1.9-8.6c1.3-5.5,2.1-8.9,2.1-8.9l4.4-3l-15.6,8.2
				l-5.4,2.8l-2-6l-10-29.4l0-0.1c-2.3,1.2-5.3,2.8-9.3,4.6c-0.4,0.2-0.7,0.3-1.1,0.5c-0.4,0.2-0.8,0.3-1.2,0.5
				c-0.3,0.1-0.6,0.3-0.9,0.4c-2.1,1-4.4,2-7,3c-0.1,0-0.1,0.1-0.2,0.1c0,0,0,0,0,0c-5.4,2.2-11.7,4.8-19.3,7.7h0
				c0,0-0.1,0.1-0.1,0.2l-0.1-0.2c0,0-64,17.6-86.2,74.9h0c0,0-19.6,29.6-16.6,60.2c20.2,43.3,66,51.5,81.8,50.7
				c4.1-0.2,8.3-0.3,12.5-0.4c0,0,0,0,0,0c5.4,0,10.9,0.1,16.4,0.3c2.4,0.1,4.9,0.2,7.3,0.3c17.2,0.9,34.2,2.5,48,3.9
				c3.7,0.4,7.1,0.7,10.3,1c16,1.5,25.1,2,20.3-1.3c-2.6-1.8-6.8-5-11.5-8.9c-3.1-2.6-6.4-5.4-9.7-8.4c-3.6-3.3-7.1-6.6-10.1-9.8
				c-0.8-0.8-1.5-1.6-2.2-2.4c0,0,0,0,0,0c-0.9-1-1.8-2.1-2.6-3c-4.7-4.3-13.2-9-13.7-9.3l0,0l2-0.3c-2.2-0.4-4.4-0.9-6.5-1.3
				c0,0,0,0,0,0c-0.7-0.2-1.4-0.3-2-0.4c-0.3-0.1-0.7-0.1-1-0.2c-0.7-0.2-1.3-0.3-2-0.4c-0.3-0.1-0.7-0.1-1-0.2
				c-1.2-0.3-2.4-0.5-3.6-0.8c-0.3-0.1-0.6-0.1-0.9-0.2c-0.5-0.1-1.1-0.3-1.7-0.4c-0.4-0.1-0.8-0.2-1.3-0.3c-0.5-0.1-1-0.2-1.6-0.4
				c-0.5-0.1-0.9-0.2-1.4-0.3c-0.5-0.1-0.9-0.2-1.4-0.3c-0.9-0.2-1.7-0.4-2.6-0.6l-1.1-0.3c-0.6-0.2-1.1-0.3-1.7-0.4
				c-0.4-0.1-0.7-0.2-1.1-0.3c-0.6-0.2-1.2-0.3-1.8-0.5c-0.3-0.1-0.6-0.2-0.9-0.2c-0.9-0.2-1.7-0.5-2.6-0.7c-0.2,0-0.3-0.1-0.4-0.1
				c-0.6-0.2-1.1-0.3-1.7-0.5c-0.2,0-0.3-0.1-0.5-0.1c-0.2-0.1-0.4-0.1-0.7-0.2c-0.7-0.2-1.3-0.4-2-0.6c-0.2,0-0.3-0.1-0.5-0.1
				c-1.6-0.5-3.2-1-4.6-1.5c-0.1,0-0.3-0.1-0.4-0.1c-0.6-0.2-1.3-0.4-1.9-0.7c-0.1,0-0.2-0.1-0.3-0.1c-1.4-0.5-2.7-1-3.9-1.5
				c-0.1,0-0.2-0.1-0.2-0.1c-0.5-0.2-1.1-0.5-1.6-0.7c-0.1,0-0.2-0.1-0.2-0.1c-0.3-0.1-0.6-0.3-0.9-0.4c-0.3-0.1-0.5-0.3-0.8-0.4
				c0,0,0,0,0,0c-0.5-0.3-1-0.5-1.4-0.8c-0.1,0-0.1-0.1-0.2-0.1c-0.4-0.2-0.8-0.4-1.1-0.7c-0.1,0-0.2-0.1-0.2-0.2
				c-0.4-0.2-0.7-0.5-1.1-0.7c0,0,0,0,0,0c-0.3-0.3-0.7-0.5-1-0.8c0,0-0.1-0.1-0.1-0.1c-0.2-0.2-0.4-0.4-0.6-0.6
				c-0.1-0.1-0.1-0.1-0.2-0.2c-0.2-0.2-0.3-0.4-0.5-0.6c0-0.1-0.1-0.1-0.1-0.2c0,0,0,0,0-0.1h0c1.6,0.1,3.8,0.3,6.5,0.5h0
				c4.8,0.3,11.1,0.7,18.4,1.5c15.9,1.7,36,5.2,52.9,12.8c0.6,0.3,1.2,0.5,1.8,0.8c2.8,1.3,5.5,2.8,8,4.3c0.5,0.3,1,0.6,1.4,0.9
				c1.7,1.1,3.4,2.3,5,3.6c0.8,0.7,1.7,1.3,2.6,2c-1.2-0.2-2.5-0.4-3.7-0.6c1.2,0.2,2.5,0.4,3.7,0.6c8.1,6.2,17.3,11.6,27,16.3
				c9.6,4.7,19.7,8.7,29.6,11.9c6.4,2.1,12.8,3.9,19,5.4c0.1,0,0.3,0.1,0.4,0.1c0.5,0.1,1,0.2,1.4,0.3c12,2.8,23.2,4.5,32.5,5
				c17.8,0.7,34.7-0.9,47.1-6.8h0C1434.3,618.7,1397.8,545.3,1397.7,545.1z M1149.9,595.6C1149.9,595.6,1149.9,595.6,1149.9,595.6
				L1149.9,595.6C1150,595.6,1149.9,595.6,1149.9,595.6z M1157.4,579.3c0,0.4,0,0.7,0,1c0,0.3,0,0.5,0,0.7c-0.1,1.6-0.1,2.5-0.1,2.5
				c-0.1,2.6-0.2,5.3-0.2,7.9c-1.2,0.7-2.3,1.4-3.4,2.1c0,0,0,0,0,0c-0.2,0.2-0.4,0.3-0.7,0.5c-0.2,0.1-0.3,0.2-0.5,0.4
				c-0.4,0.2-0.7,0.5-1.1,0.7c-0.2,0.1-0.3,0.2-0.5,0.3c-0.1,0.1-0.2,0.1-0.2,0.2c0,0-0.1,0.1-0.1,0.1h0c0,0-0.1,0-0.1,0
				c-0.6-1-0.7-2.1-0.3-3.1c0,0,0,0,0,0c0,0,0-0.1,0.1-0.1l0,0l-0.1-0.1c0-0.3,0.1-0.8-0.1-1.2c-0.7-1.8-2-6.1-5.4-11.6
				c3.1-4.4,5-8.6,6-11.9c1.1-3.5,1.4-6,1.5-6.7c0-0.1,0-0.2,0-0.2c1.2-10.1,4.2-18.3,7.6-24.8c6-11.6,13.2-17.4,13.7-17.7
				C1160.8,537.1,1158,568.1,1157.4,579.3z M1247.6,622.2c0,0,0.1,0,0.2,0c0.3,0.1,0.6,0.1,0.9,0.2
				C1248.3,622.3,1248,622.3,1247.6,622.2z M1331.4,586.7c0.8-1.8,1.8-3.7,3-5.6C1333.2,582.9,1332.3,584.9,1331.4,586.7z"/>
		</g>
	</g>
	<linearGradient id="SVGID_7_" gradientUnits="userSpaceOnUse" x1="1324.0353" y1="660.9734" x2="1324.0353" y2="660.9686">
		<stop  offset="0" style="stop-color:#67AAE0"/>
		<stop  offset="1" style="stop-color:#8CBF69"/>
	</linearGradient>
	<polygon class="st32" points="1324,661 1324,661 1324,661 	"/>
	<linearGradient id="SVGID_8_" gradientUnits="userSpaceOnUse" x1="1299.2183" y1="664.3752" x2="1299.2183" y2="664.33">
		<stop  offset="0" style="stop-color:#67AAE0"/>
		<stop  offset="1" style="stop-color:#8CBF69"/>
	</linearGradient>
	<path class="st33" d="M1299,664.4c0.1,0,0.2,0,0.3,0v0C1299.3,664.3,1299.2,664.4,1299,664.4z"/>
	<linearGradient id="SVGID_9_" gradientUnits="userSpaceOnUse" x1="1238.6547" y1="620.8735" x2="1238.6547" y2="620.5917">
		<stop  offset="0" style="stop-color:#67AAE0"/>
		<stop  offset="1" style="stop-color:#8CBF69"/>
	</linearGradient>
	<path class="st34" d="M1239.5,620.9C1239.5,620.9,1239.5,620.9,1239.5,620.9c-0.6-0.1-1.1-0.2-1.7-0.3
		C1238.4,620.7,1238.9,620.8,1239.5,620.9z"/>
	<linearGradient id="SVGID_10_" gradientUnits="userSpaceOnUse" x1="1235.4513" y1="621.5603" x2="1235.4513" y2="619.8138">
		<stop  offset="0" style="stop-color:#67AAE0"/>
		<stop  offset="1" style="stop-color:#8CBF69"/>
	</linearGradient>
	<path class="st35" d="M1233.3,619.8c0.6,1.1,1,1.7,1,1.7s0.3-0.5,0.9-1.4c0.8,0.1,1.6,0.3,2.4,0.4c-0.8-0.1-1.6-0.3-2.4-0.4
		C1234.6,620,1233.9,619.9,1233.3,619.8z"/>
</g>
<g>
	<path class="st36" d="M1150,592.3L1150,592.3l0.1,0.1c2.9-3.7,5.9-7.5,6.4-8c0,0,0,0,0,0v0l0.7-0.8c0,0,0-0.9,0.1-2.5
		c0-0.2,0-0.5,0-0.7c0-0.3,0-0.7,0-1c0.6-11.2,3.4-42.2,15.9-61c-0.5,0.3-7.7,6.2-13.7,17.7c-3.4,6.4-6.3,14.7-7.6,24.8
		c0,0.1,0,0.1,0,0.2c-0.1,0.7-0.3,3.2-1.5,6.7c-1.1,3.3-2.9,7.5-6,11.9c3.3,5.5,4.6,9.9,5.4,11.6C1150.1,591.6,1150,592,1150,592.3z
		"/>
	<path class="st36" d="M1356.9,661.2c-9.3-0.5-20.5-2.2-32.5-5c-0.5-0.1-1-0.2-1.4-0.3c-0.1,0-0.3-0.1-0.4-0.1
		c-6.2-1.5-12.6-3.3-19-5.4c-9.9-3.3-20-7.2-29.6-11.9c-9.7-4.7-18.9-10.1-27-16.3c-1.2-0.2-2.5-0.4-3.7-0.6
		c1.2,0.2,2.5,0.4,3.7,0.6c-0.9-0.7-1.7-1.3-2.6-2c-1.6-1.2-3.2-2.4-5-3.6c-0.5-0.3-0.9-0.6-1.4-0.9c-2.5-1.6-5.2-3-8-4.3
		c-0.6-0.3-1.2-0.5-1.8-0.8c-16.8-7.6-36.9-11.1-52.9-12.8c-7.2-0.8-13.6-1.2-18.4-1.5h0c-2.7-0.2-5-0.3-6.5-0.5h0c0,0,0,0,0,0.1
		c0,0.1,0.1,0.1,0.1,0.2c0.1,0.2,0.3,0.4,0.5,0.6c0,0.1,0.1,0.1,0.2,0.2c0.2,0.2,0.4,0.4,0.6,0.6c0.1,0,0.1,0.1,0.1,0.1
		c0.3,0.3,0.6,0.5,1,0.8c0,0,0,0,0,0c0.3,0.2,0.7,0.5,1.1,0.7c0.1,0.1,0.2,0.1,0.2,0.2c0.4,0.2,0.7,0.4,1.1,0.7
		c0.1,0,0.1,0.1,0.2,0.1c0.4,0.3,0.9,0.5,1.4,0.8c0,0,0,0,0,0c0.3,0.1,0.5,0.3,0.8,0.4c0.3,0.1,0.6,0.3,0.9,0.4
		c0.1,0,0.2,0.1,0.2,0.1c0.5,0.2,1,0.5,1.6,0.7c0.1,0,0.1,0.1,0.2,0.1c1.2,0.5,2.6,1,3.9,1.5c0.1,0,0.2,0.1,0.3,0.1
		c0.6,0.2,1.2,0.4,1.9,0.7c0.1,0,0.2,0.1,0.4,0.1c1.5,0.5,3,1,4.6,1.5c0.2,0,0.3,0.1,0.5,0.1c0.7,0.2,1.3,0.4,2,0.6
		c0.2,0.1,0.4,0.1,0.7,0.2c0.2,0,0.3,0.1,0.5,0.1c0.5,0.2,1.1,0.3,1.7,0.5c0.1,0,0.3,0.1,0.4,0.1c0.8,0.2,1.7,0.5,2.6,0.7
		c0.3,0.1,0.6,0.2,0.9,0.2c0.6,0.2,1.2,0.3,1.8,0.5c0.4,0.1,0.7,0.2,1.1,0.3c0.6,0.1,1.1,0.3,1.7,0.4l1.1,0.3
		c0.9,0.2,1.7,0.4,2.6,0.6c0.5,0.1,0.9,0.2,1.4,0.3c0.5,0.1,0.9,0.2,1.4,0.3c0.5,0.1,1,0.2,1.6,0.4c0.4,0.1,0.9,0.2,1.3,0.3
		c0.6,0.1,1.1,0.3,1.7,0.4c0.3,0.1,0.6,0.1,0.9,0.2c1.2,0.3,2.4,0.5,3.6,0.8c0.3,0.1,0.7,0.2,1,0.2c0.7,0.1,1.3,0.3,2,0.4
		c0.3,0.1,0.6,0.1,1,0.2c0.7,0.1,1.4,0.3,2,0.4c0,0,0,0,0,0c2.1,0.4,4.3,0.9,6.5,1.3l-2,0.3l0,0c0.5,0.3,9,4.9,13.7,9.3
		c0.8,1,1.7,2,2.6,3c0,0,0,0,0,0c0.7,0.8,1.5,1.6,2.2,2.4c3,3.2,6.5,6.5,10.1,9.8c3.3,3,6.6,5.8,9.7,8.4c4.7,3.9,8.9,7.1,11.5,8.9
		c4.8,3.3-4.2,2.8-20.3,1.3c-3.2-0.3-6.6-0.6-10.3-1c-13.8-1.4-30.8-3-48-3.9c-2.4-0.1-4.9-0.2-7.3-0.3c-5.5-0.2-11-0.3-16.4-0.3
		c0,0,0,0,0,0c-4.3,0-8.4,0.1-12.5,0.4c-15.8,0.8-61.6-7.4-81.8-50.7v0c0.1,1,0.2,2.1,0.4,3.1c4,26.8,26.3,53.7,95,61.7h0
		c4.9,0.6,10,1,15.3,1.4c16.3,1.1,34.8,1.3,55.9,0.4c3.4-0.2,6.8-0.3,10.3-0.5c7-0.4,14.2-1,21.7-1.6c0.5,0,1.1-0.1,1.7-0.2
		c0.6-0.1,1.2-0.1,1.9-0.2c0.2,0,0.4,0,0.7-0.1c0.2,0,0.4-0.1,0.7-0.1c1.8-0.2,4-0.4,6.2-0.7c0.3,0,0.6-0.1,0.9-0.1
		c2.6-0.3,5.5-0.6,8.2-0.9c1-0.1,1.9-0.2,2.8-0.3c1.3-0.2,2.6-0.3,3.8-0.4c0.6-0.1,1.2-0.1,1.8-0.2c0.6-0.1,1.1-0.1,1.7-0.2
		c0.4,0,0.7-0.1,1.1-0.1c0.4-0.1,0.9-0.1,1.3-0.2c0.2,0,0.4,0,0.5-0.1c0.5-0.1,1-0.1,1.4-0.2c-1.4,0.2-2.8,0.4-4.2,0.5
		c3.1,1,6.3,1.9,9.7,2.8c3.3,0.8,6.8,1.6,10.5,2.2c1.6,0.3,3.3,0.6,5,0.8c0.8,0.1,1.6,0.2,2.4,0.3c0.6,0.1,1.1,0.2,1.7,0.2
		c7.3,0.9,15.3,1.5,24.1,1.8c29,0.7,46.6-7,56.7-18.9C1391.6,660.2,1374.6,661.9,1356.9,661.2z M1235.2,620.1
		c-0.6,0.9-0.9,1.4-0.9,1.4s-0.4-0.6-1-1.7C1233.9,619.9,1234.6,620,1235.2,620.1c0.8,0.1,1.6,0.3,2.4,0.4
		C1236.8,620.4,1236,620.3,1235.2,620.1z M1299.4,664.3c-0.1,0-0.2,0-0.3,0C1299.2,664.4,1299.3,664.3,1299.4,664.3L1299.4,664.3z"
		/>
	<path class="st36" d="M1327.2,592.1C1327.2,592.1,1327.2,592.1,1327.2,592.1c0,0.1,0,0.3,0,0.5c0,0.2,0,0.5,0,0.7v0.1
		c0,0.4,0,0.9,0,1.3c0,0.3,0,0.6,0,0.9c-0.1,1.9-0.1,3.9-0.2,5.8c-3.5-1.1-9.8-4.4-19.9-8.3l-3.5-16.4c0-0.1,0-0.1,0-0.2V552
		C1315.5,567.8,1327.2,591.9,1327.2,592.1z"/>
</g>
<path class="st37" d="M1286.2,342.7c-6.2-35.4-71.2-35-82.5-4.3l0,0c0,0,0,0,0,0c-0.2,0.6-0.4,1.2-0.6,1.8c-0.1,0.2-0.1,0.4-0.2,0.5
	c-0.2,0.6-0.3,1.3-0.5,2c-0.1,0.6-0.2,1.3-0.3,1.9c-0.5,2.9-1,6.2-1.5,9.8c9.4,4.7,21.9,6.9,22.4,6.9c10.3,2.6,25.2,1.8,46.4-7.9
	c0,0-1.8,8,2.4,14.7c1.2,2,3,3.9,5.5,5.5c2-8.3,5.3-14.3,10.7-12.7C1287.9,354.8,1287.3,348.6,1286.2,342.7z"/>
<path class="st37" d="M1263.7,414.4c-15.6-17.7-28.7-16.5-28.7-16.5c-4.9-0.2-8.7,0.6-11.7,1.9c0,0-0.1,0-0.1,0
	c-0.1,0-0.1,0.1-0.2,0.1c-0.2,0.1-0.5,0.2-0.7,0.3c-0.1,0-0.1,0.1-0.2,0.1c-1.6,0.8-2.9,1.8-3.9,3c-3.7,3.4-7.2,8.1-9.4,11.1
	c1.2,1.9,2.6,3.8,4.1,5.5c0,0,0,0,0,0c0.6,0.7,1.3,1.4,2,2.1c0.2,0.2,0.3,0.3,0.5,0.5c0.5,0.5,1.1,1,1.7,1.5
	c0.2,0.2,0.5,0.4,0.7,0.6c0.5,0.4,1.1,0.8,1.7,1.2c0.3,0.2,0.6,0.4,0.8,0.6c0.2,0.1,0.3,0.2,0.5,0.4c0,0,0,0,0,0
	c4.3,2.6,9.3,4.6,15.3,5.7c0.6,0.1,1.2,0.2,1.7,0.2l0,0c0.3,0,0.6,0.1,0.9,0.1c0.3,0,0.6,0.1,0.9,0.1c0.7,0.1,1.3,0.1,2,0.2
	c0.3,0,0.6,0,0.9,0c0.9,0,1.7,0,2.5,0c0.1,0,0.1,0,0.2,0c0.9,0,1.7-0.1,2.6-0.2c0.3,0,0.6-0.1,0.9-0.1c0.6-0.1,1.1-0.1,1.6-0.2
	c0.3-0.1,0.7-0.1,1-0.2c0.5-0.1,0.9-0.2,1.4-0.3c0.4-0.1,0.8-0.2,1.1-0.3c0.3-0.1,0.7-0.2,1-0.3c1.2-0.4,2.3-0.7,3.4-1.2
	c5.4-2.3,10-5.9,13.9-10.5c4-4.8,7.2-10.7,9.7-17.2c0.5-1.3,1-2.7,1.4-4c0.1-0.2,0.1-0.3,0.2-0.5
	C1272.3,420.6,1266.1,417,1263.7,414.4z"/>
<g>
	<g>
		<path class="st6" d="M1250.2,548.1l-0.1-0.8l-0.8,0c-5.6-0.1-7.6-1.8-7.6-1.8l-0.6-0.5l-0.6,0.5c0,0-2.1,1.7-7.6,1.8l-0.8,0
			l-0.1,0.8c0,0.1-1.1,10.4,8.7,16.1l0.5,0.3l0.5-0.3C1251.3,558.4,1250.2,548.2,1250.2,548.1z M1241,562.2
			c-6.8-4.3-7.4-10.8-7.3-13.1c4.1-0.2,6.3-1.2,7.3-1.8c1,0.6,3.3,1.6,7.3,1.8C1248.3,551.4,1247.7,558,1241,562.2z"/>
		<path class="st6" d="M1238.5,552v0.9c-0.5,0.3-0.8,0.8-0.8,1.4v1.9c0,0.9,0.7,1.6,1.6,1.6h3.2c0.9,0,1.6-0.7,1.6-1.6v-1.9
			c0-0.6-0.3-1.1-0.8-1.4V552c0-1.3-1.1-2.4-2.4-2.4C1239.6,549.5,1238.5,550.6,1238.5,552z M1241.4,554.7v1.7
			c0,0.1-0.1,0.2-0.2,0.2h-0.4c-0.1,0-0.2-0.1-0.2-0.2v-1.7c-0.1-0.1-0.2-0.3-0.2-0.4c0-0.3,0.3-0.6,0.6-0.6c0.3,0,0.6,0.3,0.6,0.6
			C1241.6,554.5,1241.5,554.6,1241.4,554.7z M1242.6,552v0.7c0,0,0,0-0.1,0h-3.2c0,0,0,0-0.1,0V552c0-0.9,0.8-1.7,1.7-1.7
			C1241.9,550.3,1242.6,551,1242.6,552z"/>
	</g>
</g>
<g>
	
		<linearGradient id="SVGID_11_" gradientUnits="userSpaceOnUse" x1="1160.0615" y1="115.4471" x2="1275.58" y2="115.4471" gradientTransform="matrix(0.9982 -5.967157e-02 5.967157e-02 0.9982 15.4083 286.6884)">
		<stop  offset="0" style="stop-color:#67AAE0"/>
		<stop  offset="1" style="stop-color:#8CBF69"/>
	</linearGradient>
	<path class="st38" d="M1226.3,295.3c0,0-32.3,11.5-37.5,35.1c0,0,3.6,8.6,10.8,14.7l0.2,2.6c0,0-17.5,8.1-17.6,8.4
		c-0.1,0.3-1.1,3.3,0.9,3.5c0,0,40.6-21.1,80.6-2.7c0,0,3.4,0.8,3.4-2.7c0,0,11.1,6.7,20.4,6.8l1.8-8.1l-0.5-0.5
		c0,0,12.5-9.1,5.2-22C1286.8,317.5,1236,292.5,1226.3,295.3z"/>
	<path class="st39" d="M1199,344.8c0,0,7.6-19.1,52.7-9.9c45.1,9.1,37.7,18.2,37.7,18.2l-2.1,7.7c0,0-15.6-1.5-29.8-12.5
		c-26.6-13-57.8-0.5-57.8-0.5L1199,344.8z"/>
</g>
<g>
	<g>
		<path class="st8" d="M1240.8,306.7l-0.1-1.1l-1.1,0c-7.6-0.1-10.4-2.5-10.5-2.5l-0.9-0.8l-0.9,0.7c0,0-2.8,2.3-10.5,2.5l-1.1,0
			l-0.1,1.1c0,0.1-1.6,14.2,12,22.1l0.7,0.4l0.7-0.4C1242.4,320.9,1240.8,306.9,1240.8,306.7z M1228.2,326.1
			c-9.4-5.8-10.1-14.8-10.1-18c5.6-0.3,8.7-1.7,10.1-2.5c1.4,0.8,4.5,2.2,10.1,2.5C1238.3,311.3,1237.5,320.3,1228.2,326.1z"/>
		<path class="st8" d="M1224.9,312.1l0,1.2c-0.6,0.4-1.1,1.1-1.1,1.9l0,2.6c0,1.2,1,2.2,2.2,2.2l4.4,0c1.2,0,2.2-1,2.2-2.2l0-2.6
			c0-0.8-0.4-1.5-1.1-1.9l0-1.2c0-1.8-1.5-3.3-3.3-3.3C1226.4,308.7,1224.9,310.2,1224.9,312.1z M1228.8,315.9l0,2.3
			c0,0.2-0.1,0.3-0.3,0.3l-0.6,0c-0.2,0-0.3-0.1-0.3-0.3l0-2.3c-0.2-0.2-0.3-0.4-0.3-0.6c0-0.5,0.4-0.8,0.8-0.8
			c0.5,0,0.8,0.4,0.8,0.8C1229,315.5,1228.9,315.7,1228.8,315.9z M1230.5,312.1l0,0.9c0,0-0.1,0-0.1,0l-4.4,0c0,0-0.1,0-0.1,0l0-0.9
			c0-1.3,1-2.3,2.3-2.3C1229.5,309.8,1230.5,310.8,1230.5,312.1z"/>
	</g>
</g>
</svg>
