<?xml version="1.0" encoding="utf-8"?>
<!-- Generator: Adobe Illustrator 21.0.0, SVG Export Plug-In . SVG Version: 6.00 Build 0)  -->
<svg version="1.1" id="Слой_1" xmlns="http://www.w3.org/2000/svg" xmlns:xlink="http://www.w3.org/1999/xlink" x="0px" y="0px"
	 viewBox="0 0 32.7 37.4" style="enable-background:new 0 0 32.7 37.4;" xml:space="preserve">
<style type="text/css">
	.st0{clip-path:url(#SVGID_2_);fill:#FF0401;}
</style>
<g>
	<defs>
		<rect id="SVGID_1_" y="0" width="32.7" height="37.4"/>
	</defs>
	<clipPath id="SVGID_2_">
		<use xlink:href="#SVGID_1_"  style="overflow:visible;"/>
	</clipPath>
	<path class="st0" d="M3.7,26.6V7.2c-2,0-3.7,1.6-3.7,3.6v22.9c0,2,1.6,3.7,3.7,3.7h18.2c2,0,3.7-1.6,3.7-3.6H10.9
		C6.9,33.8,3.7,33.8,3.7,26.6 M31.5,10.8h-6.1c-2,0-3.7-1.6-3.7-3.6V1.2C21.8,0.5,21.3,0,20.6,0h-9.7c-2,0-3.7,1.6-3.7,3.6v22.9
		c0,2,1.6,3.6,3.7,3.6h18.2c2,0,3.7-1.6,3.7-3.6V12.1C32.7,11.4,32.2,10.8,31.5,10.8 M32.5,5.8l-5.6-5.5C26.7,0.1,26.6,0,26.3,0
		c-0.5,0-0.9,0.4-0.9,0.9v4c0,1.3,1.1,2.4,2.4,2.4h4c0.5,0,0.9-0.4,0.9-0.9C32.7,6.2,32.7,6,32.5,5.8"/>
</g>
</svg>
