<?xml version="1.0" encoding="utf-8"?>
<!-- Generator: Adobe Illustrator 21.0.0, SVG Export Plug-In . SVG Version: 6.00 Build 0)  -->
<svg version="1.1" id="Слой_1" xmlns="http://www.w3.org/2000/svg" xmlns:xlink="http://www.w3.org/1999/xlink" x="0px" y="0px"
	 viewBox="0 0 28.9 29.4" style="enable-background:new 0 0 28.9 29.4;" xml:space="preserve">
<style type="text/css">
	.st0{clip-path:url(#SVGID_2_);fill:#FF0401;}
</style>
<g>
	<defs>
		<rect id="SVGID_1_" y="0" width="28.9" height="29.4"/>
	</defs>
	<clipPath id="SVGID_2_">
		<use xlink:href="#SVGID_1_"  style="overflow:visible;"/>
	</clipPath>
	<path class="st0" d="M20.8,5.3h3.3V0h-3.3V5.3z M5.4,5.3h3.3V0H5.4V5.3z M0,25.5c0,2.2,1.8,3.9,3.9,3.9H25c2.2,0,3.9-1.8,3.9-3.9
		V11.9H0V25.5z M28.9,10H0V6.3c0-2.1,1.7-3.7,3.7-3.7h0.7v2.7v1.1h1.1h3.3h1.1V5.3V2.6h10v2.7v1.1h1.1h3.3h1.1V5.3V2.6h0
		c2.1,0,3.7,1.7,3.7,3.7V10z"/>
</g>
</svg>
