<?xml version="1.0" encoding="utf-8"?>
<!-- Generator: Adobe Illustrator 21.0.0, SVG Export Plug-In . SVG Version: 6.00 Build 0)  -->
<svg version="1.1" id="Layer_1" xmlns="http://www.w3.org/2000/svg" xmlns:xlink="http://www.w3.org/1999/xlink" x="0px" y="0px"
	 viewBox="0 0 130.4 47.1" style="enable-background:new 0 0 130.4 47.1;" xml:space="preserve">
<style type="text/css">
	.st0{fill:#000200;}
	.st1{fill:#666666;}
	.st2{fill:#535353;}
</style>
<g>
	<path class="st0" d="M46.7,0.7h13c4.8,0,7,3.2,7,6.1c0,2.1-0.8,3.5-3,4.7c2.7,1,4.2,2.8,4.2,5.6c0,3.4-2.4,6.9-8.2,6.9h-13
		L46.7,0.7z M53.8,18.8h4.7c1.7,0,2.4-1.2,2.4-2.3c0,0.5,0.2-1.9-2.2-1.9h-5V18.8z M53.9,9.9h3.8c1.7,0,2.4-0.8,2.4-2
		c0-0.3-0.1-1.8-1.9-1.8h-4.3V9.9z"/>
	<path class="st0" d="M75.4,0.7h7.5L91.5,24h-7.7l-1.1-3.5h-7.2l-1,3.5h-7.7L75.4,0.7z M78.8,7.6l-2,7.8h4.2L78.8,7.6z"/>
	<path class="st0" d="M103.5,7.6h7.2c0-4-3-7.6-10.1-7.6c-7.8,0-10.2,4.3-10.2,7.4c0,5.1,6.2,6.4,6.4,6.5c0.9,0.3,4.8,1.3,5.7,1.7
		c0.8,0.3,1.6,1,1.6,1.9c0,1.4-1.6,2-3,2c-0.9,0-3.8-0.3-3.8-3.4H90c0,4.1,2.8,8.7,10.8,8.7c8.8,0,10.6-5.2,10.6-8
		c0-2.3-1.3-4.8-4.2-6c-1.8-0.7-4.7-1.3-6.2-1.8c-0.7-0.2-3.2-0.7-3.2-2.2c0-1.9,3.2-1.7,2.7-1.7C101.8,5,103.5,5.9,103.5,7.6"/>
	<polygon class="st0" points="112.5,0.7 130.4,0.7 130.4,6.9 119.7,6.9 119.7,11 129.3,11 129.3,16.9 119.6,16.9 119.6,24.1 
		112.5,24.1 	"/>
	<path class="st1" d="M0,24.1h23.4V0.7H0V24.1z M16.2,16.9h-9v-9h9V16.9z"/>
	<rect x="30.6" y="7.9" class="st2" width="9" height="9"/>
	<polygon class="st0" points="8.8,44.1 6.5,35.5 6.4,35.5 4.1,44.1 2.6,44.1 0,33.9 1.4,33.9 3.4,42.4 3.4,42.4 5.7,33.9 7.2,33.9 
		9.5,42.4 9.5,42.4 11.6,33.9 13,33.9 10.2,44.1 	"/>
	<path class="st0" d="M18.4,43.7c-0.6,0.4-1.3,0.6-2.1,0.6c-0.6,0-1.1-0.1-1.5-0.3c-0.4-0.2-0.8-0.5-1.1-0.8
		c-0.3-0.3-0.5-0.8-0.7-1.2c-0.1-0.5-0.2-1-0.3-1.6c0-0.6,0.1-1.1,0.3-1.6c0.2-0.5,0.4-0.9,0.7-1.2c0.3-0.3,0.7-0.6,1.1-0.8
		c0.4-0.2,0.9-0.3,1.4-0.3c0.7,0,1.2,0.1,1.6,0.4c0.4,0.3,0.8,0.6,1.1,1c0.3,0.4,0.4,0.9,0.5,1.4c0.1,0.5,0.1,1,0.1,1.4H14
		c0,0.3,0,0.6,0.1,0.9c0.1,0.3,0.2,0.6,0.4,0.8c0.2,0.2,0.4,0.4,0.7,0.5c0.3,0.1,0.6,0.2,1,0.2c0.5,0,0.9-0.1,1.3-0.4
		c0.3-0.2,0.5-0.6,0.7-1.1h1.2C19.3,42.6,19,43.2,18.4,43.7 M18.1,38.9c-0.1-0.3-0.3-0.5-0.4-0.7c-0.2-0.2-0.4-0.3-0.7-0.4
		c-0.3-0.1-0.5-0.2-0.8-0.2c-0.3,0-0.6,0.1-0.9,0.2c-0.3,0.1-0.5,0.3-0.7,0.5c-0.2,0.2-0.3,0.4-0.4,0.7c-0.1,0.3-0.2,0.5-0.2,0.8
		h4.3C18.3,39.4,18.2,39.1,18.1,38.9"/>
	<path class="st0" d="M29.7,38c-0.3-0.3-0.7-0.4-1.2-0.4c-0.4,0-0.8,0.1-1.1,0.2c-0.3,0.2-0.5,0.4-0.7,0.6c-0.2,0.3-0.3,0.6-0.4,0.9
		c-0.1,0.4-0.1,0.7-0.1,1.1c0,0.3,0,0.7,0.1,1c0.1,0.3,0.2,0.6,0.4,0.9c0.2,0.3,0.4,0.5,0.7,0.6c0.3,0.2,0.6,0.2,1,0.2
		c0.6,0,1.1-0.2,1.4-0.5c0.3-0.3,0.5-0.8,0.6-1.3h1.3c-0.1,0.9-0.5,1.6-1,2.1c-0.6,0.5-1.3,0.7-2.3,0.7c-0.6,0-1.1-0.1-1.5-0.3
		c-0.4-0.2-0.8-0.4-1.1-0.8c-0.3-0.3-0.5-0.7-0.7-1.2c-0.1-0.5-0.2-1-0.2-1.5c0-0.6,0.1-1.1,0.2-1.6c0.1-0.5,0.4-0.9,0.7-1.3
		c0.3-0.4,0.7-0.6,1.1-0.8c0.4-0.2,1-0.3,1.5-0.3c0.4,0,0.8,0.1,1.2,0.2c0.4,0.1,0.7,0.3,1,0.5c0.3,0.2,0.5,0.5,0.7,0.8
		c0.2,0.3,0.3,0.7,0.3,1.1h-1.3C30.2,38.6,30,38.2,29.7,38"/>
	<path class="st0" d="M33.7,36.7v1.6h0c0.3-0.6,0.7-1,1.1-1.3c0.4-0.3,1-0.4,1.6-0.4v1.3c-0.5,0-0.9,0.1-1.2,0.2
		c-0.3,0.1-0.6,0.3-0.8,0.6c-0.2,0.3-0.4,0.6-0.5,0.9c-0.1,0.4-0.1,0.8-0.1,1.3v3.3h-1.2v-7.4H33.7z"/>
	<path class="st0" d="M42.5,43.7c-0.6,0.4-1.3,0.6-2.1,0.6c-0.6,0-1.1-0.1-1.5-0.3c-0.4-0.2-0.8-0.5-1.1-0.8
		c-0.3-0.3-0.5-0.8-0.7-1.2c-0.1-0.5-0.2-1-0.3-1.6c0-0.6,0.1-1.1,0.3-1.6c0.2-0.5,0.4-0.9,0.7-1.2c0.3-0.3,0.7-0.6,1.1-0.8
		c0.4-0.2,0.9-0.3,1.4-0.3c0.7,0,1.2,0.1,1.6,0.4c0.4,0.3,0.8,0.6,1.1,1c0.3,0.4,0.4,0.9,0.5,1.4c0.1,0.5,0.1,1,0.1,1.4h-5.6
		c0,0.3,0,0.6,0.1,0.9c0.1,0.3,0.2,0.6,0.4,0.8c0.2,0.2,0.4,0.4,0.7,0.5c0.3,0.1,0.6,0.2,1.1,0.2c0.5,0,0.9-0.1,1.3-0.4
		c0.3-0.2,0.5-0.6,0.7-1.1h1.2C43.5,42.6,43.1,43.2,42.5,43.7 M42.2,38.9c-0.1-0.3-0.3-0.5-0.4-0.7c-0.2-0.2-0.4-0.3-0.7-0.4
		c-0.3-0.1-0.5-0.2-0.8-0.2c-0.3,0-0.6,0.1-0.9,0.2c-0.3,0.1-0.5,0.3-0.7,0.5c-0.2,0.2-0.3,0.4-0.4,0.7c-0.1,0.3-0.2,0.5-0.2,0.8
		h4.3C42.4,39.4,42.4,39.1,42.2,38.9"/>
	<path class="st0" d="M50.9,44.3c-0.3,0-0.6-0.1-0.8-0.3c-0.2-0.2-0.3-0.5-0.3-0.9c-0.3,0.4-0.7,0.7-1.2,0.9
		c-0.4,0.2-0.9,0.3-1.4,0.3c-0.3,0-0.7,0-0.9-0.1c-0.3-0.1-0.6-0.2-0.8-0.4c-0.2-0.2-0.4-0.4-0.5-0.6c-0.1-0.3-0.2-0.6-0.2-1
		c0-0.4,0.1-0.8,0.2-1c0.1-0.3,0.3-0.5,0.6-0.7c0.2-0.2,0.5-0.3,0.8-0.4c0.3-0.1,0.6-0.2,0.9-0.2c0.3-0.1,0.7-0.1,1-0.2
		c0.3,0,0.6-0.1,0.8-0.1c0.2-0.1,0.4-0.2,0.5-0.3c0.1-0.1,0.2-0.3,0.2-0.5c0-0.3,0-0.5-0.1-0.6c-0.1-0.2-0.2-0.3-0.4-0.4
		c-0.2-0.1-0.3-0.1-0.5-0.2c-0.2,0-0.4,0-0.6,0c-0.5,0-0.9,0.1-1.3,0.3c-0.3,0.2-0.5,0.6-0.6,1.1h-1.2c0-0.5,0.1-0.8,0.3-1.2
		c0.2-0.3,0.4-0.6,0.7-0.8c0.3-0.2,0.6-0.3,1-0.4c0.4-0.1,0.8-0.1,1.2-0.1c0.3,0,0.7,0,1,0.1c0.3,0,0.6,0.1,0.9,0.3
		c0.3,0.1,0.5,0.4,0.6,0.6c0.2,0.3,0.2,0.6,0.2,1.1v3.8c0,0.3,0,0.5,0.1,0.6c0,0.1,0.1,0.2,0.3,0.2c0.1,0,0.2,0,0.4-0.1v0.9
		C51.6,44.2,51.3,44.3,50.9,44.3 M49.2,40.5c-0.2,0.1-0.5,0.1-0.8,0.1c-0.3,0-0.5,0.1-0.8,0.1c-0.3,0-0.5,0.1-0.7,0.2
		c-0.2,0.1-0.4,0.2-0.5,0.4c-0.1,0.2-0.2,0.4-0.2,0.7c0,0.2,0,0.4,0.1,0.5c0.1,0.1,0.2,0.3,0.3,0.3c0.1,0.1,0.3,0.1,0.5,0.2
		c0.2,0,0.4,0.1,0.5,0.1c0.4,0,0.7-0.1,1-0.2c0.3-0.1,0.5-0.2,0.7-0.4c0.2-0.2,0.3-0.3,0.4-0.5c0.1-0.2,0.1-0.4,0.1-0.6v-1.2
		C49.6,40.4,49.4,40.5,49.2,40.5"/>
	<path class="st0" d="M56.3,36.7v1.1h-1.5v4.6c0,0.1,0,0.3,0,0.3l0.1,0.2c0.1,0,0.2,0.1,0.3,0.1c0.1,0,0.3,0,0.5,0h0.6v1.1h-0.9
		c-0.3,0-0.6,0-0.8-0.1c-0.2,0-0.4-0.1-0.5-0.2c-0.1-0.1-0.2-0.3-0.3-0.5c-0.1-0.2-0.1-0.5-0.1-0.8v-4.7h-1.3v-1.1h1.3v-2.2h1.2v2.2
		H56.3z"/>
	<path class="st0" d="M62.8,43.7c-0.6,0.4-1.3,0.6-2.1,0.6c-0.6,0-1.1-0.1-1.5-0.3c-0.4-0.2-0.8-0.5-1.1-0.8
		c-0.3-0.3-0.5-0.8-0.7-1.2c-0.1-0.5-0.2-1-0.3-1.6c0-0.6,0.1-1.1,0.3-1.6c0.2-0.5,0.4-0.9,0.7-1.2c0.3-0.3,0.7-0.6,1.1-0.8
		c0.4-0.2,0.9-0.3,1.4-0.3c0.7,0,1.2,0.1,1.6,0.4c0.4,0.3,0.8,0.6,1,1c0.3,0.4,0.4,0.9,0.5,1.4c0.1,0.5,0.1,1,0.1,1.4h-5.6
		c0,0.3,0,0.6,0.1,0.9c0.1,0.3,0.2,0.6,0.4,0.8c0.2,0.2,0.4,0.4,0.7,0.5c0.3,0.1,0.6,0.2,1.1,0.2c0.5,0,0.9-0.1,1.3-0.4
		c0.3-0.2,0.5-0.6,0.7-1.1h1.2C63.7,42.6,63.3,43.2,62.8,43.7 M62.5,38.9c-0.1-0.3-0.3-0.5-0.4-0.7c-0.2-0.2-0.4-0.3-0.7-0.4
		c-0.3-0.1-0.5-0.2-0.8-0.2c-0.3,0-0.6,0.1-0.9,0.2c-0.3,0.1-0.5,0.3-0.7,0.5c-0.2,0.2-0.3,0.4-0.4,0.7c-0.1,0.3-0.2,0.5-0.2,0.8
		h4.3C62.7,39.4,62.6,39.1,62.5,38.9"/>
	<path class="st0" d="M74.1,38c-0.3-0.3-0.7-0.4-1.2-0.4c-0.4,0-0.8,0.1-1.1,0.2c-0.3,0.2-0.5,0.4-0.7,0.6c-0.2,0.3-0.3,0.6-0.4,0.9
		c-0.1,0.4-0.1,0.7-0.1,1.1c0,0.3,0,0.7,0.1,1c0.1,0.3,0.2,0.6,0.4,0.9c0.2,0.3,0.4,0.5,0.7,0.6c0.3,0.2,0.6,0.2,1,0.2
		c0.6,0,1.1-0.2,1.4-0.5c0.3-0.3,0.5-0.8,0.6-1.3H76c-0.1,0.9-0.5,1.6-1,2.1c-0.6,0.5-1.3,0.7-2.3,0.7c-0.6,0-1.1-0.1-1.5-0.3
		c-0.4-0.2-0.8-0.4-1.1-0.8c-0.3-0.3-0.5-0.7-0.7-1.2c-0.1-0.5-0.2-1-0.2-1.5c0-0.6,0.1-1.1,0.2-1.6c0.1-0.5,0.4-0.9,0.7-1.3
		c0.3-0.4,0.7-0.6,1.1-0.8c0.4-0.2,1-0.3,1.5-0.3c0.4,0,0.8,0.1,1.2,0.2c0.4,0.1,0.7,0.3,1,0.5c0.3,0.2,0.5,0.5,0.7,0.8
		c0.2,0.3,0.3,0.7,0.3,1.1h-1.3C74.6,38.6,74.4,38.2,74.1,38"/>
	<path class="st0" d="M78.5,33.9v3.9h0c0.1-0.2,0.2-0.4,0.4-0.6c0.2-0.2,0.4-0.3,0.6-0.4c0.2-0.1,0.4-0.2,0.7-0.2
		c0.2,0,0.5-0.1,0.7-0.1c0.5,0,0.9,0.1,1.2,0.2c0.3,0.1,0.6,0.3,0.8,0.6c0.2,0.2,0.3,0.5,0.4,0.9c0.1,0.3,0.1,0.7,0.1,1.1v4.9h-1.2
		v-5c0-0.5-0.1-0.8-0.4-1.1c-0.3-0.3-0.6-0.4-1.1-0.4c-0.4,0-0.7,0.1-1,0.2c-0.3,0.1-0.5,0.3-0.7,0.5c-0.2,0.2-0.3,0.5-0.4,0.7
		c-0.1,0.3-0.1,0.6-0.1,0.9v4.2h-1.2V33.9H78.5z"/>
	<path class="st0" d="M90.4,43.7c-0.6,0.4-1.3,0.6-2.1,0.6c-0.6,0-1.1-0.1-1.5-0.3c-0.4-0.2-0.8-0.5-1.1-0.8
		c-0.3-0.3-0.5-0.8-0.7-1.2c-0.1-0.5-0.2-1-0.3-1.6c0-0.6,0.1-1.1,0.3-1.6c0.2-0.5,0.4-0.9,0.7-1.2c0.3-0.3,0.7-0.6,1.1-0.8
		c0.4-0.2,0.9-0.3,1.4-0.3c0.7,0,1.2,0.1,1.6,0.4c0.4,0.3,0.8,0.6,1.1,1c0.3,0.4,0.4,0.9,0.5,1.4c0.1,0.5,0.1,1,0.1,1.4H86
		c0,0.3,0,0.6,0.1,0.9c0.1,0.3,0.2,0.6,0.4,0.8c0.2,0.2,0.4,0.4,0.7,0.5c0.3,0.1,0.6,0.2,1,0.2c0.5,0,0.9-0.1,1.3-0.4
		c0.3-0.2,0.5-0.6,0.7-1.1h1.2C91.3,42.6,90.9,43.2,90.4,43.7 M90.1,38.9c-0.1-0.3-0.3-0.5-0.4-0.7c-0.2-0.2-0.4-0.3-0.7-0.4
		c-0.3-0.1-0.5-0.2-0.8-0.2c-0.3,0-0.6,0.1-0.9,0.2c-0.3,0.1-0.5,0.3-0.7,0.5c-0.2,0.2-0.3,0.4-0.4,0.7c-0.1,0.3-0.2,0.5-0.2,0.8
		h4.3C90.3,39.4,90.2,39.1,90.1,38.9"/>
	<path class="st0" d="M93.9,36.7v1.1h0c0.6-0.8,1.4-1.3,2.4-1.3c0.5,0,0.9,0.1,1.3,0.3s0.6,0.5,0.8,1c0.2-0.4,0.6-0.7,1-0.9
		c0.4-0.2,0.9-0.3,1.3-0.3c0.4,0,0.7,0,1,0.1c0.3,0.1,0.6,0.2,0.8,0.4c0.2,0.2,0.4,0.4,0.5,0.7c0.1,0.3,0.2,0.6,0.2,1v5.4h-1.2v-4.9
		c0-0.2,0-0.4-0.1-0.6c0-0.2-0.1-0.4-0.2-0.5c-0.1-0.1-0.3-0.3-0.4-0.4c-0.2-0.1-0.4-0.1-0.7-0.1c-0.6,0-1.1,0.2-1.4,0.5
		c-0.3,0.3-0.5,0.8-0.5,1.4v4.6h-1.2v-4.9c0-0.2,0-0.5-0.1-0.7c0-0.2-0.1-0.4-0.2-0.5c-0.1-0.1-0.2-0.3-0.4-0.3
		c-0.2-0.1-0.4-0.1-0.7-0.1c-0.4,0-0.7,0.1-0.9,0.2c-0.3,0.1-0.5,0.3-0.6,0.5c-0.2,0.2-0.3,0.4-0.3,0.6C94,39.2,94,39.4,94,39.5v4.6
		h-1.2v-7.4H93.9z"/>
	<path class="st0" d="M104.4,33.9h1.2v1.5h-1.2V33.9z M105.6,44.1h-1.2v-7.4h1.2V44.1z"/>
	<path class="st0" d="M108.4,42.5c0.1,0.2,0.3,0.3,0.5,0.4c0.2,0.1,0.4,0.2,0.6,0.2c0.2,0,0.5,0.1,0.7,0.1c0.2,0,0.4,0,0.6,0
		c0.2,0,0.4-0.1,0.6-0.2c0.2-0.1,0.3-0.2,0.4-0.3c0.1-0.1,0.2-0.3,0.2-0.6c0-0.3-0.1-0.6-0.4-0.7c-0.2-0.2-0.5-0.3-0.9-0.4
		c-0.4-0.1-0.7-0.2-1.2-0.3c-0.4-0.1-0.8-0.2-1.2-0.3c-0.4-0.1-0.7-0.4-0.9-0.6c-0.2-0.3-0.4-0.6-0.4-1.1c0-0.4,0.1-0.7,0.3-1
		c0.2-0.3,0.4-0.5,0.6-0.7c0.3-0.2,0.6-0.3,0.9-0.4c0.3-0.1,0.7-0.1,1-0.1c0.4,0,0.8,0,1.2,0.1c0.4,0.1,0.7,0.2,0.9,0.4
		c0.3,0.2,0.5,0.4,0.7,0.7c0.2,0.3,0.3,0.7,0.3,1.1h-1.2c0-0.2-0.1-0.4-0.2-0.6c-0.1-0.2-0.2-0.3-0.4-0.4c-0.2-0.1-0.3-0.2-0.5-0.2
		c-0.2,0-0.4-0.1-0.6-0.1c-0.2,0-0.4,0-0.6,0c-0.2,0-0.4,0.1-0.5,0.2c-0.2,0.1-0.3,0.2-0.4,0.3c-0.1,0.1-0.1,0.3-0.1,0.5
		c0,0.2,0.1,0.4,0.2,0.5c0.1,0.1,0.3,0.3,0.6,0.3c0.2,0.1,0.5,0.2,0.8,0.2c0.3,0.1,0.6,0.1,0.9,0.2c0.3,0.1,0.6,0.1,0.9,0.2
		c0.3,0.1,0.6,0.2,0.8,0.4c0.2,0.2,0.4,0.4,0.5,0.6c0.1,0.2,0.2,0.5,0.2,0.9c0,0.5-0.1,0.8-0.3,1.1c-0.2,0.3-0.4,0.5-0.7,0.7
		c-0.3,0.2-0.6,0.3-1,0.4c-0.4,0.1-0.8,0.1-1.1,0.1c-0.4,0-0.8,0-1.2-0.1c-0.4-0.1-0.7-0.2-1-0.4c-0.3-0.2-0.5-0.5-0.7-0.8
		c-0.2-0.3-0.3-0.7-0.3-1.2h1.2C108.2,42.1,108.2,42.3,108.4,42.5"/>
	<path class="st0" d="M117.7,36.7v1.1h-1.5v4.6c0,0.1,0,0.3,0,0.3l0.1,0.2c0.1,0,0.2,0.1,0.3,0.1c0.1,0,0.3,0,0.5,0h0.6v1.1h-0.9
		c-0.3,0-0.6,0-0.8-0.1c-0.2,0-0.4-0.1-0.5-0.2c-0.1-0.1-0.2-0.3-0.3-0.5c-0.1-0.2-0.1-0.5-0.1-0.8v-4.7h-1.3v-1.1h1.3v-2.2h1.2v2.2
		H117.7z"/>
	<path class="st0" d="M120,36.7v1.6h0c0.3-0.6,0.7-1,1.1-1.3c0.4-0.3,1-0.4,1.6-0.4v1.3c-0.5,0-0.9,0.1-1.3,0.2
		c-0.3,0.1-0.6,0.3-0.8,0.6c-0.2,0.3-0.4,0.6-0.5,0.9c-0.1,0.4-0.1,0.8-0.1,1.3v3.3h-1.2v-7.4H120z"/>
	<path class="st0" d="M126.7,46c-0.1,0.2-0.3,0.5-0.5,0.6c-0.2,0.2-0.4,0.3-0.6,0.3c-0.2,0.1-0.4,0.1-0.7,0.1c-0.1,0-0.3,0-0.4,0
		c-0.1,0-0.3-0.1-0.4-0.1v-1.1c0.1,0,0.2,0.1,0.4,0.1c0.1,0,0.2,0.1,0.4,0.1c0.3,0,0.5-0.1,0.6-0.2c0.2-0.1,0.3-0.3,0.4-0.5l0.5-1.3
		l-2.9-7.4h1.4l2.2,6.1h0l2.1-6.1h1.3l-3.2,8.4C127,45.5,126.8,45.8,126.7,46"/>
</g>
</svg>
