<?xml version="1.0" encoding="utf-8"?>
<!-- Generator: Adobe Illustrator 21.0.0, SVG Export Plug-In . SVG Version: 6.00 Build 0)  -->
<svg version="1.1" id="Слой_1" xmlns="http://www.w3.org/2000/svg" xmlns:xlink="http://www.w3.org/1999/xlink" x="0px" y="0px"
	 viewBox="0 0 429 429" style="enable-background:new 0 0 429 429;" xml:space="preserve">
<style type="text/css">
	.st0{clip-path:url(#SVGID_2_);}
	.st1{clip-path:url(#SVGID_2_);fill:#c70901;stroke:#c70901;stroke-width:2;stroke-miterlimit:10;}
</style>
<g>
	<defs>
		<rect id="SVGID_1_" width="429" height="429"/>
	</defs>
	<clipPath id="SVGID_2_">
		<use xlink:href="#SVGID_1_"  style="overflow:visible;"/>
	</clipPath>
	<path class="st0" d="M173.8,1H26.5C12.4,1,1,12.4,1,26.5v147.3c0,14,11.4,25.5,25.5,25.5h147.3c14,0,25.5-11.4,25.5-25.5V26.5
		C199.3,12.4,187.8,1,173.8,1 M184,173.8c0,5.6-4.6,10.2-10.2,10.2H26.5c-5.6,0-10.2-4.6-10.2-10.2V26.5c0-5.6,4.6-10.2,10.2-10.2
		h147.3c5.6,0,10.2,4.6,10.2,10.2V173.8z"/>
	<path class="st1" d="M173.8,1H26.5C12.4,1,1,12.4,1,26.5v147.3c0,14,11.4,25.5,25.5,25.5h147.3c14,0,25.5-11.4,25.5-25.5V26.5
		C199.3,12.4,187.8,1,173.8,1z M184,173.8c0,5.6-4.6,10.2-10.2,10.2H26.5c-5.6,0-10.2-4.6-10.2-10.2V26.5c0-5.6,4.6-10.2,10.2-10.2
		h147.3c5.6,0,10.2,4.6,10.2,10.2V173.8z"/>
	<path class="st0" d="M402.5,1H255.2c-14,0-25.5,11.4-25.5,25.5v147.3c0,14,11.4,25.5,25.5,25.5h147.3c14,0,25.5-11.4,25.5-25.5
		V26.5C428,12.4,416.6,1,402.5,1 M412.8,173.8c0,5.6-4.6,10.2-10.2,10.2H255.2c-5.6,0-10.2-4.6-10.2-10.2V26.5
		c0-5.6,4.6-10.2,10.2-10.2h147.3c5.6,0,10.2,4.6,10.2,10.2V173.8z"/>
	<path class="st1" d="M402.5,1H255.2c-14,0-25.5,11.4-25.5,25.5v147.3c0,14,11.4,25.5,25.5,25.5h147.3c14,0,25.5-11.4,25.5-25.5
		V26.5C428,12.4,416.6,1,402.5,1z M412.8,173.8c0,5.6-4.6,10.2-10.2,10.2H255.2c-5.6,0-10.2-4.6-10.2-10.2V26.5
		c0-5.6,4.6-10.2,10.2-10.2h147.3c5.6,0,10.2,4.6,10.2,10.2V173.8z"/>
	<path class="st0" d="M173.8,229.8H26.5c-14,0-25.5,11.4-25.5,25.5v147.3c0,14,11.4,25.5,25.5,25.5h147.3c14,0,25.5-11.4,25.5-25.5
		V255.2C199.3,241.2,187.8,229.8,173.8,229.8 M184,402.5c0,5.6-4.6,10.2-10.2,10.2H26.5c-5.6,0-10.2-4.6-10.2-10.2V255.2
		c0-5.6,4.6-10.2,10.2-10.2h147.3c5.6,0,10.2,4.6,10.2,10.2V402.5z"/>
	<path class="st1" d="M173.8,229.8H26.5c-14,0-25.5,11.4-25.5,25.5v147.3c0,14,11.4,25.5,25.5,25.5h147.3c14,0,25.5-11.4,25.5-25.5
		V255.2C199.3,241.2,187.8,229.8,173.8,229.8z M184,402.5c0,5.6-4.6,10.2-10.2,10.2H26.5c-5.6,0-10.2-4.6-10.2-10.2V255.2
		c0-5.6,4.6-10.2,10.2-10.2h147.3c5.6,0,10.2,4.6,10.2,10.2V402.5z"/>
	<path class="st0" d="M420.4,321.3h-83.9v-83.9c0-4.2-3.4-7.6-7.6-7.6c-4.2,0-7.6,3.4-7.6,7.6v83.9h-83.9c-4.2,0-7.6,3.4-7.6,7.6
		c0,4.2,3.4,7.6,7.6,7.6h83.9v83.9c0,4.2,3.4,7.6,7.6,7.6c4.2,0,7.6-3.4,7.6-7.6v-83.9h83.9c4.2,0,7.6-3.4,7.6-7.6
		C428,324.7,424.6,321.3,420.4,321.3"/>
	<path class="st1" d="M420.4,321.3h-83.9v-83.9c0-4.2-3.4-7.6-7.6-7.6c-4.2,0-7.6,3.4-7.6,7.6v83.9h-83.9c-4.2,0-7.6,3.4-7.6,7.6
		c0,4.2,3.4,7.6,7.6,7.6h83.9v83.9c0,4.2,3.4,7.6,7.6,7.6c4.2,0,7.6-3.4,7.6-7.6v-83.9h83.9c4.2,0,7.6-3.4,7.6-7.6
		C428,324.7,424.6,321.3,420.4,321.3z"/>
</g>
</svg>
