<?xml version="1.0" encoding="utf-8"?>
<!-- Generator: Adobe Illustrator 21.0.0, SVG Export Plug-In . SVG Version: 6.00 Build 0)  -->
<svg version="1.1" id="Слой_1" xmlns="http://www.w3.org/2000/svg" xmlns:xlink="http://www.w3.org/1999/xlink" x="0px" y="0px"
	 viewBox="0 0 143 30.8" style="enable-background:new 0 0 143 30.8;" xml:space="preserve">
<style type="text/css">
	.st0{clip-path:url(#SVGID_2_);fill:#00874E;}
</style>
<g>
	<defs>
		<rect id="SVGID_1_" y="0" width="143" height="30.8"/>
	</defs>
	<clipPath id="SVGID_2_">
		<use xlink:href="#SVGID_1_"  style="overflow:visible;"/>
	</clipPath>
	<path class="st0" d="M41.7,6.9l-5.9,0V24h6c5.4,0,8.8-3.3,8.8-8.5C50.6,10.3,47,6.9,41.7,6.9 M41.5,21.1h-2.3V9.8h2.4
		c3.2,0,5.4,2.4,5.4,5.7C47.1,18.8,44.8,21.1,41.5,21.1"/>
	<path class="st0" d="M0,7.7v15.4l13.4,7.7l13.4-7.7V7.7L13.4,0L0,7.7z M23.1,9.8V21l-9.7,5.6L3.6,21V9.8l9.7-5.6L23.1,9.8z"/>
	<path class="st0" d="M118.9,8.4c0,1-0.8,1.8-1.8,1.8s-1.8-0.8-1.8-1.8c0-1,0.8-1.8,1.8-1.8S118.9,7.4,118.9,8.4 M118.6,12.2h-3.1
		V24h3.1V12.2z"/>
	<path class="st0" d="M70.3,16.7c-1.3-0.5-1.7-0.8-1.7-1.3c0-0.5,0.4-0.8,1.1-0.8c1.2,0,2,0.6,2.8,1.3l1.8-1.9c-1.1-1.2-2.8-2-4.5-2
		c-2.5,0-4.2,1.4-4.2,3.5c0,2.3,1.8,3.3,3.6,3.8c0.2,0.1,0.4,0.1,0.6,0.2c1,0.3,1.6,0.5,1.6,1.1c0,0.3-0.2,0.9-1.4,0.9
		c-1.2,0-2.3-0.6-2.9-1.4l-1.8,1.9c1.2,1.4,2.8,2.1,4.7,2.1c2.8,0,4.5-1.4,4.5-3.5C74.3,18.4,72.8,17.7,70.3,16.7"/>
	<path class="st0" d="M138.9,16.7c-1.3-0.5-1.7-0.8-1.7-1.3c0-0.5,0.4-0.8,1.1-0.8c1.2,0,2,0.6,2.8,1.3l1.8-1.9
		c-1.1-1.2-2.8-2-4.5-2c-2.5,0-4.2,1.4-4.2,3.5c0,2.3,1.8,3.3,3.6,3.8c0.2,0.1,0.4,0.1,0.6,0.2c1,0.3,1.6,0.5,1.6,1.1
		c0,0.3-0.2,0.9-1.4,0.9c-1.2,0-2.3-0.6-2.9-1.4l-1.8,1.9c1.2,1.4,2.8,2.1,4.7,2.1c2.8,0,4.5-1.4,4.5-3.5
		C143,18.4,141.5,17.7,138.9,16.7"/>
	<path class="st0" d="M79.8,8.4c0,1-0.8,1.8-1.8,1.8c-1,0-1.8-0.8-1.8-1.8c0-1,0.8-1.8,1.8-1.8C79,6.6,79.8,7.4,79.8,8.4 M76.1,28.5
		c2,0,3.4-1.4,3.4-4.1V12.2h-3.1v12c0,1.1-0.4,1.6-1.2,1.6c-0.4,0-0.7-0.1-1-0.3l-0.5,2.6C74.5,28.4,75.1,28.5,76.1,28.5"/>
	<path class="st0" d="M89.5,12.9c-0.8-0.5-2-0.9-3.1-0.9c-1.9,0-3.5,0.7-4.5,2c0.2,0.2,1.5,1.6,1.8,1.9c0.5-0.7,0.9-1,1.6-1.2
		c0.3-0.1,0.5-0.1,0.8-0.1c0.4,0,0.7,0.1,1,0.2c0.7,0.3,1.1,0.9,1.1,1.7v0.8c-0.1,0-1-0.5-2.6-0.5c-2.5,0-4.3,1.6-4.3,3.8
		c0,2.1,1.6,3.7,3.8,3.7c1.4,0,2.2-0.6,3-1.2h0.1v1h2.9v-7.7C91.2,14.8,90.6,13.6,89.5,12.9 M88.3,20.2c0,0.6-1.2,1.5-2.7,1.5
		c-0.9,0-1.5-0.6-1.5-1.4c0-0.5,0.3-1.4,1.9-1.4c1.2,0,2.4,0.4,2.4,0.4V20.2z"/>
	<path class="st0" d="M96.9,13.6L96.9,13.6l-0.1-1.4h-3.1V24h3.1l0-5.3c0-2.1,1-3.6,3.7-3.6V12C98.9,12.1,97.6,12.5,96.9,13.6"/>
	<path class="st0" d="M110,23h0.1v1h2.9V6.9H110v6.4h-0.1c-0.6-0.7-2.1-1.2-3-1.2c-3.7,0-5.7,3.1-5.7,6.1c0,2.2,1,3.7,1.8,4.4
		c1.1,1,2.5,1.6,4,1.6C107.6,24.2,108.7,24,110,23 M107,21.4c-1.7,0-3-1.5-3-3.3c0-1.9,1.3-3.3,3-3.3c1.9,0,3,1.7,3,3.3
		C110,19.9,108.7,21.4,107,21.4"/>
	<path class="st0" d="M124.3,13.2h-0.1v-1h-3.1V24h3.1v-6.1c0-2.7,1.7-3.1,2.7-3.1c1.8,0,2.4,1.5,2.4,2.8V24h3.1v-6.3
		c0-3.5-1.9-5.6-5-5.6C125.2,12,124.3,13.2,124.3,13.2"/>
	<path class="st0" d="M63.8,18c0-3.5-2.4-5.9-5.8-5.9c-3.4,0-5.8,2.5-5.8,6.1c0,3.6,2.5,6.1,6,6.1c2.1,0,3.9-0.8,5-2.1
		c-0.2-0.2-1.6-1.7-1.8-1.9c-0.6,0.6-1.6,1.3-2.9,1.3c-1.6,0-2.7-0.9-3.1-2.4h8.3C63.8,18.9,63.8,18.4,63.8,18 M55.4,16.9
		c0.3-1.4,1.4-2.2,2.7-2.2c1.3,0,2.3,0.8,2.6,2.2H55.4z"/>
</g>
</svg>
