<?xml version="1.0" encoding="utf-8"?>
<!-- Generator: Adobe Illustrator 21.0.0, SVG Export Plug-In . SVG Version: 6.00 Build 0)  -->
<svg version="1.1" id="Layer_1" xmlns="http://www.w3.org/2000/svg" xmlns:xlink="http://www.w3.org/1999/xlink" x="0px" y="0px"
	 viewBox="0 0 120.1 22.6" style="enable-background:new 0 0 120.1 22.6;" xml:space="preserve">
<style type="text/css">
	.st0{fill-rule:evenodd;clip-rule:evenodd;fill:#CC252B;}
	.st1{fill:none;stroke:#CC252B;stroke-width:0.216;stroke-miterlimit:2.6131;}
</style>
<g>
	<polygon class="st0" points="0.1,0.2 5.5,0.2 5.5,7.4 9.7,7.4 9.7,0.1 15.1,0.1 15.1,17.7 9.7,17.7 9.7,9.6 5.5,9.6 5.5,17.6 
		0.1,17.6 0.1,0.2 	"/>
	<polygon class="st1" points="0.1,0.2 5.5,0.2 5.5,7.4 9.7,7.4 9.7,0.1 15.1,0.1 15.1,17.7 9.7,17.7 9.7,9.6 5.5,9.6 5.5,17.6 
		0.1,17.6 0.1,0.2 	"/>
	<path class="st0" d="M25.4,7.4c0.2,0.4,0.3,1.1,0.3,2.1c0,1.7,0,3.8,0,4.2c-0.1,0.8-0.4,2-1.1,2.6c-0.7,0.6-1.5,0.3-2.1-0.5
		c-0.5-0.8-0.7-1.5-0.7-3.8c0-2.2-0.1-3.8,0.3-4.7C22.7,6.4,23.1,6,23.5,6C24.4,5.8,25,6.4,25.4,7.4L25.4,7.4z M23.6,4.4
		c0,0,1.7-0.1,3.1,0.5c1.4,0.6,2.5,1.2,3.4,2.9c1,1.7,1.1,4.1,0.4,6.1c-0.7,2-2.1,3-3,3.5c-0.9,0.5-2.4,0.8-3.8,0.8
		c-1.4,0-3.3-0.3-4.5-1.3c-1.2-1-2.1-2-2.4-3.5c-0.4-1.5-0.6-4,0.9-6.1c1.5-2.1,3.5-2.4,4.4-2.6C23,4.4,23.5,4.4,23.6,4.4L23.6,4.4z
		"/>
	<path class="st1" d="M25.4,7.4c0.2,0.4,0.3,1.1,0.3,2.1c0,1.7,0,3.8,0,4.2c-0.1,0.8-0.4,2-1.1,2.6c-0.7,0.6-1.5,0.3-2.1-0.5
		c-0.5-0.8-0.7-1.5-0.7-3.8c0-2.2-0.1-3.8,0.3-4.7C22.7,6.4,23.1,6,23.5,6C24.4,5.8,25,6.4,25.4,7.4L25.4,7.4z M23.6,4.4
		c0,0,1.7-0.1,3.1,0.5c1.4,0.6,2.5,1.2,3.4,2.9c1,1.7,1.1,4.1,0.4,6.1c-0.7,2-2.1,3-3,3.5c-0.9,0.5-2.4,0.8-3.8,0.8
		c-1.4,0-3.3-0.3-4.5-1.3c-1.2-1-2.1-2-2.4-3.5c-0.4-1.5-0.6-4,0.9-6.1c1.5-2.1,3.5-2.4,4.4-2.6C23,4.4,23.5,4.4,23.6,4.4L23.6,4.4z
		"/>
	<path class="st0" d="M37.5,8.4v9.2l-5,0V4.9h5v1.7c0,0,0.7-1,1.7-1.5c1-0.5,2.8-0.9,4.6-0.2c1.8,0.8,2.1,2.4,2.1,3l0,9.7h-5V8.7
		c0-0.3,0-0.9-0.4-1.3c-0.3-0.3-1.1-0.5-1.8-0.2C38.1,7.6,37.4,8.3,37.5,8.4L37.5,8.4z"/>
	<path class="st1" d="M37.5,8.4v9.2l-5,0V4.9h5v1.7c0,0,0.7-1,1.7-1.5c1-0.5,2.8-0.9,4.6-0.2c1.8,0.8,2.1,2.4,2.1,3l0,9.7h-5V8.7
		c0-0.3,0-0.9-0.4-1.3c-0.3-0.3-1.1-0.5-1.8-0.2C38.1,7.6,37.4,8.3,37.5,8.4L37.5,8.4z"/>
	<path class="st0" d="M48.2,7.9c1-2,3.5-3.6,6.7-3.5c3.1,0.2,4.9,1.3,6,3.4c0.9,1.8,0.8,4.2,0.8,4.2l-9,0v2.6c0,0,0.1,0.5,0.3,0.8
		c0.2,0.3,1,1.3,3.5,0.9c2.7-0.4,2.6-2.4,2.7-2.4l2.2,0c0,0,0,1.3-0.9,2.1c-0.9,0.9-2.5,1.7-4.2,1.9c-1.8,0.2-4.3,0.2-6.3-1.5
		c-1.2-1-1.7-2.1-2.1-3C47.4,12.3,47.2,9.9,48.2,7.9L48.2,7.9z M52.7,10.3c0,0,0-1.7,0.1-2.5c0.1-0.8,0.6-1.4,1-1.7
		c0.5-0.3,1.4-0.4,2,0.1s0.6,1,0.7,1.2c0.1,0.2,0.2,1,0.2,1.7c0,0.7,0,1.1,0,1.1H52.7L52.7,10.3z"/>
	<path class="st1" d="M48.2,7.9c1-2,3.5-3.6,6.7-3.5c3.1,0.2,4.9,1.3,6,3.4c0.9,1.8,0.8,4.2,0.8,4.2l-9,0v2.6c0,0,0.1,0.5,0.3,0.8
		c0.2,0.3,1,1.3,3.5,0.9c2.7-0.4,2.6-2.4,2.7-2.4l2.2,0c0,0,0,1.3-0.9,2.1c-0.9,0.9-2.5,1.7-4.2,1.9c-1.8,0.2-4.3,0.2-6.3-1.5
		c-1.2-1-1.7-2.1-2.1-3C47.4,12.3,47.2,9.9,48.2,7.9L48.2,7.9z M52.7,10.3c0,0,0-1.7,0.1-2.5c0.1-0.8,0.6-1.4,1-1.7
		c0.5-0.3,1.4-0.4,2,0.1s0.6,1,0.7,1.2c0.1,0.2,0.2,1,0.2,1.7c0,0.7,0,1.1,0,1.1H52.7L52.7,10.3z"/>
	<path class="st0" d="M93.9,7.9c1-2,3.5-3.6,6.7-3.5c3.1,0.2,4.9,1.3,6,3.4c0.9,1.8,0.8,4.2,0.8,4.2l-9,0v2.6c0,0,0.1,0.5,0.3,0.8
		c0.2,0.3,1,1.3,3.5,0.9c2.7-0.4,2.6-2.4,2.7-2.4l2.2,0c0,0,0,1.3-0.9,2.1c-0.9,0.9-2.5,1.7-4.2,1.9c-1.8,0.2-4.3,0.2-6.3-1.5
		c-1.2-1-1.7-2.1-2.1-3C93,12.3,92.9,9.9,93.9,7.9L93.9,7.9z M98.3,10.3c0,0,0-1.7,0.1-2.5c0.1-0.8,0.6-1.4,1-1.7
		c0.5-0.3,1.4-0.4,2,0.1c0.5,0.5,0.6,1,0.7,1.2c0.1,0.2,0.2,1,0.2,1.7c0,0.7,0,1.1,0,1.1H98.3L98.3,10.3z"/>
	<path class="st1" d="M93.9,7.9c1-2,3.5-3.6,6.7-3.5c3.1,0.2,4.9,1.3,6,3.4c0.9,1.8,0.8,4.2,0.8,4.2l-9,0v2.6c0,0,0.1,0.5,0.3,0.8
		c0.2,0.3,1,1.3,3.5,0.9c2.7-0.4,2.6-2.4,2.7-2.4l2.2,0c0,0,0,1.3-0.9,2.1c-0.9,0.9-2.5,1.7-4.2,1.9c-1.8,0.2-4.3,0.2-6.3-1.5
		c-1.2-1-1.7-2.1-2.1-3C93,12.3,92.9,9.9,93.9,7.9L93.9,7.9z M98.3,10.3c0,0,0-1.7,0.1-2.5c0.1-0.8,0.6-1.4,1-1.7
		c0.5-0.3,1.4-0.4,2,0.1c0.5,0.5,0.6,1,0.7,1.2c0.1,0.2,0.2,1,0.2,1.7c0,0.7,0,1.1,0,1.1H98.3L98.3,10.3z"/>
	<path class="st0" d="M61.3,4.9h5.5l2.3,6l2.5-6l6.9,0l2.2,7.1l1.9-7.1H87l2.2,7l1.9-7h2.3l-3.5,12.7h-4.1l-2.3-7.4l-2,7.4h-4.2
		L73.4,5.3l-5.3,13c0,0-0.8,2.1-1.7,3c-0.9,0.8-2,1.5-3.7,1.2c-1.7-0.3-2.4-1.2-2.5-2.2c-0.1-1,0.4-2.1,1.6-2.4
		c1.2-0.2,2,0.2,2.3,0.8c0.3,0.6,0.3,1.2,0.2,1.6c-0.2,0.4-0.4,0.6-0.4,0.6s0.7,0.2,1.3-0.5c0.6-0.7,1-1.6,1.1-1.9
		c0.1-0.4,0.1-0.5,0.1-0.5L61.3,4.9L61.3,4.9z"/>
	<path class="st1" d="M61.3,4.9h5.5l2.3,6l2.5-6l6.9,0l2.2,7.1l1.9-7.1H87l2.2,7l1.9-7h2.3l-3.5,12.7h-4.1l-2.3-7.4l-2,7.4h-4.2
		L73.4,5.3l-5.3,13c0,0-0.8,2.1-1.7,3c-0.9,0.8-2,1.5-3.7,1.2c-1.7-0.3-2.4-1.2-2.5-2.2c-0.1-1,0.4-2.1,1.6-2.4
		c1.2-0.2,2,0.2,2.3,0.8c0.3,0.6,0.3,1.2,0.2,1.6c-0.2,0.4-0.4,0.6-0.4,0.6s0.7,0.2,1.3-0.5c0.6-0.7,1-1.6,1.1-1.9
		c0.1-0.4,0.1-0.5,0.1-0.5L61.3,4.9L61.3,4.9z"/>
	<polygon class="st0" points="108.9,0.1 113.7,0.1 113.7,17.6 108.9,17.6 108.9,0.1 	"/>
	<polygon class="st1" points="108.9,0.1 113.7,0.1 113.7,17.6 108.9,17.6 108.9,0.1 	"/>
	<polygon class="st0" points="115.2,0.1 120,0.1 120,17.6 115.2,17.6 115.2,0.1 	"/>
	<polygon class="st1" points="115.2,0.1 120,0.1 120,17.6 115.2,17.6 115.2,0.1 	"/>
</g>
</svg>
