<?xml version="1.0" encoding="utf-8"?>
<!-- Generator: Adobe Illustrator 21.0.0, SVG Export Plug-In . SVG Version: 6.00 Build 0)  -->
<svg version="1.1" id="Vector_Logo" xmlns="http://www.w3.org/2000/svg" xmlns:xlink="http://www.w3.org/1999/xlink" x="0px"
	 y="0px" viewBox="0 0 341.2 187.5" style="enable-background:new 0 0 341.2 187.5;" xml:space="preserve">
<style type="text/css">
	.st0{fill-rule:evenodd;clip-rule:evenodd;fill:#ECB731;}
	.st1{fill-rule:evenodd;clip-rule:evenodd;fill:none;stroke:#EBB732;stroke-width:4;stroke-miterlimit:10;}
</style>
<g>
	<polygon class="st0" points="36.2,185.6 36.2,172.8 15,172.8 15,130.6 0,130.6 0,185.6 36.2,185.6 	"/>
	<path class="st0" d="M76.8,145.3H63.5v19.6c0,6.1-1.1,9.8-5,9.8c-3.3,0-5-1.8-5-7.3v-22H40.6v24.4c0,11.6,4.5,17.7,12.2,17.7
		c5,0,8.3-2.4,11.7-8v6.1h12.2V145.3L76.8,145.3z"/>
	<path class="st0" d="M98.5,145.3c-0.6-6.1,1.1-6.1,5.6-6.1v-9.8h-5.6c-8.3,0-13.4,1.8-13.4,15.9h-4.5v9.2h4.5v31.2h13.4v-31.2h5.6
		v-9.2H98.5L98.5,145.3z"/>
	<path class="st0" d="M130.2,174H128c-3.3,0-3.9-1.2-3.9-4.9v-14.7h6.7v-9.2h-6.7v-12.2h-13.4v12.2h-4.5v9.2h4.5v17.1
		c0,13.4,2.2,15.9,19.5,14.1V174L130.2,174z"/>
	<path class="st0" d="M137.5,185.6h12.8v-20.2c0-5.5,1.1-8.6,5.6-8.6c3.9,0,4.5,3.7,4.5,7.3v21.4h13.4v-23.8
		c0-11-3.9-17.1-12.8-17.1c-4.5,0-7.8,1.8-10.6,6.1v-20.2h-12.8V185.6L137.5,185.6z"/>
	<path class="st0" d="M222.6,185.6h12.8v-20.2c0-5.5,1.1-8.6,5.6-8.6c3.9,0,4.5,3.7,4.5,7.3v21.4h13.4v-23.8
		c0-11-3.9-17.1-12.8-17.1c-5,0-8.3,2.4-11.1,7.3v-6.7h-12.2V185.6L222.6,185.6z"/>
	<path class="st0" d="M263.8,173.4c1.1,10.4,8.9,14.1,16.7,14.1c12.2,0,17.8-6.1,17.8-14.7c0-15.3-20.6-11-20.6-17.1
		c0-1.8,1.1-2.5,3.3-2.5c1.1,0,2.2-0.1,3.1,0.9c0.5,1.2,0.7,1.5,0.7,2.8h12.8c-1.1-10.4-10-12.2-17.3-12.2
		c-6.7,0-15.6,2.4-15.6,12.8c0,15.9,20,10.4,20,17.1c0,2.4-1.7,3.7-3.9,3.7c-1.1,0-2.8-0.6-3.3-1.2c-0.8-1.1-1.1-2.4-1.1-3.7H263.8
		L263.8,173.4z"/>
	<path class="st0" d="M321.2,186.2c-2.2,1.2-4.5,1.2-6.7,1.2c-6.7,0-12.2-4.3-12.2-12.8c0-12.8,11.7-12.2,18.9-13.4
		c2.8-0.6,5-1.2,5-3.7c0-3.1-2.8-3.7-4.5-3.7l-0.6,0c-1.7,0-4.5,1.2-4.5,4.3h-12.8c0-7.9,5-13.5,17.3-13.5l1.7,0
		c15.6,0,16.7,6.7,16.7,16.5v18.3c0,2.5,0,3.7,1.7,5.5v0.6h-13.9l-0.6-4.3C325.1,183.8,322.8,185,321.2,186.2L321.2,186.2z
		 M321.2,169.1c-2.8,0.6-5,1.8-5,4.9c0,1.8,1.1,3.1,3.9,3.1h1.1c3.3-0.6,5-4.3,5-9.8C324.5,168.5,322.3,169.1,321.2,169.1
		L321.2,169.1z"/>
	<path class="st0" d="M197,186.2c-2.2,1.2-4.5,1.2-6.7,1.2c-6.7,0-12.2-4.3-12.2-12.8c0-12.8,11.7-12.2,18.9-13.4
		c2.8-0.6,5-1.2,5-3.7c0-3.1-2.8-3.7-4.5-3.7l-0.6,0c-1.7,0-4.5,1.2-4.5,4.3h-12.8c0-7.9,5-13.4,17.3-13.4c0.6,0,0.6-0.1,1.7-0.1
		c15.6,0,16.7,6.7,16.7,16.5v18.3c0,2.5,0,3.7,1.7,5.5v0.6h-13.9l-0.6-4.3C200.9,183.8,198.7,185,197,186.2L197,186.2z M197,169.2
		c-2.8,0.6-5,1.8-5,4.9c0,1.8,1.1,3.1,3.9,3.1h1.1c3.3-0.6,5-4.3,5-9.8C200.4,168.6,198.2,169.2,197,169.2L197,169.2z"/>
</g>
<g>
	<path class="st1" d="M117.8,54.8c0-29.1,23.6-52.8,52.8-52.8c29.1,0,52.8,23.6,52.8,52.8c0,29.1-23.6,52.8-52.8,52.8
		C141.5,107.5,117.8,83.9,117.8,54.8L117.8,54.8z"/>
	<path class="st0" d="M212.5,42.2c-7.9-1.3-22.7-2.3-34.3-0.4c-1.1,0.2-3.6,14.6-17,13.6c-8.5-0.6-14.6-5.9-14.6-5.9L158,54l1-1.5
		l-22.3-9.5l-0.9,2.3l-7.3-2l-0.8,2.5c0,0,7.8,2.3,13.2,6.3c5.3,3.9,21.9,14.1,27.3,16.6c5.4,2.5,19.2,8.3,30.4,9
		c0.1,0,3.3-5.2,3.3-5.2s-8.2,1.1-12.1-0.5c-2.4-1-11.1-4.2-13.1-9.2c0-0.1,2.7-3.2,9.7-4.6c10.1-1.9,18.2-0.6,18.2-0.6l1.4-2.6
		c0,0-7.3-0.4-10-0.4c-2.8,0-10.8,0.4-10.8,0.4l0.6-1.6c0,0,5.9-0.6,10.6-0.5c3.5,0,10.4,0.4,10.4,0.4l1.4-2.6c0,0-8.3-0.6-11.3-0.5
		c-2.8,0.1-9.9,0.5-9.9,0.5l0.8-1.7c0,0,5.7-0.5,9.4-0.5c4.1,0,11.8,0.6,11.8,0.6l1.5-2.7c0,0-8.5-0.8-13.3-0.6
		c-3,0.1-8.3,0.4-8.3,0.4l0.6-1.7c8.2-1.4,21.8,0.4,21.8,0.4L212.5,42.2L212.5,42.2z"/>
</g>
</svg>
