<?xml version="1.0" encoding="utf-8"?>
<!-- Generator: Adobe Illustrator 21.0.0, SVG Export Plug-In . SVG Version: 6.00 Build 0)  -->
<svg version="1.1" id="Layer_1" xmlns="http://www.w3.org/2000/svg" xmlns:xlink="http://www.w3.org/1999/xlink" x="0px" y="0px"
	 viewBox="0 0 129.5 16.9" style="enable-background:new 0 0 129.5 16.9;" xml:space="preserve">
<style type="text/css">
	.st0{fill:#00385D;}
</style>
<g>
	<path class="st0" d="M16.8,16.6h-5L7.1,5.6L4.1,16.6H0L4.5,0.3h4.3l4.6,10.9l3.2-10.9h5L16.8,16.6z"/>
	<path class="st0" d="M115.8,16.6h-4.5l3.9-16.3h8.4c1.4,0,2.6,0.1,3.4,0.4c0.8,0.3,1.4,0.7,1.9,1.4c0.5,0.7,0.7,1.5,0.7,2.5
		c0,2.5-1.2,5.3-4.1,5.7c0.6,0.7,1.6,2.3,1.9,6.3l-4.6,0.1c0,0-0.2-3-1.3-5c-0.4-0.8-0.7-0.7-2.6-0.7l-1.8,0L115.8,16.6z M118,7.7
		h1.8c1.8,0,3-0.1,3.6-0.3c0.6-0.2,1-0.5,1.4-0.9c0.3-0.4,0.5-0.8,0.5-1.2c0-0.5-0.2-0.9-0.7-1.1c-0.3-0.2-0.9-0.2-1.9-0.2h-3.7
		L118,7.7z"/>
	<path class="st0" d="M31.3,7.7"/>
	<path class="st0" d="M34.8,0.3h-4.5L18.7,16.6h5.8l6.8-10.5l0.2,1.6H36L34.8,0.3z M36.7,11.9h-4.5l0.6,4.7h4.6L36.7,11.9z"/>
	<path class="st0" d="M52,0.3L47.2,8h5l5.5-7.7H52z M39.8,11.9l0.6,4.7h5.7l3.3-4.7H39.8z M43.4,0.3h-5l0.9,7.5h4.9L43.4,0.3z"/>
	<path class="st0" d="M59,0.3l-2.1,7.6h5.3l2.1-7.6H59z M54.5,16.6h5.3l1.3-4.8h-5.3L54.5,16.6z"/>
	<path class="st0" d="M67.8,8.3c0.2,0.1,0.6,0.3,0.9,0.4h8.8c-0.7-0.5-2.1-1.1-4.3-1.8c-1.6-0.5-2.6-1-3-1.3
		c-0.5-0.3-0.7-0.7-0.7-1.2c0-0.5,0.3-0.9,0.8-1.2c0.5-0.3,1.3-0.5,2.5-0.5c1.2,0,2.1,0.2,2.7,0.6c0.6,0.4,0.9,1,1,1.8l4-0.1
		c-0.1-1.5-0.8-2.7-2.1-3.6C77.1,0.4,75.2,0,72.8,0c-2.4,0-4.2,0.5-5.4,1.4c-1.3,0.9-1.9,2-1.9,3.4c0,0.8,0.2,1.5,0.6,2.1
		C66.5,7.4,67.1,7.9,67.8,8.3z M74.6,11.2c0.2,0.3,0.3,0.5,0.3,0.9c0,0.6-0.3,1-0.9,1.4c-0.6,0.4-1.6,0.6-3,0.6
		c-1.7,0-2.8-0.3-3.4-0.9c-0.3-0.3-0.5-0.7-0.6-1.3h-4.1c0,0.8,0.3,1.6,0.7,2.3c0.5,0.8,1.4,1.5,2.7,2c1.3,0.5,2.8,0.7,4.6,0.7
		c2.6,0,4.5-0.5,6-1.5c1.4-1,2.2-2.2,2.2-3.7c0-0.2,0-0.3,0-0.5H74.6z"/>
	<path class="st0" d="M83,0.3l-0.9,3.4h4.8l-1.5,5.2h5.1L92,3.7h4.9l0.9-3.4H83z M83.2,16.6h5.2l1.6-5.6h-5.1L83.2,16.6z"/>
	<path class="st0" d="M91.2,16.6H97l3.7-6.1h-5.4L91.2,16.6z M106.7,0.3H102l-5.5,8.4h5.3l1.6-2.7l0.8,10.6h5.1L106.7,0.3z"/>
</g>
</svg>
