<?xml version="1.0" encoding="utf-8"?>
<!-- Generator: Adobe Illustrator 21.0.0, SVG Export Plug-In . SVG Version: 6.00 Build 0)  -->
<svg version="1.1" id="Слой_1" xmlns="http://www.w3.org/2000/svg" xmlns:xlink="http://www.w3.org/1999/xlink" x="0px" y="0px"
	 viewBox="0 0 428 428" style="enable-background:new 0 0 428 428;" xml:space="preserve">
<style type="text/css">
	.st0{clip-path:url(#SVGID_2_);fill:#c70901}
</style>
<g>
	<defs>
		<rect id="SVGID_1_" width="428" height="428"/>
	</defs>
	<clipPath id="SVGID_2_">
		<use xlink:href="#SVGID_1_"  style="overflow:visible;"/>
	</clipPath>
	<path class="st0" d="M232.8,91.6l-0.4-0.1c-67.7-10.2-130.8,36.3-141,104c-4.8,31.4,2.7,63.5,21,89.5l-9.8,33.3
		c-1.3,4.2,1.2,8.7,5.4,9.9c1.9,0.5,3.9,0.4,5.6-0.4l28.5-12.7c16,11.5,34.5,19,54,21.9c6.1,0.9,12.3,1.4,18.5,1.4
		c61.2-0.5,112.9-45.3,122.2-105.8C346.9,165,300.4,101.9,232.8,91.6 M321,230.1c-8.8,59-63.9,99.7-122.9,90.9
		c-18.4-2.8-35.8-10.2-50.5-21.7c-2.3-1.7-5.4-2.1-8-1l-16,8l5.9-20c0.7-2.4,0.2-5-1.3-7c-17.8-23.1-25.4-52.4-21.1-81.2
		c8.8-58.9,63.8-99.6,122.7-90.8c0.1,0,0.2,0,0.3,0C289,116.2,329.7,171.1,321,230.1"/>
	<path class="st0" d="M420.2,158.6h-44.3c-2.3-6.7-4.9-13.2-8-19.5l31.4-31.4c3.1-3.1,3.1-8.2,0-11.3l-67.4-67.3
		c-3.1-3.1-8.2-3.1-11.3,0l-31.4,31.4c-6.3-3.1-12.9-5.7-19.5-8V8c0-4.4-3.6-8-8-8h-95.1c-4.4,0-8,3.6-8,8v44.3
		c-6.7,2.3-13.2,4.9-19.5,8l-31.4-31.2c-3.1-3.1-8.2-3.1-11.3,0L29.1,96.3c-3.1,3.1-3.1,8.2,0,11.3L60.5,139
		c-3.1,6.3-5.7,12.9-8,19.5H8c-4.4,0-8,3.6-8,8v95.1c0,4.4,3.6,8,8,8h44.3c2.3,6.7,4.9,13.2,8,19.5l-31.2,31.4
		c-3.1,3.1-3.1,8.2,0,11.3L96.4,399c3.1,3.1,8.2,3.1,11.3,0l31.4-31.4c6.3,3.1,12.9,5.7,19.5,8V420c0,4.4,3.6,8,8,8h95
		c4.4,0,8-3.6,8-8v-44.2c6.7-2.3,13.2-4.9,19.5-8l31.4,31.4c3.1,3.1,8.2,3.1,11.3,0l67.3-67.3c3.1-3.1,3.1-8.2,0-11.3l-31.4-31.4
		c3.1-6.3,5.7-12.9,8-19.5H420c4.4,0,8-3.6,8-8v-95.2C428,162.2,424.5,158.6,420.2,158.6 M412.2,253.7H370c-3.7-0.2-6.9,2.2-8,5.7
		c-2.9,9.6-6.7,18.8-11.4,27.7c-1.7,3.1-1.1,6.9,1.4,9.4l30.2,29.6l-56,56l-29.8-29.8c-2.5-2.5-6.3-3-9.4-1.4
		c-8.8,4.7-18.1,8.5-27.7,11.4c-3.5,1.1-5.8,4.3-5.7,8v42.1h-78.9V370c0.2-3.7-2.2-6.9-5.7-8c-9.6-2.9-18.8-6.7-27.7-11.4
		c-3.1-1.7-6.9-1.1-9.4,1.4l-29.7,30.2l-56-56l29.8-29.8c2.5-2.5,3-6.3,1.4-9.4c-4.7-8.8-8.5-18.1-11.4-27.7c-1.1-3.5-4.3-5.8-8-5.7
		H16v-78.9h42.1c3.7,0.2,6.9-2.2,8-5.7c2.9-9.6,6.7-18.8,11.4-27.7c1.7-3.1,1.1-6.9-1.4-9.4l-30.1-29.7l56-56l29.8,29.8
		c2.5,2.5,6.3,3,9.4,1.4c8.8-4.7,18.1-8.5,27.7-11.4c3.5-1.1,5.8-4.3,5.7-8V16h79.1v42.1c-0.2,3.7,2.2,6.9,5.7,8
		c9.6,2.9,18.8,6.7,27.7,11.4c3.1,1.7,6.9,1.1,9.4-1.4l29.4-30.1l56,56l-29.8,29.8c-2.5,2.5-3,6.3-1.4,9.4
		c4.7,8.8,8.5,18.1,11.4,27.7c1.1,3.5,4.3,5.8,8,5.7h42.1L412.2,253.7z"/>
</g>
</svg>
