<?xml version="1.0" encoding="utf-8"?>
<!-- Generator: Adobe Illustrator 21.0.0, SVG Export Plug-In . SVG Version: 6.00 Build 0)  -->
<svg version="1.1" id="Слой_1" xmlns="http://www.w3.org/2000/svg" xmlns:xlink="http://www.w3.org/1999/xlink" x="0px" y="0px"
	 viewBox="0 0 262.4 157.2" style="enable-background:new 0 0 262.4 157.2;" xml:space="preserve">
<style type="text/css">
	.st0{fill:#FFFFFF;}
	.st1{clip-path:url(#SVGID_4_);fill:#F1F1F1;}
	.st2{clip-path:url(#SVGID_4_);fill:none;stroke:#D1D3D6;stroke-linecap:round;stroke-linejoin:round;stroke-miterlimit:10;}
	.st3{clip-path:url(#SVGID_4_);fill:#D1D3D6;}
	.st4{clip-path:url(#SVGID_4_);fill:#FFFFFF;}
	.st5{clip-path:url(#SVGID_4_);fill-rule:evenodd;clip-rule:evenodd;fill:#004685;}
	.st6{clip-path:url(#SVGID_4_);fill:#F8F8F8;}
	.st7{clip-path:url(#SVGID_4_);fill:#0072C6;}
	.st8{clip-path:url(#SVGID_4_);fill:#EEEEEE;}
</style>
<g>
	<g>
		<defs>
			<rect id="SVGID_1_" x="23.9" y="6.8" width="209.1" height="134.8"/>
		</defs>
		<clipPath id="SVGID_2_">
			<use xlink:href="#SVGID_1_"  style="overflow:visible;"/>
		</clipPath>
		<g transform="matrix(1 0 0 1 0 0)" style="clip-path:url(#SVGID_2_);">
			
				<image style="overflow:visible;" width="748" height="482" xlink:href="FE0ABFDF.jpg"  transform="matrix(0.2796 0 0 0.2796 23.9233 6.7637)">
			</image>
		</g>
	</g>
	<rect x="171.3" y="4" class="st0" width="66.9" height="137.3"/>
	<g>
		<defs>
			<rect id="SVGID_3_" width="262.4" height="157.2"/>
		</defs>
		<clipPath id="SVGID_4_">
			<use xlink:href="#SVGID_3_"  style="overflow:visible;"/>
		</clipPath>
		<path class="st1" d="M25,148.4l105.3,6l106.9-6c4.4,0,8,4.4,8,0V8c0-4.4-3.6-8-8-8H25c-4.4,0-8,3.6-8,8v140.4
			C17,152.8,20.6,148.4,25,148.4 M23.8,8c0-0.6,0.5-1.1,1.1-1.1h212.2c0.6,0,1.1,0.5,1.1,1.1v132.4c0,0.6-0.5,1.1-1.1,1.1H25
			c-0.6,0-1.1-0.5-1.1-1.1V8z"/>
		<path class="st2" d="M237.4,141.5h-79.6h-25.6h-26H24.8c-0.5,0-0.9-0.4-0.9-0.9V7.8c0-0.5,0.4-0.9,0.9-0.9h212.6
			c0.5,0,0.9,0.4,0.9,0.9v132.8C238.3,141.1,237.9,141.5,237.4,141.5z"/>
		<path class="st3" d="M262.4,147.7v6.4c0,1.7-1.4,3.1-3.1,3.1H3.1c-1.7,0-3.1-1.4-3.1-3.1v-6.4h107.8c0.5,1.8,2.2,3.1,4.1,3.1h38.6
			c1.9,0,3.6-1.3,4.1-3.1H262.4z"/>
		<path class="st4" d="M231,134.1h-53.5c-0.9,0-1.7-0.8-1.7-1.7V14.8c0-0.9,0.8-1.7,1.7-1.7H231c0.9,0,1.7,0.8,1.7,1.7v117.6
			C232.7,133.4,231.9,134.1,231,134.1"/>
		<path class="st2" d="M231,134.1h-53.5c-0.9,0-1.7-0.8-1.7-1.7V14.8c0-0.9,0.8-1.7,1.7-1.7H231c0.9,0,1.7,0.8,1.7,1.7v117.6
			C232.7,133.4,231.9,134.1,231,134.1z"/>
		<path class="st5" d="M193.4,70.8h2.4v4.5h-2.4V70.8z M183.9,76.4c1.2,0.2,2.4,0.3,3.7,0.3c2.6,0,4.9-0.6,4.9-2
			c0-0.8-0.8-1.4-3.8-1.8c-1.4-0.1-1.7-0.4-1.7-0.6c0-0.4,0.6-0.6,2-0.6c0.6,0,1.7,0.1,2.5,0.2l0.9-1.1c-1.2-0.2-2.4-0.4-3.7-0.4
			c-2.2,0-4.8,0.6-4.8,1.8c0,1.2,1.4,1.5,2.8,1.7c1.4,0.2,2.8,0.3,2.8,0.8c0,0.6-1,0.6-2,0.6c-0.8,0-2-0.1-2.7-0.2L183.9,76.4z
			 M196.7,75.3h6.2v-0.9h-3.8v-0.9h1.8l0.6-0.9h-2.4v-0.9h3.9l0-0.9h-6.2V75.3z M211.5,75.3h6.1v-0.9h-3.8v-0.9h1.8l0.6-0.9h-2.4
			v-0.9h3.7v-0.9h-6.1V75.3z M203.8,75.3h4c1.8,0,2.9-0.4,2.9-1.2c0-0.5-0.5-0.9-1.5-1v0c0.9-0.1,1.4-0.6,1.4-1
			c0-0.9-1.4-1.2-3.1-1.2h-3.7V75.3z M206.1,73.4h1.2c0.7,0,1.2,0.2,1.2,0.5c0,0.4-0.4,0.5-1.1,0.5h-1.3V73.4z M206.1,71.6h1.1
			c0.6,0,1.2,0.1,1.2,0.5c0,0.3-0.4,0.5-1.1,0.5h-1.2V71.6z M218.4,75.3h6.3v-1h-3.9v-3.5h-2.3V75.3z"/>
		<path class="st6" d="M55.5,26.2H30c-2.7,0-4.9-2.2-4.9-4.9v-8.1c0-2.7,2.2-4.9,4.9-4.9h25.5c2.7,0,4.9,2.2,4.9,4.9v8.1
			C60.4,24,58.2,26.2,55.5,26.2"/>
		<path class="st7" d="M33.5,13.9v2l0.7,0.4c0,0,0.1,0,0.1,0l3-2.1c0-0.2-0.2-0.4-0.4-0.4H33.5z"/>
		<path class="st7" d="M33.5,16.7l0.6,0.4c0.1,0.1,0.2,0,0.2,0c-0.1,0.1,3-2,3-2v3.7c0,0.4-0.3,0.6-0.6,0.6h-3.3V16.7z"/>
		<path class="st7" d="M30.2,15.7c-0.2,0-0.4,0.1-0.5,0.3c-0.1,0.2-0.2,0.5-0.2,0.8c0,0.3,0.1,0.6,0.2,0.8c0.1,0.2,0.3,0.3,0.5,0.3
			c0.2,0,0.4-0.1,0.5-0.3c0.1-0.2,0.2-0.5,0.2-0.8c0-0.4-0.1-0.6-0.2-0.8C30.6,15.8,30.4,15.7,30.2,15.7"/>
		<path class="st7" d="M27.1,12.8v7.9l6,1.3V11.7L27.1,12.8z M31.2,18.1c-0.3,0.3-0.6,0.5-1,0.5c-0.4,0-0.7-0.2-1-0.5
			c-0.3-0.3-0.4-0.7-0.4-1.3c0-0.6,0.1-1,0.4-1.3c0.3-0.3,0.6-0.5,1-0.5c0.4,0,0.7,0.2,1,0.5c0.2,0.3,0.4,0.8,0.4,1.3
			C31.5,17.4,31.4,17.8,31.2,18.1"/>
		<rect x="114.1" y="71.6" class="st8" width="57.3" height="15.8"/>
		<rect x="114.1" y="92.5" class="st8" width="57.3" height="15.8"/>
		<line class="st2" x1="107.6" y1="6.8" x2="107.6" y2="141.5"/>
		<line class="st2" x1="60.9" y1="6.8" x2="60.9" y2="141.5"/>
	</g>
</g>
</svg>
