<?xml version="1.0" encoding="utf-8"?>
<!-- Generator: Adobe Illustrator 21.0.0, SVG Export Plug-In . SVG Version: 6.00 Build 0)  -->
<svg version="1.1" id="Слой_1" xmlns="http://www.w3.org/2000/svg" xmlns:xlink="http://www.w3.org/1999/xlink" x="0px" y="0px"
	 viewBox="0 0 44.1 43.1" style="enable-background:new 0 0 44.1 43.1;" xml:space="preserve">
<style type="text/css">
	.st0{clip-path:url(#SVGID_2_);}
	.st1{clip-path:url(#SVGID_4_);fill-rule:evenodd;clip-rule:evenodd;fill:#BBBCB6;}
	.st2{clip-path:url(#SVGID_6_);fill:url(#SVGID_7_);}
	.st3{clip-path:url(#SVGID_9_);fill:url(#SVGID_10_);}
	.st4{clip-path:url(#SVGID_12_);fill:url(#SVGID_13_);}
	.st5{clip-path:url(#SVGID_15_);fill:url(#SVGID_16_);}
	.st6{opacity:0.67;clip-path:url(#SVGID_18_);}
	.st7{clip-path:url(#SVGID_20_);}
	.st8{clip-path:url(#SVGID_22_);fill:url(#SVGID_23_);}
	.st9{clip-path:url(#SVGID_25_);}
	.st10{clip-path:url(#SVGID_27_);fill:url(#SVGID_28_);}
	.st11{clip-path:url(#SVGID_30_);}
	.st12{clip-path:url(#SVGID_32_);fill:url(#SVGID_33_);}
	.st13{clip-path:url(#SVGID_35_);}
	.st14{clip-path:url(#SVGID_37_);fill:url(#SVGID_38_);}
	.st15{clip-path:url(#SVGID_40_);}
	.st16{clip-path:url(#SVGID_42_);fill:url(#SVGID_43_);}
	.st17{clip-path:url(#SVGID_45_);}
	.st18{clip-path:url(#SVGID_47_);fill:url(#SVGID_48_);}
	.st19{clip-path:url(#SVGID_50_);}
	.st20{clip-path:url(#SVGID_52_);fill:url(#SVGID_53_);}
	.st21{opacity:0.86;clip-path:url(#SVGID_18_);}
	.st22{clip-path:url(#SVGID_55_);}
	.st23{clip-path:url(#SVGID_57_);fill:url(#SVGID_58_);}
	.st24{clip-path:url(#SVGID_18_);fill-rule:evenodd;clip-rule:evenodd;}
	.st25{clip-path:url(#SVGID_60_);fill:url(#SVGID_61_);}
	.st26{clip-path:url(#SVGID_63_);fill:url(#SVGID_64_);}
	.st27{clip-path:url(#SVGID_66_);fill:url(#SVGID_67_);}
	.st28{clip-path:url(#SVGID_69_);fill:none;stroke:#A7A79C;stroke-width:0.34;stroke-linecap:round;}
	.st29{clip-path:url(#SVGID_69_);fill:none;stroke:#C2C2B9;stroke-width:0.236;stroke-linecap:round;}
	.st30{clip-path:url(#SVGID_69_);fill:none;stroke:#E0DFD8;stroke-width:0.132;stroke-linecap:round;}
	.st31{clip-path:url(#SVGID_69_);fill:none;stroke:#FFFFFF;stroke-width:2.800000e-02;stroke-linecap:round;}
	.st32{clip-path:url(#SVGID_71_);fill:url(#SVGID_72_);}
	.st33{clip-path:url(#SVGID_74_);fill:url(#SVGID_75_);}
	.st34{clip-path:url(#SVGID_77_);fill-rule:evenodd;clip-rule:evenodd;fill:#FFFFFF;}
	.st35{clip-path:url(#SVGID_77_);fill:#39393B;}
	.st36{clip-path:url(#SVGID_79_);fill:url(#SVGID_80_);}
</style>
<g>
	<defs>
		<rect id="SVGID_1_" width="44.1" height="43.1"/>
	</defs>
	<clipPath id="SVGID_2_">
		<use xlink:href="#SVGID_1_"  style="overflow:visible;"/>
	</clipPath>
	<g class="st0">
		<defs>
			<rect id="SVGID_3_" y="0" width="44.1" height="43.1"/>
		</defs>
		<clipPath id="SVGID_4_">
			<use xlink:href="#SVGID_3_"  style="overflow:visible;"/>
		</clipPath>
		<path class="st1" d="M22,7.6L22,7.6c3.9,0,7.3,1.6,9.9,4.1c2.6,2.5,4.1,6,4.1,9.9c0,3.8-1.5,7.3-4.1,9.9c-2.5,2.5-6,4.1-9.9,4.1
			s-7.3-1.6-9.9-4.1c-2.5-2.5-4.1-6-4.1-9.9c0-3.9,1.6-7.4,4.1-9.9C14.7,9.1,18.1,7.6,22,7.6 M22,7.8L22,7.8c-3.8,0-7.3,1.6-9.7,4
			c-2.5,2.5-4.1,6-4.1,9.8s1.6,7.3,4.1,9.7c2.4,2.5,5.9,4,9.7,4s7.3-1.5,9.7-4c2.5-2.4,4-5.9,4-9.7s-1.5-7.3-4-9.8
			C29.3,9.4,25.8,7.8,22,7.8"/>
	</g>
	<g class="st0">
		<defs>
			<path id="SVGID_5_" d="M5.7,21.5c0-9,7.3-16.3,16.3-16.3s16.3,7.3,16.3,16.3c0,9.1-7.3,16.3-16.3,16.3S5.7,30.6,5.7,21.5
				 M0.6,21.5C0.6,33.3,10.2,43,22,43s21.4-9.6,21.4-21.5c0-4.8-1.5-9.1-4.2-12.7l2.4-2.4l-4.2-4.2l-2.4,2.4
				c-3.6-2.7-8.1-4.4-13-4.4C10.2,0.1,0.6,9.7,0.6,21.5"/>
		</defs>
		<clipPath id="SVGID_6_">
			<use xlink:href="#SVGID_5_"  style="overflow:visible;"/>
		</clipPath>
		
			<radialGradient id="SVGID_7_" cx="0" cy="43.0561" r="1" gradientTransform="matrix(44.6655 0 0 -44.6655 6.7424 1940.4343)" gradientUnits="userSpaceOnUse">
			<stop  offset="0" style="stop-color:#FFFFFF"/>
			<stop  offset="4.095316e-02" style="stop-color:#FAFAF8"/>
			<stop  offset="0.2247" style="stop-color:#F8F8F5"/>
			<stop  offset="0.2867" style="stop-color:#DADAD7"/>
			<stop  offset="0.4133" style="stop-color:#A3A4A1"/>
			<stop  offset="0.5197" style="stop-color:#7E7F7C"/>
			<stop  offset="0.6004" style="stop-color:#686866"/>
			<stop  offset="0.6461" style="stop-color:#5F5F5D"/>
			<stop  offset="0.7394" style="stop-color:#565653"/>
			<stop  offset="0.8995" style="stop-color:#393835"/>
			<stop  offset="1" style="stop-color:#000000"/>
		</radialGradient>
		<rect x="0.6" y="0.1" class="st2" width="42.8" height="42.8"/>
	</g>
	<g class="st0">
		<defs>
			<path id="SVGID_8_" d="M10.5,33.1c-3-3-4.8-7.1-4.8-11.5c0-4.5,1.8-8.6,4.8-11.5S17.6,5.3,22,5.3s8.6,1.8,11.5,4.8
				c3,3,4.8,7,4.8,11.5c0,4.5-1.8,8.6-4.8,11.5c-3,2.9-7.1,4.8-11.5,4.8S13.5,36,10.5,33.1 M10.4,9.9c-3,3-4.8,7.1-4.8,11.7
				c0,4.5,1.9,8.6,4.8,11.7c3,3,7.1,4.8,11.7,4.8s8.6-1.9,11.7-4.8c3-3,4.8-7.1,4.8-11.7c0-4.6-1.9-8.7-4.8-11.7
				c-3-3-7.1-4.8-11.7-4.8S13.3,6.9,10.4,9.9"/>
		</defs>
		<clipPath id="SVGID_9_">
			<use xlink:href="#SVGID_8_"  style="overflow:visible;"/>
		</clipPath>
		
			<linearGradient id="SVGID_10_" gradientUnits="userSpaceOnUse" x1="0" y1="43.0557" x2="1" y2="43.0557" gradientTransform="matrix(16.0139 5.514 5.514 -16.0139 -223.8209 708.1839)">
			<stop  offset="0" style="stop-color:#DCDBD3"/>
			<stop  offset="1" style="stop-color:#FFFFFF"/>
		</linearGradient>
		<polygon class="st3" points="9,-5 48.7,8.6 35,48.2 -4.6,34.6 		"/>
	</g>
	<g class="st0">
		<defs>
			<path id="SVGID_11_" d="M22,0c-6,0-11.3,2.4-15.2,6.3s-6.3,9.3-6.3,15.2c0,6,2.4,11.3,6.3,15.3c3.9,3.9,9.3,6.3,15.2,6.3
				c6,0,11.3-2.4,15.2-6.3s6.3-9.3,6.3-15.3c0-4.8-1.6-9.2-4.2-12.8l-0.1,0.1c2.7,3.6,4.2,8,4.2,12.7C43.4,33.3,33.8,43,22,43
				S0.6,33.3,0.6,21.5S10.2,0.1,22,0.1c4.9,0,9.4,1.7,13,4.4l0.1-0.1C31.5,1.7,26.9,0,22,0z"/>
		</defs>
		<clipPath id="SVGID_12_">
			<use xlink:href="#SVGID_11_"  style="overflow:visible;"/>
		</clipPath>
		
			<radialGradient id="SVGID_13_" cx="0" cy="43.0561" r="1" gradientTransform="matrix(49.0182 0 0 -49.0182 34.7421 2145.8442)" gradientUnits="userSpaceOnUse">
			<stop  offset="0" style="stop-color:#BBBCB7"/>
			<stop  offset="1" style="stop-color:#808078"/>
		</radialGradient>
		<rect x="0.5" y="0" class="st4" width="43.1" height="43.1"/>
	</g>
	<g class="st0">
		<defs>
			<path id="SVGID_14_" d="M8.1,21.6c0-7.8,6.3-14,14-14s14,6.3,14,14c0,7.7-6.3,14-14,14S8.1,29.3,8.1,21.6 M5.7,21.6
				c0,9,7.3,16.3,16.3,16.3s16.3-7.3,16.3-16.3C38.4,12.5,31,5.3,22,5.3S5.7,12.5,5.7,21.6"/>
		</defs>
		<clipPath id="SVGID_15_">
			<use xlink:href="#SVGID_14_"  style="overflow:visible;"/>
		</clipPath>
		
			<radialGradient id="SVGID_16_" cx="0" cy="43.0561" r="1" gradientTransform="matrix(34.4228 0 0 -34.4228 29.743 1511.4238)" gradientUnits="userSpaceOnUse">
			<stop  offset="0" style="stop-color:#FFFFFF"/>
			<stop  offset="0.1572" style="stop-color:#F1F1F2"/>
			<stop  offset="0.2978" style="stop-color:#E4E4E5"/>
			<stop  offset="0.335" style="stop-color:#CECFCE"/>
			<stop  offset="0.3996" style="stop-color:#AEAEAC"/>
			<stop  offset="0.4637" style="stop-color:#959694"/>
			<stop  offset="0.526" style="stop-color:#858683"/>
			<stop  offset="0.5858" style="stop-color:#7C7C79"/>
			<stop  offset="0.6404" style="stop-color:#787976"/>
			<stop  offset="0.7377" style="stop-color:#5E5E5A"/>
			<stop  offset="0.8456" style="stop-color:#42423E"/>
			<stop  offset="0.9369" style="stop-color:#1C1C1B"/>
			<stop  offset="1" style="stop-color:#000000"/>
		</radialGradient>
		<rect x="5.7" y="5.3" class="st5" width="32.7" height="32.7"/>
	</g>
	<g class="st0">
		<defs>
			<rect id="SVGID_17_" y="0" width="44.1" height="43.1"/>
		</defs>
		<clipPath id="SVGID_18_">
			<use xlink:href="#SVGID_17_"  style="overflow:visible;"/>
		</clipPath>
		<g class="st6">
			<g>
				<defs>
					<rect id="SVGID_19_" x="2.5" y="26.6" width="0.2" height="0.2"/>
				</defs>
				<clipPath id="SVGID_20_">
					<use xlink:href="#SVGID_19_"  style="overflow:visible;"/>
				</clipPath>
				<g class="st7">
					<defs>
						<path id="SVGID_21_" d="M2.5,26.7C2.5,26.7,2.5,26.8,2.5,26.7C2.5,26.8,2.5,26.8,2.5,26.7c0.1,0.1,0.1,0.1,0.1,0.1
							c0,0,0,0,0,0v-0.2C2.6,26.6,2.6,26.6,2.5,26.7C2.5,26.7,2.5,26.7,2.5,26.7"/>
					</defs>
					<clipPath id="SVGID_22_">
						<use xlink:href="#SVGID_21_"  style="overflow:visible;"/>
					</clipPath>
					
						<linearGradient id="SVGID_23_" gradientUnits="userSpaceOnUse" x1="0" y1="43.0557" x2="1" y2="43.0557" gradientTransform="matrix(0 -0.121 -0.121 0 7.7815 26.8081)">
						<stop  offset="0" style="stop-color:#FFFFFF"/>
						<stop  offset="0.17" style="stop-color:#F8F8F5"/>
						<stop  offset="0.427" style="stop-color:#B1B1AC"/>
						<stop  offset="0.4352" style="stop-color:#ADAEA8"/>
						<stop  offset="0.5344" style="stop-color:#898984"/>
						<stop  offset="0.6334" style="stop-color:#6C6C67"/>
						<stop  offset="0.7305" style="stop-color:#53524E"/>
						<stop  offset="0.8252" style="stop-color:#3D3C38"/>
						<stop  offset="0.9163" style="stop-color:#222120"/>
						<stop  offset="1" style="stop-color:#191817"/>
					</linearGradient>
					<rect x="2.5" y="26.6" class="st8" width="0.2" height="0.2"/>
				</g>
			</g>
		</g>
		<g class="st6">
			<g>
				<defs>
					<rect id="SVGID_24_" x="5.5" y="26.3" width="0.1" height="0.1"/>
				</defs>
				<clipPath id="SVGID_25_">
					<use xlink:href="#SVGID_24_"  style="overflow:visible;"/>
				</clipPath>
				<g class="st9">
					<defs>
						<rect id="SVGID_26_" x="5.5" y="26.3" width="0.1" height="0.1"/>
					</defs>
					<clipPath id="SVGID_27_">
						<use xlink:href="#SVGID_26_"  style="overflow:visible;"/>
					</clipPath>
					
						<linearGradient id="SVGID_28_" gradientUnits="userSpaceOnUse" x1="0" y1="43.045" x2="1" y2="43.045" gradientTransform="matrix(0 -4.962180e-02 -4.962180e-02 0 7.729 26.3512)">
						<stop  offset="0" style="stop-color:#FFFFFF"/>
						<stop  offset="0.17" style="stop-color:#F8F8F5"/>
						<stop  offset="0.427" style="stop-color:#B1B1AC"/>
						<stop  offset="0.4352" style="stop-color:#ADAEA8"/>
						<stop  offset="0.5344" style="stop-color:#898984"/>
						<stop  offset="0.6334" style="stop-color:#6C6C67"/>
						<stop  offset="0.7305" style="stop-color:#53524E"/>
						<stop  offset="0.8252" style="stop-color:#3D3C38"/>
						<stop  offset="0.9163" style="stop-color:#222120"/>
						<stop  offset="1" style="stop-color:#191817"/>
					</linearGradient>
					<rect x="5.5" y="26.3" class="st10" width="0.1" height="0.1"/>
				</g>
			</g>
		</g>
		<g class="st6">
			<g>
				<defs>
					<rect id="SVGID_29_" x="5.5" y="26.4" width="0.1" height="0.1"/>
				</defs>
				<clipPath id="SVGID_30_">
					<use xlink:href="#SVGID_29_"  style="overflow:visible;"/>
				</clipPath>
				<g class="st11">
					<defs>
						<rect id="SVGID_31_" x="5.5" y="26.4" width="0.1" height="0.1"/>
					</defs>
					<clipPath id="SVGID_32_">
						<use xlink:href="#SVGID_31_"  style="overflow:visible;"/>
					</clipPath>
					
						<linearGradient id="SVGID_33_" gradientUnits="userSpaceOnUse" x1="0" y1="43.0454" x2="1" y2="43.0454" gradientTransform="matrix(0 -5.132480e-02 -5.132480e-02 0 7.8023 26.4554)">
						<stop  offset="0" style="stop-color:#FFFFFF"/>
						<stop  offset="0.17" style="stop-color:#F8F8F5"/>
						<stop  offset="0.427" style="stop-color:#B1B1AC"/>
						<stop  offset="0.4352" style="stop-color:#ADAEA8"/>
						<stop  offset="0.5344" style="stop-color:#898984"/>
						<stop  offset="0.6334" style="stop-color:#6C6C67"/>
						<stop  offset="0.7305" style="stop-color:#53524E"/>
						<stop  offset="0.8252" style="stop-color:#3D3C38"/>
						<stop  offset="0.9163" style="stop-color:#222120"/>
						<stop  offset="1" style="stop-color:#191817"/>
					</linearGradient>
					<rect x="5.5" y="26.4" class="st12" width="0.1" height="0.1"/>
				</g>
			</g>
		</g>
		<g class="st6">
			<g>
				<defs>
					<rect id="SVGID_34_" x="3.5" y="26.6" width="0.2" height="0.2"/>
				</defs>
				<clipPath id="SVGID_35_">
					<use xlink:href="#SVGID_34_"  style="overflow:visible;"/>
				</clipPath>
				<g class="st13">
					<defs>
						<path id="SVGID_36_" d="M3.5,26.7C3.5,26.7,3.5,26.8,3.5,26.7C3.5,26.8,3.5,26.8,3.5,26.7c0.1,0.1,0.1,0.1,0.1,0.1
							c0,0,0,0,0,0v-0.2C3.6,26.6,3.6,26.6,3.5,26.7C3.5,26.7,3.5,26.7,3.5,26.7"/>
					</defs>
					<clipPath id="SVGID_37_">
						<use xlink:href="#SVGID_36_"  style="overflow:visible;"/>
					</clipPath>
					
						<linearGradient id="SVGID_38_" gradientUnits="userSpaceOnUse" x1="0" y1="43.0532" x2="1" y2="43.0532" gradientTransform="matrix(0 -0.121 -0.121 0 8.7942 26.8081)">
						<stop  offset="0" style="stop-color:#FFFFFF"/>
						<stop  offset="0.17" style="stop-color:#F8F8F5"/>
						<stop  offset="0.427" style="stop-color:#B1B1AC"/>
						<stop  offset="0.4352" style="stop-color:#ADAEA8"/>
						<stop  offset="0.5344" style="stop-color:#898984"/>
						<stop  offset="0.6334" style="stop-color:#6C6C67"/>
						<stop  offset="0.7305" style="stop-color:#53524E"/>
						<stop  offset="0.8252" style="stop-color:#3D3C38"/>
						<stop  offset="0.9163" style="stop-color:#222120"/>
						<stop  offset="1" style="stop-color:#191817"/>
					</linearGradient>
					<rect x="3.5" y="26.6" class="st14" width="0.2" height="0.2"/>
				</g>
			</g>
		</g>
		<g class="st6">
			<g>
				<defs>
					<rect id="SVGID_39_" x="6" y="26.4" width="0.3" height="0.1"/>
				</defs>
				<clipPath id="SVGID_40_">
					<use xlink:href="#SVGID_39_"  style="overflow:visible;"/>
				</clipPath>
				<g class="st15">
					<defs>
						<rect id="SVGID_41_" x="6" y="26.4" width="0.3" height="0.1"/>
					</defs>
					<clipPath id="SVGID_42_">
						<use xlink:href="#SVGID_41_"  style="overflow:visible;"/>
					</clipPath>
					
						<linearGradient id="SVGID_43_" gradientUnits="userSpaceOnUse" x1="0" y1="43.0542" x2="1" y2="43.0542" gradientTransform="matrix(0 -7.716330e-02 -7.716330e-02 0 9.4407 26.5488)">
						<stop  offset="0" style="stop-color:#FFFFFF"/>
						<stop  offset="0.17" style="stop-color:#F8F8F5"/>
						<stop  offset="0.427" style="stop-color:#B1B1AC"/>
						<stop  offset="0.4352" style="stop-color:#ADAEA8"/>
						<stop  offset="0.5344" style="stop-color:#898984"/>
						<stop  offset="0.6334" style="stop-color:#6C6C67"/>
						<stop  offset="0.7305" style="stop-color:#53524E"/>
						<stop  offset="0.8252" style="stop-color:#3D3C38"/>
						<stop  offset="0.9163" style="stop-color:#222120"/>
						<stop  offset="1" style="stop-color:#191817"/>
					</linearGradient>
					<rect x="6" y="26.4" class="st16" width="0.3" height="0.1"/>
				</g>
			</g>
		</g>
		<g class="st6">
			<g>
				<defs>
					<rect id="SVGID_44_" x="1.1" y="26" width="8.8" height="2.6"/>
				</defs>
				<clipPath id="SVGID_45_">
					<use xlink:href="#SVGID_44_"  style="overflow:visible;"/>
				</clipPath>
				<g class="st17">
					<defs>
						<path id="SVGID_46_" d="M8.8,26H1.1c0.2,0.9,0.4,1.8,0.7,2.6H10C9.5,27.8,9.1,26.9,8.8,26 M5.5,26.1L5.5,26.1L5.5,26.1l0,0.1
							h0.1l0,0l0,0l0,0v0.1h0l0,0l0,0.1H5.7c0,0.1,0,0.1,0,0.1l0,0v0H5.5v0.1h0.1l0,0l0,0.1H5.5v0.1h0.1l0,0l0,0.1H5.5
							c0,0,0,0.1,0,0.1l0,0c0-0.1,0-0.1,0-0.1H5.4c0,0,0,0,0,0l0,0h0.2v-0.1H5.4c0,0,0,0,0,0l0,0h0.1v-0.1H5.4c0,0,0,0,0,0l0,0h0.1
							v-0.1H5.4c0,0,0,0,0,0l0,0h0.2v-0.1H5.4c0,0,0,0,0,0l0,0h0.1C5.5,26.2,5.5,26.2,5.5,26.1 M2.4,26.8H2.1v0h0.1c0,0,0,0,0,0
							c0,0,0,0,0,0v-0.5c0,0,0,0,0,0c0,0,0,0,0,0H2.1v0h0c0,0,0,0,0,0c0,0,0,0,0,0h0L2.4,26.8C2.3,26.8,2.3,26.8,2.4,26.8
							C2.3,26.8,2.3,26.8,2.4,26.8L2.4,26.8L2.4,26.8z M2.7,26.8C2.7,26.8,2.7,26.8,2.7,26.8C2.7,26.8,2.7,26.8,2.7,26.8
							C2.7,26.8,2.7,26.8,2.7,26.8c-0.1,0-0.1,0-0.1,0c0,0,0,0-0.1,0c0,0-0.1,0-0.1,0c0,0,0,0,0-0.1c0,0,0-0.1,0-0.1
							c0,0,0.1,0,0.2-0.1v0c0,0,0,0,0-0.1c0,0,0,0-0.1,0c0,0-0.1,0-0.1,0c0,0,0,0,0,0c0,0,0,0,0,0c0,0,0,0,0,0c0,0,0,0,0,0
							c0,0,0,0,0,0c0,0,0,0,0-0.1c0,0,0.1,0,0.1,0c0,0,0.1,0,0.1,0c0,0,0,0,0,0.1L2.7,26.8C2.7,26.8,2.7,26.8,2.7,26.8
							C2.7,26.8,2.7,26.8,2.7,26.8C2.7,26.8,2.7,26.8,2.7,26.8C2.7,26.8,2.7,26.8,2.7,26.8L2.7,26.8C2.7,26.8,2.7,26.8,2.7,26.8
							 M3.1,26.8H3v0L3.1,26.8C3,26.8,3,26.8,3.1,26.8C3,26.8,3,26.8,3.1,26.8L3,26.5c0,0,0,0,0-0.1c0,0,0,0,0,0c0,0,0,0,0,0
							c0,0,0,0,0,0.1v0.2c0,0,0,0,0,0c0,0,0,0,0,0h0v0H2.8v0h0c0,0,0,0,0,0c0,0,0,0,0,0v-0.3c0,0,0,0,0,0c0,0,0,0,0,0h0v0h0
							c0,0,0,0,0,0c0,0,0,0,0,0h0v0.1c0,0,0,0,0,0c0,0,0,0,0,0c0,0,0.1,0,0.1,0c0,0,0,0.1,0,0.1L3.1,26.8C3,26.8,3,26.8,3.1,26.8
							C3,26.8,3.1,26.8,3.1,26.8L3.1,26.8L3.1,26.8z M3.4,26.8C3.3,26.8,3.3,26.8,3.4,26.8c-0.1,0-0.1,0-0.1,0c0,0,0-0.1,0-0.1v-0.2
							H3.1v0h0c0,0,0,0,0.1,0c0,0,0,0,0-0.1l0,0h0v0.1h0.1v0H3.3v0.2C3.3,26.7,3.3,26.8,3.4,26.8C3.3,26.8,3.3,26.8,3.4,26.8
							C3.3,26.8,3.3,26.8,3.4,26.8C3.4,26.8,3.4,26.7,3.4,26.8L3.4,26.8C3.4,26.7,3.4,26.8,3.4,26.8 M3.7,26.8
							C3.7,26.8,3.7,26.8,3.7,26.8C3.7,26.8,3.7,26.8,3.7,26.8C3.7,26.8,3.7,26.8,3.7,26.8c-0.1,0-0.1,0-0.1,0c0,0,0,0-0.1,0
							c0,0-0.1,0-0.1,0c0,0,0,0,0-0.1c0,0,0-0.1,0-0.1c0,0,0.1,0,0.2-0.1v0c0,0,0,0,0-0.1c0,0,0,0-0.1,0c0,0-0.1,0-0.1,0
							c0,0,0,0,0,0c0,0,0,0,0,0c0,0,0,0,0,0c0,0,0,0,0,0c0,0,0,0,0,0c0,0,0,0,0-0.1c0,0,0.1,0,0.1,0c0,0,0.1,0,0.1,0c0,0,0,0,0,0.1
							L3.7,26.8C3.7,26.8,3.7,26.8,3.7,26.8C3.7,26.8,3.7,26.8,3.7,26.8C3.7,26.8,3.7,26.8,3.7,26.8C3.7,26.8,3.7,26.8,3.7,26.8
							L3.7,26.8C3.8,26.8,3.8,26.8,3.7,26.8 M4.1,26.5C4.1,26.5,4.1,26.5,4.1,26.5C4,26.5,4,26.5,4.1,26.5C4,26.5,4,26.5,4.1,26.5
							C4,26.5,4,26.5,4.1,26.5C4,26.5,4,26.5,4.1,26.5c-0.1,0-0.1,0-0.1,0c0,0,0,0.1-0.1,0.1v0.2c0,0,0,0,0,0c0,0,0,0,0,0H4v0H3.8v0
							h0.1c0,0,0,0,0,0c0,0,0,0,0,0v-0.3c0,0,0,0,0,0c0,0,0,0,0,0H3.8v0h0c0,0,0,0,0,0c0,0,0,0,0,0h0v0.1c0,0,0-0.1,0.1-0.1
							C4,26.4,4,26.4,4.1,26.5C4,26.4,4.1,26.4,4.1,26.5C4.1,26.5,4.1,26.5,4.1,26.5C4.1,26.5,4.1,26.5,4.1,26.5 M4.8,26.7v0.1
							c0,0,0,0.1-0.1,0.1c0,0,0-0.1-0.1-0.1v0c0,0,0.1,0,0.1,0c0,0,0,0,0,0L4.8,26.7H4.6c0,0,0,0-0.1,0l0,0L4.8,26.7
							c0,0,0-0.1,0-0.1L4.8,26.7l0.1-0.2H4.7l0,0l0,0h0.3l0,0l0,0.1C4.9,26.5,4.9,26.6,4.8,26.7L4.8,26.7L4.8,26.7L4.8,26.7l0.2,0
							l0,0l0.1,0.1H4.8z M5.1,26.5C5.1,26.5,5,26.5,5.1,26.5c-0.2,0-0.2-0.1-0.3-0.2h0c0,0.1,0,0.2,0,0.2l0,0c0,0,0-0.1,0-0.2
							c-0.1,0.1-0.2,0.2-0.3,0.3l0,0c0.1-0.1,0.2-0.2,0.2-0.3H4.6c0,0,0,0-0.1,0l0,0h0.3c0,0,0-0.1,0-0.1l0.1,0l0,0v0.1H5l0,0l0,0.1
							H4.8C4.9,26.4,5,26.5,5.1,26.5L5.1,26.5z M5.8,26.9C5.7,26.9,5.7,26.9,5.8,26.9c-0.1,0.1-0.2,0.1-0.2,0.1c-0.1,0-0.1,0-0.2,0
							c0,0-0.1,0-0.1-0.1c0,0-0.1,0.1-0.1,0.1l0,0c0,0,0.1-0.1,0.1-0.2c0-0.1,0-0.1-0.1-0.2l0,0c0,0.1,0,0.1,0.1,0.1
							c0-0.1,0-0.1,0-0.2H5.2l0,0l0,0l0,0c0-0.1,0.1-0.1,0.1-0.2H5.2l0,0l0,0h0.1l0,0l0,0.1l0,0c0,0.1-0.1,0.1-0.1,0.2h0.1l0,0l0,0
							l0,0c0,0.1,0,0.2,0,0.2c0,0,0.1,0,0.1,0.1c0,0,0.1,0,0.1,0C5.6,26.9,5.7,26.8,5.8,26.9L5.8,26.9z M6.4,26.8
							C6.4,26.9,6.4,26.9,6.4,26.8c-0.1,0-0.1,0-0.2,0c0,0-0.1-0.1-0.1-0.1c0,0-0.1-0.1-0.1-0.2H6v0.3l0.1-0.1l0,0
							C6,26.8,6,26.9,6,26.9l0-0.1c0,0,0,0,0,0v-0.5c0,0,0-0.1,0-0.1l0,0h0.1c0,0,0-0.1,0-0.1l0,0c0,0,0.1,0,0.1,0.1s0,0,0,0.1h0.1
							l0,0l0,0l0,0v0.2c0,0,0,0.1,0,0.1l0,0v0H6.1c0,0.1,0,0.1,0.1,0.1c0.1,0,0.1-0.1,0.2-0.1l0,0.1h0c-0.1,0-0.1,0.1-0.2,0.1
							c0,0,0.1,0.1,0.1,0.1C6.3,26.8,6.4,26.8,6.4,26.8L6.4,26.8z"/>
					</defs>
					<clipPath id="SVGID_47_">
						<use xlink:href="#SVGID_46_"  style="overflow:visible;"/>
					</clipPath>
					
						<linearGradient id="SVGID_48_" gradientUnits="userSpaceOnUse" x1="0" y1="43.0561" x2="1" y2="43.0561" gradientTransform="matrix(0 -1.5415 -1.5415 0 71.9037 28.708)">
						<stop  offset="0" style="stop-color:#FFFFFF"/>
						<stop  offset="0.17" style="stop-color:#F8F8F5"/>
						<stop  offset="0.427" style="stop-color:#B1B1AC"/>
						<stop  offset="0.4352" style="stop-color:#ADAEA8"/>
						<stop  offset="0.5344" style="stop-color:#898984"/>
						<stop  offset="0.6334" style="stop-color:#6C6C67"/>
						<stop  offset="0.7305" style="stop-color:#53524E"/>
						<stop  offset="0.8252" style="stop-color:#3D3C38"/>
						<stop  offset="0.9163" style="stop-color:#222120"/>
						<stop  offset="1" style="stop-color:#191817"/>
					</linearGradient>
					<rect x="1.1" y="26" class="st18" width="8.8" height="2.6"/>
				</g>
			</g>
		</g>
		<g class="st6">
			<g>
				<defs>
					<rect id="SVGID_49_" x="6" y="26.3" width="0.3" height="0.1"/>
				</defs>
				<clipPath id="SVGID_50_">
					<use xlink:href="#SVGID_49_"  style="overflow:visible;"/>
				</clipPath>
				<g class="st19">
					<defs>
						<rect id="SVGID_51_" x="6" y="26.3" width="0.3" height="0.1"/>
					</defs>
					<clipPath id="SVGID_52_">
						<use xlink:href="#SVGID_51_"  style="overflow:visible;"/>
					</clipPath>
					
						<linearGradient id="SVGID_53_" gradientUnits="userSpaceOnUse" x1="0" y1="43.0539" x2="1" y2="43.0539" gradientTransform="matrix(0 -6.905100e-02 -6.905100e-02 0 9.0914 26.3996)">
						<stop  offset="0" style="stop-color:#FFFFFF"/>
						<stop  offset="0.17" style="stop-color:#F8F8F5"/>
						<stop  offset="0.427" style="stop-color:#B1B1AC"/>
						<stop  offset="0.4352" style="stop-color:#ADAEA8"/>
						<stop  offset="0.5344" style="stop-color:#898984"/>
						<stop  offset="0.6334" style="stop-color:#6C6C67"/>
						<stop  offset="0.7305" style="stop-color:#53524E"/>
						<stop  offset="0.8252" style="stop-color:#3D3C38"/>
						<stop  offset="0.9163" style="stop-color:#222120"/>
						<stop  offset="1" style="stop-color:#191817"/>
					</linearGradient>
					<rect x="6" y="26.3" class="st20" width="0.3" height="0.1"/>
				</g>
			</g>
		</g>
		<g class="st21">
			<g>
				<defs>
					<rect id="SVGID_54_" x="34.1" y="26" width="8.8" height="2.6"/>
				</defs>
				<clipPath id="SVGID_55_">
					<use xlink:href="#SVGID_54_"  style="overflow:visible;"/>
				</clipPath>
				<g class="st22">
					<defs>
						<path id="SVGID_56_" d="M35.3,26H43c-0.2,0.9-0.5,1.8-0.7,2.6h-8.1C34.6,27.8,35,26.9,35.3,26"/>
					</defs>
					<clipPath id="SVGID_57_">
						<use xlink:href="#SVGID_56_"  style="overflow:visible;"/>
					</clipPath>
					
						<linearGradient id="SVGID_58_" gradientUnits="userSpaceOnUse" x1="0" y1="43.0563" x2="1" y2="43.0563" gradientTransform="matrix(0 -1.5415 1.5415 0 -27.829 28.708)">
						<stop  offset="0" style="stop-color:#FFFFFF"/>
						<stop  offset="0.17" style="stop-color:#F8F8F5"/>
						<stop  offset="0.427" style="stop-color:#B1B1AC"/>
						<stop  offset="0.4352" style="stop-color:#ADAEA8"/>
						<stop  offset="0.5344" style="stop-color:#898984"/>
						<stop  offset="0.6334" style="stop-color:#6C6C67"/>
						<stop  offset="0.7305" style="stop-color:#53524E"/>
						<stop  offset="0.8252" style="stop-color:#3D3C38"/>
						<stop  offset="0.9163" style="stop-color:#222120"/>
						<stop  offset="1" style="stop-color:#191817"/>
					</linearGradient>
					<rect x="34.1" y="26" class="st23" width="8.8" height="2.6"/>
				</g>
			</g>
		</g>
		<path class="st24" d="M43.3,16.1L43.3,16.1c0.5,1.7,0.7,3.5,0.7,5.4c0,1.9-0.3,3.8-0.7,5.6H0.8v-0.1h42.5c0.5-1.8,0.7-3.7,0.7-5.6
			C44,19.6,43.8,17.8,43.3,16.1"/>
	</g>
	<g class="st0">
		<defs>
			<path id="SVGID_59_" d="M0.7,16.1C0.3,17.8,0,19.6,0,21.5c0,1.9,0.3,3.8,0.8,5.6h42.5c0.5-1.8,0.7-3.7,0.7-5.6
				c0-1.9-0.2-3.7-0.6-5.4H0.7z"/>
		</defs>
		<clipPath id="SVGID_60_">
			<use xlink:href="#SVGID_59_"  style="overflow:visible;"/>
		</clipPath>
		
			<radialGradient id="SVGID_61_" cx="0" cy="43.0561" r="1" gradientTransform="matrix(27.7885 0 0 -27.7885 1.9941 1213.7766)" gradientUnits="userSpaceOnUse">
			<stop  offset="0" style="stop-color:#1D71B8"/>
			<stop  offset="8.217398e-02" style="stop-color:#1B69AB"/>
			<stop  offset="0.1658" style="stop-color:#1964A4"/>
			<stop  offset="0.2416" style="stop-color:#1963A1"/>
			<stop  offset="0.3915" style="stop-color:#175D98"/>
			<stop  offset="0.6854" style="stop-color:#0D4D80"/>
			<stop  offset="0.8371" style="stop-color:#004472"/>
			<stop  offset="0.9335" style="stop-color:#004372"/>
			<stop  offset="0.9682" style="stop-color:#004170"/>
			<stop  offset="0.9929" style="stop-color:#093E6F"/>
			<stop  offset="1" style="stop-color:#0B3D6E"/>
		</radialGradient>
		<rect x="0" y="16.1" class="st25" width="44" height="11"/>
	</g>
	<g class="st0">
		<defs>
			<polygon id="SVGID_62_" points="32.5,6.6 32.3,7.3 37.4,2.2 41.6,6.3 36.4,11.6 37.2,11.3 39.7,9.3 39.5,9 43.1,5.5 38.3,0.7 			
				"/>
		</defs>
		<clipPath id="SVGID_63_">
			<use xlink:href="#SVGID_62_"  style="overflow:visible;"/>
		</clipPath>
		
			<linearGradient id="SVGID_64_" gradientUnits="userSpaceOnUse" x1="0" y1="43.0428" x2="1.0006" y2="43.0428" gradientTransform="matrix(-10.8294 -10.8294 -10.8294 10.8294 508.9083 -454.8512)">
			<stop  offset="0" style="stop-color:#12110D"/>
			<stop  offset="5.618000e-03" style="stop-color:#12110D"/>
			<stop  offset="0.6461" style="stop-color:#444440"/>
			<stop  offset="0.6504" style="stop-color:#484744"/>
			<stop  offset="0.655" style="stop-color:#53534F"/>
			<stop  offset="0.6596" style="stop-color:#646460"/>
			<stop  offset="0.6642" style="stop-color:#7A7B77"/>
			<stop  offset="0.6689" style="stop-color:#969792"/>
			<stop  offset="0.6736" style="stop-color:#BBBBB7"/>
			<stop  offset="0.6783" style="stop-color:#E8E7E2"/>
			<stop  offset="0.68" style="stop-color:#FBFAF5"/>
			<stop  offset="0.6824" style="stop-color:#F8F7F2"/>
			<stop  offset="0.6839" style="stop-color:#F0F0EA"/>
			<stop  offset="0.6852" style="stop-color:#E4E3DD"/>
			<stop  offset="0.6864" style="stop-color:#D2D2CC"/>
			<stop  offset="0.6874" style="stop-color:#BBBCB5"/>
			<stop  offset="0.6885" style="stop-color:#A0A19A"/>
			<stop  offset="0.6894" style="stop-color:#83837D"/>
			<stop  offset="0.69" style="stop-color:#6D6D66"/>
			<stop  offset="0.7057" style="stop-color:#5F5F5B"/>
			<stop  offset="0.7315" style="stop-color:#4C4C4A"/>
			<stop  offset="0.7621" style="stop-color:#393838"/>
			<stop  offset="0.7999" style="stop-color:#202020"/>
			<stop  offset="0.8529" style="stop-color:#101010"/>
			<stop  offset="1" style="stop-color:#000000"/>
		</linearGradient>
		<polygon class="st26" points="37.7,17 26.8,6.2 37.7,-4.7 48.5,6.2 		"/>
	</g>
	<g class="st0">
		<defs>
			<path id="SVGID_65_" d="M33.6,0.2c4.2,2.2,7.6,5.7,9.9,9.8V0.2H33.6z"/>
		</defs>
		<clipPath id="SVGID_66_">
			<use xlink:href="#SVGID_65_"  style="overflow:visible;"/>
		</clipPath>
		
			<radialGradient id="SVGID_67_" cx="0" cy="43.0561" r="1" gradientTransform="matrix(11.6132 0 0 -11.6132 41.7441 501.3286)" gradientUnits="userSpaceOnUse">
			<stop  offset="0" style="stop-color:#565651"/>
			<stop  offset="1" style="stop-color:#52514D"/>
		</radialGradient>
		<rect x="33.6" y="0.2" class="st27" width="9.9" height="9.8"/>
	</g>
	<g class="st0">
		<defs>
			<rect id="SVGID_68_" y="0" width="44.1" height="43.1"/>
		</defs>
		<clipPath id="SVGID_69_">
			<use xlink:href="#SVGID_68_"  style="overflow:visible;"/>
		</clipPath>
		<path class="st28" d="M33.6,0.2c4.2,2.2,7.6,5.7,9.9,9.8"/>
		<path class="st29" d="M33.6,0.2c4.1,2.2,7.6,5.7,9.8,9.8"/>
		<path class="st30" d="M33.5,0.2c4.2,2.2,7.6,5.7,9.9,9.9"/>
		<path class="st31" d="M33.5,0.2c4.1,2.3,7.6,5.7,9.8,9.9"/>
	</g>
	<g class="st0">
		<defs>
			<path id="SVGID_70_" d="M33.6,0c-0.1,0-0.1,0.1-0.1,0.2h0.1h10c0-0.1-0.1-0.2-0.1-0.2H33.6z"/>
		</defs>
		<clipPath id="SVGID_71_">
			<use xlink:href="#SVGID_70_"  style="overflow:visible;"/>
		</clipPath>
		
			<linearGradient id="SVGID_72_" gradientUnits="userSpaceOnUse" x1="-1.991558e-05" y1="43.0561" x2="1" y2="43.0561" gradientTransform="matrix(10.1518 0 0 -10.1518 33.4082 437.2049)">
			<stop  offset="0" style="stop-color:#5D5D5F"/>
			<stop  offset="1.919627e-02" style="stop-color:#5B5B5C"/>
			<stop  offset="0.2048" style="stop-color:#484745"/>
			<stop  offset="0.4097" style="stop-color:#31302E"/>
			<stop  offset="0.6486" style="stop-color:#1E1E1D"/>
			<stop  offset="1" style="stop-color:#191817"/>
		</linearGradient>
		<rect x="33.4" y="0" class="st32" width="10.2" height="0.2"/>
	</g>
	<g class="st0">
		<defs>
			<path id="SVGID_73_" d="M43.3,0v10.1l0.1,0.1c0.1,0,0.1-0.1,0.1-0.2V0.2C43.6,0.1,43.5,0,43.3,0L43.3,0z"/>
		</defs>
		<clipPath id="SVGID_74_">
			<use xlink:href="#SVGID_73_"  style="overflow:visible;"/>
		</clipPath>
		
			<linearGradient id="SVGID_75_" gradientUnits="userSpaceOnUse" x1="0" y1="43.0561" x2="1" y2="43.0561" gradientTransform="matrix(0 -10.2241 -10.2241 0 483.6627 10.2241)">
			<stop  offset="0" style="stop-color:#5D5D5F"/>
			<stop  offset="0.3855" style="stop-color:#454542"/>
			<stop  offset="0.7416" style="stop-color:#252524"/>
			<stop  offset="1" style="stop-color:#191817"/>
		</linearGradient>
		<rect x="43.3" y="0" class="st33" width="0.2" height="10.2"/>
	</g>
	<g class="st0">
		<defs>
			<rect id="SVGID_76_" y="0" width="44.1" height="43.1"/>
		</defs>
		<clipPath id="SVGID_77_">
			<use xlink:href="#SVGID_76_"  style="overflow:visible;"/>
		</clipPath>
		<path class="st34" d="M37.4,24.2c-1.9,0-3.5-1.2-3.5-2.6c0-1.4,1.6-2.6,3.5-2.6c2,0,3.6,1.2,3.6,2.6C41,23,39.4,24.2,37.4,24.2
			 M37.4,19.8c-0.7,0-1.2,0.8-1.2,1.8c0,1,0.5,1.8,1.2,1.8c0.6,0,1.2-0.8,1.2-1.8C38.6,20.6,38.1,19.8,37.4,19.8 M15.6,24.2
			c-1.9,0-3.5-1.2-3.5-2.6c0-1.4,1.6-2.5,3.5-2.5c2,0,3.6,1.1,3.6,2.5C19.1,23,17.5,24.2,15.6,24.2 M15.6,19.8
			c-0.7,0-1.2,0.8-1.2,1.8c0,1,0.5,1.8,1.2,1.8c0.6,0,1.2-0.8,1.2-1.8C16.7,20.6,16.2,19.8,15.6,19.8 M28.4,24.1l-2.3-4.2l-1.1,0
			l0-0.7l4.9,0l0,0.7l-1.3,0l1.8,2.9l1.5-3l-0.8,0l0-0.7l3.4,0l0,0.7l-1.2,0L31,24.1H28.4z M19.4,24.1l0-0.8l1.2,0l0-3.4l-1.1,0
			l0-0.7l4.6,0l0,0.7l-1.2,0l0,3.4l1.2,0c0.4,0,1.4-0.3,1.5-1.4l0.7,0l0,2.3H19.4z M6.5,24.1l-2.3-4.2l-1.1,0l0-0.7l4.9,0l0,0.7
			l-1.3,0l1.8,2.9l1.5-3l-0.9,0l0-0.7l3.4,0l0,0.7l-1.2,0l-2.2,4.2H6.5z"/>
		<path class="st35" d="M37.4,19c1.9,0,3.5,1.2,3.5,2.6s-1.6,2.6-3.5,2.6c-1.9,0-3.5-1.2-3.5-2.6S35.6,19,37.4,19 M37.4,23.4
			c0.6,0,1.2-0.8,1.2-1.8c0-1.1-0.6-1.9-1.2-1.9c-0.7,0-1.2,0.8-1.2,1.9C36.2,22.6,36.7,23.4,37.4,23.4 M15.6,19.1
			c1.9,0,3.5,1.2,3.5,2.5c0,1.4-1.6,2.6-3.5,2.6c-1.9,0-3.5-1.2-3.5-2.6C12.1,20.2,13.7,19.1,15.6,19.1 M15.6,23.4
			c0.6,0,1.2-0.8,1.2-1.8s-0.6-1.8-1.2-1.8c-0.7,0-1.2,0.8-1.2,1.8S14.8,23.4,15.6,23.4 M34.4,19.2v0.6h-1.2L31,24h-2.7l-2.2-4.2H25
			v-0.6h4.9v0.6h-1.2l1.7,3l1.5-3H31v-0.6H34.4 M23.9,19.2v0.6h-1.2v3.4H24c0.4,0,1.4-0.3,1.5-1.4h0.7V24h-5.7h-1.2v-0.8h1.2v-3.4
			h-1.2v-0.6H23.9 M12.5,19.2v0.6h-1.2L9.1,24H6.5l-2.2-4.2H3.1v-0.6H8v0.6H6.8l1.7,3l1.6-3H9.1v-0.6H12.5 M37.4,18.9
			c-1.9,0-3.5,1.2-3.5,2.7s1.6,2.7,3.5,2.7c2,0,3.6-1.2,3.6-2.7S39.4,18.9,37.4,18.9 M37.4,23.3c-0.7,0-1.2-0.7-1.2-1.7
			c0-1,0.5-1.8,1.2-1.8c0.6,0,1.2,0.8,1.2,1.8C38.6,22.5,38.1,23.3,37.4,23.3 M15.6,19c-1.9,0-3.5,1.2-3.5,2.6
			c0,1.5,1.6,2.7,3.5,2.7c2,0,3.6-1.2,3.6-2.7C19.1,20.2,17.5,19,15.6,19 M15.6,23.3c-0.7,0-1.2-0.7-1.2-1.7s0.5-1.7,1.2-1.7
			c0.6,0,1.2,0.8,1.2,1.7S16.2,23.3,15.6,23.3 M34.5,19.2L34.5,19.2H31H31v0.1v0.6v0.1H31h0.8l-1.4,2.8l-1.6-2.8h1.1h0.1v-0.1v-0.6
			v-0.1h-0.1H25h-0.1v0.1v0.6v0.1H25h1.1l2.2,4.1l0,0h0H31h0l0,0l2.2-4.1h1.1h0.1v-0.1V19.2L34.5,19.2z M24,19.2L24,19.2h-4.6h-0.1
			v0.1v0.6v0.1h0.1h1.1v3.3h-1.1h-0.1v0.1V24v0.1h0.1h1.2h5.7h0.1V24v-2.2v-0.1h-0.1h-0.7h-0.1l0,0.1c-0.1,1.1-1.1,1.4-1.5,1.4h-1.2
			v-3.3h1.1H24v-0.1V19.2L24,19.2z M12.6,19.2L12.6,19.2H9.1H9.1v0.1v0.6v0.1h0.1H10l-1.5,2.8l-1.6-2.8H8h0.1v-0.1v-0.6v-0.1H8H3.1
			H3v0.1v0.6v0.1h0.1h1.1l2.2,4.1l0,0h0h2.7h0l0,0l2.2-4.1h1.1h0.1v-0.1V19.2L12.6,19.2z"/>
	</g>
	<g class="st0">
		<defs>
			<path id="SVGID_78_" d="M0.8,16.1c-0.4,1.7-0.7,3.5-0.7,5.4c0,0.2,0.1,1.1,0.1,1.2l0.1,1.4c0-0.1-0.1-2.4-0.1-2.5
				c0-1.9,0.3-3.6,0.7-5.3L16,16.3l6.5-0.1H0.8z"/>
		</defs>
		<clipPath id="SVGID_79_">
			<use xlink:href="#SVGID_78_"  style="overflow:visible;"/>
		</clipPath>
		
			<linearGradient id="SVGID_80_" gradientUnits="userSpaceOnUse" x1="0" y1="43.0494" x2="1" y2="43.0494" gradientTransform="matrix(6.5003 8.792 8.792 -6.5003 -372.6612 292.5685)">
			<stop  offset="0" style="stop-color:#FFFFFF"/>
			<stop  offset="0.1091" style="stop-color:#D5DDF0"/>
			<stop  offset="0.3376" style="stop-color:#94ADD9"/>
			<stop  offset="0.5419" style="stop-color:#668EC9"/>
			<stop  offset="0.7143" style="stop-color:#437DBF"/>
			<stop  offset="0.8481" style="stop-color:#2974BA"/>
			<stop  offset="0.927" style="stop-color:#1D71B8"/>
			<stop  offset="0.9468" style="stop-color:#4079BC"/>
			<stop  offset="0.9667" style="stop-color:#5480C0"/>
			<stop  offset="0.985" style="stop-color:#6084C2"/>
			<stop  offset="1" style="stop-color:#6386C3"/>
		</linearGradient>
		<polygon class="st36" points="14.6,5.4 26.4,21.3 8,34.9 -3.8,19 		"/>
	</g>
</g>
</svg>
